<svg width="357" height="351" viewBox="0 0 357 351" fill="none" xmlns="http://www.w3.org/2000/svg">
<path d="M12.5 24C18.8513 24 24 18.8513 24 12.5C24 6.14873 18.8513 1 12.5 1C6.14873 1 1 6.14873 1 12.5C1 18.8513 6.14873 24 12.5 24Z" fill="#02E2AC" stroke="#0E0333" stroke-miterlimit="10"/>
<path d="M48.5 59C54.8513 59 60 53.8513 60 47.5C60 41.1487 54.8513 36 48.5 36C42.1487 36 37 41.1487 37 47.5C37 53.8513 42.1487 59 48.5 59Z" fill="#FFE921" stroke="#0E0333" stroke-miterlimit="10"/>
<path d="M84 95C90.0751 95 95 89.8513 95 83.5C95 77.1487 90.0751 72 84 72C77.9249 72 73 77.1487 73 83.5C73 89.8513 77.9249 95 84 95Z" fill="#6F3FF5" stroke="#0E0333" stroke-miterlimit="10"/>
<path d="M119.5 130C125.851 130 131 124.851 131 118.5C131 112.149 125.851 107 119.5 107C113.149 107 108 112.149 108 118.5C108 124.851 113.149 130 119.5 130Z" fill="#02E2AC" stroke="#0E0333" stroke-miterlimit="10"/>
<path d="M155.5 166C161.851 166 167 160.851 167 154.5C167 148.149 161.851 143 155.5 143C149.149 143 144 148.149 144 154.5C144 160.851 149.149 166 155.5 166Z" fill="#FFE921" stroke="#0E0333" stroke-miterlimit="10"/>
<path d="M237.5 130C243.851 130 249 124.851 249 118.5C249 112.149 243.851 107 237.5 107C231.149 107 226 112.149 226 118.5C226 124.851 231.149 130 237.5 130Z" fill="#02E2AC" stroke="#0E0333" stroke-miterlimit="10"/>
<path d="M201.5 166C207.851 166 213 160.851 213 154.5C213 148.149 207.851 143 201.5 143C195.149 143 190 148.149 190 154.5C190 160.851 195.149 166 201.5 166Z" fill="#FFE921" stroke="#0E0333" stroke-miterlimit="10"/>
<path d="M273.5 95C279.851 95 285 89.8513 285 83.5C285 77.1487 279.851 72 273.5 72C267.149 72 262 77.1487 262 83.5C262 89.8513 267.149 95 273.5 95Z" fill="#6F3FF5" stroke="#0E0333" stroke-miterlimit="10"/>
<path d="M308.5 59C314.851 59 320 53.8513 320 47.5C320 41.1487 314.851 36 308.5 36C302.149 36 297 41.1487 297 47.5C297 53.8513 302.149 59 308.5 59Z" fill="#FFE921" stroke="#0E0333" stroke-miterlimit="10"/>
<path d="M344.5 24C350.851 24 356 18.8513 356 12.5C356 6.14873 350.851 1 344.5 1C338.149 1 333 6.14873 333 12.5C333 18.8513 338.149 24 344.5 24Z" fill="#02E2AC" stroke="#0E0333" stroke-miterlimit="10"/>

</svg>