<svg width="357" height="351" viewBox="0 0 357 351" fill="none" xmlns="http://www.w3.org/2000/svg">
<path d="M13 12V154.247C13 246.341 87.318 321 179 321C270.677 321 345 246.345 345 154.247V12" fill="url(#paint0_linear_1553_23)"/>
<path d="M13 12V154.247C13 246.341 87.318 321 179 321C270.678 321 345 246.345 345 154.247V12" stroke="#0E0333" stroke-miterlimit="10"/>
<path d="M309 48C309 53.3121 308.758 164.901 308.605 169.575C305.886 254.038 249.83 321 178.5 321C107.17 321 51.114 254.038 48.3949 169.575C48.2423 164.901 48 53.3121 48 48" fill="url(#paint1_linear_1553_23)"/>
<path d="M309 48C309 53.3121 308.758 164.901 308.605 169.575C305.886 254.038 249.83 321 178.5 321C107.17 321 51.114 254.038 48.3949 169.575C48.2423 164.901 48 53.3121 48 48" stroke="#0E0333" stroke-miterlimit="10"/>
<path d="M273 83C273 93.6421 272.571 174.974 272.217 184.341C269.287 261.529 229.21 321 178.5 321C127.794 321 87.7177 261.529 84.7829 184.341C84.425 174.974 84 93.6421 84 83" fill="url(#paint2_linear_1553_23)"/>
<path d="M273 83C273 93.6421 272.571 174.974 272.217 184.341C269.287 261.529 229.21 321 178.5 321C127.794 321 87.7177 261.529 84.7829 184.341C84.425 174.974 84 93.6421 84 83" stroke="#0E0333" stroke-miterlimit="10"/>
<path d="M238 119C238 134.933 237.458 185.665 236.821 199.683C233.661 269.279 209.356 321 179 321C148.644 321 124.339 269.279 121.179 199.683C120.542 185.665 120 134.933 120 119" fill="url(#paint3_linear_1553_23)"/>
<path d="M238 119C238 134.933 237.458 185.665 236.821 199.683C233.661 269.279 209.356 321 179 321C148.644 321 124.339 269.279 121.179 199.683C120.542 185.665 120 134.933 120 119" stroke="#0E0333" stroke-miterlimit="10"/>
<path d="M202 154C202 246.23 191.477 321 178.5 321C165.519 321 155 246.234 155 154" fill="url(#paint4_linear_1553_23)"/>
<path d="M202 154C202 246.23 191.477 321 178.5 321C165.519 321 155 246.234 155 154" stroke="#0E0333" stroke-miterlimit="10"/>

</svg>