<svg width="2410" height="709" viewBox="0 0 2410 709" fill="none" xmlns="http://www.w3.org/2000/svg">
<path d="M849.347 381.395H984.86C984.86 395.422 984.133 408.342 983.044 420.155C981.954 431.598 979.41 442.303 976.141 452.27C971.418 466.297 964.515 478.479 956.159 489.553C947.803 500.258 937.994 509.117 926.368 516.5C915.105 523.514 902.753 529.051 889.311 532.742C875.868 536.434 861.7 538.279 846.804 538.279C826.459 538.279 807.567 534.957 790.492 527.943C773.78 520.93 759.247 511.701 747.258 499.15C735.269 486.6 725.823 471.834 718.921 454.485C712.018 437.135 708.748 417.571 708.748 396.899C708.748 376.227 712.018 357.032 718.557 339.682C725.46 322.333 734.543 307.198 746.895 295.016C759.247 282.835 774.143 273.237 791.218 266.223C808.294 259.21 827.549 255.887 848.621 255.887C876.232 255.887 900.21 261.794 920.918 273.975C941.627 286.157 957.975 304.614 969.965 330.084L904.933 357.401C898.757 342.635 891.127 332.299 881.318 326.024C871.872 319.749 860.973 316.426 848.621 316.426C838.448 316.426 829.002 318.272 820.646 322.333C812.29 326.024 805.024 331.561 798.848 338.944C793.035 345.957 788.312 354.817 785.042 364.784C781.772 375.12 780.319 386.194 780.319 398.744C780.319 410.188 781.772 420.524 784.679 430.121C787.585 439.719 791.945 448.209 797.758 455.223C803.571 462.236 810.837 467.774 819.556 471.834C828.275 475.525 838.085 477.371 849.71 477.371C856.613 477.371 862.789 476.633 869.329 475.156C875.505 473.68 881.318 471.096 886.041 467.774C891.127 464.082 895.487 459.652 898.757 454.485C902.026 449.317 904.206 442.303 905.296 434.551H848.984V381.395H849.347ZM1124.37 263.639V530.896H1056.07V263.639H1124.37ZM1313.65 322.702V530.896H1245.35V322.702H1189.04V263.639H1369.6V322.333H1313.65V322.702ZM1607.57 352.971C1591.58 333.407 1572.32 323.44 1549.07 323.44C1538.9 323.44 1529.45 325.286 1520.37 328.977C1511.65 332.668 1504.39 337.836 1498.21 344.481C1492.03 350.756 1486.95 358.508 1483.31 367.368C1479.68 376.227 1478.23 386.194 1478.23 396.53C1478.23 407.235 1480.05 416.832 1483.31 426.061C1486.95 434.92 1492.03 442.672 1498.21 449.317C1504.75 455.961 1512.38 461.129 1520.74 464.82C1529.45 468.512 1538.54 470.358 1548.71 470.358C1570.51 470.358 1590.13 460.76 1607.57 441.934V524.252L1600.66 526.836C1590.13 530.527 1580.32 533.48 1571.23 534.957C1562.15 536.803 1553.07 537.91 1544.35 537.91C1526.18 537.91 1508.75 534.588 1492.03 527.574C1475.69 520.561 1460.79 510.594 1448.07 498.043C1435.36 485.123 1425.55 470.358 1417.56 453.008C1409.93 435.658 1405.93 416.463 1405.93 395.791C1405.93 375.12 1409.56 356.293 1417.19 339.313C1424.82 321.963 1435 307.198 1447.71 295.016C1460.43 282.465 1475.32 272.868 1492.03 265.854C1508.75 258.841 1526.18 255.149 1544.71 255.149C1555.25 255.149 1565.42 256.257 1575.23 258.841C1585.4 261.055 1596.3 264.378 1607.2 269.176V352.971H1607.57ZM1734.72 397.268C1734.72 407.973 1736.54 417.571 1740.53 426.799C1744.53 435.658 1749.98 443.41 1756.52 450.055C1763.42 456.699 1771.05 461.867 1779.77 465.559C1788.85 469.25 1798.3 470.727 1808.47 470.727C1818.65 470.727 1827.73 468.881 1836.81 465.559C1845.89 461.867 1853.89 456.699 1860.43 450.055C1867.33 443.41 1872.78 435.658 1876.77 426.799C1880.77 417.94 1882.59 407.973 1882.59 397.268C1882.59 386.563 1880.77 376.965 1876.77 367.737C1872.78 358.877 1867.33 351.125 1860.43 344.481C1853.52 337.836 1845.89 332.668 1836.81 329.346C1828.09 325.655 1818.65 323.809 1808.47 323.809C1798.3 323.809 1788.85 325.655 1779.77 329.346C1771.05 333.038 1763.06 337.836 1756.52 344.481C1749.62 351.125 1744.53 358.877 1740.53 367.737C1736.54 376.965 1734.72 386.563 1734.72 397.268ZM1663.15 397.268C1663.15 377.334 1666.78 358.877 1674.05 341.897C1681.32 324.547 1691.13 309.782 1704.2 296.862C1716.92 283.942 1732.18 274.344 1749.98 266.962C1767.78 259.579 1787.4 255.887 1808.84 255.887C1829.91 255.887 1849.53 259.579 1867.33 266.962C1885.13 273.975 1900.75 283.942 1913.47 296.862C1926.55 309.782 1936.72 324.547 1943.99 341.897C1951.25 358.877 1954.88 377.334 1954.88 397.268C1954.88 417.201 1951.25 435.658 1943.99 453.008C1936.72 469.988 1926.55 484.754 1913.47 497.674C1900.75 510.594 1885.49 520.561 1867.33 527.943C1849.53 534.957 1829.91 538.648 1808.84 538.648C1787.4 538.648 1767.78 534.957 1749.98 527.943C1732.18 520.561 1716.92 510.594 1704.2 497.674C1691.49 484.754 1681.32 469.988 1674.05 453.008C1666.78 435.658 1663.15 417.201 1663.15 397.268ZM2079.14 263.639V530.896H2010.83V263.639H2079.14ZM2147.07 530.896V263.639H2215.37L2341.81 427.168V263.639H2409.74V530.896H2341.81L2215.37 367.368V530.896H2147.07Z" fill="#12023B"/>
<path d="M551.881 568.488C521.205 543.123 415.078 458.288 400.979 447.008C408.978 431.874 413.096 414.987 412.962 397.865C412.828 380.743 408.447 363.922 400.212 348.915L518.196 259.473L552.707 231.451C561.202 225.811 562.588 219.64 556.423 211.401C548.383 200.823 539.684 190.764 530.378 181.282C479.393 129.265 411.685 96.9581 339.214 90.0689V30.5987C339.319 22.9732 336.541 15.5898 331.438 9.92775C326.334 4.26574 319.282 0.743365 311.694 0.0663584C307.658 -0.205001 303.609 0.357793 299.799 1.71975C295.989 3.0817 292.5 5.2137 289.548 7.98319C286.596 10.7527 284.245 14.1004 282.641 17.8183C281.036 21.5362 280.213 25.5448 280.222 29.5948V90.0689C255.066 92.4464 230.299 97.921 206.482 106.369V30.5987C206.586 22.9732 203.809 15.5898 198.705 9.92775C193.602 4.26574 186.55 0.743365 178.962 0.0663584C174.926 -0.205001 170.877 0.357793 167.067 1.71975C163.257 3.0817 159.767 5.2137 156.816 7.98319C153.864 10.7527 151.513 14.1004 149.908 17.8183C148.304 21.5362 147.481 25.5448 147.49 29.5948V134.568C102.776 162.092 65.783 200.54 39.9854 246.304C14.1878 292.067 0.431895 343.644 0.00956905 396.19C-1.34725 568.104 141.768 708.748 313.494 708.748H542.737C546.916 708.744 550.959 707.259 554.15 704.557C557.34 701.855 559.473 698.109 560.169 693.984L560.405 586.737C560.416 583.254 559.657 579.812 558.184 576.657C556.71 573.502 554.558 570.713 551.881 568.488ZM501.443 649.691H312.815C174.184 649.691 58.3233 536.184 59.1492 397.43C59.2809 361.248 67.2466 325.524 82.4974 292.721C97.7483 259.917 119.922 230.813 147.49 207.415V264.818C147.385 272.444 150.163 279.827 155.266 285.489C160.37 291.151 167.422 294.673 175.01 295.35C179.046 295.622 183.095 295.059 186.905 293.697C190.715 292.335 194.204 290.203 197.156 287.434C200.108 284.664 202.459 281.316 204.064 277.598C205.668 273.88 206.491 269.872 206.482 265.822V170.002C238.91 155.278 274.111 147.676 309.718 147.708C375.671 147.708 431.242 169.618 476.017 211.283L355.585 306.128C339.816 298.296 322.309 294.629 304.727 295.478C287.145 296.326 270.071 301.662 255.128 310.976C240.186 320.291 227.871 333.276 219.353 348.698C210.835 364.119 206.398 381.465 206.463 399.087C206.527 416.709 211.092 434.022 219.723 449.38C228.353 464.739 240.763 477.633 255.774 486.838C270.785 496.042 287.897 501.252 305.485 501.971C323.073 502.69 340.553 498.895 356.263 490.947L354.759 492.305L501.443 605.399V649.691ZM353.962 398.7C353.962 407.46 351.367 416.024 346.506 423.307C341.644 430.591 334.734 436.268 326.65 439.621C318.565 442.973 309.669 443.85 301.087 442.141C292.504 440.432 284.621 436.214 278.433 430.019C272.245 423.825 268.031 415.933 266.324 407.341C264.617 398.749 265.493 389.843 268.842 381.75C272.191 373.656 277.862 366.739 285.138 361.872C292.413 357.005 300.968 354.407 309.718 354.407C321.453 354.407 332.706 359.074 341.004 367.38C349.301 375.687 353.962 386.953 353.962 398.7Z" fill="#0E0333"/>
<path d="M502.986 397.265C503.027 434.373 492.437 470.695 472.501 501.825C487.845 514.302 503.597 527.102 517.456 538.429C545.201 497.172 560.156 448.463 560.405 398.543C560.654 348.623 546.186 299.765 518.854 258.226L473.084 293.413C492.685 324.405 503.066 360.458 502.986 397.265V397.265Z" fill="#02E2AC"/>
</svg>
