<svg width="2112" height="1857" viewBox="0 0 2112 1857" fill="none" xmlns="http://www.w3.org/2000/svg">
<path d="M174.572 1661.55H342.828C342.828 1678.97 341.926 1695.01 340.572 1709.67C339.219 1723.88 336.062 1737.17 332.002 1749.55C326.138 1766.97 317.567 1782.09 307.192 1795.84C296.817 1809.13 284.637 1820.13 270.202 1829.3C256.219 1838.01 240.882 1844.88 224.191 1849.47C207.501 1854.05 189.909 1856.34 171.414 1856.34C146.153 1856.34 122.696 1852.22 101.495 1843.51C80.745 1834.8 62.7014 1823.34 47.8154 1807.76C32.9295 1792.17 21.2011 1773.84 12.6304 1752.3C4.05975 1730.76 0 1706.47 0 1680.8C0 1655.13 4.05979 1631.3 12.1794 1609.76C20.7501 1588.22 32.0273 1569.42 47.3644 1554.3C62.7014 1539.17 81.1961 1527.26 102.397 1518.55C123.598 1509.84 147.506 1505.72 173.669 1505.72C207.952 1505.72 237.724 1513.05 263.436 1528.17C289.148 1543.3 309.447 1566.22 324.333 1597.84L243.588 1631.76C235.92 1613.42 226.447 1600.59 214.267 1592.8C202.539 1585.01 189.006 1580.88 173.669 1580.88C161.039 1580.88 149.31 1583.17 138.935 1588.22C128.56 1592.8 119.539 1599.67 111.87 1608.84C104.653 1617.55 98.7886 1628.55 94.7288 1640.92C90.6689 1653.76 88.8646 1667.51 88.8646 1683.09C88.8646 1697.3 90.6689 1710.13 94.2776 1722.05C97.8863 1733.97 103.299 1744.51 110.517 1753.22C117.734 1761.92 126.756 1768.8 137.582 1773.84C148.408 1778.42 160.588 1780.72 175.023 1780.72C183.593 1780.72 191.262 1779.8 199.381 1777.97C207.05 1776.13 214.267 1772.92 220.132 1768.8C226.447 1764.22 231.86 1758.72 235.92 1752.3C239.979 1745.88 242.686 1737.17 244.039 1727.55H174.12V1661.55H174.572ZM516.046 1515.34V1847.17H431.241V1515.34H516.046ZM751.064 1588.67V1847.17H666.259V1588.67H596.34V1515.34H820.531V1588.22H751.064V1588.67ZM1115.99 1626.26C1096.15 1601.97 1072.24 1589.59 1043.37 1589.59C1030.74 1589.59 1019.01 1591.88 1007.73 1596.47C996.907 1601.05 987.885 1607.47 980.217 1615.72C972.548 1623.51 966.233 1633.13 961.722 1644.13C957.211 1655.13 955.407 1667.51 955.407 1680.34C955.407 1693.63 957.662 1705.55 961.722 1717.01C966.233 1728.01 972.548 1737.63 980.217 1745.88C988.337 1754.13 997.81 1760.55 1008.18 1765.13C1019.01 1769.72 1030.29 1772.01 1042.92 1772.01C1069.98 1772.01 1094.34 1760.09 1115.99 1736.72V1838.92L1107.42 1842.13C1094.34 1846.72 1082.16 1850.38 1070.89 1852.22C1059.61 1854.51 1048.33 1855.88 1037.51 1855.88C1014.95 1855.88 993.299 1851.76 972.549 1843.05C952.25 1834.34 933.755 1821.97 917.967 1806.38C902.179 1790.34 889.999 1772.01 880.075 1750.47C870.602 1728.92 865.64 1705.09 865.64 1679.42C865.64 1653.76 870.151 1630.38 879.624 1609.3C889.097 1587.76 901.727 1569.42 917.516 1554.3C933.304 1538.72 951.798 1526.8 972.549 1518.09C993.299 1509.38 1014.95 1504.8 1037.96 1504.8C1051.04 1504.8 1063.67 1506.17 1075.85 1509.38C1088.48 1512.13 1102.01 1516.26 1115.54 1522.22V1626.26H1115.99ZM1273.88 1681.26C1273.88 1694.55 1276.13 1706.47 1281.09 1717.92C1286.06 1728.92 1292.82 1738.55 1300.94 1746.8C1309.51 1755.05 1318.99 1761.47 1329.81 1766.05C1341.09 1770.63 1352.82 1772.47 1365.45 1772.47C1378.08 1772.47 1389.35 1770.17 1400.63 1766.05C1411.91 1761.47 1421.83 1755.05 1429.95 1746.8C1438.52 1738.55 1445.29 1728.92 1450.25 1717.92C1455.21 1706.92 1457.47 1694.55 1457.47 1681.26C1457.47 1667.97 1455.21 1656.05 1450.25 1644.59C1445.29 1633.59 1438.52 1623.97 1429.95 1615.72C1421.38 1607.47 1411.91 1601.05 1400.63 1596.92C1389.81 1592.34 1378.08 1590.05 1365.45 1590.05C1352.82 1590.05 1341.09 1592.34 1329.81 1596.92C1318.99 1601.51 1309.06 1607.47 1300.94 1615.72C1292.37 1623.97 1286.06 1633.59 1281.09 1644.59C1276.13 1656.05 1273.88 1667.97 1273.88 1681.26ZM1185.01 1681.26C1185.01 1656.51 1189.52 1633.59 1198.54 1612.51C1207.57 1590.97 1219.75 1572.63 1235.98 1556.59C1251.77 1540.55 1270.72 1528.63 1292.82 1519.47C1314.93 1510.3 1339.28 1505.72 1365.9 1505.72C1392.06 1505.72 1416.42 1510.3 1438.52 1519.47C1460.63 1528.17 1480.02 1540.55 1495.81 1556.59C1512.05 1572.63 1524.68 1590.97 1533.7 1612.51C1542.73 1633.59 1547.24 1656.51 1547.24 1681.26C1547.24 1706.01 1542.73 1728.92 1533.7 1750.47C1524.68 1771.55 1512.05 1789.88 1495.81 1805.92C1480.02 1821.97 1461.08 1834.34 1438.52 1843.51C1416.42 1852.22 1392.06 1856.8 1365.9 1856.8C1339.28 1856.8 1314.93 1852.22 1292.82 1843.51C1270.72 1834.34 1251.77 1821.97 1235.98 1805.92C1220.2 1789.88 1207.57 1771.55 1198.54 1750.47C1189.52 1728.92 1185.01 1706.01 1185.01 1681.26ZM1701.51 1515.34V1847.17H1616.7V1515.34H1701.51ZM1785.86 1847.17V1515.34H1870.67L2027.65 1718.38V1515.34H2112V1847.17H2027.65L1870.67 1644.13V1847.17H1785.86Z" fill="#12023B"/>
<path d="M1491.15 910.546C1442.01 869.919 1272.03 734.039 1249.45 715.972C1262.26 691.731 1268.85 664.683 1268.64 637.259C1268.43 609.835 1261.41 582.893 1248.22 558.856L1437.19 415.598L1492.47 370.714C1506.07 361.681 1508.3 351.796 1498.42 338.601C1485.54 321.658 1471.61 305.546 1456.71 290.359C1375.04 207.043 1266.6 155.297 1150.52 144.263V49.0099C1150.69 36.7961 1146.24 24.9701 1138.06 15.9012C1129.89 6.83242 1118.59 1.19065 1106.44 0.106286C1099.97 -0.328349 1093.49 0.573076 1087.39 2.75452C1081.28 4.93596 1075.7 8.35077 1070.97 12.7867C1066.24 17.2225 1062.47 22.5846 1059.9 28.5396C1057.33 34.4945 1056.02 40.915 1056.03 47.4019V144.263C1015.74 148.071 976.069 156.84 937.921 170.37V49.0099C938.089 36.7961 933.64 24.9701 925.466 15.9012C917.292 6.83242 905.996 1.19065 893.843 0.106286C887.378 -0.328349 880.892 0.573076 874.79 2.75452C868.688 4.93596 863.099 8.35077 858.371 12.7867C853.643 17.2225 849.877 22.5846 847.308 28.5396C844.738 34.4945 843.419 40.915 843.434 47.4019V215.538C771.815 259.622 712.564 321.205 671.244 394.504C629.924 467.803 607.891 550.413 607.215 634.576C605.042 909.931 834.269 1135.2 1109.32 1135.2H1476.5C1483.19 1135.19 1489.67 1132.82 1494.78 1128.49C1499.89 1124.16 1503.31 1118.16 1504.42 1111.55L1504.8 939.775C1504.82 934.196 1503.6 928.683 1501.24 923.63C1498.88 918.577 1495.43 914.109 1491.15 910.546ZM1410.36 1040.61H1108.24C886.189 1040.61 700.616 858.805 701.939 636.563C702.15 578.61 714.908 521.391 739.336 468.85C763.763 416.309 799.278 369.693 843.434 332.216V424.158C843.267 436.372 847.716 448.198 855.89 457.267C864.064 466.336 875.359 471.978 887.512 473.062C893.977 473.497 900.463 472.595 906.565 470.414C912.668 468.232 918.256 464.817 922.984 460.382C927.712 455.946 931.478 450.584 934.048 444.629C936.617 438.674 937.936 432.253 937.921 425.766V272.292C989.861 248.709 1046.24 236.533 1103.27 236.584C1208.91 236.584 1297.92 271.677 1369.63 338.411L1176.74 490.325C1151.48 477.779 1123.44 471.907 1095.28 473.266C1067.12 474.625 1039.77 483.171 1015.84 498.09C991.905 513.01 972.18 533.808 958.537 558.509C944.894 583.209 937.787 610.992 937.89 639.217C937.994 667.442 945.305 695.172 959.129 719.771C972.953 744.371 992.83 765.023 1016.87 779.766C1040.91 794.509 1068.32 802.853 1096.49 804.005C1124.66 805.157 1152.66 799.079 1177.83 786.348L1175.42 788.523L1410.36 969.665V1040.61ZM1174.14 638.596C1174.14 652.628 1169.98 666.344 1162.2 678.01C1154.41 689.677 1143.34 698.77 1130.39 704.14C1117.44 709.509 1103.2 710.914 1089.45 708.177C1075.7 705.439 1063.08 698.683 1053.16 688.761C1043.25 678.839 1036.5 666.198 1033.77 652.437C1031.04 638.675 1032.44 624.411 1037.8 611.448C1043.17 598.484 1052.25 587.405 1063.9 579.609C1075.56 571.814 1089.26 567.653 1103.27 567.653C1122.07 567.653 1140.09 575.127 1153.38 588.432C1166.67 601.736 1174.14 619.781 1174.14 638.596Z" fill="#0E0333"/>
<path d="M1412.83 636.299C1412.89 695.734 1395.93 753.911 1364 803.773C1388.58 823.756 1413.81 844.259 1436 862.4C1480.44 796.319 1504.4 718.303 1504.8 638.346C1505.19 558.39 1482.02 480.133 1438.24 413.6L1364.93 469.96C1396.33 519.599 1412.96 577.345 1412.83 636.299V636.299Z" fill="#02E2AC"/>
</svg>
