<svg xmlns="http://www.w3.org/2000/svg" viewBox="0 0 1821 1677.21" xmlns:v="https://vecta.io/nano"><style>.D{isolation:isolate}</style><path d="M1821 1677.21l-98-307c-8-24-92-258-118-282s-179-108-216-125-210-103-210-103l-77 103-101 144-133-79-158-186s-28 9-69 29-199 83-228 92-145 53-156 73-129 187-131 224-48 194-61 229-45 145-45 145l-20 43z" fill="#6f3ff5"/><path d="M736.5 825.71s32.5-47.5 37.5-109.5a769.3 769.3 0 0 0 0-117l-18-137s-26-6-31-49 1-35 8-75 0-57 7-67 16-10 26 0 17 11 20-15 20-124 63-165 131-95 219-91 156 71 183 108 51 95 53 120-18 138-21 151 2 14 13 14 29 1 17 36-22 73-26 81-20 36-30 44-18 17-30 11-21 25-21 25l-43 91s-15 49-14 78 11 99 11 99l-10 163c-9.69.86-64.83 6.67-104.5 55.5-39.4 48.5-34.12 103.21-33 113l-46.5 23.5-78-77-95-168z" fill="#f9a9a0"/><g fill="#3d1101"><path d="M793 304.21s-18 56-24 81-25 118-22 131 17 89 23 105 43 77 52 98 49 46 66 58 88 28 101 31 81-22 96-31 73-77 83-90 42-73 54-108 36-168 32-164-25 61-26 76-17 66-30 74-28 28-48 31-40 24-53 33-40 38-53 58-33 37-62 33-70-13-85-33-49-78-51-114-24-46-37-63-33-15-35-35 26-193 19-171z"/><path class="D" d="M845 452.21s48 1 65 0 37-7 46 0 25 17 32 18 35 5 41 0 36 8 44 14 49 25 56 29 17 22 14 31-23 44-23 44-7-13-4-26-15-36-32-36-35-6-55-8-35-15-35-15l-6-6s-17 7-21 7-36-8-43-7-37-4-43-4h-26s-13 29-20 33 3-29 0-48 4-19 10-26z" opacity=".78"/><path d="M959 616.21s-11 10-12 19 14 11 22 10 25 10 19 0 3-29-13-29z"/></g><path d="M861 431.21s22-25 33-29a23.82 23.82 0 0 1 3.31-.9c12-2.41 32.69.9 32.69.9s12-10 17-10c0 0-14 10-12 20s8 19 8 19-11-8-14-19-22-13-32-6-40 33-46 34zm187-53s-2 18-4 25 3 8 4 13 5-9 5-14-5-18-5-24zm23 32s12 12 7 25a76.47 76.47 0 0 1-12 21s9-7 17-12 16-6 22 0 39 48 39 48-32-48-53-61l-4.07-2.64c-16.8-11.43-15.93-18.36-15.93-18.36zm-41 47s13-11 18-11 14 2 10 5-1 3-10 1-22 8-18 5zm-67-25s-8-6-11-4-4 2 5 7 22 18 21 14-15-17-15-17z" fill="#f49082"/><path d="M1004 405.21c-1.11 1.66-14 15-7 23s10 7 12 0 3-41 3-41a59.49 59.49 0 0 1-8 18z" fill="#fcaa9f"/><path d="M988 238.21s-46-31-65-36-29-13-45 0-32 33-32 33a62.78 62.78 0 0 0 23-5c11-5 36-9 42-7s25 18 42 18 29 5 32 3 3-6 3-6zm107 31c0-8.24 33-11 33-11 34.53-2.89 51.27-3.36 68 5 8 4 28 29 30 34s9 21 5 23-9-11-18-18c-9.61-7.47-19-9.65-33-13-10-2.41-22.48-5.4-39-5-18.19.44-28.06 4.67-36-2-2.84-2.39-10-10-10-10zm101 84l-7 4a53 53 0 0 1-25-1c-4-1.17-9.19-3.28-9-4s8.3.5 16 2l14-1c-2-1.67-5.15-4.14-9-7-8.1-6-13.89-10.34-19-13.51a57.35 57.35 0 0 0-11-5.49 56.63 56.63 0 0 0-26.1-2.91c-8.18 1-14 3.72-14.9 5.91a4 4 0 0 0-.28 2.12 5.23 5.23 0 0 0 2.78 3.38c-3.66-1.47-9.28-3.5-12.46-3.5-.32 0-1.3 0-1.57-.53-.53-1.06 2.09-3.47 4.57-5.47a79.3 79.3 0 0 1 23.24-4.25 71.22 71.22 0 0 1 15.76 1.25c5.82 1.12 12.7 2.45 19.74 6.33a44.69 44.69 0 0 1 4.26 2.67l18 13c2.13 1.63 4.73 2.57 7 4a5.47 5.47 0 0 0 3 1 5.31 5.31 0 0 0 3-1 27.49 27.49 0 0 0-2-7c-3.34-7.61-9.4-11.66-13-14-3.27-2.13-5.31-2.86-18-8a70.84 70.84 0 0 1 17 7.11c8.71 5.14 17.96 13.39 19.96 25.89z" fill="#3d1101"/><path d="M1157 332.71h0c-1.88 4.81-3.64 8.67-5 11.5-.91 1.9-1.24 2.49-2 3-2.34 1.57-5.11-.12-14-3a97.33 97.33 0 0 0-10-3c-3.7-.6-5.67-.37-7-2-1.07-1.3-1-3-1-6.5a20.45 20.45 0 0 1 .85-5.71 18.41 18.41 0 0 1 1.05-2.7 19.37 19.37 0 0 1 1.34-2.34 71.78 71.78 0 0 1 7.62.16 76.85 76.85 0 0 1 8.14 1.09c8.8 1.79 17.85 7.99 20 9.5z" fill="#2c1002"/><path d="M960 292.21s-24-18-43-18-42 5-42 5 0-5 19-10 27-5 27-5a67.83 67.83 0 0 0-50 15 10.15 10.15 0 0 0-2 5 8.36 8.36 0 0 0 0 2c.58 3.45 10 5.13 15 6 13.49 2.32 26 4 26 4h0l-7-1a18.82 18.82 0 0 0-5-2c-2.36-.56-3.09-.23-5-1a7.84 7.84 0 0 1-4-3 6 6 0 0 1-1-4c.28-1.22 1.88-4 15-5 7.7-.59 17.22-2.71 29 2 10 4 24 11 27 14s7 7 6 8-3 3-8 2-7 0-7 0 12 3 16 2a13.62 13.62 0 0 1 7 0 16.08 16.08 0 0 0-2-8 17.26 17.26 0 0 0-11-8z" fill="#3d1101"/><path d="M934 299.21s11 0 11-13c0 0-15-8-18-8s-22-1-22-1h2a13.37 13.37 0 0 0-5 9 12.49 12.49 0 0 0 1 6s7 2 10 2c6 0 9 2.5 16 4 2.15.5 3.9.79 5 1z" fill="#2c1002"/><path d="M973 325.21s-19 12-33 10-19-5-19-5 35 0 52-5zm-13-48s17 6 23 18 5 13 5 13-15-27-28-31zm133 38c-2.12 2.12 23-9 36-7s15 4 15 4-40-8-51 3zm-10 39s15 12 35 16l19 4s-46-14-54-20zm-322-42s-4-30-14-30-4 15-5 30-4 41-5 42 6-36 12-42 12 0 12 0zm5 25s9 19 0 21-13 5-9 6 8 14 6 19 2 12-2 15a62.34 62.34 0 0 0-6 5s3-19 0-29 5-31 11-37z" fill="#f49082"/><path d="M1044 110.21s-5 27 9 43 27 35 30 30 27-59 28-73-23-40-34-34-33 34-33 34zm9 121s48-10 47 0-15 10-23 13-24-13-24-13z" fill="#fcaa9f"/><path d="M1277 434.21c-3 2 21-30 30-24s-7 30-7 30c-7 8-13 15-13 25s-5 21-5 21 17-51 11-58-16 6-16 6zm-16 17s-11 5-7 13 10 13-1 22-15 27-9 28 10 3 10-6 14-70 7-57zm-345.5 62.5a137.43 137.43 0 0 1-17-5c-8.62-3.16-11.19-5.11-17.5-5.5h-11l16 23c4 6 17 10 17 10zm139 26a104.28 104.28 0 0 0 10 2c5.83.87 10.25 1 22.5 1.5h0l7 1s-12 8-21 11-25 10-25 10q3.26-12.75 6.5-25.5z" fill="#f49082"/><path d="M895.5 517.71c0-.23-.33-2.15.68-3s3.61-.33 5.36 2.1c0 0 4.89-5.11 10-.22 0 0 8.8-9.2 17.06 2.61 0 0 14.8-9.33 21.11 4.53 0 0 19.86-6.45 32.2 8.28 0 0 21.86-6.5 30 1.32 0 0 19-2.42 22.11 4.51 0 0 11-2.25 14 1.68 0 0 9-1.2 11 1.75s-3.52 16.14-5.52 17.18c-3.57 1.89-8.6-.86-9 .21-.29.78 2.26 2 2 3s-3.22 1.12-6 1a29.3 29.3 0 0 0-9-2c-4.9-.29-7 .42-11 0a25.4 25.4 0 0 1-11-4 24 24 0 0 1-8 2.91c-11 1.89-23.11-4.48-23.11-4.48s-14.88 5.34-28.08-3.37l-3.09-3.93a9.67 9.67 0 0 1-8 .18c-4-1.91-11.11-4.75-11.11-4.75a33.32 33.32 0 0 1-9.61-1.51 42.37 42.37 0 0 1-5-2c-1.86-.91-2.52-1.43-4-2a15.29 15.29 0 0 0-5-1 8.67 8.67 0 0 1-5-2c-.86-.76-2-2.11-3-7a47.32 47.32 0 0 1-1-10z" fill="#fcd4d0"/><path d="M808 434.21s-5 26 0 38 0 10 0 10-11-29 0-48z" fill="#fd9c8b"/><path d="M757.5 535.71a299.26 299.26 0 0 1 44 51c20 29.39 21.43 42.86 44.5 84.5 23.64 42.68 34.56 65.81 53 74 18 8 73 13 96 10 10.67-1.39 18.12-3.21 24.73-6.17 11.48-5.13 18.66-11.66 23.27-15.83 29.82-26.93 31.45-21.16 51.5-41.5 24.42-24.77 24.64-36 42.5-42.5 0 0 5.88-2.14 27-8h0l16.5-7.5a574.36 574.36 0 0 1-47 67c-9.24 11.3-13.57 15.65-16 18-18.14 17.57-32.84 23.53-57.5 37.5-40.36 22.87-34.56 21.36-48 30-14 9-69-7-89-9s-72-25-77-44c-7.34-27.88-10.52-23.55-43-76-23.31-37.64-37.33-51-43.5-81.5a136.27 136.27 0 0 1-2-40z" fill="#330d01"/><path d="M946.5 577.71s28 12 48 10 17 0 17 0-33 8-65-10zm98 365c-31.16 27.48-54.42 49.69-70 65-23.08 22.68-30.27 21-34 21-34.4-.07-32.78-72-100-142-27.51-28.67-47.29-37-62-71s-12-65-16-65-13.56 33.13-6 68c4.57 21.1 14.06 36.83 69 98 62.66 69.77 71 72.37 73.5 92 .87 6.88 8.37 74.3 11.76 77 4 3.22 4.9 1 8.74 3.71 14.86 10.56 4.72 37 10 63.24 6.28 31.15 33.84 59.6 47 56 14.44-4 3.44-44.34 20-110 12.94-51.3 35.47-89.32 47.63-109.5 24.31-40.36 60.37-85.5 60.37-85.5z" fill="#f49082"/><path d="M854 943.21s34 15 44 43 6 73 6 77 10 10 10 10l23 68 46 116c7 17-53 216-53 216s-22-180-40-252-43-109-49-115-2.17-57-2.17-57l-25.53-45.1z" fill="#5031bc"/><path d="M1057 963.21s-23 6-37 34-31 42-31 66-9 71-21 98-27 100-34 122-18 127-21 140-18 89-15 139 0 115 0 115h103s-10-151 0-204 15-190 19-211 33-121 37-139 36-88 36-88z" fill="#5932c4"/><path d="M723 799.21s-3-56 40-66h0s-.08 23.7-1 40a320.82 320.82 0 0 1-6 46z" fill="#5031bc"/><path d="M684 851.21s66 219 86 222 61-39 71-68 33-60 33-60-12-23-42-49-90-115-92-128-5-23 7-26 16-9 16-9-35 5-40 22-39 96-39 96zm350 118s60-63 76-86 44.39-66.71 42.2-86.36-.2-19.64-.2-19.64-1-5 13 15 34 74 34 81-5 68-21 103-44 88-44 97-12 47-18 50-26.46-22.22-26.46-22.22-28.54-47.78-31.54-60.78-14-73-24-71z" fill="#5932c4"/><g fill="#a172b7"><ellipse cx="778" cy="1035.71" rx="15" ry="23.5"/><circle cx="867.5" cy="1008.71" r="19.5"/><circle cx="919.5" cy="1234.71" r="21.5"/><circle cx="940.5" cy="1534.71" r="21.5"/><path d="M1122.5 1068.71c2.5 7.75-.48 18.13-6 19.5s-12.84-6.62-14.5-14.5c-1.33-6.3.34-15.3 5.5-17 5.38-1.77 12.74 5 15 12z"/><circle cx="1302" cy="1610.21" r="19"/></g><path d="M1116 1524.21l25 10s-11 47 0 57 149 58 161 58 127-40 131-48 0-77 0-77h23s6 64 0 86-154 67-154 67-77-25-103-30-76-26-83-37-10-70 0-86zm512-221s-15 181-23 232-25.62 141.5-25.62 141.5 68.62-209.5 48.62-373.5zm-69-90s-28 101-34 133-5 123 0 210-4.13 121-4.13 121h19.06s-9.93-73 19.07-121 20-166 20-166 0 119-28 123-27-226 8-300zm-288-284s99 87 110 130 0 43 0 43 1-102-110-173zm-682 14c10.08-6.51-54 72-49 131s0 49 0 49 18-160 49-180zm-81 265s32 102 32 133-32-106-32-106zm-279 95s-35 79-29 142 69 232 69 232-100-201-86-276 42-166 42-166zm40 17s-20 106 0 170 40.3 187 40.3 187h34.56s-45.86-76-41.86-121-7-76 0-111 0-50 0-50-11 52-16 95c0 0-17-58-17-170z" fill="#5932c4"/></svg>