<svg xmlns="http://www.w3.org/2000/svg" viewBox="0 0 618.02 732.83" xmlns:v="https://vecta.io/nano"><style>.H{isolation:isolate}</style><path d="M219 347.33s12 1 12 8-9 19-11 26c-3.95 13.83.49 26.7 5 38 12.55 31.5 46.84 56.5 84.5 61.5 9.66 1.28 36.4 4.41 64.08-11.52 30.25-17.42 41-45.75 43.64-53.45L423 372.4l59 3s59 34 76 64 61 124 60 293H0s15-103 32-165 20-81.08 20-81.08l103-67.92s51-70.07 64-71.07z" fill="#674def"/><path d="M217.5 286.83l-8 111c1.5 10.31 7.95 45.57 38 67 21 15 43.12 15.8 66.68 16.69 21.38.81 45.08 1.7 68.32-11.69s45-41 45-41h0l19-73-81-117z" fill="#ffb5a4"/><path d="M330.5 295.83s-1 11 6 26 8 38 12 39 19.39 1.42 24.69 13.21 3.31 28.79 9.31 38.79 18 33 18 33l44-61-39-69-49-50zm-83 16c1.8.87 21 37 24 51s4 45 0 34-14-38-19-41-9 15-5 32 8 36 7 48a59.93 59.93 0 0 1-5 20l-40-66 7-68c0-2 6-22 31-10z" fill="#f9afa2"/><path d="M222.38 357.32a85.18 85.18 0 0 0-2.16 9.72c-.4 2.46-.82 5.79-1.39 18.45l-.33 8.34c-.2 8.66 6.42 25.82 24.88 43.76 11.42 11.1 31.62 30.73 63.24 35.29 54.09 7.8 92.88-35.55 95.88-39.05l24-43 27 3a156 156 0 0 1-32.4 58.53c-8.38 9.49-25.14 28.05-53.59 39-41.5 16-79 4.74-90.05.94-7-2.42-73.23-25.94-79.92-76.68-.67-5.12-3.36-30.32 11.88-50.76 7.55-10.13 19.22-18.7 20.13-17.82.61.61-3.44 5.79-7.17 10.28z" fill="#c2fbea"/><path d="M227.5 64.83s-24 1-35 13-19 32-19 44 3 34 3 38 3 29 0 50 11 64 18 73 26 26 30 29 6 33 6 37a2.91 2.91 0 0 1 .18 1.43c-.55 2.12-5 1.82-8.54 3.58-2.83 1.4-3.82 3.47-6.72 8.16-2.2 3.56-5.46 8.55-9.95 14.55-.34 1.12-.79 2.68-1.3 4.59 0 0-.95 3.5-1.67 6.69-1.83 8.06 5.38 39.9 6.92 47.25 1.05 5 1.78 12 3.24 25.92 1.65 15.74 2.2 28 3.24 51.84l1.6 51c-.56 26.69-1.16 28.1 0 38.81 1.72 15.77 5 25.57 5 29.19 0 6-3 12-3 12s-2-21-9-25-5-10-5-10-9 9-6 19a110 110 0 0 0 6 16c0 0-16-14-19-22 0 0-6 15-3 20l3 5s-13-7-13-26 7-26-3-57c0 0-5-1-8 12l-4 17s-9-29-10-41 0-16 0-16-8 26-6 31a24.08 24.08 0 0 1 2 8s-19-30-18-66 4-38 4-38a88.13 88.13 0 0 0-14 3c-6 2-17-6-29-2s-32 19-38 34l-6 15s5-38 19-54 75-47 75-69c0-77.53-36.76-149.23 0-279 6-21.22 21.95-74.68 69.76-106A138.08 138.08 0 0 1 225.5 2.72c9.66-3.64 16-3 20.16-1.68 0 0 .9.3 9.84 3.79h0s70-3 104 71 53 147 66 190 46 93 71 105a63.47 63.47 0 0 1 32 36s-34-17-44-18-25 10-43 10-17-4-17-4l13.16 1c-8.39 2-12.54 5.62-14.78 8.74-6.49 9-1.33 19.56-9.7 31.58-1.36 2-3.91 5.53-6.48 5s-3.57-4.87-4.2-7.37c-2.58-10.23-7.75-28-9.48-27.91-2 .1 1.15 23.87-9.67 48.62-.78 1.78-6.86 15.54-9.77 14.74-4.63-1.27 9.1-36.48 2.93-82.92-1.49-11.17-3.45-17.94-6.17-39.84l-3.84-34.69a663.01 663.01 0 0 1 6.69 62.21 670.27 670.27 0 0 1-4.69 128.84c-.47 1.16-.76 1.3-.92 1.29-2.22-.23 3-32.23-3.72-66.88a167.63 167.63 0 0 0-6.36-23.41 308.11 308.11 0 0 0 1-34.91c-1.29-42.91-11-64.78-11-100.09l.38-28.21c.66-21.52 1.66-22-1.38-47.79-4-34-37-127-48-134s-31.18-14.06-53-10a69.7 69.7 0 0 0-18 6z" fill="#937658"/><path d="M347.5 278.83c0-52 3-42-1-76s-37-127-48-134-39-15-53-10-18 6-18 6-24 1-35 13-19 32-19 44 3 34 3 38 3 29 0 50 11 64 18 73 26 26 30 29a3.5 3.5 0 0 1 .79 1h0c.71 1.49 20.71 18.49 33.71 19.49s39 3 56-13c12.84-12.08 24.53-25.88 32.5-39.23z" fill="#ffc1ae"/><path d="M176.5 159.83c0-4-3-26-3-38s8-32 19-44c6.14-6.69 16.31-10 24.12-11.55-4.4-2.33-11.9-4.6-21.62-1-16 6-25 23-28 35s-6 31-3 41 8 18 9 25 4.78 18.06 4.8 18.11c-.21-12.13-1.3-22.15-1.3-24.56zm122-91c1.07 1 3.7 3.22 8.4 12.5 3.37 6.65 7.19 15.45 11.1 25.36h0v-4.36a25.77 25.77 0 0 1-3-7.72c-1.2-6.27 0-14.72 0-15.28a10.87 10.87 0 0 0-.5-6.5 24.07 24.07 0 0 0-2-3c-1.69-2.49-2.55-4.23-3-5-2.8-4.82-10.26-7.6-14-9-2.47-.92-1.84-.47-11-3s-9-2.76-11-3c-5.25-.62-9.19.67-16 3a86.21 86.21 0 0 0-17 8 99.57 99.57 0 0 1 34-1c8.87 1.29 17.08 2.6 24 9z" fill="#7f644c"/><path d="M273.19 150.99c-.64-.34-2.95-1.62-3.29-3.87-.29-1.89 1-3.47 1.6-4.25 4.53-5.57 16.51-8.62 24.5-10.51 10.45-2.47 13.68-2.86 15.68-2.78a5.55 5.55 0 0 1 1.06.08 21.53 21.53 0 0 1 12.6 5.94 20.73 20.73 0 0 1 2.34 4.32 21 21 0 0 1 .72 2.16 22.17 22.17 0 0 0-11.16-6.84c-5.29-1.23-9.48.16-16 2.34-6.83 2.27-10.93 4.94-20.7 9.72l-5 2.48zM226 155.54l-4.14-2c-2.79-1.29-7.47-3.37-9.72-4.14-7.25-2.49-15-.28-16.56.18 0 0-6.16 1.77-20.06 13.23h0l1.16-1.35-5.76 4.68c1.74-3.3 9-16.18 24.3-21.06 7.93-2.53 14.16-1.67 24.3-.27 11.4 1.58 14.58 4.5 15.84 6.93.26.51 1.59 3.07.54 4.5-.9 1.23-3.11 1-4.68.9a13.18 13.18 0 0 1-5.22-1.6z" fill="#937658"/><path d="M191.69 192.26l9.9-.9c8.25-.53 10.09-.08 14.94-1.17a55.48 55.48 0 0 0 8.55-2.7c3.6-1.49 5.76-2.86 5.85-2.7s-3.36 3.28-8 5.15-7.83 1.54-14.75 1.6c-3.91.04-9.54.18-16.49.72zm89.81-14.43c0-.05 1.33.44 3.28.93a39.31 39.31 0 0 0 4.56.84 50.45 50.45 0 0 0 5.76.48 30.73 30.73 0 0 0 14.84-3.41 29.13 29.13 0 0 0 5.56-3.84 14.13 14.13 0 0 1-2.12 2.63 16.46 16.46 0 0 1-5.88 3.37 31.82 31.82 0 0 1-21.64.77 26.55 26.55 0 0 1-4.36-1.77z" opacity=".65" fill="#f7cec4" class="H"/><path d="M309.86 223.4c3.47 2.61 11.46 9.43 14 20.52 1.91 8.21.2 16-.72 20.16a58 58 0 0 1-2.64 8.75 20.22 20.22 0 0 0 5-10c.66-3.54 5-15 0-25-1.79-3.55-7.25-7.75-18.18-16.14-3.66-2.82-6.75-5.09-8.92-6.65-11.7-8.84-15.08-11.21-15.18-11.08s4.52 3 6.12 8.28a12.35 12.35 0 0 1 .36 5.76 13 13 0 0 1-2.88 5.76c-1.58 1.94-3 2.68-2.88 2.88s3.58-1.09 6.84-3.6c3-2.31 3.2-3.49 4.68-4.32 2.19-1.23 6.24-1.15 14.4 4.68zm-85.43 62.07a94.56 94.56 0 0 1-10.93-23.64c-3-10-4.76-15.76-2.64-22.59 2.21-7.11 8.64-15.41 8.64-15.41h0s4.82-3.48 7.56-2.23c1.62.74 1 2.46 3.24 5s4.83 3.51 5 3.24-2-1.42-3.24-4c-1.76-3.5-.72-7.31-.36-8.64a15.64 15.64 0 0 1 5.76-8.28 57.79 57.79 0 0 0-11.16 7.2 48.18 48.18 0 0 0-11.8 13.4c-1.54 2.65-7.82 13.81-5.4 27.36a46.29 46.29 0 0 0 4.68 13 77.13 77.13 0 0 0 7.72 11.95c1.16 1.52 2.18 2.75 2.93 3.64z" fill="#ffb69c"/><path d="M268.28 227.54a8.17 8.17 0 0 1 4.86-4.32 9.4 9.4 0 0 1 7.4 1.66c.3.2 1.12.82 1.07.92h-.31c-2.59-.22-5.2-.31-7.8-.27a10.33 10.33 0 0 0-5.22 2.01zm-26-.61a9.35 9.35 0 0 1 5.22 1.9 9.2 9.2 0 0 1 2.6 3.21 17.37 17.37 0 0 0-2-.54c-1.32-.29-2-.3-4.62-.67a11.53 11.53 0 0 1-2.47-.51c-.91-.3-2-.66-2-1.2-.16-.95 2.88-2.05 3.27-2.19z" fill="#e0a08c"/><path d="M372 244.33s-9 45-10 57-1 30-1 30l6-26s4 17 6 19 11 27 13 34 4 17 4 17 0-18 1-18 10 17 14 18 5 0 5 0-8-2-18-26c-17.82-42.77-14.62-83.22-13-97 4.25-36.06-2.08-91.91-49.7-178a394.88 394.88 0 0 1 35.64 103.66 392.84 392.84 0 0 1 7.06 66.34zm36 2s3 40 10 54 28 45 28 45l-10.37-24.12s-8.16-19.64-15.63-39.88c-14.67-39.74-59.15-172.13-58.3-172.41.39-.09 9.87 27.32 46.3 137.41zm-6 54a48.06 48.06 0 0 0 6 28c8 14 20 50 53 49h9a194.23 194.23 0 0 1-19-10c-12-7-33-30-38-40a129.6 129.6 0 0 1-11-27c-4.46-16.61-3-25.87-3.94-40.57-2.25-35.48-15.67-59.08-14.76-59.4s12.85 22.62 17.64 53.28a178 178 0 0 1 1.06 46.69zM170.18 84.83C186 60.83 202.12 44.6 213 36.99c9.89-6.94 16.34-11.47 24.84-11.52 2.32 0 7.19.29 7.56-1.08.32-1.19-2.9-3.07-5-4.32a36.26 36.26 0 0 0-8.28-3.6c-10.68-2.65-38.9 26.62-38.88 26.64s29.56-33.43 43.92-29.16c1.09.32 5.06 1.75 5.4 1.08s-2.4-3.21-5.76-4.32c-5.8-1.96-11.53 1.28-11.8.65s5.28-3.25 5.3-3.21-14.45 7.13-33.12 16.2c3.58-3.7 14.95-14.84 29-18.24 5.32-1.29 10.77-2.61 14.94.24 2.64 1.8 4.18 4.87 6.84 4.68 1.79-.13 3.13-1.67 4-2.88a40.73 40.73 0 0 1 16-2.48c15 .72 24.92 9.67 27.89 12.56-1.73-1.3-14.86-11.18-27.39-9.4a20.78 20.78 0 0 0-9.36 3.24 34 34 0 0 0-7.29 7.47.79.79 0 0 0 .19-.22c1-2 10-2 10-2l-7 4c1.78 4.52 3.51 5.7 4.82 5.87H266c1.09 0 3.75.57 9.72 5.76-11.32-4.85-17.21-3.8-20.52-1.8-2.31 1.4-4.1 3.71-9.72 6.84-3 1.67-5.19 2.52-5 3.24.19 1 4.26.7 7.89.8 12.53.33 21.16 4.93 21.27 4.6s-5.52-3.7-13.15-4.15c-6.43-.37-17.37 1.19-21.05 8.11-2.14 4-1.21 8.69-2.88 9-1.09.2-2.53-1.58-3.24-3.24 0 0-1.85-4.32 6.78-21h0l-1-3a126.26 126.26 0 0 0-20.6 9.64 132.34 132.34 0 0 0-44.32 42.84zM146 116.33s1 92 6 112 10 58 5 84-4 30-4 30a400.76 400.76 0 0 1-3-63c1-36-5-47-6-57s-8-83 2-106zm25 149s6 53 6 76 12 81 12 81-5-62-4-75-5-80-14-82zm-12-112s6 23 4 41-3 21 0 37 11 30 11 30-8-32-7-43 5-26 2-41-10-24-10-24z" fill="#7f644c"/><path d="M498.93 732.83s9.07-68.5 3.07-105.5-21-125-7-159 1 38 6 48c1 2 2 2.94 3.06 3.08 6.05.8 13.07-16 15.94-15.08 3.19 1-1.59 23.87-3.86 35.51-3.68 18.93-15.55 79.89-5.46 83.8 2.68 1 6.12-2.24 11.32-7.31l50.48-48.4c.48.41-22 19.27-30.42 49.67-1.9 6.88-2.7 15.39-4.32 32.4-1.74 18.32-1.87 32.15-8.74 49.33a64.53 64.53 0 0 1-3.88 8.4c-7.62 13.53-18.84 21.1-26.19 25.1zm-357.62-.5s9.69-82 8.69-102a200.44 200.44 0 0 1 2-38l-16 43c-6 17-1 31 2 46s3.31 51 3.31 51zm-5.81 0s-16.52-76-18.52-130-4-91-10-94-6 21-14 20-14-20-15-5 7 35 13 49 1 16 7 29 6 22-3 13-20-14-13-5 13 12 19 24 3 31 6 43 13 27 14 32-6 0-4 7 12 17 12 17z" fill="#4a3eba"/><path d="M307.5 162.31c0 3.81-2.8 6.37-7.48 6.37s-7.48-2.56-7.48-6.37a8 8 0 0 1 .51-2.77 7.17 7.17 0 0 1 2.33-3.15h0a33.23 33.23 0 0 1 5.08-1.49 7.58 7.58 0 0 1 3.72 1.17 7.42 7.42 0 0 1 3.32 6.24zm-89.2 10.9c0 3.94-3 6.59-8.07 6.59s-8.07-2.65-8.07-6.59a7.6 7.6 0 0 1 1.42-4.44 7.26 7.26 0 0 1 2.06-2 37.45 37.45 0 0 1 7.07-.95 7.94 7.94 0 0 1 2.56 1.26 7.61 7.61 0 0 1 3.03 6.13z" fill="#56443c"/><path d="M327.26 160.4a19.4 19.4 0 0 0-5.76 1.43 34.84 34.84 0 0 0-5.28 3 61 61 0 0 1-5.72 3c-.24.12-.69.33-.77.23-.19-.26 2.1-2.31 3.7-3.75l4.07-3.48a14.83 14.83 0 0 0-2-1.63 18.1 18.1 0 0 0-3.24-1.68 23.86 23.86 0 0 0-8.1-1.46h-.78a23 23 0 0 0-10.38 3.46c-5.13 3.07-8.7 7.28-8 8.78.48 1 2.88.77 2.88 1.2s-3.37.93-6.24 1.2a24.61 24.61 0 0 1 6.65-10 23.31 23.31 0 0 1 7-4.31h0a33.23 33.23 0 0 1 5.08-1.49l1.14-.25c3.65-.79 10.94-2.25 18.72 1.2a26 26 0 0 1 7.03 4.55zm-96.76 14.67l-8 1.8c0-.2 3.1-1.06 3.24-2.7 0-.56-.28-1.05-1.19-2a33.07 33.07 0 0 0-4.21-3.81 24.64 24.64 0 0 0-5-1.21 22.29 22.29 0 0 0-7.15.22 23.28 23.28 0 0 0-4.54 1.44l-1.9.9a25.75 25.75 0 0 0-7.56 6 5.64 5.64 0 0 0 2.07 2.34 11.79 11.79 0 0 0 1.35.63l2.52 1.17c.11.05.43.27.41.35s-.8.12-3.74-.35l-6.21-.72q-5.86.3-6-.54-.12-.63 3-1.89l.63-.54 2.43-1.53a34.63 34.63 0 0 1 15-7.8 37.45 37.45 0 0 1 7.07-1h.79a22.26 22.26 0 0 1 13.56 5.28 20 20 0 0 1 3.43 3.96z" fill="#7f6658"/><path d="M296.9 245.54c2.93 1.67 5.63 3.9 5.76 6.66.32 6.67-14.6 12-13.86 13.68 1.73 4 17.23-2.67 13-1.8h0l10.44-12.78s8.82-9.18-7.65-7.56-7.69 1.8-7.69 1.8zm-60.12 7.38l-.77 2.69c-1 4-1.54 6-1.21 7.21 1.41 5.06 19.54 2.3 20.73 6.31.38 1.3-1 3.47-6.94 7.29l-22.09-12.34-6.3-7.38c.78-.25 2-.64 3.33-1.19 3.09-1.24 4.14-2.05 5.67-2.59a12.27 12.27 0 0 1 7.58 0z" fill="#ba7568"/><path d="M301 256.7a10.82 10.82 0 0 1-5.58 4s-.18 3.6-5.22 3.42a7.67 7.67 0 0 1-4.24 3.39c-3 .93-11.6 3.27-13.58 2.55s-.9.14-.9.14h-1.44s-9.18 1.39-11.88 0-2.16-.32-2.16-.32l-4.32-.72-4.5-.72a35.66 35.66 0 0 0-2.68-.93c-3.11-1-4.55-.87-6.68-2a11.53 11.53 0 0 1-2-1.32 3.9 3.9 0 0 1-1-4.15q-.12.66-.24.66c-.22 0-.45-1.52-.69-4.55l5.08-2.88 20.48-1 22.2-3.28 14.17-1.2c5.28-2 6.72-1.85 7.06-1.32.22.35-.11.73-.3 2-.25 1.72.32 2.53.12 3.72a14.17 14.17 0 0 1-1.7 4.51z" fill="#ffe0d9"/><g fill="#d48976"><path d="M250.28 269.83c3.4.36 6.52.18 12.78-.18a103.84 103.84 0 0 0 16.2-1.94 92.73 92.73 0 0 0 11.34-3.1l12.14-7.26c4-4.23 7-7.65 9.16-10 1.38-1.57 2.53-2.89 3-2.64.86.46-1 5.72-2.34 8.78a53 53 0 0 1-7.38 12.34c-6.79 8.94-10.19 13.42-15.66 16.56-6.86 4-13 5.2-25.2 4.68-5.55-.24-10.16-.16-14.87-2.06-2.61-1.06-4.27-2.4-7.63-5-.52-.39-1.2-.92-2-1.59-1.91-1.62-3.19-2.95-3.64-3.41-4.39-4.55-7-6.08-11.11-11-2.51-3-5.29-7-4.86-7.38s2.46 1.68 4.14 3.06c10.22 8.43 23.05 9.8 25.93 10.14z"/><path d="M236 255.61c13.08 4.29 23 3.71 29 2.71 6.88-1.15 14.92-3.91 19.26-5.4l14.58-5.22a28.2 28.2 0 0 1 8.64-3.06 24 24 0 0 1 7.38 0s-4.68-2.52-14.94-3.06-25 .54-29.7.9-10.62 1.26-10.62 1.26h-5.22a68 68 0 0 0-34.2 13 39.51 39.51 0 0 1 10.31-1.48 39.11 39.11 0 0 1 5.51.35z"/></g><path d="M246 276.13s10.24.72 9.34 4-2.88 2.16-4.68 1.26-8.74-3.46-4.66-5.26z" fill="#e28f7f"/></svg>