<svg xmlns="http://www.w3.org/2000/svg" viewBox="0 0 1114.59 1216.55" xmlns:v="https://vecta.io/nano"><path d="M730.59 440.77c0 5-56 259-56 259l-353-42-48-292 457 10z" fill="#b7957d"/><path d="M337.59 649.77l-88 94s-36 8-74 20-113 55-122 70-32 89-33 125-16 140-16 155 2 28 7 36-22 48-7 61 1110 0 1110 0-20-77-20-91-10-89-17-112-24-176-61-233-95-54-171-72-145-72-145-72l-71-6s-240-16-245-9-47 34-47 34z" fill="#674def"/><path d="M376.59 655.77s26 51 118 53 78 0 78 0-111 16-158-9-38-44-38-44z" fill="#4441bf"/><path d="M360.31 717.88c11.86 2.08 162.45 91 302-8.78l45.64 50.32S539.71 909.86 376.31 785.6l-33.67-60.29z" fill="#c2fbea"/><g fill="#4441bf"><path d="M989.59 1210.77s85-103 86-121-3-24-3-24-6 29-21 48-52 70-57 79a41 41 0 0 0-5 18zm25-171l-1.09 1.62c-8 11.87-57.64 85.11-65.91 93.38-9 9-48 70-47 76h9l100-154zm-131 171c6.08-69.85.64-116.49-6-147-7.06-32.41-1.91-66.83-10-99-.93-3.68-4.46-16.78 2-28a28.08 28.08 0 0 1 7-8c23.47-11 36.68-24.65 44.25-34.62 8.87-11.69 5.31-12.22 26.75-52.38 0 0 18.83-35.28 17.15-36.18a5.62 5.62 0 0 0-1.15.18h0l7-6a396.55 396.55 0 0 1-102 125l11-32c20.83-22.4 29.21-43 33-56 3-10.2 4.6-20.84 4-21s-3.86 16-13 33a118.26 118.26 0 0 1-21 28l-15 13a186.33 186.33 0 0 1 24-119l22-28c-37.86 64.14-49.35 118.13-53 155-7.42 75 8.92 120.11 6 228-1 37-11 85-11 85l18-60q4.99 30 10 60zm-191-382c3.91-20.83-50 88-83 121s-14 20-14 20 85-77 97-141zm-675 337s37 33 42 40 10 7 10 7-31-40-52-47zm95-43s58 70 66 88l17 2s-64-84-83-90zm-16-220c-3-.85 84 97 93 121s16 57 16 57-3-50-6-60-85-113-103-118z"/><path d="M132.59 855.77c-2.4-2.06 32 74 34 83s-70-75-70-75-12-5-10-1 82 83 100 104c0 0-40-99-54-111zm-15 200c9 4 81 87 88 110s10 23 10 23z"/></g><path d="M376.59 550.77s3.93 72 8.83 82 62.83 53 107 52 93.25 12 135.46-33l15.71-18s-2-65-6.87-83-176.69 11-176.69 11z" fill="#ffd5c7"/><path d="M371.59 559.01s-2 12.76 9 24.76 50.76 19.12 61.88 31.56 47.12 34.44 109.12 18.44 78-52 107-89 5-42 5-42l-231.44 71.86z" fill="#e8bbaa"/><path d="M327.59 370.77l10 128s10 65 64 90 56 36 67 38 71 18 104-5 53-49 75-69 33-47 36-60 3-58 10-77 10-118 10-118l-7-75-72-79-170-46-121 148z" fill="#ffd5c7"/><path d="M579.09 301.27c-7.53 2.63-13.13 5.69-13 6 .23.55 17-11.11 36-8 4.58.75 9 2.5 18 6 8.53 3.34 15.36 6.63 20 9l-16-7c-18-8.07-21.7-10.33-28.6-10.08-5.28.19-9.71 1.74-16.4 4.08zm-145 13c-12.6-3.32-21.9-2.12-27.71-.64-5.16 1.32-12.27 4.78-26.29 11.64l-12 6 20-10c12.46-6.38 15.38-8.15 20.47-9.3 5.36-1.2 13.93-1.92 25.53 2.3z" fill="#664939"/><path d="M595.59 492.77c-23.87-9.76-39.73-8.36-50-5-6.94 2.27-14.32 6.43-27 7-9.35.42-9.93-1.63-21.5-1.5-6.16.07-13.77 1.38-29 4a189.13 189.13 0 0 0-19 4c-5.74 1.56-16.25 4.74-16 6 .08.38 1.12.47 1.5.5l55.5 4.5c22.71.42 19.9 2.08 32 1 11.6-1 20-3.37 34.5-7.5 10.07-2.86 23.43-7 39-13z" fill="#ef7f92"/><path d="M595.59 492.77c-13.73 12.71-25.66 22.54-34.5 29.5-11.32 8.91-15.69 11.63-21 14-4.72 2.11-18.18 7.94-35 6.13-6-.66-12.06-2.24-28-10.13a391.39 391.39 0 0 1-42.5-24.5c0 0 51 1 66 5 14.24 3.8 25.28-1.33 40-4a279.42 279.42 0 0 0 55-16z" fill="#f18f9b"/><path d="M492.09 520.27c9.87-1.06 22 1.76 22 5 0 2.56-7.45 5.48-14 5-7.5-.55-14.6-5.63-14-8 .35-1.36 3.22-1.7 6-2z" fill="#ef9eac"/><path d="M543.09 272.27c-4.94 4.39-6.86 10-5 13.79a6.56 6.56 0 0 0 3 3.09c4 1.88 8.73-1.56 15-4.88 5.41-2.87 11.38-4.55 17-7l23-10c15.82-6.3 23.73-9.45 32-9 9.91.54 21 4.62 27 10l9 8c3.58 3.35 5.52 5.35 6 5 .32-.23.08-1.56-3-7a51.5 51.5 0 0 0-9-12 56.79 56.79 0 0 0-6.41-5.37c-11.61-8.15-32.34-7.67-33.59-7.63-16.14.51-27.87 4.67-48 12-11.36 4.13-20.59 8.1-27 11zm-84 23a99.13 99.13 0 0 1-12-2 101.15 101.15 0 0 1-18-6c-19.64-8.33-52.58-12.36-67.68-2.72-1 .66-4.22 2.81-4.41 2.56-.41-.55 13.59-11.78 13.59-11.78s13.86-4.56 36.89-4.56c20.37 0 53 4.61 55.29 13.83a10.91 10.91 0 0 1-.68 7.72 8.73 8.73 0 0 1-3 2.95z" fill="#664939"/><path d="M688.59 376.7s9.22-27.65-4.61-69.12c-10.58-31.76-2.25-58.11-14.33-85.27-2.91-6.55-8.19-12.67-17.92-25.31-29.14-37.83-51.8-66.5-80.14-67.23-5.67-.15-3.77 1-21.27 2.73-23.36 2.27-36-.3-44.34 1.66-16.19 3.81-35 13.21-57 35.2-46.07 46.07-133.61 175.08-119.79 299.49s55.29 290.27 87.54 345.56 96.76 106 64.5 170.48-46.07 82.93-46.07 82.93 59.9-124.4-23-188.91c0 0-41.47-50.68-41.47-55.29s-27.64 36.86 9.22 147.44 101.4 184.3 101.4 184.3l-55.29-32.25 50.61 55.29s-50.69-36.86-82.94-92.15l50.62 96.76-55.29-87.54 27.65 115.18H241.59s-4.61-64.5 0-82.93c0 0-27.65-73.72 0-133.62s-13.8-271.84-18.4-322.52 9.21-124.41 18.4-216.56-13.8-221.16 36.89-294.88S402.88 21.92 485.81 3.49s129 41.47 119.78 55.28c0 0 115.18 82.93 138.22 230.37s23 281.06 50.68 322.53 13.82 50.68 36.82 64.5 41.47 32.26 59.9 32.26 32.25 18.43 32.25 18.43-32.25-36.86-69.11-18.43-82.93 92.15-119.79 73.72-59.9-41.47-69.12-46.08-32.25-50.68-13.82-106 50.68-101.37 46.08-124.4-9.22-78.33-9.22-92.15z" fill="#efc59e"/><path d="M573.09 98.27s27-35 70 28 70 98 65 144c0 0-15-103-98-155s-37-17-37-17z" fill="#f9d2b2"/><path d="M459.09 35.27s72-15 91 0 25 17 25 17-38-46-50-43c53.14 14.23 68.45 29.79 70 43 1.4 11.91-8.32 22.53-2.5 30.5 6.42 8.8 21.91.89 36 8 9.52 4.8 19.19 16.86 22.53 47.23 6.16 10.7 12 22.83 18.36 35.88 9.11 18.82 18.11 39.39 17.61 46.39a839.39 839.39 0 0 0-28.75-37.59c-9.95-12.27-19.75-24.35-33.75-38.91a471.32 471.32 0 0 0-40-37 156.37 156.37 0 0 1-28 15c-21.8 8.93-28.63 5.85-51 12-36.92 10.15-67.91 32.2-68.5 32.5h0s52-60 71-68 42-12 42-12-27-20-70 0-48 28-48 28 59.69-54.67 90.35-48.34c0 0-4.35-25.5-50.85-14.08s-66.5 12.42-66.5 12.42 67-25 84-22z" fill="#d6af90"/><path d="M537.09 68.27s-121-81-225 116c0 0-25 80-28 153s24.63 299.85 13.31 355.43-41.31 171.57-13.31 206.57 6 115 6 115 23-33 0-143 24.32-165.41 26.16-198.71-38.16-353.29-8.16-414.29 56-166 124-173 32-30 105-17zm193.5 381.5s8.5 47.5-.5 121.5-54 148-21 171 97-20 106-33c0 0-110 71-85-10s.5-249.5.5-249.5z" fill="#f9d2b2"/><path d="M550.31 408.95a21.29 21.29 0 0 1 10.36 8.06c6.85 10.39.69 22.72.41 23.26 1.38-2.34 3.39-4.81 6-5 4.14-.3 7.61 5.3 8 5s-1-2.53-7-11a27.48 27.48 0 0 0-17.77-20.32zm-21.22 42.32a16 16 0 0 1 2-6c.79-1.36 1.36-1.84 2-2 1.07-.27 2 .43 3 1a18.23 18.23 0 0 0 6 2c3.8.77 6.14-.22 8.5 1.5.31.22.56.45.54.72-.07 1-4.25 1.9-8 1.78-4-.13-4.86-1.25-8-1a13.82 13.82 0 0 0-6.04 2zm-39-7a10.51 10.51 0 0 1 7 0c3 .89 4.65 2.64 7.3 5.4a50 50 0 0 1 3.2 5.1c.09.15.17.28.11.4-.48 1.09-9.63-5-18.61-2.9-4.84 1.13-7.9 4.23-8.5 3.5-.43-.53 1-2.35 3.5-5.5 2.78-3.5 4.22-5.28 6-6zm-18.5-32.5s-15 11-11 26 5 9 5 9c-2.81-4.69-6.6-9-11.5-9.5-3.9-.41-6.4 1.79-7 1-1.31-1.72 10.22-12.77 24.5-26.5zm-37 26v1.9c0 1.33-1.25 17.92-8.87 28.56-8.66 12.09-27.42 19.25-47.68 16a61.14 61.14 0 0 1 31 19l-7-15c20.6-10.78 32.59-24.68 34.25-32.84 1.3-6.15-1.7-17.51-1.7-17.62zm150.5 11.5c18.42 19 29.58 23.31 36.5 23.5 0 0 11 .31 11.1 1.19 0 .43-1.1.81-1.1.81s-7 1-16 18l6-16a74 74 0 0 1-12.87-5.87 75.67 75.67 0 0 1-23.63-21.63z" fill="#e8bbaa"/><path d="M578.59 310.77a17.51 17.51 0 0 0-2 9c.06 1.08.58 8.62 6 12 2.77 1.72 7.18 1.15 16 0 6.34-.82 7.4-1.53 8-2 4.33-3.42 4.37-10.54 3-15-.47-1.54-1.8-5.85-5-7-.34-.12-.59-.17-4-1h-7l-8 2zm-180 15a17.56 17.56 0 0 0-1 8c.12 1.07 1.06 8.46 7 12 2.84 1.69 5.72 1.63 11.5 1.5 6.56-.14 9.84-.21 12.5-2.5 4.21-3.61 4-9.82 4-12a20.21 20.21 0 0 0-3-10l-4-1h-18z" fill="#4fa3aa"/><g fill="#3f8282"><circle cx="415.09" cy="333.27" r="4"/><circle cx="593.09" cy="319.27" r="4"/></g><path d="M557.59 331.77c-1.63-4.29 7.26-11 10.34-13.28 5-3.77 14.31-9.35 29.16-11.22a46.61 46.61 0 0 1 9.75 2.25 48.59 48.59 0 0 1 20.25 13.75 11.83 11.83 0 0 1-6.12 4.63 10.78 10.78 0 0 1-1.88.37c-2.57 1.25-3.07 1.77-3 2 .28.87 9.31-.4 17.5-4.5 8-4 9-6 9-6l-8 2 4-2h-6l3-1a54.76 54.76 0 0 0-26.5-13.5c-4.58-.88-23.77-3.94-38 7-9.56 7.35-17.5 21.5-17.5 21.5l.5 2.5h9a39.27 39.27 0 0 0 8-1c-.98.07-11.89.73-13.5-3.5zm-107 8a35.06 35.06 0 0 0-9.5-10.5c-15-10.89-33.67-5.38-36.5-4.5a36.71 36.71 0 0 0-7.5 2.5 39.58 39.58 0 0 0-16.5 14.5c1.53.56 3.12 1.1 4.75 1.63a121.85 121.85 0 0 0 15.75 3.87l-8.12-1.37q-9-1.39-17.38-2.13l-8-2 6-1s-5-1-4-1 7-1 7-1l-3-1a54.86 54.86 0 0 1 26.5-16.5 52.77 52.77 0 0 1 21.22-1.28c19.1 2.78 30.79 15.67 34.24 19.78a35.46 35.46 0 0 1-14.5 5.5q2.4-1.5 5-3 2.34-1.32 4.54-2.5z" fill="#664939"/><path d="M309.4 175.15s-33.32 71.39-35.81 159.4 4.4 177.62 8.23 254.22-26.81 151.66-26.81 151.66 19.15-72.77 10.73-147.06-16.86-233.76-10.73-282.33 32.94-139.72 54.39-135.89z" fill="#f9d2b2"/></svg>