<svg xmlns="http://www.w3.org/2000/svg" xmlns:xlink="http://www.w3.org/1999/xlink" viewBox="0 0 1000 886.25" xmlns:v="https://vecta.io/nano"><defs><linearGradient id="A" x1="478.5" y1="377.3" x2="478.5" y2="878" gradientUnits="userSpaceOnUse"><stop offset=".21" stop-color="#d44d6e"/><stop offset=".45" stop-color="#d24c6d"/><stop offset=".57" stop-color="#ca4a69"/><stop offset=".66" stop-color="#be4562"/><stop offset=".73" stop-color="#ab3e59"/><stop offset=".79" stop-color="#94364d"/><stop offset=".85" stop-color="#772b3e"/><stop offset=".91" stop-color="#541e2c"/><stop offset=".95" stop-color="#2d1017"/><stop offset="1"/></linearGradient><linearGradient id="B" x1="301" y1="645.8" x2="520" y2="645.8" gradientUnits="userSpaceOnUse"><stop offset="0" stop-color="#a5fcf6" stop-opacity=".6"/><stop offset="0" stop-color="#94e2dd" stop-opacity=".6"/><stop offset="0" stop-color="#74adad" stop-opacity=".6"/><stop offset="0" stop-color="#578082" stop-opacity=".6"/><stop offset="0" stop-color="#405b60" stop-opacity=".6"/><stop offset="0" stop-color="#2e3f46" stop-opacity=".6"/><stop offset="0" stop-color="#222b33" stop-opacity=".6"/><stop offset="0" stop-color="#1b2029" stop-opacity=".6"/><stop offset="0" stop-color="#191d26" stop-opacity=".6"/><stop offset="1" stop-color="#5e61cc" stop-opacity="0"/></linearGradient><linearGradient id="C" x1="741" y1="731.8" x2="841" y2="731.8" gradientUnits="userSpaceOnUse"><stop offset="0" stop-color="#a5fcf6" stop-opacity=".6"/><stop offset="0" stop-color="#92deda" stop-opacity=".59"/><stop offset="0" stop-color="#72aaaa" stop-opacity=".56"/><stop offset="0" stop-color="#567e80" stop-opacity=".54"/><stop offset="0" stop-color="#3f5a5f" stop-opacity=".53"/><stop offset="0" stop-color="#2e3e45" stop-opacity=".51"/><stop offset="0" stop-color="#222b33" stop-opacity=".51"/><stop offset="0" stop-color="#1b2029" stop-opacity=".5"/><stop offset="0" stop-color="#191d26" stop-opacity=".5"/><stop offset="1" stop-color="#5e61cc" stop-opacity="0"/></linearGradient><path id="D" d="M623 554.25s53 45 118 4 112 33 112 33z"/><path id="E" d="M301.5 538.75l12-8 12 8-12 8-12-8z"/><path id="F" d="M299.5 541.75l14 9 15-10-15 37z"/><path id="G" d="M299.5 536.75l14-9 15 10-15-37z"/><path id="H" d="M657 876.25s27-102 5-196-12-166-12-166-10-80-39-102 0-35 0-35 18 23 46 30 45 8 47 22 2-19 37 7c0 0-6 33 0 51 0 0-11 31-10 65 0 0-15 49 1 96 0 0-3 33-18 87 0 0 8 53 18 87 0 0 5 45-5 54s-70 0-70 0z"/><path id="I" d="M692 426.25s10 23 7 48-12 121-12 121l13 187c-2 4-8 79-8 79l15-78-15-189s16-107 15-115 0-45 10-43c0 0-18 2-25-10z"/><path id="J" d="M439.5 369.75s-80-26-127 7c0 0-44-48-106 19 0 0-56 61-48 118s6 116 19 153 36 210 36 210h45l18-182s-1-189 33-243c0 0 7-44 24-51s65-24 65-24h41z"/></defs>
<path d="M0 668.25a1306.06 1306.06 0 0 1 116-154c59.3-67.6 88.9-101.5 121-120 0 0 82.1-47.4 443 35h0l61 12a399.19 399.19 0 0 1 66.6 55c53.6 55 80 114.3 93.4 153l99 227-1000 2z" fill="#11bc92"/><g fill="#5bf1cd"><use xlink:href="#D"/><use xlink:href="#D" x="-58" y="-75"/></g><g fill="#c5cafa"><use xlink:href="#D" x="-393" y="-125"/><use xlink:href="#D" x="-460" y="-57"/></g><g fill="#5bf1cd"><use xlink:href="#D" x="-525" y="7"/><use xlink:href="#D" x="-575" y="80"/><use xlink:href="#D" x="-623" y="224"/><use xlink:href="#D" x="-614" y="148"/><use xlink:href="#D" x="42" y="87"/><use xlink:href="#D" x="79" y="176"/><use xlink:href="#D" x="115" y="264"/></g><path d="M680 451.3l-60-54c-1.2 10.9-4.9 29.5-18 47-26.5 35.3-70.4 38.1-85 39-55.2 3.5-118.4-26.3-123-60-1.6-11.4 3.3-25.2-6-36-6.3-7.3-15.8-9.3-22-10l-72 49-39 141v309l415.5 1.7 31.5-95.7-32.5-214.5z" transform="translate(0 -.05)" fill="url(#A)"/><path d="M421 376.25c-1.2.1-23.1 2.3-33 22-8.8 17.4-.9 34.1 0 36-3.3 7-8.1 20-3.6 33 3.9 11.2 13.2 25.7 43.4 31 32 5.7 140.8 7.9 140.8 7.9l20.5-40.7 9-36.3z" fill="#fcd2c5"/><g fill="#81a8f8"><use xlink:href="#E"/><use xlink:href="#F"/><use xlink:href="#G"/><use xlink:href="#E" x="42" y="22"/><use xlink:href="#F" x="42" y="22"/><use xlink:href="#G" x="42" y="22"/><use xlink:href="#E" x="17" y="71"/><use xlink:href="#F" x="17" y="71"/><use xlink:href="#G" x="17" y="71"/><use xlink:href="#E" x="42" y="114"/><use xlink:href="#F" x="42" y="114"/><use xlink:href="#G" x="42" y="114"/><use xlink:href="#E" x="63" y="69"/><use xlink:href="#F" x="63" y="69"/><use xlink:href="#G" x="63" y="69"/><use xlink:href="#E" x="-5" y="122"/><use xlink:href="#F" x="-5" y="122"/><use xlink:href="#G" x="-5" y="122"/><use xlink:href="#E" x="-23" y="55"/><use xlink:href="#F" x="-23" y="55"/><use xlink:href="#G" x="-23" y="55"/><use xlink:href="#E" x="113" y="-31"/><use xlink:href="#F" x="113" y="-31"/><use xlink:href="#G" x="113" y="-31"/><use xlink:href="#E" x="155" y="-9"/><use xlink:href="#F" x="155" y="-9"/><use xlink:href="#G" x="155" y="-9"/><use xlink:href="#E" x="130" y="40"/><use xlink:href="#F" x="130" y="40"/><use xlink:href="#G" x="130" y="40"/><use xlink:href="#E" x="155" y="83"/><use xlink:href="#F" x="155" y="83"/><use xlink:href="#G" x="155" y="83"/><use xlink:href="#E" x="176" y="38"/><use xlink:href="#F" x="176" y="38"/><use xlink:href="#G" x="176" y="38"/><use xlink:href="#E" x="108" y="91"/><use xlink:href="#F" x="108" y="91"/><use xlink:href="#G" x="108" y="91"/><use xlink:href="#E" x="90" y="24"/><use xlink:href="#F" x="90" y="24"/><use xlink:href="#G" x="90" y="24"/><use xlink:href="#E" x="244" y="-8"/><use xlink:href="#F" x="244" y="-8"/><use xlink:href="#G" x="244" y="-8"/><use xlink:href="#E" x="286" y="14"/><use xlink:href="#F" x="286" y="14"/><use xlink:href="#G" x="286" y="14"/><use xlink:href="#E" x="261" y="63"/><use xlink:href="#F" x="261" y="63"/><use xlink:href="#G" x="261" y="63"/><use xlink:href="#E" x="286" y="106"/><use xlink:href="#F" x="286" y="106"/><use xlink:href="#G" x="286" y="106"/><use xlink:href="#E" x="307" y="61"/><use xlink:href="#F" x="307" y="61"/><use xlink:href="#G" x="307" y="61"/><use xlink:href="#E" x="239" y="114"/><use xlink:href="#F" x="239" y="114"/><use xlink:href="#G" x="239" y="114"/><use xlink:href="#E" x="221" y="47"/><use xlink:href="#F" x="221" y="47"/><use xlink:href="#G" x="221" y="47"/><use xlink:href="#E" x="198" y="100"/><use xlink:href="#F" x="198" y="100"/><use xlink:href="#G" x="198" y="100"/><use xlink:href="#E" x="329" y="-48"/><use xlink:href="#F" x="329" y="-48"/><use xlink:href="#G" x="329" y="-48"/><use xlink:href="#E" x="336" y="131"/><use xlink:href="#F" x="336" y="131"/><use xlink:href="#G" x="336" y="131"/><use xlink:href="#E" x="215" y="171"/><use xlink:href="#F" x="215" y="171"/><use xlink:href="#G" x="215" y="171"/><use xlink:href="#E" x="240" y="214"/><use xlink:href="#F" x="240" y="214"/><use xlink:href="#G" x="240" y="214"/><use xlink:href="#E" x="266" y="251"/><use xlink:href="#F" x="266" y="251"/><use xlink:href="#G" x="266" y="251"/><use xlink:href="#E" x="309" y="292"/><use xlink:href="#F" x="309" y="292"/><use xlink:href="#G" x="309" y="292"/><use xlink:href="#E" x="261" y="169"/><use xlink:href="#F" x="261" y="169"/><use xlink:href="#G" x="261" y="169"/><use xlink:href="#E" x="297" y="194"/><use xlink:href="#F" x="297" y="194"/><use xlink:href="#G" x="297" y="194"/><use xlink:href="#E" x="329" y="220"/><use xlink:href="#F" x="329" y="220"/><use xlink:href="#G" x="329" y="220"/><use xlink:href="#E" x="193" y="222"/><use xlink:href="#F" x="193" y="222"/><use xlink:href="#G" x="193" y="222"/><use xlink:href="#E" x="175" y="155"/><use xlink:href="#F" x="175" y="155"/><use xlink:href="#G" x="175" y="155"/><use xlink:href="#E" x="81" y="135"/><use xlink:href="#F" x="81" y="135"/><use xlink:href="#G" x="81" y="135"/><use xlink:href="#E" x="123" y="157"/><use xlink:href="#F" x="123" y="157"/><use xlink:href="#G" x="123" y="157"/><use xlink:href="#E" x="98" y="206"/><use xlink:href="#F" x="98" y="206"/><use xlink:href="#G" x="98" y="206"/><use xlink:href="#E" x="123" y="249"/><use xlink:href="#F" x="123" y="249"/><use xlink:href="#G" x="123" y="249"/><use xlink:href="#E" x="156" y="292"/><use xlink:href="#F" x="156" y="292"/><use xlink:href="#G" x="156" y="292"/><use xlink:href="#E" x="215" y="288"/><use xlink:href="#F" x="215" y="288"/><use xlink:href="#G" x="215" y="288"/><use xlink:href="#E" x="144" y="204"/><use xlink:href="#F" x="144" y="204"/><use xlink:href="#G" x="144" y="204"/><use xlink:href="#E" x="76" y="257"/><use xlink:href="#F" x="76" y="257"/><use xlink:href="#G" x="76" y="257"/><use xlink:href="#E" x="85" y="296"/><use xlink:href="#F" x="85" y="296"/><use xlink:href="#G" x="85" y="296"/><use xlink:href="#E" x="58" y="190"/><use xlink:href="#F" x="58" y="190"/><use xlink:href="#G" x="58" y="190"/><use xlink:href="#E" x="9" y="-77"/><use xlink:href="#F" x="9" y="-77"/><use xlink:href="#G" x="9" y="-77"/><use xlink:href="#E" x="-37" y="115"/><use xlink:href="#F" x="-37" y="115"/><use xlink:href="#G" x="-37" y="115"/><use xlink:href="#E" x="11" y="202"/><use xlink:href="#F" x="11" y="202"/><use xlink:href="#G" x="11" y="202"/><use xlink:href="#E" x="36" y="245"/><use xlink:href="#F" x="36" y="245"/><use xlink:href="#G" x="36" y="245"/><use xlink:href="#E" x="56" y="-57"/><use xlink:href="#F" x="56" y="-57"/><use xlink:href="#G" x="56" y="-57"/><use xlink:href="#E" x="-11" y="253"/><use xlink:href="#F" x="-11" y="253"/><use xlink:href="#G" x="-11" y="253"/><use xlink:href="#E" x="-29" y="186"/><use xlink:href="#F" x="-29" y="186"/><use xlink:href="#G" x="-29" y="186"/></g><use xlink:href="#H" fill="#c9b8ff"/><use xlink:href="#I" fill="#a5fcf6"/><use xlink:href="#H" x="-47" y="3" fill="#c9b8ff"/><use xlink:href="#I" x="-47" y="3" fill="#a5fcf6"/><use xlink:href="#J" fill="#c9b8ff"/><path d="M304.5 392.75s-123 53-119 175c0 0-18-179 119-175zm-100 140s24 100 16 217l9 81 9-187s-9-201-34-111z" fill="#a5fcf6"/><use xlink:href="#J" x="46.5" y="0.5" fill="#c9b8ff"/><path d="M351 393.25s-123 53-119 175c0 0-18-179 119-175zm-92 135s24 100 16 217l9 81 9-187s-9-201-34-111z" fill="#a5fcf6"/><g fill="#81a8f8"><path d="M476.5 479.75s-138-59.6-57-109.8l-18 2s-74 49.8 70 112.8zm13 0s103 7 87-64h9s22 72-98 72z"/><path d="M461.5 544.75l8-64s-69-26-87-67v-18s-12 49-4 72c0 0 35 70 83 77zm25-52l-4 60s75 11 102-65c0 0 14-49 1-72 0 0 30 72-99 77z"/></g><g transform="translate(0 -.05)"><path d="M378,405.3s-52,156-51.5,165.5-6,186-6,186L301,885.3l219,1-87-79,64.5-15.5L417,676.3l91,9-91-86,80,10-116-132Z" fill="url(#B)"/><path d="M741 585.3s56.3 245 23.2 293H841s-71-241-100-293z" fill="url(#C)"/></g><g fill="#fcd2c5"><path d="M398 176.25l-3 24-4 11 3 24v20 21 36l4 17 6 22 12 18 7 17 10 14 10 10 16 18 32 9 39 5 28-3 25-9 24-17 7-12 13-17 8-19 8-18 6-23 3-26 3-29 2.5-22.5 3-27-3-20-3-39 4-24-8-19-18-40-16-14-43-12-35-5h-36l-39 17-52 49-13.5 63.5z"/><path d="M399 228.25s-4-22-20-21c0 0-13 0-13 20l1.5 17.5 3 12v27l6 11s5 10 10 8a57.59 57.59 0 0 1 10-3v-49z"/></g><path d="M391.1 220.45s-13.4-13.7-17.9 2.5c0 0-1.6 15-.6 17s4.4 16.9 4.4 16.9 3 1.9 2.9-5.1.4-23 6.4-23.2 4.8-8.1 4.8-8.1zm-4.6 52.3s7-13 9-2c0 0 1-23-6-14a25 25 0 0 0-5 19s2 1 2-3z" fill="#f2c9c0"/><path d="M662.5 232.75s18-9 25-3 4 19 4 19l-3 29s-4 22-6 26-9 15-9 15l-14 14s-10.4 5-12.7 0 4.7-58 4.7-58z" fill="#fcd2c5"/><path d="M658.5 259.75s17-23 24-19 3 19 3 19l-6 20-4 19s-5 2-6 7-5 14-10 15 1-19 3-21 5-21-3-18-5-17-1-22z" fill="#f2c9c0"/><path d="M664.5 266.75c.9-.4 8-14 7 2s-3 24-3 24 1 3 3-1 5-21 5-21 3-28-6-17-11 15-6 13z" fill="#efc5bb"/><path d="M396.5 239.75v-27l3-27 3-18 7-18v-21l4-8 11-11 10-12 13-15 8-3v-3h8l3-4 7-2-3-4h18l-7-5h18l7-3h64l13 4 13 1 10 5 11 7 11 11 10 11 6 14 4 11v13l-3 14 1 10 4 15 4 16 6 18.9v17.5l-3 19.6-5 22 5-13 6-16 3-12 6-2 4-14 2 3v-30l2 1-4-18 4 4-6-21 6 7-6-15h3l-8-13 5 1-11-13 4 1-10-15 6 3-8-8 5-3-13-7s11-9 11-13l-5 3 5-15-5 6s3-17-1-20l-2 9s-6-21-11-24l1 12s-7-17-11-19v7s-23-19-31-20l3 6s-33-20-44-18c0 0 4 2 5 4 0 0-37-12-52-4l7 1s-52 1-57 9l10-2s-26 15-27 20l9-3s-21 16-24 24l6-1s-22 15-22 19l7-1s-15 15-15 17l7-2s-16 18-15 23l4-1-6 9 7 1-3 8-4 17-6 34-2 25 2 10 3 27 4 8z" fill="#5932c4"/><path d="M643 73.25a161.85 161.85 0 0 0-47-36c-43.7-22.1-85.3-17.7-102-15 0 0 58 0 67 9 0 0-60-9-98 9 37.5-3.6 45.9-3.7 46-3s-8.9 1.7-20 5c-26.4 7.8-45.7 22.6-45 24 .6 1.1 12.9-6.5 37-14 10.4-3.2 27.5-8.4 50-10 11.4-.8 26.4-1.9 44 2 35.6 7.8 58.8 30.6 60 29 1-1.4-18.6-17.3-18-18 .4-.6 10.5 6.6 26 18zm3 24s24 27 21 62c0 0-1-13-7-18 0 0 5 36 1 47 0 0-2-46-8-46h7s-3-26-14-45z" fill="#8c65f7"/><path d="M394 274.25l-2.5 44.5 3 18 3-2v15l2-2s3 9 2 10 3 0 3 0l4 12 2-3 2 15v-4l7 12v-6l5 20v-6l6 15v-5l9 19v-7l6 13v-5l6 13v-6l8 14v-6l7 13 2-9 6 12s1-7 2-6 10 15 10 15v-10l8 10v-7l8 13 2-8 4 11 3-9 4 9 5-10 5 13 8-12 5 7 4-9 8 8 2-8 5 8 3-8 5 5 4-10 4 5 4-9 3 6 5-11 2 3 4-11 2 5 2-13 2 7 3-13v5l4-11 2 4 4-13 2-2 3-9v4l5-11 4.7-10.2 2.3 1.2 2.5-10.8 2.5-.3 3-11v6l5-13 1 4 3-10 2-10 3-13v-19l-2-12-2 12v9l-1 13-5 14-7 17-8 14-8 11-11 9-7 5 2-8-4 4 3-11-4 1 2-13-5 6 2-14-2-13-1-10-1-11 2 2-3-7 6 3-9-8-6.3-3.9-1.7-1.1v3l-7-3 2 3-11-7 1 3-13-10v5l-7-5-5-2 1 4-8-4v6h-6l-1 4-7-5v5l-9-7 2 6-10-6 1 6-9-4 3 6-6-1-1 4-4 1-1 6-3-3-5 8-3-6-2 6h-5l-1 12a69.93 69.93 0 0 1-4 7c-2 3 1 2 1 2l6-7-4 14 6-7-2 9 7-12 5-5 1 3 5-7 1 4 7-8-1 8 8-8-2 6 8-9-4 9 12-11-4 8 14-13 9 4 6-1 9 6-3-7 10 6-2-5 10 6-2-4 11 5-7-6 10 4-4-6 10 4 3-3 2 8-3 9-3 12-4 7-5 13-7 10-6 7c-1 1-9 5-9 5l5-10-1-6h6l-5-6 3-4-6-8-11 2s-8 2-10 1-13 0-13 0a31.54 31.54 0 0 1-3 5c-1 1-2 7-2 7l-1 9 5-11-2 9 6-5s-1 5 0 6 5-3 5-3v6l8-6-8 10-7 3-2-4-10 8-11-3-15-3-10-2-5-13-1-11 1-8h-2l-5 5-6 8 4-1-4 8 4-2-6 11 5-2-10 8-8-4-11-11-10-14-8-17-8.2-15-4.1-16.1-2.2-13.6 1.5-27.3z" fill="#6f3ff5"/><path d="M482.5 352.75s78-5 88-11 0-2 0-2l-6 2c-27.1 5-54.5 8.7-82 11z" fill="#ceaaa5"/><path d="M590.5 314.75s12 5 8 43c0 0 8-42-8-43zm15 7s6 14 0 28c0 0 12-9 1-28z" fill="#e2bbb3"/><path d="M508.5 294.75c-2-1-13-10-20-5 0 0-3 6 4 5s16 0 16 0zm22 5s3-9 9-10 10 0 10 2-9 3-9 3-9 3-10 5z" fill="#ceaaa5"/><path d="M555.5 274.75s12 14-3 24c0 0 19-8 3-24z" fill="#e2bbb3"/><path d="M487.5 156.75c0 1-2-7-2-7l-22-4-18-4-10 8-9 7-4 14-2 12 7-8 5-9 7-7 13-2 11 3 11-1 8-1zm78 9l6-8h9l15-2h17l12-1 8 11 4 9v10h-5l-7-8-7-7h-14-13-14l-11-2v-2z" fill="#5932c4"/><path d="M562 220.25s7-6 10-10 11-5 11-5l13 2 10 9s4 7 5 8-2.5-9.5-2.5-9.5l-8-7-12.5-4h-10.5l-9 7s-10 12-11 12 4.5-2.5 4.5-2.5zm-79.5-8.5a44 44 0 0 0-9.6-11c-3.5-2.8-7.8-4.8-12.4-4 0 0-10-1-23 15 0 0-3-3 13-15 0 0 14-7 24 1 0 0 8 8 8 14z" fill="#1d1db4"/><path d="M490.5 222.75s-13 19-25 24c0 0 18-19 19-24s6 0 6 0z" fill="#e2bbb3"/><g fill="#98cdf9"><circle cx="460" cy="211.25" r="8.5"/><ellipse cx="588" cy="220.75" rx="8.5" ry="9"/></g><g fill="#1f0bac"><circle cx="460.5" cy="210.75" r="3"/><circle cx="588" cy="220.25" r="2.5"/></g><path d="M406 210.25l-9.1-1.3-1.9-8.7-4-6 7-4h13l14-2h12s39-1 51 6l13 3 5 2 13 1 16 2h11l27-3s34 0 46 3l17 4 11 5h10l2.6 2.8-1.6 6.2-6 3-7 8-2 9s-4 22-11 27l-7 7a44.91 44.91 0 0 1-20 9c-12 2-20 0-20 0l-17-3-13-6-9-6-6-10-4-12-3-10 2-12h5v-5l-3-8-11-1h-14l-4 6v13l-2 7s-5 15-16 26c0 0-5 11-22 12s-23-2-23-2l-17-4-15-10-9-18-2-16v-10l1-11 3 4v22l4 15 3.8 6.2 9 8.5 9.3 3.1 15.1 2.8 13.4.8 14.1-1.2 11-7.8 7.4-8.4 3.8-7.5 4.2-7.5 2-13-3-13 12-4 25 2 12 5-6 10v13l2.6 17.1 9 15.4 15.8 8.5 15.1 3.5 17-1 12.5-2.5 13.5-10 7.5-10 3.5-13.5v-16.4l-3.5-10.1-10.9-4.7-10.8-4-10.3-2.3-16-1h-19l-11.6 3.9-11.4 5.1-16-4-17-2-10 5-7.8-5.4-10.3-6-15-4.6-16.3-3.1-15-.4-12 2.4-14 5.9-3.7 4.3z" fill="#1d1db4"/><path d="M284 534.25s19 16 41 5 29-22 29-22 17-18 30-21 26 11 26 11l-28 31a95.45 95.45 0 0 1-16 17c-6.4 5.3-11.9 9.1-16.4 17a25 25 0 0 0-2.6 8c-2 12-3 39-10 45s-9.5 18.4-20 10c-10-8-24-20-24-20l-16-60z" fill="#fcd2c5"/><path d="M380 474.25s-13-58 16-30l15 11 27 16 18 12 7.1 3.5 6.9 3.5 34-2 25-6 42-23s12-8 2 31c0 0 1 48-16 83 0 0-4 17-15 5s-52.5-35.5-61.5-42.5-24-3-24-3-12 20-50 28c0 0-20 7-23-16z" fill="#b096f2"/><path d="M115 649.25l69.7-2.5 9.3 49.5 29 50.5 27-1.5-11.5 58.5-99.5-13.5-45-96 21-45z" fill="#a5fcf6"/><path d="M141.5 644.75s19 2 63-1l-20 10-53 2s-14 20-5 25l50-7 6.8 35-52.8 9 11 36 51-17 14.1 16.5-41.1 30.5 39 12 17-33 17 4-7 27 13-11 5.5-31s-1.5 92-63.5 85-100-106-100-106-48-112 55-86z" fill="#beb1f2"/><path d="M250 745.25s-1 29-28 18-37-45-37-45l-8-44 8-21 19.5-9.5 27 37z" fill="#b096f2"/><path d="M222.5 635.75s20-24 0-84c0 0-4-34-16-43s-29-34-29-34 2-22 17-14 34.5 28.5 34.5 35.5c0 0 15 12 23 30 0 0 7.5 18.5 10.5 24.5l-16-34c-4-8-18-21-19-22s-22-29-22-29l-1-25v-18c0-3-7-31-3-36s13-12 22 0 8 39 8 39 7 28 4 41c0 0 4-38 5-38s8-23 10-28 2-45 2-45 3-11 11-12 17 4 17 14 2 36 0 40c0 0 1 30-7 45 0 0 6 31 1 43 0 0 42-14 53-13 0 0 34 14 40 15s22 8 28 6 27 9 7 26c0 0-15 7-42-4 0 0-20-5-29-8 0 0-15 10-33 3 0 0-1 21-9 35 0 0-6 42 5 68 0 0 23.9 25.5 29.5 24.5 0 0-2.5.5-3.5 7.5s-1 30-21 46-31 27-31 27l-26.2 23.9-7.8 7.1s-52-5-44-69c0 0-1-19 12-24s20-21 20-21z" fill="#fcd2c5"/><g fill="#eda8a8"><path d="M464.5 509.75l5-14s3-11-5-9 0-10 13 0c0 0-5-4 5-4s17 2 15 11-7 33-15 39-7 5-11 3c0 0-2 5-8-1 0 0-6 3-6-5s7-20 7-20z"/><path d="M477.5 492.75s2 15-12 35c0 0 20-14 12-35zm9 0s-1 25-14 43c0 0 16-14 14-43zm-14 10s-24-23-33-20c0 0 3-7 26 8l9 5zm-7 7s-6 11-36 11c0 0 25 4 34 0zm29-3.1c0-.9 13-2.9 24-13.9 0 0-15 22-29 23zm-12 15.8s18 11.2 43 5.2 3 0 3 0-12.8 14-48.9 0z"/></g><g fill="#a5fcf6" stroke="#cc52a8"><circle cx="406.5" cy="474.75" r="5"/><circle cx="430" cy="501.25" r="5.5"/><circle cx="411.5" cy="538.75" r="5"/><circle cx="540.5" cy="487.75" r="5"/><ellipse cx="562.5" cy="500.25" rx="4" ry="4.5"/><circle cx="524.5" cy="510.75" r="4"/><circle cx="551" cy="533.25" r="5.5"/><circle cx="537.5" cy="552.75" r="6"/></g></svg>