<svg xmlns="http://www.w3.org/2000/svg" xmlns:xlink="http://www.w3.org/1999/xlink" viewBox="0 0 2172 2590.86" xmlns:v="https://vecta.io/nano"><defs><linearGradient id="A" x1="948" y1="656.94" x2="1458" y2="656.94" gradientUnits="userSpaceOnUse"><stop offset="0" stop-color="#0c065f"/><stop offset="1" stop-color="#0e0947"/></linearGradient><linearGradient id="B" x1="552" y1="808.49" x2="900" y2="808.49" xlink:href="#A"/><linearGradient id="C" x1="481" y1="762.54" x2="831" y2="762.54" xlink:href="#A"/><linearGradient id="D" x1="427.04" y1="730.75" x2="826" y2="730.75" xlink:href="#A"/><path id="E" d="M1313.24 1027.62c3.86 0 3.87-6 0-6s-3.87 6 0 6z"/></defs><path d="M636 1385.86l65 458c15 69 21 153 98 149s211-29 252-62 158-110 283-241 21-75 21-75-77 5-126-86-593-143-593-143z" fill="#e5a683"/><path d="M610 1429.86s78 116 205 183 196 99 300 67 201-220 201-235-303 97-303 97l-375-112zm16 107s224 256 222 306 1 148-101 177-121-289-121-289zm626.19 45.34c-8 9.52-56.57 104.67-9.16 187.56l135.21-63.75 79.18-131.42z" fill="#dba179"/><path d="M2172 1848.86s-111-165-309-187-427-140-427-140-208 292-350 371-372 152-495 65-591 8.52-591 8.52v624.48h2172z" fill="#5932c4"/><path d="M2069 1978.86c-9 29-85 296-100 376s-35 204-24 236h16s52-460 123-581l17-69zm-37-62s-103 212-123 268-23 309 0 406h-16s-54-495-43-564 90-222 90-222l2 28s-83 154-55 311c0 0 121-218 145-227zm-716 2s-101 168-100 326 18 195 18 195-12-353 82-521zm-1263 260c9 34 153 205 162 278s43 134 43 134h72s-20-134-78-227-199-185-199-185zm9 280s46 111 63 132h67s-83-151-102-151-28 19-28 19zm-62 13v119h53s-33-97-53-119zm636-593s330 78 512-35 251-355 288-366-28 296-28 296-171 185-288 240-415 49-484 15 0-150 0-150z" fill="#3d2a9b"/><path d="M1218 1523.86s-24 38 97 157 121-386 121-386-116 51-121 62-97 167-97 167zm-803-600s110-94 121 25 78 406 78 406c-6.74-10.48 146.4 248.48 17 454-136 216-216-514-216-514l-121-309z" fill="#231f1f"/><path d="M485 976.86s9 198 48 324 272 312 419 359 281-49 380-221 143-372 160-462-9-338-35-389-311-371-311-371l-423-35-238 480z" fill="#f1b289"/><path d="M499 1068.86s-19.48 90.3-74.24 53.65S371 1005.86 371 1005.86l99-120 55 87z" fill="#dba179"/><path d="M958 1136.86c.66-.75-67 51-67 51s33-27-3 6-36 46-36 46 25-26 53-30 41 0 41 0-33-22 12-73z" fill="#e8a885"/><path d="M437 1013.86s-5 11 0 35 11 36 11 36 12-14 10-36-27-65-23-58 2 23 2 23z" fill="#ba8968"/><path d="M459.27 898.86s25.73 233-27.27 365c0 0 121-150 75-384-39.93-203.13-61-28-61-28z" fill="#0c0631"/><path d="M1253 873.86s8 27 30 30 36 1 52-26-16-49-20-49-19 8-19 8l-20 14-17 16zm-381-40s40 29 7 68-69 1-73-12-3-51 25-56l13-4h19z" fill="#262612"/><path d="M1234 898.86s18-58 100-79c0 0 28-5 71 6l19-7-10 12a160.07 160.07 0 0 0 17-1c8-1-9 8-9 8l-6 6s6 0 17-4-10 25-30 10-76-69-169 49zm164-33s-62 57-121 42c0 0 95 22 121-42zm-450 14s-28-52-97-55c0 0-48-1-90 28 0 0-15 17-20 27l8-6-2 6 14-10 9-11-2 8 13-15-1 14 16-18 13-8s83-26 139 40zm-184 9s63 45 136 26c0 0-77 34-148-29zm470-154c0 2-41 26-26 39s45 13 76 7 90-35 110-33 72 28 79 37a51 51 0 0 1 9 17s7-54-15-75-46-51-99-46-134 54-134 54zm-270 37s42 17 61 10 27-37 0-57-185-45-221-45-117 21-172 54-32 68-32 68l-9 57s128-93 188-100 166 7 185 13z" fill="#0c0631"/><path d="M105 1671.86s-72 130-105 156v285.4l174-196.4z" fill="#04021c"/><path d="M986 333.86s100-53 238 133 250 204 259 290 4 312-65 497-154.9 319.6-151 332c17 54 27 22 35 87s35 329 56 402 108-9 160 30 125 47 125 47-160-194-108-397c0 0 320 202 497-87 0 0-294 277-497-17l-26-121s-45 31 194 117l91 26s-178-143-160-255-60-272-60-272 104-43 108-151-117-226-134-355-100-410-238-505-249-176-496-112c0 0-260-87-450 328s-47 504-155 725-156 285-169 441 74 221 78 307-118 276-118 276v74l148-30s-68 56-108 60 69 30 69 30l-8 57 39-22s46 86-18 112c0 0 121 21 147 0l-47 87s111-40 129-87c0 0-30 65-47 108s65 0 65 0 99-24 34 39c0 0 186-13 307-190s129-430 59-533-148-314-178-375-94-115-158-284 22-174 78-208 307-379 346-479 75-119 129-125z" fill="#0c0631"/><g transform="translate(0 -299.14)"><path d="M948 544s195-13 241 26 120 199 188 219 81 31 81 31-48-47-102-113-83-157-122-186-231-51-286 23z" fill="url(#A)"/><path d="M900,585c-4-1-70,33-122,131s-173,304-226,316c0,0,168-257,174-328S900,585,900,585Z" fill="url(#B)"/><path d="M831 503s-113 49-131 112-41 195-93 241-126 167-126 167 88-152 108-198 63-227 79-249 65-82 163-73z" fill="url(#C)"/></g><path d="M1229 1357.86s-19 41-45 68-111 38-168 14-125-98-125-98l45 10 157 6 127-4 14-2z" fill="#7c2a38"/><path d="M1249 1341.86s-30-1-55-4-55-15-88 7c0 0-21-17-45-17s-108 19-119 17-15 3-44-8c0 0-17-3-12 8 0 0 47 18 90 21s59 1 99 18c0 0 18 11 82-8 0 0 38-5 66-18 0 0 22-12 26-16z" fill="#6c232a"/><path d="M1211 1131.86s56 54 15 91c0 0 17-3 23-7s8-9 7-18-24-61-45-66zm-218-5s-39 62-20 88 36 24 36 24-36 14-51-51c0 0 1-56 35-61z" fill="#dd9f80"/><path d="M1153 1228.86s36-14 45-14 25-3 18 7-55 15-63 7zm-54 4s-35-35-77-18c0 0-36 15 38 18 0 0 31 3 39 0z" fill="#aa7963"/><path d="M1067 922.34l31.53 157.08c5.91 29.57-15.76 76.68-15.76 76.68s33.5 17.56 39.41-14.78-21.68-231-36.46-236.53-18.72 17.55-18.72 17.55z" fill="#e8a885"/><g fill="#af8264"><use xlink:href="#E"/><use xlink:href="#E" x="28.76" y="1.44"/><use xlink:href="#E" x="30.24" y="34.56"/><use xlink:href="#E" x="8.64" y="60.48"/><use xlink:href="#E" x="-24.48" y="51.84"/><use xlink:href="#E" x="74.88" y="61.92"/><use xlink:href="#E" x="43.2" y="69.12"/><use xlink:href="#E" x="77.76" y="17.24"/><use xlink:href="#E" x="-2.88" y="27.36"/><use xlink:href="#E" x="-427.68" y="36"/><use xlink:href="#E" x="-502.56" y="61.92"/><use xlink:href="#E" x="-483.84" y="21.6"/><use xlink:href="#E" x="-552.96" y="14.4"/><use xlink:href="#E" x="-555.84" y="-20.16"/><use xlink:href="#E" x="-599.04"/><use xlink:href="#E" x="-604.8" y="36"/><use xlink:href="#E" x="-591.84" y="43.24"/></g><path d="M748.76 1079.34l1.44 1.44" fill="#5b4234"/><g fill="#af8264"><path d="M746.64 1081.46l1.44 1.44a3 3 0 0 0 5.12-2.12 3.1 3.1 0 0 0-.88-2.12l-1.44-1.44a3 3 0 0 0-5.12 2.12 3.1 3.1 0 0 0 .88 2.12z"/><use xlink:href="#E" x="-524.16" y="108"/><use xlink:href="#E" x="-460.8" y="99.36"/><use xlink:href="#E" x="-460.8" y="70.56"/><use xlink:href="#E" x="-241.92" y="7.24"/><use xlink:href="#E" x="-190.08" y="-50.4"/><use xlink:href="#E" x="-154.08" y="21.6"/><use xlink:href="#E" x="-123.84" y="-11.52"/><use xlink:href="#E" x="-34.56" y="-1.44"/><use xlink:href="#E" x="-511.24" y="4.32"/><use xlink:href="#E" x="-637.92" y="48.96"/><use xlink:href="#E" x="-594.72" y="103.68"/><use xlink:href="#E" x="18.76" y="109.44"/><use xlink:href="#E" x="63.36" y="86.4"/><use xlink:href="#E" x="-185.76" y="-12.96"/><use xlink:href="#E" x="-141.12" y="-41.76"/><use xlink:href="#E" x="-383.04" y="7.24"/><use xlink:href="#E" x="-262.08" y="-34.56"/><use xlink:href="#E" x="-290.88" y="-14.4"/><use xlink:href="#E" x="-443.52"/><use xlink:href="#E" x="-74.88" y="2.88"/><use xlink:href="#E" x="66.24" y="-23.04"/></g><path d="M812 1318.86s-10 31-5 39 18 34 2 19-26-24-20-35 23-23 23-23z" fill="#d8a17c"/><path d="M826 448s-148-24-176 72-91 301-133 346-85 196-85 196-28-83 49-225 113-337 120-356 106-151 225-33z" transform="translate(0 -299.14)" fill="url(#D)"/></svg>