<svg xmlns="http://www.w3.org/2000/svg" xmlns:xlink="http://www.w3.org/1999/xlink" viewBox="0 0 385 443.97" xmlns:v="https://vecta.io/nano"><defs><linearGradient id="A" x1="82.57" y1="342.22" x2="314.49" y2="342.22" gradientUnits="userSpaceOnUse"><stop offset="0" stop-color="#e2b5a3"/><stop offset="1" stop-color="#ebc2ae"/></linearGradient><linearGradient id="B" x1="288.98" y1="262.97" x2="288.98" y2="13.97" gradientUnits="userSpaceOnUse"><stop offset="0" stop-color="#713428"/><stop offset="1" stop-color="#3d2528"/></linearGradient><linearGradient id="C" x1="170.8" y1="165.97" x2="170.8" y2="12.48" xlink:href="#B"/><linearGradient id="D" x1="78.86" y1="333.47" x2="102.05" y2="333.47" xlink:href="#B"/></defs><path d="M249.55 402s31.55-31 41.75-48 15.79-20.5 15.79-20.5 39 34.5 48.22 45.5S385 444 385 444H199.65zm-144.72-78s-20.41-4-36.18 5-31.54 37-39 48S0 419 0 419v25l70-.5z" fill="#5932c4"/><path d="M314.49 341s-19.49-23-29.68-38-20.47-31-9.77-62.5L257 241l-67.73 38-27.83 5-50.09 80-28.78 62v18h129.88s99.26-81 102.04-103z" fill="url(#A)"/><path d="M169.77 310a50.08 50.08 0 0 1-1.39 21.5c-1.43 4.78-2.35 7.88-5.1 9.5-4.32 2.54-8.43-1-14.33 1.5a12.4 12.4 0 0 0-5.15 4.5c-6.5 9-19.49 24-19.49 24L154 310c2.58-5.48 9.18-19.57 12.52-18.5s3.23 18.27 3.25 18.5z" fill="#eab6a2"/><path d="M110.86 253.47S108.54 222 116 225s47.78 59.43 47.78 59.43c.95 2.81 3.52 11.57 0 21a27.4 27.4 0 0 1-4.64 8c-8.91 13.59-18 28.58-26.9 45a644 644 0 0 0-31.54 67l10.2-66z" fill="#211f1d"/><path d="M179.05 309c-1.86 1 3.71 20 3.71 27s2.78 6 6.49 0 10.21-29 13-31 19.48-10 23.19-13 7.43-13 7.43-13l-69.58 11z" fill="#eab6a2"/><path d="M154.46 281.47s14.85 21 31.55 20 30.61-7 32.47-10 21.33-13 26.9-18 17.63-20 22.26-22 13-14 15.78-29 3.71-10 3.71-10 2.78 2 9.27-5 9.28-21 9.28-21l-11.13-23-6.5-55-25.05-58-52.87-22-73.29 27-27.84 77-2.79 72 10.21 29s7.42 15 12.06 20l18.52 20z" fill="#ebc2ae"/><path d="M201.78 212.47a25.58 25.58 0 0 0 7.42-5c2.78-3 7.42 2 7.42 2s9.28 8 12.06 11 6.49 2 5.57 7a38.25 38.25 0 0 0 0 11s1.85-13 0-16S219.87 212 218 209s-9.28-15-14.84-16c0 0 7.42 6 6.49 8s.94 6-7.87 11.47zM158.64 197s-6.5 10-2.78 13 5.56 2 5.56 2-6.49 1-9.28 0 0-4-2.78-1l-2.78 3s8.35-14 12.06-17zm-20.41 30s-.93 4 2.78 8c-.01 0-6.49-3-2.78-8z" fill="#bc9b8f"/><path d="M134.52 240l9.28 22c1.86 5 4.63 11 4.63 11s-13.91-25-13.91-33z" fill="#ddb6a6"/><path d="M232.86 151a7.73 7.73 0 0 1-7.43 8c-4.1 0-7.42-3.58-7.42-8a8.36 8.36 0 0 1 1.67-5.05 7.64 7.64 0 0 1 2.27-2c2.6.2 5.52.52 8.23.92a7.07 7.07 0 0 1 1.44 1.74 8.4 8.4 0 0 1 1.24 4.39zM154 152a8 8 0 0 1-3.25 6.5 7.26 7.26 0 0 1-2.78 1 9.25 9.25 0 0 1-2.78 0 4.53 4.53 0 0 1-3.71-2 9.23 9.23 0 0 1-2.32-5.5 7.63 7.63 0 0 1 .28-2.18 8.14 8.14 0 0 1 1.14-2.53 7.62 7.62 0 0 1 1.64-1.76l5.34-.48 1.8-.05-.93 1a60.19 60.19 0 0 0 4.94 2.78A8.47 8.47 0 0 1 154 152z" fill="#4c2f29"/><g fill="#38221f"><ellipse cx="225.43" cy="150.97" rx="2.32" ry="2.5"/><ellipse cx="146.58" cy="151.97" rx="2.32" ry="2.5"/></g><g fill="#2b251c"><path d="M247.7 154h-2.78c-2.69 0-7.08 1.85-7.41 2 1.71-.93 4.18-4.36 4.57-4.91-.18.12-1 0-4.59-3.08a12.71 12.71 0 0 0-5.87-2.4 56.17 56.17 0 0 0-11.94-.65L218 145c-1.85 0-6.49 5-8.35 8s0 5 0 5a12.81 12.81 0 0 1-3.71-2c-.93-1 2.78-6 5.57-10 2.53-3.65.44-1.48 1.46-2.58a10.13 10.13 0 0 0 1.32-.42c1-.36 4-.33 7.65-.06 2.6.2 5.52.52 8.23.92 4.09.6 7.74 1.37 9.17 2.14 3.72 2 8.36 8 8.36 8zm-91.84 3s2.78-2 0-5a13.36 13.36 0 0 0-2.05-1.78 18.76 18.76 0 0 0-10.94-3.22 10.41 10.41 0 0 0-2.29.29c-5.12 1.2-10.7 5.71-10.7 5.71s1.85 3 3.71 3c0 0-3.71 0-4.64-1s-4.64 1-4.64 1 .93-5 2.79-6a44.32 44.32 0 0 1 12.06-4c1.06-.19 2.08-.34 3.06-.47 2.18-.28 4.06-.42 5.34-.48 1.13-.05 1.8-.05 1.8-.05l-.93 1a60.19 60.19 0 0 0 4.94 2.78c2.5 1.58 5.27 3.69 5.27 5.22 0 3 .93 2-2.78 3zm42.67-30s1.86-4 11.13-5 27.83-2 33.4 0 6.49 5 6.49 5a32.32 32.32 0 0 0-12.06-3c-9-.41-18.91 3.14-21.33 4-4.17 1.49-6.66 2.79-10.21 2a38.82 38.82 0 0 1-7.42-3z"/><path d="M158.64 130s0-3-7.42-4-20.41-3-26.91 0-8.35 8-8.35 8 6.5-4 10.21-4 13 2 15.77 2 7.42 2 12.06 0 2.78 1 4.64-2z"/></g><path d="M164.2 233l5.69 2.2s-3.83 3.8-3.83 4.8-1.86 8-1.86 8l-12.52-11.5 2.78-1 3.71-1 6.03-1.5zm51.96 9s.92-5.84 0-7.42-3.71-2.58-3.71-2.58l6 1.5c5-.23 5.49.69 5.56 1 .15.61-.7 1.32-3.24 3.5z" fill="#d89882"/><path d="M185.54 211a10.32 10.32 0 0 1 4.64-2c1.54-.22 7.42 1 7.42 1h0s2.1 1.21 2.05 1.61c0 .21-.62.31-2.05.39a40.4 40.4 0 0 1-4.26.11A10.74 10.74 0 0 1 192 212l-6.46-1zm-24.12 0s1.86-4 7.42 0 4.64 5 7.43 5h2.78s-7.42 0-9.28-2-4.64-3-8.35-3z" fill="#bc9b8f"/><path d="M160 234.47s-.07 9.21.43 10.1 12.57 4.9 12.57 4.9l15.77 1 15.77-2 11.13-6 .93-2 .93-7-30.62-2z" fill="#eaab92"/><path d="M161 237.47a4.17 4.17 0 0 0-.47 2.5 4.1 4.1 0 0 0 1.4 2.5c.53.48.57.27 1.85 1S166.1 245 167 245a.75.75 0 0 0 .57-.19 1.17 1.17 0 0 0 .43-.81s0 2 2.78 2h3.71s0 1 .93 1h8.35a34.38 34.38 0 0 0 4.17.5 12.92 12.92 0 0 0 2.78 0c2.09-.31 3.56-1.29 3.72-1 0 .11-.1.36-.19.35s-.28-.85-.28-.85h0s-.93 1 2.78 0 4.64-2 4.64-2h1.86c1.85 0 3.71-1 4.64-1s2.78-2 2.78-2a3.19 3.19 0 0 1 1.86-1c.92 0 3.71-2 3.71-2a7 7 0 0 0 0-5h-13a3.19 3.19 0 0 0-2.78 3l-.74-1h-4.83a1.64 1.64 0 0 0-1.39.5 2 2 0 0 0-.5 1.5l-.37-1.48-8.48 1.17-.42 1.31-.68-1.44-7.68-1.56-.47 1.5-.46 1.5a4.18 4.18 0 0 0-.44-1.5 4 4 0 0 0-1.4-1.5l-4 .3-1.1 1.2a3.41 3.41 0 0 0-.93-1 3.17 3.17 0 0 0-2-.57l-1.76 1.57h-.92z" fill="#ead9d3"/><g fill="#eb8c92"><path d="M150.29 236s7.42 10 9.28 13 8.35 10 13.91 12 14.85 2 20.41 0 14.84-10 20.41-14 10.21-13 10.21-13-9.28 10-23.2 13-30.61 2-33.39 0-17.63-11-17.63-11z"/><path d="M150.75 236.47a65.08 65.08 0 0 1 19-7.5A70 70 0 0 1 192 228c8.48.79 8.73 2.18 16.23 2.5 4.07.17 8 1.73 12.06 2a4.76 4.76 0 0 1 2.78 1 4.42 4.42 0 0 1 .93 1 647.08 647.08 0 0 0-25.51.5l-26 1-21.74.47z"/></g><path d="M253.27 305c1.85-1 15.77-33 18.55-47s3.71-21 3.71-21-4.64 34-7.42 42-14.84 26-14.84 26z" fill="#ddb6a6"/><path d="M154 326.47c-.74 4.14-1.31 8.31-1.65 12.49a62.53 62.53 0 0 0-.19 6.27l.08 1.55.16 1.55.49 3.11 3.84 24.92-1-.57 18.8-8c6.25-2.7 12.51-5.33 18.55-8.43a204 204 0 0 1 18.69-8.36c1.6-.63 3.21-1.23 4.85-1.77.81-.28 1.68-.51 2.47-.77s1.56-.51 2.35-.82c3.17-1.17 6.32-2.45 9.46-3.75q9.43-3.9 18.78-8l18.67-8.24c.77-.35 1.52-.73 2.28-1.1l1.07-.57 1.07-.7 4.32-2.74c2.89-1.81 5.83-3.54 8.77-5.26l4.43-2.54 2.23-1.26.14-.07h.07a.2.2 0 0 0 0 .21l.08.1a.19.19 0 0 0 .19.05c.06 0-.06 0-.08.06l-.55.32-1.1.66-8.79 5.2 8.57-5.56 1.07-.69.54-.35.19-.11c.17-.07.41.09.34.13a.37.37 0 0 1-.1.28.28.28 0 0 1-.1.09h-.06l-.14.08-2.18 1.33-4.34 2.69-8.59 5.5-4.25 2.82-1.06.72-1.16.66-2.3 1.16c-12.28 6-24.73 11.47-37.29 16.78l-9.51 3.84c-.79.32-1.62.6-2.46.87l-2.41.77c-1.58.54-3.16 1.14-4.73 1.77-6.27 2.53-12.48 5.33-18.59 8.28s-12.43 5.69-18.69 8.35l-18.93 7.71-.89.35-.12-.92-3.3-25-.38-3.14-.12-1.59v-1.6a60.59 60.59 0 0 1 .41-6.32 112.83 112.83 0 0 1 2.1-12.44z" fill="#3d2d00"/><path d="M151.5 391s8-3 7-13c0 0 1-3-3 0s-12 11-4 13z" fill="#726157"/><path d="M149.5 391s8-3 7-13c0 0 1-3-3 0s-12 11-4 13z" fill="#5c4e45"/><g fill="#2b2925"><path d="M225 18.47A69.22 69.22 0 0 1 239.38 34c4.4 6.55 13.92 31 13.92 31L270 88l29.69 54c2.24 30.94 1.27 53.87-1.39 60.5-2.37 5.89-5.57 8-5.57 8-2.67 1.76-4.24-.94-6.28.87-3.05 2.68-3.33 9.63-3.45 11.63-.33 5.28-2.58 13.35-11.36 25.25a97.75 97.75 0 0 0-5.64 13.22c-3.82 11.27-6.92 20.42-4 30h0l8 21c7.438 20.23 27.534 32.944 49 31-4.52 0-16.44-.52-27-9-4.33-3.48-8.54-8.38-8-9s6.82 4.36 26 18c21.44 15.24 22.79 15.41 29.54 21.5 7.95 7.17 9.76 10.27 11.46 9.5 5-2.26-2.5-30.61-11.46-64.5-4.29-16.26-5.64-18.24-6.43-25.9-2.09-20.35 3.57-34 .87-47.1-7.51-36.4-3.42-76.13-14.85-125-12.7-54.35-25.39-71.5-30.13-77.5-3.54-4.47-27.88-35.34-48.24-30-3.16.82-9.71 3.43-15.76 14z"/><path d="M249.55 60a137.26 137.26 0 0 0 10.21 26c6.49 12 15.77 31 15.77 31a99.1 99.1 0 0 1 10.67 26.5 67.15 67.15 0 0 1 2.32 13.5c.74 13.91-3.85 22.74-3.25 34.5 0 .68.24 4.44.46 8.5h0c-.09-2.86-.11-9.78 2.32-15.5a60.11 60.11 0 0 1 3.72-7 58.08 58.08 0 0 1 2.31-3.5c1.6 7.1 4.71 18.09 3.72 31.5-.93 12.5 0 32.5-4.64 42.5s-8.35 28-6.5 44 22.27 47 27.83 49S334 359 334 359s.92-34-5.57-44-13-91-13.92-101 2.79-70-16.69-93c-18.57-21.91-32.92-74.5-41.46-73a6.09 6.09 0 0 0-1.22.62c-4.01 2.46-5.14 7.85-5.59 11.38z"/></g><path d="M249.55,14S291.3,12,308,93s10.2,86,12.06,104,8.35,66,8.35,66-13.32-79-15.94-97-5.27-76.75-23-112C274,23.24,275.53,27,249.55,14Z" fill="url(#B)"/><path d="M226.36 51s13.32 8 20.11 0S231 11 218 5s-30.61-10-57.52 9S103 63 97.4 104 86.27 237 86.27 237l-8.35 105 10.2-94s3.71 68-5.56 87-21.34 46-29.69 55-23.19 54-23.19 54h69.37a131.7 131.7 0 0 0 15-44.5 130.48 130.48 0 0 0 1-28 259.1 259.1 0 0 1-3.67 37.5 258.3 258.3 0 0 1-8.6 35c0 0 9.52-22 10.45-31s.93-13 .93-13 3.71 16-5.57 40l-.93 4s12.06-25 11.14-37 11-156.36.87-164.68S115 191 116 157s10.21-49 18.56-76c2.49-8.07 6.23-14.08 10.84-18.61 11.88-11.64 27.83-13.17 42-14.39a122.19 122.19 0 0 1 38.96 3z" fill="#2b2925"/><path d="M212.45 36s7.42-1.11 13.45.45 7-.45 7-.45l-8.35-7c3.71 3 5.56-5 10.2 0 0 0-5.57-10-10.2-11s-32.47-15-61.23 6-39 35-47.32 72a400.56 400.56 0 0 0-9.14 70s10.07-99 39.76-118 65.83-12 65.83-12z" fill="url(#C)"/><path d="M102.05,248s-2.78,92-8.35,102-12.06,46-11.13,50-3.71,19-3.71,19,7.42-43,16.69-48Z" fill="url(#D)"/><path d="M190.64 254.47s4.64-4 7.43-4 5.56 0 3.71 2-9.28 5-11.14 5-1.85-1 0-3z" fill="#ea9da4"/><path d="M178.58 186.47s-3.71 9-1.85 14 6.49 4 6.49-3-2.78-25-4.64-11z" fill="#f2c7b6"/><path d="M316.74 354.15s-52.93 58-71.48 71.32-24.35 16.42-24.35 16.42 22.3-11.23 25.71-13.95 66.55-58.22 70.12-73.79z" fill="#4e30b7"/><path d="M293.2 307.68c-9.21-19.17.57-55.15 1.33-63.47s1-30.49-.51-32.11a19 19 0 0 0-1.62-1.44c-2.47 1.34-4-1-5.95.68-3.05 2.71-3.33 9.66-3.45 11.66-.33 5.28-2.58 13.35-11.36 25.25a97.75 97.75 0 0 0-5.64 13.22c-3.82 11.27-6.92 20.42-4 30l8 21a47.65 47.65 0 0 0 39.92 30.95l.08.05 3.57 2.53 14.56 10.16s-25.71-29.31-34.93-48.48zm-1.2 26.79c-4.33-3.48-8.54-8.38-8-9s6.45 4.07 24.32 16.8a40.36 40.36 0 0 1-16.32-7.8z" fill="#211f1d"/></svg>