<svg xmlns="http://www.w3.org/2000/svg" viewBox="0 0 982 1061.52" xmlns:v="https://vecta.io/nano"><path d="M982 1061.52s-5-44-14-60-21-14-20-29 9-25-13-42 7-25-6-35-25-52-26-63-15-73-34-96-21-41-28-54-21-25-29-36-27-30-37-28-50-29-61-29-51-13-67-22-43-34-49-34-13-2-16 0-72 119-72 119l-110-70-66-82-17-58s-24-2-35 19-6 41-17 49-35 11-36 21-3 28-39 35-103 53-132 73-58 17-58 72 23 188 29 251 19 99 19 99z"/><path d="M562 442.52s-13 48-24 58-67 21-88 19-75-33-81-38-64-34-53-78l105 65 101-7z" fill="#e5b8aa"/><path d="M313 406.52s8-5 5 52 121 162 125 165 77 39 80 37 66-77 66-77l-27-58s-4-57-12-83c0 0-58 27-61 27s-110.16-25-110.16-25z" fill="#f3c4b2"/><path d="M567 498.52s-32 30-33 49-36 52-36 52v33s21.76 9 27.38 0 36.62-65 36.62-65l12-57z" fill="#e2a693"/><path d="M617 1029.52l-14-223c0-38-5-123-5-155 0-23.26-16-84-16-84h-20s-43 100-46 102-188.25-111-188.25-111 26.25 46 34.25 71 88 202 106 323c0 0 2 67 4 76s116.16 15.52 126 15c19-1 19-14 19-14z" fill="#5932c4"/><path d="M487 827.52s21 70 29 106 18.5 105 18.5 105H560s-16.63-188.62-10-211c8-27 25-83 20-83s-45 88-54 83-70-60-70-60 0 21 9 28 32 32 32 32z" fill="#482daa"/><g fill="#171a23"><path d="M786 646.52v157s17-94 26-108 8-34 8-34-21 16-17 31-9 33-9 33zm62 98c-11 7-31 15-45 28s0 23 0 23zm11 26c-11 3-54 26-56 39s-17 26-17 26zm40 102c-6 3-49 8-51 21s51-21 51-21zm30 116s-36-2-46 8-6 5 0 7 46-15 46-15zm-37 24c8-3 36-9 43-9h21zm-116-140c-2-1-43-1-53 12s-17 13 0 12 53-24 53-24zm-63 41s-11 32-9 54 0 75 0 75 5-78 9-92 0-37 0-37zm13 31c26-1 50-12 50-13v7l-61.22 19.11zm-488-397s-4 49 0 60 64 39 64 39l-43 45s50 89 57 112-72-105-72-112 46-44 38-45-63-24-61-39 17-60 17-60zm37 256l64 141c8 21 23 52 23 52s-57-176-87-224 0 31 0 31zm-141-138s61 64 74 92 61 174 61 174-42-224-135-266zm-112 39c11 6 70 28 102 40s45 38 45 38-129-40-139-51-8-27-8-27zm0 78c-1.12-4.09 64 47 99 47s95 18 100 25 8 18 8 18-62-29-85-30-113-27-122-60zm73-98s75 34 81 60 62 128 62 128l20.07 60.22 3.93 11.78-60-172c-4-8-53-96-107-88zm-57 260c13 6 72 29 105 34s118 9 126 18 11 11 0 12-17-9-40-12-123-7-150-18-41-34-41-34zm66 68c10 2 110 14 137 14a252.07 252.07 0 0 0 52-6s-17 23-31 22-47 10-76 0-82-30-82-30zm212-68c2 8 21 67 18 85a154.56 154.56 0 0 1-9 32h-13s-10-65-19-73-28-100-17-92 40 48 40 48zm-137 0c21 0 18 1 42 13a324.4 324.4 0 0 0 48 19s-29-32-48-39-63-3-64 0 22 7 22 7z"/><path d="M656.91 1039s34.62-1.5 49.46 3 96.46-2.25 100.17-6 53.18-9 64.31-6.73 32.15-.74 32.15-.74-22.26 14.21-37.1 13.46-56.88-8.23-73 1.49-105.12 7.52-129.85 4.52-84.05 2.2-84.05 2.2l59.36-11.21c6.18-.74 18.55.01 18.55.01zM347 1028.52s47-3 74 0 61-6 72 1 57.13 13.71 57.13 13.71-47.13.29-66.13-.71-110-7-122-4-34.25 12-34.25 12l.25-24zm375-345s20 46 33 89 10 79 10 79-3-116 0-126-43-42-43-42zm-91-90c4 0 4 12 20 27s35 26 35 26l-33-47c-5-6-22-6-22-6z"/></g><path d="M722 1045.52s42-69 57-86 30-27 36-25 12 10 12 10 21-14 28-14 25 9 18 19l-2 5s23-2 18 21c0 0-17 23-23 25 0 0 13 0 14 13s-12 24-12 24-9-5-23-3-17 3-26 6-22-3-29 2-33 8-41 8-27-5-27-5z" fill="#dbb0a5"/><path d="M814 955.52s-56 52-66 79l-2 8s39-66 68-82c0 0 13-18 0-5zm46 3c-2 1-52 46-59 58l-15 26 7.77-1.63S804 1012.52 836 984.52l28-26c2-2-4 0-4 0zm-6 48c-3 2-23 22-26 27s-6 6-3 5 10.68-2.53 10.68-2.53l23.32-32.47c2-2-5 3-5 3zm-52-62s1 3 8 6-10 1-8-6zm36 0s5 10 19 10c0 0-18 1-19-10zm26 21s1 6 13 8zm-7 47s7 6 12 5c0 0-9 1-12-5z" fill="#c9a199"/><path d="M523 767.52c1-5 38-155 39-168s7-26 12-13 24 88 24 88 8-23 4-54-7-120-20-136-27-19-27-19-1-5 3 23c4.38 30.69-10 103-23 106s-28 5-25 12-3 17-3 17-7-53-27-66-97-64-114-71-39-48-49-44-19 32-14 46 25 78 34 88 80 79 91 102 67 77 79 89 16 0 16 0z" fill="#f4f2f2"/><path d="M510 630.52s-15 57-17 74 0 39 0 39a223.3 223.3 0 0 1 57-137c10.33-21.76 19-28.21 26-28 6.63.2 11.52 6.37 13 5 2.19-2-4.92-18.78-13-19-10.39-.29-11.51 27-34 48a81.46 81.46 0 0 1-32 18zm-61-65c0 11-25 74-26 83s27 53 27 53c2.61-34.23 1.23-59.6-1-78 0 0-3.18-26.22 7-47 2.06-4.2 5-8.58 9-9 6-.62 11 7.78 12 7 .8-.62-1.22-6.69-6-10-8.44-5.84-20.67.31-22 1z" fill="#bababa"/><g fill="#f3c4b2"><path d="M269 127.52l-18 90c0 3 18 54 18 54l11 18 29 104 89 65 122-8 58-67 13-38s-1-42-11-78-10-84-15-106-34-68-34-68l-48-37-164-3-42 47z"/><path d="M253 277.52s-11-5-26 0-14 33-10 46 15 43 36 51 27 15 51 0l-13-55-14-57zm321-42s10-6 16 6 17 69 10 76-20-31-20-31l-10-37z"/></g><path d="M424 380.52c.55-1.61 7.37.45 19 1 3.63.17 11.5.37 33-3 17.68-2.77 31.1-5.85 58-12h0s.62-.62.82-.48-.55 1.94-.82 2.48c-6.24 12.73-27 19-27 19a86.14 86.14 0 0 1-16 3c-8.53 1.05-11 .5-32 1-9.85.23-10.45.38-13 0-12.29-1.84-22.72-8.9-22-11z" fill="#bf6d73"/><path d="M241 291.52s-6-10-11 0-9 27 0 39 11 8 11 8c-1.56-1.76-10.48-12.12-9-27a35.28 35.28 0 0 1 9-20zm17 12s-12 2-10 9 10 10 10 10-4.87-10.55-1.45-13.37a3 3 0 0 1 1.45-.63c6.09-.61 14.54 26.79 14 27-10.83 4.27-9.26-21.37-14-32zm18 39c-2.23-1.19-7 9.08-14 9-6.11-.07-9.62-7.92-11-7s1.45 7.45 6 12c5 5 7-4 14-3a4 4 0 0 1 2 .81c3.22 2.62-.5 9.3 2 11.33 1.85 1.49 6.46 0 7-2.14s-3-3-5-7c-3.25-6.33.86-13-1-14zm306-96s0-11 4 0 3 28 3 28z" fill="#d6ac9f"/><path d="M558 393.52a83.43 83.43 0 0 1-2-27c1.24-13.19 5.25-20.09 1-26-2.81-3.9-7.6-5.12-15-7-10.42-2.65-12.33.19-19-3s-6.68-6.79-13-8c-1.17-.22-6.53-1.25-11 1.54-1.77 1.1-1.84 1.83-4 3.46a26.12 26.12 0 0 1-9 4c-8.32 1.9-11.5-4.53-19-4-8.72.62-9.15 9.65-24 18-2.78 1.56-6.85 3-15 6-20.31 7.38-24.25 6.57-28 11-4.61 5.44-3.7 12.59-2 26 0 0 1.69 13.35 13 45h0l6-8s-4-31-4-36 0-9 9-15 22-22 115-21a32 32 0 0 1 8 9c12 20.44-3.15 50.9 0 52 1.38.48 4.76-5.17 5-5s-1.56 2.81-3 5l7-16zm-40 19c-2.12 2.05-5.74 4.34-22 5-10.18.41-13.78-.28-23 1a108.1 108.1 0 0 0-6 1 7.92 7.92 0 0 0 0 5 7.8 7.8 0 0 0 2 3c1.46 1.43 3.54 2.62 11 4 4.72.87 4.27.47 6 1 2.22.68 7.2 2.21 9 6 2.49 5.24-1.81 13.26-2 14h0l16-6a10.87 10.87 0 0 0-2.28-3.88c-2.48-2.67-5-2.4-5.72-4.12-.51-1.14-.2-3 4-8 5.27-6.3 7.41-6.54 11-11 4.49-5.58 4.43-9.35 2-7z" fill="#332928"/><path d="M530 367.52a6.1 6.1 0 0 1 0 2c-.64 3.91-5.08 6.37-8 8-2 1.11-2 .8-4 2-2.88 1.69-3.58 2.67-6 4a25.71 25.71 0 0 1-5 2c-3.85 1.24-4.91 1.05-9 2a179.58 179.58 0 0 1-19 3c-6.16-.24-9.59 1.34-19 0-1.83-.26-1.69-.32-6-1a32.78 32.78 0 0 1-5-1 28.17 28.17 0 0 1-3.76-1.47c-2.5-1.21-2.32-1.6-4.24-2.53-3.48-1.7-5.43-1.08-7-3a5.38 5.38 0 0 1-1-2 12.6 12.6 0 0 0 3 1 13.56 13.56 0 0 0 5 0c3-.48 6-.49 9-1 5.42-.93 7.71-.52 16-1 6.63-.38 11.28-1 19-2a403 403 0 0 0 45-9z" fill="#fcd3cd"/><g fill="#d6ac9f"><path d="M591 286.52s7 12 7 16v6zm-93 36s4-8 11-9 16 3 13 5-24 4-24 4zm-30 0c2.43-1.76-15-3-22 5a27.56 27.56 0 0 0 22-5z"/><path d="M511 294.52c11.06 4.77 13.79 8.93 14 12 .16 2.3-1 5.91 1 10 .42.87 1.41 2.67 1 3s-1.13-.58-3-1c-.93-.21-2.55 2.87-2 3 .18 0 .48-.12 1-1a19.28 19.28 0 0 0 2.14-12.91 14 14 0 0 0-3.14-7.09c-2.51-2.79-4.62-2.33-8-6-1.5-1.63-2.47-3.23-3-3s-.25 1.74 0 3zm-73 30s-10-10 0-18 16-8 16-8h0l-10 1a6.61 6.61 0 0 0 0-3c-.11-.48-.47-2-1-2-.7 0-1.07 2.54-2 5-2.07 5.46-4.87 5-7 10-1.53 3.63-.16 4.08-2 9-1.42 3.8-3.42 6.7-3 7s2.24-2.91 5-3a5.65 5.65 0 0 1 4 2z"/></g><path d="M494 196.52c-4.57 4.26-5.84 9.53-4 12 2.37 3.18 9.48 1.15 10 1 3.64-1.08 4.76-2.85 8-5 2.93-1.94 7.28-3 16-5a163 163 0 0 1 17-3c8.32-1 10.28-.64 12 0 3.73 1.39 6.24 4.06 9 7 3.61 3.84 5.49 7.27 6 7 .22-.12.18-.92-1-4a29.07 29.07 0 0 0-5-15 27.07 27.07 0 0 0-7.64-7.44 24.65 24.65 0 0 0-9.36-3.56c-4-.6-7.08.08-11 1-11.7 2.74-17.55 4.11-20 5a98.14 98.14 0 0 0-20 10zm-70 18a184.2 184.2 0 0 0-21-1c-6.91.07-7.49.47-34 3-10.53 1-11.6 1-14 2s-13.58 5.71-19 16c-.85 1.62-1.82 3.87-2.57 3.71-1-.22-1.15-4.89-.43-8.71.3-1.56 1.21-5.47 6-12 3.52-4.79 6.84-9.32 13-13a40 40 0 0 1 15-5c7.45-1.24 8.3.14 20 0 10.19-.12 16-1.24 26 0a24.13 24.13 0 0 1 9 3c2.19 1.26 7.22 4.14 6.76 7.51-.35 2.63-3.85 4.13-4.76 4.49z" fill="#332928"/><path d="M513 226.52a12.16 12.16 0 0 0 3 12c4.57 4.35 12.23 3.76 16 0 2.32-2.32 2.69-5.36 3-8 .41-3.44-.06-7.94-2-9l-2-1h-11l-6 4zm-119 10c3.61 2.8 5.67 7 5 11-1.06 6.29-8.54 9.53-14 9a11.62 11.62 0 0 1-5.39-1.93c-6.05-4.07-5.61-12.38-5.61-13.07l5-2 6-2c.41-.36 3.54-3 7-2a6.06 6.06 0 0 1 2 1z" fill="#140c0c"/><path d="M518 240.52c-.25 0-5.26 0-8-2a9.48 9.48 0 0 1-2-2 7.5 7.5 0 0 1-1-2 32.66 32.66 0 0 1 5-6c2.37-2.24 7.55-7.12 15-8 8.67-1 15.9 3.89 19 6 .61.42.64.47 8 6h0a20.88 20.88 0 0 0-4.87 3c-.41.33-.78.67-1.13 1-2 1.1-2.31 1.48-2.25 1.63.15.36 2.85-.46 7.25-1.63 3.42-.91 6.21-1.58 8-2-8.55-11.56-21.65-17.93-34-16-1.83.29-15.83 2.68-22 14a23 23 0 0 0-2 5 3.92 3.92 0 0 0 1 2c1.32 1.34 3.36 1.12 6 1 1.94-.09 4.65-.15 8 0zm-107 5a17.69 17.69 0 0 0-5-6c-9.24-7-22.13-1.39-23-1a32.08 32.08 0 0 0-22 16 15.08 15.08 0 0 0 5 2c3.56.72 6.7 0 6.73.18a7.27 7.27 0 0 1-2.73.82 30 30 0 0 1-10 0 45.13 45.13 0 0 1-5-1c8.42-14.57 23.2-23.21 38-22 11.16.91 18.89 7.15 22 10 .59.74 1.41 2 1 3s-2.26 1.35-3.25 1.5a30 30 0 0 0-9.75 3.5 9.88 9.88 0 0 0 5.13-2.37 9.73 9.73 0 0 0 2.87-4.63z" fill="#332928"/><path d="M550 459.52a405.63 405.63 0 0 1-22 41c-6.33 10.34-9.56 15.56-13 18-16.74 11.87-44.7-.87-79-17-32.37-15.22-67.36-36.75-77-43-3.88-2.52-14.68-4.9-24-14-1-.95-2-2-12-15-8.41-10.9-12.65-16.41-14-19-7.05-13.49-6.24-23.62-6-26 .54-5.33.83-8.48 2.78-9.47 9.6-4.86 40.71 40.63 43.22 41.47 9.16 3.05 64.91 67.17 136 64 13.49-.6 37-3.91 65-21z" fill="#e2a693"/><g fill="#332928"><path d="M291 294.52a232.68 232.68 0 0 0 15 41c14.19 29.8 38.85 65.18 53 61 4.56-1.35 5.12-5.95 10-6 7.05-.07 9 9.51 22 17l9 5h0a10.26 10.26 0 0 1 4-1c9.93-.35 13.64 15.35 29 29 6.8 6 14.59 13 25 13 6.79 0 7.41-2.91 26-9 10.35-3.39 15.52-5.08 21-5 10.31.16 13.16 4.27 20 2 6.22-2.07 9.91-7.47 13-12 3.25-4.76 4.88-9.21 7-15 2.77-7.56 3-11.09 6-15a48.14 48.14 0 0 0 4-6q1.1-1.95 2-4a140 140 0 0 1 13-23c4.57-6.52 6.86-9.78 9-12 4.46-4.62 8.81-7.63 11.06-14.24a11.61 11.61 0 0 0 .94-3.76c0-9-2-23-2-23l2-16s5 18 3 50-1 39-16 70-35 65-51 71-43 17-72 10-70-33-98-53-44-23-53-45-22-93-22-114z"/><path d="M569 196.52c-5.09-18.13-10.09-33.05-14-44-7.62-21.34-11-27.33-14.9-32.52A78.5 78.5 0 0 0 511 96.52a42.69 42.69 0 0 0-12.62-2.75c-2.9-.2-9.46.12-25.38 7.75-13.85 6.64-13 8.44-18 9-9 1-13.37-4.58-26-10-9.78-4.2-17.29-5.19-31-7-11.14-1.47-25.24-3.33-43 0-9.41 1.76-20.43 4-32 12-4.65 3.23-12.36 8.72-18 19a53.4 53.4 0 0 0-6 31 58 58 0 0 0 9 26l3 35s-23-6-26 13 8 75 8 75l-9 4s-7-22-17-24-16 2-19-4-10-23-15-36-9-54-5-73 12-47 21-60c0 0 40-76 60-83s40-20 58-20 58-11 83-8 21 0 23 3-26 5-26 5 48 2 55 4 8 6 8 6h-28s33 13 40 21 0 5 0 5l-23-6a202.85 202.85 0 0 1 43 47c6 9.16 18.79 28.84 26 57 10.68 41.73 5 85.69 5 87z"/></g><g fill="#180e0c"><path d="M336 78.52c1.3-3.8 3.3-9.37 6-16 8.34-20.48 12.69-30.84 21-37 .47-.34 6.65-3.57 19-10h0s-25 15-23 21a25.24 25.24 0 0 1 15-5s-16 11-9 16c0 0 7-9 17-13-16.08 9.52-23.35 20-27 28-3.91 8.62-3.74 14.7-10 22-5.65 6.59-12.56 9.54-23 13a312.17 312.17 0 0 1-50 12 163.64 163.64 0 0 0 50-21 160.26 160.26 0 0 0 14-10zm43-11s15-41 35-46 26-4 43-6 16 0 16 0-55 5-60 14c-10.07 18.13-27.55 27.74-34 38a167 167 0 0 0-13 25c.08 0 2.5-4.52 13-25zm25 0s20-31 30-35 40-12 46-10 23.65 5.54 23.65 5.54S464 24.52 457 34.52c0 0 30 2 47 13s18.59 16.12 18.59 16.12-24.65-21.55-43.4-19.64a21.53 21.53 0 0 0-3.19.57h0s11 2 22 14 19 19 25 21c.8.27 1.18.46 1.15.54-.15.46-17.76-18.31-41.15-25.54-3.39-1-35.81-10.57-62 6-19.05 12-26.67 32.77-28 32-.6-.4.73-4.75 11-25.05zm-137 36s13-29 36-48l23-19s-48 20-59 67zm17 14c-12.38-6-24.22-11.35-25-10-.5.86 3.47 4.61 8 7 13.73 7.24 31 1.18 31 1s-2.11.18-14 2z"/><path d="M443 92.52c6.07-6.37 9.82-11 9-12-1.84-2.24-24.93 15.36-26 14-.93-1.19 12.26-20.33 34-27 12-3.67 63 6 63 6h0c-33.92-10-48.25-5.39-55 1-1.37 1.29-7.91 8.19-21 22-4.43 4.67-8.14 8.6-9 8s2-6.61 5-12z"/></g></svg>