<svg xmlns="http://www.w3.org/2000/svg" xmlns:xlink="http://www.w3.org/1999/xlink" width="1211" height="1258" fill="none" xmlns:v="https://vecta.io/nano"><g clip-path="url(#B)"><path d="M696.54 358.84c.33 16.54.28 41.56-2 72-3.31 44.28-7.4 47.42-6 69 1.93 29.78 11.8 51.3 31.54 94.34 11.143 24.242 23.649 47.833 37.46 70.66L639.82 775.4l-201.94 77.67-67.34-51.78 33.66-20.71-7.69-78.74c-2.61-24.34-5.56-49.64-18-54-11.52-4-15.51-6.77-23.5-12.24-.64-.44-1-.69-1.1-1.13-2.37-10.15 135.75-50.63 135.75-50.63L567.33 400l18.13-64.72V182.53h64.72l23.3 46.6 18.12 80.26 4.94 49.45h0z" fill="#e7ae9d"/><path d="M990.54 778.84s-18 1-28-7-46-49-68-61-59-28-73-38-34-21-45-30-30-16-31-11 9 3 7 11-2 21-78 64-145 74-193 75-63 3-80-18c0 0-3-4-5-21s-3-21-3-21 1 0-20 11-82 25-90 32-17 30-36 39-54 21-76 53-59 86-66 133-5 77-10 116-4 76-29 123-20 83-25 116-3 49-8 80-19 27-16 57 2 37 0 51 7 11 0 34 2 10 0 38 3 45-3 69-19 19-13 47 10 58 10 58h1162s19-31 8-73-12-68-11-83 1-68 6-101 27-66 29-139 12-181 0-228-1-58-30-111l-100-177c-23-38-80-71-85-88h0z" fill="#5932c4"/><path d="M733.3 624.38s9.36 11.15 9.36 23.15c0 12.65-5.12 18.31-35.12 32.31s-116 73-180 85-97.11 25.52-124.11-5.48c0 0-4.13-26.45-5.13-40.45 0 0-6.76 2.93-15.76 10.93s-24 30-21 55 25 60 52 69 70 19 112 5 167-90 188-106l90-68c9-8 13-17 11-20s1 0-12-6-34-27-43-29c-6.26-1.26-19.86-5.39-26.24-5.46h0z" fill="#02e2ac"/><g fill="#42299b"><path d="M832.54 1607.84c5.49-2.29 11-8.56 19.36-13.92 9.91-6.35 23.87-11.42 46.64-7.08 42 8 162 32 176 58s64 78 64 78-32-40-79-59-65-23-114-41-113-15-113-15zm0 52c6-4-8-14 27-16s151 57 175 66 46 33 56 34-53-15-67-21-107-46-135-53c-18.448-4.46-37.149-7.8-56-10h0zm13 74c-4.24-1.41 0-16 37-5s90 50 90 50h-30c-10 0-55-31-97-45zm154-420c-3 8-43 125-82 152s-48 71-62 74-53 53-11 23 100-92 118-120 46-77 59-108 44-85 37-76-59 55-59 55z"/><path d="M813.54 1778.84s-24-6-5-27 52-22 51-42-40-39-34-56 30-27 19-30-26-10-26-20 15-28 7-46-22-38-15-48 11-41 6-61-13-61-7-80 82-130 82-130l17-20s-47 28-60 54-29 38-37 67-14 69-23 81-61 16-67 18 14 11 38 16 49 11 42 27-65 22-65 22l-2 18s40-25 48-12 42 37 20 58-69 50-69 50 57-3 64 6 26 32 9 41-36 7-36 7 22 18 20 33-16 36-34 39-36 35-36 35h93zm101-707c-4 5-63 79-72 100s-37 117-37 117 39-67 49-80 116-80 116-80-46 9-73 26-49 41-49 41l66-124z"/><path d="M872.54 1040.84c.28-5.82-37 50-47 70s-20 73-20 73 34-78 45-96 21-26 22-47zm-381-98c-11 17-104 92-131 129s-49 75-52 109 22 58 22 58 22-16 58-87 43-110 61-136 42-73 42-73zm-245-48c-12 24-41 108-55 146s-45 109-37 107 78-144 82-155 10-98 10-98zm-66-16c-1 3-38 68-49 102s-18 85-15 101 6 37 6 37l17-61s-4-31 2-59 39-120 39-120zm-55 280s-3 97 0 122 14 92 9 113 7 78 8 94 12 44 11 55-25 72-20 94 4 41 5 45-15 64-14 70 0 27 0 27h-8s-10 25 0-7 13-86 12-97-6-38-6-38 6-27 3-31 2-19 3-21 4-24 4-24v-21s1-20 0-29-14-29-17-47 6-21 6-21 7-43 1-61-11-75-16-103-10-99-10-99l19 51-4-30 14-42zm-98 556c14-5 51-8 69-13s23-17 23-17-34 15-51 15-41 15-41 15z"/><path d="M27.54 1632.84c14 3 46 16 62 11s36-5 36-5c-12.861-2.82-25.887-4.82-39-6-22-2-59 0-59 0h0zm8-75s43-3 61 0l29 5s-57 11-61 10-29-15-29-15h0zm0-31c2-2 26-15 52-6s52 17 52 17-37-1-43 0-32-6-43-5c-3.251.28-6.525-.11-9.621-1.14s-5.947-2.68-8.379-4.86h0zm25-155c11 7 34 47 43 58s22 44 22 44-22-8-29-19-37-24-36-40-10-43-10-43h10zm605-493s-80 82-92 120-43 149-43 149 58-38 67-49 30-95 45-108 29-70 29-70l-6-42zm-228 694c21 5 97 31 122 35s80 31 80 31-126-33-138-33-64-33-64-33zm-93 121c-3.78-5.54 49 52 103 50s-21 70-103-50zm-71-129c-16 0-44-14-61 20s-29 74-32 81 7 29 11 34 10-55 35-68 47-67 47-67z"/></g><path d="M251.48 110c0 2.58-38.84 59.54-38.84 59.54v12.95s-7.76 36.24-7.76 59.54-12.95 64.77-12.95 75.08 2.59 23.31 18.12 44 2.59 80.26 10.36 95.79S267 534.61 267 534.61l38.84 62.13L318.79 620h46.6l132-54.36 77.67-111.33 10.36-119.09V187.71L564.74 110 422.35 76.38s-103.56 5.18-106.15 7.77S251.48 110 251.48 110z" fill="#e7ae9d"/><g fill="#ce9a8e"><path d="M464.54 472.84c4.39-17.34 1.19-29.2-1-35-3.44-9.13-8-12.85-67.08-45.61-3.39-1.87-12.43-6.77-16.92-3.39-2.53 1.9-1.45 4.8-4 10-4.15 8.47-12.68 12.38-13 12s5.31-3.32 8-10c3.08-7.65.36-15.07 0-16-4.07-10.59-14.79-13.67-16-14a64.99 64.99 0 0 1 22 6 63.66 63.66 0 0 1 10 6c16 11.45 25 13.13 52 30 14.58 9.1 21.94 13.76 25 18.82 8.46 14.27 4.21 31.69 1 41.18zm-156.11-46.95c5.506-5.246 12.003-9.343 19.11-12.05 4.483-1.719 9.206-2.731 14-3 4.75-.25 9.95.23 10 1s-5.55 1-14 4c-3.833 1.219-7.521 2.852-11 4.87-5.22 3.14-6.89 5.54-11 6.13a14 14 0 0 1-7.11-.95h0zm-35.89 10.95c-4.97 9.3-8.03 19.5-9 30-1.68 19.53 1 28.43 8.65 39.31l9.35 13.69c-3.45-4.85-13.56-20.09-14-38-.2-8.26-.36-14.83 4-20 2.6-3.08 6.64-5.46 6-8-.49-1.93-3.16-1.84-5-4-1.67-2-2.54-5.64 0-13h0z"/><path d="M263.54 396.84c-3.85 13.77-2.43 20.28-1 24a20.1 20.1 0 0 0 4.27 7 20.81 20.81 0 0 0 11.73 6h9c-3.244.093-6.484-.284-9.62-1.12-6.49-1.84-9-8.07-10.38-10.88-.68-1.36-3.35-7-3-16 .2-5 11.47-39 10-30l15-53c-8.56 32.35-15.28 48.86-20 58-2.49 5.136-4.499 10.493-6 16h0zm102-102s10-16 37-12 36 3 36 3-21 3-36 0-37 9-37 9zm6 34c7.768 1.141 15.645 1.339 23.46.59 7.666-.649 15.23-2.19 22.54-4.59 24-8 19-7 19-7s-37 17-46 15l-19-4zm78-32s17-1 27-6l-27 6zm123 20.31s-54.37 88-67.31 101-10.39 59.52-18.16 77.69-8.7-40.59-15.53-49.19c-4.78-6-4.37-11.71-12-18.76-1.9-1.76-.94 16.17-3.53 36.89s-5.18 67.31-23.3 88-31.07 28.45-46.61 31.06c0 0-18.12-10.36-41.42 5.18s-33.66 5.18-38.83-5.18c-7.5-15-19-27.6-28.48-41.42-9.83-14.37-20.95-28.17-21.83-27.58-.69.47 5.08 9.74 11 20 18.38 31.83 17.77 37.63 28.95 56.75 12.62 21.57 26.18 44.62 51.78 57 15.81 7.63 15.73 1.13 42.27 10.3 32.72 11.31 41.25 24.09 58.7 20.77 10-1.91 10.87-6.83 28.3-19.77 24.65-18.29 33-15.88 62-33 20.74-12.25 38.08-22.49 52-41 4.88-6.48 17.2-24.44 23-66 6-43.33-.9-70.1-9-128-3.41-24.36-7.92-60.65-11.32-105.75l-20.68 31.01z"/><path d="M291.54 566.84s-19-53-19-57-2 13-2 21S255.06 515 255.06 515l23.48 38.09 13 13.75z"/></g><use xlink:href="#C" fill="#84776d"/><use xlink:href="#C" fill="url(#A)"/><path d="M226.54 76.84c-31-10-3 13-3 13-24-6-29 0-29 0 27 3 38 34 38 34l-6-47z" fill="#72665e"/><path d="M637.24 249.84s15.53-20.71 28.47-20.71 33.66 5.18 44 36.24 12.94 59.55-2.59 82.85-15.54 20.71-25.89 25.89-28.48 23.3-41.43 20.71-20.71-31.06-20.71-31.06l-2.55-82.85 20.7-31.07z" fill="#e7ae9d"/><path d="M658 257.61c1.812-3.948 4.737-7.281 8.415-9.59s7.952-3.494 12.295-3.41c15.53 0 20.71 2.59 25.89 36.25s0 41.42 0 46.6-2.59 20.71-13 25.89-15.6 5.23-15.6 5.23 5.18-12.95 10.36-15.54 20.76-20.71 13-36.2-12.94-23.3-18.12-33.66S658 257.61 658 257.61zm-13 23.3s-5.18 28.48 0 33.66 13 10.35 18.13 7.76 10.35 0 7.76-7.76-7.76-28.48-12.94-28.48-12.95-5.18-12.95-5.18h0zm-5.18 46.6S634.65 343 642.41 343s10.36-2.58 20.72-5.17c5.926-1.531 12.003-2.399 18.12-2.59 0 0-13 5.18-23.3 0s-15.54-15.54-15.54-15.54l-2.59 7.81zm36.25 51.78S658 392.23 645 389.65s-18.12 20.71-15.53 28.47 2.59-15.53 10.35-20.71 25.89 2.59 36.25-18.12h0z" fill="#ce9a8e"/><path d="M249.54 338.84c-.629 1.111-.948 2.371-.925 3.648a7.15 7.15 0 0 0 1.055 3.612 7 7 0 0 0 3.87 2.74 35.5 35.5 0 0 0 16-4c-1.23-5.44-2.77-9.35-3.86-10.06-.31-.19-.62-.35-.62-.35-.862-.409-1.807-.611-2.76-.59 0 0-12.76 1.39-12.76 5h0z" fill="#2b1718"/><path d="M237.54 363.84c-3.367 3.056-7.055 5.738-11 8l-3 2s1 3 3 1 9-4 11-7a78.07 78.07 0 0 0 4-7l-4 3z" fill="#d8a198"/><path d="M383.54 310.84s-9-5-3-14l18.7.28s4.3 5.72 2.3 7.72-14 4-18 6z" fill="#2b1718"/><path d="M369.54 296.84c8.196-1.853 16.614-2.527 25-2l31 2s-24 9-31 11c0 0 17-5 17-7s-19-7-35-2l-3 5s2-6-4-7zm-95 35s-22-4-28 6-7 14-7 14l7-4s0-9 8-12 20-4 20-4z" fill="#926254"/><path d="M287.54 325.84s-21-6-28-3-13 7-15 13-3 6-3 6 8-17 23-16 21 4 21 4l2-4z" fill="#ce9a8e"/><path d="M326.54 252.43c-2.59 5.18-15.54 15.53-13 20.71s13 12.95 20.71 12.95 10.36-15.54 46.61-20.72 44-10.35 85.43 0c0 0 10.36 5.18 10.36 0S453.4 239.48 443 236.9s-23.3-5.18-38.83-2.59-77.63 18.12-77.63 18.12zm-67.3 54.41s0-20.71-10.35-20.71-46.6 15.53-51.78 23.3 0 23.3 0 28.48 7.77 12.94 12.94 18.12c0 0-7.76-15.53-5.17-20.71s7.76-12.95 20.71-18.13 33.65-10.35 33.65-10.35h0z" fill="#926254"/><path d="M410.54 459.84a16.21 16.21 0 0 0 9 1c6.86-1.34 8.26-7.06 16-10 4.55-1.73 11.38-2.52 13 0 2.29 3.56-7.38 13.89-13.25 19.06-4.689 4.133-9.913 7.618-15.53 10.36-.826.695-1.691 1.343-2.59 1.94-4.398 2.775-9.436 4.373-14.63 4.64-10 .84-10.72 5.26-36 13a242.21 242.21 0 0 1-19 5c-6.55 1.44-3.34.44-17 3-6.68 1.25-8.76 1.74-12 1-4.42-1-7.81-3.56-10.11-5.28-3.2-2.41-3.83-3.73-5.5-5.12a15.79 15.79 0 0 0-2.39-1.6c-3-1.83-6.67-5.63-6-7 .55-1.13 3.69.12 9 0 4.35-.1 5.76-1.07 10.07-1.81 4.61-.733 9.302-.797 13.93-.19 2.86.21 13 .77 53.39-15.35 7.67-3.06 17.79-7.27 29.61-12.65h0z" fill="#b2857d"/><path d="M318.79 542.4c15.53 5.17 64.73-2.59 82.85-18.13 0 0-23.3 25.89-49.19 28.48s-33.66-10.35-33.66-10.35h0z" fill="#ce9a8e"/><path d="M437.88 454.37c2.46.82-2.59 23.3-12.94 18.12 0 0-7.77 13-18.12 5.18-.784 2.374-2.295 4.441-4.32 5.908a11.9 11.9 0 0 1-6.96 2.262c-5.9-.15-9.17-5.16-9.44-5.58 0 0-10.35 18.12-23.3 10.36 0 0 2.59 2.58-2.59 5.17s-12.94 2.59-15.53 2.59c0 0-7.77 7.77-20.71 5.18 0 0 0 5.18-5.18 5.18s-5.18-5.18-7.77-7.77-2.59-12.97-2.59-12.97 7.77-2.59 10.36-2.59 15.53 0 18.12-2.59 20.72-10.36 23.3-10.36 10.36-7.76 15.54-7.76c9.11 0 13.69-4.78 15.53-5.18 4.53-1 6.29-.92 12.26-1.71 6.324-.841 12.602-2 18.81-3.47 0 0 7.77-2.56 15.53.03h0z" fill="#ead0c5"/><path d="M274.54 108.3c-2.61.86 2.25-39.32 29.31-47.49l27.06-8.17S316.62 56 313.3 60.55s-3.83 5.88-3.83 5.88a24.4 24.4 0 0 1 13-6.64l8.42-1.53s-12.76 2.8-15.06 8.68a79.03 79.03 0 0 1-4.34 9.44S359 59 394.74 60s36.77 3.83 36.77 3.83-26.55-5.36-35-.76c0 0 18.9-2.81 32.17 4.34s20.94 22.72 20.94 22.72-10.5-11.23-18.9-12.51l9.71 7.91S397.91 67.7 274.54 108.3zM609 100.47s-36.42-28.26-104.17-30.3c0 0-26.89-10.89-26.55-17.53s2.72-2.55 2.72-2.55 17.36 5.44 18.39 5.44-6.39-9.19-6.39-9.19l14.64 8.51-4.09-8.51 15 8.51-4.09-8.51s5.45 2.72 13.28 6.3 51.69-9.7 81.26 47.83h0z" fill="#72665e"/></g><defs><linearGradient id="A" x1="448.04" y1="475.84" x2="448.04" y2="0" gradientUnits="userSpaceOnUse"><stop offset=".62" stop-color="#978767"/><stop offset=".72" stop-color="#8a7c71"/><stop offset="1" stop-color="#84776d"/></linearGradient><clipPath id="B"><path fill="#fff" d="M0 0h1211v1258H0z"/></clipPath><path id="C" d="M598.4 317.15s-.72-30.56 17.41-53.87 16.25-31.56 44.73-21.21 18.12 111.33 18.12 111.33c-5.5 6.05-14 17.48-16.12 33.44-2.54 19.6 6 36.14 9 42 4.31 8.37 6.94 9.81 11 19 3.892 8.873 6.259 18.339 7 28l7-72c6.63-75 5.71-87.94 2.83-102.22l-15.53-57s-13-67.27-25.89-95.78-33.66-90.61-62.14-116.5S461.18-3.88 440.47 1.3s-75.08 28.48-113.93 31.07-90.6 31.06-98.36 28.47-20.72-2.59-20.72-2.59l20.72 18.12-20.72-5.18 12.95 13s-10.36 0-25.89-5.18v18.12L223 128.2l2.59 7.77s-18.13-5.18-23.3 5.17 7.76 49.19 7.76 57c0 0 20.72-46.6 33.66-54.37s31.07-2.59 38.83-5.18 95.8-31.06 124.28-31.06 80.25 10.31 77.72 31-7.77 28.47-7.77 28.47 85.43 57 90.61 113.92l5.18 46.6 25.84-10.37z"/></defs></svg>