<svg width="900" height="900" viewBox="0 0 900 900" fill="none" xmlns="http://www.w3.org/2000/svg">
<g clip-path="url(#clip0_3_53)">
<rect width="900" height="900" fill="white"/>
<path d="M248.5 713.663C245.396 713.719 242.335 714.399 239.5 715.663C235.5 717.663 225.5 728.663 222.5 729.663C219.5 730.663 217.5 730.663 210.5 732.663C203.5 734.663 190.5 744.663 181.5 751.663C172.5 758.663 39 805.163 16 825.163C-7 845.163 -24 900.163 -24 900.163H923C923 900.163 912.5 844.663 886.5 829.663C860.5 814.663 812.5 802.663 792.5 792.663C772.5 782.663 712.5 765.663 666.5 734.663C666.5 734.663 642.5 719.663 634.5 705.663C626.5 691.663 273.5 678.663 273.5 678.663L253.39 714.593L248.5 713.663Z" fill="#11BC92"/>
<path d="M268.5 684.663C268.5 684.663 260.5 711.663 250.5 716.663C240.5 721.663 227.5 729.663 230.5 741.663C233.5 753.663 246.5 804.663 289.5 837.663C332.5 870.663 345 873.163 379 881.163C413 889.163 437 900.163 505 882.163C505 882.163 554.5 872.663 602.5 797.663C602.5 797.663 612.23 791.263 621.36 741.963L268.5 684.663Z" fill="#F9CBC0"/>
<path d="M262.5 330.663L268.5 505.663L441.5 678.663L565.5 674.663L673.5 467.663L686.5 323.663L671.5 203.663L549.5 118.663L359.5 131.663L275.5 233.663L262.5 330.663V330.663Z" fill="#FCD2C5"/>
<path d="M236 341.163C236 341.163 252 378.163 253 385.163C254 392.163 255 415.163 255 415.163L273 395.163C273 395.163 268 336.163 275 314.163C282 292.163 281 295.163 279 273.163C277 251.163 319 171.163 361 167.163C403 163.163 409 178.163 438 169.163C467 160.163 481 149.163 503 155.163L504 153.163L512 155.163L509 151.163L521 158.163L518 151.163L528 160.163L525 154.163L533 161.163V151.163C533 151.163 556 149.163 564 147.163C568.929 145.975 574.071 145.975 579 147.163C579 147.163 584 161.163 597 164.163C597 164.163 609 181.163 617 184.163C625 187.163 620 189.163 631 200.163C642 211.163 648 212.163 648 212.163C648 212.163 671 245.163 672 278.163C673 311.163 673 325.163 675 334.163C677 343.163 672 388.163 675 400.163C678 412.163 681 426.163 681 426.163L687 405.163C687 405.163 692 385.163 692 379.163C692 373.163 694 371.163 694 371.163C694 371.163 698 381.163 698 386.163V394.163C699.857 384.942 700.862 375.569 701 366.163C701 352.163 699 345.163 699 345.163C699 345.163 702 349.163 703 350.163C704 351.163 706 329.163 703 324.163C700 319.163 700 233.163 668 179.163C668 179.163 665 173.163 653 168.163C641 163.163 655 162.163 655 162.163C654.179 159.584 652.752 157.239 650.838 155.325C648.924 153.411 646.579 151.984 644 151.163C635 148.163 597 119.163 599 107.163C601 95.1633 585 86.1633 573 85.1633C561 84.1633 552 78.1633 550 74.1633L542 75.1633L548 72.1633C548 72.1633 545 67.1633 536 72.1633C536 72.1633 519 75.1633 496 63.1633C496 63.1633 489 61.1633 451 71.1633C413 81.1633 404 83.1633 389 82.1633C374 81.1633 351 85.1633 321 123.163C291 161.163 292 145.163 270 204.163C248 263.163 241 303.163 236 341.163ZM519.5 346.663C521.5 344.663 529.5 327.663 553.5 327.663C577.5 327.663 610.5 337.663 615.5 340.663C620.5 343.663 636.5 354.663 636.5 354.663C636.5 354.663 574.5 336.663 548.5 343.663C522.5 350.663 519.5 346.663 519.5 346.663ZM439.5 342.663C437.85 343.793 399.5 325.663 372.5 333.663C357.079 338.311 341.382 341.985 325.5 344.663C325.5 344.663 349.5 328.663 368.5 323.663C387.5 318.663 411.5 313.663 422.5 319.663C431.83 324.753 455.5 331.663 439.5 342.663Z" fill="#0C0631"/>
<path d="M560.5 467.663C560.5 467.663 596.5 497.663 597.5 518.663C597.5 518.663 605.5 488.663 560.5 467.663ZM391.5 464.663C391.5 464.663 348.5 484.663 351.5 526.663C351.5 526.663 342.5 477.663 391.5 464.663Z" fill="#F4CCC1"/>
<path d="M447.5 472.663C447.5 472.663 444.5 467.663 451.5 469.663C458.5 471.663 471.5 478.663 472.5 484.663C473.5 490.663 447.5 472.663 447.5 472.663ZM502.5 483.663C502.5 483.663 515.5 472.663 518.5 472.663C518.896 472.655 519.29 472.727 519.658 472.875C520.025 473.023 520.359 473.244 520.64 473.524C520.92 473.804 521.14 474.138 521.288 474.506C521.436 474.873 521.508 475.267 521.5 475.663C521.5 475.663 521.5 479.663 502.5 483.663Z" fill="#E0BAB3"/>
<path d="M441.5 436.663C441.2 438.883 426.5 458.663 429.5 462.663C432.5 466.663 435.5 474.663 435.5 474.663C435.5 474.663 427.5 465.663 421.5 463.663C415.5 461.663 404.5 457.663 404.5 457.663C404.5 457.663 443.5 421.663 441.5 436.663Z" fill="#F4CCC1"/>
<path d="M587.5 378.163C587.41 380.253 587.24 384.303 584.5 386.663C581.76 389.023 577.66 388.423 573.5 387.663C567.65 386.593 558.11 384.843 556.5 378.163C555.5 374.013 557.8 368.963 561.5 366.663C563.88 365.183 566.42 365.343 571.5 365.663C578.62 366.113 582.9 366.383 585.5 369.663C587.74 372.483 587.59 376.083 587.5 378.163ZM407.5 370.663C405.63 377.533 395.63 374.803 389.5 374.663C383.97 374.533 377.91 373.913 376.5 367.163C376.173 365.216 376.372 363.216 377.075 361.37C377.778 359.525 378.96 357.9 380.5 356.663C382.85 354.813 385.76 354.733 391.5 354.663C400.32 354.553 404.73 354.493 407.5 357.663C409.77 360.253 408.32 367.633 407.5 370.663Z" fill="#0C0631"/>
<path d="M544.5 373.663C544.5 373.663 561.5 363.663 575.5 366.663C589.5 369.663 602.5 379.663 602.5 379.663C602.5 379.663 589.5 392.663 557.5 383.663C557.5 383.663 583.5 396.663 606.5 380.663C606.5 380.663 600.5 369.663 575.5 364.663C575.5 364.663 557.5 360.663 544.5 373.663ZM424.5 367.663C424.5 367.663 416.5 355.663 395.5 355.663C382.519 355.812 369.788 359.253 358.5 365.663C358.5 365.663 387 378.163 414 374.163C414 374.163 374.5 382.663 355.5 365.663C355.5 365.663 370.5 351.663 396.5 353.663C422.5 355.663 424.5 367.663 424.5 367.663ZM263.5 397.663C263.5 397.663 248.5 404.663 248.5 428.663C248.5 452.663 251.5 522.663 257.5 533.663C263.5 544.663 256.5 574.663 256.5 587.663C256.5 600.663 251.5 682.663 273.5 726.663C295.5 770.663 333.5 804.663 362.5 802.663C391.5 800.663 425.5 815.663 428.5 817.663C431.5 819.663 460.5 824.663 470.5 817.663C470.5 817.663 501.5 835.663 544.5 814.663C587.5 793.663 626.5 752.663 652.5 671.663C678.5 590.663 655.5 624.663 679.5 526.663C679.5 526.663 692.5 466.663 683.5 400.663C683.5 400.663 676.5 403.663 675.5 409.663C674.5 415.663 670.5 461.663 662.5 467.663C654.5 473.663 649.5 546.663 621.5 549.663C593.5 552.663 604.5 539.663 600.5 529.663C596.5 519.663 592.5 494.663 573.5 493.663C554.5 492.663 560.28 487.663 524.5 487.663C522.5 487.663 474.5 509.663 441.5 485.663C441.5 485.663 431.5 472.663 403.5 483.663C375.5 494.663 364.5 496.663 355.5 513.663C355.5 513.663 348.5 526.663 348.5 528.663C348.5 530.663 330.5 544.663 310.5 513.663C291.05 483.523 279.69 447.213 277.5 427.663C276.28 416.823 274.36 392.363 270 392.163C269.47 392.163 269.06 392.483 263.5 397.663V397.663Z" fill="#0C0631"/>
<path d="M377.5 515.663C377.5 515.663 360.5 541.663 366.5 563.663C372.5 585.663 405.5 632.663 432.5 647.663C459.5 662.663 502.5 669.663 534.5 636.663C566.5 603.663 566.5 602.663 579.5 535.663C579.5 535.663 582.5 524.663 566.5 525.663C550.5 526.663 499.5 526.663 494.5 518.663C494.5 518.663 481.5 507.663 470.5 516.663C459.5 525.663 454.5 528.663 377.5 515.663V515.663Z" fill="#FCD2C5"/>
<path d="M431.5 584.663C429.5 584.663 418.5 590.663 420.5 604.663C422.5 618.663 428.5 619.663 428.5 619.663C426.769 616.434 425.864 612.827 425.864 609.163C425.864 605.499 426.769 601.893 428.5 598.663C428.5 598.663 429.5 606.663 429.5 608.663C429.5 610.663 433.5 602.663 433.5 602.663V610.663C433.5 609.663 439.5 597.663 439.5 597.663C439.5 597.663 439.5 608.663 441.5 612.663C443.5 616.663 445.5 624.663 445.5 624.663C445.5 624.663 441.5 606.663 443.5 602.663L445.5 598.663L446.5 610.663L452.5 603.663C453.5 602.663 451.5 606.663 450.5 612.663C449.5 618.663 450.5 628.663 450.5 628.663C450.5 628.663 448.5 616.663 452.5 613.663C456.5 610.663 457.5 608.663 457.5 608.663C457.5 608.663 458.5 614.663 456.5 618.663C455.244 621.227 454.239 623.906 453.5 626.663C453.5 626.663 465.5 620.663 466.5 616.663C467.5 612.663 472.5 609.663 472.5 609.663C472.5 609.663 471.5 617.663 469.5 621.663C467.5 625.663 474.5 619.663 477.5 613.663C480.5 607.663 480.5 609.663 480.5 609.663C480.5 609.663 483.5 621.663 480.5 623.663C477.5 625.663 488.5 623.663 485.5 609.663C485.5 609.663 489.5 615.663 490.5 619.663C491.5 623.663 497.5 624.663 497.5 624.663C497.5 624.663 494.5 620.663 494.5 613.663V604.663C494.5 604.663 502.5 610.663 502.5 615.663V618.663C502.5 618.663 504.5 606.663 502.5 603.663C500.5 600.663 501.5 596.663 501.5 596.663C501.5 596.663 508.5 601.663 510.5 607.663C512.5 613.663 511.5 613.663 511.5 613.663C511.5 613.663 511.5 600.663 506.5 595.663C501.5 590.663 502.5 590.663 502.5 590.663L496.5 592.663C495.961 592.12 495.258 591.768 494.5 591.663C493.5 591.663 479.5 593.663 479.5 593.663L467.5 592.663L464.5 593.663L451.5 589.663L443.5 586.663L431.5 584.663Z" fill="#0D0942"/>
<path d="M383 521.163C383 521.163 395 572.163 468 574.163C541 576.163 565 531.163 566 528.163C567 525.163 443 559.163 383 521.163Z" fill="#E8AAAA"/>
<path d="M382.5 521.663C382.5 521.663 407.5 557.663 472.5 557.663C472.5 557.663 540.5 557.663 565.5 528.663C565.5 528.663 562.5 516.663 480.5 532.663C455.5 522.123 438.83 520.513 428 521.163C424.84 521.353 415 522.163 401 522.163C394.83 522.164 388.661 521.997 382.5 521.663V521.663Z" fill="#D69F9F"/>
<path d="M403.8 540.083C403.8 540.083 402.5 535.663 403.5 534.663C404.5 533.663 408.5 537.663 408.5 537.663C408.5 537.663 410.5 526.663 412.5 528.663C414.5 530.663 419.5 536.663 419.5 536.663C419.5 536.663 420.5 522.663 423.5 523.663C426.5 524.663 436.5 532.663 436.5 532.663C436.5 532.663 438.82 522.563 442.66 523.663C446.5 524.763 455.5 534.663 455.5 534.663C456.163 532.554 457.37 530.657 459 529.163C459.897 528.353 460.908 527.679 462 527.163C464.017 527.382 466.021 527.716 468 528.163C472.336 529.143 476.534 530.654 480.5 532.663C498.84 528.813 503.5 529.073 504 530.163C505 532.163 504.5 532.663 504.5 532.663C504.5 532.663 510.5 527.663 513.5 527.663C516.5 527.663 521.5 529.663 521.5 533.663C521.5 537.663 522.5 537.663 522.5 537.663C522.5 537.663 524.5 528.663 528.5 527.663C532.5 526.663 537.5 525.663 535.5 537.663C535.5 537.663 538.5 532.663 540.5 533.663C542.5 534.663 541.5 539.663 541.5 539.663L540.5 544.663L533.5 545.663C533.5 545.663 533.5 548.663 524.5 547.663C524.5 547.663 507.5 555.663 506.5 550.663C506.5 550.928 506.395 551.183 506.207 551.37C506.02 551.558 505.765 551.663 505.5 551.663C504.5 551.663 484.5 554.663 482.5 551.663L481.5 550.663V552.663C481.5 552.663 458.5 553.663 457.5 551.663L455.5 547.663C455.5 547.663 454.5 550.663 453.5 550.663C452.5 550.663 436.5 549.663 436.5 549.663L435.5 546.663L433.5 549.663C433.5 549.663 421.5 547.663 420.5 546.663C419.93 546.144 419.573 545.431 419.5 544.663L417.5 545.663L415.59 546.333L403.8 540.083Z" fill="#F7EDED"/>
<path d="M686.5 379.663C686.5 379.663 710.5 349.663 718.5 370.663C726.5 391.663 721.5 428.663 707.5 445.663C707.5 445.663 693.5 471.663 691.5 490.663C691.5 490.663 687.5 501.663 681.5 490.663C675.5 479.663 686.5 379.663 686.5 379.663Z" fill="#FCD2C5"/>
<path d="M693.5 382.663C694.5 381.663 710.5 371.663 714.5 378.663C718.5 385.663 715.5 415.663 710.5 424.663L703.5 437.663C703.5 437.663 713.5 406.663 709.5 397.663C705.5 388.663 693.5 382.663 693.5 382.663Z" fill="#E0BAB3"/>
<path d="M244.5 344.663C244.5 344.663 220.5 333.663 214.5 362.663C208.5 391.663 210.5 413.663 223.5 446.663C236.5 479.663 232.5 485.663 236.5 488.663C240.5 491.663 254.5 490.663 254.5 490.663L262.5 373.663C261.5 371.663 244.5 344.663 244.5 344.663Z" fill="#FCD2C5"/>
<path d="M239.5 361.663C239.5 361.663 220.5 346.663 218.5 372.663C216.5 398.663 221.5 413.663 221.5 413.663C221.5 413.663 219.5 370.663 224.5 369.663C229.5 368.663 227.5 396.663 228.5 395.663C229.5 394.663 230.5 369.663 236.5 369.663C242.5 369.663 239.5 361.663 239.5 361.663ZM224.5 426.663C224.5 426.663 233.5 455.663 238.5 460.663C243.5 465.663 243.5 462.663 243.5 462.663L224.5 426.663Z" fill="#E0BAB3"/>
<path d="M467.5 363.663C467.5 363.663 478.5 397.663 474.5 408.663C470.5 419.663 457.5 441.663 457.5 441.663C457.5 441.663 455.5 429.663 459.5 406.663C463.5 383.663 469.5 397.663 467.5 363.663ZM521.5 392.663C521.5 392.663 543.5 414.663 550.5 416.663C557.5 418.663 565.5 420.663 565.5 420.663C565.5 420.663 548.5 410.663 546.5 406.663C544.5 402.663 545.5 402.663 556.5 406.663C567.5 410.663 593.5 412.663 593.5 412.663C593.5 412.663 550.5 400.663 538.5 394.663C526.5 388.663 521.5 392.663 521.5 392.663Z" fill="#F4CCC1"/>
<path d="M208 781.163C208 781.163 214 836.163 246 852.163C278 868.163 276 868.163 276 868.163C276 868.163 217 819.163 208 781.163ZM633 775.163C633 775.163 624 820.163 598 843.163C572 866.163 565 875.163 565 875.163C565 875.163 620 852.163 630 812.163C640 772.163 633 775.163 633 775.163ZM184 790.163C184 790.163 197 862.163 223 873.163C238.947 879.989 253.824 889.083 267.17 900.163H251.17C251.17 900.163 248 891.163 219 878.163C190 865.163 184 790.163 184 790.163ZM648 797.163C648 797.163 651 840.163 631 852.163C611 864.163 591.6 900.163 591.6 900.163H600.19C600.19 900.163 616 872.163 635 858.163C654 844.163 648 797.163 648 797.163ZM596 875.163C596 875.163 589 891.163 557 892.163C525 893.163 525 892.163 525 892.163C525 892.163 579 891.163 596 875.163ZM266 875.163C266 875.163 270 888.163 297 890.163C324 892.163 331 892.163 331 892.163C331 892.163 272 887.163 266 875.163Z" fill="#60DDAE"/>
<path d="M510 408.163C510 410.163 510 444.163 516 451.163C522 458.163 531 458.163 531 464.163V472.163C531 472.163 537 464.163 533 458.163C529 452.163 523 455.163 518 443.163C513 431.163 510 408.163 510 408.163Z" fill="#F4CCC1"/>
<path d="M260.53 523.943C259.702 526.837 259.094 529.788 258.71 532.773L257.71 541.593C257.298 547.584 257.211 553.593 257.45 559.593C257.805 571.376 259.964 583.034 263.85 594.163C266.12 600.643 268.15 607.163 270.24 613.723C270.135 612.893 270.135 612.053 270.24 611.223C270.355 610.394 270.355 609.553 270.24 608.723L265.34 593.513C263.64 588.463 261.94 583.693 260.67 578.643C259.391 573.575 258.499 568.417 258 563.213C257.733 560.407 257.55 557.587 257.45 554.753C257.45 553.993 257.38 553.233 257.4 552.473C257.4 552.683 257.4 553.593 257.4 552.473V551.263C257.44 549.883 257.51 548.503 257.61 547.123C257.83 543.993 258.18 540.863 258.61 537.753C258.994 534.768 259.602 531.817 260.43 528.923C260.54 528.094 260.54 527.253 260.43 526.423C260.32 525.594 260.32 524.753 260.43 523.923L260.53 523.943Z" fill="#0C0631"/>
<path d="M266.66 563.263C259.88 569.943 255.9 579.063 253.14 588.043C250.2 597.613 249.48 607.473 249.79 617.443C249.939 622.925 250.803 628.365 252.36 633.623C252.26 632.793 252.26 631.954 252.36 631.123C252.47 630.294 252.47 629.453 252.36 628.623C251.141 624.523 250.35 620.307 250 616.043C250.014 614.827 249.947 613.611 249.8 612.403V613.033V612.143C249.8 611.553 249.86 610.973 249.9 610.383C250.053 608.136 250.306 605.897 250.66 603.673C251.976 595.277 254.622 587.145 258.5 579.583C260.6 575.407 263.344 571.587 266.63 568.263C266.9 567.993 266.63 566.153 266.63 565.763V563.993C266.6 563.751 266.6 563.506 266.63 563.263H266.66Z" fill="#0C0631"/>
<path d="M249.3 589.813C249.07 592.813 248.85 596.153 249.82 599.063C251.11 602.953 252.73 606.723 254.33 610.493C257.55 618.113 260.8 625.693 264.42 633.133L270.74 645.873C270.719 645.63 270.719 645.386 270.74 645.143V643.373V641.603C270.785 641.362 270.785 641.115 270.74 640.873C266.55 632.473 262.3 624.073 258.52 615.473L253.11 602.623C252.22 600.493 251.34 598.353 250.56 596.173C250.22 595.263 249.88 594.343 249.61 593.413C249.492 593.043 249.399 592.666 249.33 592.283C249.289 592.045 249.262 591.805 249.25 591.563C249.17 595.673 249.18 596.753 249.3 594.813C249.42 593.153 249.17 591.463 249.3 589.813V589.813Z" fill="#0C0631"/>
<path d="M264.11 585.213C260.59 588.353 260.54 594.013 259.71 598.313C258.38 605.173 257.08 612.043 256.43 619.003C255.726 625.546 255.884 632.152 256.9 638.653C258.183 645.262 260.019 651.752 262.39 658.053C264.92 665.143 267.72 672.173 269.21 679.573C268.89 677.983 269.54 676.183 269.21 674.573C267.908 668.727 266.167 662.987 264 657.403C261.9 651.623 259.88 645.823 258.32 639.883C257.516 636.911 256.914 633.887 256.52 630.833C256.41 629.913 256.32 628.993 256.27 628.073C256.27 627.753 256.27 627.433 256.22 627.123C256.12 625.353 256.14 629.123 256.22 627.943C256.32 626.223 256.42 624.513 256.6 622.793C257.27 616.403 258.44 610.093 259.67 603.793C260.53 599.373 260.55 593.443 264.16 590.213C264.42 589.983 264.16 588.083 264.16 587.713V585.953C264.13 585.708 264.13 585.459 264.16 585.213H264.11ZM259 590.833C257.7 597.253 256.43 603.693 255.65 610.193C254.92 616.619 254.66 623.09 254.87 629.553C255.107 642.75 256.692 655.888 259.6 668.763L262.13 679.503C262.96 683.273 263.6 687.083 264.62 690.813C264.525 689.983 264.525 689.144 264.62 688.313C264.72 687.483 264.72 686.644 264.62 685.813C263.06 680.093 262.09 674.203 260.71 668.433C259.33 662.663 258 656.863 257.1 650.973C256.17 644.873 255.57 638.713 255.21 632.553L255 628.153C255 627.423 254.94 626.683 254.92 625.953V624.503V625.503V624.563C255.02 621.563 255.27 618.493 255.63 615.473C256.41 608.883 257.7 602.373 259.01 595.873C259.33 594.263 258.69 592.463 259.01 590.873L259 590.833Z" fill="#0C0631"/>
<path d="M262.06 601.553C260.59 604.393 258.65 606.953 257.42 609.913C256.17 613.043 255.088 616.238 254.18 619.483C252.18 626.153 249.87 632.973 248.89 639.893C248.477 643.297 248.323 646.727 248.43 650.153C248.419 653.299 248.67 656.439 249.18 659.543C250.445 666.076 252.43 672.448 255.1 678.543C257.887 685.379 261.422 691.885 265.64 697.943C265.619 697.7 265.619 697.456 265.64 697.213V693.673C265.64 693.513 265.71 693.063 265.64 692.943C258.749 683.026 253.62 671.994 250.48 660.333C249.664 657.384 249.083 654.374 248.74 651.333C248.642 650.459 248.569 649.582 248.52 648.703V647.783V649.383V648.453C248.622 646.777 248.819 645.108 249.11 643.453C250.18 637.243 252.18 631.143 253.97 625.113C254.97 621.733 255.97 618.313 257.34 615.053C258.58 612.053 260.56 609.403 262.06 606.503C262.2 605.676 262.2 604.831 262.06 604.003V602.243C262.025 601.998 262.025 601.749 262.06 601.503V601.553Z" fill="#0C0631"/>
<path d="M259.51 636.793C258.59 640.103 256.97 643.153 255.76 646.363C254.643 649.383 254.057 652.574 254.03 655.793C253.908 659.292 254.002 662.796 254.31 666.283C254.687 669.761 255.252 673.216 256 676.633C256.754 680.144 257.696 683.613 258.82 687.023C260 690.573 261.47 694.023 262.82 697.483C264.13 700.813 265.14 704.243 266.25 707.643C267.41 711.171 268.792 714.621 270.39 717.973C273.63 724.935 278.262 731.16 284 736.263C283.895 735.433 283.895 734.593 284 733.763V731.993C284 731.873 284.06 731.333 284 731.263C279.276 727.129 275.318 722.193 272.31 716.683C269.256 710.759 266.771 704.558 264.89 698.163C262.83 691.703 259.89 685.583 257.95 679.083C256.041 672.85 254.781 666.436 254.19 659.943C254.19 659.453 254.12 658.943 254.1 658.483C253.98 656.173 253.91 661.483 254.1 659.593C254.18 658.593 254.23 657.653 254.37 656.693C254.614 654.986 255.04 653.31 255.64 651.693C256.86 648.333 258.58 645.173 259.54 641.693C259.64 640.863 259.64 640.024 259.54 639.193C259.44 638.363 259.44 637.524 259.54 636.693L259.51 636.793Z" fill="#0C0631"/>
<path d="M259 690.213C259.429 695.374 260.133 700.508 261.11 705.593C261.99 710.927 262.957 716.24 264.01 721.533C265.01 726.533 265.85 731.623 267.68 736.373C269.393 740.773 271.833 744.853 274.9 748.443C276.615 750.583 278.56 752.528 280.7 754.243C282.822 755.728 285.15 756.894 287.61 757.703C287.561 756.871 287.561 756.036 287.61 755.203C287.701 754.372 287.701 753.534 287.61 752.703C285.485 751.984 283.448 751.024 281.54 749.843C279.585 748.461 277.814 746.834 276.27 745.003C273.08 741.549 270.455 737.615 268.49 733.343C266.49 728.823 265.49 724.003 264.55 719.183L261.55 703.493C260.55 697.493 259.3 691.493 258.97 685.393C258.97 685.073 258.97 685.793 258.97 685.643V687.133V690.213H259Z" fill="#0C0631"/>
<path d="M273.27 713.333C273.27 719.473 273.12 725.603 274.07 731.693C275.077 737.473 276.504 743.171 278.34 748.743C279.673 753.493 281.344 758.142 283.34 762.653C285.34 766.813 287.98 771.013 291.9 773.653C294.355 775.224 297.163 776.155 300.07 776.363C303.32 776.653 306.33 775.363 309.53 775.113C309.69 775.113 309.45 770.113 309.53 770.113C306.9 770.313 304.4 771.323 301.76 771.423C299.251 771.479 296.759 770.998 294.45 770.013C290.22 768.243 287.17 764.593 284.91 760.713C282.777 756.817 281.058 752.708 279.78 748.453C278.14 743.383 276.54 738.273 275.31 733.093C274.579 730.083 274.031 727.03 273.67 723.953C273.347 720.44 273.223 716.911 273.3 713.383V710.883V713.383L273.27 713.333ZM284.53 727.163C284.2 730.653 283.53 734.103 283.3 737.613C283.07 741.123 282.89 745.113 283.78 748.613C284.67 752.113 287.26 755.163 289.6 757.853C290.916 759.315 292.362 760.654 293.92 761.853C294.651 762.499 295.464 763.044 296.34 763.473C297.324 763.805 298.326 764.082 299.34 764.303C299.27 764.303 299.34 762.013 299.34 761.803C299.421 760.972 299.421 760.135 299.34 759.303C297.713 758.994 296.157 758.387 294.75 757.513C293.449 756.561 292.219 755.514 291.07 754.383C288.751 752.101 286.734 749.53 285.07 746.733C284.385 745.519 283.903 744.202 283.64 742.833C283.479 741.994 283.372 741.146 283.32 740.293C283.18 738.373 283.12 744.293 283.32 742.403C283.38 741.913 283.39 741.403 283.43 740.933C283.71 737.983 284.27 735.073 284.54 732.133C284.7 730.483 284.39 728.783 284.54 727.133L284.53 727.163Z" fill="#0C0631"/>
<path d="M278.4 712.873C276.389 719.371 275.709 726.207 276.4 732.973C276.762 736.342 277.499 739.659 278.6 742.863C279.6 746.073 280.51 749.333 281.69 752.503C284.066 758.569 287.834 763.991 292.69 768.333C295.002 770.551 297.475 772.593 300.09 774.443C302.87 776.383 305.83 778.053 308.78 779.713C311.965 781.409 315.029 783.324 317.95 785.443C320.877 787.651 323.559 790.165 325.95 792.943C325.934 792.697 325.934 792.45 325.95 792.203V790.443V788.673C325.95 788.533 326.02 788.043 325.95 787.943C322.06 783.458 317.446 779.655 312.3 776.693C306.93 773.563 301.38 770.743 296.58 766.693C292.11 762.943 287.82 758.803 284.74 753.803C281.51 748.563 280.01 742.333 278.23 736.493C277.72 734.849 277.293 733.18 276.95 731.493C276.8 730.693 276.66 729.893 276.57 729.083C276.497 728.519 276.444 727.952 276.41 727.383C276.32 726.113 276.77 725.043 276.41 728.993C276.695 725.218 277.396 721.485 278.5 717.863C278.615 717.034 278.615 716.193 278.5 715.363C278.39 714.534 278.39 713.693 278.5 712.863L278.4 712.873Z" fill="#0C0631"/>
<path d="M292.19 749.643C290.468 749.449 288.849 748.722 287.56 747.563L283.13 744.023C281.589 742.672 280.158 741.201 278.85 739.623C277.441 738.113 276.226 736.433 275.23 734.623C274.449 732.726 273.856 730.756 273.46 728.743L271.74 722.333C271.492 721.316 271.309 720.284 271.19 719.243C270.93 716.493 270.98 723.383 271.19 721.163L271.39 719.073C271.679 717.101 272.162 715.162 272.83 713.283C272.945 712.454 272.945 711.613 272.83 710.783C272.715 709.954 272.715 709.113 272.83 708.283C270.567 715.197 270.403 722.627 272.36 729.633L273.9 735.333C274.248 737.166 274.886 738.932 275.79 740.563C277.788 743.661 280.216 746.458 283 748.873L287.46 752.453C287.46 752.453 290.46 754.613 292.23 754.643V749.643H292.19ZM306 770.983C308.8 774.453 310.24 778.663 312.43 782.493C314.553 786.167 317.235 789.486 320.38 792.333C323.38 795.103 326.68 797.703 330.63 798.963C334.58 800.223 338.69 800.493 342.74 801.023C345.42 801.363 348.09 801.853 350.74 802.093C351.859 802.278 353.001 802.278 354.12 802.093C355.026 801.803 355.847 801.295 356.51 800.613C356.77 800.373 356.51 798.483 356.51 798.113V796.343C356.486 796.101 356.486 795.856 356.51 795.613C355.918 796.186 355.207 796.622 354.428 796.89C353.648 797.158 352.819 797.251 352 797.163C349.54 797.023 347.1 796.623 344.66 796.263C340.5 795.653 336.26 795.423 332.18 794.383C328.23 793.245 324.605 791.189 321.6 788.383C318.438 785.72 315.676 782.615 313.4 779.163C310.66 774.923 309.18 769.973 305.98 766.013C306.002 766.256 306.002 766.5 305.98 766.743V768.513V770.283C305.98 770.433 305.91 770.903 305.98 771.013L306 770.983ZM356 792.433C357.509 794.13 359.298 795.554 361.29 796.643L367.61 799.643C371.88 801.721 376.372 803.308 381 804.373C385.768 805.42 390.621 806.026 395.5 806.183L403.1 806.383C403.1 806.383 408.15 806.743 410.69 806.723V801.723C408.15 801.723 405.63 801.543 403.1 801.383C400.57 801.223 398.04 801.263 395.5 801.183C390.621 801.026 385.768 800.42 381 799.373C376.388 798.292 371.913 796.691 367.66 794.603L361.34 791.603C359.348 790.514 357.559 789.09 356.05 787.393C356.29 787.633 356.05 789.513 356.05 789.893V791.653C356.05 791.793 355.99 792.303 356.05 792.393L356 792.433Z" fill="#0C0631"/>
<path d="M413.72 802.753C409.96 804.463 406.56 806.893 402.72 808.473C398.554 810.082 393.984 810.327 389.67 809.173C384.982 807.939 380.431 806.231 376.09 804.073C371.708 802.035 367.457 799.727 363.36 797.163C358.73 794.303 354.28 791.163 349.89 787.943C349.99 788.774 349.99 789.613 349.89 790.443C349.89 790.783 349.63 792.733 349.89 792.943C357.587 798.81 365.812 803.949 374.46 808.293C382.46 812.123 392.36 817.033 401.31 814.003C405.72 812.523 409.51 809.673 413.72 807.753C413.811 806.922 413.811 806.084 413.72 805.253C413.641 804.422 413.641 803.585 413.72 802.753V802.753Z" fill="#0C0631"/>
<path d="M383.6 798.043C385.6 799.983 387.34 802.113 389.22 804.143C390.958 806.178 392.876 808.052 394.95 809.743L401.12 814.023C402.958 815.649 405.044 816.969 407.3 817.933L415.3 821.263C417.8 822.162 420.393 822.775 423.03 823.093C428.496 823.635 433.992 823.792 439.48 823.563C442.72 823.563 445.95 823.413 449.17 823.053C452.218 822.888 455.237 822.378 458.17 821.533C458.246 820.702 458.246 819.865 458.17 819.033C458.111 818.201 458.111 817.366 458.17 816.533C455.684 817.264 453.125 817.716 450.54 817.883L441.64 818.523C436.09 818.765 430.531 818.692 424.99 818.303C422.279 818.089 419.598 817.593 416.99 816.823C414.35 816.023 411.88 814.753 409.32 813.723C406.881 812.886 404.581 811.686 402.5 810.163C400.584 808.603 398.581 807.154 396.5 805.823C391.35 802.583 387.85 797.243 383.56 793.043C383.669 793.873 383.669 794.713 383.56 795.543V797.313C383.56 797.443 383.49 797.963 383.56 798.043H383.6ZM667.77 573.623C670.77 576.933 669.83 582.093 670.77 586.113C671.109 587.43 671.369 588.766 671.55 590.113C671.65 590.963 671.68 591.823 671.75 592.683C671.5 589.863 671.75 590.843 671.75 591.683C671.75 592.323 671.66 592.973 671.6 593.623C671.306 596.573 670.832 599.502 670.18 602.393C667.65 613.963 663.68 625.013 657.25 635.023C653.73 640.493 649.91 645.833 647.84 652.073C647.725 652.903 647.725 653.744 647.84 654.573C647.955 655.403 647.955 656.244 647.84 657.073C649.84 651.073 653.48 645.843 656.9 640.553C660.462 635.104 663.407 629.274 665.68 623.173C667.912 617.07 669.618 610.787 670.78 604.393C671.362 601.335 671.697 598.235 671.78 595.123C671.943 591.789 671.866 588.447 671.55 585.123C671.36 583.513 670.92 581.983 670.61 580.403C670.34 579.013 670.25 577.593 670.1 576.193C669.84 573.583 669.55 570.643 667.73 568.603C667.747 568.846 667.747 569.09 667.73 569.333V571.103V572.873C667.73 573.013 667.66 573.503 667.73 573.603L667.77 573.623Z" fill="#0C0631"/>
<path d="M670.06 539.163C673.45 541.533 675.31 545.623 676.47 549.473C677.073 551.511 677.488 553.6 677.71 555.713C677.78 556.373 677.84 557.043 677.88 557.713C677.88 558.123 677.94 559.883 677.94 558.243C677.94 556.603 677.89 558.643 677.87 558.993C677.87 559.723 677.77 560.463 677.7 561.193C676.78 570.573 673.27 579.103 670 587.853C669.08 590.313 668.31 592.853 667.19 595.203C666.07 597.553 664.81 599.863 663.94 602.333C663.82 603.162 663.82 604.004 663.94 604.833C664.055 605.663 664.055 606.504 663.94 607.333C664.9 604.902 665.985 602.523 667.19 600.203C668.31 597.823 669.08 595.313 670 592.853C671.92 587.723 674 582.653 675.56 577.373C676.917 572.684 677.713 567.85 677.93 562.973C678.288 557.922 678.073 552.846 677.29 547.843C676.36 542.913 674.34 537.153 670.06 534.163C670.155 534.994 670.155 535.833 670.06 536.663C670.06 536.993 669.81 538.973 670.06 539.163V539.163ZM663.17 624.943C665.53 627.323 668.47 629.323 670.06 632.363C670.744 633.726 671.226 635.181 671.49 636.683C671.646 637.533 671.753 638.391 671.81 639.253C671.95 641.053 672 634.373 671.81 636.953C671.81 637.373 671.72 637.783 671.65 638.183C670.51 644.773 665.16 650.383 660.57 654.893C657.48 657.893 653.98 660.503 650.94 663.603C650.67 663.883 650.94 665.693 650.94 666.103V667.863C650.94 667.983 651.02 668.533 650.94 668.603C653.94 665.603 657.36 663.013 660.41 660.043C663.233 657.368 665.786 654.42 668.03 651.243C670.223 648.299 671.55 644.801 671.86 641.143C672.04 637.373 672.16 633.313 671.02 629.673C669.69 625.383 666.23 622.983 663.2 619.943C663.43 620.173 663.2 622.073 663.2 622.443V624.163C663.2 624.303 663.14 624.813 663.2 624.903L663.17 624.943Z" fill="#0C0631"/>
<path d="M660.87 641.023C661.09 643.263 661.54 645.463 661.87 647.673L662.31 651.103C662.31 651.713 662.39 652.313 662.42 652.923V654.083V652.803C662.245 657.556 661.635 662.282 660.6 666.923C659.701 671.057 658.701 675.169 657.6 679.253C656.547 683.364 654.971 687.323 652.91 691.033C651.833 692.977 650.487 694.758 648.91 696.323C647.2 697.923 644.91 698.733 643.25 700.323C642.98 700.583 643.25 702.433 643.25 702.823V704.593C643.28 704.836 643.28 705.081 643.25 705.323C644.93 703.693 647.25 702.883 648.91 701.323C650.489 699.76 651.836 697.978 652.91 696.033C655.198 691.867 656.91 687.41 658 682.783C659.27 677.983 660.51 673.133 661.36 668.243C662.186 663.236 662.574 658.167 662.52 653.093C662.58 650.309 662.47 647.524 662.19 644.753C661.84 641.823 661.14 638.953 660.85 636.023C661.01 637.673 660.69 639.373 660.85 641.023H660.87Z" fill="#0C0631"/>
<path d="M654.73 665.473V665.553C654.518 666.914 654.183 668.253 653.73 669.553L652.64 674.243L650.89 683.243C650.459 686.22 649.695 689.138 648.61 691.943C647.436 694.479 645.933 696.85 644.14 698.993C640.662 703.384 636.872 707.518 632.8 711.363C628.757 715.146 624.083 718.192 618.99 720.363C613.35 722.773 607.43 724.483 601.9 727.183C601.809 728.014 601.809 728.852 601.9 729.683C601.985 730.514 601.985 731.352 601.9 732.183C606.9 729.763 612.13 728.183 617.24 726.093C622.441 724.082 627.26 721.197 631.49 717.563C635.745 713.698 639.693 709.509 643.3 705.033C645.183 702.871 646.811 700.499 648.15 697.963C649.382 695.24 650.23 692.359 650.67 689.403L652.67 679.023C653.02 677.403 653.36 675.763 653.84 674.173C654.353 672.768 654.663 671.296 654.76 669.803V666.383V665.483L654.73 665.473Z" fill="#0C0631"/>
<path d="M644.36 689.283C644.792 690.443 645.028 691.666 645.06 692.903V694.303C645.06 695.593 645.06 694.973 645.06 692.433C645.06 692.853 645.06 693.283 644.99 693.713C644.763 696.123 644.297 698.505 643.6 700.823C642.313 705.17 640.746 709.429 638.91 713.573C637.357 717.592 634.795 721.143 631.47 723.883C628.03 726.533 623.97 728.183 620.17 730.233C620.069 731.064 620.069 731.903 620.17 732.733C620.265 733.564 620.265 734.403 620.17 735.233C623.5 733.443 627.01 731.953 630.17 729.823C633.419 727.602 636.037 724.577 637.77 721.043C639.496 717.444 640.995 713.74 642.26 709.953C643.792 706.03 644.738 701.902 645.07 697.703C645.13 696.443 645.07 695.183 645.07 693.923V691.693C645.07 692.333 645.07 690.993 645.07 690.803C645.215 688.602 644.957 686.392 644.31 684.283C644.425 685.113 644.425 685.954 644.31 686.783C644.18 687.612 644.18 688.455 644.31 689.283H644.36Z" fill="#0C0631"/>
<path d="M630.74 719.573C630.85 720.403 630.89 722.813 630.89 719.573C630.89 716.333 630.89 718.693 630.77 719.573C630.637 720.614 630.443 721.645 630.19 722.663C629.676 724.607 629.007 726.506 628.19 728.343C626.535 732.012 624.662 735.579 622.58 739.023C620.548 742.838 618.008 746.36 615.03 749.493C612.044 752.339 608.679 754.759 605.03 756.683C600.855 759.071 596.308 760.737 591.58 761.613C591.27 761.673 591.81 766.613 591.58 766.613C596.234 765.756 600.713 764.127 604.83 761.793C608.974 759.647 612.746 756.848 616 753.503C619.25 750.023 621.61 745.813 623.95 741.683C626.288 737.821 628.209 733.722 629.68 729.453C630.408 727.224 630.829 724.906 630.93 722.563C631.094 719.896 631.037 717.221 630.76 714.563C630.98 716.203 630.55 717.923 630.76 719.563L630.74 719.573Z" fill="#0C0631"/>
<path d="M628 726.383C628.19 727.213 628.19 728.023 628.33 728.843C628.33 729.003 628.33 725.143 628.33 726.953V728.223V733.273C628.22 729.673 628.26 732.913 628.14 733.833C628.06 734.447 627.96 735.057 627.84 735.663C627.528 737.177 627.124 738.669 626.63 740.133C624.812 745.569 622.418 750.796 619.49 755.723C616.664 760.476 613.428 764.973 609.82 769.163C606.461 773.327 602.107 776.578 597.16 778.613C594.271 779.655 591.305 780.47 588.29 781.053C584.905 781.847 581.465 782.385 578 782.663C577.86 782.663 578.07 787.663 578 787.663C581.313 787.398 584.603 786.887 587.84 786.133C590.801 785.567 593.718 784.792 596.57 783.813C602.33 781.713 606.62 777.973 610.57 773.343C614.515 768.715 617.992 763.707 620.95 758.393C624.042 753.005 626.348 747.203 627.8 741.163C628.41 737.598 628.621 733.975 628.43 730.363V727.563C628.54 730.653 628.43 728.653 628.43 728.013V726.083C628.472 724.525 628.348 722.966 628.06 721.433C628.14 722.265 628.14 723.102 628.06 723.933C627.975 724.764 627.975 725.602 628.06 726.433L628 726.383Z" fill="#0C0631"/>
<path d="M611.34 748.623C605.65 757.353 601.76 767.143 595.71 775.623C592.71 779.873 589.6 784.373 585.61 787.773C583.703 789.346 581.665 790.755 579.52 791.983C577.371 793.367 575.004 794.381 572.52 794.983C569.644 795.522 566.733 795.856 563.81 795.983C560.67 796.261 557.506 796.007 554.45 795.233C554.52 795.233 554.45 797.523 554.45 797.733C554.374 798.565 554.374 799.402 554.45 800.233C559.69 801.693 565.45 801.053 570.75 800.323C575.75 799.633 580.14 796.913 584.09 793.943C588.26 790.803 591.41 786.503 594.45 782.323C597.51 778.033 600.273 773.54 602.72 768.873C605.47 763.713 608.1 758.493 611.3 753.593C611.59 753.143 611.3 751.593 611.3 751.093V749.323C611.3 749.173 611.21 748.703 611.3 748.593L611.34 748.623ZM615.74 751.103C615.74 751.103 615.88 749.183 615.68 750.013C615.61 750.303 615.61 750.633 615.56 750.923L615.31 752.283C615.07 753.403 614.73 754.503 614.39 755.593L612.39 761.343C610.839 765.198 609.004 768.931 606.9 772.513C602.809 779.343 597.847 785.612 592.14 791.163C589.31 793.973 586.32 796.603 583.28 799.163C580.295 801.865 576.962 804.156 573.37 805.973C569.647 807.528 565.664 808.363 561.63 808.433C557.22 808.683 552.8 808.783 548.38 808.843L533.03 808.893H525.64C524.55 808.893 523.47 808.893 522.38 808.843C521.601 808.675 520.788 808.815 520.11 809.233C519.85 809.453 520.11 811.383 520.11 811.733C520.11 812.083 520.39 814.013 520.11 814.233C521.11 813.363 523.41 813.893 524.66 813.893H531.8H545.9C550.6 813.893 555.16 813.753 559.79 813.543C563.97 813.353 568.21 813.063 572.14 811.543C575.968 809.859 579.503 807.574 582.61 804.773C585.72 802.173 588.77 799.493 591.67 796.653C597.662 790.881 602.846 784.325 607.08 777.163C609.507 772.984 611.564 768.6 613.23 764.063C614.077 761.867 614.772 759.615 615.31 757.323C615.745 754.845 615.906 752.327 615.79 749.813V748.323C615.79 748.423 615.79 747.773 615.79 748.073C615.735 749.096 615.735 750.121 615.79 751.143L615.74 751.103Z" fill="#0C0631"/>
<path d="M576.62 788.163C575.809 789.283 575.116 790.482 574.55 791.743C573.824 793.07 572.995 794.337 572.07 795.533C570.259 797.898 568.252 800.106 566.07 802.133C561.7 806.352 556.95 810.158 551.88 813.503C546.64 816.883 540.88 819.283 534.55 819.213C527.774 819.032 521.02 818.364 514.34 817.213C510.56 816.613 506.79 815.923 503.06 815.053C499.33 814.183 495.41 813.053 491.53 812.293C491.82 812.293 491.17 817.223 491.53 817.293C498.31 818.653 504.92 820.623 511.75 821.783C518.514 823.034 525.358 823.812 532.23 824.113C535.367 824.322 538.517 824.046 541.57 823.293C544.552 822.437 547.406 821.19 550.06 819.583C555.168 816.429 559.951 812.778 564.34 808.683C566.911 806.439 569.286 803.98 571.44 801.333C572.501 800.025 573.461 798.638 574.31 797.183C574.965 795.763 575.744 794.405 576.64 793.123C576.92 792.773 576.64 791.073 576.64 790.623V788.853C576.64 788.723 576.56 788.203 576.64 788.123L576.62 788.163ZM354.66 797.873C355.1 802.463 359 806.013 362.49 808.603C364.355 810.048 366.522 811.053 368.83 811.543C371.223 811.94 373.645 812.137 376.07 812.133C381.21 812.303 386.34 812.823 391.48 812.583C396.85 812.333 402 810.933 407.13 809.423C412.94 807.733 418.67 805.793 424.45 804.003C424.516 803.171 424.516 802.335 424.45 801.503C424.396 800.671 424.396 799.836 424.45 799.003L408.96 803.883C403.96 805.393 398.81 806.983 393.57 807.443C388.371 807.732 383.158 807.655 377.97 807.213C373.17 806.963 368.2 807.213 363.97 804.613C361.752 803.2 359.734 801.495 357.97 799.543C356.174 797.738 355.015 795.396 354.67 792.873C354.83 794.523 354.51 796.223 354.67 797.873H354.66ZM495.36 820.273C491.5 820.593 487.67 821.133 483.85 821.783C482.09 822.083 480.337 822.417 478.59 822.783C476.626 823.304 474.617 823.639 472.59 823.783C465.5 823.783 459.07 819.213 453.94 814.783C453.34 814.273 451.53 815.053 452.16 815.593C457.46 820.163 463.63 824.443 470.84 825.023C472.679 825.1 474.519 824.925 476.31 824.503L482.7 823.293C486.83 822.573 490.98 821.973 495.16 821.613C496.16 821.533 496.7 820.223 495.37 820.343L495.36 820.273ZM272.89 697.623C269.487 700.222 266.432 703.246 263.8 706.623C262.8 707.793 261.9 709.043 262.13 710.623C262.494 712.316 263.37 713.856 264.64 715.033C267.08 717.513 270.42 718.883 273.57 720.203C277.574 721.942 281.775 723.188 286.08 723.913C291.226 724.628 296.415 724.979 301.61 724.963C301.99 724.963 302.72 724.913 302.98 724.593C303.24 724.273 303.34 724.143 302.86 724.133C294.2 723.993 285.31 723.653 277.21 720.293C274.118 719.184 271.157 717.739 268.38 715.983C265.92 714.243 262.69 710.753 264.69 707.613C265.961 705.797 267.39 704.097 268.96 702.533C270.6 700.745 272.415 699.127 274.38 697.703C275.18 697.133 273.26 697.343 272.89 697.603V697.623ZM256.35 630.783C255.916 632.622 255.378 634.435 254.74 636.213L253.43 641.773C252.7 645.353 251.66 648.963 252.02 652.653C252.524 656.474 253.642 660.189 255.33 663.653C256.831 667.142 258.677 670.472 260.84 673.593L268.93 685.033C269.24 685.513 271.02 684.753 270.86 684.523C266.54 678.053 261.41 672.063 258.1 664.983C256.36 661.562 255.063 657.933 254.24 654.183C253.52 650.323 254.24 646.713 255.03 642.933C255.49 640.813 255.89 638.683 256.46 636.583C257.167 634.584 257.765 632.548 258.25 630.483C258.32 630.023 256.42 630.353 256.35 630.823V630.783Z" fill="#0C0631"/>
<path d="M247.48 617.253C248.327 620.67 249.443 624.014 250.82 627.253C252.191 630.196 253.892 632.974 255.89 635.533C258.052 638.363 260.307 641.121 262.65 643.803C264.99 646.473 267.58 648.583 270.01 651.023C270.37 651.393 272.15 650.683 271.82 650.353C269.46 647.963 266.82 645.843 264.62 643.353C262.42 640.863 260.12 638.003 257.98 635.243C255.909 632.636 254.153 629.793 252.75 626.773C251.373 623.534 250.257 620.19 249.41 616.773C249.29 616.313 247.35 616.773 247.48 617.293V617.253ZM671.13 561.243C671.13 566.133 671.5 571.123 671.13 576.003C670.764 580.404 668.843 584.531 665.71 587.643C662.678 590.64 659.461 593.446 656.08 596.043C652.523 599.055 648.697 601.733 644.65 604.043C643.5 604.683 644.54 605.643 645.49 605.123C652 601.563 657.67 596.723 663.29 591.923C665.78 589.927 668.002 587.618 669.9 585.053C671.858 582.115 672.966 578.692 673.1 575.163C673.38 570.493 673.1 565.763 673.1 561.093C673.1 560.093 671.1 560.423 671.1 561.253L671.13 561.243Z" fill="#0C0631"/>
<path d="M676.76 527.213L678.23 533.723C678.632 536.037 678.659 538.401 678.31 540.723C677.812 545.317 677 549.871 675.88 554.353C673.57 562.353 667.8 569.093 662.3 575.203C660.69 576.993 659.12 578.803 657.67 580.723C656.309 582.671 654.729 584.456 652.96 586.043C652.16 586.723 654.07 586.583 654.48 586.243C657.72 583.533 659.94 579.833 662.72 576.683C665.72 573.323 668.65 569.993 671.32 566.383C673.786 563.194 675.77 559.659 677.21 555.893C678.81 551.443 679.21 546.693 679.98 542.063C680.469 539.585 680.6 537.049 680.37 534.533C680.03 531.863 679.25 529.273 678.69 526.653C678.57 526.103 676.63 526.573 676.76 527.173V527.213ZM259.06 532.823C259.06 535.153 258.64 537.463 258.5 539.823L258.14 546.823C257.826 551.529 257.913 556.252 258.4 560.943C259.668 569.889 262.584 578.521 267 586.403C269.43 590.783 272.17 594.983 274.87 599.213C275.16 599.673 276.94 598.913 276.8 598.693C272.03 591.223 267.1 583.763 264.13 575.353C262.572 571.105 261.387 566.728 260.59 562.273C259.929 557.638 259.725 552.949 259.98 548.273C260.06 545.683 260.19 543.093 260.34 540.513C260.49 537.933 260.98 535.063 260.97 532.343C260.97 532.053 259.03 532.343 259.04 532.853L259.06 532.823ZM259.1 521.743C256.233 526.803 254.131 532.259 252.86 537.933C252.067 540.82 251.433 543.747 250.96 546.703C250.563 549.864 250.496 553.058 250.76 556.233C251.266 563.015 252.154 569.762 253.42 576.443C254.66 583.233 255.82 589.983 258.1 596.523C259.36 600.123 260.76 603.673 262.25 607.173C262.98 608.893 263.7 610.613 264.3 612.393C264.684 613.799 265.366 615.105 266.3 616.223C266.89 616.843 268.72 616.073 268.08 615.383C267.221 614.361 266.597 613.163 266.25 611.873C265.7 610.253 265.06 608.673 264.39 607.093C263.12 604.093 261.91 601.093 260.79 598.093C259.587 594.913 258.585 591.659 257.79 588.353C257.06 585.203 256.56 582.013 255.95 578.853C254.68 572.283 253.68 565.683 253.02 559.023C252.652 555.824 252.538 552.601 252.68 549.383C252.949 546.294 253.481 543.233 254.27 540.233C255.75 533.913 257.61 527.553 260.99 521.963C261.54 521.063 259.58 521.053 259.15 521.763L259.1 521.743Z" fill="#0C0631"/>
<path d="M255 520.973C254.32 525.353 253.13 529.643 252.6 534.043C252.114 538.316 252.037 542.626 252.37 546.913C252.721 551.233 253.42 555.516 254.46 559.723C255.46 564.003 256.72 568.233 257.46 572.573C258.35 577.503 258.12 582.633 259.55 587.463C259.7 587.993 261.63 587.463 261.48 586.943C260.23 582.713 260.34 578.283 259.71 573.943C258.979 569.684 258.031 565.465 256.87 561.303C254.569 552.882 253.703 544.133 254.31 535.423C254.74 530.423 256.11 525.613 256.87 520.673C256.96 520.093 255.04 520.433 254.96 520.973H255ZM651.44 510.373C650.204 511.263 649.163 512.397 648.38 513.703L645.74 518.553C643.6 521.873 640.87 524.743 638.8 528.123C634.708 535.135 631.993 542.863 630.8 550.893C630.04 555.503 628.8 560.123 628.8 564.823C628.8 565.233 630.73 564.923 630.73 564.313C630.73 560.053 631.87 555.943 632.54 551.773C633.181 547.894 634.079 544.063 635.23 540.303C636.318 536.64 637.793 533.104 639.63 529.753C641.594 526.483 643.786 523.355 646.19 520.393C647.362 518.819 648.396 517.146 649.28 515.393C649.715 514.502 650.195 513.634 650.72 512.793C651.332 511.911 652.098 511.146 652.98 510.533C653.78 509.913 651.87 510.093 651.48 510.393L651.44 510.373ZM600.5 543.723C600.83 544.445 601.362 545.056 602.03 545.483C602.787 546.024 603.485 546.644 604.11 547.333C605.498 549.052 606.796 550.841 608 552.693L611.78 557.883C612.434 558.722 613.179 559.487 614 560.163L616.61 562.163C616.99 562.493 618.71 561.753 618.43 561.503C616.8 560.297 615.272 558.959 613.86 557.503C612.39 555.733 611.14 553.793 609.8 551.933L606.29 547.053C605.7 546.341 605.029 545.7 604.29 545.143C603.506 544.695 602.87 544.028 602.46 543.223C602.3 542.783 600.39 543.373 600.53 543.743L600.5 543.723ZM309.69 516.433C311.269 516.594 312.778 517.162 314.07 518.083L317.84 520.553C318.907 521.405 319.789 522.467 320.43 523.673C321.363 525.132 322.118 526.696 322.68 528.333C322.943 529.727 323.067 531.144 323.05 532.563C323.165 534.112 323.416 535.648 323.8 537.153C324.527 540.099 325.676 542.925 327.21 545.543C327.52 546.083 329.41 545.473 329 544.783C327.308 541.863 326.108 538.684 325.45 535.373C325.132 533.725 324.955 532.052 324.92 530.373C324.88 528.746 324.469 527.149 323.72 525.703C322.36 522.953 321.04 520.603 318.41 518.943C315.78 517.283 313.51 515.423 310.41 515.313C309.68 515.313 308.36 516.313 309.66 516.403L309.69 516.433Z" fill="#0C0631"/>
<path d="M322.72 532.993C324.65 533.053 326.58 532.885 328.47 532.493C330.33 532.063 332.05 531.093 333.98 531.673C335.625 532.171 337.082 533.154 338.16 534.493C339.175 535.956 339.939 537.579 340.42 539.293C340.59 539.793 342.5 539.233 342.35 538.773C341.868 537.091 341.126 535.495 340.15 534.043C339.051 532.61 337.545 531.54 335.83 530.973C334.136 530.464 332.324 530.513 330.66 531.113C329.705 531.451 328.725 531.715 327.73 531.903C326.495 532.083 325.248 532.17 324 532.163C323.515 532.132 323.033 532.262 322.63 532.533C322.39 532.743 322.32 533.003 322.76 533.013L322.72 532.993Z" fill="#0C0631"/>
<path d="M355.6 521.803L347.76 525.633C345.318 527.153 343.012 528.883 340.87 530.803C338.87 532.531 337.069 534.476 335.5 536.603C333.85 538.883 332.63 541.453 330.7 543.523C329.88 544.413 331.7 544.703 332.32 544.073C334.1 542.153 335.26 539.813 336.74 537.673C338.292 535.463 340.105 533.449 342.14 531.673C344.129 529.895 346.256 528.276 348.5 526.833C351.078 525.388 353.732 524.083 356.45 522.923C357.63 522.333 356.57 521.333 355.6 521.813V521.803ZM311.14 761.083C313.67 766.013 315.49 771.253 317.92 776.223C319.946 780.462 322.493 784.433 325.5 788.043C332.213 795.811 340.827 801.703 350.5 805.143C361.19 808.923 372.43 810.933 383.43 813.593C388.89 814.923 394.33 816.353 399.88 817.283C405.549 818.179 411.281 818.617 417.02 818.593C423.42 818.593 429.88 818.933 436.24 818.073C442.6 817.213 449.03 815.633 455.44 814.493C455.77 814.433 456.51 814.253 456.53 813.813C456.55 813.373 456.02 813.303 455.69 813.363C450.15 814.363 444.69 815.653 439.11 816.553C433.416 817.338 427.665 817.639 421.92 817.453C416.299 817.522 410.677 817.295 405.08 816.773C399.5 816.02 393.972 814.917 388.53 813.473C377.74 810.823 366.85 808.643 356.19 805.473C346.105 802.6 336.926 797.187 329.53 789.753C325.888 785.951 322.828 781.631 320.45 776.933C317.7 771.593 315.78 765.933 313.04 760.533C312.69 759.843 310.81 760.463 311.11 761.053L311.14 761.083Z" fill="#0C0631"/>
</g>
<defs>
<clipPath id="clip0_3_53">
<rect width="900" height="900" fill="white"/>
</clipPath>
</defs>
</svg>
