<svg xmlns="http://www.w3.org/2000/svg" viewBox="0 0 947 837.16" xmlns:v="https://vecta.io/nano"><path d="M272.5 650.66a23.13 23.13 0 0 0-9 2c-4 2-14 13-17 14s-5 1-12 3-20 12-29 19S63 742.16 40 762.16s-40 75-40 75h947s-10.5-55.5-36.5-70.5-74-27-94-37-80-27-126-58c0 0-24-15-32-29s-361-27-361-27l-20.11 35.93z" fill="#11bc92"/><path d="M292.5 621.66s-8 27-18 32-23 13-20 25 16 63 59 96 55.5 35.5 89.5 43.5 58 19 126 1c0 0 49.5-9.5 97.5-84.5 0 0 9.73-6.4 18.86-55.7z" fill="#f9cbc0"/><path d="M286.5 267.66l6 175 173 173 124-4 108-207 13-144-15-120-122-85-190 13-84 102-13 97z" fill="#fcd2c5"/><path d="M260 278.16s16 37 17 44 2 30 2 30l18-20s-5-59 2-81 6-19 4-41 40-102 82-106 48 11 77 2 43-20 65-14l1-2 8 2-3-4 12 7-3-7 10 9-3-6 8 7v-10s23-2 31-4a32 32 0 0 1 15 0s5 14 18 17c0 0 12 17 20 20s3 5 14 16 17 12 17 12 23 33 24 66 1 47 3 56-3 54 0 66 6 26 6 26l6-21s5-20 5-26 2-8 2-8 4 10 4 15v8a153.24 153.24 0 0 0 3-28c0-14-2-21-2-21s3 4 4 5 3-21 0-26-3-91-35-145c0 0-3-6-15-11s2-6 2-6a16.93 16.93 0 0 0-11-11c-9-3-47-32-45-44s-14-21-26-22-21-7-23-11l-8 1 6-3s-3-5-12 0c0 0-17 3-40-9 0 0-7-2-45 8s-47 12-62 11-38 3-68 41-29 22-51 81-29 99-34 137zm283.5 5.5c2-2 10-19 34-19s57 10 62 13 21 14 21 14-62-18-88-11-29 3-29 3zm-80-4c-1.65 1.13-40-17-67-9a384.46 384.46 0 0 1-47 11s24-16 43-21 43-10 54-4c9.33 5.09 33 12 17 23z" fill="#0c0631"/><path d="M584.5 404.66s36 30 37 51c0 0 8-30-37-51zm-169-3s-43 20-40 62c0 0-9-49 40-62z" fill="#f4ccc1"/><path d="M471.5 409.66s-3-5 4-3 20 9 21 15-25-12-25-12zm55 11s13-11 16-11a2.94 2.94 0 0 1 3 3s0 4-19 8z" fill="#e0bab3"/><path d="M465.5 373.66c-.3 2.22-15 22-12 26s6 12 6 12-8-9-14-11-17-6-17-6 39-36 37-21z" fill="#f4ccc1"/><g fill="#0c0631"><path d="M611.5 315.16c-.09 2.09-.26 6.14-3 8.5s-6.84 1.76-11 1c-5.85-1.07-15.39-2.82-17-9.5-1-4.15 1.3-9.2 5-11.5 2.38-1.48 4.92-1.32 10-1 7.12.45 11.4.72 14 4 2.24 2.82 2.09 6.42 2 8.5zm-180-7.5c-1.87 6.87-11.87 4.14-18 4-5.53-.13-11.59-.75-13-7.5a11.11 11.11 0 0 1 4-10.5c2.35-1.85 5.26-1.93 11-2 8.82-.11 13.23-.17 16 3 2.27 2.59.82 9.97 0 13z"/><path d="M568.5 310.66s17-10 31-7 27 13 27 13-13 13-45 4c0 0 26 13 49-3 0 0-6-11-31-16 0 0-18-4-31 9zm-120-6s-8-12-29-12a76.71 76.71 0 0 0-37 10s28.5 12.5 55.5 8.5c0 0-39.5 8.5-58.5-8.5 0 0 15-14 41-12s28 14 28 14zm-161 30s-15 7-15 31 3 94 9 105-1 41-1 54-5 95 17 139 60 78 89 76 63 13 66 15 32 7 42 0c0 0 31 18 74-3s82-62 108-143 3-47 27-145c0 0 13-60 4-126 0 0-7 3-8 9s-5 52-13 58-13 79-41 82-17-10-21-20-8-35-27-36-13.22-6-49-6c-2 0-50 22-83-2 0 0-10-13-38-2s-39 13-48 30c0 0-7 13-7 15s-18 16-38-15c-19.45-30.14-30.81-66.45-33-86-1.22-10.84-3.14-35.3-7.5-35.5-.53 0-.94.32-6.5 5.5z"/></g><path d="M401.5 452.66s-17 26-11 48 39 69 66 84 70 22 102-11 32-34 45-101c0 0 3-11-13-10s-67 1-72-7c0 0-13-11-24-2s-16 12-93-1z" fill="#fcd2c5"/><path d="M455.5 521.66c-2 0-13 6-11 20s8 15 8 15a22.23 22.23 0 0 1 0-21c0 0 1 8 1 10s4-6 4-6v8c0-1 6-13 6-13s0 11 2 15 4 12 4 12-4-18-2-22l2-4 1 12 6-7c1-1-1 3-2 9s0 16 0 16-2-12 2-15 5-5 5-5 1 6-1 10a44.17 44.17 0 0 0-3 8s12-6 13-10 6-7 6-7-1 8-3 12 5-2 8-8 3-4 3-4 3 12 0 14 8 0 5-14c0 0 4 6 5 10s7 5 7 5-3-4-3-11v-9s8 6 8 11v3s2-12 0-15-1-7-1-7 7 5 9 11 1 6 1 6 0-13-5-18-4-5-4-5l-6 2a3.49 3.49 0 0 0-2-1c-1 0-15 2-15 2l-12-1-3 1-13-4-8-3z" fill="#0d0942"/><path d="M407 458.16s12 51 85 53 97-43 98-46-123 31-183-7z" fill="#e8aaaa"/><path d="M406.5 458.66s25 36 90 36c0 0 68 0 93-29 0 0-3-12-85 4-25-10.54-41.67-12.15-52.5-11.5-3.16.19-13 1-27 1a341.61 341.61 0 0 1-18.5-.5z" fill="#d69f9f"/><path d="M427.8 477.08s-1.3-4.42-.3-5.42 5 3 5 3 2-11 4-9 7 8 7 8 1-14 4-13 13 9 13 9 2.32-10.1 6.16-9 12.84 11 12.84 11a12.58 12.58 0 0 1 3.5-5.5 12.34 12.34 0 0 1 3-2 53.17 53.17 0 0 1 6 1 54 54 0 0 1 12.5 4.5c18.34-3.85 23-3.59 23.5-2.5 1 2 .5 2.5.5 2.5s6-5 9-5 8 2 8 6 1 4 1 4 2-9 6-10 9-2 7 10c0 0 3-5 5-4s1 6 1 6l-1 5-7 1s0 3-9 2c0 0-17 8-18 3a1 1 0 0 1-1 1c-1 0-21 3-23 0l-1-1v2s-23 1-24-1l-2-4s-1 3-2 3-17-1-17-1l-1-3-2 3s-12-2-13-3a3.1 3.1 0 0 1-1-2l-2 1-1.91.67z" fill="#f7eded"/><path d="M710.5 316.66s24-30 32-9 3 58-11 75c0 0-14 26-16 45 0 0-4 11-10 0s5-111 5-111z" fill="#fcd2c5"/><path d="M717.5 319.66c1-1 17-11 21-4s1 37-4 46l-7 13s10-31 6-40-16-15-16-15z" fill="#e0bab3"/><path d="M268.5 281.66s-24-11-30 18-4 51 9 84 9 39 13 42 18 2 18 2l8-117c-1-2-18-29-18-29z" fill="#fcd2c5"/><path d="M263.5 298.66s-19-15-21 11 3 41 3 41-2-43 3-44 3 27 4 26 2-26 8-26 3-8 3-8zm-15 65s9 29 14 34 5 2 5 2z" fill="#e0bab3"/><path d="M491.5 300.66s11 34 7 45-17 33-17 33-2-12 2-35 10-9 8-43zm54 29s22 22 29 24 15 4 15 4-17-10-19-14-1-4 10 0 37 6 37 6-43-12-55-18-17-2-17-2z" fill="#f4ccc1"/><path d="M232 718.16s6 55 38 71 30 16 30 16-59-49-68-87zm425-6s-9 45-35 68-33 32-33 32 55-23 65-63 3-37 3-37zm-449 15s13 72 39 83a180.05 180.05 0 0 1 44.17 27h-16s-3.17-9-32.17-22-35-88-35-88zm464 7s3 43-17 55-39.4 48-39.4 48h8.59s15.81-28 34.81-42 13-61 13-61zm-52 78s-7 16-39 17-32 0-32 0 54-1 71-17zm-330 0s4 13 31 15 34 2 34 2-59-5-65-17z" fill="#60ddae"/><path d="M534 345.16c0 2 0 36 6 43s15 7 15 13v8s6-8 2-14-10-3-15-15-8-35-8-35z" fill="#f4ccc1"/><g fill="#0c0631"><path d="M284.53 460.94a59.88 59.88 0 0 0-1.82 8.83l-1 8.82a165.92 165.92 0 0 0-.26 18 115.4 115.4 0 0 0 6.4 34.57c2.27 6.48 4.3 13 6.39 19.56a10 10 0 0 1 0-2.5 9.09 9.09 0 0 0 0-2.5l-4.9-15.21c-1.7-5.05-3.4-9.82-4.67-14.87a103.46 103.46 0 0 1-2.67-15.43q-.4-4.21-.55-8.46c0-.76-.07-1.52-.05-2.28 0 .21 0 1.12 0 0v-1.21q.06-2.07.21-4.14c.22-3.13.57-6.26 1-9.37a59.88 59.88 0 0 1 1.82-8.83 9.5 9.5 0 0 0 0-2.5 9.53 9.53 0 0 1 0-2.5z"/><path d="M290.66 500.26c-6.78 6.68-10.76 15.8-13.52 24.78-2.94 9.57-3.66 19.43-3.35 29.4a63 63 0 0 0 2.57 16.18 10.48 10.48 0 0 1 0-2.5 9.5 9.5 0 0 0 0-2.5 61.92 61.92 0 0 1-2.36-12.58 27.48 27.48 0 0 0-.2-3.64v.63-.89c0-.59.06-1.17.1-1.76a75.25 75.25 0 0 1 .76-6.71 79.91 79.91 0 0 1 7.84-24.09 44.62 44.62 0 0 1 8.13-11.32c.27-.27 0-2.11 0-2.5v-1.77a3 3 0 0 1 0-.73z"/><path d="M273.3 526.81c-.23 3-.45 6.34.52 9.25 1.29 3.89 2.91 7.66 4.51 11.43 3.22 7.62 6.47 15.2 10.09 22.64l6.32 12.74a4.26 4.26 0 0 1 0-.73v-1.77-1.77a2 2 0 0 0 0-.73c-4.19-8.4-8.44-16.8-12.22-25.4l-5.41-12.85c-.89-2.13-1.77-4.27-2.55-6.45-.34-.91-.68-1.83-.95-2.76a8.88 8.88 0 0 1-.28-1.13 5.87 5.87 0 0 1-.08-.72c-.08 4.11-.07 5.19.05 3.25.12-1.66-.13-3.35 0-5z"/><path d="M288.11 522.21c-3.52 3.14-3.57 8.8-4.4 13.1-1.33 6.86-2.63 13.73-3.28 20.69a75.16 75.16 0 0 0 .47 19.65 120.07 120.07 0 0 0 5.49 19.4c2.53 7.09 5.33 14.12 6.82 21.52-.32-1.59.33-3.39 0-5A118.9 118.9 0 0 0 288 594.4c-2.1-5.78-4.12-11.58-5.68-17.52a68 68 0 0 1-1.8-9.05c-.11-.92-.2-1.84-.25-2.76 0-.32 0-.64-.05-.95-.1-1.77-.08 2 0 .82.1-1.72.2-3.43.38-5.15.67-6.39 1.84-12.7 3.07-19 .86-4.42.88-10.35 4.49-13.58.26-.23 0-2.13 0-2.5v-1.76a3.08 3.08 0 0 1 0-.74zm-5.11 5.62c-1.3 6.42-2.57 12.86-3.35 19.36a133.24 133.24 0 0 0-.78 19.36 193.77 193.77 0 0 0 4.73 39.21l2.53 10.74c.83 3.77 1.47 7.58 2.49 11.31a11 11 0 0 1 0-2.5 10.45 10.45 0 0 0 0-2.5c-1.56-5.72-2.53-11.61-3.91-17.38s-2.71-11.57-3.61-17.46c-.93-6.1-1.53-12.26-1.89-18.42l-.21-4.4c0-.73-.06-1.47-.08-2.2v-1.45 1-.94c.1-3 .35-6.07.71-9.09.78-6.59 2.07-13.1 3.38-19.6.32-1.61-.32-3.41 0-5z"/><path d="M286.06 538.55c-1.47 2.84-3.41 5.4-4.64 8.36a94.45 94.45 0 0 0-3.24 9.57c-2 6.67-4.31 13.49-5.29 20.41a67.61 67.61 0 0 0-.46 10.26 56.73 56.73 0 0 0 .75 9.39 90 90 0 0 0 5.92 19 100.06 100.06 0 0 0 10.54 19.4 4.16 4.16 0 0 1 0-.73v-3.54c0-.16.07-.61 0-.73a105 105 0 0 1-15.16-32.61 58.23 58.23 0 0 1-1.74-9 47.4 47.4 0 0 1-.22-2.63v-.92 1.6-.93a44.61 44.61 0 0 1 .59-5c1.07-6.21 3.07-12.31 4.86-18.34 1-3.38 2-6.8 3.37-10.06 1.24-3 3.22-5.65 4.72-8.55a7.47 7.47 0 0 0 0-2.5v-1.76a2.65 2.65 0 0 1 0-.74z"/><path d="M283.51 573.79c-.92 3.31-2.54 6.36-3.75 9.57a27.86 27.86 0 0 0-1.73 9.43 85.37 85.37 0 0 0 .28 10.49 97.57 97.57 0 0 0 1.69 10.35 100.87 100.87 0 0 0 2.82 10.39c1.18 3.55 2.65 7 4 10.46 1.31 3.33 2.32 6.76 3.43 10.16a87.61 87.61 0 0 0 4.14 10.33A56.24 56.24 0 0 0 308 673.26a10 10 0 0 1 0-2.5v-1.77c0-.12.06-.66 0-.73a53.35 53.35 0 0 1-11.69-14.58 105.25 105.25 0 0 1-7.42-18.52c-2.06-6.46-5-12.58-6.94-19.08a94.66 94.66 0 0 1-3.76-19.14c0-.49-.07-1-.09-1.46-.12-2.31-.19 3 0 1.11.08-1 .13-1.94.27-2.9a24.25 24.25 0 0 1 1.27-5c1.22-3.36 2.94-6.52 3.9-10a10.44 10.44 0 0 0 0-2.5 10.47 10.47 0 0 1 0-2.5z"/><path d="M283 627.21a145.36 145.36 0 0 0 2.11 15.38q1.32 8 2.9 15.94c1 5 1.84 10.09 3.67 14.84a42.09 42.09 0 0 0 7.22 12.07 37.43 37.43 0 0 0 5.8 5.8 26.48 26.48 0 0 0 6.91 3.46 21.11 21.11 0 0 1 0-2.5 11.5 11.5 0 0 0 0-2.5 29.53 29.53 0 0 1-6.07-2.86 28.15 28.15 0 0 1-5.27-4.84 44.75 44.75 0 0 1-7.78-11.66c-2-4.52-3-9.34-3.94-14.16l-3-15.69c-1-6-2.25-12-2.58-18.1 0-.32 0 .4 0 .25v1.49 3.08z"/><path d="M297.27 650.33c0 6.14-.15 12.27.8 18.36a120.78 120.78 0 0 0 4.27 17.05 103.43 103.43 0 0 0 5 13.91c2 4.16 4.64 8.36 8.56 11a17.47 17.47 0 0 0 8.17 2.71c3.25.29 6.26-1 9.46-1.25.16 0-.08-5 0-5-2.63.2-5.13 1.21-7.77 1.31a17.64 17.64 0 0 1-7.31-1.41c-4.23-1.77-7.28-5.42-9.54-9.3a63.69 63.69 0 0 1-5.13-12.26c-1.64-5.07-3.24-10.18-4.47-15.36a76.4 76.4 0 0 1-1.64-9.14 93.19 93.19 0 0 1-.37-10.57v-2.5 2.5zm11.26 13.83c-.33 3.49-1 6.94-1.23 10.45s-.41 7.5.48 11 3.48 6.55 5.82 9.24a32.4 32.4 0 0 0 4.32 4 10.89 10.89 0 0 0 2.42 1.62 28.35 28.35 0 0 0 3 .83c-.07 0 0-2.29 0-2.5a12.86 12.86 0 0 0 0-2.5 13.48 13.48 0 0 1-4.59-1.79 33.25 33.25 0 0 1-3.68-3.13 38 38 0 0 1-6-7.65 12.88 12.88 0 0 1-1.43-3.9 19.81 19.81 0 0 1-.32-2.54c-.14-1.92-.2 4 0 2.11.06-.49.07-1 .11-1.47.28-2.95.84-5.86 1.11-8.8.16-1.65-.15-3.35 0-5z"/><path d="M302.4 649.87a50.6 50.6 0 0 0-2 20.1 45.34 45.34 0 0 0 2.2 9.89c1 3.21 1.91 6.47 3.09 9.64a41.59 41.59 0 0 0 11 15.83 64.54 64.54 0 0 0 7.4 6.11c2.78 1.94 5.74 3.61 8.69 5.27a78.16 78.16 0 0 1 9.17 5.73 51.37 51.37 0 0 1 8 7.5 5.59 5.59 0 0 1 0-.74v-1.76-1.77c0-.14.07-.63 0-.73a53.2 53.2 0 0 0-13.65-11.25c-5.37-3.13-10.92-5.95-15.72-10-4.47-3.75-8.76-7.89-11.84-12.89-3.23-5.24-4.73-11.47-6.51-17.31a51.46 51.46 0 0 1-1.28-5c-.15-.8-.29-1.6-.38-2.41a24.41 24.41 0 0 1-.16-1.7c-.09-1.27.36-2.34 0 1.61a51.44 51.44 0 0 1 2.09-11.13 9.08 9.08 0 0 0 0-2.5 9.53 9.53 0 0 1 0-2.5z"/><path d="M316.19 686.64a8.32 8.32 0 0 1-4.63-2.08l-4.43-3.54a38.65 38.65 0 0 1-4.28-4.4 25 25 0 0 1-3.62-5 31.39 31.39 0 0 1-1.77-5.88l-1.72-6.41a25 25 0 0 1-.55-3.09c-.26-2.75-.21 4.14 0 1.92l.2-2.09a30.46 30.46 0 0 1 1.44-5.79 9.09 9.09 0 0 0 0-2.5 9.12 9.12 0 0 1 0-2.5 36.8 36.8 0 0 0-.47 21.35l1.54 5.7a17.52 17.52 0 0 0 1.89 5.23 38.94 38.94 0 0 0 7.21 8.31l4.46 3.58s3 2.16 4.77 2.19v-5zM330 707.98c2.8 3.47 4.24 7.68 6.43 11.51a40.81 40.81 0 0 0 7.95 9.84c3 2.77 6.3 5.37 10.25 6.63s8.06 1.53 12.11 2.06c2.68.34 5.35.83 8 1.07a10.36 10.36 0 0 0 3.38 0 5.8 5.8 0 0 0 2.39-1.48c.26-.24 0-2.13 0-2.5v-1.77a3.67 3.67 0 0 1 0-.73 5.62 5.62 0 0 1-4.51 1.55c-2.46-.14-4.9-.54-7.34-.9-4.16-.61-8.4-.84-12.48-1.88a26.08 26.08 0 0 1-10.58-6 43 43 0 0 1-8.2-9.22c-2.74-4.24-4.22-9.19-7.42-13.15a4.13 4.13 0 0 1 0 .73v1.77 1.77c0 .15-.07.62 0 .73zm50 21.45a19.77 19.77 0 0 0 5.29 4.21l6.32 3a62.79 62.79 0 0 0 13.39 4.73 79.54 79.54 0 0 0 14.5 1.81l7.6.2s5.05.36 7.59.34v-5c-2.54 0-5.06-.18-7.59-.34s-5.06-.12-7.6-.2a79.54 79.54 0 0 1-14.5-1.81 62.79 62.79 0 0 1-13.34-4.77l-6.32-3a19.77 19.77 0 0 1-5.29-4.21c.24.24 0 2.12 0 2.5v1.76c0 .14-.06.65 0 .74z"/><path d="M437.72 739.75c-3.76 1.71-7.16 4.14-11 5.72a21.1 21.1 0 0 1-13.05.7 71.28 71.28 0 0 1-13.58-5.1 117.07 117.07 0 0 1-12.73-6.91c-4.63-2.86-9.08-6-13.47-9.22a10.5 10.5 0 0 1 0 2.5c0 .34-.26 2.29 0 2.5a156.14 156.14 0 0 0 24.57 15.35c8 3.83 17.9 8.74 26.85 5.71 4.41-1.48 8.2-4.33 12.41-6.25a11.46 11.46 0 0 0 0-2.5 13.19 13.19 0 0 1 0-2.5z"/><path d="M407.6 735.04c2 1.94 3.74 4.07 5.62 6.1a44.58 44.58 0 0 0 5.73 5.6l6.17 4.28a22.93 22.93 0 0 0 6.18 3.91l8 3.33a35.37 35.37 0 0 0 7.73 1.83 117.26 117.26 0 0 0 16.45.47c3.24 0 6.47-.15 9.69-.51a40.42 40.42 0 0 0 9-1.52 13.75 13.75 0 0 0 0-2.5 17.54 17.54 0 0 1 0-2.5 35.07 35.07 0 0 1-7.63 1.35l-8.9.64a146.8 146.8 0 0 1-16.65-.22 39.17 39.17 0 0 1-8-1.48c-2.64-.8-5.11-2.07-7.67-3.1a25.63 25.63 0 0 1-6.82-3.56 64.74 64.74 0 0 0-6-4.34c-5.15-3.24-8.65-8.58-12.94-12.78a9.57 9.57 0 0 1 0 2.5v1.77c0 .13-.07.65 0 .73zm284.17-224.42c3 3.31 2.06 8.47 3 12.49a34.53 34.53 0 0 1 .78 4c.1.85.13 1.71.2 2.57-.25-2.82 0-1.84 0-1 0 .64-.09 1.29-.15 1.94a72.47 72.47 0 0 1-1.42 8.77c-2.53 11.57-6.5 22.62-12.93 32.63-3.52 5.47-7.34 10.81-9.41 17.05a9.09 9.09 0 0 0 0 2.5 9.11 9.11 0 0 1 0 2.5c2-6 5.64-11.23 9.06-16.52a87.76 87.76 0 0 0 8.78-17.38 114.07 114.07 0 0 0 5.1-18.78 57.81 57.81 0 0 0 1-9.27 69.77 69.77 0 0 0-.23-10c-.19-1.61-.63-3.14-.94-4.72-.27-1.39-.36-2.81-.51-4.21-.26-2.61-.55-5.55-2.37-7.59a5.38 5.38 0 0 1 0 .73v1.77 1.77c0 .14-.07.63 0 .73z"/><path d="M694.06 476.16c3.39 2.37 5.25 6.46 6.41 10.31a34.82 34.82 0 0 1 1.24 6.24c.07.66.13 1.33.17 2 0 .41.06 2.17.06.53s-.05.4-.07.75c0 .73-.1 1.47-.17 2.2-.92 9.38-4.43 17.91-7.7 26.66-.92 2.46-1.69 5-2.81 7.35s-2.38 4.66-3.25 7.13a8.71 8.71 0 0 0 0 2.5 9.12 9.12 0 0 1 0 2.5 76.15 76.15 0 0 1 3.25-7.13c1.12-2.38 1.89-4.89 2.81-7.35 1.92-5.13 4-10.2 5.56-15.48a61.64 61.64 0 0 0 2.37-14.4 67.18 67.18 0 0 0-.64-15.13c-.93-4.93-2.95-10.69-7.23-13.68a11 11 0 0 1 0 2.5c0 .33-.25 2.31 0 2.5zm-6.89 85.78c2.36 2.38 5.3 4.38 6.89 7.42a15.67 15.67 0 0 1 1.43 4.32 22.27 22.27 0 0 1 .32 2.57c.14 1.8.19-4.88 0-2.3 0 .42-.09.83-.16 1.23-1.14 6.59-6.49 12.2-11.08 16.71-3.09 3-6.59 5.61-9.63 8.71-.27.28 0 2.09 0 2.5v1.76c0 .12.08.67 0 .74 3-3 6.42-5.59 9.47-8.56a59.13 59.13 0 0 0 7.62-8.8 19.69 19.69 0 0 0 3.83-10.1c.18-3.77.3-7.83-.84-11.47-1.33-4.29-4.79-6.69-7.82-9.73.23.23 0 2.13 0 2.5v1.72c0 .14-.06.65 0 .74z"/><path d="M684.87 578.02c.22 2.24.67 4.44 1 6.65l.44 3.43c0 .61.08 1.21.11 1.82v1.16-1.28a78.09 78.09 0 0 1-1.82 14.12 257.46 257.46 0 0 1-3 12.33 49.62 49.62 0 0 1-4.69 11.78 23.51 23.51 0 0 1-4 5.29c-1.71 1.6-4 2.41-5.66 4-.27.26 0 2.11 0 2.5v1.77a3 3 0 0 1 0 .73c1.68-1.63 4-2.44 5.66-4a23.28 23.28 0 0 0 4-5.29 52.58 52.58 0 0 0 5.09-13.25c1.27-4.8 2.51-9.65 3.36-14.54a87.42 87.42 0 0 0 1.16-15.15 68.26 68.26 0 0 0-.33-8.34c-.35-2.93-1.05-5.8-1.34-8.73.16 1.65-.16 3.35 0 5z"/><path d="M678.73 602.47v.08a22.89 22.89 0 0 1-1 4l-1.09 4.69-1.75 9a40 40 0 0 1-2.28 8.7 31.85 31.85 0 0 1-4.47 7.05 116.53 116.53 0 0 1-11.34 12.37 47.42 47.42 0 0 1-13.81 9c-5.64 2.41-11.56 4.12-17.09 6.82a11.49 11.49 0 0 0 0 2.5 12.35 12.35 0 0 1 0 2.5c5-2.42 10.23-4 15.34-6.09a49 49 0 0 0 14.25-8.53 111.08 111.08 0 0 0 11.81-12.53 37.23 37.23 0 0 0 4.85-7.07 32.3 32.3 0 0 0 2.52-8.56l2-10.38c.35-1.62.69-3.26 1.17-4.85a15.71 15.71 0 0 0 .92-4.37v-3.42-.9z"/><path d="M668.36 626.28a11.19 11.19 0 0 1 .7 3.62v1.4c0 1.29 0 .67 0-1.87 0 .42 0 .85-.07 1.28a36.65 36.65 0 0 1-1.39 7.11 105.23 105.23 0 0 1-4.69 12.75 25.06 25.06 0 0 1-7.44 10.31c-3.44 2.65-7.5 4.3-11.3 6.35a10.37 10.37 0 0 0 0 2.5 11.05 11.05 0 0 1 0 2.5c3.33-1.79 6.84-3.28 10-5.41a22.79 22.79 0 0 0 7.6-8.78 96 96 0 0 0 4.49-11.09 43 43 0 0 0 2.81-12.25c.06-1.26 0-2.52 0-3.78v-2.23c0 .64 0-.7 0-.89a18.16 18.16 0 0 0-.76-6.52 9.12 9.12 0 0 1 0 2.5 8.05 8.05 0 0 0 0 2.5z"/><path d="M654.74 656.57c.11.83.15 3.24.15 0s0-.88-.12 0a27.11 27.11 0 0 1-.58 3.09 37.73 37.73 0 0 1-2 5.68 100.53 100.53 0 0 1-5.61 10.68 47.85 47.85 0 0 1-7.55 10.47 44.76 44.76 0 0 1-10 7.19 42.8 42.8 0 0 1-13.45 4.93c-.31.06.23 5 0 5a42.45 42.45 0 0 0 13.25-4.82A43.49 43.49 0 0 0 640 690.5c3.25-3.48 5.61-7.69 7.95-11.82a63.68 63.68 0 0 0 5.73-12.23 25.75 25.75 0 0 0 1.25-6.89 48.46 48.46 0 0 0-.17-8c.22 1.64-.21 3.36 0 5z"/><path d="M652 663.38c.19.83.19 1.64.33 2.46 0 .16 0-3.7 0-1.89v1.27 5.05c-.11-3.6-.07-.36-.19.56q-.12.92-.3 1.83a37.77 37.77 0 0 1-1.21 4.47 80.46 80.46 0 0 1-7.14 15.59 95 95 0 0 1-9.67 13.44 31.82 31.82 0 0 1-12.66 9.45 59.43 59.43 0 0 1-8.87 2.44 69.33 69.33 0 0 1-10.29 1.61c-.14 0 .07 5 0 5a66.88 66.88 0 0 0 9.84-1.53 63.77 63.77 0 0 0 8.73-2.32c5.76-2.1 10.05-5.84 14-10.47a92.16 92.16 0 0 0 10.38-14.95 65.26 65.26 0 0 0 6.85-17.23 48.75 48.75 0 0 0 .63-10.8v-2.8c.11 3.09 0 1.09 0 .45v-1.93a22 22 0 0 0-.37-4.65 13.06 13.06 0 0 1 0 2.5 12.28 12.28 0 0 0 0 2.5z"/><path d="M635.34 685.62c-5.69 8.73-9.58 18.52-15.63 27-3 4.25-6.11 8.75-10.1 12.15a43.72 43.72 0 0 1-6.09 4.21 22.89 22.89 0 0 1-7 3 62 62 0 0 1-8.71 1 28.07 28.07 0 0 1-9.36-.75c.07 0 0 2.29 0 2.5a13.71 13.71 0 0 0 0 2.5c5.24 1.46 11 .82 16.3.09 5-.69 9.39-3.41 13.34-6.38 4.17-3.14 7.32-7.44 10.36-11.62a115.76 115.76 0 0 0 8.27-13.45c2.75-5.16 5.38-10.38 8.58-15.28.29-.45 0-2 0-2.5v-1.77c0-.15-.09-.62 0-.73zm4.4 2.48s.14-1.92-.06-1.09c-.07.29-.07.62-.12.91l-.25 1.36c-.24 1.12-.58 2.22-.92 3.31l-2 5.75a83.79 83.79 0 0 1-5.49 11.17 91.86 91.86 0 0 1-14.76 18.65c-2.83 2.81-5.82 5.44-8.86 8a45.1 45.1 0 0 1-9.91 6.81 31.92 31.92 0 0 1-11.74 2.46c-4.41.25-8.83.35-13.25.41l-15.35.05h-7.39c-1.09 0-2.17 0-3.26-.05a3.08 3.08 0 0 0-2.27.39c-.26.22 0 2.15 0 2.5s.28 2.28 0 2.5c1-.87 3.3-.34 4.55-.34h7.14 14.1c4.7 0 9.26-.14 13.89-.35 4.18-.19 8.42-.48 12.35-2a39.24 39.24 0 0 0 10.47-6.77c3.11-2.6 6.16-5.28 9.06-8.12a92.25 92.25 0 0 0 15.41-19.49 83.17 83.17 0 0 0 6.15-13.1 51.45 51.45 0 0 0 2.08-6.74 34.3 34.3 0 0 0 .48-7.51v-1.49c0 .1 0-.55 0-.25a28.57 28.57 0 0 0 0 3.07z"/><path d="M600.62 725.16a20.21 20.21 0 0 0-2.07 3.58 28.71 28.71 0 0 1-2.48 3.79 53 53 0 0 1-6 6.6 98.77 98.77 0 0 1-14.19 11.37c-5.24 3.38-11 5.78-17.33 5.71a141.26 141.26 0 0 1-20.21-2c-3.78-.6-7.55-1.29-11.28-2.16s-7.65-2-11.53-2.76c.29 0-.36 4.93 0 5 6.78 1.36 13.39 3.33 20.22 4.49a148.44 148.44 0 0 0 20.48 2.33 30.54 30.54 0 0 0 9.34-.82 35.08 35.08 0 0 0 8.49-3.71 91.08 91.08 0 0 0 14.28-10.9 60.13 60.13 0 0 0 7.1-7.35 32.94 32.94 0 0 0 2.87-4.15 26.34 26.34 0 0 1 2.33-4.06c.28-.35 0-2.05 0-2.5v-1.77c0-.13-.08-.65 0-.73zm-221.96 9.71c.44 4.59 4.34 8.14 7.83 10.73a15.67 15.67 0 0 0 6.34 2.94 43.92 43.92 0 0 0 7.24.59c5.14.17 10.27.69 15.41.45 5.37-.25 10.52-1.65 15.65-3.16 5.81-1.69 11.54-3.63 17.32-5.42a15.83 15.83 0 0 0 0-2.5 19.16 19.16 0 0 1 0-2.5l-15.49 4.88c-5 1.51-10.15 3.1-15.39 3.56a111.32 111.32 0 0 1-15.6-.23c-4.8-.25-9.77 0-14-2.6a29.34 29.34 0 0 1-6-5.07 11.71 11.71 0 0 1-3.3-6.67c.16 1.65-.16 3.35 0 5zm140.7 22.4c-3.86.32-7.69.86-11.51 1.51q-2.64.45-5.26 1a32.43 32.43 0 0 1-6 1c-7.09 0-13.52-4.57-18.65-9-.6-.51-2.41.27-1.78.81 5.3 4.57 11.47 8.85 18.68 9.43a20.16 20.16 0 0 0 5.47-.52l6.39-1.21c4.13-.72 8.28-1.32 12.46-1.68 1-.08 1.54-1.39.21-1.27zM296.89 634.62a50 50 0 0 0-9.09 9c-1 1.17-1.9 2.42-1.67 4a8.43 8.43 0 0 0 2.51 4.41c2.44 2.48 5.78 3.85 8.93 5.17a53.92 53.92 0 0 0 12.51 3.71 110.51 110.51 0 0 0 15.53 1.05c.38 0 1.11-.05 1.37-.37s.36-.45-.12-.46c-8.66-.14-17.55-.48-25.65-3.84a44.84 44.84 0 0 1-8.83-4.31c-2.46-1.74-5.69-5.23-3.69-8.37a37.55 37.55 0 0 1 4.27-5.08 36.07 36.07 0 0 1 5.42-4.83c.8-.57-1.12-.36-1.49-.1zm-16.54-66.84a50.31 50.31 0 0 1-1.61 5.43l-1.31 5.56c-.73 3.58-1.77 7.19-1.41 10.88a35.81 35.81 0 0 0 3.31 11 57 57 0 0 0 5.51 9.94l8.09 11.44c.31.48 2.09-.28 1.93-.51-4.32-6.47-9.45-12.46-12.76-19.54a45.2 45.2 0 0 1-3.86-10.8c-.72-3.86 0-7.47.79-11.25.46-2.12.86-4.25 1.43-6.35a58.12 58.12 0 0 0 1.79-6.1c.07-.46-1.83-.13-1.9.34z"/><path d="M271.48 554.25a66.42 66.42 0 0 0 3.34 10 42.85 42.85 0 0 0 5.07 8.28 162.36 162.36 0 0 0 6.76 8.27c2.34 2.67 4.93 4.78 7.36 7.22.36.37 2.14-.34 1.81-.67-2.36-2.39-5-4.51-7.2-7s-4.5-5.35-6.64-8.11a42.2 42.2 0 0 1-5.23-8.47 66.42 66.42 0 0 1-3.34-10c-.12-.46-2.06 0-1.93.52zm423.65-56.01c0 4.89.37 9.88 0 14.76a18.58 18.58 0 0 1-5.42 11.64 102.7 102.7 0 0 1-9.63 8.4 76 76 0 0 1-11.43 8c-1.15.64-.11 1.6.84 1.08 6.51-3.56 12.18-8.4 17.8-13.2a37.07 37.07 0 0 0 6.61-6.87 19.15 19.15 0 0 0 3.2-9.89c.28-4.67 0-9.4 0-14.07 0-1-2-.67-2 .16z"/><path d="M700.76 464.21l1.47 6.51a21.88 21.88 0 0 1 .08 7 101.31 101.31 0 0 1-2.43 13.63c-2.31 8-8.08 14.74-13.58 20.85-1.61 1.79-3.18 3.6-4.63 5.52a31 31 0 0 1-4.71 5.32c-.8.68 1.11.54 1.52.2 3.24-2.71 5.46-6.41 8.24-9.56 3-3.36 5.93-6.69 8.6-10.3a41.2 41.2 0 0 0 5.89-10.49c1.6-4.45 2-9.2 2.77-13.83a26.45 26.45 0 0 0 .39-7.53c-.34-2.67-1.12-5.26-1.68-7.88-.12-.55-2.06-.08-1.93.52zm-417.7 5.61c0 2.33-.42 4.64-.56 7l-.36 7a83.23 83.23 0 0 0 .26 14.12 73.09 73.09 0 0 0 8.6 25.46c2.43 4.38 5.17 8.58 7.87 12.81.29.46 2.07-.3 1.93-.52-4.77-7.47-9.7-14.93-12.67-23.34a77.77 77.77 0 0 1-3.54-13.08 71.56 71.56 0 0 1-.61-14c.08-2.59.21-5.18.36-7.76s.64-5.45.63-8.17c0-.29-1.94 0-1.93.51zm.04-11.08a59 59 0 0 0-6.24 16.19 82 82 0 0 0-1.9 8.77 46 46 0 0 0-.2 9.53 180.83 180.83 0 0 0 2.66 20.21c1.24 6.79 2.4 13.54 4.68 20.08 1.26 3.6 2.66 7.15 4.15 10.65.73 1.72 1.45 3.44 2.05 5.22a10.15 10.15 0 0 0 2 3.83c.59.62 2.42-.15 1.78-.84a9.16 9.16 0 0 1-1.83-3.51c-.55-1.62-1.19-3.2-1.86-4.78-1.27-3-2.48-6-3.6-9a81.28 81.28 0 0 1-3-9.74c-.73-3.15-1.23-6.34-1.84-9.5-1.27-6.57-2.27-13.17-2.93-19.83a60.86 60.86 0 0 1-.34-9.64 54.58 54.58 0 0 1 1.59-9.15c1.48-6.32 3.34-12.68 6.72-18.27.55-.9-1.41-.91-1.84-.2z"/><path d="M279 457.97c-.68 4.38-1.87 8.67-2.4 13.07a67.49 67.49 0 0 0-.23 12.87 80.5 80.5 0 0 0 2.09 12.81c1 4.28 2.26 8.51 3 12.85.89 4.93.66 10.06 2.09 14.89.15.53 2.08 0 1.93-.52-1.25-4.23-1.14-8.66-1.77-13a126.81 126.81 0 0 0-2.84-12.64 77.69 77.69 0 0 1-2.56-25.88c.43-5 1.8-9.81 2.56-14.75.09-.58-1.83-.24-1.91.3zm396.44-10.6a11.19 11.19 0 0 0-3.06 3.33l-2.64 4.85c-2.14 3.32-4.87 6.19-6.94 9.57a63.76 63.76 0 0 0-8 22.77c-.76 4.61-2 9.23-2 13.93 0 .41 1.93.1 1.93-.51 0-4.26 1.14-8.37 1.81-12.54a88.4 88.4 0 0 1 2.69-11.47 53.82 53.82 0 0 1 4.4-10.55 81 81 0 0 1 6.56-9.36 34 34 0 0 0 3.09-5 28.62 28.62 0 0 1 1.44-2.6 9 9 0 0 1 2.26-2.26c.8-.62-1.11-.44-1.5-.14zm-50.94 33.35a4.13 4.13 0 0 0 1.53 1.76 13.05 13.05 0 0 1 2.08 1.85 64.19 64.19 0 0 1 3.89 5.36l3.78 5.19a14.51 14.51 0 0 0 2.22 2.28l2.61 2c.38.33 2.1-.41 1.82-.66a37.22 37.22 0 0 1-4.57-4c-1.47-1.77-2.72-3.71-4.06-5.57l-3.51-4.88a11.92 11.92 0 0 0-2-1.91 4.63 4.63 0 0 1-1.83-1.92c-.16-.44-2.07.15-1.93.52zm-290.81-27.29a9.14 9.14 0 0 1 4.38 1.65l3.77 2.47a10 10 0 0 1 2.59 3.12 21.75 21.75 0 0 1 2.25 4.66 21.4 21.4 0 0 1 .37 4.23 26.47 26.47 0 0 0 .75 4.59 31.56 31.56 0 0 0 3.41 8.39c.31.54 2.2-.07 1.79-.76a30.72 30.72 0 0 1-3.55-9.41 29.62 29.62 0 0 1-.53-5 10.72 10.72 0 0 0-1.2-4.67c-1.36-2.75-2.68-5.1-5.31-6.76s-4.9-3.52-8-3.63c-.73 0-2.05 1-.75 1.09z"/><path d="M346.72 469.99a24.62 24.62 0 0 0 5.75-.5c1.86-.43 3.58-1.4 5.51-.82a8.54 8.54 0 0 1 4.18 2.82 16 16 0 0 1 2.26 4.8c.17.5 2.08-.06 1.93-.52a16.73 16.73 0 0 0-2.2-4.73 9 9 0 0 0-4.32-3.07 8.24 8.24 0 0 0-5.17.14 19.8 19.8 0 0 1-2.93.79 25 25 0 0 1-3.73.26 2.2 2.2 0 0 0-1.37.37c-.24.21-.31.47.13.48z"/><path d="M379.6 458.8l-7.84 3.83a49.56 49.56 0 0 0-6.89 5.17 35.54 35.54 0 0 0-5.37 5.8c-1.65 2.28-2.87 4.85-4.8 6.92-.82.89 1 1.18 1.62.55 1.78-1.92 2.94-4.26 4.42-6.4a33.54 33.54 0 0 1 5.4-6 50.54 50.54 0 0 1 6.36-4.84 82.48 82.48 0 0 1 7.95-3.91c1.18-.59.12-1.59-.85-1.11zm-44.46 239.28c2.53 4.93 4.35 10.17 6.78 15.14a56.63 56.63 0 0 0 7.58 11.82 59.32 59.32 0 0 0 25 17.1c10.69 3.78 21.93 5.79 32.93 8.45 5.46 1.33 10.9 2.76 16.45 3.69a106.93 106.93 0 0 0 17.14 1.31c6.4 0 12.86.34 19.22-.52s12.79-2.44 19.2-3.58c.33-.06 1.07-.24 1.09-.68s-.51-.51-.84-.45c-5.54 1-11 2.29-16.58 3.19a101.87 101.87 0 0 1-17.19.9 160.5 160.5 0 0 1-16.84-.68 135 135 0 0 1-16.55-3.3c-10.79-2.65-21.68-4.83-32.34-8a61.3 61.3 0 0 1-26.66-15.72 53.42 53.42 0 0 1-9.08-12.82c-2.75-5.34-4.67-11-7.41-16.4-.35-.69-2.23-.07-1.93.52z"/></g></svg>