<svg xmlns="http://www.w3.org/2000/svg" viewBox="0 0 741.2 806" xmlns:v="https://vecta.io/nano"><path d="M228.3 332s3 27 5 36 4 44 9 51 11 25 19 28 26 3 29 0 31-55 32-56 22-25 31-29 33-19 39-47c.9-4-9-28-9-28s-50 40-66 46-89-1-89-1z" fill="#ce8d77"/><path d="M235.3 383s19 17 22 24-7 14-8 16-14-13-14-20v-20zm104-43s-12 10-17 17-5 21 0 26 22 8 26 9 56-71 55-76-9-18-16-15-48 39-48 39z" fill="#b27969"/><path d="M237.3 329c-9 2-27 16-30 26s-14 40-9 48-9 135-8 150S143 723.4 143 723.4L128.3 799v7h193l24-304-6-132 6-7s-19 26-32 36-39 48-39 48-28-25-28-33-8-37-10-44-6-30 0-35 1-6 1-6z" fill="#674def"/><path d="M263.3 451L252 509.5l-27.6 147.3c-3.9 22.9-24.5 99.5-25.3 106.5s-3.8 41.8-3.8 41.8h26.1s25.3-103.5 26.8-123.4 16.1-99.5 17.6-108.5l18.4-107.5c2.3-9 1.1-9.7 1.1-13.7s-22-1-22-1z" fill="#5932c4"/><g fill="#280c1b"><ellipse cx="271.3" cy="472.5" rx="5" ry="7.5"/><circle cx="252.3" cy="581" r="8"/><circle cx="230.8" cy="688.5" r="6.5"/><circle cx="207.8" cy="797.5" r="6.5"/></g><path d="M321.3 806h288.3l-26.3-235c0-4-179-62-179-62l-77 65-6 115c0 22-8 117-8 117h8z" fill="#c1fced"/><path d="M460.3 597c5 22 7 48 7 73s-18 95-18 109 20-67 23-80 2-99 0-106-5-8-7-4c-1.4 2.8-3.1 5.5-5 8zm96 112c0 3-20 57-25 68s-10 27-10 27 17-28 17-31 18-64 18-64zm2-8s2 20 0 32-20 73-20 73 34.3-77.8 33.1-85.9-13.1-19.1-13.1-19.1zm18 105l5-44c1-5 24 5 26 11s-5 33-5 33h-26zm-30-168s-7 10-8 17 5 9 8 15 18 14 18 14l-18-46zm-145-41c-8.8-12.2-5 136-10 151s-15 48-15 48 16 4 19-5 14-183 6-194z" fill="#bbf2e2"/><path d="M392.3 273s0 25-5 32-5 16-7 21-25 22-35 32-16-3-17 15 7 115 4 132-6 68-4 72 48 3 56 0 52-4 59-1 62-8 65-5 15 4 17 15 8 11 8 11 10 48 15 61 8 27 15 38 4 16 7 16-2 45 8 54 13 17 22 13-6 8-6 14 6 7 6 7l-3 6h138V663l-44-97c-8-16-60-145-69-151s-36-22-45-27-142-48-148-53-15-11-19-32-18-30-18-30z" fill="#11bc92"/><path d="M38.3 806l10-108v-86s15-76 25-78 117 45 117 45-13.2 62.7-18 79c-5 17-29 148-29 148h-105z" fill="#c1fced"/><path d="M113.3 663l-24 110v31s-12-58 24-141zm-4-87c0 3-13 30-13 40s-3 28-3 28 16-45 20-52 8-13 8-13l-12-3zm-22 16c3 6-12 75-13 88s-10 48-10 48 1-88 3-99l9-48c1-2 17-5 17-5l-6 16zm78-3c-.3 1-35 103-41 136l-8 48s38-157 54-184c0 0-4-3-5 0z" fill="#bbf2e2"/><path d="M7.3 806s-8-32 0-36-2-4-2-12 13-18 11-21-15-12-13-18 19-38 22-65 12-20 17-62 26-116 35-130 36-40 36-40l74-3 3 118v41s-16 0-29-4-22-9-31-6-28-5-30-5 0 4-4 5-24-5-26-3-6 54-10 67-4 72-4 81 2 35 1 45-7 48-10 48h-40z" fill="#11bc92"/><path d="M509.3 423s21 106 18 116 0 34 0 34 11-48 5-86-3-66-4-76-10-29-11-19-8 31-8 31zm74 99c1 3 0 71-5 81s-16 29-16 37-8 20 0 18 11-30 21-62 0-74 0-74zm-3 105c-6 1-13 41-12 49s4 25 5 28 7-39 10-53 3-25-3-24zm7 131s73-36 85-33 27 7 17 9-36 3-43 7-34 12-38 17-5 13-11 13-10-13-10-13zm70-10c3-2 63-15 67-13s11 0 11 0v13s-33-5-48 0-27 8-30 7 0-7 0-7zm8 23c1.2-1.2 18.2-4.7 32.5-7.2 9.1-1.6 17.2-2.8 19.5-2.8 6 0 28 9 15 10s-67 0-67 0zm-63 24c3-2 37-19 38-15s-33 18-33 18l-5 3v-6zm-183-409s-4 45-7 63-4 46-6 64-3 34-3 34 1-142 16-161zm-28 45c3.3-3.8-18 44-23 60-3.1 10.1-5.5 20.5-7 31 0 0 0-57 30-91zm-245 18c0 3-14 26-18 41s-15 40-15 40v13s54-70 54-81-21-13-21-13zm26 38c0 3-15 24-10 36s15 38 15 38 10-26 8-37-13-37-13-37zm-98 9c-1 1-9 32-7 38 1.4 4.6 2.4 9.3 3 14l4-52zm-19 60c-1 7-8 36-5 45s5 35 5 35 12-61 8-69-8-11-8-11zM17 719l27.8 16.1s13.9 2.8 6.2 5.7-31.6-18-34-17 0-4.8 0-4.8zm-.7 29s22-7 24-6 13 6 13 6h-37zm4 25c-3 3-3 11-4 10s36 0 37-5-13-5-19-5h-14zm0 32l23-14s5-9 4 0-27 14-27 14z" fill="#11a880"/><path d="M214.3 344l-61 37c-10 7-35 9-43 17s-18 18 0 33 67 49 65 66 14 88 14 88 11-95 16-112 8-42 3-50-10-22-5-41 11-38 11-38z" fill="#bbf2e2"/><path d="M389.3 195s-1-15 6-16 11 2 12 14-6 29-3 38 9 17 3 19-11 4-13 1-5-20-5-20l-4-17 4-19zm-201 10s-2-10-5-13-8-4-8 0 2 21 2 23-1 20 0 24-2 15 0 19 8 5 11 3 5-10 5-10v-32l-5-14z" fill="#ce8d77"/><path d="M392.3 203s10 2 9 6-1 14-4 15-5-2-5-5-3-5-3-5l1-11h2zm3-15s5 13 8 16c0 0 2-19 0-20s-7 0-8 4zm-209 25s-5 4-5 7 5 9 5 11 2 4 2 0-2-18-2-18zm-3-11s-2-5-3-3-1 12-1 13 4-10 4-10zm0 39s-4 7-2 9 0 3 0 3-5-5 2-12z" fill="#af7768"/><path d="M188.9 128.4V187l5.7 90.7c1.9 15.1 39.7 51 39.7 51L308 340l56.7-26.5 22.7-32.1L391 255l-3.8-102-3.8-49.1-51-43.4-83.1-5.7-47.2 37.8-13.2 35.8z" fill="#ce8d77"/><path d="M315.3 220s29 22 31 27-1 12-3 14-4 9-4 12 6-13 9-15 3-7 1-11-25-27-28-28-9-4-8-2c.6 1.1 1.2 2.1 2 3zm-52 23c1.1.9-6-13-1-18 2.8-2.6 5.1-5.7 7-9 0 0-12 5-14 12s-17 22-18 28c-.6 3.3-.6 6.7 0 10 0 0 9-26 18-29l3-3c1.6-1.6 1 6 5 9z" fill="#c68175"/><path d="M317.3 241s-11-2-16 6c0 0 12-4 16-6zm-32 8s-8-11-22-5c0 0 16 4 22 5z" fill="#af7768"/><path d="M370.3 233c-1.3 6.8-2.9 13.4-5 20-3 9 0 9 0 9s10-14 10-20c0-3.6-1.9-7-5-9zm-59-44s11 7 34 5c0 0-22 6-34-5zm-55 9s-20 10-36 0c0 0 13 7 36 0z" fill="#c68175"/><path d="M319.3 174s21-12 35 5c0 0-11-12-35-5zm-59 7s-20-14-38 6c0 0 15-25 38-6z" fill="#bf7c73"/><path d="M320.3 240s4-12-3-20c0 0 14 9 3 20z" fill="#c68175"/><path d="M386.3 207c0 1 3 22 0 41s-16 46-29 48-14-2-15-7 0-20 2-24 10-14-1-19-35-2-37 0c-1.4 1.3-3.1 2.3-5 3 0 0-9 7-18-1s-47 5-47 11 1 6 4 11 6 27 4 31-8 18-14 12-25-33-30-39-8-40-7-45 0-13 0-13l-3 47c-1 13 4 33 11 42s14 21 20 27 22 20 49 24 64 2 84-12 33-35 36-47 2-49 2-56-5-39-5-39l-1 5zm-73-48s4-8 10-10 25-3 29-1 13 9 14 11-3 0-8-1a60.54 60.54 0 0 0-19 0c-5.3 1-10.6 1.7-16 2-3 0-9 0-10-1zm-58 2c1.6.6 3.4-.3 4-1.9v-.1c1-3-2-9-4-9s-30 1-32 2-12 14-12 16 8 1 9 0 12-5 15-6 20-1 20-1z" fill="#0c0631"/><path d="M308.3 293c-2.3 3.5-4.3 7.2-6 11-2 5 0 14 5 14s15 4 18-4 7.2-28.5 10-36c3-8 7-25-1-25s-28 2-37 8-18 1-18 1-32-3-33 5 9 42 15 48 8 8 12 4 3-23 0-25c0 0 12 9 35-1z" fill="#ce8d77"/><path d="M270.3 277c-1.8-2.6-2.5-5.9-2-9 0 0-12-6-16 1 0 0 6 7 18 8zm46-15s6 7 4 11c0 0 9-6 12-10 0 0-5-5-16-1z" fill="#27273f"/><path d="M265.3 267s-5 6-1 9 17 6 36 3c17.3-2.7 22-6 22-8s1-5-1-6-4-4-7-3-19.8 7-23 7c-4 0-26-2-26-2z" fill="#d8b29b"/><path d="M325.3 178s-2 5 0 7 11 2 12 0c1.3-2.6 1.9-6.3 0-8-2.3-2.2-7.2-.6-9 0l-3 1zm-76 12s3-6 0-9l-5-1-6 1s-1 6 1 8 4 2 10 1z"/><path d="M314.3 185c4.3-4.3 9.9-7.2 16-8 7.5-.9 15.1 1.3 21 6 0 0-13 3-15 3 0 0 11 0 18-2-4.7-5.1-11.1-8.3-18-9-14.7-1.4-24.2 10-25 11 0 0-2 0 12 1 0 0-8-1-9-2zm-52 2s-21-15-36 2c0 0 8 1 11 1 0 0-10 1-13 0 0 0 11-24 42-3 0 0-9 3-16 3 0 0 12-2 12-3zm123 22.7s-7.5-30.2-5.7-34 0-32.1-9.5-43.4-15.1-24.6-17-32.1-32-24.6-62.2-15.2c0 0-9.5 1.9-13.2 0s-37.8-18.9-58.6 17c0 0-5.7 15.1-13.2 24.6 0 0 1.9 13.2-7.6 35.9 0 0-3.8 5.7-3.8 24.6s0 28.3-1.9 35.9c0 0-3.8-22.7-9.4-30.2s-9.4-26.4-7.6-51 11.3-47.2 13.2-51 3.8-24.6 7.6-34 22.7-30.2 24.6-28.3l1.9-15.1s7.6-1.9 7.6 1.9l1.9-1.9c2.6 1.7 5.2 3.6 7.6 5.7 1.9 1.9 11.3-3.8 13.2-3.8s1.9-5.7 1.9-5.7l11.3 3.8v-4l5.7 3.8h7.6V9.4l9.4 11.3 13.2-11.3v15.1s13.2-1.9 17 3.8 17-3.8 17-3.8l3.8-3.8s5.7 9.4 9.5 15.1 17 15.1 17 15.1 11.3 9.5 11.3 13.2c0 3.8 15.1 3.8 15.1 3.8s-7.5 11.3-11.3 13.2c0 0 20.8 7.6 22.7 30.2v7.6l-7.5-7.6s5.7 20.8 5.7 35.9c-1.1 4.3-1.7 8.8-1.9 13.2 0 5.7 4.9 22.4 4.9 22.4s-8.7-9.2-13 0c-5.1 10.8-3.2 28.6-3.2 28.6l-4.1-1.7z" fill="#0c0631"/><path d="M253.5 19.5l.9-.5c-.4 0-.7.2-.9.5z" fill="#ce8d77"/><path d="M357.6 53.4c1.3.2 2.6.7 3.7 1.6-.6-1.4-2.2-2-3.7-1.6zM183.3 128c-2.4 5.1-4.1 10.5-5 16-1 8 2 26 2 26s0-26 1-28l2 15c1 7 6 9 6 9s-7-9-6-38zm193 6s7 20 7 29v18s5-14 4-18c-.5-1.6-.8-3.3-1-5 0 0 5 7 5 8s-3-9-4-13 1-15 1-15l-3 9v-8l-3 7s-1-7 0-12-2-13-2-13v10l-3-3 1 6c-1-3.5-2.3-6.8-4-10-3-6-4-6-4-6l6 16zm-168-62s6 13 5 22-9 25-9 25-2-9 0-23 4-24 4-24zm8-30s-1 7-8 13-5 20-5 20-1-17 0-19 13-14 13-14zm141 19s-3 0-5 11-2 16-2 16l7-27zm4 5c-3.6 1.9-5.3 6.1-4 10a27.67 27.67 0 0 1 0 14s6-5 4-12a20.45 20.45 0 0 1 0-12zm-132-40s1 15 5 27 6 15 9 14 11-3 14 0c-1.1-6.6-3.9-12.8-8-18-7-9-12-13-13-21l-1-9s-1 10-1 12-5-5-5-5zm28-5s-1 8 5 10 20 0 24 2 9-9 9-9-2 1-7 3-7-5-10-7-3-1-3-1l2 5s2-4-5-6l-7-2 4 6a12.73 12.73 0 0 0-4-4c-1.8-1.2-3.5-2.5-5-4l2 6-3-2-2 3zm77 10s-6 9-13 11-11 20-10 23-3 7-3 7 8-7 14-2 9 6 9 6 0-1-1-9 13-21 13-21-13 3-15 6 6-10 8-14c1.3-2.8 1.9-5.9 2-9 0 0-1 4-3 6l-3 3 2-7zm-80 6s1 6 8 16 14 20 19 19 11 0 21-24c0 0 0-7-15 0s-24-17-33-11z" fill="#232142"/></svg>