<svg xmlns="http://www.w3.org/2000/svg" width="1018" height="1018" fill="none" xmlns:v="https://vecta.io/nano"><g clip-path="url(#A)"><path d="M735 502.167s-10 58.114-17 87.171-11 70.138-5 102.201-15 167.328-15 169.332-152 157.309-152 157.309l-195-31.061-77-109.214 61-60.118 16-20.04s17-15.029 15-32.063-8-144.283-15-156.307 373-112.22 373-112.22l11 5.01z" fill="#dfa69d"/><path d="M363 694.545c.83-7.175-15 85.167-20 104.204s25 113.223 42 124.244 55.67 37.294 55.67 37.294S401 884.919 393 851.854s-38-88.174-30-157.309zm291 104.204s-43 33.065-65 56.111l-78.83 81.9S497 954.054 510 950.047s101-72.142 103-72.142 41-79.156 41-79.156z" fill="#cc9792"/><path d="M1018 861.873s-54-39.076-90-51.1-80-45.089-93-46.091-33-8.015-33-8.015-89.75-132.15-91-125.246c-2 11.021 0 14.027-1 25.049s-13 57.112-36 100.197-84 129.253-101 142.279-85 51.1-110 79.156c0 0-17-26.052-34-32.063 0 0-27-47.093-52-65.128 0 0-12-20.38-9-90.177 3-69.136-3-79.156-7-107.211-1-6.944-3-9.018-15 4.008-8.5 9.228-39 61.12-47 75.147 0 0-33 3.006-49 10.02s-35 13.026-47 15.03-33 13.025-46 19.037-56 13.026-67 22.043-38 1.002-51 6.012-39 50.099-39 50.099v435.851h1018V861.873z" fill="#5932c4"/><path d="M469.5 1017.18c7.456 0 13.5-5.38 13.5-12.03 0-6.636-6.044-12.019-13.5-12.019s-13.5 5.383-13.5 12.019c0 6.65 6.044 12.03 13.5 12.03z" fill="#34288c"/><g fill="#482daa"><path d="M823 1320.77l76-166.32c9-19.04 76-152.3 79-159.315s26-42.083 31-44.087c3.23-1.162 5.77-1.472 9-.31v14.548s-9 .792-19 17.825-36 65.129-48 86.169-29 66.13-35 76.15-41 93.18-50 107.21-37 68.13-37 68.13h-6zm78.68-442.865c-16.65 10.591-57.43 29.137-73.25 52.974S776 1004.15 776 1004.15l106.53-86.517C894.18 906.16 910 886.742 910 886.742l-8.32-8.837zm-398.1 189.835c-3.4 3.61-32.08 72.41-34 90.51-1.92 18.09-15.58 69.51-15.58 74.58s1.94 18.83 5.83 11.58c3.89-7.24 46.67-112.22 47.64-129.61s16.53-74.58 16.53-74.58l-20.42 27.52zM128 883.917c-3.88-10.361-15 60.118-25 89.175s2 93.178 3 108.208 28-181.352 22-197.383h0zm-52-10.02c4 8.016 15 29.057 14 53.104s4 268.529 0 279.549-19-152.3-25-181.36c-6-29.053-20-62.118-18-68.13l29-83.163h0zM52 1152.44c.52 2.63 6 23.05 11.63 43.99L76 1241.62c4 14.03 29 79.15 29 79.15h9s-30-55.1-31-72.14c-1-17.03-18-90.17-19-96.19-1-6.01-37-130.25-37-130.25l14 69.13c4 18.04-40-51.1-40-51.1v17.04s47 51.1 46 54.1c-1 3.01 0 24.05 0 24.05l-46-44.09v32.07l51 29.05zm-51 14.03s64 90.18 68 120.24 6 34.06 6 34.06h17c-2 0-46-141.27-91-154.3zm384.88-92.46c4.12 9.3-18.88 138.55-21.88 158.59s-6 88.17-6 88.17h7s14-187.36 36-238.46l33-78.16s-15 11.02-23 28.06c-8 17.03-25.12 41.8-25.12 41.8zm95.12-91.9c3-1.002 28-22.044 36-27.054s63-8.015 96-40.078 27-29.057 35-41.081 43-14.028 52-13.026 110 7.014 128 0c5-1.002 20.25 5.231 20.25 5.231S819 867.885 804 873.897s-80-2.004-98 0-41 24.047-65 42.083-49 45.088-75 51.1-41 6.012-61 15.03-24 0-24 0zm-47-9.018c-15-8.016-49-22.044-56-23.045s-22-30.06-27-27.054-29-15.029-33-15.029-33-16.032-28-47.093c0 0 4-30.059-25-31.061 0 0-12 8.016-4 18.036s-13 6.012-16 13.025 10 6.012 10 6.012 9-17.033 14-6.012 31 48.095 38 56.111 22 7.013 38 18.035 35 33.065 46 28.055 43 10.02 43 10.02z"/><path d="M245 847.846c-5 12.023 0 13.025 0 13.025l39-70.138c2-5.009-34 45.089-39 57.113zm584-49.097c-3.79-4.439 19 27.053 19 47.093s6 15.029 6 15.029 13-16.031 32-25.049 11-10.02 11-10.02-56-13.025-68-27.053z"/></g><path d="M735 386.94c0-1.002 32-20.039 32-20.039l8 8.016-17 33.065-22 22.043s-11-18.036-11-19.038 10-24.047 10-24.047z" fill="#dfa69d"/><path d="M351 638.434c5.063 18.27 13.177 35.548 24 51.101 18.52 26.522 40 40.58 58 52.102 23.6 15.11 35.4 22.675 52 24.047 25 2.075 45.06-9.729 72-26.051 20-12.144 32.67-23.045 47-35.069 80.93-68.133 84.45-58.585 93-77.151 6-13.026 34-105.207 33-122.24-2.18-37.163-119.66 103.062-292 129.254a419.85 419.85 0 0 1-87 4.007h0z" fill="#cc9792"/><path d="M750 293.757c0-5.01-44-157.309-44-157.309L573 62.303 387 82.342l-63 74.146-29 137.269 7 52.103c1 2.004 8 49.096 6 71.139s-2 95.187 5 129.254 10 66.13 33 96.189 73 76.15 110 75.148 70 2.004 92-7.014 114-58.114 124-70.138 44-79.155 49-107.21 19-105.207 18-125.246 11-91.18 11-91.18v-23.045z" fill="#dfa69d"/><path d="M589 350.869c-1 1.002-9 17.034 4 27.053 2.14.996 4.414 1.671 6.75 2.004 2.89.411 9.48 1.343 15.25-3.006 6.58-4.959 7-12.905 7-14.027.082-3.125-.604-6.222-2-9.018h0s-7-2.004-8-2.004-7-1.002-7-1.002l-8-1.002-8 1.002zm-198-1.002a14.73 14.73 0 0 0-3 7.014c-.44 3.327 1 6.563 4 13.026.83 1.803 1.53 3.136 3 4.007 1.19.712 2.46.762 5 1.002a27.65 27.65 0 0 0 5 0 54.85 54.85 0 0 0 6-1.002c5.57-1.001 5.53-.37 7-1.001 3.95-1.714 5.35-6.694 6-9.018 1.215-4.659.864-9.589-1-14.028l-6-2.004-8-1.002h-9l-6 1.002-3 2.004z" fill="#586172"/><g fill="#2f3245"><path d="M405.5 362.893c2.485 0 4.5-2.019 4.5-4.509s-2.015-4.509-4.5-4.509-4.5 2.019-4.5 4.509 2.015 4.509 4.5 4.509zm198 2.004c2.485 0 4.5-1.795 4.5-4.008s-2.015-4.008-4.5-4.008-4.5 1.794-4.5 4.008 2.015 4.008 4.5 4.008z"/></g><path d="M567 363.895a54.87 54.87 0 0 1 21-11.022c18.83-5.01 34.5 1.924 39 4.008 5.059 2.345 9.77 5.38 14 9.018a13.71 13.71 0 0 1-3 5.01c-1.47 1.533-2.65 1.954-5 4.008-1.069.93-2.071 1.935-3 3.006 4.98-2.082 9.682-4.774 14-8.016 2.45-1.463 2.81-1.473 3-2.004 1.19-3.317-10.66-9.579-10-11.022.4-.882 5.44.181 19 5.01-8-4.509-28.86-15.08-53-14.028-6.59.291-16.89.852-28 7.014a54.93 54.93 0 0 0-12 9.018l-4 6.012c6.526 3.395 13.668 5.44 21 6.012-.5 0-9-.622-12-7.014a10.83 10.83 0 0 1-1-5.01h0zm-128-1.002c-1.769-2.223-3.781-4.24-6-6.012a40.59 40.59 0 0 0-18-8.016c-9.424-1.8-19.17-.754-28 3.006-6.903 2.928-13.056 7.381-18 13.026 6.82 4.599 8.13 5.801 8 6.012-.21.36-4.63-1.824-5-2.004-3.52-1.744-3.78-2.395-6-3.006-1.81-.501-2.75-.371-3-1.002-.36-.902 1.12-2.285 3-4.008s2.72-2.154 5-4.008 4.27-3.487 4-4.008-3.08.341-5 1.002c-5.501 1.934-10.849 4.279-16 7.014 2.818-2.265 5.83-4.276 9-6.012a64.25 64.25 0 0 1 12-5.01c10.6-3.306 21.16-6.603 32-6.011 19.49 1.062 33.64 14.378 39 20.039.54.681 1.39 1.954 1 3.006-.14.381-.58 1.102-5 2.004-2.61.531-3.5.491-6 1.002-.89.18-1.79.391-4 1.002a247.07 247.07 0 0 0-10 3.006l1.06-.371c3-1.002 4.13-1.643 10.94-4.639a10.11 10.11 0 0 0 2-1.002 8.46 8.46 0 0 0 3-5.01h0z" fill="#4f403b"/><path d="M552 313.796c6.221 1.482 12.607 2.155 19 2.004 19.07-1.162 21.7-4.659 36-5.01 7.34-.18 12.56.602 22 2.004 10.9 1.623 19.38 2.886 30 7.014 9.87 3.838 20.41 7.926 29 18.036 3 3.577 5.37 7.364 6 7.013 1.06-.591-3.62-12.534-8-20.039-14.43-24.739-43.94-32.784-56-36.071-31.21-8.507-56.15-1.443-61 0a104.75 104.75 0 0 0-23 10.02c-.5.511-5.62 5.771-4 10.019.66 1.734 2.45 3.307 10 5.01zm-98 7.014h13c7.74-.12 11-5.01 11-5.01 2.24-3.366 2.19-8.066 0-12.023a39.6 39.6 0 0 0-11-8.016c-5.53-2.705-10.08-3.267-15-4.008-15-2.264-11.31-2.856-26-5.01a296.81 296.81 0 0 0-35-3.006c-20-.551-25.91 1.253-30 3.006-6.385 2.782-12.1 6.905-16.758 12.091A48.75 48.75 0 0 0 334 316.802c-.38 1.323-1.07 4.91.06 5.501s3.68-2.605 6.94-5.501c0 0 4.34-3.857 14-8.016 10.71-4.619 23.1-2.154 29-1.002l70 13.026z" fill="#725c54"/><g fill="#cc9792"><path d="M509 471.105c.465-1.122 1.145-2.143 2-3.005a9.6 9.6 0 0 1 3-2.004c5.12-2.325 7.68-3.487 10-4.008 2.9-.652 12.62-2.866 14.84 1.002a5.44 5.44 0 0 1 .16 4.008c-1.07 4.799-6.08 7.725-7 7.013-.61-.471.94-2.284 0-4.007s-3.52-2.004-4-2.004c-2.14-.211-2.63.751-6 1.002-1.85.14-1.52-.161-3 0-3.07.34-4 1.623-7 2.003a12.44 12.44 0 0 1-3 0h0zm-32 2.004c-.949-2.537-2.3-4.905-4-7.013-1.79-2.215-4.91-6.072-10-7.014-1.41-.261-4.41-.812-7 1.002a7.21 7.21 0 0 0-2.03 2.186c-.516.863-.847 1.825-.97 2.824-.17 1.913.5 4.549 2 5.01 1.34.41 1.93-1.373 4-2.004 4.08-1.243 6.95 4.108 14 5.009a15.66 15.66 0 0 0 4 0h0zm-15 121.239a126.11 126.11 0 0 1 21-2.004c4.33 0 15.3.06 22 3.006 2.276 1.131 4.613 2.134 7 3.005 3.16 1.113 3.9 1.002 5 2.004 2.4 2.074 3.56 6.413 2 9.018-1.82 3.006-6.18 1.794-7 4.008-1.36 3.667 8.61 10.14 8 11.022-.4.581-4.77-2.135-9-4.008-8-3.547-14.91-3.748-24-4.008-7.48-.221-13.95-.401-22 2.004-7.28 2.184-13.54 5.791-14 5.01s7.56-4.8 7-9.018c-.5-3.747-7.31-3.838-8-8.016-.66-4.008 4.83-8.136 6-9.017a18.76 18.76 0 0 1 6-3.006h0zm77-107.211c11.265-1.233 19.845-10.69 20-22.043.17-7.585-4-16.162-4-16.032l2 6.012-9-17.033a90.89 90.89 0 0 1 11 17.033c3.2 6.433 1.32 4.579 8 23.045 2.06 5.681 3.32 8.848 2 10.02-1.85 1.653-6.06-3.066-14-4.008-5.508-.5-11.047.54-16 3.006h0z"/><path d="M450 485.133a17.06 17.06 0 0 1-5-3.006c-3.8-3.156-10.17-8.446-12-15.029-3.08-11.022 7.55-22.705 7-23.046s-11.76 16.633-14 20.04c-13.26 20.189-25.15 35.96-25 36.071 4.611-5.112 8.951-10.463 13-16.032 5.09-6.793 7.82-11.021 12-11.021 2.62 0 5.05 1.673 7 3.005 3.33 2.285 4.7 4.589 6 6.012 2.44 2.655 7.3 5.12 18 4.008-2.378.172-4.765-.17-7-1.002z"/></g><path d="M423 565.291c10.47 3.006 16.95-2.004 35-2.004 14.15 0 16.15.891 32 1.002 22.73.15 22.3-1.734 41-1.002 17.26.671 23.49 9.158 36 5.01a32.02 32.02 0 0 0 8-4.008c-2 3.126-5 6.693-9 7.013-2.81.231-4.26-1.212-8-3.005s-8.45-1.814-17.51-3.006c-5.136-.648-10.318-.856-15.49-.622-44.42 1.694-56.19-.581-76 1.443-5.32.541-10.7.441-16 1.173-4.83.671-11.4 1.863-19 0-2.85-.702-4.63-1.533-5-3.006-.59-2.355 2.79-4.86 3-5.01 3.199 2.766 6.949 4.818 11 6.022h0z" fill="#aa7d7b"/><path d="M491.61 378.744a55.53 55.53 0 0 1-4.71 23.356c-3.16 6.954-6.64 10.33-9.9 19.869-2.52 7.365-4 11.573-2 15.03 4.62 8.156 25.41 7.284 29 0 .9-1.814.38-3.327-3-15.03l-4-14.027c-1.43-6.654 1.22-44.889.53-44.989-.18.01-5.53 14.789-5.92 15.791z" fill="#e8aca6"/><path d="M383 522.206s-7 19.037-3 28.055c0 0-1-18.035 10-32.063l-7 4.008z" fill="#cc9792"/><path d="M457 639.436s-22 13.026-22 23.046-9-2.004-6-7.014 29-25.049 28-16.032z" fill="#e8aca6"/><path d="M485 666.49s1 18.035 0 22.043 7 6.012 9 0 3-22.043 0-24.047-9-3.006-9 2.004z" fill="#cc9792"/><path d="M744 407.981c-7.5 11.273-11 23.156-12.82 22.865-1.3-.22-3-3.406-2.18-25.87 1.33-37.594 6.41-39.468 5-58.115-.52-6.903-2.4-31.652-15-50.098-5.417-8.216-10.022-16.941-13.75-26.051-1.461-3.551-2.55-7.245-3.25-11.022-4-20.119 2.91-24.899 2-46.09-1.55-36.192-23.3-62.122-30-70.138-8-9.609-17.24-20.571-33-26.051-14-4.87-25-2.535-39-1.002 0 0-32.47 3.557-76-2.004-39.76-5.07-47.06-15.24-80-13.026-19 1.283-31.38 5.661-35 7.014-18.214 6.846-34.388 18.225-47 33.065-9.191 10.976-16.307 23.539-21 37.073-1.92 5.581-4 15.49-8 35.069l-6 30.059c-6.95 32.804-13.88 33.546-18 55.108-6 31.311 0 80.157-6 85.167-4.32 3.607-.87-.05-1.95-6.493-.598-3.146-1.993-6.085-4.05-8.536-6.1-7.856-7.54-31.673-9-49.097-3.24-38.525-5.83-36.732-4-48.094 2.41-14.97 5.87-11.593 11-34.067 3-13.026 3.95-23.476 10-40.079 1.56-4.288 3-7.755 4-10.02l-12 6.012 8-22.043-7 1.002a303.03 303.03 0 0 1 34-49.097c2.35-2.745 4.25-4.849 26-29.057l-13 6.012s8-22.043 19-26.051-3-10.02-3-10.02l26-5.01 10-8.016-16-6.012h25l6-12.024-9-10.02 31 16.032-15-24.047 24 13.026-7-20.039h10l-3-4.008 22 9.018s-6-15.03-3-13.026 23 10.02 23 10.02L486 .18l18 10.02h9L510 .18s21 1.002 26 8.016 10-3.006 10-3.006l13 7.014-2-8.016 15 11.022s-3-11.022 0-10.02 19 8.016 21 15.03l-2-7.014 30 22.043c8 6.012 2-9.018 2-9.018l24 23.045-3-10.02 21 16.032-13-24.047s13 19.037 28 31.061c21 16.853 33 38.596 49 64.126 7.881 12.184 14.898 24.907 21 38.075 11.15 24.418 15.43 43.085 23 77.152 12 53.745 4.06 44.607 12 80.157 0 0 5.08 22.735-2 40.079-1.45 3.537-2.55 6.222-5.25 8.807-4.5 4.299-10 4.459-15.75 10.23-6 6.012-6 9.018-18 27.053z" fill="#725c54"/><g fill="#65514a"><path d="M485 92.361s-50-14.028-59-23.045-19-24.047-19-24.047 29 26.051 44 23.045c0 0-25.21-23.476-25.11-34.287 0 0 25.11 35.289 51.11 34.287-1.356-13.267-7.812-25.485-18-34.067-17-14.028-14-14.028-14-14.028s32 17.034 40 30.059c0 0 5-19.037 0-26.051s-4-4.008-4-4.008 26 34.067 38 41.081 22 31.061 22 31.061-22-8.016-31-15.029l-9-7.014s-1 16.032 9 22.043c0 0-16 9.018-25 0zm56-64.126s16 14.028 17 30.059-8 29.057-8 29.057-10-61.12-25-74.146l16 15.029z"/><path d="M586 80.338s7-40.079-10-54.106-18-13.026-18-13.026 52 7.014 28 67.132zm70-22.043s17 7.014 18 29.057-9 36.07-9 36.07 6-65.128-9-65.128zm29 65.128s13-3.006 26 9.018 24 29.057 24 29.057-23-21.041-25-19.037c0 0 7 7.014 9 11.021l2 4.008s-23-29.057-36-34.067zm50 92.181s30 30.06 41 75.148c0 0-9-63.124-41-75.148z"/></g><path d="M734 420.005s18-9.018 27-27.053 10-23.045 21-30.059 14-4.008 19 24.047-1 20.039-6 33.065-14 32.063-15 42.083 4 47.092-6 64.126-30 22.043-36 16.031-16-22.724-19-28.396 5-85.828 5-85.828l10-8.016zm-422-30.059s-6-15.03-17-19.038-13-9.017-15 6.012 4 39.077 10 55.109 14 36.07 10 48.094-15 41.081-9 47.093 16 19.037 25 13.025 4-82.161 4-88.173-8-62.122-8-62.122h0z" fill="#dfa69d"/><path d="M759 411.989c3-2.004 12-28.055 19-30.059s15 4.008 15 8.016-2 20.039-6 29.057-11 5.01-11 5.01 10-24.047 7-28.055-24 16.031-24 16.031zm-4 13.026s-17 2.004-10 12.024 16 9.017 10 23.045-17 18.035-12 24.047 13 4.008 16-5.01 14-30.059 10-38.075-14-16.031-14-16.031zm-13 95.187c1 2.004 3 7.014 8 6.012s9-17.034 9-17.034l-17 11.022zM302 396.96c2.43 2.004-4 9.018-4 20.039v21.042s-7-33.065-7-41.081 5-5.01 11 0zm1 103.203c-1.35-2.485 0 8.015 0 14.027s1 8.016 1 8.016 5-11.022-1-22.043z" fill="#cc9792"/><path d="M434.26 85.548s-26.56-8.888-47.83 10.821l-21.28 19.709s14.64-22.174 18.21-24.558-20.42-7.164-24-2.555c0 0 5.79-9.719 26.55-9.899s39.49 0 48.35 6.483z" fill="#65514a"/></g><defs><clipPath id="A"><path fill="#fff" d="M0 0h1018v1018H0z"/></clipPath></defs></svg>