<svg xmlns="http://www.w3.org/2000/svg" viewBox="0 0 450 437.52" xmlns:v="https://vecta.io/nano"><path d="M144 355.5s14-30 11-58l-5.29-51.3L173 275.5l38 34 41 3 27-26 11.82-11.58S282 284.5 283 297.5s2 20 8 35l10 25v50L253.5 436l-34-1-61.5-52.5z" fill="#e5a495"/><path d="M283 318.5s3 17-3 29-24 35-25 42-6 32-6 32v13l27-26 13-37s7-30-6-53zm-127 33s30 27 38 30 20 17 28 19c7.07 1.77 16.49.41 18.58 4.22a3.92 3.92 0 0 1 .42 1.78c.51 7.8.5 24.53.5 28.5a54.55 54.55 0 0 1-21 0L175 390.5s-20-32-19-39zm100-29s-5 12-5 19-5 24-6 29 5 0 9-8 8-27 12-33 17.27-28.67 17.27-28.67S285 281.5 275 296.5s-19 26-19 26z" fill="#db9686"/><path d="M221.5 331s-14-1-28-12-34-38-39-50-6.5-34.5-8.5-35.5-5 6-13-2-12-13-12-19-4-21-4-27 1-10 6-9 3-33 3-33l3-53 21-25 50-15 69 10 40 29 6 56-2 34s5-2 6 6 2 19 0 27-3 14-8 15-7-3-8 6-2 20-7 31-19 36-25 45-10 19-17 22-32.5-.5-32.5-.5z" fill="#e8ac9a"/><path d="M131 183.5s-9 4-7 11 0 5 0 5-5-29 7-16zm0 16s-6 6-2 8 5 2 5 5 0 6 3 5 0-4 0-6-1-2-1-5-2-11-5-7zm180-4s4-2 4 3-2 12-2 13-1-1-2 1a47.8 47.8 0 0 0-2 5l2-22zm-42 69s10 3 8 8-4 9-4 9 7-13-4-17zm-45-24c-8.49-2.72-11-2.43-11.5-1.5a2.57 2.57 0 0 0 .86 2.89 1.55 1.55 0 0 0 1.14.11 2 2 0 0 0 1-1c1.27-1.91 8.79.58 9 0 0-.06 0-.19-.5-.5zm15-1c1.62-.58 4-1.12 6 0 .72.41 1.64 1.19 1.5 1.5s-.78.08-2 0a12.54 12.54 0 0 0-3 0c-2.42.42-3.63 2.62-4.27 2.19-.13-.08-.16-.29-.23-.69s-.31-1.82.5-2.5a3 3 0 0 1 1.5-.5zm0-49s-1 22 0 24 4 8 4 9a54.76 54.76 0 0 0-2-11c-2-7-2-22-2-22zm10 37s6 8 5 12-2 4-2 4a9.33 9.33 0 0 1 6 3 17.13 17.13 0 0 1 4 6zm-37 0s-9 5-6 10l3 5-4-1-5 5s3-16 12-19z" fill="#db9686"/><path d="M249 171.5s11-6 15-6 22-1 25 0l9 3 3 3s-3 4-7 3-8-3-13-3-10-3-14-2-14 3-18 5-3-1 0-3z" fill="#442517"/><path d="M192.5 185.4c0 1.39-.37 4.63-2.6 5.87a4.69 4.69 0 0 1-1.3.46 8.82 8.82 0 0 1-4.33 0 5.91 5.91 0 0 1-1.3-.46 6.76 6.76 0 0 1-3.47-5.87 7.09 7.09 0 0 1 .47-2.53 6.54 6.54 0 0 1 1.05-1.81 5.29 5.29 0 0 1 .95-1 17.71 17.71 0 0 1 7.93.33l.72.22a6.81 6.81 0 0 1 1.17 1.69 7.72 7.72 0 0 1 .71 3.1zm80-2c0 1.39-.37 4.63-2.6 5.87a4.69 4.69 0 0 1-1.3.46 8.82 8.82 0 0 1-4.33 0 5.91 5.91 0 0 1-1.3-.46 6.76 6.76 0 0 1-3.47-5.87 7.09 7.09 0 0 1 .47-2.53 6.68 6.68 0 0 1 1-1.81 5.26 5.26 0 0 1 1-1 17.71 17.71 0 0 1 7.93.33l.72.22a6.81 6.81 0 0 1 1.17 1.69 7.72 7.72 0 0 1 .71 3.1z" fill="#603524"/><path d="M251 185.5a87.14 87.14 0 0 1 9.5-5.5c2.78-1.39 4.2-1.9 6-2a13.47 13.47 0 0 1 6.5 1.5 25.09 25.09 0 0 1 7 5l2 2a9.15 9.15 0 0 1-4 3 7.6 7.6 0 0 1-3.5.5c0-.06 4.05.35 6.5-1.5a4.09 4.09 0 0 1 2-1c1.06-.15 1.78.29 2 0s.06-.68-1-2a22.47 22.47 0 0 0-10.5-7.5c-7.56-2.4-14.6 1.27-16 2a24.14 24.14 0 0 0-8.5 7.5 3.82 3.82 0 0 0 .88 1c1.14.89 2.36.68 4.12 1a11.39 11.39 0 0 1 3 1 10.39 10.39 0 0 1-6-5zm-47 4a7.87 7.87 0 0 1-1 1 8.68 8.68 0 0 1-1.75 1.12 9.74 9.74 0 0 1-4.25.88 6.64 6.64 0 0 0 3-1 6.36 6.36 0 0 0 2-2l.15-.07c.07-.06-.35-1.08-2.15-2.93a24.15 24.15 0 0 0-5-4 18 18 0 0 0-1.82-.89 22.05 22.05 0 0 0-12.43-1.41 16.69 16.69 0 0 0-5.75 2.3 17 17 0 0 0-5 5l.47.51.53.49c1.49 1.3 6.5 2.5 6.5 2.5l4 1a8.34 8.34 0 0 0 1 0 40.59 40.59 0 0 1-5.5-.5 18.72 18.72 0 0 1-7-3c-.91-.2-2-.52-2-1 0-.29.35-.48 1-1l2-2 2-2c2.41-2.36 7.6-3.15 8.85-3.37a21.41 21.41 0 0 1 9.15.37l.83.24A21.26 21.26 0 0 1 202 186.5a18.87 18.87 0 0 1 2 3z" fill="#492211"/><path d="M185 165.5s-11-1-19 2-13 6-11 7 9 1 15 0a169.75 169.75 0 0 1 20-2c4 0 15 2 19 2s8 1 7-2-2-3-12-5a109.18 109.18 0 0 0-19-2zm-47-14s3-27 6-35 6-21 7-24 6-12 9-13 19-2 25 2 33 9 39 8 23-3 28-3 30 8 35 12 22 20 22 27v35c0 5 4 19 3 22s3 3 3 3h5s-2-12 0-15 4-5 6-14 2-30 0-37a7.27 7.27 0 0 0 5-5c1-4 4-26-14-40s-18-16-18-16 2-21-1-25-2 2-2 2-6-2-8-3-14-9-19-15-18-10-24-10h-6s-14-6-15-5h0s-7 4-11 0-7-2-7-2v4s-22 10-30 19-25 19-30 25-13 8-13 8v3l-6 3v5s-14 9-15 13 5 2 5 2l-3 7a12.24 12.24 0 0 0-6 11c0 8 4 35 4 41s4 13 5 18 3 15 0 15 0 6 0 6h6v2.11l8-.11 7 7s-2-26 0-38z" fill="#442517"/><path d="M155 75.5s-12-9-22-4a66.79 66.79 0 0 0-16 11l11-3s-10 6-11 13a113.09 113.09 0 0 1-4 16s11-16 15-19a63.86 63.86 0 0 0 6.5-5.57S124 101.5 123 108.5s5-8 10-14 15-20 22-19zm-2.17-10.85S152 62.5 166 44.5s28-23 28-23l-13 12s21-21 35-20a241.88 241.88 0 0 0 29 0l-23 5s20 1 29 1 0 3 0 3l-29 2s33 3 40 2 14 7 14 7-13-3-17-2-8 10-8 10 17-3 23-2-12 7-12 7 9 5 14 7-20-5-30-3-29-4-37 0-32 11-33 14-10 5-10 5v-5s-10 5-11 5-2.17-4.85-2.17-4.85z" fill="#5b3120"/><path d="M178,48.5s15-21,31-18a115.85,115.85,0,0,0,28,2s-14,2-25,4-37.67,18.8-38.34,21.9S178,48.5,178,48.5Z" fill="#442517"/><path d="M213 66.5s20-13 36-8 33 4 35 3 6-11 6-11 3 14 0 16 3 1 8 3 14 13 14 13-15-10-19-9 0 9 0 9 12 9 12 16-4 8-4 8a38.74 38.74 0 0 0-11-22c-10-10-26-13-28-15s-36-10-49-3z" fill="#5b3120"/><g fill="#3c1c0f"><circle cx="186.5" cy="185" r="1.5"/><circle cx="265.5" cy="183" r="1.5"/></g><path d="M63 399.5s21-14 28-17 14-8 21-9 18-9 20-12 5 13 5 13l14 46 41-16s12 4 17 8 10 2 14 22l3 3h18.89s2.11-3 4.11-6.5 26-63.5 34-69.5 26-5 26-5 14 0 23 5 17 15 25 19 32 17 37 20 32 13 37 16 19 10 19 10l-1 11H0s12-6 17-11 14-10 19-14 27-13 27-13z" fill="#11bc92"/><g fill="#11a37d"><path d="M122 380.5c3.22 9.67 16.33 57 16.33 57H156l-20.5-69.67 2.5-16.33s-18 23-16 29z"/><path d="M286.5 351c-4.83 10.55-12.17 25.88-22 44-19.49 35.91-25.13 39.19-30 40-17.41 2.91-27.62-25.18-48-24-13.37.78-23.79 13.72-31 26h67l25.16.3c6.58.22 6.63.36 7.56 0 8-2.88 7.18-14.33 12.28-15.32 6-1.16 9.49 14 21.2 15.43H309z"/></g><path d="M149 323.5s-9.8 17.15-16 32.24c-2.67 6.47-4.68 12.56-5 16.76-1 14 16 65 16 65h28l26.5-30.56-32.48-39.44A82.16 82.16 0 0 1 152.5 343a15.51 15.51 0 0 1-1-8c.11-.65.41-1.77 1-4 1.11-4.19 1.51-5.1 1-6-.24-.41-1.1-1.57-4.5-1.5zm136.5-7.5a10.52 10.52 0 0 1 2 2 10.34 10.34 0 0 1 2 4.39c.66 6.3 15.54 19.11 15.54 19.11 5.67 4.88 13.18 13.16 21 28v68H301s-19-33-24-29-13-2-13-2c15-21.45 21.58-42.06 23-55 1.46-13.2-.54-28.5-.54-28.5-.31-2.95-.69-5.37-.96-7zm55.5 64.5l36.94 57H359.5s-30.5-75-18.5-57zm30 16l32.86 41h18.72s-61.58-53-51.58-41z" fill="#02e2ac"/><g fill="#db9686"><path d="M196.5 268s-14 4-6 7 5-1 6-3a4.82 4.82 0 0 0 0-4zm63 1s6-1 6 3-5 5-5 7 4-10-1-10zm-46 23s15 2 19 2 12-1 12-1-6 4-16 4-20-4-15-5z"/><path d="M194.5 274a167.72 167.72 0 0 0 25 4c7.52.63 15.14 1.22 25 0s18.05-3.78 18-4-3.05.35-16 3l-6 1c-6.61 1.1-11.84.39-16 0-12.94-1.23-25.66-3.28-30-4z"/></g></svg>