<svg xmlns="http://www.w3.org/2000/svg" xmlns:xlink="http://www.w3.org/1999/xlink" viewBox="0 0 999.5 910" xmlns:v="https://vecta.io/nano"><style>.Y,.Z,.a,.b{isolation:isolate}</style><defs><linearGradient id="A" x1="85.4" y1="658.55" x2="510.6" y2="658.55" gradientUnits="userSpaceOnUse"><stop offset="0" stop-color="#02e2ac"/><stop offset="1" stop-color="#b3ffed"/></linearGradient><linearGradient id="B" x1="16" y1="630.37" x2="454.6" y2="630.37" xlink:href="#A"/><linearGradient id="C" x1="0" y1="738.35" x2="429.6" y2="738.35" xlink:href="#A"/><linearGradient id="D" x1="4" y1="776.25" x2="562.6" y2="776.25" xlink:href="#A"/><linearGradient id="E" x1="318.4" y1="792.85" x2="743.6" y2="792.85" xlink:href="#A"/><linearGradient id="F" x1="725.8" y1="835" x2="978.6" y2="835" xlink:href="#A"/><linearGradient id="G" x1="643.4" y1="708.4" x2="988.2" y2="708.4" xlink:href="#A"/><linearGradient id="H" x1="585.3" y1="634.25" x2="902" y2="634.25" xlink:href="#A"/><linearGradient id="I" x1="450.4" y1="567.2" x2="739.4" y2="567.2" xlink:href="#A"/><linearGradient id="J" x1="584.3" y1="817.55" x2="870.6" y2="817.55" xlink:href="#A"/><linearGradient id="K" x1="539.56" y1="498.76" x2="649.41" y2="388.89" gradientUnits="userSpaceOnUse"><stop offset="0" stop-color="#f6bdb2"/><stop offset="1" stop-color="#dca9a0"/></linearGradient><path id="L" d="M421.6 665.8a26 26 0 0 0-18.4.7 23.83 23.83 0 0 0-3.9 2c-8.6 5.3-14.7 15.4-15.7 27.2-4.5-3.3-7.5-9.2-7.5-15.9 0-10.3 7.1-18.7 15.9-18.7a13.82 13.82 0 0 1 7.4 2.1c1.1-5.8 5.6-10.1 11-10.1 6 0 11 5.6 11.2 12.7z"/><path id="M" d="M467.6 782.3a40.61 40.61 0 0 1-1.1 9.2c-3.5 14.6-15 25.4-28.8 25.4a13.2 13.2 0 0 1-2.8-.2h-.1v-20.9l-21.5-14.4a15.53 15.53 0 0 0 3.1.3c8.8 0 15.9-8.4 15.9-18.7v-.9a10.07 10.07 0 0 0 2.5.3c6.2 0 11.3-5.8 11.3-13v-.3c12.4 4.1 21.5 17.4 21.5 33.2z"/><path id="N" d="M543.4 633.2c0 10.3-7.1 18.7-15.9 18.7a16.28 16.28 0 0 1-3.1-.3 14.76 14.76 0 0 1-3.5-1.3 17.39 17.39 0 0 1-1.8-1.1h0c1-11.8 7.1-21.9 15.7-27.2a28.68 28.68 0 0 1 3.9-2 20.28 20.28 0 0 1 4.7 12.4z"/></defs>
<path d="M999.5 691.7v217.8l-187-.2-88-.1h-56.6l-85.5-.1-97.4-.1h0l-163.8-.2-66.4-.1h0l-96.4-.1L0 908.5V806.6s12.1-37 22.1-51c7.2-10 2-33.4 3.7-47.3a5.85 5.85 0 0 1 .2-1.3c.8-4.8 2.5-8.2 6.2-9.3 14.1-4 20.1 0 19.1-18s17.1-108.8 31.1-115.8l22.1-11s19.6-8.5 41.6-17.2c18.8-7.5 37.2-13.3 55.9-18.7 57-16.7 76-15.7 118-27.5 53.8-15.1 43.5-22.6 93.4-37 0 0 30.6-8.8 155.2-20.5l67.3 4s14.1 14 20.1 21c2.1 2.5 5.7 6 9.3 9.4 6.7 6.3 13.8 12.6 13.8 12.6l59.2 18.9 80.5 25.7 4 1.3s42.2 12.1 78.9 24.2c25.6 8.4 48.6 16.7 52.7 20.8.7.7 1.4 1.4 2.2 2.3 9 9.8 24.3 30.8 31.7 57.1a118.79 118.79 0 0 1 3.3 15.5c4.9 35.9 7.9 46.9 7.9 46.9z" fill="#60ddae"/><path d="M510.6,580.8a130.12,130.12,0,0,0-46.1-2.8c-50.4,6.2-71.6,40.6-153.1,117.8-68.2,64.6-102.1,86.8-143.9,99.2a253.48,253.48,0,0,1-43.1,8.8l-39-67.5c32.4,2.1,74.2-.6,114.1-22.2,71.8-38.8,76.6-105.5,151-157,26.7-18.5,65.3-37,121.1-43.8Z" fill="url(#A)"/><path d="M454.6,551.8a130.12,130.12,0,0,0-46.1-2.8c-50.4,6.2-71.6,40.6-153.1,117.8-86.1,81.6-131,95.3-143.9,99.2A252.2,252.2,0,0,1,16,775.5a47.91,47.91,0,0,1,5-13c3.9-7,7-8.5,9-14,1.7-5,.8-8.3,0-16a152.54,152.54,0,0,1-.6-25.3c32.4,2.1,74.2-.6,114.1-22.2,71.8-38.8,76.6-105.5,151-157,26.7-18.5,65.3-37,121.1-43.8Z" fill="url(#B)"/><path d="M429.6,657.8a130.12,130.12,0,0,0-46.1-2.8c-50.4,6.2-71.6,40.6-153.1,117.8C146.7,852.1,101.3,867,86.5,872A282.74,282.74,0,0,1,0,886.5v-72c51.3,3.2,89.6-7.6,118.5-23.5,71.8-39.5,76.8-105.7,151-157,26.7-18.5,65.3-37,121.1-43.8Z" fill="url(#C)"/><path d="M562.6 710.8a130.12 130.12 0 0 0-46.1-2.8c-50.4 6.2-71.6 40.6-153.1 117.8-46.6 44.2-77.2 68.5-105.3 83.5h0l-96-.1c-13.1-5.5-136.8-9-158.1-.7A1907.82 1907.82 0 0 0 191.6 864c32.5-9.4 49-14.1 59.9-20 71.8-38.8 76.6-105.5 151-157 19.1-13.2 44.3-26.5 77.5-35.4a322.6 322.6 0 0 1 43.6-8.4l9.1 15.7 29.9 51.9z" fill="url(#D)"/><path d="M743.6,743.8a130.12,130.12,0,0,0-46.1-2.8c-50.4,6.2-71.7,40.6-153.1,117.8-22.2,21-40.7,37.5-57.1,50.7h0l-163.1-.2c-2-3.3-3.9-6.7-5.8-10.1,32.4,2.1,74.2-.6,114.1-22.2,71.8-38.8,76.6-105.5,151-157,5.9-4.1,12.4-8.2,19.5-12.2,25.1-14,58.1-26.4,101.6-31.6L724,709.7Z" fill="url(#E)"/><path d="M978.6,827.8a130.12,130.12,0,0,0-46.1-2.8c-42.6,5.2-64.3,30.6-119.1,84.8l-87.6-.1c26.2-34,45.4-73,92.7-105.7a236.65,236.65,0,0,1,24.6-14.9c6.2-3.3,12.9-6.4,20-9.4,21-8.7,46.2-15.9,76.5-19.5Z" fill="url(#F)"/><path d="M988.2 629.4c-30.8 16-58.1 49.8-118.8 107.3l-20.2 18.8c-17.6 16.1-32.8 29-46.5 39.4-16.1 12.3-30.3 21.2-44 28a209.7 209.7 0 0 1-33.2 13 253.48 253.48 0 0 1-43.1 8.8l-18.8-32.6-20.2-35a233.6 233.6 0 0 0 60.2-3.3 185.23 185.23 0 0 0 53.9-19 165 165 0 0 0 31-21.5c44.4-39.1 58.1-92.6 120.1-135.5a237.26 237.26 0 0 1 48.2-25.7 151.88 151.88 0 0 1 31.4 57.3z" fill="url(#G)"/><path d="M902 549.2c-22.3 19-48.4 47.6-90.6 87.6-37 35.1-63.9 57.6-87.5 72.9a210.24 210.24 0 0 1-56.4 26.3 253.48 253.48 0 0 1-43.1 8.8l-21.4-37-17.7-30.6c32.4 2.1 74.2-.6 114.1-22.2 60.3-32.6 73.4-84.9 120-131.3l4 1.3c.1 0 42.1 12.1 78.6 24.2z" fill="url(#H)"/><path d="M739.4 498l-63 61.8c-68.1 64.5-102 86.7-143.7 99.2l-.2.1a253.48 253.48 0 0 1-43.1 8.8l-9.4-16.2q-14.85-25.65-29.6-51.4c32.4 2.1 74.2-.6 114.1-22.2 51.9-28.1 68.8-70.7 102.3-111.6 6.6 6.3 13.7 12.6 13.7 12.6z" fill="url(#I)"/><path d="M870.6 792.8a128 128 0 0 0-27.5-3.6 115.91 115.91 0 0 0-18.6.9 102.82 102.82 0 0 0-21.8 5h0c-15.2 5.4-28.6 14.5-44 28h0c-21.6 19-47.2 46.7-87.3 84.8l-2 1.9h0l-85.1-.1c34.4-27.5 50.7-63.1 79.3-97.3a237.79 237.79 0 0 1 40-38.3h0c2.2-1.7 4.5-3.3 6.9-5 19.2-13.2 44.5-26.5 78-35.5a316.65 316.65 0 0 1 43.2-8.3l17.5 30.4 13.9 24.1z" fill="url(#J)"/><path d="M650 479.5a99.86 99.86 0 0 1-19.5-43.5c-6.1-34.8 8.8-61.8 13.5-69.5 0 0 10.5-18.5 16.5-10.5s16 13 28 8 23-21 27-32 12-28 11-41-6-26-20-22-26 21-28 25-16 10-16 10l21-79-5-75-30-54-116-23-92 28s-20 33-20 42-10 42-13 49-4 23-12 37-19 47-22 61-3 69 0 76 22.2 39 22.2 39l7.3 16.1 2.2 14 7.4 6.5s.9 66.5-27.1 88.5 22 65 22 65l159 9 74.5-21.5 7-48 2-55.1z" fill="#f6bdb2"/><path d="M386.5 517s6 46 51 62 101 12 125 7 77-33 80-39-6 79-6 79l-5 119-1 66 5 53 8 40v5.6l-325.9-.6 21.9-93 17-106 10-79 16-87z" fill="#0d0630"/><g fill="#674cf1"><use xlink:href="#L"/><path d="M401.5 618.5c0 10.3-7.1 18.7-15.9 18.7a16.28 16.28 0 0 1-3.1-.3 15.06 15.06 0 0 1-3.5-1.4 17.39 17.39 0 0 1-1.8-1.1h0c1-11.8 7.1-21.9 15.7-27.2a36 36 0 0 1 3.9-2 20.28 20.28 0 0 1 4.7 12.4zm56.9 19.3a40.61 40.61 0 0 1-1.1 9.2c-3.5 14.7-15 25.4-28.8 25.4a26.35 26.35 0 0 1-2.8-.2h-.1v-20.9l-21.5-14.5a10.54 10.54 0 0 0 3.1.3c8.8 0 15.9-8.4 15.9-18.7v-.9a10.07 10.07 0 0 0 2.5.3c6.2 0 11.3-5.8 11.3-13v-.3c12.4 4.2 21.5 17.5 21.5 33.3zm19.9 88.7a26 26 0 0 0-18.4.7 23.83 23.83 0 0 0-3.9 2c-8.6 5.3-14.7 15.4-15.7 27.2-4.5-3.3-7.5-9.2-7.5-15.9 0-10.3 7.1-18.7 15.9-18.7a13.82 13.82 0 0 1 7.4 2.1c1.1-5.8 5.6-10.1 11-10.1 6.1 0 11.1 5.7 11.2 12.7zm-20-47.3c0 10.3-7.1 18.7-15.9 18.7a16.28 16.28 0 0 1-3.1-.3 14.76 14.76 0 0 1-3.5-1.3 17.39 17.39 0 0 1-1.8-1.1h0c1-11.8 7.1-21.8 15.7-27.2a36 36 0 0 1 3.9-2 20.28 20.28 0 0 1 4.7 12.4zm56.9 19.3a40.61 40.61 0 0 1-1.1 9.2c-3.5 14.6-15 25.4-28.8 25.4a26.35 26.35 0 0 1-2.8-.2h-.1V712L461 697.6a10.54 10.54 0 0 0 3.1.3c8.8 0 15.9-8.4 15.9-18.7v-.9a10.07 10.07 0 0 0 2.5.3c6.2 0 11.3-5.8 11.3-13v-.3c12.3 4.1 21.4 17.4 21.4 33.2zm-84.4 111.8a26 26 0 0 0-18.4.7 23.83 23.83 0 0 0-3.9 2c-8.6 5.3-14.7 15.4-15.7 27.2-4.5-3.3-7.5-9.2-7.5-15.9 0-10.3 7.1-18.7 15.9-18.7a13.92 13.92 0 0 1 7.4 2.2c1.1-5.8 5.6-10.1 11-10.1 6-.1 11 5.6 11.2 12.6zM410.7 763c0 10.3-7.1 18.7-15.9 18.7a16.28 16.28 0 0 1-3.1-.3 14.73 14.73 0 0 1-5.4-2.4h0c1-11.8 7.1-21.9 15.7-27.2a28.68 28.68 0 0 1 3.9-2 20.28 20.28 0 0 1 4.7 12.4 2 2 0 0 1 .1.8z"/><use xlink:href="#M"/><path d="M563.5 680.5a26 26 0 0 0-18.4.7 23.83 23.83 0 0 0-3.9 2c-8.6 5.3-14.7 15.4-15.7 27.2a19.6 19.6 0 0 1-7.5-15.8c0-10.3 7.1-18.7 15.9-18.7a13.82 13.82 0 0 1 7.4 2.1c1.2-5.8 5.6-10.1 11-10.1 6-.1 11 5.6 11.2 12.6z"/><use xlink:href="#N"/><path d="M600.3 652.5a40.61 40.61 0 0 1-1.1 9.2c-3.5 14.7-15 25.4-28.8 25.4a13.2 13.2 0 0 1-2.8-.2h-.1V666L546 651.6a10.54 10.54 0 0 0 3.1.3c8.8 0 15.9-8.4 15.9-18.7v-.9a10.07 10.07 0 0 0 2.5.3c6.2 0 11.2-5.8 11.2-13v-.3c12.5 4.1 21.6 17.4 21.6 33.2zm-34.5 120a26.18 26.18 0 0 0-8.3-1.3 26.75 26.75 0 0 0-10.1 2 23.83 23.83 0 0 0-3.9 2c-8.6 5.3-14.7 15.4-15.7 27.2-4.5-3.3-7.5-9.2-7.5-15.9 0-10.3 7.1-18.7 15.9-18.7a13.92 13.92 0 0 1 7.4 2.2c1.2-5.8 5.6-10.1 11-10.1 6.1-.1 11 5.6 11.2 12.6zm-20.1-47.3c0 10.3-7.1 18.7-15.9 18.7a16.28 16.28 0 0 1-3.1-.3 14.76 14.76 0 0 1-3.5-1.3 17.39 17.39 0 0 1-1.8-1.1h0c1-11.8 7.1-21.9 15.7-27.2a28.68 28.68 0 0 1 3.9-2 20.9 20.9 0 0 1 4.7 12.4zm56.9 19.3a40.61 40.61 0 0 1-1.1 9.2c-3.5 14.6-15 25.4-28.8 25.4a13.2 13.2 0 0 1-2.8-.2h0V758l-21.5-14.4a15.53 15.53 0 0 0 3.1.3c8.8 0 15.9-8.4 15.9-18.7v-.9a10.07 10.07 0 0 0 2.5.3c6.2 0 11.3-5.8 11.3-13v-.3c12.3 4.2 21.4 17.5 21.4 33.2zm-8.4 119.2a26 26 0 0 0-18.4.7 23.83 23.83 0 0 0-3.9 2c-8.6 5.3-14.7 15.4-15.7 27.2-4.5-3.3-7.5-9.2-7.5-15.9 0-10.3 7.1-18.7 15.9-18.7a13.09 13.09 0 0 1 7.4 2.2c1.2-5.8 5.6-10.1 11-10.1 6-.1 11 5.5 11.2 12.6zm-20.1-47.3c0 10.3-7.1 18.7-15.9 18.7a16.28 16.28 0 0 1-3.1-.3 14.73 14.73 0 0 1-5.4-2.4h0c1-11.8 7.1-21.9 15.7-27.2a36 36 0 0 1 3.9-2 20.28 20.28 0 0 1 4.7 12.4 2 2 0 0 1 .1.8z"/><use xlink:href="#M" x="163.4" y="53.4"/><path d="M501.3 866.4a26.18 26.18 0 0 0-8.3-1.3 26.75 26.75 0 0 0-10.1 2 23.83 23.83 0 0 0-3.9 2c-8.6 5.3-14.7 15.4-15.7 27.2-4.5-3.3-7.5-9.2-7.5-15.9 0-10.3 7.1-18.7 15.9-18.7a13.92 13.92 0 0 1 7.4 2.2c1.1-5.8 5.6-10.1 11-10.1 6.1-.1 11.1 5.6 11.2 12.6z"/><use xlink:href="#N" x="-62.1" y="185.9"/><path d="M538.2 838.4a40.61 40.61 0 0 1-1.1 9.2c-3.5 14.6-15 25.4-28.8 25.4a13.2 13.2 0 0 1-2.8-.2h0V852L484 837.5a15.53 15.53 0 0 0 3.1.3c8.8 0 15.9-8.4 15.9-18.7v-.9a10.07 10.07 0 0 0 2.5.3c6.2 0 11.3-5.8 11.3-13v-.3c12.3 4.1 21.4 17.5 21.4 33.2z"/><use xlink:href="#L" x="-26.1" y="209.9"/><path d="M375.4 828.3c0 10.3-7.1 18.7-15.9 18.7a16.28 16.28 0 0 1-3.1-.3 14.73 14.73 0 0 1-5.4-2.4h0c1-11.8 7.1-21.8 15.7-27.2a36 36 0 0 1 3.9-2 20.28 20.28 0 0 1 4.7 12.4 2 2 0 0 1 .1.8zm56.9 19.3a40.61 40.61 0 0 1-1.1 9.2c-3.5 14.7-15 25.4-28.8 25.4a26.35 26.35 0 0 1-2.8-.2h-.1v-20.9L378 846.6a10.54 10.54 0 0 0 3.1.3c8.8 0 15.9-8.4 15.9-18.7v-.9a10.07 10.07 0 0 0 2.5.3c6.2 0 11.3-5.8 11.3-13v-.3c12.4 4.2 21.5 17.5 21.5 33.3z"/></g><path d="M647 444.5c-5.5-4.7-13.5-10.9-16-9-3 2.3 2.9 14.5 4 17 6.6 14.8 10.2 52.1-3.5 151.5l-6 194c1 27 4 99 14 111h46l58-192s34-128 29-137-55-16-55-16 25-20 21-27-45-48-45-48l-13-10 39 56-20 29s-4 10 8 13 44 9 44 9 9 0 4 13-29 137-29 137l-48 162s0 17-29 6c0 0-15-60-14-105s8-195 8-195l14-134zM354.5 479s-62 43-58 54 17 11 18 17-49 9-49 9-3 3-3 11 1 166 5 190 15 96 17 113 5 37 5 37l12-1-23-150-4-185c2-6 47-10 47-10s15-4 5-20-16-9-13-16 53-54 53-54z" fill="#674def"/><path d="M359.5 655l-30 180-15 74 8.3.3L353.5 782l18-127 21-145c4-14 17-47 17-47s7-12-2-6-15 11-15 11l-9 45z" fill="#674cf1"/><path d="M449 232.5a9 9 0 1 1-18 0 8.68 8.68 0 0 1 .5-2.8 10.14 10.14 0 0 1 1.8-3.2c5.5-.2 10.6-.2 13.4-.1a9.07 9.07 0 0 1 2.3 4.7z" fill="#3d2924"/><path d="M462 242.5c2.9-1.7 3.2-3.3 3.2-3.8.2-2.7-3.6-4.9-7.6-7.2a28.2 28.2 0 0 0-7.6-3.2c-2.7-.7-4.3-.7-9.7-.7-11.2-.1-13.5-.3-17.6.7-2.9.7-6.7 1.6-6.8 3.2-.2 2.3 6.9 4.7 8 5-6.9-1.8-14.9-4.2-14.7-6.3.1-.6.8-1.2 4.7-2.3a76.7 76.7 0 0 1 19.4-2.5l13.4-.1 2.4.1s15 4 19 11-.1 6.1-6.1 6.1z" fill="#593b36"/><path d="M571 255.5a9 9 0 1 1-18 0 8.63 8.63 0 0 1 1.4-4.7 7.94 7.94 0 0 1 1.9-2.2l13.9 3.2a17.23 17.23 0 0 1 .7 2.1 8.6 8.6 0 0 1 .1 1.6z" fill="#3d2924"/><path d="M606.5 266s-19 1-21 0l9-2s1.3-5.3-23.6-11.1c-4.6-1.1-10-2.1-16.5-3.2-1.6-.3-3.2-.5-4.9-.8 0 0-17 5-4 10-.8-.1-13.9-2.1-13-5s10-9 16-8c1.3.2 4.1.8 7.8 1.6l13.9 3.2c11.2 2.8 23.1 6 26.3 8.2 6 4.1 10 7.1 10 7.1z" fill="#593b36"/><path d="M534 459.5s39 8 41 26c1.8 15.7-2.6 48.3.3 48.9.7.1 1.6-1.6 1.7-1.9 20.7-39.7 36-78 36-78 3.5-8.8 8.4-20.3 14-37 .9-2.8 3-8.9 5-17 3.8-15.3 5.8-22.9 4-25-9.5-11.3-97.7 25-102 76a53.41 53.41 0 0 0 0 8z" fill="url(#K)"/><path d="M465 222.5s-6-17-20-20-25-9-33 0-3 13-3 13 8-6 22-1a244.19 244.19 0 0 0 29 8zm68 3s-4 8 9 11 24 2 34 6 33 10 33 10l8 4s-1-10-14-19-34-15-38-15-31 0-32 3z" fill="#28272d"/><path d="M503 325.5c1.8.1 5.7.2 6-1 .2-.7-1.1-1.8-3-3-5.9-3.8-16.1-8.3-19.8-5.7a3 3 0 0 0-1.2 1.7c-2 5 2 7 2 7 2.4-.1 4.8-.1 7.1 0a65.5 65.5 0 0 1 8.9 1zm-45-8s-9-12-14-9 3 4 3 4 7 6 11 5z" fill="#ce9a95"/><path d="M655.5 321s-27 40-44 42-21-11-31-9-6 29-23 36-42 30-57 30-72 1-84-17-38-44-41-49-4 12 5 26 25 39 24 50 12 14 29 16 23 7 36 11 90-4 104-12 40-27 49-42 32-61 33-68 4-20 0-14z" fill="#e8aea6"/><path d="M422 343.5s0-14-4-5 0 14 2 13 14-3 24 0 28 9 40 10 31 7 42 7 14-4 15 0 0 11 2 8 5-17-5-20c0 0 2.5 3.5.5 5.5s-32 4-68-6-42-10-45-10a3.35 3.35 0 0 1-3.5-2.5z" fill="#ce9a95"/><path d="M519 305.5a12.65 12.65 0 0 1 3 6c1.3 6.8-4 12-4.5 12.5a10.84 10.84 0 0 1 5.5-1.5c2.4 0 5.7 1 10.5 6.5 7.2 8.2 8.9 16.3 9.8 16 1.1-.4.5-6.7-2.8-23-13.2-16.8-20.7-24.7-22.5-23.5-.8.5-.5 2.9 1 7zM446.5 277s15 1 4 8-17 16-14 22-6 5-9 6 14-29 19-36zm-51 41s1 23-2 28 2-28 2-28zm175 38s9 13 3 21z" fill="#e8aea6"/><path d="M477.5 228c-.1 2.8 2.2 3.4 3 7 .9 4-1.1 8-.4 8.2a.3.3 0 0 0 .4-.2c1.8-1.8 9.1-5.2 12-6 6.3-1.6 12.6 3.7 13 4 5 4.3 5.4 10.2 7 10s.1-6 4-11c3-3.9 7.4-4.9 7.1-7-.2-1-1.4-1.6-2.1-2-8-3.8-21.1-6.2-25-7-9.2-1.8-12.8-3.4-16-1-.3.3-2.9 2.2-3 5z" fill="#f2b5af"/><path d="M657.5 262a191.48 191.48 0 0 0-3 32c0 17-2 32 0 33.5s2 .5 11-14.5 27.2-36 27.2-36 14.8-9.5 18.8-8.7 10-22.3 10-22.3 19-38 20-55 3-69-9-84-35-44-49-49-32-13-39-23 0-24 0-24-13 6-17 11l-3-11s-14-6-26 9c0 0-13-9-23-10 0 0 3 5-2 6s-23-10-19-16c0 0-13 11-9 20 0 0-21-13-19-20 0 0-17 18-11 27 0 0-11-6-15-16 0 0-7-2-11 12 0 0-16 11-16 3 0 0-5 1-9 7s-11-6-7-12c0 0-26 23-7 43 0 0-16-13-23-3 0 0 9 6 12 12 0 0-21 4-20 18a12.41 12.41 0 0 0 5 1c3 0-19 24-15 34a178.12 178.12 0 0 0 10.6 20.9c0 0 18.3-38.9 26.3-35.9 0 0 0 11 4 15 0 0 8-19 22-18s26-1 33-1 24 15 34 10 30-4 34-3 15 11 27 11 19 3 13 18c0 0 12-12 10-20 0 0 8-1 6 19s4 22 4 22 7-22 7-34c0 0 7-5 14 18s13 36-3 55-9 18-2 19 11 17 12 24-3.9 16-3.9 16z" fill="#28272d"/><g fill="#352e35"><path d="M473.5 67s-10-27 0-30c0 0 5 9 11 11 0 0 6-26 14-27 0 0-1 11 10 19 0 0 1 10 7 16 0 0-13-4-17-12 0 0-16 20-6 29 0 0-17 2-19-6zm-9 3s-25-6-28 10 0 16 0 16 10-19 18-14c0 0-5-2 3 9 0 0 8-20 15-11zm73 12s-31-15-29-25c0 0-7 32 3 39 0 0 13 10 26 12 0 0 5-32 27-16 0 0-15-10-12-35 0 0-23 9-15 25z"/><path d="M570.5 37s-36-1-38-10c0 0-8 15 3 24l22 18s-13-17-16-22c0 0 20 0 29-10z"/></g><path d="M414 514.5a97.84 97.84 0 0 1-3-13c-.5-3.1-.3-3.6-1-21-.2-6.2-.3-7.5 0-10 .8-6.2 2.8-10.6 2-11-.3-.2-1 .3-3 3-5 12.9-9 24.1-12 33-8.2 24.4-8.9 30.5-6 36 3.6 7 9.6 3.9 18.5 14.5 3.5 4.1 6.6-24.1 4.5-31.5z" fill="#e5afaa"/><g fill="#11bc92"><path class="Y" d="M134 909.5c-14.6-64.4-23.9-84.6-30-88-7.4-4.2-9.6-7.1-14-13-2.3-3-2.2-3.7-2-4 1.5-2 18.6 7 28 14 7.8 5.9 25.2 21.6 32 58a526.25 526.25 0 0 1-20-124q20 55.05 40 110c-13.8-37.4-15.6-67.4-15-87 1.8-57.7 26.6-87.4 14-143-4.4-19.6-11.9-35.2-10-36 2.4-1 21.4 22.3 25 52 3.6 29.1-11.1 35.5-11 74 0 4.6 2.3 19.4 7 49 5.1 32.2 13.4 34.5 15 57 1.2 16.3-1.7 20-1 45a310.21 310.21 0 0 0 3 36z" opacity=".59"/><path class="Z" d="M853 636.5c-6.1 53.1-13.9 97.5-20.9 131.3-11.6 56.4-21.7 88.5-27.1 104.8-5 15-9.6 27.3-13 36l86 1s-35-43-29-70 29-106 29-106l-29 69c-6 14 14-80 29-114 0 0-41 76-39 90z" opacity=".75"/></g><path class="a" d="M676 904.5l81-316-50-11-59-13s-12 334 6 341z" opacity=".59" fill="#5bf1cd"/><path d="M235 605.5s-44 173-34 235zm650 0s-64 206-48 248zm-146-92s46 37 49 77 0 40 0 40-21-101-49-117zm-456 0s-83 40-101 77z" opacity=".75" fill="#12af86" class="b"/></svg>