<svg xmlns="http://www.w3.org/2000/svg" xmlns:xlink="http://www.w3.org/1999/xlink" viewBox="0 0 843 853.11" xmlns:v="https://vecta.io/nano"><style><![CDATA[.AI{isolation:isolate}.AO{stroke-miterlimit:10}.AP{fill:#fad8cc}.AQ{fill:#0d0630}.AR{fill:#f6bdb4}.AS{fill:#120a4c}]]></style><defs><linearGradient id="A" x1="88" y1="735.5" x2="160" y2="735.5" gradientUnits="userSpaceOnUse"><stop offset="0" stop-color="#02e2ac"/><stop offset=".49" stop-color="#11bc92"/><stop offset="1" stop-color="#5bf1cd"/></linearGradient><linearGradient id="B" x1="87.5" y1="734.98" x2="161.6" y2="734.98" gradientUnits="userSpaceOnUse">
<stop offset="0" stop-color="#fff"/><stop offset="1"/></linearGradient><linearGradient id="C" x1="37.5" y1="778.25" x2="131" y2="778.25" xlink:href="#A"/><linearGradient id="D" x1="36.39" y1="777.73" x2="134.29" y2="777.73" xlink:href="#B"/><linearGradient id="E" x1="91.5" y1="738.5" x2="149.5" y2="738.5" xlink:href="#A"/><linearGradient id="F" x1="91" y1="737.7" x2="153.06" y2="737.7" xlink:href="#B"/><linearGradient id="G" x1="47.5" y1="795.5" x2="108.5" y2="795.5" xlink:href="#A"/><linearGradient id="H" x1="43.77" y1="796.14" x2="111.9" y2="796.14" xlink:href="#B"/><linearGradient id="I" x1="133.5" y1="760" x2="145.5" y2="760" xlink:href="#A"/><linearGradient id="J" x1="133" y1="760" x2="146" y2="760" xlink:href="#B"/><linearGradient id="K" x1="88.5" y1="722" x2="102.5" y2="722" xlink:href="#A"/><linearGradient id="L" x1="88" y1="722" x2="103" y2="722" xlink:href="#B"/><linearGradient id="M" x1="198" y1="704.5" x2="270" y2="704.5" xlink:href="#A"/><linearGradient id="N" x1="197.5" y1="703.98" x2="271.6" y2="703.98" xlink:href="#B"/><linearGradient id="O" x1="147.5" y1="747.25" x2="241" y2="747.25" xlink:href="#A"/>
<linearGradient id="P" x1="146.39" y1="746.73" x2="244.29" y2="746.73" xlink:href="#B"/><linearGradient id="Q" x1="201.5" y1="707.5" x2="259.5" y2="707.5" xlink:href="#A"/><linearGradient id="R" x1="201" y1="706.7" x2="263.06" y2="706.7" xlink:href="#B"/><linearGradient id="S" x1="157.5" y1="764.5" x2="218.5" y2="764.5" xlink:href="#A"/><linearGradient id="T" x1="153.77" y1="765.14" x2="221.9" y2="765.14" xlink:href="#B"/>
<linearGradient id="U" x1="243.5" y1="729" x2="255.5" y2="729" xlink:href="#A"/><linearGradient id="V" x1="243" y1="729" x2="256" y2="729" xlink:href="#B"/><linearGradient id="W" x1="198.5" y1="691" x2="212.5" y2="691" xlink:href="#A"/><linearGradient id="X" x1="198" y1="691" x2="213" y2="691" xlink:href="#B"/><linearGradient id="Y" x1="198" y1="786.5" x2="270" y2="786.5" xlink:href="#A"/><linearGradient id="Z" x1="197.5" y1="785.98" x2="271.6" y2="785.98" xlink:href="#B"/><linearGradient id="a" x1="157.4" y1="819" x2="241" y2="819" xlink:href="#A"/><linearGradient id="b" x1="156.6" y1="818.16" x2="244.29" y2="818.16" xlink:href="#B"/><linearGradient id="c" x1="201.5" y1="789.5" x2="259.5" y2="789.5" xlink:href="#A"/><linearGradient id="d" x1="201" y1="788.7" x2="263.06" y2="788.7" xlink:href="#B"/><linearGradient id="e" x1="170.1" y1="841.25" x2="218.5" y2="841.25" xlink:href="#A"/><linearGradient id="f" x1="168.72" y1="840.92" x2="221.9" y2="840.92" xlink:href="#B"/><linearGradient id="g" x1="243.5" y1="811" x2="255.5" y2="811" xlink:href="#A"/><linearGradient id="h" x1="243" y1="811" x2="256" y2="811" xlink:href="#B"/><linearGradient id="i" x1="198.5" y1="773" x2="212.5" y2="773" xlink:href="#A"/><linearGradient id="j" x1="198" y1="773" x2="213" y2="773" xlink:href="#B"/><linearGradient id="k" x1="328" y1="725.5" x2="400" y2="725.5" xlink:href="#A"/><linearGradient id="l" x1="327.5" y1="724.98" x2="401.6" y2="724.98" xlink:href="#B"/><linearGradient id="m" x1="277.5" y1="768.25" x2="371" y2="768.25" xlink:href="#A"/><linearGradient id="n" x1="276.39" y1="767.73" x2="374.29" y2="767.73" xlink:href="#B"/><linearGradient id="o" x1="331.5" y1="728.5" x2="389.5" y2="728.5" xlink:href="#A"/><linearGradient id="p" x1="331" y1="727.7" x2="393.06" y2="727.7" xlink:href="#B"/><linearGradient id="q" x1="287.5" y1="785.5" x2="348.5" y2="785.5" xlink:href="#A"/><linearGradient id="r" x1="283.77" y1="786.14" x2="351.9" y2="786.14" xlink:href="#B"/><linearGradient id="s" x1="373.5" y1="750" x2="385.5" y2="750" xlink:href="#A"/><linearGradient id="t" x1="373" y1="750" x2="386" y2="750" xlink:href="#B"/><linearGradient id="u" x1="328.5" y1="712" x2="342.5" y2="712" xlink:href="#A"/><linearGradient id="v" x1="328" y1="712" x2="343" y2="712" xlink:href="#B"/><linearGradient id="w" x1="317" y1="815.5" x2="389" y2="815.5" xlink:href="#A"/><linearGradient id="x" x1="316.5" y1="814.98" x2="390.6" y2="814.98" xlink:href="#B"/><linearGradient id="y" x1="290.53" y1="833.5" x2="308" y2="833.5" xlink:href="#A"/><linearGradient id="z" x1="289.73" y1="832.66" x2="308.5" y2="832.66" xlink:href="#B"/><linearGradient id="AA" x1="320.5" y1="818.5" x2="378.5" y2="818.5" xlink:href="#A"/><linearGradient id="AB" x1="320" y1="817.7" x2="382.06" y2="817.7" xlink:href="#B"/><linearGradient id="AC" x1="362.5" y1="840" x2="374.5" y2="840" xlink:href="#A"/><linearGradient id="AD" x1="362" y1="840" x2="375" y2="840" xlink:href="#B"/><linearGradient id="AE" x1="317.5" y1="802" x2="331.5" y2="802" xlink:href="#A"/><linearGradient id="AF" x1="317" y1="802" x2="332" y2="802" xlink:href="#B"/><linearGradient id="AG" x1="447" y1="740.5" x2="519" y2="740.5" xlink:href="#A"/><linearGradient id="AH" x1="446.5" y1="739.98" x2="520.6" y2="739.98" xlink:href="#B"/><linearGradient id="AI" x1="396.5" y1="783.25" x2="490" y2="783.25" xlink:href="#A"/><linearGradient id="AJ" x1="395.39" y1="782.73" x2="493.29" y2="782.73" xlink:href="#B"/><linearGradient id="AK" x1="450.5" y1="743.5" x2="508.5" y2="743.5" xlink:href="#A"/><linearGradient id="AL" x1="450" y1="742.7" x2="512.06" y2="742.7" xlink:href="#B"/><linearGradient id="AM" x1="406.5" y1="800.5" x2="467.5" y2="800.5" xlink:href="#A"/><linearGradient id="AN" x1="402.77" y1="801.14" x2="470.9" y2="801.14" xlink:href="#B"/><linearGradient id="AO" x1="492.5" y1="765" x2="504.5" y2="765" xlink:href="#A"/><linearGradient id="AP" x1="492" y1="765" x2="505" y2="765" xlink:href="#B"/><linearGradient id="AQ" x1="447.5" y1="727" x2="461.5" y2="727" xlink:href="#A"/><linearGradient id="AR" x1="447" y1="727" x2="462" y2="727" xlink:href="#B"/><linearGradient id="AS" x1="457" y1="821.5" x2="529" y2="821.5" xlink:href="#A"/><linearGradient id="AT" x1="456.5" y1="820.93" x2="530.6" y2="820.93" xlink:href="#B"/><linearGradient id="AU" x1="436.84" y1="840" x2="448" y2="840" xlink:href="#A"/><linearGradient id="AV" x1="436.04" y1="839.17" x2="448.5" y2="839.17" xlink:href="#B"/><linearGradient id="AW" x1="460.5" y1="827.25" x2="518.5" y2="827.25" xlink:href="#A"/><linearGradient id="AX" x1="460" y1="826.1" x2="522.07" y2="826.1" xlink:href="#B"/><linearGradient id="AY" x1="502.7" y1="849.26" x2="514.3" y2="849.26" xlink:href="#A"/><linearGradient id="AZ" x1="502.06" y1="849.26" x2="514.96" y2="849.26" xlink:href="#B"/><linearGradient id="Aa" x1="457.5" y1="815" x2="471.5" y2="815" xlink:href="#A"/><linearGradient id="Ab" x1="457" y1="815" x2="472" y2="815" xlink:href="#B"/><linearGradient id="Ac" x1="589" y1="750.5" x2="661" y2="750.5" xlink:href="#A"/><linearGradient id="Ad" x1="588.5" y1="749.98" x2="662.6" y2="749.98" xlink:href="#B"/><linearGradient id="Ae" x1="538.5" y1="793.25" x2="632" y2="793.25" xlink:href="#A"/><linearGradient id="Af" x1="537.39" y1="792.73" x2="635.29" y2="792.73" xlink:href="#B"/><linearGradient id="Ag" x1="592.5" y1="753.5" x2="650.5" y2="753.5" xlink:href="#A"/><linearGradient id="Ah" x1="592" y1="752.7" x2="654.06" y2="752.7" xlink:href="#B"/><linearGradient id="Ai" x1="548.5" y1="810.5" x2="609.5" y2="810.5" xlink:href="#A"/><linearGradient id="Aj" x1="544.77" y1="811.14" x2="612.9" y2="811.14" xlink:href="#B"/><linearGradient id="Ak" x1="634.5" y1="775" x2="646.5" y2="775" xlink:href="#A"/><linearGradient id="Al" x1="634" y1="775" x2="647" y2="775" xlink:href="#B"/><linearGradient id="Am" x1="589.5" y1="737" x2="603.5" y2="737" xlink:href="#A"/><linearGradient id="An" x1="589" y1="737" x2="604" y2="737" xlink:href="#B"/><linearGradient id="Ao" x1="720" y1="759.2" x2="762.8" y2="759.2" xlink:href="#A"/><linearGradient id="Ap" x1="719.5" y1="759.21" x2="763.47" y2="759.21" xlink:href="#B"/><linearGradient id="Aq" x1="669.5" y1="785.25" x2="763" y2="785.25" xlink:href="#A"/><linearGradient id="Ar" x1="668.39" y1="784.73" x2="766.29" y2="784.73" xlink:href="#B"/><linearGradient id="As" x1="723.5" y1="757.25" x2="752.27" y2="757.25" xlink:href="#A"/><linearGradient id="At" x1="723" y1="757.55" x2="753.07" y2="757.55" xlink:href="#B"/><linearGradient id="Au" x1="679.5" y1="802.5" x2="740.5" y2="802.5" xlink:href="#A"/><linearGradient id="Av" x1="675.77" y1="803.14" x2="743.9" y2="803.14" xlink:href="#B"/><linearGradient id="Aw" x1="765.5" y1="767" x2="777.5" y2="767" xlink:href="#A"/><linearGradient id="Ax" x1="765" y1="767" x2="778" y2="767" xlink:href="#B"/><linearGradient id="Ay" x1="742" y1="818.35" x2="809" y2="818.35" xlink:href="#A"/><linearGradient id="Az" x1="741.5" y1="818.36" x2="809.7" y2="818.36" xlink:href="#B"/><linearGradient id="BA" x1="715.53" y1="833.5" x2="733" y2="833.5" xlink:href="#A"/><linearGradient id="BB" x1="714.73" y1="832.66" x2="733.5" y2="832.66" xlink:href="#B"/><linearGradient id="BC" x1="745.5" y1="818.5" x2="803.5" y2="818.5" xlink:href="#A"/><linearGradient id="BD" x1="745" y1="817.7" x2="807.06" y2="817.7" xlink:href="#B"/><linearGradient id="BE" x1="787.5" y1="840" x2="799.5" y2="840" xlink:href="#A"/><linearGradient id="BF" x1="787" y1="840" x2="800" y2="840" xlink:href="#B"/><linearGradient id="BG" x1="742.5" y1="802" x2="756.5" y2="802" xlink:href="#A"/><linearGradient id="BH" x1="742" y1="802" x2="757" y2="802" xlink:href="#B"/></defs><path d="M843 851.5H0s7-43 36-100 71-64 71-64l68-17h34l41.6 9.7 5.1 1.2 1.1.3 3.9.9 47.3 11 57 1 4.4 14 1 3.3 1.6 5.3 3.5 11 5 16 .5 1.4a62.58 62.58 0 0 0 4.3 6.2c8.1 10.5 26 27.1 36.2-12.1 13.5-51.9 42.3-44.5 42.3-44.5l45.3 1.4 71 14 74.6 7.2 3.6.3 4.8.5s33.9 6 57.9 12.9c3.7 1 7.1 2.1 10.1 3.1l.5.2a77.76 77.76 0 0 1 9.3 4.2c.9.5 1.9 1 2.8 1.6 2.8 1.6 5.7 3.3 8.6 5.2 3.4 2.2 7 4.6 10.5 7.1 16.3 11.5 32.8 24.9 42.5 31.3 1.4.9 2.6 1.7 3.7 2.3h0c14 8.1 34 65 34 65z" fill="#60ddae"/><g opacity=".44"><g class="AO"><path d="M 88 745.5 L 160 698.5 L 118 766.5 L 88 772.5 L 88 745.5 Z" fill="url(#A)" stroke="url(#B)"/><path d="M 79 735.5 L 79 782.5 L 131 772.5 L 37.5 821 L 79 735.5 Z" fill="url(#C)" stroke="url(#D)"/><path d="M 91.5 746 L 149.5 710 L 91.5 767 L 91.5 746 Z" fill="url(#E)" stroke="url(#F)"/><path d="M 77.5 786 L 108.5 780 L 47.5 811 L 77.5 786 Z" fill="url(#G)" stroke="url(#H)"/></g><circle cx="139.5" cy="760" r="6" fill="url(#I)" stroke="url(#J)"/><circle cx="95.5" cy="722" r="7" fill="url(#K)" stroke="url(#L)"/><g class="AO"><path d="M 198 714.5 L 270 667.5 L 228 735.5 L 198 741.5 L 198 714.5 Z" fill="url(#M)" stroke="url(#N)"/><path d="M 189 704.5 L 189 751.5 L 241 741.5 L 147.5 790 L 189 704.5 Z" fill="url(#O)" stroke="url(#P)"/><path d="M 201.5 715 L 259.5 679 L 201.5 736 L 201.5 715 Z" fill="url(#Q)" stroke="url(#R)"/><path d="M 187.5 755 L 218.5 749 L 157.5 780 L 187.5 755 Z" fill="url(#S)" stroke="url(#T)"/></g><circle cx="249.5" cy="729" r="6" fill="url(#U)" stroke="url(#V)"/><circle cx="205.5" cy="691" r="7" fill="url(#W)" stroke="url(#X)"/><g class="AO"><path d="M 198 796.5 L 270 749.5 L 228 817.5 L 198 823.5 L 198 796.5 Z" fill="url(#Y)" stroke="url(#Z)"/><path d="M 241 823.5 L 187 851.5 L 157.4 851.5 L 189 786.5 L 189 833.5 L 241 823.5 Z" fill="url(#a)" stroke="url(#b)"/><path d="M 201.5 797 L 259.5 761 L 201.5 818 L 201.5 797 Z" fill="url(#c)" stroke="url(#d)"/><path d="M 218.5 831 L 178.2 851.5 L 170.1 851.5 L 187.5 837 L 218.5 831 Z" fill="url(#e)" stroke="url(#f)"/></g><circle cx="249.5" cy="811" r="6" fill="url(#g)" stroke="url(#h)"/><circle cx="205.5" cy="773" r="7" fill="url(#i)" stroke="url(#j)"/><g class="AO"><path d="M 328 735.5 L 400 688.5 L 358 756.5 L 328 762.5 L 328 735.5 Z" fill="url(#k)" stroke="url(#l)"/><path d="M 319 725.5 L 319 772.5 L 371 762.5 L 277.5 811 L 319 725.5 Z" fill="url(#m)" stroke="url(#n)"/><path d="M 331.5 736 L 389.5 700 L 331.5 757 L 331.5 736 Z" fill="url(#o)" stroke="url(#p)"/><path d="M 317.5 776 L 348.5 770 L 287.5 801 L 317.5 776 Z" fill="url(#q)" stroke="url(#r)"/></g><circle cx="379.5" cy="750" r="6" fill="url(#s)" stroke="url(#t)"/><circle cx="335.5" cy="712" r="7" fill="url(#u)" stroke="url(#v)"/><g class="AO"><path d="M 317 825.5 L 389 778.5 L 347 846.5 L 317 852.5 L 317 825.5 Z" fill="url(#w)" stroke="url(#x)"/><path d="M 308 815.5 L 308 851.5 L 290.5 851.5 L 308 815.5 Z" fill="url(#y)" stroke="url(#z)"/><path d="M 320.5 826 L 378.5 790 L 320.5 847 L 320.5 826 Z" fill="url(#AA)" stroke="url(#AB)"/></g><circle cx="368.5" cy="840" r="6" fill="url(#AC)" stroke="url(#AD)"/><circle cx="324.5" cy="802" r="7" fill="url(#AE)" stroke="url(#AF)"/><g class="AO"><path d="M 447 750.5 L 519 703.5 L 477 771.5 L 447 777.5 L 447 750.5 Z" fill="url(#AG)" stroke="url(#AH)"/><path d="M 438 740.5 L 438 787.5 L 490 777.5 L 396.5 826 L 438 740.5 Z" fill="url(#AI)" stroke="url(#AJ)"/><path d="M 450.5 751 L 508.5 715 L 450.5 772 L 450.5 751 Z" fill="url(#AK)" stroke="url(#AL)"/><path d="M 436.5 791 L 467.5 785 L 406.5 816 L 436.5 791 Z" fill="url(#AM)" stroke="url(#AN)"/></g><circle cx="498.5" cy="765" r="6" fill="url(#AO)" stroke="url(#AP)"/><circle cx="454.5" cy="727" r="7" fill="url(#AQ)" stroke="url(#AR)"/><g class="AO"><path d="M 529 791.5 L 491.9 851.5 L 457 851.5 L 457 838.5 L 529 791.5 Z" fill="url(#AS)" stroke="url(#AT)"/><path d="M 448 828.5 L 448 851.5 L 436.8 851.5 L 448 828.5 Z" fill="url(#AU)" stroke="url(#AV)"/><path d="M 518.5 803 L 469.1 851.5 L 460.5 851.5 L 460.5 839 L 518.5 803 Z" fill="url(#AW)" stroke="url(#AX)"/><path d="M514.3,851.5H502.7a6,6,0,0,1,11.6,0Z" fill="url(#AY)" stroke="url(#AZ)"/></g><circle cx="464.5" cy="815" r="7" fill="url(#Aa)" stroke="url(#Ab)"/><g class="AO"><path d="M 589 760.5 L 661 713.5 L 619 781.5 L 589 787.5 L 589 760.5 Z" fill="url(#Ac)" stroke="url(#Ad)"/><path d="M 580 750.5 L 580 797.5 L 632 787.5 L 538.5 836 L 580 750.5 Z" fill="url(#Ae)" stroke="url(#Af)"/><path d="M 592.5 761 L 650.5 725 L 592.5 782 L 592.5 761 Z" fill="url(#Ag)" stroke="url(#Ah)"/><path d="M 578.5 801 L 609.5 795 L 548.5 826 L 578.5 801 Z" fill="url(#Ai)" stroke="url(#Aj)"/></g><circle cx="640.5" cy="775" r="6" fill="url(#Ak)" stroke="url(#Al)"/><circle cx="596.5" cy="737" r="7" fill="url(#Am)" stroke="url(#An)"/><g class="AO"><path d="M762.8,752.8,750,773.5l-30,6v-27l20.8-13.6c.9.5,1.9,1,2.8,1.6,2.8,1.6,5.7,3.3,8.6,5.2C755.7,748,759.2,750.3,762.8,752.8Z" fill="url(#Ao)" stroke="url(#Ap)"/><path d="M 711 742.5 L 711 789.5 L 763 779.5 L 669.5 828 L 711 742.5 Z" fill="url(#Aq)" stroke="url(#Ar)"/><path d="M752.3,745.7,723.5,774V753l20.2-12.5C746.4,742.1,749.3,743.8,752.3,745.7Z" fill="url(#As)" stroke="url(#At)"/><path d="M 709.5 793 L 740.5 787 L 679.5 818 L 709.5 793 Z" fill="url(#Au)" stroke="url(#Av)"/></g><circle cx="771.5" cy="767" r="6" fill="url(#Aw)" stroke="url(#Ax)"/><g class="AO"><path d="M809,786.5l-37,60-30,6v-27l63.3-41.3C806.7,785.1,807.9,785.9,809,786.5Z" fill="url(#Ay)" stroke="url(#Az)"/><path d="M 733 815.5 L 733 851.5 L 715.5 851.5 L 733 815.5 Z" fill="url(#BA)" stroke="url(#BB)"/><path d="M 745.5 826 L 803.5 790 L 745.5 847 L 745.5 826 Z" fill="url(#BC)" stroke="url(#BD)"/></g><circle cx="793.5" cy="840" r="6" fill="url(#BE)" stroke="url(#BF)"/><circle cx="749.5" cy="802" r="7" fill="url(#BG)" stroke="url(#BH)"/></g><path d="M357 708.5c-5.3-4.5-9.9-5.7-13-6-17.3-1.8-32.8 19.9-40 15-.8-.5-.5-.9-1.5-1.4-4.5-2.3-12.4 6-19.5 2.4-8-4-58-11-58-11l-58-34s-16-16 0-29 41-13 50-19 1-16 9-18 41-13 57-44 27-7 39-5 158 20 158 20l71 12s34 8 56 6 26 1 27 13 11 33 11 33 30-13 33-9 47 53 48 60 11 36 0 35-42-8-52 7-137.5-6.5-137.5-6.5-9-26-22-16-49-29-64-16-30 75-30 75h-48c-4-14.7-7.9-29.8-11.5-45.5l-4-18z" fill="#674def"/><path d="M295,631.5s50-43,40-108-36-144-40-172-6-92-6-92l3-70,21-71,104-38H525l81,31L620.5,163l18,87-14,93-8,43c-2,8-32,97-32,97l-11,23c-9.2,18-19.9,46.5-16,79,2.5,20.6,10.7,41.3,13.5,48.5A247.39,247.39,0,0,0,584.5,662L560,682.5l-51,14c-41.5-8.9-59.5-2.2-68,6-14.8,14.3-19,20-19,20-6.1,8.4-9.7,16-17,17-.7.1-4,.5-9-2-16.9-8.5-12.3-29.7-30-42a58.67,58.67,0,0,0-15-7c-10-3.2-14.3-1.9-20-4s-13.1-7.6-19-23Z" class="AP"/><path class="AI" d="M321 596.5s-5.5 13.2.2 27.3c1 2.4 2.7 5.5 10.8 14.7 6.8 7.7 12.1 13.7 20.1 20.5 21.6 18.3 28.6 13.5 38.9 26.5 11 14 8.2 26.2 14.6 27.4 10.9 2 18.2-33.7 40-37.8 10.7-2 21.1 4.3 28.4 10.4l59-15a57.16 57.16 0 0 0 15-16c15.8-25.3 5.2-54.9 10-56 5.6-1.3 20.5 39.7 21.5 42.5a8.8 8.8 0 0 1 .5 1.5c0 10-17 40-17 40L495.2 694l-54.2 8.5-31 43-28.2-26.1c-2.2-7.2-6.5-17.3-15.8-23.9-12-8.4-21.4-3.4-35-11-9.8-5.5-14.4-13.6-23.7-29.9a188.2 188.2 0 0 1-18.3-45.1s2.8-3.1 32-13z" fill="#d44d6e" opacity=".17"/><path d="M311.5 645a80.46 80.46 0 0 0 21 33l41 14 25 39c4 14 12 0 12 0l27-35 22-7 46-3 36-5 22-14 11-14-11-28-5.5-22.5v-14a10.45 10.45 0 0 1 4.2-1.4c4.6-.4 9.3 2.7 12.3 7.7 9.8 21.1 12 28.8 11 30.2-2 3 20-31 28-22 0 0-16 12-13 22s-13 20-13 20a44.16 44.16 0 0 0 37 4c21-7 16 1 16 1s-62 16-65 23-12 26-33 29-67.8-2.6-67.8-2.6-24.2-5.3-29.2 3.7-35 43-35 43h-20l-25-51s-27-10-39-5-5-11-5-11-19-31-57-19-65 4-53 0 43-1 51-12 26-42 8-39-25 0-9-10 16-7 16-7l22-29c5.3-3 17.6-8.9 29.5-4.5a29.17 29.17 0 0 1 3.1 1.4c0 1.1 0 2.7-.1 4.6-1 15.8-7.5 26.8-10.5 32.5-4 7.6-16.3 29.1-10 47.9z" class="AQ"/><path d="M311.5,393s-5,26-33,4-23-97-23-97,9-26,16-16,25,22,25,22Z" class="AP"/><path d="M292.3 324.4s-13.8-6.4-16.8 5.6-6 27 3 30 10 4 11 9 5.6 5.5 6.3-12.8a103.6 103.6 0 0 0-3.5-31.8z" fill="#e5afaa"/><path d="M272.5 301s-5-22-11-3-4 60 0 54 7-32 11-35 0-16 0-16z" class="AR"/><path d="M596.5 425s26 2 31-4 19-44 19-59 8-46 6-50-11-2-19 11l-15 24z" class="AP"/><path d="M614.5 392.6s-1 4.4 6-3.6 7 5 11-5 3-28-3-28-17 28.3-14 36.6z" fill="#e5afaa"/><path d="M638.5 331s-2 13 0 21-2 33 3 20 10-54 6-51-9 6-9 10zm-133 29c-.3-1.2-.6-2.9.1-3.3 1.2-.7 4.7 3 5.4 3.8a30.9 30.9 0 0 1 5 7c.9 1.7 3.9 5.5 10 13 6.7 8.4 10.5 12.4 10 13s-2.8-2-8-4c-3.2-1.3-3.7-.8-7-2-4.3-1.5-8.1-2.8-10-6-1.8-3-.3-4.9-1-10a26.68 26.68 0 0 0-4.5-11.5zm-79-12s-18 14-8 28c0 0-8-5-20 18s7-32 28-46zm19 61s22 7 29 0c0 0-16 19-29 0zm-54 22s-11-4-3 7c6.7 9.2 2.2 1 4-.3.6-.4 1.8.2 2 .3 3.8 2 39.7 6.4 63 7 26.8.7 55.8-3.4 61-2a5.52 5.52 0 0 0 4 0c2.2-.9 2.8-3.1 3.7-3.1.3 0 .6.8 1.3 3.1 1.7 5.8 6.1-4.3 2.9-6.7a3.67 3.67 0 0 0-2.9-.3 11.81 11.81 0 0 0-6 3c-6.1 5.7-44.1 4.6-63 4-4.9-.2-10.9-.4-19-1-9.8-.8-8.1-1-19-2-13.9-1.3-20.1-1.2-26-6a21.27 21.27 0 0 1-3-3zm45 40s45 6 59 0-11 14-26 13-46-14-33-13zm-3-93s8-4 12 2-10 0-10 0-5-1-2-2zm47 7a14.08 14.08 0 0 1 10-2c6 1 2 2-3 3s-9 0-7-1z" class="AR"/><path d="M409.5 283a14 14 0 0 1-28 0 15.23 15.23 0 0 1 .6-4.2 11.07 11.07 0 0 1 1.2-2.7c6.8-1.7 13.8-2.7 20.1-2.1 1 .1 2.1.3 3.1.5a13.18 13.18 0 0 1 3 8.5z" class="AQ"/><circle cx="396.5" cy="283" r="3" class="AS"/><g class="AQ"><path d="M430.5 294c-4 7-12 3-8 3s4-7 4-7c-2.5-3.4-7.9-10-17.1-13.2a32.86 32.86 0 0 0-10.8-1.9c-3.3-.1-7.2.2-16.5 2.9-10 2.9-21.8 6.4-21.6 10.2.1 1.9 3 3.1 2.6 3.7s-4.6-1-6.7-1.9-3.3-1.4-3.4-1.9c-.2-1.2 2.3-2.8 12.5-6.7a146.13 146.13 0 0 1 17.8-6.1c12-2.9 18.4-2.2 20.1-2.1 1 .1 2.1.3 3.1.5 16.9 3.6 24 20.5 24 20.5zm120-3a14 14 0 1 1-21.2-12h.2a53.51 53.51 0 0 1 17.7 3 13.52 13.52 0 0 1 3.3 9z"/><circle cx="536.5" cy="290" r="3"/><path d="M567.5 301c-2.5.8-2.5 1.4-4.5 1.8-2.7.6 2.2-3.7 3.2-5.7.1-.3.7-1.7-2.2-5-1.4-1.6-5.9-6.4-19.1-9.7-6.3-1.6-10.4-2.6-16.2-1.8a34.49 34.49 0 0 0-11.9 4.2c-3.1 1.6-11.8 6-11.3 10.3.1 1.2.8 1.8.5 2.7-.6 1.7-3.1 2.6-6.5 1.3-5-2 0-3 0-3s11.9-17.9 29.8-18h.2a73.69 73.69 0 0 1 17.7 3c7.9 2.4 15.1 6 21 11.5.6.6 5.5 5.3 4.4 7.1-.5.8-1.8.2-5.1 1.3zm-70-51s-8 14 2 13 43-6 56-4 30 13 33 14 12 11 11 5-13-25-24-28-22-10-42-7-36 7-36 7zm-58 7s-3-18-19-19-16 0-16 0-22-1-31 2l-32 11c-3 3-11 12 4 10s35-6 43-6 29 2 35 4 16-2 16-2zm-136-19s-1 48-3 63-2.5 49.4-5.8 35.2c-4.1-18.1-11.6-21.9-16.2-40.2-3.2-12.8.1-11.6-3.5-25.5-2.9-10.9-5.6-14.1-8-24a84.23 84.23 0 0 1-2-26 211 211 0 0 1 10-54s6.4-19.6 40.5-79.5c0 0-20 2-32-6 0 0 33 0 41-6s43-40 58-46l64-25s-10 4-7 7c0 0 3-2 28-4s56 1 62-3 7-4 7-4-6 5-5 11 17-1 24 6c0 0-8 3-8 6v-3s25 4 28 13c-2.3 1.1-4.6 2.1-7 3 0 0 24 17 31 29l-7-2s19 16 25 14l-12 4s13 17 24 43l11 26 14 71-3.5 53.5-2 27a13.25 13.25 0 0 1-2 7 10.71 10.71 0 0 1-3 3 63.62 63.62 0 0 0-11 11 59.47 59.47 0 0 0-7 10.9l-2.6 14.6-2.3 13.3-3.6-33.3 3-69s3-53-7-74a423.9 423.9 0 0 1-17-42s-7 22-3 27c0 0-9-18-18-33s-20.3-27.4-17.5-15.5l2 9.1a392.6 392.6 0 0 1 6.5 44.4 36.1 36.1 0 0 1-4 10s-12-56-35-79c0 0 14 28 13 34 0 0-11-15-25-15 0 0 7 20 5 27a120.47 120.47 0 0 0-26.1-23.8c-15.1-10-15.5-5.1-29.4-14.8-2.3-1.6-5.8-4.2-8-3-3.4 1.8-2 10.9-1 16a87.64 87.64 0 0 0-63-24c17.9 24.4 20.6 30.6 19.5 31.5-1.4 1.2-9.1-7.8-23.9-15.6a150.17 150.17 0 0 0-26.6-10.9 109.7 109.7 0 0 1 15.3 11 113.3 113.3 0 0 1 25.3 31.5s-41-2-57-23 3 30 14 39c0 0-26.8-28.3-34.2-40.1-1-1.7 4.2 15.1-5.8 33.1S298.5 222 303.5 238z"/></g><path d="M366 73.5c35.1 13.3 42.8 15.6 43 15 .2-.4-3.9-1.8-6-6a14 14 0 0 1-1-9c7.6 4.1 17.7 9.4 29.7 15.2 8.8 4.2 16.5 7.6 22.8 10.3 7.4 3.2 47 19 47 19l-47-47c-14-13-19-13-19-13s29 5 39 14c0 0-6-13-17-18s-43-11-43-11c-5.8-1.3-14.2-3.1-24.5-4.5-14.4-2-17.5-1.3-18 0-.9 2.5 8.6 8 8 9s-10.8-5.4-13-3c-1.9 2.1 3.8 9.3 2 11-1.6 1.5-7.1-3.4-9-2-1.4 1-1.1 5.3 6 20zM445.5 22s68 5 77-3c0 0-2 13-9 17 0 0 38 8 49 33s5 23 5 23-11-21-45-30-77-40-77-40z" class="AS"/><path d="M426,543.5a109.43,109.43,0,0,0,30,5.4c33.5,1.1,58.6-14.1,69-21.4a107.87,107.87,0,0,1-42.9,17.6c-47.3,8-83.9-19.9-91.1-25.6Z" class="AR"/><path d="M319.1 118.4s-27.8 36.8-30.6 66.9 2.6 20.1 2.6 20.1zM624 162.5s19.6 60.6 12.8 98.8z" class="AS"/><g fill="#82a8f9" stroke="#000" stroke-width=".25" class="AO"><path d="M405.7 771.2l7.5 5.3-.7 7.9-16.3 7.2-14.7-10.1.8-7.5 8.9-4.1-6.1-4.3.3-2.4 1.2-13.4 14.4-6.5 12.9 9.1-1.3 13.6-.2 2.2-6.7 3z"/><path d="M416.8 785.1l-2.1 21.9-20 9.2-17.8-12.7 2.1-22 3.3-1.5-.8 7.5 14.7 10.1 16.3-7.2.7-7.9 3.6 2.6z"/></g></svg>