<svg xmlns="http://www.w3.org/2000/svg" viewBox="0 0 845 789.54" xmlns:v="https://vecta.io/nano"><style><![CDATA[.B,.C,.D,.E{mix-blend-mode:multiply}.Z{fill:#ffd400}.a{fill:#a6ce39}.b{fill:#edc7be}.c{fill:#ed1c24}.d{fill:#7f6700}.e{fill:#00bac6}]]></style><defs><pattern id="A" width="334.21" height="190.18" patternUnits="userSpaceOnUse" viewBox="0 0 334.21 190.18"><path d="M0 0h334.21v190.18H0z" fill="none"/><path class="B e" d="M312.57 228.07a5.6 5.6 0 0 1-7.16 3.38c-.68-.24-16.58-9-32.59-16.6a12.61 12.61 0 0 1-1.72 2.9l47.57 50.41a5.6 5.6 0 1 1-8.56 7.22c-1.15-1.35-42.26-54.73-42.26-54.73a13 13 0 0 1-3.85 1.63l1 32.46a5.6 5.6 0 0 1-5.74 5.46h-.34a5.6 5.6 0 0 1-5.12-5.73c0-1.53 4.53-32.11 4.53-32.11a12.8 12.8 0 0 1-3.18-1.13l-26.37 46.13a5.6 5.6 0 0 1-9.22-6.37c1.22-1.76 33.45-41.18 33.45-41.18a14 14 0 0 1-1.2-1.11l-26.31 27.59a5.6 5.6 0 1 1-7.22-8.56c.85-.71 19.42-13.14 31.75-21.38-.12-.21-.26-.41-.37-.63l-47.22 18.78a5.38 5.38 0 0 1-2.18.25 5.58 5.58 0 0 1-4.86-3.87 5.59 5.59 0 0 1 3.62-7c1.74-.56 49.34-12 49.34-12a13.18 13.18 0 0 1-.13-3.15 8.09 8.09 0 0 1 .12-.86l-39.4-7.17a5.61 5.61 0 0 1 2-11 6.37 6.37 0 0 1 1.06.19c1.88.54 37.32 14.64 37.32 14.64a12.9 12.9 0 0 1 2.75-3.93l-45.48-47.94a5.6 5.6 0 1 1 8.56-7.23c1.39 1.64 39 53.57 39 53.57a12.52 12.52 0 0 1 1.69-.91l-19.76-43.49a5.6 5.6 0 1 1 10.59-3.64c.24.69 7.27 29.58 11.36 46.39a12.5 12.5 0 0 1 2.75-.4l-.95-33a5.6 5.6 0 1 1 11.16.94c-.16 1.9-6.51 32.49-6.51 32.49a13.19 13.19 0 0 1 3.13 1.34l27.6-48.12a5.6 5.6 0 1 1 9.24 6.33c-1.23 1.79-34.82 43.27-34.82 43.27a12.94 12.94 0 0 1 3.31 4.66l46.58-12.08a5.46 5.46 0 0 1 1.51-.08 5.6 5.6 0 0 1 .55 11.09c-1.55.29-47.68 6.42-47.68 6.42v.64a14.74 14.74 0 0 1-.26 1.64c17.1 4.53 34.93 8.16 35.61 8.4a5.61 5.61 0 0 1 3.31 7.18zm-42.31-17.51a9.26 9.26 0 1 0-10 8.45 9.27 9.27 0 0 0 10-8.45z"/><path class="C Z" d="M257.13 219.09a8.35 8.35 0 0 1 3-11.39c.92-.53 24.68-9.58 48.69-20.45a19.26 19.26 0 0 1-1.65-4.73l-90.39 5.72a8.33 8.33 0 0 1 0-16.66c2.64 0 90.22 4.46 90.22 4.46a19 19 0 0 1 1.85-5.93l-37.89-29.93a8.36 8.36 0 0 1-.69-11.76l.34-.36a8.34 8.34 0 0 1 11.42-.33c1.71 1.52 32.14 35.93 32.14 35.93a18.7 18.7 0 0 1 4.32-2.54l-27.08-74.23a8.32 8.32 0 0 1 5.85-10.22 8.35 8.35 0 0 1 10.23 5.85c.83 3.07 14.71 77.48 14.71 77.48a18 18 0 0 1 2.42-.3l-6.13-56.33a8.33 8.33 0 1 1 16.65 0c0 1.65-3.68 34.66-6.15 56.56l1.08.18L354 88.46a8.32 8.32 0 1 1 15.39 6.35c-1 2.51-33.67 67.54-33.67 67.54a19 19 0 0 1 3.71 2.87 10.57 10.57 0 0 1 .87 1l45.91-37.88a8.33 8.33 0 0 1 10.55 12.79 8.81 8.81 0 0 1-1.24 1c-2.41 1.62-52.39 28.36-52.39 28.36a19.2 19.2 0 0 1 1.82 6.88l81.66-5.7a8.33 8.33 0 1 1 0 16.65c-3.2 0-81.79-7.1-81.79-7.1a19.24 19.24 0 0 1-.59 2.79l68.35 19.23a8.33 8.33 0 1 1-6 15.53c-1-.39-40.58-20.1-63.59-31.57a18.63 18.63 0 0 1-2.18 3.51l38.37 30.53a8.33 8.33 0 0 1-11.8 11.76c-2-2-30.66-38.54-30.66-38.54a19.07 19.07 0 0 1-4.53 2.28l23.48 59.27a8.33 8.33 0 1 1-16.05 4.43c-.86-3.11-11-62.83-11-62.83a19.25 19.25 0 0 1-8.46-.7l-30.92 64.49a8.81 8.81 0 0 1-1.36 1.79 8.34 8.34 0 0 1-13.92-3.68 8.26 8.26 0 0 1 .79-6.32c1.15-2.05 38.4-60.32 38.4-60.32-.23-.21-.48-.41-.7-.64a17.68 17.68 0 0 1-1.61-1.87c-21.54 15.09-41.36 31.22-42.28 31.76a8.35 8.35 0 0 1-11.43-3.03zm59.05-30.63a13.77 13.77 0 1 0 0-19.47 13.79 13.79 0 0 0 0 19.47z"/><path class="D a" d="M436.59 273.84a6.38 6.38 0 0 1-8.86-1.64c-.46-.67-16.51-29.85-26.21-47.51a14.55 14.55 0 0 1-3.51 1.53l7.09 34.7a6.37 6.37 0 0 1-12.7 1c-.16-2 .68-35.17.68-35.17a14.43 14.43 0 0 1-4.63-1.06l-20.57 30.65a6.36 6.36 0 0 1-8.92 1.22l-.29-.23a6.37 6.37 0 0 1-.93-8.69c1.05-1.39 25.48-26.62 25.48-26.62a14.35 14.35 0 0 1-2.19-3.15l-55 25.06a6.35 6.35 0 0 1-6.28-1.16 6.47 6.47 0 0 1-1.86-2.69 6.38 6.38 0 0 1 3.86-8.14c2.29-.82 58.19-15.8 58.19-15.8a14.12 14.12 0 0 1-.37-1.83l-42.58 8a6.36 6.36 0 1 1-1-12.69c1.25-.1 26.64.75 43.48 1.33 0-.27 0-.55.07-.83l-30.25-5.66a6.37 6.37 0 1 1 3.93-12.11c2 .64 27.7 13.34 27.7 13.34a14.78 14.78 0 0 1 2-3c.21-.25.45-.48.68-.72l-31.59-32.75a6.37 6.37 0 0 1 9.12-8.8 6 6 0 0 1 .85.89c1.39 1.74 24.73 38.25 24.73 38.25a14.46 14.46 0 0 1 5.14-1.79l-7.45-39.6a6.36 6.36 0 0 1 12.69-1c.19 2.44-2.3 40.45-2.3 40.45a16 16 0 0 1 2.16.28l10.61-53.23a6.37 6.37 0 0 1 12.2 3.66c-.24.8-12.92 32.12-20.3 50.34a14.66 14.66 0 0 1 2.8 1.46l14.81-23.89a6.37 6.37 0 0 1 9.68 8.28c-1.41 1.64-21.38 18.49-21.38 18.49a14.6 14.6 0 0 1 2 3.31l40.39-20a6.4 6.4 0 0 1 6.31 1.15 6.38 6.38 0 0 1-2 10.83c-2.32.83-43.84 10.69-43.84 10.69a14.66 14.66 0 0 1 0 6.49l36.57 13.09a6.57 6.57 0 0 1 1.44.93 6.37 6.37 0 0 1-6.84 10.6c-1.63-.76-33.84-19-33.84-19-.14.19-.28.39-.44.57a15.3 15.3 0 0 1-1.33 1.34l34.44 42a6.38 6.38 0 0 1-1.64 8.83zM402 219a10.52 10.52 0 1 0-14.84 1.16A10.54 10.54 0 0 0 402 219z"/><path class="E c" d="M352.38 138.81a4.25 4.25 0 0 1-5.71-1.84c-.24-.48-8.33-21.15-13.21-33.66a9.89 9.89 0 0 1-2.46.69l1.69 23.53a4.24 4.24 0 1 1-8.47-.44c.07-1.34 3.48-23.17 3.48-23.17a10 10 0 0 1-3-1.1l-16.23 18.47a4.25 4.25 0 0 1-6 0l-.17-.18a4.25 4.25 0 0 1 .13-5.82c.82-.83 19.13-15.39 19.13-15.39a9.59 9.59 0 0 1-1.17-2.27l-38.49 11.82a4.26 4.26 0 0 1-4.05-1.31 4.33 4.33 0 0 1-1-1.94 4.2 4.2 0 0 1 .58-3.2 4.25 4.25 0 0 1 2.67-1.85c1.58-.34 39.8-5.42 39.8-5.42a10.19 10.19 0 0 1-.08-1.24L291 96.11a4.24 4.24 0 1 1 .44-8.47c.83 0 17.53 2.8 28.61 4.63 0-.18.07-.36.12-.54l-19.5-6.35a4.25 4.25 0 0 1 .39-7.83 4.26 4.26 0 0 1 3.25.16C305.6 78.38 321.5 89 321.5 89a9.53 9.53 0 0 1 1.56-1.81c.16-.15.34-.28.51-.42l-18.05-24.36a4.25 4.25 0 0 1 6.79-5 4 4 0 0 1 .49.66c.76 1.27 13 27.4 13 27.4a9.77 9.77 0 0 1 3.55-.74l-1.51-26.8a4.25 4.25 0 0 1 8.48.44c-.09 1.63-5 26.52-5 26.52a10 10 0 0 1 1.4.38l11.6-34.26a4.24 4.24 0 0 1 7.74 3.47c-.22.51-11.3 20.11-17.75 31.51a9.62 9.62 0 0 1 1.73 1.21l11.85-14.51a4.24 4.24 0 1 1 5.69 6.31c-1.07 1-15.72 10.37-15.72 10.37a9.7 9.7 0 0 1 1 2.36l28.41-9.71a4.28 4.28 0 0 1 4.07 1.31 4.15 4.15 0 0 1 1 1.92 4.24 4.24 0 0 1-3.23 5.06c-1.6.35-29.88 3.29-29.88 3.29a9.93 9.93 0 0 1-.58 4.28l23 11.8a4.73 4.73 0 0 1 .87.74 4.26 4.26 0 0 1 .42 5.12 4.24 4.24 0 0 1-5.86 1.29c-1-.64-20.71-15.49-20.71-15.49l-.35.34a10.5 10.5 0 0 1-1 .77l19.14 30.69a4.24 4.24 0 0 1-1.78 5.67zm-18.12-39.19a7 7 0 1 0-9.9-.52 7 7 0 0 0 9.9.52z"/><path class="C Z" d="M90 314.18a8.35 8.35 0 0 1 3-11.39c.93-.53 24.69-9.59 48.7-20.45a18.47 18.47 0 0 1-1.65-4.73l-90.4 5.72a8.33 8.33 0 0 1 0-16.66c2.64 0 90.22 4.46 90.22 4.46a19 19 0 0 1 1.85-5.93l-37.88-29.93a8.33 8.33 0 0 1-.69-11.76l.34-.36a8.34 8.34 0 0 1 11.42-.33c1.7 1.52 32.13 35.93 32.13 35.93a19 19 0 0 1 4.33-2.54L124.31 182a8.33 8.33 0 1 1 16.07-4.37c.83 3.07 14.71 77.48 14.71 77.48a18 18 0 0 1 2.42-.3l-6.13-56.33a8.33 8.33 0 1 1 16.66 0c0 1.65-3.69 34.66-6.16 56.56l1.08.18 23.92-71.64a8.16 8.16 0 0 1 1.81-2.71 8.33 8.33 0 0 1 13.59 9c-1 2.52-33.67 67.55-33.67 67.55a19 19 0 0 1 3.7 2.87 10.57 10.57 0 0 1 .87 1l45.91-37.88a8.33 8.33 0 0 1 10.55 12.79 8.81 8.81 0 0 1-1.24 1c-2.4 1.63-52.4 28.37-52.4 28.37a19 19 0 0 1 1.82 6.88l81.67-5.7a8.33 8.33 0 1 1 0 16.65c-3.19 0-81.78-7.1-81.78-7.1a20.7 20.7 0 0 1-.6 2.79l68.35 19.23a8.33 8.33 0 1 1-6 15.53c-1-.39-40.57-20.1-63.58-31.57a19.21 19.21 0 0 1-2.19 3.51l38.37 30.53a8.32 8.32 0 1 1-11.77 11.77c-2-2-30.67-38.54-30.67-38.54a19.19 19.19 0 0 1-4.52 2.28l23.47 59.27a8.33 8.33 0 0 1-16.06 4.43c-.85-3.11-11-62.83-11-62.83a19.25 19.25 0 0 1-8.51-.7l-30.92 64.49a8.46 8.46 0 0 1-1.36 1.79 8.33 8.33 0 0 1-13.13-10c1.16-2 38.4-60.32 38.4-60.32-.23-.21-.47-.41-.7-.64a18.93 18.93 0 0 1-1.61-1.87c-21.54 15.09-41.35 31.22-42.28 31.75a8.34 8.34 0 0 1-11.4-3.02zm59.05-30.63a13.77 13.77 0 1 0 0-19.47 13.8 13.8 0 0 0 .02 19.47z"/><path class="E c" d="M185.28 233.9a4.24 4.24 0 0 1-5.71-1.84c-.25-.48-8.33-21.15-13.22-33.66a9.77 9.77 0 0 1-2.46.72l1.69 23.53a4.16 4.16 0 0 1-1.39 2.93 4.25 4.25 0 0 1-7.08-3.37c.07-1.34 3.49-23.17 3.49-23.17a9.7 9.7 0 0 1-3-1.11l-16.24 18.48a4.14 4.14 0 0 1-3 1.26 4.2 4.2 0 0 1-3-1.22l-.17-.18a4.24 4.24 0 0 1 .14-5.82c.81-.83 19.13-15.39 19.13-15.39a10 10 0 0 1-1.18-2.27l-38.48 11.82a4.27 4.27 0 0 1-4.06-1.31 4.33 4.33 0 0 1-1-1.94 4.25 4.25 0 0 1 3.25-5.05c1.59-.34 39.81-5.42 39.81-5.42a10.19 10.19 0 0 1-.09-1.24l-28.82 1.62a4.24 4.24 0 1 1 .44-8.47c.84 0 17.53 2.8 28.61 4.63 0-.18.07-.36.12-.54l-19.5-6.35a4.32 4.32 0 0 1-1.33-1 4.25 4.25 0 0 1 5-6.68c1.25.6 17.15 11.21 17.15 11.21a9.53 9.53 0 0 1 1.56-1.81l.51-.42-18.05-24.36a4.25 4.25 0 0 1 6.79-5 4 4 0 0 1 .49.66c.76 1.27 13 27.4 13 27.4a9.68 9.68 0 0 1 3.55-.74l-1.51-26.8a4.25 4.25 0 0 1 7.39-2.62 4.24 4.24 0 0 1 1.08 3.06c-.08 1.63-5 26.52-5 26.52a10.14 10.14 0 0 1 1.41.38l11.6-34.26a4.24 4.24 0 0 1 7.74 3.47c-.23.51-11.31 20.11-17.75 31.51a9.55 9.55 0 0 1 1.72 1.21l11.85-14.51a4.24 4.24 0 0 1 5.68 6.31c-1.07 1-15.72 10.37-15.72 10.37a9.67 9.67 0 0 1 1 2.36l28.41-9.71a4.24 4.24 0 1 1 1.83 8.29c-1.61.35-29.89 3.29-29.89 3.29a9.64 9.64 0 0 1-.58 4.28l23 11.8a4.43 4.43 0 0 1 .87.74 4.24 4.24 0 0 1 .42 5.12 4.23 4.23 0 0 1-5.85 1.29c-1-.64-20.72-15.49-20.72-15.49s-.22.23-.34.34a12.1 12.1 0 0 1-1 .77l19.14 30.69a4.24 4.24 0 0 1-1.73 5.69zm-18.12-39.19a7 7 0 1 0-9.91-.52 7 7 0 0 0 9.91.52z"/><path class="C Z" d="M-77.08 219.09a8.35 8.35 0 0 1 3-11.39c.92-.53 24.68-9.58 48.69-20.45a19.26 19.26 0 0 1-1.61-4.73l-90.4 5.72a8.27 8.27 0 0 1-5.88-2.44 8.25 8.25 0 0 1-2.44-5.89 8.27 8.27 0 0 1 8.33-8.33c2.63 0 90.21 4.46 90.21 4.46a19 19 0 0 1 1.85-5.93l-37.88-29.93a8.3 8.3 0 0 1-2.79-5.74 8.32 8.32 0 0 1 2.09-6l.34-.36a8.34 8.34 0 0 1 11.42-.33c1.7 1.52 32.13 35.93 32.13 35.93a19 19 0 0 1 4.33-2.54L-42.8 86.89a8.35 8.35 0 0 1 2.15-8.08 8.32 8.32 0 0 1 3.7-2.14 8.22 8.22 0 0 1 6.32.81 8.24 8.24 0 0 1 3.9 5C-25.89 85.59-12 160-12 160a18 18 0 0 1 2.42-.3l-6.12-56.33A8.34 8.34 0 0 1-7.4 95a8.34 8.34 0 0 1 8.33 8.33c0 1.67-3.69 34.67-6.15 56.59.35.06.72.11 1.07.18l23.92-71.64a8.33 8.33 0 1 1 15.4 6.35c-1 2.51-33.67 67.54-33.67 67.54a19 19 0 0 1 3.71 2.87c.31.31.58.64.87 1l45.91-37.88a8.33 8.33 0 0 1 10.55 12.79 8.89 8.89 0 0 1-1.25 1c-2.41 1.62-52.38 28.36-52.38 28.36a19.2 19.2 0 0 1 1.82 6.88l81.66-5.7a8.33 8.33 0 1 1 0 16.65c-3.19 0-81.78-7.1-81.78-7.1A19.24 19.24 0 0 1 10 184l68.34 19.23a8.33 8.33 0 1 1-6 15.53c-1-.39-40.58-20.1-63.59-31.57a18.63 18.63 0 0 1-2.18 3.51L45 221.23A8.33 8.33 0 1 1 33.17 233c-2-2-30.67-38.54-30.67-38.54a19.19 19.19 0 0 1-4.5 2.28L21.46 256a8.33 8.33 0 1 1-16 4.43c-.86-3.11-11-62.83-11-62.83a19.27 19.27 0 0 1-8.46-.7l-31 64.5a8.46 8.46 0 0 1-1.36 1.79 8.35 8.35 0 0 1-13.92-3.65 8.26 8.26 0 0 1 .79-6.32c1.15-2.05 38.4-60.32 38.4-60.32-.24-.21-.48-.41-.71-.64a17.58 17.58 0 0 1-1.6-1.87c-21.6 15.06-41.37 31.19-42.3 31.73a8.34 8.34 0 0 1-11.38-3.03zM-18 188.46a13.79 13.79 0 0 0 19.46 0 13.78 13.78 0 0 0 0-19.47A13.78 13.78 0 0 0-18 169a13.79 13.79 0 0 0 0 19.46z"/><path class="D a" d="M102.37 273.84a6.36 6.36 0 0 1-8.85-1.64c-.46-.67-16.51-29.85-26.21-47.51a14.55 14.55 0 0 1-3.51 1.53l7.08 34.7a6.37 6.37 0 0 1-12.7 1c-.15-2 .69-35.17.69-35.17a14.37 14.37 0 0 1-4.63-1.06l-20.57 30.65a6.36 6.36 0 0 1-8.92 1.22l-.3-.23a6.38 6.38 0 0 1-.92-8.69C24.58 247.24 49 222 49 222a14 14 0 0 1-2.19-3.15l-55 25.06a6.37 6.37 0 0 1-6.29-1.16 6.45 6.45 0 0 1-1.85-2.69 6.33 6.33 0 0 1 .24-4.87 6.33 6.33 0 0 1 3.62-3.27c2.29-.82 58.18-15.8 58.18-15.8a16 16 0 0 1-.37-1.83l-42.57 8a6.36 6.36 0 1 1-1-12.69c1.25-.1 26.64.75 43.48 1.33 0-.27 0-.55.07-.83l-30.25-5.66a6.25 6.25 0 0 1-2.18-1.22A6.36 6.36 0 0 1 19 192.35c2 .64 27.71 13.34 27.71 13.34a14.73 14.73 0 0 1 2-3c.22-.25.46-.48.69-.72l-31.6-32.75a6.37 6.37 0 0 1 9.13-8.8 6 6 0 0 1 .85.89c1.38 1.74 24.73 38.25 24.73 38.25a14.48 14.48 0 0 1 5.13-1.79l-7.44-39.6a6.36 6.36 0 0 1 12.69-1c.19 2.44-2.31 40.45-2.31 40.45a15.9 15.9 0 0 1 2.17.28l10.61-53.23a6.36 6.36 0 1 1 12.19 3.66c-.24.8-12.92 32.12-20.3 50.34a14.09 14.09 0 0 1 2.8 1.46l14.82-23.89a6.37 6.37 0 0 1 9.68 8.28c-1.43 1.65-21.4 18.48-21.4 18.48a14.64 14.64 0 0 1 2 3.31l40.39-20a6.37 6.37 0 1 1 4.32 12C115.56 199.18 74 209 74 209a14.66 14.66 0 0 1 0 6.49l36.58 13.09a6.57 6.57 0 0 1 1.44.93 6.37 6.37 0 0 1-6.84 10.6c-1.63-.76-33.84-19-33.84-19-.14.19-.29.39-.45.57a13.93 13.93 0 0 1-1.32 1.32l34.44 42a6.38 6.38 0 0 1-1.64 8.84zM67.79 219A10.52 10.52 0 1 0 53 220.19 10.52 10.52 0 0 0 67.79 219z"/><path class="E c" d="M18.17 138.81a4.25 4.25 0 0 1-5.71-1.81c-.25-.48-8.33-21.15-13.22-33.66a9.7 9.7 0 0 1-2.45.72l1.69 23.53A4.21 4.21 0 0 1-6 131.58a4.23 4.23 0 0 1-2.93-1.4 4.25 4.25 0 0 1-1.07-3.06c.08-1.34 3.49-23.12 3.49-23.12a10 10 0 0 1-3-1.1l-16.23 18.47a4.18 4.18 0 0 1-3 1.26 4.17 4.17 0 0 1-3-1.22l-.18-.18a4.24 4.24 0 0 1 .14-5.82c.82-.83 19.13-15.39 19.13-15.39a9.59 9.59 0 0 1-1.17-2.27l-38.49 11.82a4.25 4.25 0 0 1-4-1.31 4.35 4.35 0 0 1-1-1.94 4.29 4.29 0 0 1 .58-3.2 4.3 4.3 0 0 1 2.67-1.85c1.59-.34 39.81-5.42 39.81-5.42a10.19 10.19 0 0 1-.09-1.24l-28.82 1.62a4.24 4.24 0 0 1-4-4.46 4.24 4.24 0 0 1 4.45-4c.84 0 17.54 2.8 28.61 4.63.05-.18.08-.36.13-.54l-19.5-6.35a4.36 4.36 0 0 1-1.34-1 4.23 4.23 0 0 1-.68-4.66 4.24 4.24 0 0 1 2.41-2.18 4.23 4.23 0 0 1 3.24.16C-28.61 78.38-12.71 89-12.71 89a9.84 9.84 0 0 1 1.55-1.81c.17-.15.35-.28.52-.42l-18-24.36a4.24 4.24 0 0 1 1.45-5.82 4.25 4.25 0 0 1 5.33.79 3.53 3.53 0 0 1 .49.66c.77 1.27 13 27.4 13 27.4a9.72 9.72 0 0 1 3.55-.74l-1.51-26.8A4.23 4.23 0 0 1-4.94 55a4.2 4.2 0 0 1 3.06-1.08 4.22 4.22 0 0 1 2.93 1.39 4.2 4.2 0 0 1 1.08 3.06c-.08 1.63-5 26.52-5 26.52a9.78 9.78 0 0 1 1.41.38L10.13 51a4.24 4.24 0 0 1 7.74 3.47C17.64 55 6.57 74.55.12 86a9.55 9.55 0 0 1 1.72 1.21l11.85-14.56A4.24 4.24 0 1 1 19.37 79C18.3 80 3.65 89.37 3.65 89.37a9.7 9.7 0 0 1 1 2.36L33.1 82a4.3 4.3 0 0 1 4.07 1.31 4.34 4.34 0 0 1 1 1.92 4.25 4.25 0 0 1-3.23 5.06C33.32 90.62 5 93.56 5 93.56a9.79 9.79 0 0 1-.59 4.28l23 11.8a4.49 4.49 0 0 1 .88.74 4.27 4.27 0 0 1 .42 5.12 4.2 4.2 0 0 1-2.66 1.86 4.15 4.15 0 0 1-3.2-.57c-1-.64-20.72-15.49-20.72-15.49s-.22.23-.34.34a12 12 0 0 1-1 .77L20 133.1a4.25 4.25 0 0 1-1.83 5.71zM.05 99.62a7 7 0 0 0 .52-9.9 7 7 0 0 0-9.9-.52 7 7 0 0 0-.52 9.9 7 7 0 0 0 9.9.52z"/><path class="B e" d="M312.57 37.89a5.6 5.6 0 0 1-7.16 3.38c-.68-.24-16.58-9-32.59-16.6a12.61 12.61 0 0 1-1.72 2.9l47.57 50.41a5.6 5.6 0 1 1-8.56 7.22c-1.15-1.35-42.26-54.73-42.26-54.73A13 13 0 0 1 264 32.1l1 32.46a5.6 5.6 0 0 1-5.7 5.44h-.3a5.6 5.6 0 0 1-5.12-5.73c0-1.53 4.53-32.11 4.53-32.11a13.19 13.19 0 0 1-3.22-1.16l-26.41 46.18a5.6 5.6 0 0 1-9.22-6.37C220.78 69.05 253 29.63 253 29.63a14 14 0 0 1-1.2-1.11l-26.3 27.59a5.6 5.6 0 0 1-7.22-8.56c.85-.71 19.42-13.14 31.75-21.38-.12-.21-.26-.41-.37-.63l-47.22 18.78a5.38 5.38 0 0 1-2.18.25 5.58 5.58 0 0 1-4.86-3.87 5.59 5.59 0 0 1 3.62-7c1.74-.56 49.34-12 49.34-12a13.18 13.18 0 0 1-.13-3.15 8.09 8.09 0 0 1 .12-.86L209 10.48a5.61 5.61 0 0 1 2-11 5.5 5.5 0 0 1 1 .22c1.88.53 37.32 14.63 37.32 14.63a12.9 12.9 0 0 1 2.75-3.93L206.6-37.54a5.55 5.55 0 0 1-1.3-4.09 5.57 5.57 0 0 1 2-3.81 5.55 5.55 0 0 1 4.08-1.3 5.57 5.57 0 0 1 3.81 2c1.39 1.64 39 53.57 39 53.57a12.52 12.52 0 0 1 1.69-.91L236-35.6a5.6 5.6 0 0 1 3.47-7.12 5.6 5.6 0 0 1 7.12 3.48c.24.69 7.27 29.58 11.36 46.39a12.5 12.5 0 0 1 2.75-.4l-.95-33a5.6 5.6 0 0 1 6-5.11 5.61 5.61 0 0 1 5.11 6c-.16 1.9-6.51 32.49-6.51 32.49a13.19 13.19 0 0 1 3.13 1.34l27.6-48.12a5.61 5.61 0 0 1 5.1-2.42A5.57 5.57 0 0 1 303-41a5.61 5.61 0 0 1 1.46 7.79C303.18-31.45 269.59 10 269.59 10a12.82 12.82 0 0 1 3.31 4.65l46.58-12.08a5.46 5.46 0 0 1 1.52-.04 5.6 5.6 0 0 1 .55 11.09C320 13.91 273.86 20 273.86 20v.64a14.74 14.74 0 0 1-.26 1.64c17.1 4.53 34.93 8.16 35.61 8.4a5.61 5.61 0 0 1 3.36 7.21zm-42.31-17.51a9.26 9.26 0 1 0-10 8.45 9.27 9.27 0 0 0 10-8.45z"/><path class="C Z" d="M257.13 28.91a8.33 8.33 0 0 1 3-11.38c.92-.54 24.68-9.59 48.69-20.46a19.26 19.26 0 0 1-1.65-4.73l-90.39 5.72a8.27 8.27 0 0 1-5.89-2.44 8.25 8.25 0 0 1-2.44-5.89 8.27 8.27 0 0 1 2.44-5.89 8.29 8.29 0 0 1 5.89-2.44c2.64 0 90.22 4.46 90.22 4.46a19 19 0 0 1 1.85-5.93L271-50a8.29 8.29 0 0 1-2.77-5.74 8.27 8.27 0 0 1 2.08-6l.34-.36a8.34 8.34 0 0 1 11.42-.33c1.71 1.52 32.14 35.93 32.14 35.93a18.7 18.7 0 0 1 4.32-2.54l-27.11-74.23a8.35 8.35 0 0 1 2.15-8.08 8.32 8.32 0 0 1 3.7-2.14 8.21 8.21 0 0 1 6.32.81 8.25 8.25 0 0 1 3.91 5c.83 3.07 14.71 77.48 14.71 77.48a18 18 0 0 1 2.42-.3l-6.13-56.33a8.34 8.34 0 0 1 8.33-8.34 8.33 8.33 0 0 1 8.32 8.33c0 1.65-3.68 34.66-6.15 56.56.36.06.72.11 1.08.19L354-101.74a8.29 8.29 0 0 1 1.8-2.71 8.32 8.32 0 0 1 9.07-1.82 8.29 8.29 0 0 1 4.51 4.5 8.26 8.26 0 0 1 0 6.38c-1 2.51-33.67 67.54-33.67 67.54a19 19 0 0 1 3.71 2.85 10.57 10.57 0 0 1 .87 1l45.91-37.88a8.35 8.35 0 0 1 11.56 2.25 8.34 8.34 0 0 1-1 10.54 8.17 8.17 0 0 1-1.24 1c-2.41 1.62-52.39 28.36-52.39 28.36a19.2 19.2 0 0 1 1.82 6.88l81.66-5.7a8.27 8.27 0 0 1 5.89 2.44 8.23 8.23 0 0 1 2.44 5.89 8.28 8.28 0 0 1-2.44 5.92 8.3 8.3 0 0 1-5.89 2.43c-3.2 0-81.79-7.1-81.79-7.1a19.24 19.24 0 0 1-.59 2.79l68.35 19.23a8.33 8.33 0 1 1-6 15.53C405.55 28.19 366 8.48 343-3a18.63 18.63 0 0 1-2.21 3.52l38.37 30.53a8.33 8.33 0 0 1-11.78 11.77c-2-2-30.66-38.54-30.66-38.54a19.07 19.07 0 0 1-4.53 2.28l23.48 59.27a8.33 8.33 0 1 1-16.05 4.43c-.86-3.11-11-62.83-11-62.83a19.25 19.25 0 0 1-8.46-.7L289.2 71.22a8.81 8.81 0 0 1-1.36 1.78 8.34 8.34 0 0 1-13.92-3.68 8.26 8.26 0 0 1 .79-6.32c1.15-2 38.4-60.32 38.4-60.32-.23-.21-.48-.41-.7-.64A17.68 17.68 0 0 1 310.8.18c-21.54 15.1-41.36 31.22-42.28 31.76a8.35 8.35 0 0 1-11.39-3.03zm59.05-30.63a13.79 13.79 0 0 0 19.46 0 13.79 13.79 0 0 0 0-19.47 13.78 13.78 0 0 0-19.47 0 13.78 13.78 0 0 0 .01 19.47z"/><path class="D a" d="M436.59 83.66a6.38 6.38 0 0 1-8.86-1.66c-.46-.67-16.51-29.85-26.21-47.51A14.55 14.55 0 0 1 398 36l7.09 34.7a6.37 6.37 0 0 1-12.7 1c-.16-2 .68-35.17.68-35.17a14.43 14.43 0 0 1-4.63-1.06l-20.56 30.68a6.36 6.36 0 0 1-8.88 1.22l-.29-.23a6.37 6.37 0 0 1-.93-8.69c1.05-1.39 25.48-26.62 25.48-26.62a14.35 14.35 0 0 1-2.26-3.15l-55 25.06a6.37 6.37 0 0 1-4.28-12C324.06 40.93 380 26 380 26a14.12 14.12 0 0 1-.37-1.83L337 32.13a6.36 6.36 0 1 1-1-12.69c1.25-.1 26.64.76 43.48 1.34 0-.28 0-.56.07-.83l-30.25-5.67a6.37 6.37 0 1 1 3.93-12.11c2 .64 27.7 13.34 27.7 13.34a15.06 15.06 0 0 1 2-3c.21-.25.45-.48.68-.72l-31.59-32.75a6.37 6.37 0 0 1 1-8.94 6.38 6.38 0 0 1 8.09.14 6 6 0 0 1 .85.89c1.39 1.74 24.73 38.25 24.73 38.25a14.46 14.46 0 0 1 5.14-1.79L384.4-32a6.31 6.31 0 0 1 1.51-4.63 6.34 6.34 0 0 1 4.34-2.21 6.3 6.3 0 0 1 4.63 1.51 6.3 6.3 0 0 1 2.21 4.33c.19 2.43-2.3 40.44-2.3 40.44a16 16 0 0 1 2.16.28l10.61-53.23a6.38 6.38 0 0 1 7.93-4.27 6.37 6.37 0 0 1 4.27 7.93c-.24.8-12.92 32.12-20.3 50.34a14.66 14.66 0 0 1 2.8 1.46l14.81-23.89a6.38 6.38 0 1 1 9.7 8.3c-1.43 1.64-21.4 18.48-21.4 18.48a14.82 14.82 0 0 1 2 3.31l40.39-19.96a6.4 6.4 0 0 1 6.31 1.15A6.33 6.33 0 0 1 455.91 0a6.38 6.38 0 0 1-3.82 8.15c-2.32.83-43.84 10.69-43.84 10.69a14.66 14.66 0 0 1 0 6.49l36.57 13.09a6.57 6.57 0 0 1 1.44.93A6.37 6.37 0 0 1 439.39 50c-1.63-.76-33.84-19-33.84-19-.14.19-.28.39-.44.57a15.3 15.3 0 0 1-1.33 1.34l34.44 42a6.38 6.38 0 0 1-1.63 8.75zM402 28.85A10.52 10.52 0 1 0 387.17 30 10.54 10.54 0 0 0 402 28.85z"/><path class="B e" d="M145.47 133a5.62 5.62 0 0 1-7.17 3.38c-.68-.24-16.58-9-32.59-16.6a13 13 0 0 1-1.71 2.9l47.57 50.41a5.6 5.6 0 0 1-4.76 9.19 5.53 5.53 0 0 1-3.81-2c-1.14-1.35-42.26-54.73-42.26-54.73a12.88 12.88 0 0 1-3.85 1.63l1 32.46a5.62 5.62 0 0 1-5.75 5.46h-.33a5.62 5.62 0 0 1-5.13-5.73c0-1.53 4.53-32.11 4.53-32.11a12.8 12.8 0 0 1-3.18-1.13l-26.4 46.15a5.61 5.61 0 1 1-9.23-6.37c1.22-1.76 33.46-41.18 33.46-41.18a12.62 12.62 0 0 1-1.2-1.11L58.4 151.2a5.6 5.6 0 1 1-7.23-8.56c.85-.71 19.42-13.14 31.76-21.38-.13-.21-.26-.41-.38-.63l-47.22 18.78a5.38 5.38 0 0 1-2.18.25 5.6 5.6 0 0 1-1.24-10.91c1.75-.56 49.35-12 49.35-12a12.68 12.68 0 0 1-.14-3.15c0-.29.08-.58.12-.86l-39.4-7.17a5.6 5.6 0 1 1 3.07-10.78c1.88.53 37.31 14.63 37.31 14.63a13.08 13.08 0 0 1 2.78-3.93L39.49 57.55a5.61 5.61 0 0 1 8.57-7.23C49.44 52 87 103.89 87 103.89a12.52 12.52 0 0 1 1.69-.91L68.93 59.49a5.6 5.6 0 1 1 10.59-3.64c.24.69 7.27 29.58 11.36 46.39a12.5 12.5 0 0 1 2.75-.4l-.95-33a5.6 5.6 0 1 1 11.16.94c-.16 1.9-6.51 32.49-6.51 32.49a13 13 0 0 1 3.13 1.34l27.6-48.12a5.6 5.6 0 1 1 9.24 6.33c-1.22 1.79-34.82 43.27-34.82 43.27a12.94 12.94 0 0 1 3.31 4.66l46.58-12.08a5.48 5.48 0 0 1 1.51-.08 5.6 5.6 0 0 1 .56 11.09c-1.56.29-47.68 6.42-47.68 6.42v.64a11.2 11.2 0 0 1-.26 1.64c17.11 4.53 34.93 8.16 35.61 8.4a5.62 5.62 0 0 1 3.36 7.22zm-42.31-17.51a9.26 9.26 0 1 0-10 8.45 9.27 9.27 0 0 0 10-8.47z"/><path class="C Z" d="M90 124a8.34 8.34 0 0 1 3-11.38c.93-.54 24.69-9.59 48.7-20.46a18.47 18.47 0 0 1-1.65-4.73l-90.4 5.72a8.33 8.33 0 0 1 0-16.66c2.64 0 90.22 4.46 90.22 4.46a19 19 0 0 1 1.9-5.95l-37.88-29.93a8.33 8.33 0 0 1-.69-11.76l.34-.36a8.34 8.34 0 0 1 11.46-.31c1.7 1.52 32.13 35.93 32.13 35.93a19 19 0 0 1 4.29-2.57L124.31-8.2a8.33 8.33 0 0 1 2.15-8.08 8.27 8.27 0 0 1 3.7-2.14 8.22 8.22 0 0 1 6.32.81 8.27 8.27 0 0 1 3.9 5c.83 3.07 14.71 77.48 14.71 77.48a18 18 0 0 1 2.42-.3l-6.13-56.33a8.33 8.33 0 1 1 16.66 0c0 1.65-3.69 34.66-6.16 56.56.36.06.72.11 1.08.19l23.92-71.65a8.16 8.16 0 0 1 1.81-2.71 8.31 8.31 0 0 1 9.06-1.82 8.26 8.26 0 0 1 4.51 4.5 8.3 8.3 0 0 1 0 6.38c-1 2.51-33.67 67.54-33.67 67.54a19 19 0 0 1 3.7 2.87 10.57 10.57 0 0 1 .87 1l45.91-37.88A8.33 8.33 0 0 1 229.64 46a8.17 8.17 0 0 1-1.24 1C226 48.65 176 75.39 176 75.39a19 19 0 0 1 1.82 6.88l81.67-5.7a8.33 8.33 0 1 1 0 16.65c-3.19 0-81.78-7.1-81.78-7.1a20.7 20.7 0 0 1-.6 2.79l68.35 19.23a8.33 8.33 0 1 1-6 15.53c-1-.39-40.57-20.1-63.58-31.57a19.21 19.21 0 0 1-2.19 3.51l38.37 30.53a8.32 8.32 0 1 1-11.77 11.77c-2-2-30.67-38.54-30.67-38.54a19.19 19.19 0 0 1-4.52 2.28l23.48 59.27a8.33 8.33 0 0 1-16.06 4.43c-.85-3.11-11-62.83-11-62.83a19.25 19.25 0 0 1-8.46-.7l-30.92 64.49a8.46 8.46 0 0 1-1.36 1.79 8.33 8.33 0 0 1-13.91-3.68 8.26 8.26 0 0 1 .78-6.32c1.16-2 38.4-60.32 38.4-60.32-.23-.21-.47-.41-.7-.64a18.93 18.93 0 0 1-1.61-1.87c-21.54 15.1-41.35 31.22-42.28 31.76A8.35 8.35 0 0 1 90 124zm59.05-30.63a13.77 13.77 0 1 0 0-19.47 13.8 13.8 0 0 0 .02 19.47z"/><path class="D a" d="M269.48 178.75a6.38 6.38 0 0 1-8.86-1.64c-.46-.67-16.5-29.85-26.2-47.51a14.45 14.45 0 0 1-3.52 1.53l7.09 34.7a6.37 6.37 0 0 1-12.7 1c-.15-2 .69-35.17.69-35.17a14.37 14.37 0 0 1-4.63-1.06l-20.57 30.65a6.36 6.36 0 0 1-8.92 1.22l-.3-.23a6.38 6.38 0 0 1-.93-8.69c1.06-1.39 25.48-26.62 25.48-26.62a14.35 14.35 0 0 1-2.19-3.15L159 148.83a6.37 6.37 0 1 1-4.29-12C157 136 212.85 121 212.85 121a14.12 14.12 0 0 1-.37-1.83l-42.58 8a6.36 6.36 0 0 1-1-12.69c1.26-.1 26.64.76 43.48 1.34 0-.28 0-.56.08-.83l-30.25-5.67a6.25 6.25 0 0 1-2.18-1.22 6.34 6.34 0 0 1-1.92-6.8 6.41 6.41 0 0 1 3.16-3.71 6.32 6.32 0 0 1 4.86-.38c2 .64 27.7 13.34 27.7 13.34a15.06 15.06 0 0 1 2-3c.22-.25.45-.48.68-.72l-31.59-32.75a6.37 6.37 0 0 1 9.12-8.8 6.59 6.59 0 0 1 .86.89c1.38 1.74 24.72 38.25 24.72 38.25a14.53 14.53 0 0 1 5.14-1.79l-7.45-39.6a6.37 6.37 0 1 1 12.7-1c.19 2.43-2.31 40.44-2.31 40.44a15.9 15.9 0 0 1 2.17.28l10.6-53.23a6.37 6.37 0 1 1 12.2 3.66c-.24.8-12.92 32.12-20.3 50.34a14.09 14.09 0 0 1 2.8 1.46L250 81.16a6.37 6.37 0 1 1 9.67 8.28c-1.41 1.64-21.38 18.49-21.38 18.49a14.25 14.25 0 0 1 2 3.31l40.4-20a6.37 6.37 0 0 1 4.32 12c-2.32.83-43.84 10.69-43.84 10.69a14.66 14.66 0 0 1 0 6.49l36.57 13.09a6.64 6.64 0 0 1 1.45.93 6.37 6.37 0 0 1-6.85 10.6c-1.62-.76-33.83-19-33.83-19-.15.19-.29.39-.45.57a14 14 0 0 1-1.33 1.34l34.44 42a6.38 6.38 0 0 1-1.69 8.8zm-34.58-54.81a10.52 10.52 0 1 0-14.84 1.16 10.53 10.53 0 0 0 14.84-1.16z"/><path class="E c" d="M185.28 43.72a4.24 4.24 0 0 1-5.71-1.84c-.25-.48-8.33-21.15-13.22-33.66a9.77 9.77 0 0 1-2.46.72l1.69 23.53a4.16 4.16 0 0 1-1.39 2.93 4.25 4.25 0 0 1-7.08-3.4c.07-1.34 3.49-23.17 3.49-23.17a10 10 0 0 1-3-1.1l-16.21 18.5a4.14 4.14 0 0 1-3 1.26 4.2 4.2 0 0 1-3-1.22l-.17-.18a4.24 4.24 0 0 1 .14-5.82c.81-.83 19.13-15.39 19.13-15.39a10 10 0 0 1-1.18-2.27l-38.48 11.82a4.27 4.27 0 0 1-4.06-1.31 4.33 4.33 0 0 1-1-1.94 4.25 4.25 0 0 1 3.25-5c1.59-.34 39.81-5.42 39.81-5.42a10.19 10.19 0 0 1-.09-1.24l-28.82 1.62a4.25 4.25 0 0 1-4-4.46 4.25 4.25 0 0 1 4.46-4c.84 0 17.53 2.8 28.61 4.63 0-.18.07-.36.12-.54l-19.5-6.35a4.32 4.32 0 0 1-1.33-1 4.23 4.23 0 0 1-.68-4.66 4.24 4.24 0 0 1 2.4-2.23 4.23 4.23 0 0 1 3.24.16c1.25.6 17.15 11.21 17.15 11.21A9.53 9.53 0 0 1 156-7.91l.51-.42-18.05-24.36a4.25 4.25 0 0 1 6.79-5.03 4 4 0 0 1 .49.66c.76 1.27 13 27.4 13 27.4a9.68 9.68 0 0 1 3.55-.74l-1.51-26.8a4.19 4.19 0 0 1 1.4-2.93 4.18 4.18 0 0 1 3.06-1.08 4.22 4.22 0 0 1 2.93 1.39 4.24 4.24 0 0 1 1.08 3.06c-.08 1.63-5 26.53-5 26.53a8.88 8.88 0 0 1 1.41.37l11.6-34.26a4.24 4.24 0 0 1 5.6-2.13 4.23 4.23 0 0 1 2.14 5.6c-.23.51-11.31 20.11-17.75 31.51A9.55 9.55 0 0 1 169-7.93l11.85-14.51a4.25 4.25 0 0 1 6 .31 4.25 4.25 0 0 1-.31 6c-1.07 1-15.72 10.37-15.72 10.37a9.67 9.67 0 0 1 1 2.36l28.41-9.7a4.25 4.25 0 0 1 4.07 1.3 4.26 4.26 0 0 1 1 1.92 4.25 4.25 0 0 1-3.3 5.06c-1.61.35-29.89 3.29-29.89 3.29a9.64 9.64 0 0 1-.58 4.28l23 11.8a4.43 4.43 0 0 1 .87.74 4.24 4.24 0 0 1 .42 5.12A4.23 4.23 0 0 1 190 21.7c-1-.64-20.72-15.49-20.72-15.49s-.22.23-.34.34a12.1 12.1 0 0 1-1 .77l19.14 30.69a4.24 4.24 0 0 1-1.8 5.71zM167.16 4.53a7 7 0 0 0 .51-9.9 7 7 0 0 0-9.9-.52 7 7 0 0 0-.52 9.9 7 7 0 0 0 9.91.52z"/><path class="C Z" d="M-77.08 28.91a8.33 8.33 0 0 1 3-11.38c.92-.54 24.68-9.59 48.69-20.46A19.26 19.26 0 0 1-27-7.66l-90.4 5.72a8.27 8.27 0 0 1-5.88-2.44 8.25 8.25 0 0 1-2.44-5.89 8.27 8.27 0 0 1 2.44-5.89 8.27 8.27 0 0 1 5.89-2.44c2.63 0 90.21 4.46 90.21 4.46a19 19 0 0 1 1.85-5.93L-63.22-50A8.3 8.3 0 0 1-66-55.74a8.32 8.32 0 0 1 2.09-6l.34-.36a8.34 8.34 0 0 1 11.42-.33C-50.45-60.93-20-26.52-20-26.52a19 19 0 0 1 4.33-2.54l-27.13-74.23a8.35 8.35 0 0 1 2.15-8.08 8.32 8.32 0 0 1 3.7-2.14 8.22 8.22 0 0 1 6.32.81 8.24 8.24 0 0 1 3.9 5C-25.89-104.59-12-30.18-12-30.18a18 18 0 0 1 2.42-.3l-6.12-56.33a8.34 8.34 0 0 1 8.3-8.34 8.34 8.34 0 0 1 8.33 8.33c0 1.65-3.69 34.66-6.15 56.56.35.06.72.11 1.07.19l23.92-71.65a8.32 8.32 0 0 1 1.81-2.71 8.31 8.31 0 0 1 13.58 2.68 8.26 8.26 0 0 1 0 6.38C34.14-92.86 1.5-27.83 1.5-27.83A19 19 0 0 1 5.21-25c.31.31.58.64.87 1l45.91-37.88a8.34 8.34 0 0 1 10.55 12.79 8.25 8.25 0 0 1-1.25 1C58.88-46.44 8.91-19.7 8.91-19.7a19.2 19.2 0 0 1 1.82 6.88l81.66-5.7a8.27 8.27 0 0 1 5.89 2.44 8.27 8.27 0 0 1 2.44 5.89 8.29 8.29 0 0 1-2.44 5.89 8.27 8.27 0 0 1-5.89 2.43C89.2-1.86 10.61-9 10.61-9A19.24 19.24 0 0 1 10-6.18l68.36 19.23a8.33 8.33 0 1 1-6 15.53C71.34 28.19 31.77 8.48 8.76-3A18.63 18.63 0 0 1 6.58.52L45 31.05a8.33 8.33 0 1 1-11.83 11.77c-2-2-30.67-38.54-30.67-38.54A19.19 19.19 0 0 1-2 6.56l23.46 59.27a8.33 8.33 0 1 1-16 4.43c-.86-3.11-11-62.83-11-62.83a19.27 19.27 0 0 1-8.46-.7l-31 64.49A8.46 8.46 0 0 1-46.38 73a8.35 8.35 0 0 1-13.92-3.65 8.26 8.26 0 0 1 .8-6.35c1.15-2 38.4-60.32 38.4-60.32-.24-.21-.48-.41-.71-.64a17.58 17.58 0 0 1-1.6-1.86C-45 15.28-64.77 31.4-65.7 31.94a8.34 8.34 0 0 1-11.38-3.03zM-18-1.72a13.79 13.79 0 0 0 19.46 0 13.78 13.78 0 0 0 0-19.47 13.78 13.78 0 0 0-19.47 0A13.79 13.79 0 0 0-18-1.72z"/><path class="D a" d="M102.37 83.66A6.36 6.36 0 0 1 93.52 82c-.46-.65-16.52-29.83-26.21-47.49A14.55 14.55 0 0 1 63.8 36l7.08 34.7a6.37 6.37 0 0 1-12.7 1c-.15-2 .69-35.17.69-35.17a14.37 14.37 0 0 1-4.63-1.06L33.67 66.15a6.36 6.36 0 0 1-8.92 1.22l-.3-.23a6.38 6.38 0 0 1-.92-8.69C24.58 57.06 49 31.83 49 31.83a14 14 0 0 1-2.19-3.15l-55 25.06a6.37 6.37 0 0 1-6.29-1.16 6.38 6.38 0 0 1-1.85-2.69 6.33 6.33 0 0 1 .27-4.89 6.33 6.33 0 0 1 3.62-3.27C-10.15 40.93 45.74 26 45.74 26a16 16 0 0 1-.37-1.83L2.8 32.13a6.36 6.36 0 1 1-1-12.69c1.25-.1 26.64.76 43.48 1.34 0-.28 0-.56.07-.83L15.1 14.28a6.25 6.25 0 0 1-2.18-1.22A6.36 6.36 0 0 1 19 2.17c2 .64 27.71 13.34 27.71 13.34a15 15 0 0 1 2-3c.22-.25.46-.48.69-.72L17.8-20.96a6.37 6.37 0 0 1 1-8.94 6.38 6.38 0 0 1 8.09.14 6 6 0 0 1 .85.89C29.15-27.13 52.5 9.38 52.5 9.38a14.48 14.48 0 0 1 5.13-1.79L50.19-32a6.27 6.27 0 0 1 1.51-4.63 6.3 6.3 0 0 1 8.93-.71A6.34 6.34 0 0 1 62.88-33c.19 2.43-2.31 40.44-2.31 40.44a15.9 15.9 0 0 1 2.17.28L73.35-45.5a6.37 6.37 0 0 1 7.93-4.27 6.37 6.37 0 0 1 4.26 7.93C85.3-41 72.62-9.72 65.24 8.5A14.09 14.09 0 0 1 68 10l14.86-23.93a6.38 6.38 0 1 1 9.7 8.3C91.12-4 71.15 12.84 71.15 12.84a14.87 14.87 0 0 1 2 3.31l40.4-19.96A6.35 6.35 0 0 1 121.7 0a6.37 6.37 0 0 1-3.83 8.15C115.56 9 74 18.86 74 18.86a14.66 14.66 0 0 1 0 6.49l36.58 13.09a6.57 6.57 0 0 1 1.44.93A6.37 6.37 0 0 1 105.18 50c-1.63-.76-33.84-19-33.84-19-.14.19-.29.39-.45.57a13.93 13.93 0 0 1-1.32 1.34l34.44 42a6.38 6.38 0 0 1-1.64 8.75zM67.79 28.85A10.52 10.52 0 1 0 53 30a10.52 10.52 0 0 0 14.79-1.15z"/></pattern></defs><path d="M243 489.54c-1 0-104-13-124 32 0 0-40 5-74 109s-45 159-45 159h845s-45-218-122-268-100-50-100-50z" fill="#5932c4"/><path d="M194 575.54c8.18-22.31 15.67-66.52 19-87.73-32.33-.32-80.89 4.31-94 33.73l-.59.11c-7.36 26.89-27.29 106.98-17.41 153.89 0 0 6 27 6 32s-3.49 82-3.49 82H138s25-39 33-76 12-108 23-138zm395-85s26 110 34 131 20 71 36 90 31.74 78 31.74 78h45.45s5.81-146-6.19-190-21-86-21-86z" fill="#0c0631"/><path d="M275.3 494.04s11.7 154.5-18.3 295.5h312l-25-67c-19-51-31-70-26-110s-8-126-8-126z" fill="#11bc92"/><path d="M401.3,704.5S413,859,383,1000H695s-6-16-25-67-31-70-26-110-8-126-8-126Z" transform="translate(-126 -210.46)" opacity=".28" fill="url(#A)"/><path d="M269 520.54s-41 50-56 51-17 10-17 10 13 5 13 29l-1 93s10-83 8-99-3-12-2-16 49-46 55-68z" fill="#4a2eaf"/><path d="M308.5 413.04s0 40-2 55-21 46-21 46l1 8s35 41 97 35 94-36 118-69c0 0-6-3-10-14s-4-13-4-46-1-42-1-42z" class="b"/><path d="M278.5 498.04s5 7 4 10a81.44 81.44 0 0 0-2 9l5-9 12-6 21-51-7-50-69-214-30 28-5 107 55 156z" class="d"/><path d="M311 85.54s-48 22-61 67-6 81-6 87 3 57 5 63 15 56 18 61 24.5 45.5 47.5 68.5 38 36 46 39 46 13 73-9 64-73 68-80 30-72 30-72l-39-153-40-60-12-2s-8 0-11-2-37-17-65-13-32-1-37 0-16.5 5.5-16.5 5.5z" fill="#fcd2c5"/><path d="M495.5 490.04s11 4 17 0a34.13 34.13 0 0 1 11-5s-2 6-2 10 5 12 5 12-9-10 0-15 5 2 5 2 8 13 11 13 9 3 9 3-11-6-12-12 9-8 9-8l-2-107-42-33-27 33-5 21s7 78 23 86z" class="d"/><path d="M323 101.54s-8-32-5-34 141 3 141 3l-6 36-37 9z" fill="#fcd2c5"/><path d="M341.5 16.04s40-28 76-10 92 56 125 104 54 109 61 126 34 55 43 69 31 15 45 29 24 58 22 70-3 16-3 16l-6-10s-2 8 1 12 34 62-8 105a57.62 57.62 0 0 0 5-18 89.52 89.52 0 0 0 0-18c0 0-5 11-10 26s1 33-9 40-28 13-28 13 7-12 7-16-5-6-5-6-5 11-5 17 4 11 4 11-55-10-60-54c0 0 0-11-17-19s-16-15-16-15 3 16 8 20 9 18 9 18-21-23-27-27-9-7-9-26 4-58-15-78-32-29-31-45 15-31 11-56-10-43-23-58-40-48-41-78c0 0 0 31 5 37s6 16 6 16-2-4-8-15-10-35-6-49 13-34-8-54c0 0-3-3-12-7 0 0-2 5 1 7s-6-2.67-6.48-5.33-2.52 1.33-1.52 4.33 10 6 10 6-3 3-16-5-14-7-14-7a79.65 79.65 0 0 0-18-4c-10-1-24 2-24 2l2.43-3s-7.43 4-5.43 2l5-5-7.73 3.5L349.5 76s-4 4-4 2 6-7 6-7l-9 4h-6l3 2h-4l4 2-6-1s4 4 4 5-10 0-29 8-37 27-50 49-7 81-12 88-6 7-6 7-5-10-6-17a124.17 124.17 0 0 1-1-15c0 0-32 42-10 110s31 59 25 92c0 0-3 15 15 24s31 36 26 55-28 49-28 49l5-14s-11 10-13 18-7 22-7 22l-4-11v13s-14-13-17-29-23-48-31-60-23-40-23-40-21-49-4-90c0 0 6-5 6-25s-1-46 11-80 22-55 22-70 5-49 12-68 67-95 95-89z" fill="#9b7d00"/><path d="M240.23 216.79s-.23 28.75 7.77 43.75 44 45 70 38 38-11 45-21-122.77-60.75-122.77-60.75z" fill="#f4ccc1"/><path d="M262.5 99.04s24 31 40 41 31 27 34 36 11 41 28 42 18-7 32-4 10 5 26 4 51-6 62-4 69 20 69 20-28.23-.82-42.11-2.91-17.89-1.09-17.89-1.09l38 7 22 3c2 0-20-1-35 6s-27 14-43 16-48-1-63-8-11-2-26 6-25 32-47 28-52 10-74-23-41-88-41-88 2-22 3-16a10.67 10.67 0 0 0 6 8s2-14 1-20 5-2 6 2 2-4 3-22l1-18s3 12 5 15 7-7 9-8 6 4 5 1-7-4-6-18 3-16 3-16z" fill="#a58500"/><path d="M275.5 152.04s16.5 31.5 27.5 41.5 27.5 26.5 27.5 26.5-13-1-32-14-28-36-23-54zm7.5-7.5s14 13 23 20 21.5 35.5 21.5 35.5a25.48 25.48 0 0 0-2-13c-3-7-5-11-5-11s11 8 13 15 3 7 3 7a55.55 55.55 0 0 0-6-19c-5-9-23-23-33-31s-19-20-19-20z" class="b"/><path d="M323 359.54s9.5 39.5 57.5 38.5 52-16.09 65-37a562.83 562.83 0 0 1-66.5 2.5 559.68 559.68 0 0 1-56-4z" fill="#f9b4b4"/><path d="M323 359.54h13c12 0 29.5.5 36.5 2.5s19-1 20-1 22.5-3.5 37.5-3.5c0 0 15 0 17-1s0 2-2 5-29 21-60 22-42-6-62-24z" fill="#bf8a8a"/><path d="M423.5 367.04l9.5-9.5c-15 0-39.59 3.5-40.5 3.5s-13 3-20 1c-5.7-1.63-22.66-2.59-35.25-2.9 3.76 5 13.25 11.9 13.25 11.9l43 3c1 0 30-7 30-7z" fill="#e8aaaa"/><path d="M342.5 365.04s6 12 7 12h5s0 3 4 3h6s4 3 16 2c0 0 11 2 18-1l1-1s8 0 9-3c0 0 5 3 10-2 0 0 5-2 6-4s0-8 0-8l-6 2s-2-4-7 1c0 0-8-7-12 4 0 0-10-8-16 2 0 0-11-10-16 0 0 0-8-8-12-4 0 0-9-8-13-3z" fill="#f7eded"/><path d="M368.5 407.04c1 1 22-5 29-5h8s-8 7-14 7-23-2-23-2zm80-85l18 24c1 2-6 11-6 15s9-7 10-11 11-2-22-28zm-144 22s-6 3-3 11 9 18 9 18-14-15-14-21 4-9 8-8z" class="b"/><path d="M276.5 350.04s3 21 12 26 20 28 20 28-10-9-22-25-7-4-10-29z" fill="#f9ccc0"/><path d="M362.5 261.04s19.5 10.5 37.5 7.5 35.5.5 45.5 4.5l38 15-38-10c-14-4-22-4-22-4s4 5 14 7 20 5 32-3 16-7 16-7-20 17-30 17-63.5-7.5-71.5-8.5-21.5-9.5-21.5-9.5z" fill="#9b7d00"/><path d="M411.5 288.04s16 16 13 22-11 13-11 13l16-11h11a169.77 169.77 0 0 1-11-16c-4-7-12-9-12-9l7 7z" class="b"/><path d="M394.5 327.04s10-6 13-5-3 5-13 5zm-37-5s7 0 12 4c0 0-7 3-11 1s-1-5-1-5z" fill="#d6b0ab"/><path d="M340.5 301.04s-6 9-4 15 9 12 9 12-10-5-11-5-10 2-12 4 0-9 18-26z" class="b"/><path d="M338.5 33.04s15-11 29-12 39 0 62 23c0 0-40-19-61-12s-20 9-20 9-10 3-10-8zm16 17s3-12 10-13a86.58 86.58 0 0 1 11-1s-9 6-10 7 0 3 0 3 15-10 21-10 24 7 24 7-22-1-31 3a53.07 53.07 0 0 1-19 4l-6 4zm58 25c1-1 7-8 9-9s0 5 0 5a47.68 47.68 0 0 1 8-4c5-2 12-1 12-1l-11 6a55.27 55.27 0 0 1 9-1 14.52 14.52 0 0 1 6 1s-9 5-8 4 12-2 15 0 7 19 5 26a32.72 32.72 0 0 0-1 13s-7-5-9-13a32 32 0 0 1 0-15l-5 5s5-8 4-8-9 1-9 1l3-3-9 2 5-4-11 2 3-3-8 2 1-4-7 1 1-2-7 1zm-144 23c0-1-3-12 0-20s16-17 24-12 10 8 10 8l-7-1 2 2-5 1 4 5-5-2 1 5-6-3v4h-4l4 5-8-3 5 5-6-2 3 5-6-3 2 6-5-3v9z" class="d"/><path d="M663.5 379.04s37 41 44 69 5 48 5 48-9-50-49-117zm17 51s10 23 14 39-6 35-7 41 2-15 0-34-7-46-7-46zM264 168.54s-5 18 16 38 69 29 69 29l-42-4 34 10s-46 8-61-18-24-33-16-55zm-4 21s6 16 9 21 12 21 13 21-11-9-15-18-7-24-7-24zm37 59s6 17 39 12 48-12 48-12-57 29-73 20-14-20-14-20zm58 18s22-8 23-9-23 13-23 13zm64-34s-3-15 24-10 77.33 1.42 77.33 1.42-43.33 6.58-64.33 4.58a91 91 0 0 0-37 4z" fill="#bc9800"/><g class="d"><path d="M209.26 327.04s28.74 26.5 29.74 45.5 3.91 50.43 3.91 50.43-12.1-40.53-18.51-53-15.14-42.93-15.14-42.93zm4.74 42.5s14 23 18 36 13.58 24.5 13.58 24.5-21.58-13.5-25.58-31.5l-6-29zm321-12c3 1 21 29 27 65s7 49 7 49 1-62-11-86-23-28-23-28z"/><path d="M569 403.54s7 53 6 68 0 15 0 15 9-28-6-83zm16 64s-5 5 0 16 13 19 21 37 17 26 17 26-16-31-20-42-18-37-18-37zm-94-377s50 34 63 73 13 45 13 45-16-78-76-118zm25 28s17 12 24 33 7 23 7 23-10-31-31-56zm-19-17s35 42 50 81l15 39s-37-83-65-120zm86 125s22 79 46 93 34 18 34 18l-36-14s-25-16-44-97zm32 61s3 20 12 25 29 15 29 15-29-10-41-40zm-23-15s11 50 31 57 31 12 31 12-29-7-33-9-21-12-29-60zm-380 93s-1 34 6 42 20 22 20 22-20-14-24-22-2-42-2-42zm41 70s24 24 13 57c0 0 1-14-1-20 0 0-3 6-2 17s2 15 2 15l-4-22c-1-6-2-16-2-18s-5 10-3 18 7 25 7 25-10-23-10-36 8-14 0-36zm-45 19s5 23 15 37 15 42 15 42-10-31-17-41-13-38-13-38zm-31-101s-2 48 3 66a165.9 165.9 0 0 0 12 31s-25-19-15-97z"/></g><path d="M246 210.54s-2 20 3 32 11 45 11 45-6-31-12-41-10-20-10-27 8-9 8-9z" fill="#a58500"/><path d="M544 523.54s18 21 13 47-6 37-6 33 17-32 14-40-8-34-21-40zm13 98c0-2-4-47 29-28s33 38 33 38-13-14-16-15-11 0-11 0l-2 12-7-9v8s-8-13-14-12-12 6-12 6z" fill="#4a2eaf"/><g fill="#5d3adb"><ellipse cx="231" cy="696.54" rx="7" ry="12"/><circle cx="588" cy="758.54" r="7"/></g><path d="M263 623.54c-.53-6.06-14 112-20 135s-5 23-5 23 31-90 25-158zm296 16s0 30 18 60l51 83-44-82c-9-15-25-61-25-61z" fill="#5031bc"/><g fill="#5d3adb"><circle cx="560" cy="709.54" r="7"/><ellipse cx="345.31" cy="982.55" rx="8.93" ry="5.21" transform="matrix(.426569 -.904455 .904455 .426569 -816.65 665.19)"/></g></svg>