<svg xmlns="http://www.w3.org/2000/svg" xmlns:xlink="http://www.w3.org/1999/xlink" viewBox="0 0 806.3 813.25" xmlns:v="https://vecta.io/nano"><defs><linearGradient id="A" x1="28.82" y1="543.64" x2="794.58" y2="763.29" gradientUnits="userSpaceOnUse"><stop offset="0" stop-color="#11bc92"/><stop offset=".15" stop-color="#5bf1cd"/><stop offset=".65" stop-color="#5bf1cd"/><stop offset="1" stop-color="#02e2ac"/></linearGradient><linearGradient id="B" x1="307.07" y1="580.54" x2="307.82" y2="580.11" gradientUnits="userSpaceOnUse"><stop offset="0" stop-color="#5c2f00"/><stop offset="1" stop-color="#964d00"/></linearGradient><linearGradient id="C" x1="254.28" y1="464.99" x2="257.56" y2="463.1" xlink:href="#B"/><linearGradient id="D" x1="633" y1="691.05" x2="761.5" y2="691.05" gradientUnits="userSpaceOnUse"><stop offset="0" stop-color="#02e2ac"/><stop offset="1" stop-color="#b3ffed"/></linearGradient><linearGradient id="E" x1="503.8" y1="268.54" x2="562.75" y2="268.54" xlink:href="#B"/><linearGradient id="F" x1="371.5" y1="246.95" x2="411.35" y2="246.95" xlink:href="#B"/><linearGradient id="G" x1="483.45" y1="233.09" x2="539.83" y2="330.74" gradientUnits="userSpaceOnUse"><stop offset="0" stop-color="#29abe2"/><stop offset=".28" stop-color="#8dff00"/><stop offset=".56" stop-color="#0ff"/><stop offset=".83" stop-color="#0ff"/><stop offset="1" stop-color="#29abe2"/></linearGradient><linearGradient id="H" x1="349.85" y1="218.44" x2="399.26" y2="304.03" xlink:href="#G"/><path id="I" d="M642.4 280.55l-61.4-25-14.3-5c-35.1-19.1-46.2-18.3-63.7-20s-39.9 13.3-42.2 14.2-5.6 14.1-5.6 14.1-10.4 38.3 15.1 62.4 46.2 18.3 55.8 15.8 12.8-3.3 26.3-18.3 15.9-45 17.5-50 10.4-3.3 10.4-3.3c12-3.3 65.3 22.5 65.3 22.5zm-86.8 25c-13.5 32.5-43.8 30.8-43.8 30.8s-23.1 5-47.8-28.3c0 0-7.2-9.2-7.2-30.8 0 0-2.4-22.5 11.2-33.3s36.7-10.8 52.6-7.5 26.3 7.5 31.1 13.3 17.4 23.3 3.9 55.8z"/><path id="J" d="M456 274.85c0-.8 3.2-6.7 5.6-3.3a23 23 0 0 1 3.2 6.7c0 0 1.6-.8 2.4 0s1.6 4.2 1.6 4.2l-.8 3.3a30.61 30.61 0 0 1-4.8 1.7c-.8 0-2.4 0-2.4-.8a55 55 0 0 0-1.6-5.8l3.2-2.5-1.6-4.2h-2.4s0 10-.8 10.8l-1.6 1.7z"/><path id="K" d="M419.3 265.55a85.14 85.14 0 0 1 3.2-15.8l-.8-10s-4 .8-10.4-6.7-12.8-10.8-23.9-15.8-30.3-5-40.6-.8-22.3 5-22.3 5c-2.4 3.3 0 7.5 0 7.5 6.4 1.7 6.4 5.8 6.4 5.8s-9.6 41.6 14.4 64.9 38 13.5 47.8 9.2c11.1-5 24.7-29.1 24.7-29.1s1.6.8 1.6 0 2.4-5 2.4-5.8-1.6-1.7-1.6-2.5 1.6-5 1.6-5.8-2.5-.1-2.5-.1zm-6.4 10.8c-5.6 21.6-23.9 30.8-23.9 30.8s-15.9 10-33.5-2.5c0 0-12.8-7.5-15.9-19.1 0 0-11.2-22.5-4-47.5s34.7-22.2 34.7-22.2 26.7 3 36.3 16.4 11.9 22.6 6.3 44.1z"/><path id="L" d="M421.6 252.85s1.3-6.8 5.3-7.6 19.1 0 24.7 5.8 1.9 18 1.9 18l10.4-25.9s-3.5 2.9-11.5.4-24.7-5-31.9-3.3z"/></defs><path d="M42 694.5C16.5 728.3 4 762.3 0 813.2l804.5-.2a251.73 251.73 0 0 0 0-60.1c-3.6-29.5-14.2-54.2-35.3-103.7-10-23.5-19.7-43.4-33.8-58.3-8.4-8.9-16.9-17.4-16.9-17.4-15.1-15.4-19.2-19.1-31.5-33-27.7-31.3-40-47.9-46.6-57.2-37.2-52.7-37.2-48.1-39.9-50.3-39-31.2-157.8 14.5-249.6 6.7-9-.8-26.2-2.7-48.8 1.6-27.5 5.2-48.6 17-62.1 26.2l-71.8 85.3c-32.7 39.2-52.7 63.5-83 96.4C67 669 51.8 684.7 42 694.5z" transform="translate(0 .05)" fill="url(#A)"/><path d="M374.7 444.55s-16.8 27.3-16.8 43.3-18.2 41.1-18.2 41.1-19.6 15.2 13.4 30.2 115.4 31.9 142.4 13.9 165-1 165-1l-81-177z" fill="#674def"/><path d="M558.5 719.05c-6.8 39.9-1.2 56.1 5.5 63.4 2.4 2.6 11.3 11.1 10.1 20.2-.4 2.7-2.3 10.4-2.3 10.4h0l-11.3-11 4.7 11h-54.7s41 6 15-61c0 0 19 32 30 35 0 0-23-33 3-68z" fill="#02e2ac"/><path d="M370.5 495.05c2.3 2.1 3.5 5.2 4.3 8.2a29.67 29.67 0 0 1 .7 9.4 56.51 56.51 0 0 1-4.8 18l-4.2 8.2a80.41 80.41 0 0 0-4 7.7c-.2.7-.5 1.3-.7 2l-.3 1-.2 1a31.76 31.76 0 0 0-.6 4.3 15.5 15.5 0 0 0 .1 4.3 7 7 0 0 0 1.8 3.9 5.22 5.22 0 0 1-1.9-1.4 13.73 13.73 0 0 1-1.3-2 18.56 18.56 0 0 1-1.3-4.6 25.72 25.72 0 0 1-.2-4.8l.1-1.2a5 5 0 0 1 .2-1.2 20.48 20.48 0 0 1 .5-2.4 54.53 54.53 0 0 1 3.5-8.7l3.9-8a80 80 0 0 0 5.5-16.5 41.1 41.1 0 0 0 .8-8.6 22.92 22.92 0 0 0-1.9-8.6z" fill="#7f324e"/><path d="M387.5 501.05a43.92 43.92 0 0 1 .5 8.9 87.77 87.77 0 0 1-1 8.8c-1 5.8-2.4 11.5-3.7 17.1l-.9 4.1a27.33 27.33 0 0 0-.5 4c-.1 2.8 0 5.6.1 8.5l.5 17.5a102.25 102.25 0 0 1-4.4-17.1 68.83 68.83 0 0 1-1-9 40.83 40.83 0 0 1 1.3-9.2c1.4-5.8 3.1-11.3 4.8-16.9l2.4-8.3c.8-2.8 1.3-5.5 1.9-8.4zm17 3a27 27 0 0 1 1.2 8.9 65.45 65.45 0 0 1-.9 8.9c-1 5.8-2.6 11.5-3.5 17l-.3 2-.1 2v1.9l.2 2.1c.2 2.8.6 5.7.9 8.6.6 5.8 1.3 11.6 1.5 17.5a99.64 99.64 0 0 1-5.4-16.8c-.7-2.9-1.3-5.8-1.7-8.7l-.3-2.2c0-.8-.1-1.6-.1-2.5l.1-2.4.3-2.3c1-6.1 2.9-11.6 4.6-17.1a78.36 78.36 0 0 0 2.3-8.3 61.38 61.38 0 0 0 1.2-8.6zm20 1a73.14 73.14 0 0 1 .4 18.1 70.8 70.8 0 0 1-1.6 9l-1.1 4.2s-.6 2.7-.8 4.1a47.29 47.29 0 0 0-.4 8.4c.1 2.8.5 5.7.9 8.6.6 5.9 1.6 11.6 2.7 17.6a59.19 59.19 0 0 1-6.5-16.8 54.94 54.94 0 0 1-1.7-9 38.93 38.93 0 0 1 1.1-14c.2-.8.5-1.5.7-2.3s.5-1.4.7-2.1c.9-2.7 1.6-5.5 2.3-8.3l3.3-17.5zm22-4a54.69 54.69 0 0 1 2.6 9l1.4 9.3a61.54 61.54 0 0 1 .1 9.6 27.45 27.45 0 0 1-.8 5l-1.3 4.5-2.6 8.7c-.4 1.4-.7 2.9-1 4.3-.2.8-.2 1.4-.4 2.1a7.41 7.41 0 0 0-.1 2.1l.4 9 .8 9.3a71.34 71.34 0 0 1-3.2-8.8 59 59 0 0 1-1.9-9.3 20.92 20.92 0 0 1 .1-5l.8-4.8a94.07 94.07 0 0 1 2.5-9.1l1.4-4.4a27.13 27.13 0 0 0 .9-4.1c.4-3 .6-6 .7-9l-.4-18.4zm193 52a26.22 26.22 0 0 1-7.1-5.7 42.53 42.53 0 0 1-5.3-7.3 49.73 49.73 0 0 1-3.8-8.1 27.67 27.67 0 0 1-1.8-8.9l5.4 7.1 4.5 7.3 4.2 7.5a60.33 60.33 0 0 1 3.9 8.1z" fill="#c6bcfb"/><path d="M629.5 559.05a8.06 8.06 0 0 1-5.3.3 11.16 11.16 0 0 1-4.7-3 9.42 9.42 0 0 1-2.2-5.1 8.83 8.83 0 0 1 .2-2.8 6.47 6.47 0 0 1 .4-1.3l.6-1.2a16.44 16.44 0 0 1 1.4 2.2c.5.7.7 1.3 1.2 1.9a34.57 34.57 0 0 0 2.2 3.1 23.67 23.67 0 0 0 2.7 2.8l3.5 3.1z" fill="#7f324e"/><path d="M506.2 91.55s-50.2-5.8-84.5 25.8-64.6 98.2-64.6 98.2-1.6-3.3 0 15 3.2 20-1.6 43.3-6.4 96.6.8 123.2 23.1 50 25.5 74.9 27.9 40.8 27.9 40.8 33.5 15 62.2 8.3 49.4-22.5 73.3-29.1 69.3-40 74.9-47.5 14.4-45 14.4-45l1.6-8.3s0 6.7 3.2 9.2 23.1 6.7 31.1-7.5 30.3-46.6 24.7-60.8-8.8-19.1-21.6-20.8-2.4-197.2-2.4-197.2z" fill="#fcd2c5"/><path d="M351.5 330.35s14.4 45.2 19.2 53.5 4 5.8 4 5.8 0-13.3 4.8-15 31.1-5.8 32.7-5 10.4 9.2 15.1 8.3 4-3.3 9.6-4.2 70.9 25 75.7 35-.8 33.3-2.4 40 13.5-9.2 22.3-26.6 94.8-72.4 100.4-94.1 14.3-5.8 14.3-5.8l-11 71.2-14.9 49.6c-1.2 1.6-57.7 48.1-80.9 50.7 0 0-69.2 32.5-81.6 29.1 0 0-36.4-2.5-49.1-10s-27.6-28.9-27.7-39.4-9.6-38.2-12.8-42.3-16.5-36.9-15.8-52.1-2.8-21.5-1.9-48.7z" fill="#f4ccc1"/><path d="M384.2 406.35c.3-.8 0-19.2 7.2-22.5s21.5 5.8 25.5 7.5 23.9 1.7 31.1 5 43.8 15.8 47.8 18.3 13.5 10.8.8 28.3-27.1 49.1-43.8 32.5-17.5-19.2-24.7-20-14.3 1.7-21.5 3.3-8 2.5-13.5-7.5-16.1-22.4-8.9-44.9z" fill="#fcd2c5"/><path d="M295 480.45a583.26 583.26 0 0 0-214.7 274.6c18.9-26.8 36.4-54.6 52.5-83.1 22.8-40.5 29.8-59.5 41.2-79.6 18.5-32.5 52.5-74.3 121-111.9z" fill="#02e2ac"/><g transform="translate(0 .05)"><path d="M306.8,580.2l1.2.3Z" fill="url(#B)"/><path d="M257.9,463.6l-3.8.8v.1Z" fill="url(#C)"/><path d="M633,569s35.4,6.6,63.5,48.8,40,104.8,40,104.8l25,90.5Q734.8,725.5,708.1,638A191.35,191.35,0,0,0,666,590.4,194.21,194.21,0,0,0,633,569Z" fill="url(#D)"/></g><path d="M675.5 70.35c-19.3-23.9-78.5-54.5-78.5-54.5s-78.1-45.8-151.4 18.3-77.3 83.3-114 178.1c0 0-17.5 46.6 6.4 91.6 0 0 12 35.8-.8 53.3s-37.5 34.1-46.2 33.3a38.26 38.26 0 0 1-27.9-16.6 114.16 114.16 0 0 1-12-23.3l3.2 13.3-3.2-5.8 1.6 8.3-5.6-13.3v10l-2.4-5 1.6 8.3-3.2-3.3 2.4 7.5-4.8-6.7s27.1 48.3 48.6 49.1c8 .3 13.2.3 16.5.1-10.5 2-31.2 7.8-30 21.5 1.6 18.3 4 13.3 4 13.3l.8 3.3-.8 4.2s15.9-8.3 16.7-10.8 5.6-3.3 5.6-3.3-14.3 18.3-15.9 21.7a12.26 12.26 0 0 0-1.6 5s11.2-16.7 14.4-18.3 6.4 0 8 4.2a31.21 31.21 0 0 0 8.7 11.3c-3.8 8.8-7.1 17.8-7.1 22.9 0 10.8 3.5 29 8.5 36.8-3.1 1.9-5.3 3.2-6.1 3.2-1.3 0 2.8.3 8.5-.1a137.48 137.48 0 0 0 13.8 12.6l-2.4-4.2 2.8 3.7c-4.2 7.7-7.6 14.6-8.4 18a96.74 96.74 0 0 0-2.4 20s0-11.5 9.4-30.5l.1-.3c1.1-2.2 2.3-4.4 3.6-6.5l.4.7-.2-.8c4.5-6.5 1.8 6.7 1.8 6.7s-5.6 10-4.8 9.2 5.6-8.3 5.6-8.3l-5.6 10.8 5.6-5.8-4 7.5 12.8-18.3s-14.3 22.4-13.5 31.6l1.6 17.5.8-7.5 1.6 10.8s0-20 3.2-25 8-14.2 8-14.2a32.93 32.93 0 0 1-.8 11.7 156.23 156.23 0 0 0-3.2 21.6l-.8 8.3 2.4-4.2s3.2 9.2 3.2 8.3 1.6-8.3 1.6-8.3l12 19.1v-3.3l4 3.3-.8-5 5.6 3.3s-14.4-13.3-15.9-24.1a56.19 56.19 0 0 1 0-18.3s4 25.8 7.2 26.6l5.4 1.4c-1.9-.7-6.2-3.2-6.2-12.2v-8.3l2.3-10.8s2.4-22.5 11.2-37.5 8.8-15.8 8.8-15.8a50 50 0 0 1-2.4 21.7c-4 10.8-1.6 21.6-7.2 30l-9.6 14.2-.8 10 4-7.5s9.6-7.5 10.4-10 7.2-21.7 7.2-27.5 8.8-20.8 8.8-20.8l5.3-15.5c-7.6-6.9-17.4-18.7-18.8-33.7-2.4-25-18.3-48.3-25.5-74.9s-5.6-99.9-.8-123.2 3.2-25 1.6-43.3 0-15 0-15 30.3-66.6 64.6-98.2 84.5-25.7 84.5-25.7l34.6 4.7c45.7 41.7 71.1 252.8 80.2 271.7 3.2 6.6 4.1 17.1 4 28.3-6.4 5.7-19.6 19.4-24.4 38.7a129.92 129.92 0 0 0-3.6 27.8c-39.5 29.1-57.4 31-57.4 31l-32.4 14.3s-10.5 18.9-16.9 27.2-9.6 40.8-8.7 49.1 16.7 53.3 16.7 53.3l-9.6-28.3c-2.4-7.5 12.8-39.1 12.8-39.1l2.4 16.7v-23.3s8.8 18.3 4 31.6 6.4 42.5 6.4 42.5a150.38 150.38 0 0 1 0-30c1.6-16.7 9.6-10 9.6-10l-2.4 10 15.1-10.8-12.8 18.3 14.3-7.5a116.41 116.41 0 0 1-3.2 14.2c-2.4 8.3 8.8 29.1 8.8 29.1a208.52 208.52 0 0 0 0-25c-.8-11.7 14.3-22.5 14.3-22.5l-.8 8.3 15.9-10.8s-3.2 10-5.6 14.2 14.3-11.7 29.5-16.7 24.7-33.3 38.3-51.6 14.3-37.5 15.1-29.1 16.7 20 21.5 45-24.7 38.3-24.7 38.3l12-4.2-4 7.5 11.2-6.7-2.4 6.7 8.8-6.7.8 6.7s8.8-22.5 13.5-36.6-11.2-58.3-11.2-58.3l14.3 30-8.7-44.2 14.3 27.5s-10.3-30-10.3-62.4 38.3-81.6 44.6-153.2-12.8-185-55-237.4zm-368.6 375.8c.8-4.2 12-14.2 14.3-13.3s4.8 1.7 4.8 6.7c0 2.4-4.2 11.3-8.5 21-8-8.7-11.3-10.5-10.6-14.4zm19.1 70.1a57.08 57.08 0 0 1 .9-16.5c-6.3 1.4-11.2 2.3-11.2 2.3l11.2-2.4c1.7-10.1 4.8-19.6 6.3-21.7 0 0-4.6 11.2-3.3 21l.8-.2-.8.2a1.27 1.27 0 0 0 .1.6c1.6 10 2.4 13.3 2.4 13.3s-.2-6.5.2-14.5l14.9-3-7.2 5.8h5.6l-4.8 2.5h5.6s-10.6 7.9-20.4 14.6l-.3-2zm7.9 23.2l-.6-4.1 1.4 2.6zm1.4-2.7l-.5-2.2 1.2 1a12.75 12.75 0 0 0-.7 1.2zm2.3.2l2 1.7a11.2 11.2 0 0 1-2-1.7zm-1.6-1.5a41.71 41.71 0 0 1-6.6-9c5.7-1.2 11-3.3 13.4-6.9 6.4-10 10.4-13.3 10.4-13.3s-9.3 15-17.2 29.2zm17.9-79.1s3.2 5.8 1.6 7.5a33.21 33.21 0 0 0-3.2 4.2l4-2.5-2.4 4.2 5.6-.8s-1.6 19.1-11.1 24.1c-3.8 2-9.9 3.9-15.7 5.4.4-7.4 1.4-16.1 3.7-22a30.15 30.15 0 0 1 2.5-5.1 69.94 69.94 0 0 0 10.2-.7 47.86 47.86 0 0 1-10 .4 48.28 48.28 0 0 1 14.8-14.7zm247.4 3.3l3.2-16.2-1.4 14.8zm1.7-19.6c-1.1 6.4-1.8 15.2-2.2 20l-2.1 1.6c1.6-9.1 4.3-21.6 4.3-21.6zm.8 17.7c.3-1.4.5-2.8.8-4.4 3.3-17.6 12.5-31.3 19.5-39.7-1.4 16.7-4 30.9-4 30.9a366.55 366.55 0 0 1-16.3 13.2z" fill="#0d0630"/><path d="M561.4 513.05s-9 6-7 15 16 33 16 33l-10-8v7l-10-15s1 36 14 44 16 11 15 11-18-9-18-9l7 9s-14 0-21-27-11-42-5-53 12.1-29 12.1-29l-.1 5 5-7-1 6s10-5 15-6c0 0-12 10-15 18 0 0 0-2 7 1a11.36 11.36 0 0 1 7 10 9.69 9.69 0 0 0-11-5z" fill="#1b1544"/><path d="M587.4 159.95l34.3 167.3c4 15.7 7.2 35.8 7.2 35.8s1.6-20 8-32.5 4.8-34.1 4-45.8 4.8-35 4.8-35z" fill="#fcd2c5"/><path d="M592.6 163.65s17.7 49.3 44.7 73.4c0 0-31.9-36.9-44.7-73.4zm-3.2-6.7s13.5 74.9 51.8 123.2c0 0-26.3-38.2-51.8-123.2zm2.8-5.5s34.3 62.4 43 72.4 24.8 47.5 24.8 47.5-16.7-45.8-21.5-55-46.3-64.9-46.3-64.9zm-11.9 10l41.4 193.1 7.2 18.3-48.6-211.4zm-11.2-55.7s-1.6 16.7 6.4 23.3 13.5 20 13.5 20a147.9 147.9 0 0 0-4-17.5c-2.3-7.5-5.5-19.2-15.9-25.8zm31.9 31.7s7.2 30.8 10.4 34.1 17.5 20.8 20.7 25.8 9.6 18.3 9.6 18.3l-6.4-18.3 15.1 23.3s-13.5-32.5-23.9-45-25.5-38.2-25.5-38.2zm-183.3 109.9c0-7.4-5.8-8.6-12.4-11.2-6.4-2.5-13.1 3.9-13.1 11.2a12.76 12.76 0 1 0 25.5 0zm129.1 20c0-7.4-5.2-10.4-12.3-12.1-6.9-1.6-13.1 4.7-13.1 12.1a13 13 0 0 0 12.7 13.3h.1c6.9-.1 12.6-6.1 12.6-13.3z" fill="#1b1544"/><g transform="translate(0 .05)"><path d="M503.8 263s15.1-12.5 32.7-5.8 23.9 19.2 23.9 19.2-9.6 5.8-12 6.7 13.5-5 14.3-5.8-8.8-15-25.5-21.6-33.4 7.3-33.4 7.3z" fill="url(#E)"/><path d="M411.3 239.8s-5.6-5.8-21.5-5-16.7 15.8-16.7 15.8.8 8.3 7.2 10c0 0-4.8 2.5-8.8-10 0 0 1.6-17.5 19.1-17.5s20.7 6.7 20.7 6.7z" fill="url(#F)"/></g><path d="M475.9 239.85c0-.8 4.8-16.6 20.7-19.1s58.2-2.5 87.7 16.6 5.6 10 5.6 10-37.5-8.3-77.3-9.1-36.7 1.6-36.7 1.6zm-61.4-9.2s-38.3-15-47-15-10.4.8-10.4 0 5.9-12.2 5.9-12.2 28.4 1.4 36.3 6.4 8.8 1.6 15.2 20.8z" fill="#1b1544"/><path d="M385.8 396.35a19.81 19.81 0 0 1 .8 3.3c0 .8 1.6-1.7 1.6-1.7s4 5 16.7 6.7c0 0 15.9 10 18.3 8.3 0 0 16.7 3.3 23.1.8 0 0 31.1 8.3 43 5.8h3.2c.8 0 3.2 1.7 3.2 1.7l-4-3.3" fill="none" stroke-miterlimit="10" stroke="#c4a19d" stroke-width="1.5"/><path d="M423.3 363.05c-.8-.2 8.8-10.8 15.1-8.3l12.8 5h-4s-.8 2.5-2.4 2.5-6.4-1.7-8.8-.8-7.1 3.2-12.7 1.6z" fill="#e0bab3"/><path d="M550 417.95s-8 2.5-12 8.3-12.8 25-12.8 25 8-1.7 13.5-7.5 11.3-22.4 11.3-25.8z" fill="#efc9bf"/><g fill="#0d0630"><ellipse cx="534.4" cy="267.65" rx="4.4" ry="4.6"/><ellipse cx="404.5" cy="247.65" rx="3.6" ry="3.8"/></g><path d="M514.1 404.55c-2.5-1.5 12 10.8 8 17.5l-10.4 17.5s14.4-15 14.4-16.7 4.8-8.3-12-18.3z" fill="#efc9bf"/><g opacity=".17" transform="translate(0 .05)"><path d="M460.2 252.1s-6.3 18.8-5.5 28.8 7.2 29.1 12 33.3 23.9 22.5 31.1 22.5 35.9 1.7 44.6-8.3 23.9-38.3 23.9-48.3-8.8-30-8.8-30-20.7-10.8-29.5-14.1-32.7-3.3-32.7-3.3l-24.7 8.3s-10.4 4.2-10.4 7.5v3.6z" fill="url(#G)"/><path d="M334.4 230.1l18.3-13.3 18.3-1.7 16.7 3.3s12.8 6.7 16.7 10 15.1 16.6 13.5 21.6-1.6 33.3-5.6 35-15.1 24.1-25.5 25-24.7 10.8-46.2-17.5c.2 0-16.6-30.7-6.2-62.4z" fill="url(#H)"/></g><path d="M457.5 273.95s6.4-7.5 10.4.8c0 0 3.2 14.1.8 19.1s-5.6 4.2-11.2 0 0-19.9 0-19.9z" fill="none" stroke-miterlimit="10" stroke="#5932c4"/><path d="M404.1 431.35s23.1 6.7 32.7 6.7h19.1l-10.4 6.7s-4.8.8-4.8 0 .8-.8 0-.8-8.8 3.3-8.8 3.3.8-4.2 0-4.2a36.18 36.18 0 0 0-5.6 1.7l-3.2-2.5-4.8 2.5-4-5z" fill="#f4ccc1"/><path d="M483 83.25s-41.4 5.8-58.2 20-43.8 29.2-43.8 29.2 25.5-16.6 27.1-19.1-22.3 14.1-27.9 14.1h-8s8.8 1.7 32.7-17.5l14.4-7.5c1.6-.8-21.5 5.8-23.1 7.5s-4.8 5-5.6 5 9.6-10.8 14.3-15-4.8-2.5-9.6-3.3-3.2-4.2-3.2-4.2l28.7-2.5c6.4-.8 35.9-12.5 47-10.8s15.2 4.1 15.2 4.1zm136.3 372.2s-13.5 67.4-47 79.9c0 0 40.7-15.8 50.2-59.1l11.2-48.3s-7.2 15-6.4 14.2 1.6-10.8 1.6-10.8zM597 70.05s32.7 38.3 37.5 46.6 12.8 30.9 12.8 30.9-19.1-40.8-27.9-45.8l12 27.5c4 8.4 4 20 4 20l-3.2-10.8v6.7s-15.9-44.1-39.8-69.9h4.8z" fill="#1b1544"/><g fill="#38268e"><use xlink:href="#I"/><use xlink:href="#J"/><use xlink:href="#K"/><use xlink:href="#L"/></g><g fill="#0d0630"><use xlink:href="#I"/><use xlink:href="#J"/><use xlink:href="#K"/><use xlink:href="#L"/></g><path d="M538.7 83.45s5.3-7.3-11.4-9.8-33.5 0-33.5 0 35.1-9.2 39-5.8 12.5 3.8 5.9 15.6z" fill="#1b1544"/><path d="M426.1 244.45s8.8 8.3 1.6 23.3-22.3 49.1-25.5 52.5-15.1 20-4 30.8c0 0-5.6-3.3-5.6-11.7s5.6-16.6 9.6-20l24.7-52.4c-.1-.1 2.4-13.5-.8-22.5zm-26.3 109s8 5.8 9.6 7.5 0-1.7 0-1.7 3.2 2.5 5.6 4.2a25.12 25.12 0 0 1 3.2 2.5s-10.4-1.7-12.8-5l-5.6-7.5z" fill="#eac4bb"/><g fill="#1b1544"><path d="M696.2 161.95s46.3 91.6 16.7 182.3-33.5 86.6-33.5 103.2v29.1s-7.2-23.3-7.2-31.6 31.1-80.8 32.7-105.7 28.8-8.3-8.7-177.3zm-28.7 293.9s7.2 20.8 9.6 30 3.2 24.8 3.2 24.8z"/><path d="M663.5 467.45s3.2 20 4 29.1 0 18.3 4.8 26.6a62.73 62.73 0 0 1 8 23.3c.8 6.7-5.6-13.3-9.6-20s-8-20.8-7.2-31.6 0-27.4 0-27.4z"/></g><path d="M80.5 771.05s-1 16 3 22 19-17 19-17l-22.1 37H33.6s21.9-34 27.9-51-8 39-8 39 7 3 8-12 4-3 4-3 3 14 3 13 0-33 5-47 10-19 10-19-10 19-8 37a33.45 33.45 0 0 1 5-16c5-8 8-11 8-11s-8 18-8 28z" fill="#02e2ac"/><path d="M662.8 163.65s34.3 30 36.7 69.1 12 55.8 12 55.8-19.2-40.8-19.9-58.3-16.9-51.6-28.8-66.6zm-27.9-107.5s48.6 15.8 63 78.2c-.1.1-15.2-56.5-63-78.2zm14.3 12.5s30.3 19.1 39.8 49.9c0 .1-9.5-26.5-39.8-49.9zm12.8 14.2s12 10.8 17.5 20.8zm-124.4-29.2s-17.5-4.2-37.4 5.8-55.8 3.3-69.3 11.6-23.1 13.3-25.5 13.3H399c.8 0 18.3-6.7 30.3-15.8s63-4.2 68.5-12.5a59.88 59.88 0 0 1-31.1 2.5c-16.7-3.3-36.7 2.5-36.7 2.5s49.5-27.4 107.6-7.4zm86.9 363.9s-7.6 18.5-10.6 32.1zm-28.9-246.4s32.1 82.4 47.6 90.3a29.8 29.8 0 0 1-13.9-12.1c-5.6-9.2-33.7-78.2-33.7-78.2z" fill="#1b1544"/></svg>