<svg xmlns="http://www.w3.org/2000/svg" xmlns:xlink="http://www.w3.org/1999/xlink" viewBox="0 0 992 873.49" xmlns:v="https://vecta.io/nano"><path d="M368 531.49s-36 0-61 26-36 45-44 47-20 24-25 28c-3.4 2.72-17 .81-38.54 5a172.93 172.93 0 0 0-35.46 11c-15.6 6.43-21.34 11.11-48 27-31.1 18.53-27.75 14.81-40 23-20.56 13.74-37.61 25.13-51 45-5.47 8.13-25 63-25 63h0v67h992s-6-132-68-203c0 0-30-24-56-21 0 0-15 0-34-9s-43-26-65-21-22 7-22 7-3-11-18-17-22-5-27-8-11-26-27-33-19-32-48-46-259 9-259 9z" fill="#674def"/><path d="M350.5 435.99s9 90 3 139c0 0-7 16-19 24s-13 11-13 11-3 37 13 64c0 0 2 13 7 17s46 15 91 52c0 0 1-1 8 2s69 61 75 69l3 2s34-66 45-80 64-79 67-78 5-12 5-12-12-56-1-165z" fill="#dda07f"/><path d="M382 637.49c-28-25-26-61-26-61 .64-9.13.17-15.06-1.05-18.61-.33 6.07-.8 11.83-1.45 17.11 0 0-7 16-19 24s-13 11-13 11-3 37 13 64c0 0 2 13 7 17 2.8 2.24 16.9 6.68 36.67 16.65h0L371 670.49c0-2-15-36 2-22s18 23 18 15-25-36-25-36l48 40s-4-5-32-30zm237-88c-2 22-43 61-43 61l41-26s-11 71-26 80-22 37-22 37v27.6c17.31-21.52 58.85-72 61.5-71.1 3 1 5-12 5-12s-12-56-1-165l-4.1-.65-11.4 13.15s2 34 0 56z" fill="#d3967a"/><path d="M332.5 211.99l26 180 104 129 148-23 62-136 12-117-18-153-120-65-115 19-96 85-3 81z" fill="#f1b289"/><path d="M319 259.49s-40-4-31 42c0 0 16 41 19 56s3 33 14 37 15-2.3 15-2.3l8.4-102.47zm359.5 31.6s21.5-20.6 29.5-5.6 9 18-1 52c0 0-13 23-15 36s-5 37-19 25 5.5-107.4 5.5-107.4z" fill="#e8a885"/><path d="M333 321.49s-8 8-4 16 9.47 2.56 9.24 9.28 1.76 15.72-2.24 14.72-18-8-18-17 11-29 15-23zm-17-36l-2 26c0 2 9-6 14-7s5 1 5 1-14 7-17 18-6 22-2 28 7 7 7 11-11 1-13-22 2-72 8-55zm358 57s4 10 10 6l9-6s-3 13-9 19-10 3-10 3zm25-47s11 8 10 14-9 28-9 28l-4-24 3 10a81.2 81.2 0 0 0 5-10c2-5-5-18-5-18z" fill="#d89484"/><g fill="#0c0631"><path d="M326 270.49s19 34 21 41a27.29 27.29 0 0 0 6 11l-3-28s-19.5-56.5 1.5-117.5 45-95 71-108 55-39 108-28 93 39 116 71 29 83 27 100 1 79 2 90 0 14 0 14 6-27 10-31 11-4 12-4 27-96 10-138-26-72-78-110-125-42-187-18-108.5 62.5-122 104c-9.31 28.61-21 78-15 141 0 0 16 2 20.5 10.5zm215.5-34.5s-7-12-3-19 35-16 52-11 46 24 46 36v21s-7-23-34-29-50-9-61 2zm-41 0s-2-28-10-30-30-13-54-7-39 26-41 35a41.09 41.09 0 0 0 0 17s28-27 41-27 54 11 56 12 8 0 8 0z"/><path d="M339.5 278.99s0 59-2 78-3 57 1 69 41 74 57 89 37 55 97 57 80 1 100-29c0 0 56-68 68-97s15-32 16-65l2-96s-8 45-16 56-4 32-7 40-6 0-6 0l-3 17-5-15-4 19-1-15-5 20-1-5-3 10-2-4s-1 14-4 23l-3 9-3 5s2-30 1-37-5-12-14-14-25-4-29-6-14-11-28-9-15 6-23 7-27-1-29-1-9-8-18-8-44 6-50 14-13 16-13 16l5-19-15 27v-19s-4 12-4 11-1-19-2-17-6 10-6 10 1-23 0-19a7.27 7.27 0 0 1-5 5s2-14 1-12-6 7-6 7 3-9 0-7-7 10-7 7v-16l-5 13s-5 8-4-11-11-41-18-62-7-26-7-26z"/></g><path d="M435.5 409.99s-12 48 7 65 45 19 50 13 2-16 5-22 17-6 19 7 7 25 20 25 35-3 44-22 13-53 10-57 3-13-71-9c0 0-27-1-69-4 0 0-14-2-15 4z" fill="#f1b289"/><path d="M447 416.49s90.5 6.5 133.5 6.5c0 0-22 14-57 13s-38.5-1.5-76.5-19.5z" fill="#af7f64"/><path d="M467.3 417.86s-1.8 8.13 3.2 8.13h9a3.7 3.7 0 0 0 3 2h10s-5 3 3 3h16s2 2 3 2 15-1 16-1 18 1 18 1 5 0 6-2 4 0 5-1 3.13-7.29 3.13-7.29-50.53-.98-95.33-4.84z" fill="#ffe6c5"/><path d="M424.5 451.99c-3 5-19 21-21 32s-3 23-3 23l9-13s-6 17-4 15 7-6 7-6l-5.68 24.5s18.23 29.25 51.46 38.39l8.22-2.86s-6 3-7-3-3-21 2-28 14-27 14-27l-1-7-1-5s-4 7-5 8-1-6-4-8-10-1-12-2a15.42 15.42 0 0 1-7-7c-2-4-7-3-8-1s-7 3-6-4 2-12 0-11a4.83 4.83 0 0 1-4 0v-17zm165 12s13 15 13 32-3.64 39.14-3.64 39.14-17.32 31.06-39.84 34-39.47 3.53-39.47 3.53 14-2.63 19-6.63-14 2-14 2-8 0-4-2 6-5 5-5-14 2-13 2 23-8 17-15c0 0-2 5-9 3s-12-3-8-4 22-19 22-19l-10 5 9-10s9-15 9-17 5-5 6-3 8 5 8 4 11-14 12-13 0 10 0 10a116.66 116.66 0 0 0 9-14c3-6 6-4 7-3s-1 10 1 5 4-15 4-15 4 9 4 7-4.05-20.04-4.05-20.04zm65-58s5 13 6 23-3 16-3 16l-3-16s-5 15-3 19-6-1-6-17 9-25 9-25z" fill="#424242"/><g fill="#e8a885"><use xlink:href="#B"/><use xlink:href="#C"/></g><path d="M418.5 163.99s26-12 54-7 50 14 67 13 51-11 75 5l22 15m-106-48s14-5 25-1 33 5 49 12 19 12 19 12m-116-36s-58-13-96 16" fill="none" stroke="#e2a481" stroke-miterlimit="10"/><path d="M478.5 676.99s29 40 36 58 0 2 0 2 6 6 13-10 11-35 14-42-8 19-23 15-24-11-27-19-13-4-13-4z" fill="#d3967a"/><path d="M336 236.49l36-3c4 0 94-3 106 3s10 9 19 11 40 1 40 1 3-7 9-8 103-2 114 3a117.78 117.78 0 0 1 18 10v13l-14-6s-5-2-8 15-3 43-20 45-69 8-82-4-22-45-26-49-23-6-26 0-16 46-31 48-81 2-90-13-11-42-15-45-30-4-30-4z" stroke-miterlimit="10" fill="#bad3cf" stroke="#b7e0e5" opacity=".51"/><g fill="#f1b289"><use xlink:href="#D"/><path d="M540 255.49s2-7 17-8 68-4 89 0c0 0 7 5 5 22s-4 44-14 45-62 10-75-1-31-40-22-58z"/></g><path d="M555.5 260.99s31-28 63 8m-140-9s-33-34-66 2" fill="none" stroke="#e2a481" stroke-miterlimit="10"/><g fill="#e8a885"><use xlink:href="#B"/><use xlink:href="#C"/></g><g fill="#1e1317"><path d="M567 262.49c-1.9.69-5.45 3.88-8 6a23.53 23.53 0 0 0-3 3 64 64 0 0 0 13.5 3.5l7 1h0s-21-2-22-3l-1-1c1.19-1.31 3-4 5.5-5.5 3.12-1.86 6.05-3.64 8-4zm22-3s14 2 19 10c0 0-8 6-13 6l18-4s-12-13-24-12z"/><path d="M570 262.49s-5 10 3 13 22 0 22 0 5.47-6.92-1-15c0 0-15-5-24 2zm-108.5-2c1.9.69 5.45 3.88 8 6a23.53 23.53 0 0 1 3 3 64 64 0 0 1-13.5 3.5l-7 1h0s21-2 22-3l1-1c-1.19-1.31-3-4-5.5-5.5-3.12-1.86-6.05-3.64-8-4zm-22-3s-14 2-19 10c0 0 8 6 13 6l-18-4s12-13 24-12z"/><path d="M458.5 260.49s5 10-3 13-22 0-22 0-5.47-6.92 1-15c0 0 15-5 24 2z"/></g><g opacity=".53" fill="#bad3cf"><use xlink:href="#D" opacity=".53"/><path d="M540 255.49s2-7 17-8 68-4 89 0c0 0 7 5 5 22s-4 44-14 45-62 10-75-1-31-40-22-58z" opacity=".48"/></g><path d="M507 271.49l-7 28a40.94 40.94 0 0 1-7 13s11-3 7 3-26 18-30 23-9 2-7 1 7-10 14-17 11.08-23.47 16-33.74 12-28.26 14-17.26z" fill="#eaaa86"/><path d="M523 372.49s10-11 15-11 11 5 5 7-20 4-20 4zm-23 0s-8-11-12-11a7.5 7.5 0 0 0-6 3s-4 3 18 8z" fill="#bf886f"/><path d="M464 348.49s-8 9 1 14 14 4 14 4-28 8-32 10-5 3-5 3a83.71 83.71 0 0 0 10-10c4-5 6-22 12-21zm82-20s20 10 16 33c0 0-4 8-10 9 0 0 10-1 12-7s5-26-18-35z" fill="#eaaa86"/><path d="M234 652.49s-8 96-4 103 58-38 73-37 29 28 30 30 37 21 40 24 69 44 69 44-107-14-114-11 47 41 47 41-60-26-88-45-23-34-52-25-1-124-1-124zm396 68c2-1 26-3 27-11s12-43 12-43 68 20 72 27 14 7 14 7l-43-85s46 65 49 85-85-22-85-22-7 33-12 37-34 5-34 5zm66-2s13 66 12 100-2 43-2 43-8-74-15-86-18 16-18 16zm-566 58l45 97h14s2-74-6-94-9-27-9-27l4 53c1 11-24-9-29-28s-19-1-19-1zm775-20s14.51 72-15.74 117h-42.9s9.64-27-.36-60-7-32-7-32l27 80-5-58 16 34v-47l11 36s18-2 17-70z" fill="#5932c4"/><path d="M311 164.49s10 3 15-4 4-2 4-2l-17 18s-1 3 3 5 8-4 8-4l-6 13 7-3-7 12 10-3a184.89 184.89 0 0 0-10 18l-8 16 1-66zm196-141s28-9 59-4 41 12 41 12-29-12-54-9-20 2-20 2l41 7zm90 11s26 10 46 26 28 35 28 35-11-23-47-40c0 0-1 4 4 9s10 6 6 5-37-35-37-35z" fill="#424242"/><defs ><path id="B" d="M622.5 278.99s-2 8-7 10-5 3-5 3 14 1 23 13 11 16 11 16-10-23-22-28c0 0 19 4 26 20 0 0-3-14-24-21 0 0 6-9 24 7l8 7s-14-16-23-19-11-8-11-8z"/><path id="C" d="M404.5 270.99s2 8 7 10 5 3 5 3-14 1-23 13-11 16-11 16 10-23 22-28c0 0-19 4-26 20 0 0 3-14 24-21 0 0-6-9-24 7l-8 7s14-16 23-19 11-8 11-8z"/><path id="D" d="M385 239.49a22.5 22.5 0 0 0-9 18c0 12 2 38 13 43s23 11 68 10h15s16-8 19-36a66.05 66.05 0 0 0 0-15c-1-7-17-20-37-22s-69 2-69 2z"/></defs></svg>