<svg xmlns="http://www.w3.org/2000/svg" viewBox="0 0 1144.24 1243.32" xmlns:v="https://vecta.io/nano"><path d="M683.55 579.7l21.69 9.84s5 46 11 80 7 107 7 107l-80 160c-2 4-100 57-100 57l-107-57-37-166 21-62 2-51z" fill="#d6a492"/><path d="M409.24 650.54s41 89 67 104 100 23 136-7 94-69 93-78-11-69-11-69z" fill="#c99a87"/><path d="M1144.24 1237.54s-5-98-10-111 0-38 0-51 7-51-10-80-78-131-102-150-67-38-81-60-43-43-60-39-96-51-110-55-59-76-62-72-10 39-13 52-29 71-41 80-26 66-30 82 5 24 4 32-45 70-47 68-6-37-73-63c0 0-5-36-11-53s-44-68-48-84-24-65-24-65l-14-15s16 31-11 44-135 56-161 68-75 48-86 59-68 44-86 71-45 112-50 124-5 30-7 38-13 60-11 80 0 100 0 100z" fill="#5bf1cd"/><g fill="#11bc92"><path d="M1104.24 1053.54c-8.23-6.43-35 52-65 64s-63 42-63 42 160-81 128-106zm16-5c0 4 6 14-4 28s-117 81-125 100 4 2 7 0 123-91 127-102 11-38 3-34-8 8-8 8zm-4 53c-1 2-37 44-50 56s-5 11-3 10 64-56 63-61 1-22 0-21-10 16-10 16zm-52-112c-1 1-100 102-105 111s-51 69-55 75a80.64 80.64 0 0 0-7 14l154-176c8-6 13-24 13-24zm-5-98c-1.89-2.1-52 72-60 83s-106 152-106 152 98-139 108-144 67-81 58-91zm-37-13c-7 13-56 85-62 105s-30 57-30 57 84-119 92-137a270.06 270.06 0 0 0 12-32zm-148 355c1-5 11-75 11-89s3-56 3-74-14-105-14-105v64s-9-64-10-56-5 60 0 71 15 116 11 129-13 64-13 64h10zm90-382c0 3-7 81-11 96l-11 42s26-64 26-90a300.39 300.39 0 0 0-4-48zm-102-60c5.49-8.36-24 93-21 111s0 53 0 53-21-100 21-164zm-286 164c-12.23-4.51 50-4 52-19s27-62 31-73 7-26 10-28 4 24 7 28 59-95 68-120c0 0-18 61-31 88s-39 50-43 47-20 32-28 52-28 39-66 25zm-25-51c-4 1-19-10-37-6s-26-7-26-7 18 18 34 20 27 16 29 9 0-16 0-16zm-85-107s-24 26-25 41-4 25 12 33 13 8 13 8-12-40 0-82zm-5 94c9.76 8.65-49-19-52-88s-6-60-6-60 14 37 13 54-8 47 45 94zm-142-35c-9 20-29 53-42 84s-19 18-16 15 58-99 58-99zm-309 291s49 74 57 82 0 8 0 8h-5s-54-64-52-90zm13-94c5 18 40 63 66 85s69 77 75 88l6 11s-7 13-14 0-56-79-85-100-48-84-48-84zm42-107s24 40 37 73 60 100 77 119-38-64-50-85-64-107-64-107zm151 226l34 65h10s-30-91-29-111l7 76zm-109-252s-9 59 28 88 76 68 76 68v18s-49-29-63-51-55-59-41-123zm17-36c5 8 67 101 74 124s28 73 28 73-23-80-37-108-65-89-65-89z"/><path d="M231.24 1060.54c0-3-16-93 0-123zm330-105s-30 76-30 105-11 177-11 177h72l10-242a322.41 322.41 0 0 1 7-40l-7-22s-28 2-41 22zm98-185c-2.83-1.41 4 26 8 48s6 15 6 15 20-46-14-63zm-410 32c-1.62-3.66 20 61 0 91s-22 29-22 29 38-84 22-120zm-52 34c5.16-12.58-3 56 0 110s0 62 0 62-16-133 0-172z"/></g><g fill="#0d7f61"><ellipse cx="554.24" cy="1190.04" rx="11" ry="13.5"/><circle cx="573.24" cy="972.54" r="13"/><ellipse cx="473.74" cy="834.04" rx="7.5" ry="10.5"/><ellipse cx="682.74" cy="847.04" rx="4.5" ry="10.5"/></g><path d="M723.24 377.54c4 1 16-24 26-25s16-7 21 13-5 36-5 48-2 41-10 62-13 56-38 21l-2-37-4.6-59zm-370.16 32.4c-.84-1.4-4.84-9.4-11.84-15.4s-14-11-17-2 3 29 6 41 14.68 52.16 22.84 62.08 9.16-52.08 9.16-54.08-9.16-31.6-9.16-31.6z" fill="#d4a48d"/><path d="M712.57 378.22c1.66 3.32 5 73 5 76.3s-10 87.91-10 87.91l-66.33 102.84-64.69 51.42-73 11.61s-61.37-28.2-63-31.51-49.76-59.76-49.76-59.76l-18.25-33.17s-14.93-29.83-18.25-59.68-8.29-51.42-5-76.3 5-76.3-1.65-99.52 21.6-96.2 21.6-96.2l228.9-49.77c6.63 1.65 111.1 53.08 111.1 53.08z" fill="#d6a492"/><path d="M349.24 412.54s3-2 3-7 1-27-2-43l-3.22 9.34c.22-.34 2.22 40.66 2.22 40.66z" fill="#0a0a0a"/><path d="M712.57 424.66c-1.66-3.32-21.56-29.86-21.56-41.47s8.29-24.88 0-34.83-53.08-28.2-54.77-34.82 10-51.42 10-51.42-36.49 29.85-54.73 24.91-21.57-15-33.18-24.91-31.51-11.61-54.74-6.64-41.46 11.61-53.07 10-64.69 21.56-78 28.19-8.3 36.5-14.93 44.79-3.32 13.27-6.64 28.2-.05 43.56-1.71 46.88-4.9-40.3-8.22-46.93-18.25-68-14.93-81.28 5-16.59 5-16.59-28 5.6-57-29.5a137.6 137.6 0 0 1-7.69-10.31l14.93 8.3-14.93-18.2s13.25 16.56 29.84 18.25c0 0-19.91-16.59-29.86-28.2l9.95-3.32s-11.61-14.93-9.95-19.9c0 0 14.93 23.22 46.44 23.22 0 0 0-3.32-3.32-16.59s-24.88-28.2-18.26-46.44l5-14.93 3.31 13.27s6.64-13.27 9.95-18.25c0 0 8.3 19.91 16.59 23.23 0 0-5-3.32-5-18.25l1.65-8.29 8.26 13.2-5-21.57s11.61 11.61 14.93 11.61 14.93-33.17 16.59-46.44l6.68-13.27 16.59 3.32 9.95 11.61 5-34.83 24.86-26.54 6.63-5 5 29.86s11.61 1.66 16.59-6.64 19.9-29.85 19.9-29.85l1.64 18.23 26.58-24.83 9.95 16.59 28.2-11.61 3.32 11.61L560 5.03a91.34 91.34 0 0 0-1.66 14.93c0 6.63 10-3.32 10-3.32l10 16.59s3.31-5 0-13.27l-3.32-8.3s14.89 8.3 13.23 14.9c0 0 1.66 6.64 6.63 3.32s5-21.56 5-21.56L598.14.03s14.93 8.3 11.61 23.22c0 0-3.32 10 3.32 6.64s31.51-9.95 31.51-9.95-14.92 8.29-10 8.29 19.91-3.32 26.54 3.32 6.67 10 6.67 10v6.63h-11.61s0 6.64 3.31 5 24.88 8.29 24.88 8.29l1.66 5-8.29 6.63s21.56 6.64 28.2 1.66c0 0-18.25 8.3-19.91 6.64s19.91 1.66 21.57 10 5 16.59 5 26.54c0 0-3.32 1.66 0 6.63s11.61 13.27 13.27 16.59 6.64 8.3 0 11.61-10 3.32-10 3.32l16.59 19.94-16.59-6.63s1.66 8.29 5 19.9 14.93 41.47 18.25 66.35 3.32 63 3.32 71.33 0 23.22-6.64 34.83-11.62 21.43-13.28 29.78-5 33.17-5 38.15-4.95-5.08-4.95-5.08z" fill="#232323"/><path d="M571.24 575.54l9-1 8-1c2.67.62 4.74 2.15 5 4s-1.25 3.26-3 5a19.22 19.22 0 0 1-6 4 151.14 151.14 0 0 1-31 14 142 142 0 0 1-47 7s-28.6-.75-43-12a31.11 31.11 0 0 1-5-5 27.44 27.44 0 0 1-2-3 15.77 15.77 0 0 1 4-2 16.57 16.57 0 0 1 10 0 284.69 284.69 0 0 0 101-10zm-97-506s-18 22-35 0-15-22-15-22-7 36 4 49c0 0 3 28-22 22l-24-6s16 32 32 32 49-46 60-75zm-135 93s10 28 55 9l45-19s-40 51-77 59-69 0-69 0 39-8 59-21c0 0-34-5-13-28zm170 38c-2 1 51-25 67 15s41 27 52 24c0 0-57 18-77-2a500 500 0 0 0-42-37zm71-42s36-21 57 9 50 16 50 16-42 16-68-14-39-11-39-11zm27-81s5-38 36-37c0 0-54-8-63 27s0 29 0 29zm-71-38s-10.69 2.81-13.08 14.34c-.8 3.85-.67 8.66 1.08 14.66 7 24 5 28 5 28s-40-38-45-49 14-23 14-23-12 10 1 23 10-12 26-16 33-1 33-1z" fill="#130f0e"/><path d="M584.24 582.82c-1 2-7 8-10 3 0 0-3.06 13-14 9.93-3 1-2-1-2-1s-7.06 12-16 5.92c0 0-6 11-23 3.89 0 0-8 8-23-.11 0 0-10 3-14-4.06 0 0-5 3-10-4l-3-3-3-8s5-6 13 .06l2 1s1-7 10 .05l4-1s12-2 19-.91l3 2s3-3 4-3 19-2.91 19-.91 1 2 1 2l3-3s8-4 10-3c2.23 1.12 4.17 3.81 4 4s-2-.88-2-2c0-.85 1.07-1.54 2-2l4-1s8-2 12-1.94 11.05 5.08 10 7.08z" fill="#cec2b4"/><path d="M347.24 507.54s6-83-1-143l6 143" fill="#0a0a0a"/><g fill="#14100f"><path d="M705.94 413.03s9.95 28.2 0 68-39.81 74.64-44.79 81.27-16.59 34.84-21.56 29.86-14.93-18.24-14.93-18.24l-13.42 5.6a47.24 47.24 0 0 1 3.47 29.24c-3.32 16.59-31.52 78-78 79.62s-78-16.59-92.89-48.11c0 0-8.29-23.22-8.29-29.85l-3.29-6.64h-6.64s-8.29 29.86-14.92 10-11.61-24.88-24.88-31.51-18.25-28.2-23.23-43.13S351 492.72 351 489.4v-9.95s-3.31 18.24-3.31 28.2 10 61.37 19.9 82.93 29.86 56.4 43.13 73 69.66 58 91.23 61.37 39.8 14.93 107.81-21.57c0 0 81.28-69.66 92.89-94.54s18.24-94.55 19.9-112.79-6.62-109.51-6.62-109.51z"/><path d="M628 585.54c-1.34-6.51-2.67-11.94-3.74-16-2.2-8.43-3.08-10.34-4.56-12.18-2.83-3.53-6.78-4.18-13-7.12-10.08-4.76-15.91-5.12-23.47-6.15-19.56-2.66-23.51 1.84-46 1.45-5.1-.09-9.11-.39-13.76 1.87-4.2 2-5.74 4.62-10.24 5.13-2.14.24-2.77-.24-8-1 0 0-2.91-2.36-10-1-15.4 3-18.27-1.57-43 4-12.93 2.91-19.49 4.46-24 9-4.92 5-9.59 13.62-8 22 1.3 6.83 5.4 6.27 6 13 .39 4.33-.75 10.8-.63 18.53 0 .64.08 2.52.93 2.88 1.43.61 4.05-2.88 4.05-2.88a65.49 65.49 0 0 0 5-19.9c.19-2.49.29-6.1 2.67-9.63 2-3 4.63-4.43 7.16-5.74 8.37-4.34 12.5-6.79 18.36-7.85 18.25-3.32 36.5-1.66 38.16-3.32a64.28 64.28 0 0 1 6.63-5l8.7-1.09a18.61 18.61 0 0 0 7 4 18.91 18.91 0 0 0 11 0c14.32-1 25.5-2.15 33-3 8.36-.94 14-1.72 21.59.11 4.7 1.14 11 2.67 16.41 7.89 3.11 3 3.58 5.06 10 12 4.55 4.94 6.49 6.27 11.74 0zm-131.06 56.41s38.15-3.31 51.42-3.31 17.88 31.9 17.88 31.9-21.2-18.64-31.15-17-23.22-3.31-26.54 5-11.61 18.25-11.61 18.25h-8.29s1.65-28.2 8.29-34.84z"/></g><path d="M548.36 524.18s1.1 0 1.4.64c.44.93-1.21 2.5-1.4 2.68-2.43 2.26-5.24.94-10.12 2a18 18 0 0 0-7 3 61.56 61.56 0 0 0-7.76 6.57c-.12.13-.35.37-.42.32-.3-.17 1.29-4.62 4.18-7.89 3.3-3.72 7.44-5 11-6a33.64 33.64 0 0 1 10.12-1.32zm9.88-23.64a40.07 40.07 0 0 1 4 10c.72 2.87 1.44 5.76 1 8.67-1.06 7.81-9.73 12.33-11.61 13.27a20 20 0 0 0 6.22-2.28c6.52-3.79 6.7-9.24 11.34-10.66 5.19-1.59 10.72 3.46 11 3 .17-.28-1.89-2.1-12-9a39.61 39.61 0 0 1-10-13zm-59.64 41.89c.46-.6-4.07-6-11.36-9.89-5.3-2.84-14.59-6.25-16.84-3.38-1.15 1.46-.57 4.68.84 5.38.93.46 2.12-.22 2.48-.4 5.89-3.02 24.06 9.4 24.88 8.29zm-32.36-35.89s-10 10-4 22-2 0-2 0-2-12-6-8-15 8-15 8 17-9 27-22z" fill="#bc907e"/><path d="M499.24 449.54a135.23 135.23 0 0 1-6 42c-2.88 9.13-6.34 16.42-3 24 3.43 7.79 12.94 13.35 17 11 1.77-1 2.92-3.78 2-15-1.37-16.82-4.71-20-6-31-2.41-20.5 7-28.74 1-50a64.57 64.57 0 0 0-2-6z" fill="#d8a595"/><path d="M540.07 394.8c2.62-2.62 19.9-13.26 34.83-16.58s14.93-6.64 33.17-9.95 48.11 5 53.08 8.29 3.32-1.66 0-6.64-18.24-14.89-24.91-16.58-54.74-3.32-73 8.29a85.74 85.74 0 0 1-18.24 3.32c-3.32 0-8.29 1.66-8.29 3.32s-1.66 6.63-1.66 6.63l-5-6.63v5l-5-3.32a53.43 53.43 0 0 0 1.76 11.59c1.64 6.63 11.6 14.92 13.26 13.26zm-69.67 0l-5-19.9-3.31 5s-6.64-10-6.64-8.3v6.64l-8.29-11.61v6.63s-49.76-11.61-64.69-8.29-23.23 8.27-24.86 16.57v8.29s1.63-3.29 11.63-3.29 56.39 1.66 64.69 3.32 26.54 8.29 29.85 8.29 6.62-3.35 6.62-3.35z" fill="#302624"/><g fill="#bc907e"><path d="M345.24 422.54c-3-5-7-10-10-12s-5 2 0 12 9 28 10 24 0-24 0-24zm388-8c0-6 17-38 19-41s7-14 9-11 1 39 0 46-2 10-2 9 0-23-5-23-11 3-12 7-9 13-9 13zm24 27c-.78-3.92-2 16-6 17a24.93 24.93 0 0 0-7 3s5 5 4 7 3 6 3 6 8-23 6-33zm-28 7c0 2-5 13-5 13s-6 7 0 5 8-7 9-9-4-9-4-9z"/><path d="M741.24 417.54c-3 5-10 8-10 10a29.3 29.3 0 0 0 2 9c1 2 3-7 5-6s7 0 6 0-3-13-3-13z"/></g><path d="M578.17 398.95s-10 19 7 24 25-14 19-24c0 0-4-3-6-3h-7c-2 0-10 1-10 1zm-156.93 8.59s-11 6-7 16 12 12 20 9 12-11 8-21l-3-2s-4-2-5-2-7-1-7-1h-4z" fill="#4c3120"/><path d="M561.24 422.54s18 2 25 2c0 0-29 1-35-1 0 0 0-3 8-11s20-25 55-14c0 0 14 11 23 14 0 0-18 3-23 6a36.64 36.64 0 0 1-9 4s16-8 19-10c0 0-3-3-11-8s-26-12-42 0c0 0-12 11-13 14s3 4 3 4zm-151 13s-6 1-18-8c0 0 12-18 28-19s28 5 36 14c0 0 5 2 4 5s-5 4-9 4-15 4-15 4 16-3 19-3 10-1 10-3-8-14-25-21-35 1-41 4-11 9-14 10l-3 1 4 1-3 3 5-1-2 3s12 7 24 6z" fill="#160e0b"/></svg>