<svg xmlns="http://www.w3.org/2000/svg" xmlns:xlink="http://www.w3.org/1999/xlink" viewBox="0 0 798 858.5" xmlns:v="https://vecta.io/nano"><style><![CDATA[.f{fill:#fc0}.g{fill:#02e2ac}.h{enable-background:new}.i{fill:#e2b815}.j{fill:#ffecab}.k{fill:#01e2ad}.l{fill:#00427e}.m{opacity:.4}.n{fill:#9ddcf9}.o{fill:#11bc92}.p{fill:#5932c4}.q{fill:#fcd2c5}.r{fill:#f4ccc1}.s{fill:#412da5}.t{fill:#e0bab3}]]></style><pattern y="858.5" width="108.3" height="109.6" patternUnits="userSpaceOnUse" id="A" viewBox="47.7 -219.4 108.3 109.6" overflow="visible"><use xlink:href="#F" class="l"/><use xlink:href="#G" class="h m n"/><use xlink:href="#H" class="l"/><use xlink:href="#I" class="h m n"/><use xlink:href="#J" class="l"/><use xlink:href="#K" class="h m n"/><use xlink:href="#L" class="l"/><use xlink:href="#M" class="h m n"/></pattern><pattern y="858.5" width="108.3" height="109.6" patternUnits="userSpaceOnUse" id="B" viewBox="47.7 -219.4 108.3 109.6" overflow="visible"><use xlink:href="#F" class="l"/><use xlink:href="#G" class="h m n"/><use xlink:href="#H" class="l"/><use xlink:href="#I" class="h m n"/><use xlink:href="#J" class="l"/><use xlink:href="#K" class="h m n"/><use xlink:href="#L" class="l"/><use xlink:href="#M" class="h m n"/></pattern><path d="M786 837.5l10 21h-86.3zm-778-59l-8 80h124.2l1.8-95-95-16s-21 13-23 31z" class="q"/><path d="M576 473.5s124 54 141 81 57 123 52 200c0 0 3 29 16 54s13 33 13 33l-65 17H112s9-29 5-83c0 0-99-33-109 3 0 0-5 5-2-11s9-17 11-57 1-39 8-64 28-113 58-143 188-59 188-59l29 44 276-15z" class="g"/><path d="M608.9 858.5s11.1-8 5.1-11c-3.4-1.6-5.5-5.2-5-9 0 0 4 2 5-1s-2-14-2-14-35 1-38-14c0 0 19 9 35 7s1-6 0-13 7-2 7-2 6-14 0-33-14-30-14-30l24 35c3 5 6 2 1-8s-29-54-32-74 24 47 30 45 4 5 3 10 2 13 4 8 6-11 6-22 4-41 8-39 5 8 3 12-3 26-3 26 12-23 10-38-11-15-10-32 14-66 21-53 11 32 7 48-11 34-11 41 1 10 5-2 6-15 6-15 7 4-29 81 5 21 8 19-18 38-19 40 7 1 16-10 8-5 6 0-14 24-10 25 18-2 14 1c-2.6 2.1-4.7 4.9-6 8 0 0 7-2 4 0-2.1 1.5-4.1 3.2-6 5 .9.8 1.9 1.5 3 2 2 1-1 3-1 3l-4.7 4h-40.4zM96 567.5s13 38 12 58-2 9-1 20 5 27-4 13-17-19-17-19l16 29c3 5-7 0-7 0l10 20c2 4-8 1-8 1s6 9 8 13 5 16 2 13-12-11-11-10 8 13 8 13h-7c3.4 2.9 6.5 6.3 9 10 4 6 5 26 6 31s5 16 5 16-8-62-6-96 7-32 8-41 21-57 21-57c-1.5 4.4-5.4 7.5-10 8-8 1-6-3-6 6s-5 32-7 36-7-4-7-21-14-43-14-43z" fill="#05c996"/><g stroke="#000" stroke-width=".2" stroke-miterlimit="10"><path d="M312.5 820.7l58-32.3-19.5-34.8-17.9 31.2-12.5 21.7 12.5-21.7 17.9-31.2-39.8.4 1.3 66.7h0 0z" class="f"/><path d="M368.2 723.5l-14 24.4 19.5 34.8-5.5-59.2z" class="g"/><path d="M370.5 788.4L351 753.6l-17.9 31.2 37.4 3.6z" class="i"/><path d="M314.5 748.3l39.7-.4 14-24.4-53.7 24.8z" class="g"/><path d="M333.1 784.8l17.9-31.2-39.7.4 21.8 30.8z" class="i"/><path d="M326.2 710.3L306 675.9l-56.8 34.4 56.8 34.5z" class="f"/><path d="M360.6 710.3h-28l-20.2 34.5 48.2-34.5z" class="g"/><path d="M306,744.8l20.2-34.5h-35.8L306,744.8z" class="i"/><path d="M312.5 675.9l20.2 34.5h28l-48.2-34.5z" class="g"/><path d="M290.4 710.3h35.8L306 675.9l-15.6 34.4z" class="i"/><g class="f"><path d="M351 667.1l-17.9-31.2-20.6-36-1.3 66.7z"/><path d="M351 667.1l19.5-34.9-58-32.3 20.6 36z"/></g><path d="M368.2 697.1l-14-24.4-39.7-.4 53.7 24.8z" class="g"/><path d="M311.2 666.6l39.7.4-17.9-31.2-21.8 30.8z" class="i"/><path d="M373.7 637.8l-19.5 34.8 14 24.4 5.5-59.2z" class="g"/><path d="M333.1 635.9l17.9 31.2 19.5-34.9-37.4 3.7z" class="i"/><path d="M439 599.9h0 0 0 0l-58 32.3 19.5 34.9 39.8-.5z" class="f"/><path d="M383.3 697.1l14-24.4-19.5-34.9 5.5 59.3z" class="g"/><path d="M381 632.2l19.5 34.9 17.9-31.2-37.4-3.7z" class="i"/><path d="M437 672.3l-39.7.4-14 24.4 53.7-24.8z" class="g"/><path d="M418.4 635.9l-17.9 31.2 39.7-.4-21.8-30.8z" class="i"/><path d="M502.3 710.3l-56.7-34.4-20.2 34.4h0 0 0 0l20.2 34.5z" class="f"/><path d="M390.9 710.3h28l20.2-34.4-48.2 34.4z" class="g"/><path d="M445.6 675.9l-20.2 34.5h35.8l-15.6-34.5z" class="i"/><path d="M439.1 744.8l-20.2-34.5h-28l48.2 34.5z" class="g"/><path d="M461.1 710.3h-35.8l20.2 34.5 15.6-34.5z" class="i"/><g class="f"><path d="M400.6 753.5l17.9 31.3 20.5 35.9 1.3-66.7z"/><path d="M400.5 753.6L381 788.4l58 32.3-20.6-35.9z"/></g><path d="M383.3 723.5l14 24.4 39.7.4-53.7-24.8z" class="g"/><path d="M440.3 754l-39.7-.4 17.9 31.2 21.8-30.8z" class="i"/><path d="M377.8 782.8l19.5-34.8-14-24.4-5.5 59.2z" class="g"/><path d="M418.4 784.8l-17.9-31.2-19.5 34.8 37.4-3.6z" class="i"/><path d="M351.7 701.2h0c.2 0 .4-.1.5-.1h.3l.5-.2.3-.1.4-.2c.1-.1.2-.1.3-.2l.3-.2.4-.3h0l.2-.2.3-.3c.1-.1.2-.2.2-.3.1-.1.2-.2.2-.3.1-.1.1-.2.2-.4 0-.1.1-.2.2-.3s.1-.3.1-.4.1-.2.1-.3h0v-.4-.7-.5-.3c0-.2-.1-.3-.1-.5l-.1-.2c0-.2-.1-.4-.2-.5h0l-40.4-88.8 56.1 79.6h0c.1.1.2.3.3.4s.1.2.2.2l.3.3.3.2c.1.1.2.1.3.2l.4.2.8.3h0l.3.1.5.1h.4.4.4.4l.4-.1.3-.1h0a.76.76 0 0 0 .4-.2c.1 0 .2-.1.3-.2s.2-.1.3-.2.3-.2.4-.3c.1 0 .1-.1.2-.1l.5-.4.1-.2c.1-.2.3-.3.4-.5h0l56.3-79.7-40.4 88.7c-.1.2-.2.5-.3.8v.1c-.1.2-.1.5-.1.7v.1.7.1c0 .2 0 .5.1.7v.1c0 .1.1.2.1.3s.1.3.1.4a.76.76 0 0 0 .2.4l.2.4c.1.1.2.2.2.3.1.1.1.2.2.3l.3.3c.1.1.1.2.2.2h0l.4.3c.1.1.2.1.2.2l.4.2.3.2c.1.1.2.1.3.1l.4.2h.3c.2 0 .3.1.5.1h0l96.5 9.1-96.5 9.1h0-.2l-.5.2-.2.1-.5.2-.2.1-.6.3h0c-.2.1-.4.3-.5.4l-.1.1-.1.1c-.1.1-.2.3-.4.4l-.1.2c-.1.2-.3.4-.4.6l-.3.6c0 .1-.1.1-.1.2 0 .2-.1.3-.2.5v.1.2c0 .2-.1.5-.1.7h0v.7.2c0 .2.1.3.1.5l.1.2c0 .2.1.4.2.5 0 .1 0 .1.1.2v.1l40.4 88.8-56.1-79.6h0c-.1-.1-.2-.3-.3-.4s-.1-.2-.2-.2l-.3-.3c-.2-.2-.4-.3-.6-.4-.1-.1-.2-.2-.4-.2-.1-.1-.2-.1-.3-.1-.1-.1-.3-.1-.5-.2h0l-.3-.1c-.2 0-.3-.1-.5-.1h-.4-.4-.4-.4l-.4.1c-.1 0-.2 0-.3.1h0-.1l-.6.3h-.1c-.2.1-.4.2-.6.4 0 0-.1 0-.1.1-.2.1-.4.3-.5.5v.1c-.2.2-.4.4-.5.6l-56.1 79.6 40.4-88.7h0c.1-.2.1-.4.2-.5 0-.1.1-.1.1-.2 0-.2.1-.3.1-.5v-.3-.5-.3-.4-.4h0c0-.1-.1-.2-.1-.3s-.1-.3-.1-.4-.1-.2-.2-.4c-.1-.1-.1-.2-.2-.3l-.2-.4c-.1-.1-.1-.2-.2-.3l-.3-.3c-.1-.1-.1-.2-.2-.2h0c-.1-.1-.3-.2-.4-.3-.1 0-.2-.1-.3-.2s-.2-.2-.4-.2l-.3-.2c-.1-.1-.2-.1-.3-.1a.76.76 0 0 1-.4-.2h-.3l-.5-.1h0l-96.5-9.1 96.1-9.6z" fill="#ffeea8"/><path d="M366.7 734.5h0c0-.2-.1-.4-.1-.5v-.3c0-.2-.1-.3-.2-.5 0-.1 0-.2-.1-.3l-.2-.4c0-.1-.1-.2-.2-.3s-.1-.2-.2-.3l-.3-.3h0l-.2-.2-.3-.3c-.1-.1-.2-.2-.3-.2s-.2-.2-.4-.2c-.1-.1-.2-.1-.4-.2-.1 0-.2-.1-.4-.2l-.4-.1-.3-.1h0l-.4-.1h-.7-.5-.3c-.2 0-.3.1-.5.1l-.2.1c-.2 0-.3.1-.5.2h0l-88.1 40.7 79-56.5h0c.1-.1.3-.2.4-.3l.2-.2.3-.3c.1-.1.2-.2.2-.3.1-.1.1-.2.2-.3s.1-.3.2-.4l.1-.3c.1-.2.1-.3.2-.5h0c0-.1 0-.2.1-.3 0-.2.1-.3.1-.5v-.4-.4-.4-.4c0-.2-.1-.3-.1-.4s0-.2-.1-.3h0a.76.76 0 0 0-.2-.4c0-.1-.1-.2-.1-.3s-.1-.2-.2-.3-.2-.3-.3-.4l-.1-.2c-.1-.2-.2-.3-.4-.5-.1 0-.1-.1-.1-.1-.1-.1-.3-.3-.5-.4h0l-79.1-56.5 88.1 40.7c.2.1.5.2.8.3h.1c.2.1.5.1.7.1h.1.7.1c.2 0 .4 0 .7-.1h.1l.3-.1.4-.1.4-.2.4-.2c.1-.1.2-.2.4-.2l.3-.2c.1-.1.2-.2.4-.3s.1-.1.2-.2h0c.1-.1.2-.3.3-.4 0-.1.1-.2.2-.3s.1-.3.2-.4l.2-.3c.1-.1.1-.2.1-.3.1-.1.1-.3.1-.4 0-.2 0-.2.1-.3s.1-.3.1-.5h0l9.1-97.2 9.1 97.2h0v.2c0 .2.1.4.1.5s0 .2.1.2c0 .2.1.3.2.5l.1.2.3.6h0c.1.2.3.4.4.5l.1.1.1.1.4.4.2.1c.4.3.8.6 1.2.7l.2.1c.2.1.3.1.5.2h.1.1c.2 0 .5.1.7.1h0 .7.2c.2 0 .3-.1.5-.1.1 0 .2 0 .2-.1.2 0 .4-.1.5-.2l.2-.1h0l88.1-40.7-79.2 56.4h0l-.4.3c-.1.1-.2.1-.2.2l-.3.3-.2.3c-.1.1-.1.2-.2.3 0 .1-.2.3-.2.4s-.1.2-.1.3c-.1.1-.1.3-.2.5h0c0 .1 0 .2-.1.3 0 .2-.1.3-.1.5v.4.4.4.4c0 .2.1.3.1.4s0 .2.1.3h0v.1l.3.6v.1c.1.2.2.4.4.6l.1.1c.1.2.3.4.5.5h.1c.2.2.4.4.6.5l79 56.5-88-40.6h0c-.2-.1-.4-.1-.5-.2l-.2-.1c-.2 0-.4-.1-.5-.1h-.3-.8-.4-.4 0l-.3.1c-.1 0-.3.1-.4.1-.1.1-.2.1-.4.2-.1 0-.2.1-.4.2l-.3.2-.3.2-.3.3c-.1.1-.2.1-.2.2h0l-.3.4c-.1.1-.1.2-.2.3a.76.76 0 0 0-.2.4l-.2.3c-.1.1-.1.2-.1.3s-.1.3-.1.4 0 .2-.1.3c0 .2-.1.3-.1.5h0l-9 97.2-9.5-96.9z" class="f"/><path d="M396.3 704.3a14.84 14.84 0 0 0-1.1-16.5c-4.9-6.5-14.2-7.7-20.7-2.8-1.6 1.2-2.9 2.7-3.9 4.4l-10.3 18.1 25.6 14.9 10.4-18.1z" class="g"/><path d="M360.3 707.5l-10.3 18c-4.1 7.1-1.7 16.2 5.4 20.3 7 4.1 16 1.7 20.1-5.3h0 0l.1-.1 10.3-18-25.6-14.9z" fill="#b3ffed"/><g class="o"><path d="M388.5 682.9c5.5 4.7 6.9 12.6 3.3 18.9l-10.3 18 4.4 2.5 10.3-18c4.1-7.1 1.7-16.3-5.5-20.4-.6-.3-1.4-.7-2.2-1h0z"/><path d="M381.5 719.8l-10.3 18c-1.7 3-4.5 5.3-7.8 6.5s-6.9 1.2-10.1 0c6.2 5.2 15.5 4.4 20.7-1.7.6-.7 1.1-1.4 1.5-2.1h0v-.1l10.3-18-4.3-2.6z"/></g><path d="M441.8 571.3l8.5 43.7 19.4-19.3z" class="j"/><path d="M501.1 619.5L484 640.8l36.4 16.2zm-166.2-29.9l-11 12.1 14.8 5.6z" class="f"/><path d="M287.8 571.3l-22.1 27.1h-23.2zm-55.3-37.5l18.8 28.2 17.3-31z" class="j"/><path d="M422.7 829.1L408 851.5h10.8zm-144.2-17.4l9.3 16.6L300 815zM237 825.5l2.2 10.5 3.3-2.2zm298.9-74L505 770.8l44.2 32.6z" class="f"/><path d="M517.1 694l-14.9 24 47-31.7z" class="k"/><path d="M217.1 713.7L191.6 741l4.5-23zm44.2-54.5l-10.7 7.5-4.2-3.5z" class="f"/><path d="M224.9 751.5V775l10-16.6zm-11.7-120.3l-21.6 48-16.4 7.1zm-29.9 197.4l-13.6 18.2-18.3-5.3z" class="j"/><path d="M396.7 548.7l-4.7 16 21.5-12.1z" class="o"/><path d="M567.3 833.5l-14.9 24 47-31.7z" class="f"/><path d="M612.6 692l-25.4 27.3 4.4-23z" class="j"/><path d="M708.8 630.5l-10.7 7.5-4.2-3.5z" class="o"/><path d="M696.5 660.8v23.5l10-16.6zm-87.8-51.3l-21.5 48-16.5 7.1z" class="f"/><path d="M591.9 759.9l-13.7 18.2-18.3-5.3z" class="o"/><path d="M557.1 599.3l-4.7 16 21.5-12.2z" class="j"/><path d="M559.9 512.5L536 530.7l3.1 18.8zm106.5 258.7l11.1 6.1v-10.2zm-417.3-87l-9.4 22.4-20.6-22.4zm-90.5 70.1L145.2 775l-3.8-16.9z" class="f"/><path d="M239.5 794.6l-14.6 17.1H237z" class="j"/><path d="M418.1 562l-12.9 12.8h24.9z" class="k"/><path d="M357 546.5l-18.3 10.2-50.9-22.5z" class="o"/><path d="M380.1 521.8l-1.4 9.2 14.5-10.9z" class="k"/><path d="M479.6 512.5l-15.9 36.2 27.3-26.1z" class="j"/><path d="M502.2 564.7l-3.6 24.9 13.5-14.8z" class="k"/><path d="M585.1 556.7l-17 11.7 25.7 13z" class="o"/><path d="M663 584.9l-13.7 19.7-5.8-15z" class="j"/><path d="M633.5 687l-11.2-7.8 11.2-6.2zm60.6 127.6l-16.7 3.9 26.9 7.5z" class="k"/><path d="M697 713l-23.9 25.6 26.7 19.9zM208.8 568.4l-6.4 24.8-10.8-24.1z" class="f"/><path d="M187.6 617.1l-4.1 4.5-5.4-4.5z" class="k"/><path d="M161.1 708.7l-6.2 9.3-16.2-21.2z" class="o"/><path d="M143.7 737.8l-7.4 6.6-17.9-3.4zm17.4 55.3l-11 10.7 21.3 10zM53.7 661l-10.8 9.4 8.7 7.5zm230.2-41.6l-5.4 11.8-13.4-14.1z" class="k"/><path d="M145.7 535.5l-4.8 28.3-19.1-18.1z" class="j"/><path d="M159.9 626l-14.1 32.5-19.9-16.3z" class="f"/><path d="M92.8 694.2L91.1 706H79.9z" class="k"/><path d="M49.9 712.3l13.3 14.5-23.9 8.3zm40.3 30.2l1.6 10.6-29-3.6z" class="j"/><path d="M478.5 793l-9 45 16-18zm274-75l-7 10h12zm-125-192l-5 23 31-7zm-562 55l-4 24-15 21zm126-76l-4 8 8-1z" class="o"/><path d="M261.5 796l-1 11 14-4zm-128-309l16 9 5-16zm-54 137l-10 4 8-13zm662 58l-8 10 18 1zm13 133l-21 17 4-20zm-240 11v12l19-10z" class="j"/><path d="M98.5 524l10 11-22 10zm110-49s-15 5-13 5 18 5 18 5l-5-10zm496 103l-3 15h8zm44 194l-15 11h15zm-535 60l-5 15 16-4z" class="f"/><path d="M191.5 767v8h13zm-119-116v16l9-4zm480 77l-3 12 14-1zm159 62l-2 13h16zm-25-240c-3 0-13 7-13 7l16 4-3-11zm-507-19l-4 15 35-13z" class="k"/></g><path d="M298 490.5s14 25 90 22 130-58 130-58l-46-154-179 91.3 5 98.7z" class="q"/><path d="M457 323.5s8-3 11 11c1.7 8.3 4.4 16.3 8 24l14-77-26 7-7 35z" fill="#e2bfb0"/><path d="M461 314.5s7 9 0 22-34 40-37 56-6 36-54 40-42 13-48 10-22-10-16-42 155-86 155-86z" class="r"/><path d="M239.5 162s-1 17 0 20 8 17 0 64c.4 5.9 1.1 11.8 2.1 17.6C243.5 276 265.5 374 265.5 374s44 16 66 0 129-105 161-80 38-142 38-142l-220-110-52 34-19 86z" class="q"/><path d="M239.5 170s5-11 5-27 17-64 29-72 15-7 16-8l2-2s19 21 51 25 92 50 97 58-3 37 1 44 9 18 8 26 23 36 23 36 1-5 7-8 6-4 6-4h-4l4-3-3-1 4-4h-3l5-4h-3l6-4-4 1 4-4h-3l5-5h-3l3-2-2-1 5-4-4 1s9-4 13-4h8s-16-1-18 0 1-3 4-4 9-8 19 4c0 0-6-13-18-7 0 0 5-7 14-1 0 0-5-5-10-5 0 0 18-3 20 14s-7 47-11 54-14 27-24 29-11 7-12 11-6 32-5 62 4 76 16 82-23 39-38 41-16 1-16 1 8 2 25-1 13-3 13-3-30 21-34 25c-2.1 2.2-4.5 4.2-7 6l10-4-4 5 7-3s-5 7-9 9c-2.9 1.3-5.9 2.3-9 3h14l9-2-5 3 9-2c2.7 0 5.4-.3 8-1 1.9-.6 3.6-1.7 5-3l-4 4s14-1 19-7l14-17s-4 13-8 16c0 0 3-1 6-7 0 0 5 12-16 21l12-3s-6 9-13 9c4.5.5 9.1-.6 13-3 0 0-12 7-18 6 0 0 9 11 40-1l4-2c2-1 11-11 11-11s-5 6-1 11l7 9s-5-5-5-9 1-4 1-4 5 3 10 2c4-.7 8-1 12-1l-8-2 17 2-6-3c-2.8-.9-5.3-2.6-7-5-3-4-3-7-3-7s20 10 27 16 7 7 7 7-1-11-5-17l10 11s-4-22-8-33l-4-11c6.2 6.6 13.3 12.3 21 17 12 7 14 10 14 18v8s4-8 2-14l3 6v4s3 0 1-7-3-24-3-28c0 0 14 5 20 6 3 .6 6 .9 9 1l-12-5s13 2 11 1-8-3-8-3l8 1-15-9s17 7 24 5 8-3 8-3-21 5-32-9l10 1s-21-4-31-31l-3-6c4 3.8 8.3 7.1 13 10 8 5 16 16 16 16s-6-14-19-23-48-83-48-148-4-120-20-176-44-79-54-87-86-40-140-23c0 0-16 5-20 8-2.1 1.5-4.1 3.2-6 5 0 0 1-11 10-14s13-4 13-4-15-1-26 11l3-8-7 11 2-8-8 16s3-15 6-20 10-7 10-7-16 0-20 27c0 0 0-3-2-9-1.1-3.4-2.5-6.8-4-10 0 0 2 8 3 13l-5-4s2 5 3 8-3 1-3 1l1 4-2-3 1 4-4-3 2 4-3-2 1 4-4-3 2 5-4-4 1 5c-2.3-2-5-3.4-8-4s-6-.9-9-1c0 0 11 3 12 4-2.6.6-5.4.6-8 0-2-.6-4-.9-6-1 0 0 6 2 7 5 .6 1.6-.3 3.4-1.9 4h-.1s-26 1-29 51-1 40-4 52 2 23 2 23z" class="p"/><g class="s"><path d="M347.5 56c.1 1 12 5 21 14s34 23 43 26c5.2 1.6 10 4.4 14 8 0 0-79-66-78-48zm-72.1 13.8s3.1-17.8-9.9-13.8-21 42-22 64l8.5-9s11.2-35.4 23.4-41.2zM460.5 113s4 11 18 22 20 20 20 20-18-39-38-42zm-12 7c-.8-.6 26 15 36 28s10 14 10 14-31-31-46-42zm4 10c1 0 25 22 33 28s12 7 12 7-19-5-24-12-21-23-21-23zm-73-88s32 15 46 30 40 35 40 35-21-13-26-17l19 18-19-15 14 17c3 4-25-22-32-31s-33-22-33-22 14 6 15 6-21-13-21-13l22 10s-13-9-25-18zm-51-4s15-3 22 0 20 11 20 11l-18-7 6 6s-6 0-16-4-14-6-14-6zm6 17s12 6 16 9c2.1 1.5 4.1 3.2 6 5 0 0-17-7-22-14zm-7-7s5-1 9 1 5 4 5 4-9 0-14-5zm56-26s16 0 21 3 11 7 11 7l-13-3a10.14 10.14 0 0 0 5 5c4 2 5 4 5 4s-12-5-16-7-13-9-13-9zm127 147l4 7s-10-4-11-6 0 2 0 2 8 8 11 9 7 6 7 6h-6s17 8 19 11 2 4 2 4-2-18-8-26-12-11-12-11l6 8-12-4zm-14 137s-1 7-3 11-2-4-2-4-1 7-2 8-4 1-3 22 13 41 24 51c0 0-3-25-2-33l1-8s-6 14-5 19l1 5c-3.8-4.4-5.7-10.2-5-16 1-10 2-49-4-55z"/><path d="M518.5 284c-.5 4.8.2 9.6 2 14l8 19s1-10-3-18-7-15-7-15zm-46.3 92.9l15.3 23.1c4 6 5 6 5 6s-5-1-7-4 13 28 13 28-11-10-13-15l-2-5s11 20 15 26 6 19 2 26-17 11-17 11 11-8 12-12c0 0-16 8-21 10-2.9 1.2-5.4 3.3-7 6 0 0 30-29 21-34s-13.6-24.2-16.3-66.1zm71.3 33.1s10 21 18 23 14 9 14 9-10-14-18-27l-8-13s13 29 12 28-18-20-18-20z"/></g><path d="M254.5 381s2 7-12 20-36 25-36 41v20s0-18 3-22 5-10 21-20 18-14 18-14-15 16-18 20c-1.9 2.5-3.5 5.2-5 8 0 0 13-14.9 22.9-21.3l1.1-.7 4-3s-26 41-30 59-6 29 3 44 24 15 24 15l-9-7s11 2 11 6c-.2 3.1-.9 6.1-2 9 0 0 9-10 6-13 5.5 1.8 11.5 1.8 17 0l12-4h-9l9-3-5 1s11-5 18-19 5-15 5-15 1.5-17.5-4.5-74.5c-2.8-26.9-44.5-26.5-44.5-26.5z" class="p"/><path d="M284.5 428s8 9 10 21 5 36 2 40c-1.9 2.5-3.5 5.2-5 8 0 0 3-14-2-27s-11-20-5-42zm-4-15s-11 13-6 38c0 0-14-20 6-38zm-16 64c-1 1-10 16 0 28s12-10 12-10-1 27-13 13 1-31 1-31zm-17 6s1 13-1 18c-1.1 2.8-2.4 5.5-4 8 0 0-4-5 5-26zm2-31s-4 13-9 20-14 16-10 27 8 14 8 14-16-11-12-24 13-16 23-37z" class="s"/><path d="M476 389.5s-2 5-10 7-48 12-46 56c0 0 2-41 39-51s17-12 17-12zm1 20s-53 75-51 99c0 0 5-23 19-42s36-45 36-45l-4-12z" class="p"/><path d="M278.5 302c-1.3-1.4-3.3-1.8-5-1-2 1-3.5 2.5-2 7 2 6.1 0 7 6 7s51-3 60-7-2-4-5-4-19-1-19-1l-35-1z" fill="#e8aaaa"/><path d="M277.5 301s.5 4.5 1.5 5.5 14 0 15-1 1 0 1 0 1.5 1.5 13.5.5l1-1s7 1 9 0 0-7 0-7-37-4-41 3zm8 14a2.81 2.81 0 0 1-.1-3.9l.1-.1c2-2 6.5.5 6.5.5l1.5-.5c4-.6 8-.6 12 0l1.5.5.5-.5h10l-1 2s-2 6-31 2z" fill="#f7eded"/><path d="M281.5 332s12-3 18 1 2 17 2 17l-1-3v7l-2-4v4l-4-6c.5 1.9-.3 4-2 5a12.73 12.73 0 0 0-4 4l2-5-4 4 2-3s-4 6-4 5v-5l-1 5-1-3-2 3v-4l-2 5 1-6-2 2 2-4-2 1s3-4 3-6-3 2-3 2l2-4s-3 5-3 4 4-8 4-8l-3 3c.8-2.1 1.8-4.1 3-6 2-3 1-5 1-5z" class="p"/><path d="M295.5 168s-1 7 11 8 28-7 47-6l22 1s-14-5-22-6-38 3-47 1-11 2-11 2zm-20-6s-11 4-21 7-15 1-15 5v5s18-3 25-3 15-3 14-6-3-8-3-8z" class="s"/><path d="M285.5 253s15-6 17-2-2 5-3 5-14 0-14-3z" class="t"/><path d="M315.5 245s3 7 1 10-12 2-12 2 7 7 13 1 9-7 12-5 10 7 10 7 3-7-5-13-13-11-16-12-10-7-10-7 1 9 2 11 5 6 5 6z" fill="#edc7be"/><path d="M494.5 226s5 9 5 13-2 12-4 14c-1.2 1.2-2.2 2.5-3 4 0 0 12-4 15-11 2.2-5.4 3.2-11.2 3-17 0-4-5-5-5-2s0 6-3 3-5-7-7-8-1 4-1 4z" class="t"/><path d="M444.5 337s0 17-4 20-63 54-95 62-64-23-64-23l163-59z" fill="#4f31ba"/><g class="p"><path d="M241.5 263s6.5 36.5 9.5 43.5 1.5 2.5 1.5 2.5 8 10 8 15 11 35 10 39 1 9 6 9 13-6 13-6v3l2-3-1 3 2-1v1l3-3 1 3 1-2 2 3s-1-4 0-2l3 6s19 0 42-32 41-40 54-50 29-33 34-45 6-10 8-14-2-11-2-11h3l-2-5 3 2-3-7 4 2-2-6 4 3-1-6 3 5v-5.8l10 7.8 18 27s-5 12-5 17v10c0 3 1 17 3 19 1.1 1 1.9 2.5 2 4l-3 1v4l-1-1 2 8-2-3v5l-1-2 1 5-1-2s-3 6-6 13-43.5 56.5-69 66c-25 9.3-44 20-60 21s-57 7-75-16-19-60-21-83c-1.2-14-.5-28.1 2-42z"/><path d="M252.5 315s-1-28 4-32 11-12 13-14 5-5 8-3 2 7 7 7 7-5 10-6 2-4 23 9 26 8 33 25c4 9.4 7.3 19.1 10 29l-7 13s-3-36-16-45-31-15-35-15c-3.7.1-7.4.5-11 1-2.3-.6-4.6-.9-7-1-3 0-16 2-18 6s-6 30-6 44l-8-18zM467 166.5s24 19 29 20c2.4.4 4.8 1.1 7 2 0 0 2 1-4 3s-4 6-13 2-17-8-19-27zm-6 4s0 16 9 23 16 12 16 12-31-6-25-35z"/></g><use xlink:href="#N" fill="#1b196d"/><pattern id="C" xlink:href="#A" patternTransform="matrix(1 0 0 1 -155.7 16372.8271)"/><use xlink:href="#N" opacity=".51" fill="url(#C)" class="h"/><use xlink:href="#O" class="q"/><path d="M323.5 202s3 7 8 11 8 4 8 4c-1.2-1.9-2.2-3.9-3-6l-1-3c4.3.7 8.6 1.1 13 1 8 0 0-4-3-6s-11 1-17-5-5 4-5 4z" fill="#f9ccc0"/><use xlink:href="#P" fill="#00033a"/><path d="M330.6 185.5l-.4-1.7c-.2-.4-.3-.9-.4-1.4.2-1.3 4.7-1.8 4.9-1.8 5.2-.5 7.9-.8 11.8.2 6.6 1.7 7.8 4.8 17.3 8.1 1.4.5 2.6.8 3.4 1.1-.6.7-1.1 1.4-1.7 2-1.6.5-3.2 1-4.9 1.3-4.3.9-8.7 1.4-13.1 1.5 0 0 13.9-1.6 15.1-3.7-1.3-1-10.4-8.1-18.7-9.1-2.6-.3-5.2-.1-7.7.6-2 .6-3.9 1.6-5.6 2.9z" fill="#04004f"/><path d="M239.5 182s4 14 4 21-3.8 42.3-3.8 42.3 10 4.2 16.9-1l7.2-18.1 9.5-20.3-.8-16.8-33-7.1z" class="q"/><path d="M283.5 180s-5 22-9 29-17.5 35.5-8.5 43.5c0 0-16.5-3.5 2.5-37.5l4-7s5-9 11-28z" class="r"/><use xlink:href="#P" x="-84.5" y="8.4" fill="#00033a"/><path d="M245.8 194.8c5.5-3.9 9.8-4.5 12.7-4.3 5.2.4 11.9 3.7 11.9 3.7h0c.5.3.8.7 1.1 1.2.4.9.4 1.8 0 2.7-.5 1.6-1.4 3-2.7 4.1l5.9-6.3c-3.7-3.7-8.5-6.1-13.7-6.8-4.3-.5-8.1.8-10.3 1.4-2.7.8-5.2 2-7.6 3.4.2.8.6 1.6 1.1 2.3.1.2.2.3.3.5.1.3 0 .6-.1.8.5-.9 1-1.8 1.4-2.7z" fill="#04004f"/><use xlink:href="#Q" fill="#1b196d"/><pattern id="D" xlink:href="#B" patternTransform="matrix(1 0 0 1 -155.7 16372.8271)"/><use xlink:href="#Q" opacity=".51" fill="url(#D)" class="h"/><path d="M269.5 202c-.2-1-4 6-9 6s-6 1-6 1 2 3 8 1 8-2 7-8z" fill="#f9ccc0"/><g fill="#35f9f9" class="h"><use xlink:href="#O" opacity=".18"/><path d="M208.5 192s8-11 34-8 29 8 29 8 .1 15.7-1.9 20.3-10.1 28.7-10.1 28.7-3 4-7 4-23 1-26-1-9 0-14-18-5-18-4-34z" opacity=".18"/></g><path d="M510.5 208s2 4 4 15c1.2 6.6 1.2 13.4 0 20 0 0 5-10 4-21s-2-25-8-14zm-1 45c-1 0-15 11-15 11s8-5 7-1c-.5 1.6-.8 3.3-1 5 1.1-2.2 2.4-4.2 4-6 2-2 5-9 5-9z" class="t"/><path d="M272 310.5s8 11 66-3c0 0-25 16-40 16s-34.1-2.2-26-13zm-1-5s3-5 14-7 37.1 8.3 55 6.2c0 0-36-12.2-43-12.2s-28-1-26 13z" fill="#f9cac0"/><path d="M466 162.5s.3 4 1.2 5.5 21.8 21.5 28.8 21.5 7.3-.3 7.3-.3c1-1 2.4-1.2 3.7-.7.9.5 1.9.9 3 1 0 0 2 1-2-2s-2 0-8-3-15-3-34-22z" fill="#4f31ba"/><path d="M461 193.5c-.5-.8 3 11 12 13s12 2 12 2c-9.8-1.2-18.6-6.7-24-15zm14 0s7 9 9 9h5s-6 0-14-9z" class="p"/><path d="M266.6 250.8s5.6 3.6 8.1 3.9l2.6.3s-10.6 2.1-10.7-4.2z" class="r"/><defs ><path id="F" d="M135.2-75.1c0-.1.1-.2.3-.2 12.9-.1 24.8-3.3 34-11.5-8 5.6-22.9 7.5-31.5 3.6-.1-.1-.2-.2-.1-.3 0-.1.1-.2.3-.2 10.7.3 19.3-3 26-9-6.9-.4-12.6-4.7-12.6-9.8 0-.1.1-.2.2-.3.1 0 .2 0 .3.1 1.1 2.5 4.8 3.8 8.6 2.9 4.2-1 7-4.2 6.3-7.2-.5-2-2.4-3.4-4.9-3.8-.1 0-.2-.1-.2-.3 0-.1.1-.2.2-.2 1.1-.1 2.2-.1 3.3 0 6.5.6 11.5 4.6 12 9.2 4.7-.6 8.9-3.2 10.4-6.8 0-.1.2-.2.3-.2s.2.1.2.2c.4 4.8-1.3 7.8-5 10.9 5.6-2.2 11.8-2 17.3.5.1 0 .2.2.1.3 0 .1-.1.2-.2.2-4.4 0-8.7 1.8-11.7 5.1 18.3-5.1 33.1 6.2 28 23.1 0 .1-.1.2-.3.2-.1 0-.2-.1-.2-.2-.9-9.7-7.7-16.1-17.9-17.1 6.6 2.4 11.2 8.5 11.6 15.5 0 .1-.1.2-.2.3-.1 0-.2 0-.3-.1-2.5-5.6-8-9.4-14.2-9.8 6.3 2.6 10.4 8.6 11.6 16.4 0 .1-.1.2-.2.3-.1 0-.2 0-.3-.1-3.9-7.6-12.2-12.8-22.4-8.8-10.6 4.1-15.3 16.4-16.3 25 0 .1-.1.2-.2.2s-.2-.1-.3-.2c-3.7-15.7 3.6-31.9 16.6-38.8-7.1 2-13.4 6.3-17 13.4-8.3 1-14 3.9-16.9 9.2-.1.1-.2.2-.3.1-.1 0-.2-.1-.2-.3.2-2.1.9-6.3 4.1-8.3-7 0-12.5-.9-17.8-3-.4 0-.5-.1-.5-.2zm29.5 53.5c-.1-.1-.3-.1-.3.1-.1.1-.1.2 0 .3 1.6 2.8.1 6.8-3 6.8-5.7 0-8.5-10.8-7.6-20.6 2.2 5.8 4 8 7.3 10.8.1.1.2.1.3 0s.1-.2.1-.3c-4.1-7.3-6.1-15.7-5.9-24.1 1.5 6 3.2 9.3 8.1 14.4.1.1.2.1.3 0s.1-.2.1-.3c-4.9-10.8-5.3-23.2-1-34.3 0-.1 0-.2-.1-.3s-.2-.1-.3 0c-5.2 2.6-8.3 4.2-12.8 10.4 1.4 7.4.2 11.1-3.2 17.2 3.9-9.9 1.8-23.9-8.2-29.6-.1-.1-.2 0-.3.1s-.1.2 0 .3c4.6 4.8 6.2 11.6 4.2 17.9 1.5-10.4-7.6-19.1-17.8-19.1-9.6 0-16.2 7.5-15.6 14.9s5.4 11 9.7 12.5c.1 0 .2 0 .3-.1s.1-.2 0-.3c-5.6-5.7-6.4-16.5 3.6-19.8-5.9 5.1-3.7 16.8 5.7 17.7.1 0 .2-.1.3-.2 0-.1 0-.2-.1-.3-2.2-1.4-3.6-3.9-3.7-6.6 0-4.7 3.4-6.5 5.7-6.5 3.4 0 6.3 3.3 6.3 8.2 0 5.8-5.3 10.7-12 11.4-6.7.8-12.8-2.1-15.8-6.5-.1-.1-.2-.1-.3-.1s-.2.2-.1.3c2.3 9.2 11.7 14.7 20.8 12.4 2.2-.6 4.2-1.5 6-2.9-6.6 7.5-17 7.6-25.7-.1-.1-.1-.2-.1-.3 0s-.1.2-.1.3c2.7 5.4 9.3 11.8 18.6 10.9 8.6-.9 13.5-9 14.5-15.7.6 8.5-1.4 14.5-8.8 20.1-.1.1-.1.3 0 .4s.2.1.2.1c6.8-2 12.2-5.4 15-12.6 0 6.2-2.1 12.4-7.5 16.5-.1.1-.1.2-.1.3.1.1.2.2.3.1 3.4-1 6.2-2.5 8.1-5.2C150.9-11.6 156.1-5 162.1-5c4.1 0 7.2-3 7.2-7.9.1-3.3-1.6-6.7-4.6-8.7zm99.2-91.7c-3.2-3.9-9.5-5.4-16.4-4 .5-3.9-.1-7.9-1.6-11.5-.1-.1-.2-.2-.3-.1-.1 0-.2.1-.2.3.4 8.8-4.6 15.8-13.4 18.9 6.9-4.7 8.9-14.2 5.6-19.1-.1-.1-.2-.1-.3-.1s-.2.2-.1.3c.4 2.1-.6 4.7-2.7 6.7-2.9 2.8-6.9 3.4-8.8 1.4s-1.2-6 1.7-8.8a9.49 9.49 0 0 1 3.4-2.2c.1 0 .2-.2.2-.3s-.1-.2-.2-.2c-6.4-.6-10.8 3.3-13.5 7.9s-7.6 8.4-13.2 7.7c-.1 0-.2.1-.3.2 0 .1 0 .2.1.3 2.9 1.9 6.6 2.3 9.9 1.1-5.8 4.9-14.1 7.7-21.8 5.2-.1 0-.2 0-.3.1s-.1.2 0 .3c5.9 6.6 17.7 6.7 25.1 1.4-3 4.3-7.1 7.5-14.3 8.5-.1 0-.2.1-.2.2s.1.2.2.3c8.3 3.1 16.6 0 23.4-8.2-2.8 6.5-8.2 11.5-14.8 14-.1 0-.2.2-.2.3s.1.2.3.2c3.9.1 7.5-.9 12.3-3.6-3.5 5.7-2.7 15.6 2.4 22.3.1.1.2.1.3.1s.2-.2.1-.3c-1.2-7.2 1.3-15.3 5.6-19.6-2.3 7.1.1 14.9 5.9 19.6.1.1.2.1.3.1s.2-.1.2-.2c1.2-9.4 11.8-19 20.6-19.8.1 0 .3-.1.3-.3 0-.1-.1-.3-.3-.3-4.1-.9-8.5-.6-12.4 1 2.6-2.9 5.9-5.1 9.6-6.3.1 0 .2-.2.2-.3s-.1-.2-.2-.2c-4.5-.3-9 1-12.7 3.5 4.5-6.9 11.5-11.7 19.5-13.5.1 0 .2-.2.2-.3h0c0-.1-.1-.2-.2-.2-11.9-1.3-21.8 3.3-28.2 11.9 1.6-4.9 6.4-9.8 12.9-12.6 5.9-2.5 11.9-2.9 16.4-1.5.1 0 .2 0 .3-.1-.3 0-.3-.1-.4-.2h0zM211-37.7c4.8-10.5 4.5-18.7.6-29-.1-.1-.2-.2-.3-.1-.1 0-.2.1-.2.2.6 12.6-2.8 21.6-10.3 27.8 8.3-9.9 4.4-29.6-8.8-29.6-9.6 0-17.5 8-19.4 17.5 0 .1 0 .2.2.3.1 0 .2 0 .3-.1 2.9-4.8 7.4-7.9 12.5-7.9 8.1 0 10.5 6.5 10.5 11 0 6.2-4.9 11.3-8.7 11.3-2.7 0-5-2.2-5-4.9v-.1c.2-3.8 2.7-7.1 6.4-8.2.1 0 .2-.2.2-.3s-.1-.2-.3-.2c-4-.1-7.8 2-9.6 5.6-.4-2.6-.2-5.2.6-7.7 0-.1 0-.2-.1-.3s-.2 0-.3.1c-7.4 9.4-3.8 25.6 2 32.3-5.5-4-10.4-12.6-10.3-24.4 0-.1-.1-.2-.2-.3-.1 0-.2 0-.3.1-4.1 10.3-1.9 29.3 9.3 39.9-3.1.5-6.2.2-9.1-.7-.1 0-.2 0-.3.1s0 .2.1.3c4.1 3.5 9.8 4.5 15.3 4.5-4.7-5.5-3.1-16.6 4.4-16.6 5.4 0 7.8 8.3 3.6 12.8-.1.1-.1.2 0 .3s.2.1.3.1c4.8-1.6 9.9-5.8 9.9-11 0-5-4.8-9.4-11.8-9.1 8.8-2.5 18 .3 22.9 6.3.1.1.2.1.3.1.1-.1.2-.2.1-.3-2.8-10.7-12-15.2-23.4-13.7 9.3-3.8 23.3-.5 29.4 7.3.1.1.2.1.3.1.1-.1.2-.2.1-.3-1.7-6.3-5.2-11.2-10.9-13.2h0z"/><path id="G" d="M237.4-57c0 .1-.1.2-.3.2-12.9.1-24.8 3.3-34 11.5 8-5.6 22.9-7.5 31.5-3.6.1.1.2.2.1.3 0 .1-.1.2-.3.2-10.7-.3-19.3 3-26 9 6.9.4 12.6 4.7 12.6 9.8 0 .1-.1.2-.2.3-.1 0-.1-.1-.2-.2-1.1-2.5-4.8-3.8-8.6-2.9-4.2 1-7 4.2-6.3 7.2.5 2 2.4 3.4 5 3.8.1 0 .2.1.2.3 0 .1-.1.2-.2.3-1.1.1-2.2.1-3.3 0-6.5-.6-11.5-4.6-11.9-9.2-4.7.6-8.9 3.2-10.4 6.8 0 .1-.2.2-.3.2s-.2-.1-.2-.2c-.4-4.8 1.3-7.8 5-10.9-5.6 2.2-11.8 2-17.3-.5-.1-.1-.2-.2-.1-.3 0-.1.1-.2.2-.2 4.4 0 8.7-1.8 11.7-5.1-18.3 5.1-33.1-6.2-28-23.1 0-.1.1-.2.3-.2.1 0 .2.1.2.2.9 9.7 7.7 16.1 17.9 17.1-6.6-2.4-11.2-8.5-11.6-15.5 0-.1.1-.3.2-.3s.2.1.3.2c2.6 5.6 8 9.4 14.2 9.8-6.3-2.6-10.4-8.6-11.6-16.4 0-.1.1-.2.2-.3.1 0 .2 0 .3.1 3.9 7.6 12.2 12.8 22.4 8.8 10.6-4.1 15.3-16.4 16.3-25 0-.1.1-.2.2-.2s.2.1.3.2c3.7 15.7-3.6 31.9-16.6 38.8 7.1-2 13.4-6.3 17-13.4 8.3-1 14-3.9 16.9-9.2.1-.1.2-.2.3-.1.1 0 .2.1.2.3-.2 2.1-.9 6.3-4.1 8.3 7 0 12.5.9 17.8 3 .2 0 .2 0 .2.1zm-29.5-53.4c.1.1.2.1.3 0s.1-.2 0-.3c-1.6-2.8-.1-6.8 3.1-6.8 5.7 0 8.5 10.8 7.6 20.6-2.2-5.8-4-8-7.4-10.8-.1-.1-.2-.1-.3 0s-.1.2-.1.3c4.1 7.3 6.1 15.7 5.9 24.1-1.5-6-3.2-9.3-8.1-14.4-.1-.1-.2-.1-.3 0s-.1.2-.1.3c4.9 10.8 5.3 23.2.9 34.3 0 .1 0 .2.1.3s.2.1.3 0c5.2-2.6 8.3-4.2 12.8-10.4-1.4-7.4-.2-11.1 3.2-17.2-3.9 9.9-1.8 23.9 8.2 29.6.1.1.2 0 .3-.1s.1-.2 0-.3c-4.6-4.8-6.2-11.6-4.2-17.9-1.5 10.4 7.6 19.1 17.8 19.1 9.6 0 16.2-7.5 15.6-14.9-.5-7.4-5.4-11-9.7-12.5-.1 0-.2 0-.3.1s-.1.2 0 .3c5.6 5.7 6.4 16.5-3.6 19.8 5.9-5 3.7-16.8-5.7-17.7-.1 0-.2.1-.3.2 0 .1 0 .2.1.3 2.2 1.4 3.6 3.9 3.7 6.6 0 4.7-3.4 6.5-5.7 6.5-3.4 0-6.3-3.3-6.3-8.2 0-5.8 5.3-10.7 12-11.4s12.8 2.1 15.8 6.5c.1.1.2.1.3.1s.2-.2.1-.3c-2.3-9.2-11.7-14.7-20.9-12.4-2.1.5-4.2 1.5-6 2.8 6.6-7.5 17-7.6 25.7.1.1.1.2.1.3 0s.1-.2.1-.3c-2.7-5.4-9.3-11.8-18.6-10.9-8.6.9-13.5 9-14.5 15.7-.6-8.5 1.4-14.5 8.8-20.1.1-.1.1-.2.1-.3-.1-.1-.2-.2-.3-.1-6.8 2-12.2 5.4-15 12.5 0-6.2 2.1-12.4 7.5-16.5.1-.1.1-.2.1-.3-.1-.1-.2-.2-.3-.1-3.5 1-6.2 2.5-8.1 5.2-1.3-11.1-6.5-17.7-12.5-17.7-4.1 0-7.2 3-7.2 7.9.1 3.2 1.9 6.6 4.8 8.7zm-99.2 91.6c3.2 3.9 9.5 5.4 16.4 4-.5 3.9.1 7.9 1.6 11.5.1.1.2.2.3.1.1 0 .2-.1.2-.3-.4-8.8 4.6-15.8 13.4-18.9-6.9 4.7-8.9 14.2-5.6 19.1.1.1.2.2.3.1s.2-.2.1-.3c-.4-2.1.6-4.7 2.7-6.7 2.9-2.8 6.8-3.4 8.8-1.4s1.2 6-1.7 8.8c-1 1-2.2 1.7-3.4 2.2-.1.1-.1.2-.1.3s.1.2.2.2c6.4.6 10.8-3.3 13.5-7.9s7.6-8.4 13.2-7.7c.1 0 .2-.1.3-.2 0-.1 0-.2-.1-.3-2.9-1.9-6.6-2.3-9.9-1.1 5.8-4.9 14-7.7 21.8-5.2.1 0 .2 0 .3-.1s.1-.2 0-.3c-5.9-6.6-17.7-6.7-25.1-1.4 3-4.3 7.1-7.5 14.3-8.5.1 0 .2-.1.2-.2s-.1-.2-.2-.3c-8.3-3.1-16.6 0-23.4 8.2 2.8-6.5 8.2-11.5 14.8-14 .1 0 .2-.2.2-.3s-.1-.2-.3-.2c-3.9-.1-7.5.9-12.3 3.6 3.5-5.7 2.7-15.6-2.4-22.3-.1-.1-.2-.1-.3-.1-.1.1-.2.2-.1.3 1.2 7.2-1.3 15.3-5.6 19.6 2.3-7.1-.1-14.9-5.9-19.6-.1-.1-.2-.1-.3-.1s-.1.1-.2.2c-1.2 9.4-11.8 19-20.6 19.8-.1 0-.3.1-.3.3s.1.3.3.3c4.1.9 8.5.6 12.4-1-2.6 2.9-5.9 5-9.6 6.2-.1 0-.2.2-.2.3s.1.2.2.2c4.5.3 9-1 12.7-3.5-4.5 6.9-11.4 11.7-19.4 13.5-.1 0-.2.1-.2.3 0 .1.1.2.2.2 11.9 1.3 21.7-3.3 28.2-11.9-1.6 4.9-6.4 9.8-12.9 12.6-5.8 2.5-11.8 2.9-16.4 1.5-.1 0-.3 0-.3.2.1 0 .1.1.2.2h0zm52.9-75.6c-4.8 10.5-4.5 18.7-.6 29 0 .1.2.2.3.2s.2-.1.2-.3c-.6-12.6 2.8-21.6 10.3-27.8-8.3 9.9-4.3 29.6 8.8 29.6 9.6 0 17.5-8 19.4-17.5 0-.1 0-.2-.2-.3-.1 0-.2 0-.3.1-2.8 4.8-7.4 7.9-12.4 7.9-8.1 0-10.5-6.5-10.5-11 0-6.2 4.9-11.3 8.7-11.3 2.7 0 5 2.1 5 4.9v.1c-.2 3.8-2.7 7.1-6.4 8.2-.1 0-.2.2-.2.3s.1.2.3.2c4 .1 7.8-2 9.6-5.6.4 2.6.2 5.2-.6 7.7 0 .1 0 .2.1.3s.2 0 .3-.1c7.4-9.4 3.8-25.6-2-32.3 5.5 4 10.4 12.6 10.3 24.4 0 .1.1.3.3.2.1 0 .2-.1.2-.1 4.1-10.3 1.9-29.2-9.3-39.9 3.1-.5 6.2-.2 9.1.7.1 0 .2 0 .3-.1s0-.2-.1-.3c-4.1-3.4-9.8-4.5-15.3-4.5 4.7 5.5 3.1 16.5-4.4 16.5-5.4 0-7.8-8.3-3.6-12.8.1-.1.1-.2 0-.3s-.2-.1-.3-.1c-4.8 1.7-9.9 5.8-9.9 11 0 5 4.8 9.4 11.8 9-8.8 2.5-18.1-.3-22.9-6.3-.1-.1-.2-.1-.3-.1-.1.1-.2.2-.1.3 2.8 10.7 12 15.2 23.4 13.7-9.3 3.8-23.3.5-29.4-7.3-.1-.1-.2-.1-.3-.1-.1.1-.2.2-.1.3 1.5 6.6 5 11.5 10.8 13.5h0z"/><path id="H" d="M26.8-75.1c0-.1.1-.2.3-.2 12.9-.1 24.8-3.3 34-11.5-8 5.6-22.9 7.5-31.5 3.6-.1-.1-.2-.2-.1-.3 0-.1.1-.2.3-.2 10.7.3 19.3-3 26-9-6.9-.4-12.6-4.7-12.6-9.8 0-.1.1-.2.2-.3.1 0 .2 0 .3.1 1.1 2.5 4.8 3.8 8.6 2.9 4.2-1 7-4.2 6.3-7.2-.5-2-2.4-3.4-5-3.8-.1 0-.2-.1-.2-.3 0-.1.1-.2.2-.2 1.1-.1 2.2-.1 3.3 0 6.5.6 11.5 4.6 12 9.2 4.7-.6 8.9-3.2 10.4-6.8 0-.1.2-.2.3-.2s.2.1.2.2c.4 4.8-1.3 7.8-5 10.9 5.6-2.2 11.8-2 17.3.5.1 0 .2.2.2.3s-.1.2-.2.2c-4.4 0-8.7 1.8-11.7 5.1 18.3-5.1 33.1 6.2 28 23.1 0 .1-.1.2-.3.2-.1 0-.2-.1-.2-.2-.9-9.7-7.7-16.1-17.9-17.1 6.6 2.4 11.2 8.5 11.6 15.5 0 .1-.1.3-.2.3s-.2-.1-.3-.2c-2.6-5.6-8-9.4-14.2-9.8 6.3 2.6 10.4 8.6 11.6 16.4 0 .1-.1.2-.2.3s-.3.1-.4 0c0 0 0-.1-.1-.1-3.9-7.6-12.2-12.8-22.5-8.8C64.7-68.2 60-55.9 59-47.3c0 .1-.1.2-.2.2s-.2-.1-.3-.2c-3.8-15.6 3.6-31.9 16.6-38.8-7.1 2-13.4 6.3-17 13.4-8.3 1-14 3.9-16.9 9.2-.1.1-.2.2-.3.1-.1 0-.2-.1-.2-.3.2-2.1.9-6.3 4.1-8.3-7 0-12.5-.9-17.8-3-.1.1-.2 0-.2-.1zm29.5 53.5c-.1-.1-.2-.1-.3 0s-.1.2-.1.3c1.6 2.8.1 6.8-3 6.8-5.7 0-8.5-10.8-7.6-20.6 2.2 5.8 4 8 7.3 10.8.1.1.2.1.3 0s.1-.2.1-.3c-4.1-7.3-6.1-15.7-5.9-24.1 1.5 6 3.2 9.3 8.1 14.4.1.1.2.1.3 0s.1-.2.1-.3c-4.9-10.8-5.3-23.2-1-34.3 0-.1 0-.2-.1-.3s-.2-.1-.3 0C49-66.6 45.9-65 41.4-58.8c1.4 7.4.2 11.1-3.2 17.2 3.9-9.9 1.8-23.9-8.2-29.6-.1-.1-.2 0-.3.1s-.1.2 0 .3c4.6 4.8 6.2 11.6 4.2 17.9C35.4-63.3 26.3-72 16.1-72 6.5-72 0-64.5.5-57.1s5.4 11 9.7 12.5c.1 0 .2 0 .3-.1s.1-.2 0-.3c-5.6-5.7-6.4-16.5 3.6-19.8-5.9 5.1-3.7 16.8 5.7 17.7.1 0 .2-.1.3-.2 0-.1 0-.2-.1-.3-2.2-1.4-3.6-3.9-3.7-6.6 0-4.7 3.4-6.5 5.7-6.5 3.4 0 6.3 3.3 6.3 8.2 0 5.8-5.3 10.7-12 11.4S3.5-43.2.5-47.6c-.1-.1-.2-.1-.3-.1s-.2.2-.1.3C2.4-38.2 11.8-32.7 20.9-35c2.2-.6 4.2-1.5 6.1-2.9-6.6 7.5-17 7.6-25.7-.1-.1-.1-.2-.1-.3 0s-.1.2-.1.3c2.7 5.7 9.3 12.1 18.7 11.1 8.6-.9 13.5-9 14.5-15.7.5 8.5-1.4 14.5-8.8 20.1-.1.1-.1.2-.1.3.1.1.2.2.3.1 6.8-2 12.2-5.4 15-12.6 0 6.2-2.1 12.4-7.5 16.5-.1.1-.1.2-.1.3.1.1.2.2.3.1 3.5-1 6.2-2.5 8.1-5.2C42.6-11.6 47.8-5 53.8-5c4.1 0 7.2-3 7.2-7.9.1-3.3-1.7-6.7-4.7-8.7zm99.3-91.7c-3.2-3.9-9.5-5.4-16.4-4 .5-3.9-.1-7.9-1.6-11.5-.1-.1-.2-.2-.3-.1-.1 0-.2.1-.2.3.4 8.8-4.6 15.8-13.4 18.9 6.9-4.7 8.9-14.2 5.6-19.1-.1-.1-.2-.2-.3-.1s-.2.2-.1.3c.4 2.1-.6 4.7-2.7 6.7-2.9 2.8-6.8 3.4-8.8 1.4s-1.2-6 1.7-8.8c1-1 2.2-1.7 3.4-2.2.1 0 .2-.2.2-.3s-.1-.2-.2-.2c-6.4-.6-10.8 3.3-13.5 7.9s-7.6 8.4-13.2 7.7c-.1 0-.2.1-.3.2 0 .1 0 .2.1.3 2.9 1.9 6.6 2.3 9.9 1.1-5.8 4.9-14 7.7-21.8 5.2-.1 0-.2 0-.3.1s-.1.2 0 .3c5.9 6.6 17.7 6.7 25.1 1.4-3 4.3-7.1 7.5-14.3 8.5-.1 0-.2.1-.2.2s.1.2.2.3c8.3 3.1 16.6 0 23.4-8.2-2.8 6.5-8.2 11.5-14.8 14-.1 0-.2.2-.2.3s.1.2.3.2c3.9.1 7.5-.9 12.3-3.6-3.5 5.7-2.7 15.6 2.4 22.3.1.1.2.1.3.1.1-.1.2-.2.1-.3-1.2-7.2 1.3-15.3 5.6-19.6-2.3 7.1.1 14.9 5.9 19.6.1.1.2.1.3.1s.1-.1.2-.2c1.2-9.4 11.8-19 20.6-19.8.1 0 .2-.1.2-.2s-.1-.2-.2-.3c-4.1-.9-8.5-.6-12.4 1 2.6-2.9 5.9-5.1 9.6-6.3.1 0 .2-.1.2-.3 0-.1-.1-.2-.2-.2-4.5-.3-9 1-12.7 3.6 4.5-6.9 11.4-11.7 19.4-13.5.1 0 .2-.1.2-.3 0-.1-.1-.2-.2-.2-11.9-1.3-21.8 3.3-28.2 11.9 1.7-4.9 6.4-9.8 12.9-12.6 5.8-2.5 11.8-2.9 16.4-1.5.1 0 .2 0 .3-.1-.3-.1-.3-.3-.3-.4zm-52.9 75.6c4.8-10.5 4.5-18.7.6-29 0-.1-.2-.2-.3-.2s-.2.1-.2.3C103.4-54 100-45 92.5-38.8c8.3-9.9 4.3-29.6-8.8-29.6-9.6 0-17.5 8-19.5 17.5 0 .1 0 .2.2.3.1 0 .2 0 .3-.1 2.8-4.8 7.4-7.9 12.4-7.9 8.1 0 10.5 6.5 10.5 11 0 6.2-4.9 11.3-8.7 11.3-2.7 0-5-2.1-5-4.9v-.1c.1-3.8 2.7-7.1 6.4-8.2.1 0 .2-.2.2-.3s-.1-.2-.3-.2c-4-.1-7.8 2-9.6 5.6-.4-2.6-.2-5.2.6-7.7 0-.1 0-.2-.1-.3s-.2 0-.3.1c-7.4 9.4-3.8 25.6 2 32.3-5.5-4-10.4-12.6-10.3-24.4 0-.1-.1-.2-.2-.3-.1 0-.2 0-.3.1-4.2 10.2-2 29.2 9.2 39.8-3.1.5-6.2.2-9.1-.7-.1 0-.2 0-.3.1s0 .2.1.3C66-1.6 71.7-.6 77.2-.6c-4.7-5.5-3.1-16.6 4.4-16.6 5.3 0 7.8 8.3 3.7 12.8-.1.1-.1.2 0 .3s.2.1.3.1c4.8-1.6 9.9-5.8 9.9-11 0-5-4.8-9.4-11.8-9.1 8.8-2.5 18 .3 22.9 6.3.1.1.2.1.3.1.1-.1.2-.2.1-.3-2.8-10.7-12-15.2-23.4-13.7 9.3-3.8 23.3-.5 29.4 7.3.1.1.2.1.3.1.1-.1.2-.2.1-.3-1.5-6.2-5-11.1-10.7-13.1z"/><path id="I" d="M129-57c0 .1-.1.2-.3.2-12.9.1-24.7 3.3-34 11.5 8-5.6 22.9-7.5 31.5-3.6.1 0 .2.2.1.3 0 .1-.1.2-.3.2-10.7-.3-19.3 3-26 9 6.9.4 12.6 4.7 12.6 9.8 0 .1-.1.3-.3.2-.1 0-.2-.1-.2-.1-1.1-2.5-4.8-3.8-8.6-2.9-4.2 1-7 4.2-6.3 7.2.5 2 2.4 3.4 5 3.8.1 0 .3.1.3.3s-.1.3-.3.3c-1.1.1-2.2.1-3.3 0-6.5-.6-11.5-4.6-12-9.2-4.7.6-8.9 3.2-10.4 6.8 0 .1-.2.2-.3.2s-.2-.1-.2-.2c-.4-4.8 1.3-7.8 5-10.9-5.6 2.2-11.8 2-17.3-.5-.1-.1-.2-.2-.1-.4 0-.1.1-.1.2-.1 4.4 0 8.7-1.8 11.7-5.1-18.2 5.1-33.1-6.2-27.9-23.1 0-.1.1-.2.3-.2.1 0 .2.1.2.2.9 9.7 7.7 16.1 17.9 17.1-6.6-2.4-11.2-8.5-11.6-15.5 0-.1.1-.2.2-.3.1 0 .2 0 .3.1 2.5 5.6 8 9.4 14.2 9.8-6.3-2.6-10.4-8.6-11.6-16.4 0-.1.1-.2.2-.3.1 0 .2 0 .3.1 3.9 7.6 12.2 12.8 22.5 8.8 10.6-4.1 15.3-16.4 16.3-25 0-.1.1-.2.2-.2s.2.1.3.2C101-69.2 93.7-53 80.7-46.1c7.1-2 13.4-6.3 17-13.4 8.3-1 14-3.9 16.9-9.2.1-.1.2-.2.3-.1.1 0 .2.1.2.3-.2 2.1-.9 6.3-4.1 8.3 7 0 12.5.9 17.8 3 .2 0 .3.1.2.2zm-29.4-53.4c.1.1.2.1.3 0s.1-.2 0-.3c-1.6-2.8-.1-6.8 3-6.8 5.7 0 8.5 10.8 7.6 20.6-2.2-5.8-4-8-7.3-10.8-.1-.1-.2-.1-.3 0s-.1.2-.1.3a47.16 47.16 0 0 1 6 24.1c-1.5-6-3.2-9.3-8.1-14.4-.1-.1-.2-.1-.3 0s-.1.2-.1.3c4.9 10.8 5.3 23.2 1 34.3 0 .1 0 .2.1.3s.2.1.3 0c5.2-2.5 8.2-4.2 12.7-10.4-1.4-7.4-.2-11.1 3.2-17.2-3.9 9.9-1.8 23.9 8.2 29.6.1.1.2 0 .3-.1s.1-.2 0-.3c-4.6-4.7-6.2-11.6-4.2-17.9-1.5 10.4 7.6 19.1 17.8 19.1 9.6 0 16.2-7.5 15.6-14.9-.5-7.4-5.4-11-9.7-12.5-.1 0-.2 0-.3.1s-.1.2 0 .3c5.6 5.7 6.4 16.5-3.6 19.8 5.9-5 3.7-16.8-5.7-17.7-.1 0-.2.1-.3.2 0 .1 0 .2.1.3 2.2 1.4 3.6 3.9 3.7 6.6 0 4.7-3.4 6.5-5.7 6.5-3.4 0-6.3-3.3-6.3-8.2 0-5.8 5.3-10.7 12-11.4 6.7-.8 12.8 2.1 15.8 6.5.1.1.2.1.3.1s.2-.2.1-.3c-2.3-9.2-11.7-14.7-20.9-12.4-2.1.5-4.2 1.5-5.9 2.8 6.6-7.5 17-7.6 25.7.1.1.1.2.1.3 0s.1-.2.1-.3c-2.7-5.4-9.3-11.8-18.6-10.9-8.6.9-13.5 9-14.5 15.7-.6-8.5 1.4-14.5 8.7-20.1.1-.1.1-.3 0-.4s-.2-.1-.2-.1c-6.8 2-12.2 5.4-15 12.5 0-6.2 2.1-12.4 7.5-16.5.1-.1.1-.2.1-.3-.1-.1-.2-.2-.3-.1-3.4 1-6.2 2.5-8.1 5.2-1.3-11.1-6.5-17.7-12.5-17.7-4.1 0-7.2 3-7.2 7.9-.1 3.3 1.7 6.7 4.7 8.8zM.3-18.8c3.2 3.9 9.5 5.4 16.4 4-.5 3.9.1 7.9 1.6 11.5.1.1.2.2.3.1.1 0 .2-.1.2-.3-.4-8.8 4.6-15.8 13.5-18.9-6.9 4.8-8.9 14.2-5.6 19.1.1.1.2.1.3.1s.2-.2.1-.3c-.4-2.1.6-4.7 2.7-6.7 2.9-2.8 6.9-3.4 8.8-1.4 2 2 1.2 6-1.7 8.8-1 1-2.2 1.7-3.5 2.2-.1 0-.2.2-.2.3s.1.2.2.2C39.8.5 44.2-3.4 46.9-8s7.6-8.4 13.2-7.7c.1 0 .2-.1.3-.2 0-.1 0-.2-.1-.3-2.9-1.9-6.6-2.3-9.9-1.1 5.8-4.9 14.1-7.7 21.8-5.2.1 0 .2 0 .3-.1s.1-.2 0-.3c-5.9-6.6-17.7-6.7-25.1-1.4 3-4.3 7.1-7.5 14.3-8.5.1 0 .2-.1.2-.2s-.1-.2-.2-.3c-8.3-3.1-16.6 0-23.4 8.2 2.8-6.5 8.2-11.5 14.8-14 .1 0 .2-.2.2-.3s-.1-.2-.3-.2c-3.9-.1-7.5.9-12.3 3.6 3.5-5.7 2.7-15.6-2.4-22.3-.1-.1-.2-.1-.3-.1s-.2.2-.1.3c1.2 7.2-1.3 15.3-5.6 19.6 2.3-7.1-.1-14.9-5.9-19.6-.1-.1-.2-.1-.3-.1s-.2.1-.2.2c-1.2 9.4-11.8 19-20.6 19.8-.1 0-.2.1-.2.2s.1.2.2.3c4.1.9 8.5.6 12.4-1a20.84 20.84 0 0 1-9.6 6.1c-.1 0-.2.2-.2.3s.1.2.2.2c4.5.3 9-1 12.7-3.5-4.5 6.9-11.4 11.7-19.4 13.5-.1 0-.2.1-.2.3 0 .1.1.2.2.2 11.9 1.3 21.8-3.3 28.2-11.9-1.6 4.9-6.4 9.8-12.9 12.6C10.9-18.4 4.9-18 .3-19.4c-.1 0-.2 0-.3.1.2.3.2.4.3.5zm52.9-75.6c-4.8 10.5-4.5 18.7-.6 29.1.1.1.2.2.3.1.1 0 .2-.1.2-.2C52.5-78 55.9-87 63.4-93.2c-8.3 9.9-4.3 29.6 8.8 29.6 9.6 0 17.5-8 19.4-17.5 0-.1 0-.2-.2-.3-.1 0-.2 0-.3.1-2.8 4.8-7.4 7.9-12.5 7.9-8.1 0-10.5-6.5-10.5-11 0-6.2 4.9-11.3 8.7-11.3a4.85 4.85 0 0 1 5 4.8v.1c-.2 3.8-2.7 7.1-6.4 8.2-.1 0-.2.2-.2.3s.1.2.3.2c4 .1 7.8-2 9.6-5.6.4 2.6.2 5.2-.6 7.7 0 .1 0 .2.1.3s.2 0 .3-.1c7.4-9.4 3.8-25.6-2-32.3 5.5 4 10.4 12.6 10.3 24.4 0 .1.1.2.2.3.1 0 .2 0 .3-.1 4.1-10.3 1.9-29.2-9.3-39.9 3.1-.5 6.2-.2 9.1.7.1 0 .2 0 .3-.1s0-.2-.1-.3c-4.1-3.4-9.8-4.5-15.3-4.5 4.7 5.5 3.1 16.5-4.4 16.5-5.3 0-7.8-8.3-3.6-12.8.1-.1.1-.2 0-.3s-.2-.1-.3-.1c-4.8 1.7-9.9 5.8-9.9 11 0 5 4.8 9.4 11.8 9-8.8 2.5-18-.3-22.9-6.3-.1-.1-.2-.1-.3-.1-.1.1-.2.2-.1.3 2.8 10.7 12 15.2 23.4 13.7-9.3 3.8-23.3.5-29.4-7.3-.1-.1-.2-.1-.3-.1-.1.1-.2.2-.1.3 1.7 6.5 5.2 11.4 10.9 13.4z"/><path id="J" d="M135.2-184.8c0-.1.1-.2.3-.2 12.9-.1 24.8-3.3 34-11.5-8 5.6-22.9 7.5-31.5 3.6-.1 0-.2-.2-.2-.3s.1-.2.3-.2c10.7.3 19.3-3 26-9-6.9-.4-12.6-4.7-12.6-9.8 0-.1.1-.2.2-.3.1 0 .2 0 .3.1 1.1 2.5 4.8 3.8 8.6 2.9 4.2-1 7-4.2 6.3-7.2-.5-2-2.4-3.4-4.9-3.8-.1 0-.2-.1-.2-.3 0-.1.1-.2.2-.2 1.1-.1 2.2-.1 3.3 0 6.5.6 11.5 4.6 12 9.2 4.7-.6 8.9-3.2 10.4-6.8.1-.1.2-.2.3-.1.1 0 .1.1.1.2.4 4.8-1.3 7.8-5 10.9 5.6-2.2 11.8-2 17.3.5.1 0 .2.2.1.3 0 .1-.1.2-.2.2-4.4 0-8.7 1.8-11.7 5.1 18.3-5.1 33.1 6.2 28 23 0 .1-.1.2-.3.2-.1 0-.2-.1-.2-.2-.9-9.7-7.7-16.1-17.9-17.1 6.6 2.4 11.2 8.5 11.6 15.5 0 .1-.1.2-.2.3-.1 0-.2 0-.3-.1-2.5-5.6-8-9.4-14.2-9.8 6.3 2.6 10.4 8.6 11.6 16.4 0 .1-.1.2-.2.3-.1 0-.2 0-.3-.1-3.9-7.6-12.2-12.8-22.4-8.8-10.6 4.1-15.3 16.4-16.3 25 0 .1-.1.2-.2.2s-.2-.1-.3-.2c-3.8-15.6 3.5-31.9 16.6-38.8-7.1 2-13.4 6.3-17 13.3-8.3 1-14 3.9-16.9 9.2-.1.1-.2.2-.3.1-.1 0-.2-.1-.2-.3.2-2.1.9-6.3 4.1-8.3-7 0-12.5-.9-17.8-3-.3.2-.3.1-.3-.1zm29.5 53.5c-.1-.1-.3-.1-.3.1-.1.1-.1.2 0 .3 1.6 2.8.1 6.8-3 6.8-5.7 0-8.5-10.8-7.6-20.6 2.2 5.8 4 8.1 7.3 10.8.1.1.2.1.3 0s.1-.2.1-.3c-4.1-7.3-6.1-15.7-5.9-24.1 1.5 6 3.2 9.3 8.1 14.4.1.1.2.1.3 0s.1-.2.1-.3c-4.9-10.8-5.3-23.2-1-34.3 0-.1 0-.2-.1-.3s-.2-.1-.3 0c-5.2 2.6-8.3 4.2-12.8 10.4 1.4 7.4.2 11-3.2 17.2 3.9-9.9 1.8-23.9-8.2-29.6-.1-.1-.2 0-.3.1s-.1.2 0 .3c4.6 4.8 6.2 11.7 4.1 18 1.5-10.4-7.6-19.2-17.8-19.2-9.6 0-16.2 7.5-15.6 14.9.5 7.4 5.4 11 9.7 12.5.1 0 .2 0 .3-.1s.1-.2 0-.3c-5.6-5.7-6.4-16.5 3.6-19.8-5.9 5.1-3.7 16.8 5.6 17.7.1 0 .2-.1.3-.2 0-.1 0-.2-.1-.3-2.2-1.4-3.6-3.9-3.7-6.6 0-4.7 3.4-6.5 5.7-6.5 3.4 0 6.3 3.3 6.3 8.2 0 5.8-5.3 10.7-12 11.4-6.7.8-12.8-2.2-15.8-6.5-.1-.1-.2-.1-.3-.1-.1.1-.2.2-.1.3 2.3 9.2 11.7 14.7 20.8 12.4 2.2-.6 4.2-1.5 6-2.9-6.6 7.5-17 7.6-25.7-.1-.1-.1-.2-.1-.3 0s-.1.2-.1.3c2.7 5.4 9.3 11.8 18.6 10.9 8.6-.9 13.5-9 14.5-15.7.6 8.5-1.4 14.5-8.8 20.1-.1.1-.1.3 0 .4s.2.1.2.1c6.8-2 12.2-5.4 15-12.6 0 6.2-2.1 12.4-7.5 16.5-.1.1-.1.2-.1.3.1.1.2.2.3.1 3.4-1 6.2-2.5 8.1-5.2 1.3 11.1 6.5 17.7 12.5 17.7 4.1 0 7.2-3 7.2-7.9.3-3.2-1.5-6.6-4.4-8.7zm99.2-91.6c-3.2-3.9-9.5-5.4-16.4-4 .5-3.9-.1-7.9-1.6-11.5-.1-.1-.2-.2-.3-.1-.1 0-.2.1-.2.3.3 8.8-4.7 15.8-13.5 18.9 6.9-4.8 8.9-14.2 5.6-19.1-.1-.1-.2-.1-.3-.1s-.2.2-.1.3c.4 2.1-.6 4.7-2.7 6.7-2.9 2.8-6.9 3.4-8.8 1.4s-1.2-6 1.7-8.8a9.49 9.49 0 0 1 3.4-2.2c.1 0 .2-.2.2-.3s-.1-.2-.2-.2c-6.4-.5-10.8 3.3-13.5 7.9s-7.6 8.4-13.2 7.7c-.1 0-.2.1-.3.2 0 .1 0 .2.1.3 2.9 1.9 6.6 2.2 9.9 1-5.8 5-14 7.8-21.8 5.3-.1 0-.2 0-.3.1s-.1.2 0 .3c5.9 6.6 17.7 6.7 25.1 1.4-3 4.3-7.1 7.5-14.3 8.5-.1 0-.2.1-.2.2s.1.2.2.3c8.3 3.1 16.6 0 23.4-8.2-2.8 6.5-8.2 11.5-14.8 14-.1 0-.2.2-.2.3s.1.2.3.2c3.9.1 7.5-.9 12.3-3.6-3.5 5.7-2.7 15.7 2.4 22.3.1.1.2.1.3.1s.2-.2.1-.3c-1.2-7.2 1.3-15.3 5.6-19.6-2.3 7.1.1 14.9 5.9 19.6h.3c.1 0 .1-.1.2-.2 1.2-9.4 11.8-19 20.6-19.8.1 0 .2-.1.2-.2s-.1-.2-.2-.3c-4.1-.9-8.5-.6-12.4 1 2.6-2.9 5.9-5.1 9.6-6.3.1 0 .2-.2.2-.3s-.1-.2-.2-.2c-4.5-.3-9 1-12.7 3.5 4.5-6.8 11.4-11.7 19.4-13.5.1 0 .2-.1.2-.3 0-.1-.1-.2-.2-.2-11.9-1.3-21.8 3.3-28.2 11.9 1.6-4.9 6.4-9.8 12.9-12.6 5.9-2.6 11.9-3 16.4-1.5.1 0 .2 0 .3-.1-.1 0-.1-.1-.2-.2zM211-147.3c4.8-10.5 4.5-18.7.6-29.1-.1-.1-.2-.2-.3-.2s-.2.1-.2.3c.6 12.6-2.8 21.7-10.3 27.8 8.3-9.8 4.4-29.6-8.8-29.6-9.6 0-17.5 8-19.4 17.5 0 .1 0 .2.2.3.1 0 .2 0 .3-.1 2.9-4.8 7.4-7.8 12.5-7.8 8.1 0 10.5 6.5 10.5 11 0 6.2-4.9 11.3-8.7 11.3-2.7 0-5-2.2-5-4.9.1-3.8 2.7-7.1 6.4-8.2.1 0 .2-.2.2-.3s-.1-.2-.3-.2c-4-.1-7.8 2-9.6 5.6-.4-2.6-.2-5.2.6-7.7 0-.1 0-.2-.1-.3s-.2 0-.3.1c-7.4 9.4-3.8 25.6 2 32.4-5.6-4-10.5-12.6-10.5-24.4 0-.1-.1-.2-.2-.3-.1 0-.2 0-.3.2-4.1 10.3-1.9 29.3 9.3 39.8-3.1.5-6.2.2-9.1-.7-.1 0-.2 0-.3.1s0 .2.1.3c4.1 3.4 9.8 4.5 15.3 4.5-4.7-5.5-3.1-16.6 4.4-16.6 5.4 0 7.8 8.3 3.6 12.8-.1.1-.1.2 0 .3s.2.1.3.1c4.8-1.7 9.9-5.8 9.9-11 0-5-4.8-9.4-11.8-9.1 8.8-2.5 18 .3 22.9 6.3.1.1.2.1.3.1.1-.1.2-.2.1-.3-2.8-10.7-12-15.2-23.4-13.7 9.3-3.8 23.3-.5 29.4 7.3.1.1.2.1.3.1.1-.1.2-.2.1-.3-1.5-6.5-5-11.5-10.7-13.4z"/><path id="K" d="M237.4-166.6c0 .1-.1.2-.3.2-12.9.1-24.8 3.3-34 11.5 8-5.6 22.9-7.5 31.5-3.6.1.1.2.2.1.3 0 .1-.1.2-.3.2-10.7-.3-19.3 3-26 9 6.9.4 12.6 4.7 12.6 9.8 0 .1-.1.2-.2.3-.1 0-.2 0-.3-.2-1.1-2.5-4.8-3.8-8.6-2.9-4.2 1-7 4.2-6.3 7.2.5 2 2.4 3.4 5 3.8.1 0 .2.1.2.3 0 .1-.1.2-.2.3-1.1.1-2.2.1-3.3 0-6.5-.6-11.5-4.6-11.9-9.2-4.7.5-8.9 3.2-10.4 6.8 0 .1-.2.2-.3.2s-.2-.1-.2-.3c-.4-4.8 1.3-7.8 5-10.8-5.6 2.2-11.9 2-17.3-.6-.1 0-.2-.2-.1-.3 0-.1.1-.2.2-.2 4.4 0 8.7-1.9 11.7-5.1-18.3 5.1-33.1-6.2-28-23.1 0-.1.1-.2.3-.2.1 0 .2.1.2.2.9 9.7 7.7 16.1 17.9 17.1-6.6-2.4-11.2-8.5-11.5-15.5 0-.1.1-.3.2-.3s.2.1.3.2c2.6 5.6 8 9.4 14.2 9.8-6.3-2.6-10.4-8.6-11.6-16.4 0-.1.1-.2.2-.3.1 0 .2 0 .3.1 3.9 7.6 12.2 12.8 22.4 8.9 10.6-4.1 15.3-16.4 16.3-25 0-.1.1-.3.3-.3s.3.1.3.3c3.7 15.7-3.6 32-16.6 38.8 7.1-2 13.4-6.3 17-13.4 8.3-1 14-3.9 16.9-9.2.1-.1.2-.2.3-.1.1 0 .2.1.2.3-.2 2.1-.9 6.3-4.1 8.3 6.1-.2 12.1.8 17.8 3 0-.1.1 0 .1.1zm-29.5-53.5c.1.1.2.1.3 0s.1-.2 0-.3c-1.6-2.8-.1-6.8 3.1-6.8 5.7 0 8.5 10.8 7.6 20.6-2.2-5.8-4-8-7.4-10.8-.1-.1-.2-.1-.3 0s-.1.2-.1.3c4.1 7.3 6.1 15.7 5.9 24.1-1.5-6-3.2-9.3-8.1-14.4-.1-.1-.2-.1-.3 0s-.1.2-.1.3c4.9 10.8 5.3 23.2.9 34.3-.1.1 0 .3.1.3h.2c5.2-2.5 8.3-4.2 12.8-10.4-1.4-7.4-.2-11 3.2-17.2-3.9 9.9-1.8 23.9 8.2 29.6.1.1.2 0 .3-.1s.1-.2 0-.3c-4.6-4.8-6.2-11.6-4.2-17.9-1.5 10.4 7.7 19.1 17.8 19.1 9.6 0 16.2-7.5 15.6-14.9-.5-7.4-5.4-11-9.7-12.5-.1 0-.2 0-.3.1s-.1.2 0 .3c5.6 5.7 6.4 16.5-3.6 19.8 5.9-5 3.7-16.8-5.7-17.7-.1 0-.2.1-.3.2 0 .1 0 .2.1.3 2.2 1.4 3.6 3.9 3.7 6.6 0 4.7-3.4 6.5-5.7 6.5-3.4 0-6.3-3.3-6.3-8.2 0-5.8 5.3-10.7 12-11.4s12.8 2.2 15.8 6.5c.1.1.2.1.3.1s.2-.2.1-.3c-2.3-9.2-11.6-14.7-20.8-12.4-2.2.6-4.3 1.5-6.1 2.9 6.6-7.5 17-7.6 25.7.1.1.1.2.1.3 0s.1-.2.1-.3c-2.7-5.4-9.3-11.8-18.6-10.9-8.6.9-13.5 9-14.5 15.7-.6-8.5 1.4-14.5 8.8-20.1.1-.1.1-.2.1-.3-.1-.1-.2-.2-.3-.1-6.8 2-12.2 5.4-15 12.5 0-6.2 2.1-12.4 7.5-16.5.1-.1.1-.2.1-.3s-.2-.2-.3-.1c-3.5 1-6.2 2.5-8.1 5.2-1.3-11.1-6.5-17.7-12.5-17.7-4.1 0-7.2 3-7.2 7.9.2 3.2 2 6.5 4.9 8.6zm-99.2 91.7c3.2 3.9 9.5 5.4 16.4 4-.5 3.9.1 7.8 1.6 11.4.1.1.2.2.4.1.1 0 .1-.1.1-.2-.4-8.8 4.6-15.8 13.4-18.9-6.9 4.8-8.9 14.2-5.6 19.1.1.1.2.2.3.1s.2-.2.1-.3c-.4-2.1.6-4.7 2.7-6.7 2.9-2.8 6.8-3.5 8.8-1.4 2 2 1.2 5.9-1.7 8.8-1 1-2.2 1.7-3.4 2.2-.1 0-.2.2-.2.3s.1.2.2.2c6.4.6 10.8-3.3 13.5-7.9s7.6-8.4 13.2-7.7c.1 0 .2-.1.3-.2 0-.1 0-.2-.1-.3-2.9-1.9-6.6-2.3-9.9-1.1 5.8-4.9 14-7.7 21.8-5.2.1 0 .2 0 .3-.1s.1-.2 0-.3c-5.9-6.6-17.7-6.7-25.1-1.4 3-4.3 7.1-7.5 14.3-8.5.1 0 .2-.1.2-.2s-.1-.2-.2-.3c-8.3-3.1-16.6 0-23.4 8.2 2.8-6.5 8.2-11.5 14.8-14 .1 0 .2-.2.2-.3s-.1-.2-.3-.2c-3.9-.1-7.5.9-12.3 3.6 3.5-5.7 2.7-15.6-2.4-22.3-.1-.1-.2-.1-.3-.1-.1.1-.2.2-.1.3 1.2 7.2-1.3 15.3-5.6 19.6 2.3-7.1-.1-14.9-5.9-19.7h-.3c-.1 0-.1.1-.2.2-1.2 9.4-11.8 19-20.6 19.8-.1 0-.2.1-.2.2s.1.2.2.3c4.1.9 8.5.6 12.4-1-2.6 2.9-5.9 5-9.6 6.2-.1 0-.2.1-.2.3 0 .1.1.2.2.2 4.5.3 9-1 12.7-3.5-4.5 6.9-11.5 11.7-19.4 13.5-.1 0-.2.1-.2.3 0 .1.1.2.2.2 11.9 1.3 21.7-3.3 28.2-11.9-1.6 4.9-6.4 9.8-12.9 12.6-5.8 2.5-11.8 2.9-16.4 1.5-.1 0-.2 0-.3.1.2.1.2.3.3.4zm52.9-75.6c-4.8 10.5-4.5 18.7-.6 29 0 .1.2.2.3.2s.2-.1.2-.3c-.6-12.6 2.8-21.6 10.3-27.8-8.3 9.9-4.3 29.6 8.8 29.6 9.6 0 17.5-8 19.4-17.5 0-.1 0-.2-.2-.3-.1 0-.2 0-.3.1-2.8 4.8-7.4 7.8-12.4 7.8-8.1 0-10.5-6.5-10.5-11 0-6.2 4.9-11.3 8.7-11.3 2.7 0 5 2.1 5 4.9v.1c-.2 3.8-2.7 7.1-6.4 8.1-.1 0-.2.2-.2.3s.1.2.3.2c4 .1 7.8-2 9.6-5.6.4 2.6.2 5.2-.6 7.7 0 .1 0 .2.1.3s.2 0 .3-.1c7.4-9.4 3.8-25.6-2-32.4 5.5 4 10.4 12.6 10.3 24.4 0 .1.1.2.2.3.1 0 .2 0 .3-.2 4.1-10.3 1.9-29.2-9.3-39.8 3.1-.5 6.2-.2 9.1.7.1 0 .2 0 .3-.1s0-.2-.1-.3c-4.1-3.5-9.8-4.5-15.3-4.5 4.7 5.5 3.1 16.5-4.4 16.5-5.4 0-7.8-8.3-3.6-12.8.1-.1.1-.2 0-.3s-.2-.1-.3-.1c-4.8 1.6-9.9 5.8-9.9 11 0 5.1 4.8 9.4 11.8 9.1-8.8 2.5-18.1-.3-22.9-6.3-.1-.1-.2-.1-.3 0s-.2.2-.1.3c2.8 10.7 12 15.2 23.4 13.7-9.3 3.8-23.3.5-29.4-7.3-.1-.1-.2-.1-.3-.1-.1.1-.2.2-.1.3 1.5 6.6 5 11.5 10.8 13.5h0z"/><path id="L" d="M26.8-184.8c0-.1.1-.2.3-.2 12.9-.1 24.8-3.3 34-11.5-8 5.6-22.9 7.5-31.5 3.6-.1-.1-.2-.2-.1-.3 0-.1.1-.2.3-.2 10.7.3 19.3-3 26-9-6.9-.4-12.6-4.7-12.6-9.8 0-.1.1-.2.2-.3.1 0 .2 0 .3.1 1.1 2.5 4.7 3.8 8.6 2.9 4.2-1 7-4.2 6.3-7.2-.5-2-2.4-3.4-5-3.8-.1 0-.2-.1-.2-.3 0-.1.1-.2.2-.2 1.1-.1 2.2-.1 3.3 0 6.5.6 11.5 4.6 12 9.2 4.7-.6 8.8-3.2 10.3-6.8 0-.1.2-.2.3-.1.1 0 .2.1.2.2.4 4.8-1.3 7.8-5 10.9 5.6-2.2 11.8-2 17.3.5.1 0 .2.2.2.3s-.1.2-.2.2c-4.4 0-8.7 1.8-11.7 5.1 18.3-5.1 33.1 6.2 28 23 0 .1-.1.2-.3.2-.1 0-.2-.1-.2-.2-.9-9.7-7.7-16.1-17.9-17 6.6 2.4 11.2 8.5 11.5 15.5 0 .1-.1.3-.2.3s-.2-.1-.3-.2c-2.5-5.6-8-9.4-14.2-9.8 6.3 2.6 10.4 8.6 11.6 16.4 0 .1-.1.2-.2.3-.1 0-.2 0-.3-.1-3.9-7.6-12.2-12.8-22.4-8.8-10.6 4.1-15.3 16.4-16.3 25 0 .1-.1.2-.2.2s-.2-.1-.3-.2c-3.9-15.5 3.4-31.8 16.5-38.7-7.1 2-13.4 6.3-17 13.3-8.3 1-14 3.9-16.9 9.2-.1.1-.2.2-.3.1-.1 0-.2-.1-.2-.3.2-2.1 1-6.3 4.1-8.3-7 0-12.5-.9-17.8-3-.1.1-.2 0-.2-.2zm29.5 53.5c-.1-.1-.2-.1-.3 0s-.1.2-.1.3c1.6 2.8.1 6.8-3 6.8-5.7 0-8.5-10.8-7.6-20.6 2.2 5.8 4 8.1 7.3 10.8.1.1.2.1.3 0s.1-.2.1-.3a46.91 46.91 0 0 1-6-24.1c1.5 6 3.2 9.3 8.1 14.4.1.1.2.1.3 0s.1-.2.1-.3c-4.9-10.8-5.3-23.1-1-34.2.1-.1.1-.2 0-.3s-.2-.1-.3 0c-5 2.5-8.1 4.2-12.5 10.4 1.4 7.4.2 11-3.2 17.2 3.9-9.9 1.8-23.9-8.2-29.6-.1-.1-.2 0-.3.1s-.1.2 0 .3c4.6 4.8 6.2 11.7 4.2 18 1.5-10.4-7.7-19.2-17.8-19.2-9.6 0-16.2 7.5-15.6 15 .5 7.4 5.4 11 9.7 12.5.1 0 .2 0 .3-.1s.1-.2 0-.3c-5.6-5.7-6.4-16.5 3.6-19.8-5.9 5.1-3.7 16.8 5.7 17.7.1 0 .2-.1.3-.2 0-.1 0-.2-.1-.3-2.2-1.4-3.6-3.9-3.7-6.6 0-4.7 3.4-6.5 5.7-6.5 3.4 0 6.3 3.3 6.3 8.2 0 5.8-5.3 10.7-12 11.4S3.6-152.7.7-157c-.1-.1-.2-.1-.3-.1-.2.1-.2.2-.2.3 2.3 9.2 11.7 14.8 20.8 12.4 2.2-.6 4.2-1.5 6.1-2.9-6.6 7.5-17 7.6-25.7-.1-.1-.1-.2-.1-.3 0s-.1.2-.1.3c2.7 5.4 9.3 11.8 18.6 10.9 8.6-.9 13.5-9 14.5-15.7.5 8.5-1.4 14.5-8.8 20.1-.1.1-.1.2-.1.3.1.1.2.2.3.1 6.8-2 12.2-5.4 15-12.6 0 6.2-2.1 12.4-7.5 16.5-.1.1-.1.2-.1.3.1.1.2.2.3.1 3.5-1 6.2-2.5 8.1-5.2 1.3 11 6.5 17.6 12.5 17.6 4.1 0 7.2-3 7.2-7.9.1-3.3-1.7-6.6-4.7-8.7zm99.3-91.6c-3.2-3.9-9.5-5.4-16.4-4 .5-3.9-.1-7.9-1.6-11.5-.1-.1-.2-.2-.3-.1-.1 0-.2.1-.2.3.4 8.8-4.6 15.8-13.4 18.9 6.9-4.8 8.9-14.2 5.6-19.1-.1-.1-.2-.1-.3-.1s-.2.2-.2.3c.4 2.1-.6 4.7-2.7 6.7-2.9 2.8-6.8 3.4-8.8 1.4s-1.2-6 1.7-8.8c1-1 2.2-1.7 3.4-2.2.1 0 .2-.2.2-.3s-.1-.2-.2-.2c-6.4-.5-10.8 3.3-13.5 7.9s-7.6 8.5-13.2 7.7c-.1 0-.2.1-.3.2 0 .1 0 .2.1.3 2.9 1.9 6.6 2.2 9.9 1-5.8 5-14 7.8-21.8 5.3-.1 0-.2 0-.3.1s-.1.2 0 .3c5.9 6.6 17.7 6.7 25.1 1.3-3 4.3-7.1 7.5-14.3 8.5-.1 0-.2.1-.2.2s.1.2.2.3c8.3 3.1 16.6 0 23.4-8.2-2.8 6.5-8.2 11.5-14.8 14-.1 0-.2.2-.2.3s.1.2.3.2c3.9.1 7.5-.9 12.3-3.6-3.5 5.7-2.7 15.7 2.4 22.3.1.1.3.1.4 0 .1 0 .2-.2.1-.3-1.2-7.2 1.3-15.3 5.6-19.6-2.3 7.1.1 14.9 5.9 19.6h.3c.1 0 .1-.1.2-.2 1.2-9.4 11.8-19 20.6-19.8.1 0 .2-.1.2-.2s-.1-.2-.2-.3c-4.1-.9-8.5-.6-12.4 1 2.6-2.9 5.9-5.1 9.6-6.3.1 0 .2-.1.2-.3 0-.1-.1-.2-.2-.2-4.6-.2-9.1 1-12.8 3.7 4.2-6.7 11.2-11.6 19.2-13.4.1 0 .2-.1.2-.3 0-.1-.1-.2-.2-.2-11.9-1.3-21.8 3.3-28.2 11.9 1.7-4.9 6.4-9.8 12.9-12.6 5.8-2.6 11.8-3 16.4-1.5.1 0 .2 0 .3-.1.1 0 .1-.2 0-.3zm-52.9 75.6c4.8-10.5 4.5-18.7.6-29.1-.1-.1-.2-.2-.3-.2s-.2.1-.2.3c.6 12.6-2.8 21.7-10.3 27.8 8.3-9.9 4.4-29.6-8.8-29.6-9.6 0-17.5 8-19.5 17.5 0 .1 0 .2.2.3.1 0 .2 0 .3-.1 2.8-4.8 7.4-7.8 12.4-7.8 8.1 0 10.5 6.5 10.5 11 0 6.2-4.9 11.3-8.7 11.3-2.7 0-5-2.2-5-4.9v-.1c.1-3.8 2.7-7.1 6.4-8.2.1 0 .2-.2.2-.3s-.1-.2-.3-.2c-4-.1-7.8 2-9.6 5.6-.4-2.6-.2-5.2.6-7.7 0-.1 0-.2-.1-.3s-.2 0-.3.1c-7.4 9.4-3.9 25.6 1.9 32.4-5.5-4-10.4-12.6-10.3-24.4 0-.1-.1-.2-.2-.3-.1 0-.2 0-.3.2-4.1 10.3-1.9 29.3 9.3 39.8-3.1.5-6.2.2-9.1-.7-.1 0-.2 0-.3.1s0 .2.1.3c4.1 3.4 9.8 4.5 15.3 4.5-4.7-5.5-3.1-16.6 4.4-16.6 5.3 0 7.8 8.3 3.7 12.8-.1.1-.1.2 0 .3s.2.1.3.1c4.8-1.7 9.9-5.8 9.9-11 0-5-4.8-9.4-11.8-9.1 8.8-2.5 18 .3 22.9 6.3.1.1.2.1.3.1.1-.1.2-.2.1-.3-2.8-10.7-12-15.2-23.4-13.7 9.3-3.8 23.3-.5 29.4 7.3.1.1.2.1.3.1.1-.1.2-.2.1-.3-1.5-6.4-5-11.4-10.7-13.3z"/><path id="M" d="M129-166.6c0 .1-.1.2-.3.2-12.9.1-24.7 3.3-34 11.5 8-5.6 22.9-7.5 31.5-3.6.1.1.2.2.1.4 0 .1-.1.1-.2.1-10.7-.3-19.3 3-26 9 6.9.4 12.6 4.7 12.6 9.8 0 .1-.1.3-.3.2-.1 0-.2-.1-.2-.1-1.1-2.5-4.8-3.8-8.6-2.9-4.2 1-7 4.2-6.3 7.2.5 2 2.4 3.4 5 3.8.1 0 .2.1.2.3 0 .1-.1.2-.2.3-1.1.1-2.2.1-3.3 0-6.5-.6-11.5-4.6-12-9.2-4.7.5-8.9 3.2-10.4 6.8 0 .1-.2.2-.3.2s-.2-.1-.2-.2c-.4-4.8 1.3-7.8 5-10.8-5.6 2.2-11.8 2-17.2-.6-.1 0-.2-.2-.1-.3 0-.1.1-.2.2-.2 4.4 0 8.7-1.9 11.7-5.1-18.3 5.2-33.1-6.2-28-23 0-.1.1-.2.3-.2.1 0 .2.1.2.2 1 9.5 7.8 15.9 18 16.9-6.6-2.4-11.2-8.5-11.6-15.5 0-.1.1-.2.2-.3.1 0 .2 0 .3.2 2.5 5.6 8 9.4 14.2 9.8-6.3-2.6-10.4-8.6-11.6-16.4 0-.1.1-.2.2-.3.1 0 .2 0 .3.1 3.9 7.6 12.2 12.8 22.5 8.9 10.6-4.1 15.3-16.4 16.3-25 0-.1.1-.3.3-.3.1 0 .3.1.3.3 3.7 15.7-3.6 32-16.6 38.8 7.1-2 13.4-6.3 17-13.4 8.3-1 14-3.9 16.9-9.2.1-.1.2-.2.3-.1.1 0 .2.1.2.3-.2 2.1-.9 6.3-4.1 8.3 6.1-.2 12.1.8 17.8 3-.1-.1-.1 0-.1.1zm-29.4-53.5c.1.1.2.1.3 0s.1-.2 0-.3c-1.6-2.8-.1-6.8 3-6.8 5.8 0 8.6 10.8 7.7 20.6-2.2-5.7-4-8-7.3-10.8-.1-.1-.2-.1-.3 0s-.1.2-.1.3c4.1 7.4 6.1 15.7 5.9 24.1-1.5-6-3.2-9.3-8.1-14.4-.1-.1-.2-.1-.3 0s-.1.2-.1.3c4.9 10.8 5.3 23.2 1 34.3-.1.1 0 .3.1.3h.2c5.2-2.6 8.2-4.3 12.7-10.4-1.4-7.4-.2-11 3.2-17.2-3.9 9.9-1.8 23.9 8.2 29.6.1.1.2 0 .3-.1s.1-.2 0-.3c-4.6-4.7-6.2-11.6-4.2-17.9-1.5 10.4 7.6 19.1 17.8 19.1 9.6 0 16.2-7.5 15.6-14.9-.5-7.4-5.4-11-9.7-12.5-.1 0-.2 0-.3.1s-.1.2 0 .3c5.6 5.7 6.4 16.5-3.6 19.8 5.9-5 3.7-16.8-5.7-17.7-.1 0-.2.1-.3.2 0 .1 0 .2.1.3 2.2 1.4 3.6 3.9 3.7 6.6 0 4.7-3.4 6.5-5.7 6.5-3.4 0-6.3-3.3-6.3-8.2 0-5.8 5.3-10.7 12-11.4 6.7-.8 12.8 2.2 15.8 6.5.1.1.2.2.3.1s.2-.2.1-.3c-2.3-9.2-11.6-14.7-20.8-12.4-2.2.6-4.3 1.5-6.1 2.9 6.6-7.5 17-7.6 25.7.1.1.1.2.1.3 0s.1-.2.1-.3c-2.6-5.4-9.2-11.8-18.5-10.9-8.6.9-13.5 9-14.5 15.7-.6-8.5 1.4-14.5 8.7-20.1.1-.1.1-.2.1-.3-.1-.1-.2-.2-.3-.1-6.8 2-12.2 5.4-15 12.5 0-6.2 2.1-12.4 7.5-16.5.1-.1.1-.2.1-.3-.1-.1-.2-.2-.3-.1-3.5 1-6.2 2.5-8.1 5.2-1.3-11.1-6.5-17.7-12.5-17.7-4.1 0-7.2 3-7.2 7.9 0 3.2 1.8 6.5 4.8 8.6zM.3-128.4c3.2 3.9 9.5 5.4 16.4 4-.5 3.9.1 7.9 1.6 11.5 0 .1.2.2.3.1.1 0 .2-.1.2-.3-.4-8.8 4.6-15.8 13.5-18.9-6.9 4.8-8.9 14.2-5.6 19.1.1.1.2.1.3.1s.2-.2.1-.3c-.4-2.1.6-4.7 2.7-6.7 2.9-2.8 6.9-3.5 8.8-1.5s1.2 5.9-1.7 8.8c-1 1-2.2 1.7-3.5 2.2-.1 0-.2.2-.2.3s.1.2.2.2c6.4.6 10.8-3.3 13.5-7.9 2.8-4.6 7.6-8.4 13.2-7.7.1 0 .2-.1.3-.2 0-.1 0-.2-.1-.3-2.9-1.9-6.6-2.3-9.9-1.1 5.8-4.9 14-7.7 21.8-5.2.1 0 .2 0 .3-.1s.1-.2 0-.3c-5.9-6.6-17.7-6.7-25.1-1.4 3-4.3 7-7.5 14.3-8.5.1 0 .2-.1.2-.2s-.1-.2-.2-.3c-8.3-3.1-16.6 0-23.4 8.2 2.8-6.5 8.2-11.5 14.8-14 .1 0 .2-.2.2-.3s-.1-.2-.3-.2c-3.9-.1-7.5.9-12.3 3.6 3.5-5.7 2.7-15.6-2.4-22.3-.1-.1-.2-.1-.3-.1s-.2.2-.2.3c1.2 7.2-1.3 15.3-5.6 19.6 2.3-7.1-.1-14.9-5.9-19.7H26c.2.2.2.3.2.4-1.2 9.4-11.8 19-20.6 19.8-.1 0-.2.1-.2.2s.1.2.2.3c4.1.9 8.5.6 12.4-1-2.6 2.9-5.9 5-9.6 6.2-.2 0-.2.2-.2.3s.1.2.2.2c4.5.3 9-1 12.7-3.5-4.5 6.8-11.4 11.7-19.4 13.5-.1 0-.2.1-.2.3 0 .1.1.2.2.2 11.9 1.3 21.8-3.3 28.2-11.9-1.6 4.9-6.4 9.8-12.9 12.6-5.8 2.5-11.9 2.9-16.4 1.5-.1 0-.2 0-.3.1-.1 0 0 .2 0 .3zM53.2-204c-4.8 10.5-4.5 18.7-.6 29.1.1.1.2.2.3.1.1 0 .2-.1.2-.2-.6-12.6 2.8-21.7 10.3-27.8-8.3 9.9-4.3 29.6 8.8 29.6 9.6 0 17.5-8 19.4-17.5 0-.1 0-.2-.2-.3-.1 0-.2 0-.3.1-2.8 4.8-7.4 7.8-12.5 7.8-8.1 0-10.5-6.5-10.5-11 0-6.2 4.9-11.3 8.7-11.3a4.85 4.85 0 0 1 5 4.8v.1c-.2 3.8-2.7 7.1-6.4 8.2-.1 0-.2.2-.2.3s.1.2.3.2c4 .1 7.8-2 9.6-5.6.4 2.6.2 5.2-.6 7.7 0 .1 0 .2.1.3s.2 0 .3-.1c7.4-9.4 3.8-25.6-2-32.4 5.5 4 10.4 12.6 10.3 24.4 0 .1.1.2.2.3.1 0 .2 0 .3-.2 4.1-10.3 1.9-29.2-9.3-39.8 3.1-.5 6.2-.2 9.1.7.1 0 .2 0 .3-.1s0-.2-.1-.3c-3.7-3.6-9.4-4.7-14.9-4.7 4.7 5.5 3.1 16.5-4.4 16.5-5.3 0-7.8-8.3-3.6-12.8.1-.1.1-.2 0-.3s-.2-.1-.3-.1c-4.8 1.6-9.9 5.8-9.9 11 0 5.1 4.8 9.4 11.8 9.1-8.8 2.5-18-.3-22.9-6.3-.1-.1-.2-.1-.3-.1-.1.1-.2.2-.1.3 2.8 10.7 12 15.2 23.4 13.7-9.3 3.9-23.3.6-29.4-7.2-.1-.1-.2-.1-.3-.1-.1.1-.2.2-.1.3 1.3 6.7 4.8 11.6 10.5 13.6z"/><path id="N" d="M481 177.5s-96.5-2.5-105.5-4.5-39-8-80 9c0 0-6 5-5 11s2 41 36 50c0 0 43 3 49-16s-2-38 11-40 104.5-1.5 104.5-1.5l-10-8z"/><path id="O" d="M295.5 192s-1-8 10-11 50-12 58-6 11 26 8 47-40 19-40 19-31 0-36-49z"/><path id="P" d="M345.9 187.8c0 4.1-3.4 7.5-7.5 7.5s-7.5-3.4-7.5-7.5v-.6l.3-1.6c.5-1.6 5.9-3.2 7.1-3.5 2.5-.7 3.5-.8 4.4-.3.7.4 1.2 1 1.6 1.7 1 1.2 1.6 2.7 1.6 4.3z"/><path id="Q" d="M271.5 185c-7 0-13-4-33-5s-32 8-37 10-5 1-5 1v9c0 1 2 1 6 7s5 22 12 32 14 8 29 9 16-5 16-5c-.2-.6-.3-1.2-.2-1.8-.7.8-3.4 3.8-6.8 3.8-4 0-23 1-26-1s-9 0-14-18-5-18-4-34c0 0 8-11 34-8s29 8 29 8 .1 15.7-1.9 20.3h0c.6-1.4 1.3-2.7 2.1-3.9 2.2-2.6 2.8-17.4 2.8-17.4l16-.6 4-5.4h-23 0z"/></defs></svg>