<svg xmlns="http://www.w3.org/2000/svg" xmlns:xlink="http://www.w3.org/1999/xlink" viewBox="0 0 1000.39 838.56" xmlns:v="https://vecta.io/nano"><style><![CDATA[.d{fill:#ecb4ac}.e{fill:#5bf1cd}.f{fill:#f3d1c7}.g{fill:#0c0631}.h{fill:#ecb3ac}.i{fill:#ecb4ad}.j{fill:#dbbcc3}.k{fill:#674def}]]></style><defs><linearGradient id="A" x1="885.27" y1="153.07" x2="972.11" y2="153.07" gradientUnits="userSpaceOnUse"><stop offset=".08" stop-color="#002981"/><stop offset="1" stop-color="#002947"/></linearGradient><linearGradient id="B" x1="1048.34" y1="265.84" x2="1156.79" y2="265.84" xlink:href="#A"/><linearGradient id="C" x1="815.16" y1="181.11" x2="959.03" y2="181.11" xlink:href="#A"/><linearGradient id="D" x1="1028.12" y1="204.6" x2="1133.98" y2="204.6" xlink:href="#A"/><linearGradient id="E" x1="746.61" y1="294.49" x2="792.49" y2="294.49" xlink:href="#A"/></defs><path d="M632.24 555.37a256.49 256.49 0 0 0 25.45 11.12 374.79 374.79 0 0 0 48.33 14.58c8.91 2.08 18 3.45 27 5l20.28 3.25 18.46 2.55 18.43 2.73 18.22 2.56 17.92 2.91q12.68 2.41 25.28 5.23a42.89 42.89 0 0 1 9.07 3 34.26 34.26 0 0 1 6.37 4.59l17.39 14.29 18.69 15 20 16 19.48 15.91a110 110 0 0 1 8.73 7.83 154.85 154.85 0 0 1 16.24 19.81c5.25 7.53 10.1 15.34 15.24 23a40 40 0 0 1 6 16c1.56 8.94 3.41 17.84 5.13 26.76q2.91 15.13 5.8 30.28l.58 3v37.44H.07v-2.64-215.86a11.76 11.76 0 0 1 0-1.68 5.35 5.35 0 0 1 .45-1.82c4.57-8.48 9.81-16.47 17.33-22.7 4.46-3.7 9.41-6.23 15.36-6.53 3.26-.16 6.49-.68 9.74-1l11.39-1.3 10.19-1.12 11.63-1.31 10.46-1.1 11.15-1.28 10.46-1.11 11.63-1.3 10.46-1.12 11.15-1.28 10.45-1.12 10.92-1.27 10.46-1.09 14.46-1.78 13-1.61c5.75-.83 11.48-1.81 17.22-2.74l16.5-2.67 11.35-1.6c.18 2.22.24 4.46.57 6.67.87 5.9 1.61 11.85 2.86 17.68 2.26 10.65 5.58 21 11.23 30.4a52 52 0 0 0 14.51 16c4.43 3.14 8.77 6.4 13.13 9.63 15.19 11.26 30.39 22.52 46.44 32.58a217 217 0 0 0 23.95 13.08c1 .46 2.1.72 3.15 1.08.46.64 1 1.27 1.39 1.94q11.49 17.65 23 35.32a34.83 34.83 0 0 0 3.51 4.52l13.74 14.69c.52.57 1.23 1.26 1.27 1.92.15 2.52.06 5.06.06 7.68l-26.2 4.19.36.77c-3.68 1-4.89 2.55-4.92 6.27a30.54 30.54 0 0 0 1.66 8.68c1.39 4.84 2.82 9.68 3.2 14.72a33.71 33.71 0 0 0 4.53 14.5 59 59 0 0 0 15.71 17.29c3 2.32 4.37 2.46 7.57.3a54.37 54.37 0 0 0 7.27-5.84 149.39 149.39 0 0 0 19-22.81 58.44 58.44 0 0 0 4.62-7.55 17.59 17.59 0 0 0 .89-13.07c-1-3.35-2.86-5.65-6.47-6.22-.68-.4-1.35-.82-2.05-1.18l-19.4-9.94c-3.78-1.9-3.66-4.6-2.1-7.32a14.18 14.18 0 0 1 2.61-3.09q24.37-23.25 48.76-46.51l11.73-11.29a9.42 9.42 0 0 0 1.19 0l21.5-3.34c6.28-1.12 12.54-2.43 18.73-3.95 5.94-1.47 10.8-5.1 15.62-8.67 10.42-7.71 19.94-16.49 29.48-25.23 5.84-5.34 11.54-10.83 17.26-16.3l17.4-16.84c4.56-4.36 9.1-8.76 13.9-12.85a41.58 41.58 0 0 0 7.78-8.4c7.09-10.52 12.46-21.94 17.64-33.46a7.55 7.55 0 0 0 .33-1.86zm161.26 77.26l.49-.46a6.21 6.21 0 0 0 1.09-.44l21.71-14.35 14.92-9.92a14.52 14.52 0 0 0 2.11-2.43 18.83 18.83 0 0 0-3.21-.68h-15.34a5.4 5.4 0 0 0-4.79 2.52l-15.66 23.16a10.72 10.72 0 0 0-.86 2.15l-.46.49-.12.18zm29.77 58.09a.77.77 0 0 0 .16-.07v-.13l-.2.2s-.12 0-.16.08 0 .08 0 .13zm-31.68-56.16a6.67 6.67 0 0 0-1.28.55 76.52 76.52 0 0 0-9.84 8.32 24.37 24.37 0 0 0-5.4 8.1c-2.28 5.34-4.14 10.86-6.12 16.32a32.38 32.38 0 0 0-.87 3.25 1.16 1.16 0 0 0 1-.55l8-13 13.68-21.3a15.48 15.48 0 0 0 .84-1.68.4.4 0 0 0 .16-.08v-.12zm11 160.79a2.82 2.82 0 0 0-.89.29q-9.51 7-19 14.06c-1.06.79-2.16 1.52-3.75 2.64.27-1.43.48-2.24.57-3.06a186.22 186.22 0 0 1 4.27-21.72 180.81 180.81 0 0 1 7.39-24.18 112 112 0 0 1 8-17.32c1.06-1.77 2-3.61 3-5.42l.18-.65-.19.64a10.94 10.94 0 0 0-2.25 1.62l-10.6 12.88-3.43 4.14a2.58 2.58 0 0 1 .25-1.86l3.26-6.12 7.07-13.57q6.11-11.24 12.38-22.37l9.9-16.9c1-1.77 2.08-3.55 3.12-5.32l.85-1-.51-.27-.37 1.27a10.39 10.39 0 0 0-2.05 1.43q-4 4.77-7.82 9.64l-11.67 14.83c-3.29 4.31-6.41 8.74-9.59 13.12a255.33 255.33 0 0 0-17.64 27.31c-.83 1.51-1.74 3-2.61 4.46a2.75 2.75 0 0 1 0-1.89q5-14.24 10-28.45 6.73-19.06 14.74-37.63c4.26-9.91 8.69-19.72 13.86-29.19A143.3 143.3 0 0 1 820 649.35c2.44-3.25 5-6.47 8.51-8.66 4.12-2.59 8.45-4.83 12.57-7.4 3.85-2.4 7.57-5 11.32-7.59a2.78 2.78 0 0 0 1.39-2.68c-.64.27-1.08.42-1.5.62a134 134 0 0 0-22.27 13.52c-5.56 4.25-11.18 8.48-16.36 13.18a195.6 195.6 0 0 0-14.2 14.59 160.24 160.24 0 0 0-11 13.53 181.2 181.2 0 0 0-22.21 41.45q-5.88 15.42-11.86 30.8c-.7 1.82-1.5 3.6-2.25 5.4l-.54-.15q1.28-8.08 2.53-16.17l2.51-16.25 2.89-15.94 3.39-16.1c1.13-5.37 2.73-10.43 3.41-15.84a16.1 16.1 0 0 0-2.26 3.34l-11.48 20.73c-1.82 3.37-3.46 6.84-5 10.36-2 4.62-3.86 9.28-5.55 14a28.26 28.26 0 0 0-1.84 12c.19 2.22.45 4.44.44 6.67 0 2.86-.36 5.72-.38 8.58a83.12 83.12 0 0 1-1 11.89c-.73 4.78-1.16 9.63-2.09 14.37-1.45 7.33-3.17 14.61-4.87 21.88a5.94 5.94 0 0 0 .18 3.73l6.67 16.91a14.39 14.39 0 0 0 1.12 1.84l10.68-28.14.73 11.3a37.52 37.52 0 0 0 5.16 16.76 21.23 21.23 0 0 0 10.27 9.3c2 .79 2 .86 3.47-.69l11.54-12.47 14-15q2.94-3.15 5.83-6.34a4.71 4.71 0 0 0 .59-1.26l.2-.21zm-778.1-17.44c-1 .48-1.83.85-2.64 1.32-1.38.8-2.73 1.66-4.09 2.49-1.54.93-1.66 1.25-1 2.88 4 9.57 8.3 19 13.15 28.22a42.75 42.75 0 0 0 9.67 12.74 25 25 0 0 0 8.89 5c3.58 1.12 6.59-.39 7.57-3.79a13.89 13.89 0 0 0 .62-4.23 20.51 20.51 0 0 1 2-9.5c2-4.43 4.15-8.82 6.34-13.17a69.48 69.48 0 0 0 5.31-14.59 46.07 46.07 0 0 0 1.21-7.76c.49-7-.47-14-1.49-20.93-.83-5.57-1.74-11.14-2.86-16.66l-6.47-30.07c-3-13.11-6.47-26.13-10.57-38.95-2.88-9-5.73-18.11-9-27-3.92-10.55-8.28-21-14.06-30.65-2.56-4.3-5.5-8.39-8.32-12.54a2.71 2.71 0 0 0-2.05-1.42l4 9.73 9.17 22.09 13.71 34.7a154.64 154.64 0 0 1 6.41 19.78c1.38 5.63 2.63 11.3 3.7 17 .74 4 1.11 8 1.58 12 .25 2.13.37 4.28.53 6.42.31 4.2.74 8.4.86 12.61.09 3.1-.3 6.2-.39 9.3l-.49 21.31c-.08 4.87-.07 9.75 0 14.63l.49 25.38c0 1 .24 2 .36 3a14.47 14.47 0 0 1-2-3.62l-8.46-20.06c-2-4.94-3.95-9.93-5.68-15-2.71-7.91-5.27-15.88-7.79-23.86-1.78-5.62-2.43-11.49-3.35-17.3a27.75 27.75 0 0 0-3.27-9.68c-1.78-3.09-4.93-4.64-7.76-3.82-1.9.56-2.25 1.05-1.77 2.92 1.19 4.63 2.28 9.29 3.7 13.84 2.24 7.15 4.64 14.26 7.12 21.33a93.39 93.39 0 0 0 7.49 16c2.73 4.69 5.5 9.36 8 14.15a36.77 36.77 0 0 1 3.79 13.41l.88 7.33c.22 2.05.41 4.11.48 6.18a2.08 2.08 0 0 1-.81 1.52c-.25.18-1.06-.15-1.43-.47a16.08 16.08 0 0 1-2.67-2.74l-9.82-14.72c-2.98-4.76-5.74-9.61-8.79-14.75zm676.3 43.44l.57-.11v-2.39c-.15-5-.44-10-.43-15.06 0-5.9.26-11.8.43-17.7l.5-15.78v-.71l.88-10.93c.2-2.7.26-5.41.55-8.1l1.84-15.37 2-16.3c1-6.68 2-13.35 3.41-20 2-9.72 4.25-19.4 6.58-29.06a333.26 333.26 0 0 1 12.89-41.51c.38-1 .63-2.06 1-3.1a3.41 3.41 0 0 0-1.67 1.36l-9.27 13.94c-4.93 7.65-9.43 15.55-13.59 23.64-1.79 3.47-3.52 7-5.06 10.58-2.8 6.52-5.59 13-8.1 19.68a143.05 143.05 0 0 0-6.22 22.54 87.31 87.31 0 0 0-2 17.5c0 4.3.22 8.6.47 12.9.23 3.88.53 7.77 1 11.63.64 5 1.43 10.06 2.31 15.06l3.9 20.83c1.11 5.13 2.54 10.2 4 15.22 1.17 3.83 2.66 7.51 4.01 11.24zm-57-222.31l-.21.18-1.2 11.86a76.79 76.79 0 0 1-6.14 22.73l-13.3 31-13.7 32.65-9.42 22.76-6.83 17.37c-4.28 10.82-8.49 21.67-11 33.09-1.29 6-2.4 12-3.52 18l-2.28 13.38c-.43 2.67-.74 5.35-1.06 8l-1.06 9.72-1.33 11.07a4.83 4.83 0 0 0 1.34-1.92l3.79-9.31 12-29 9.91-25.4c5.9-15.07 11.56-30.23 16.53-45.64a175.58 175.58 0 0 0 5.59-20.26c.57-3 1.23-5.88 0-8.93a6.71 6.71 0 0 1 0-4 56.67 56.67 0 0 1 2.94-8.32c2.92-6.31 6-12.54 9.11-18.75a137.72 137.72 0 0 0 8.34-20.88 71.38 71.38 0 0 0 3.25-16.58 70.32 70.32 0 0 0-.42-16c-.33-2.23-.9-4.52-1.33-6.82zM86.56 830.99l.38.06a7.87 7.87 0 0 0 .55-1.18l3.37-11.95a135.4 135.4 0 0 0 4.29-22.22c.19-2 .52-3.95.6-5.93.14-3.9.34-7.81.18-11.71-.22-5-1.84-9.79-.92-14.91a71.56 71.56 0 0 1 2.78-11.83 114.92 114.92 0 0 1 8.65-18.92l9.6-16.84c1.52-2.72 3.12-5.46 2.61-8.79l-1.69-10.34-2.59-13.82q-2.07-11.13-4.15-22.26-1.54-8.31-3.09-16.63l-1.6-8.13a15 15 0 0 0-.25 3.87l.92 13.09v1.67c.3 5.17.81 10.33.87 15.5.09 8 .28 16-.39 23.94a56.91 56.91 0 0 1-2.19 12.9l-5.38 17.11c-3 10.26-6.39 20.39-10.4 30.31-1 2.58-2.24 5.13-3.08 7.78a54.87 54.87 0 0 0-2.4 15.27c-.17 9.42.21 18.84.41 28.26 0 2.07.29 4.13.51 6.19q.64 6 1.38 12.07c.26 2.48.68 5.01 1.03 7.44zm605.65-230.54l-.44-.19a10.93 10.93 0 0 0-1 1.26c-2.93 5-6 10-8.69 15.14-2.77 5.39-5.24 10.94-7.59 16.52a222.14 222.14 0 0 0-11 33.33q-2.85 11.56-5.15 23.27c-1.08 5.45-1.74 11-2.52 16.48-.42 2.91-.71 5.83-1 8.75l-.91 9c-.21 2.38-.34 4.76-.52 7.14-.29 3.88-.76 7.76-.87 11.65-.15 5.51-.06 11-.05 16.55 0 .44.1.88.22 1.84l.72-5.49c.52-4.17.89-8.37 1.55-12.52 1-6.43 2.07-12.87 3.37-19.24l6-27.23q3.86-15.76 8.21-31.4l11.61-39.66c2.36-7.79 5-15.47 7.56-23.2l.5-2zm-40.07 167.11a92.49 92.49 0 0 0 1.46 30.24 15.68 15.68 0 0 0 .16-3.55l-.88-11.65c-.25-4.85-.35-9.72-.53-14.58a1.51 1.51 0 0 0-.21-.46zm114.84-93v-.21c-.06 0-.17 0-.17.06a.53.53 0 0 0 0 .2z" class="e"/><path d="M.07 838.56a3.84 3.84 0 0 1 0-.48h1000.32c-.08.16-.15.45-.24.46h-1.92z" fill="#b9e9ff"/><path d="M476.79.49l-.05-.49h17.76v.48h-3.07z" fill="#82a6ff"/><path d="M301.39 412.87q-6-18.64-12-37.29l-1.81-5.94a4.34 4.34 0 0 0-1.08-1.78 22 22 0 0 0-12-6 34.39 34.39 0 0 1-10.94-3.3 12.42 12.42 0 0 1-6.68-8.55l-1-4.42c-.73-3-2-5.7-4.78-7.45-5.52-3.52-8.09-8.84-9.11-15.07a52.53 52.53 0 0 1-1-11.4 35.51 35.51 0 0 1 2.7-12.52 20.17 20.17 0 0 0 1.5-7.18c.21-5.59.18-11.19 0-16.79-.19-6.92-.55-13.84-.9-20.76a37.31 37.31 0 0 1 2.46-14.28 57.67 57.67 0 0 1 8.25-15.58 31.25 31.25 0 0 1 9.77-9 17.2 17.2 0 0 1 14.74-1.18c.37.14.76.24 1.14.36-.55 3.87-.55 3.87 1.86 6.86a8.67 8.67 0 0 1 .65.71l5.28 8.27a2.84 2.84 0 0 1 .4 2c-.88 2.76-1.92 5.46-3.08 8.66a39.1 39.1 0 0 1-3.69-14.89c-.86 5.38.42 10.54 2.34 15.59a4.86 4.86 0 0 1 .06 3.46c-2.11 6.54-4.37 13-6.17 19.67-2.63 9.73-3.63 19.62-1.79 29.67a6.56 6.56 0 0 1-.36 3 23.9 23.9 0 0 0-1.41 9.19c.45 4.76 1.17 9.49 1.78 14.24l1.39 4.23c0 1.83.06 3.66.16 5.48.16 3.15.64 6.18 2.73 8.76 3 3.67 5.79 7.44 8.69 11.15a43.36 43.36 0 0 0 3.52 4.23 7.24 7.24 0 0 0 3 1.77c2.07.56 3.56-.69 3.61-2.82.13-5.19.37-10.39.31-15.58l-.7-41.49.17-39.1a39.18 39.18 0 0 1 3.24-15.58 171 171 0 0 0 11.61-39.21 39.49 39.49 0 0 1 7.73-17.85 94 94 0 0 1 7-8.18c5.75-6.05 12.4-11.07 18.92-16.24 3.07-2.43 6.05-5 9-7.59 3.07-2.75 3.46-6.19 1.94-9.86-.76-1.84-1.83-3.55-2.68-5.35a44.26 44.26 0 0 1-2.57-5.93c-1.59-5.31-1.25-10.43 2.16-15.06a24.56 24.56 0 0 1 1.86-2.5c3.49-3.62 6.8-7.47 10.6-10.74 13.11-11.29 28.06-19.49 44.25-25.45a140.62 140.62 0 0 1 49.24-9.16c8.94 0 17.91.45 26.83 1.13 7.31.57 14.61 1.64 21.86 2.77 4.65.72 9.23 1.93 13.81 3a5.34 5.34 0 0 0 5.29-1.44c1.14-1.12 2.2-2.32 3.32-3.47 1.39-1.42 2.78-2.87 4.25-4.22a14.43 14.43 0 0 1 2.24-1.4 5.15 5.15 0 0 1-1 4.3 19.63 19.63 0 0 0-3.2 8.19 5.33 5.33 0 0 0 3.71 6 9.1 9.1 0 0 0 2.8.59c6.39.19 12.48 1.79 18.51 3.7A489.82 489.82 0 0 1 630 116.69c4.86 2.41 9.51 5.24 14.23 7.93a14.54 14.54 0 0 1 6.53 7.72c.71 1.87 1.51 3.7 2.15 5.59 4.23 12.35 7 25.06 9.6 37.83a46.76 46.76 0 0 1-.23 18.78 80.08 80.08 0 0 0-1.73 19.06c.18 4.33 1.16 8.34 3.93 11.84a15.34 15.34 0 0 1 3.37 10c-.12 4.23-.22 8.48-.7 12.68l-4.55 37.36c-1.61 13.65-3.33 27.28-5.86 40.79a175.58 175.58 0 0 1-7.74 28.66l-13.59 37.64c-.31.88-.55 1.78-.82 2.67 6.48-3.95 12.45-8.38 18.86-12.72.05 3.48.06 6.5-.89 9.45-1.12 3.44-4 5.26-6.76 7l.63 2.59c4.07-1.74 6.13-4.21 7-8.27.08-.38.22-.75.34-1.13l.07-.43a34 34 0 0 1 2.64-16.55c.91-2 1.51-4.2 2.48-6.2l8.32-16.43c2.7-5.51 5.1-10.8 7.63-16.21.84 2.32 1.85 4.6 2.45 7a55.62 55.62 0 0 1 1.18 7.51 24.66 24.66 0 0 1 .15 6.18 8.3 8.3 0 0 0 .47 4.37c1.31-.4 1.65-1.39 2-2.34a52.61 52.61 0 0 0 3.63-12.9c.47-3.54 1.2-7.05.28-10.65a16.9 16.9 0 0 0-6-9.18 183.19 183.19 0 0 0 7.14-23 18 18 0 0 1 9.73 8.76 49.11 49.11 0 0 1 5 16.85 78.6 78.6 0 0 1 .33 15.78c-.43 6.7-1.9 13.22-5.58 19.07a20.05 20.05 0 0 1-7 6.38 31.76 31.76 0 0 0-12.6 13.4 133.67 133.67 0 0 0-6.53 17.2c-3.32 10.25-6.2 20.64-10.62 30.5a33.46 33.46 0 0 1-2 3.53 1.67 1.67 0 0 1-.66.68c-2.19.91-4.3 2.17-6.82 1.69a107 107 0 0 1-19.65-5.94 25.17 25.17 0 0 1-3.89-2.48 6.8 6.8 0 0 0-.61.86l-8.88 16.71a224.64 224.64 0 0 1-16.38 25.87q-5.46 7.26-10.87 14.55a5.58 5.58 0 0 0-1.64.81 102.3 102.3 0 0 1-12 10.55c-4.32 3.26-8.6 6.6-13.13 9.56a148.76 148.76 0 0 1-19.21 10.68 128.6 128.6 0 0 1-21.41 7.73 110.3 110.3 0 0 1-15.43 3 69.29 69.29 0 0 1-10 .89c-.32 0-.64.07-1 .07-4.86.12-9.72.38-14.58.31-3.09 0-6.17-.55-9.25-.87-3.31-.35-6.65-.59-9.94-1.12-4.8-.79-9.59-1.79-14.43-2.79a139.13 139.13 0 0 1-24.5-7.13 217.25 217.25 0 0 1-24-11.29c-2.67-1.44-5.35-2.88-7.9-4.51l-23.87-15.47c-4.44-3-8.73-6.15-13-9.36q-7.53-5.67-14.88-11.58c-3.53-2.84-6.93-5.87-10.37-8.83-2.65-2.28-5.17-4.75-8-6.86a20.31 20.31 0 0 1-6.53-7.8q-4-8.94-7.74-18c-1.58-3.83-2.92-7.75-4.39-11.63-.04-.12-.38-.14-.59-.23zm135-190.87c5.78.91 14.35 6 16 9.59l-5.85 1.7c4 .45 7.8 1.58 11.94.36a17.55 17.55 0 0 0-7.31-7.94c-1.74-.94-3.62-1.63-5.43-2.47l-13.24-6.16a35.89 35.89 0 0 0-15.15-3c-11.28.2-22.45 1.55-33.66 2.6-3.58.34-6.16 2.1-9.37 4.34a38.27 38.27 0 0 1 4 .28c5.17.93 10.11.09 15.09-1.38a45.23 45.23 0 0 1 14-1.73c-.764 7.862 4.88 14.899 12.72 15.86 7.819 1.135 15.093-4.242 16.3-12.05zm156.08 28.38c1.9.79 3.85 1.46 5.68 2.39 6.39 3.22 12 7.67 17.75 11.83a6.57 6.57 0 0 0 6.44.69c-.29-.22-.52-.43-.78-.6l-23.41-15.48c-3.46-2.14-7-4.3-11.16-5.17-3-.62-5.91-1.41-8.9-1.94a27.82 27.82 0 0 0-17.3 2.06c-3.81 1.81-7.9 3-11.87 4.51a40.18 40.18 0 0 0-3.79 1.47c-1.47.75-1.57 1.78-.27 2.77a14.37 14.37 0 0 0 2.93 1.65 29.56 29.56 0 0 0 7.26 2.29l-2.6-5c4.22-3 8.55-5.31 13.57-6.07l-.19 2.38a14.37 14.37 0 0 0 3.2 10.24c3.17 3.83 7.22 5.74 12.24 4.84 6.34-1.18 10.65-6.19 11.24-12.86zm-43.85-50.46l6.72 5.95a3.35 3.35 0 0 0 3 .76c3.87-.51 7.77-.94 11.68-1.13a101.19 101.19 0 0 1 19.6.88c10.06 1.48 19.61 4.4 28.33 9.79l33.34 20.39c.66.4 1.36.75 2.15 1.18a8.17 8.17 0 0 0 .55-4.58 33.86 33.86 0 0 0-3.4-10.92c-3.59-7.4-8.58-13.83-13.82-20.1a43.2 43.2 0 0 0-19.26-12.93c-9.32-3.3-19-4.22-28.79-4.14a174.44 174.44 0 0 0-17.68 1.24c-4.35.47-8.66 1.4-13 2.21a3.42 3.42 0 0 0-2 1.09l-7.38 10.31zm-199.58-19.8l.26.43c.54-.09 1.09-.13 1.62-.27a242.56 242.56 0 0 1 44.87-7.66c9.76-.67 19.49-.65 29.13 1.19 8.2 1.57 15.87 4.35 22 10.31a4.22 4.22 0 0 0 2.06 1.07c3.07.54 6.14 1.13 9.24 1.36a28 28 0 0 0 6.9-.32c2.8-.5 3.59-2 2.65-4.73a24 24 0 0 0-2.07-4.3 34.55 34.55 0 0 0-18.9-16 117.19 117.19 0 0 0-34.93-6.55 174.47 174.47 0 0 0-36.5 2.7 14 14 0 0 0-5.68 2.32 80.07 80.07 0 0 0-17.3 16.13c-1.15 1.38-2.21 2.86-3.31 4.32zm160 52l-.49-.08c-.53 1.73-1 3.48-1.59 5.2q-3.79 11.46-7.65 22.9a28.72 28.72 0 0 1-1.85 4.39l-5.61 10a29.17 29.17 0 0 0-3.66 15.85 8.44 8.44 0 0 0 6.09 7.67 69.22 69.22 0 0 0 8.36 1.81c3.06.34 6.21.59 9.13-1a3.17 3.17 0 0 0 1.85-2.59 11 11 0 0 0-.06-3.34c-.89-3.79-1.91-7.55-2.9-11.31-1.37-5.23-2.94-10.41-4-15.69-.49-2.36-.13-4.92 0-7.39.13-2.13.57-4.24.76-6.37.23-2.45.29-4.92.54-7.36l1.35-12c.01-.25-.17-.49-.26-.69zm-80.01 177.44l-.17.6c.69.36 1.36.77 2.07 1.08 2.26 1 4.56 1.91 6.79 3a90 90 0 0 1 15.68 9.14c3.11 2.35 6.24 4.7 8.51 8a27.23 27.23 0 0 0 1.76 2.13 39.61 39.61 0 0 1 3.9-3.08c4.27-2.6 9.05-3.4 13.94-3.63a58.87 58.87 0 0 1 12.36.9 6.25 6.25 0 0 0 1.45-.16 40.51 40.51 0 0 0-11.86-9.64 67.06 67.06 0 0 0-17.52-6.18 92 92 0 0 0-19.15-2.31c-1.1 0-2.2-.38-3.3-.35l-14.46.5zm138.69-50.11c.49.89.82 1.67 1.29 2.36 2.21 3.21 4.58 6.32 6.64 9.62a40.23 40.23 0 0 1 6.14 18.13 47.4 47.4 0 0 1-2.7 19.72 13.35 13.35 0 0 1-5.53 7.26c-.88.55-1.76 1.1-2.59 1.72a4.23 4.23 0 0 0-1.52 5 24.11 24.11 0 0 0 2.68-1.52l10.07-7.62a36.06 36.06 0 0 0 9-10.13c2.36-3.75 3.93-7.9 3.59-12.43a26.63 26.63 0 0 0-3.19-10.67 57.23 57.23 0 0 0-14.5-17.25 47.25 47.25 0 0 0-5.09-3.55c-1.16-.63-2.34-1.47-4.29-.65zm-182.23 51l-.47.43 3.37 6a88.75 88.75 0 0 0 8.73 12.22 47.24 47.24 0 0 0 11.27 10.23c3.38 2.07 7 3.77 10.58 5.51a23.44 23.44 0 0 0 4.54 1.49c1.66.4 2.45-.32 2.29-2a5.87 5.87 0 0 0-.63-2c-.49-1-1.1-1.94-1.68-2.89-3.39-5.59-7.5-10.46-13.4-13.57q-6.24-3.3-12.43-6.7a44.56 44.56 0 0 1-10.87-7.74 10 10 0 0 0-1.3-.97zm48.85-118.26l-.33-.3-10.72 8.48c-3.63 2.75-7.42 5.51-11.21 8.15s-7.66 5.17-11.52 7.7l-11.43 7.33.29.5 6.26-2.75a75.48 75.48 0 0 1 19.36-5.88 8.88 8.88 0 0 1 5.75 1.14 54.4 54.4 0 0 0 9.14 4.14c5.2 1.73 10.53 3.1 15.82 4.54a45.93 45.93 0 0 0 4.55.76 47.08 47.08 0 0 0-6.48-3c-5.36-2.3-10.28-5.23-13.27-10.48a12.87 12.87 0 0 1-.79-12.16c.74-1.67 1.71-3.24 2.61-4.84.62-1.11 1.31-2.2 1.97-3.32zm112.84 99.41c-.75-1.45-2.1-1.56-3.32-1.85l-18.08-4.38c-5.58-1.39-11.06-3.14-15.85-6.44a29.74 29.74 0 0 0-14.74-5c-4.44-.37-8.92-.28-13.37-.57a36.3 36.3 0 0 1-6.79-1.11c-2.06-.55-4-1.56-6-2.27-5.5-1.91-11-3.63-16.93-3.82-3.82-.12-7.64-.52-11.45-.35-5 .22-10 1.18-14.94 1.26-6.13.11-12.28.52-18.41-.33a11.73 11.73 0 0 1-6.82-3.05 14.66 14.66 0 0 0-3.65-2.12 1.81 1.81 0 0 0-2.31.73 2.58 2.58 0 0 0 .53 4 10.71 10.71 0 0 0 2.77 1.38c4.61 1.67 9.46 2.07 14.29 2.35a64.68 64.68 0 0 0 8.09-.42l6.89-.54 10.92-.89a18.86 18.86 0 0 0 2.39-.07c4.54-1 9.09-.44 13.55.19a83.76 83.76 0 0 1 18.58 5.2 31.32 31.32 0 0 0 11.61 2.42 74.35 74.35 0 0 1 10.19.92 44.7 44.7 0 0 1 12.63 3.41c3.12 1.42 6.13 3.09 9.26 4.52a39.33 39.33 0 0 0 7.33 2.86 75.31 75.31 0 0 1 15.09 5.24 9.54 9.54 0 0 0 5.39.68c1.18-.17 2.55-.35 3.15-1.94zM264.63 279.13a11.39 11.39 0 0 0-1 1.21c-1.74 3-3.61 5.85-5.13 8.92a44.1 44.1 0 0 0-2.81 7.6 7.53 7.53 0 0 0 1.11 6.38c1.56 2.4 4 3.42 6.43 4.32a2.5 2.5 0 0 1 1.86 1.86l2.43 8.49a7.55 7.55 0 0 0 1 1.55c1.62-2.25 3.21-4 3.88-6.52.75-2.87.13-5.6-.31-8.28a136.53 136.53 0 0 0-6.48-23.45c-.27-.58-.56-1.13-.98-2.08zm228.1 176.06c-.4 1.79.31 3.15.74 4.55 1.09 3.48 3.59 6 6.14 8.38a18.25 18.25 0 0 0 8.08 4.44c2.48.62 5.06.71 6.89-1.84 1.39-1.93 3.19-3.58 4.47-5.58a191.25 191.25 0 0 0 11.41-20.72 9.43 9.43 0 0 0 .36-1.76c-1 .91-1.61 1.42-2.17 2-3 2.84-5.87 5.88-9.07 8.49-4 3.28-8.34 6.23-13.52 7.36-4.13.91-8.12.64-11.19-2.87-.66-.79-1.33-1.53-2.14-2.45zM254.07 267.64l3.35-3.93a117 117 0 0 0 11.28-17.1l5.86-10.12.84-1.54c-3.05-4.06-9-3.23-12.17.51a34 34 0 0 0-5 8.08c-3.51 7.57-5.31 15.45-4.16 24.1zm265.77 70.69a12.56 12.56 0 0 0 1.26.54c3.76 1.12 7.55 1.82 11.47.94 5.45-1.23 9.5-4.05 10.82-9.81a23.78 23.78 0 0 0-.32-12 18.66 18.66 0 0 0-3.79-7.57c1.44 4.41 3.37 8.7 2.23 13.51a18.81 18.81 0 0 1-8.16 11.36 19.18 19.18 0 0 1-13.51 3.03zm-59.43-32.35l-7 1.4a3.56 3.56 0 0 0-1.5.73 2.68 2.68 0 0 0-1 1.4c0 .29.63.81 1.08 1a12.14 12.14 0 0 0 2.48.86 55.9 55.9 0 0 1 12.81 4.51 18.43 18.43 0 0 0 3.57 1.31 1.92 1.92 0 0 0 1.65-.56 1.78 1.78 0 0 0-.3-1.63c-2.05-2.33-4.11-4.67-6.35-6.82a6.74 6.74 0 0 0-5.44-2.2zm37.38 13.42c.62.39.86.65 1.13.68 1.89.22 3.78.45 5.68.54a64.25 64.25 0 0 1 13 1.67 8.74 8.74 0 0 0 2.84.21c.46 0 1.19-.43 1.29-.8a3.33 3.33 0 0 0-.45-3.38 4.2 4.2 0 0 0-3.61-1.52l-15.83 1.67a36.75 36.75 0 0 0-4.05.93zm157 71.3l.48.43c1.82-1.36 3.56-2.86 5.49-4 2.4-1.46 3.6-3.24 3.22-6.19a55.07 55.07 0 0 1-.06-7l-.6-.15c-1.9 6.08-4.1 12.07-8.53 16.91zm-203.16-64.63v.18h.72v-.18z" class="f"/><path d="M276.52 321.19l-1.78-14.24a23.9 23.9 0 0 1 1.41-9.19 6.56 6.56 0 0 0 .36-3c-1.84-10.05-.84-19.94 1.79-29.67 1.8-6.63 4.06-13.13 6.17-19.67a4.86 4.86 0 0 0-.06-3.46c-1.92-5.05-3.2-10.21-2.34-15.59a39.1 39.1 0 0 0 3.72 14.87c1.16-3.2 2.2-5.9 3.08-8.66a2.84 2.84 0 0 0-.4-2c-1.71-2.8-3.5-5.53-5.28-8.27a8.67 8.67 0 0 0-.65-.71c-2.41-3-2.41-3-1.86-6.86q1.3-7.44 2.62-14.9c.12-.69.33-1.37.5-2.06l.75-.43-.63-.54 5.87-30.34c1.59-7.58 3.6-15.07 5.38-22.6a95.39 95.39 0 0 1 14.38-31.68 385.93 385.93 0 0 1 28.72-36.87c6.45-7.43 13.37-14.41 20.38-21.31a127.87 127.87 0 0 1 34.85-24.3c11.9-5.69 24.12-10.61 36.49-15.16a9.06 9.06 0 0 1 1.17-.28 7.38 7.38 0 0 1-1.34 1.48c-1.16.7-2.42 1.23-3.63 1.86a4.1 4.1 0 0 0-2.1 1.8 4.89 4.89 0 0 0 .85.25l16 .5c4.06.15 8.11-.18 12.18.4a62.91 62.91 0 0 1 10.48 2.18 88.78 88.78 0 0 1 19.26 8.82 134.31 134.31 0 0 1 19.2 14.14l7.57 6.57c.22.19.61.18 1.27.36-.35-.62-.49-.89-.66-1.15a145.11 145.11 0 0 0-12.3-16.71 77.43 77.43 0 0 0-12.08-11.52c-2.82-2.06-5.76-4-8.71-5.84a43.08 43.08 0 0 0-14-5.45 55.73 55.73 0 0 0-6.81-1.06 40.5 40.5 0 0 0-7.85-.24c-3.54.38-7 1.29-10.52 1.92a3.22 3.22 0 0 1-1.21-.28c2.74-1 5.46-2.15 8.23-3.09l18.84-6.28A55 55 0 0 1 476.79.49h14.59 3.07q16.51 1 32.86 3.68l26.92 4.6a51.8 51.8 0 0 1 9.36 2.93 393.24 393.24 0 0 1 71.77 37.29c10.25 6.76 18.68 15.51 26.29 25.06 11.88 14.91 21.17 31.38 29.1 48.65a183.5 183.5 0 0 1 9.64 24.25 149 149 0 0 1 4.73 24.93 378.92 378.92 0 0 1 2.46 47.63 117.74 117.74 0 0 1-4.63 30.7c-4.22 15.26-8.72 30.39-15 45-1.07 2.52-1.23 5.43-1.81 8.15a183.19 183.19 0 0 1-7.14 23q-2.07 5-4.16 10l-7.63 16.21-8.32 16.43c-1 2-1.57 4.17-2.48 6.2a34 34 0 0 0-2.64 16.55.4.4 0 0 0-.07.43c-.12.38-.26.75-.34 1.13-.86 4.06-2.92 6.53-7 8.27l-.63-2.59c2.8-1.7 5.64-3.52 6.76-7 1-2.95.94-6 .89-9.45-6.41 4.34-12.38 8.77-18.86 12.72.27-.89.51-1.79.82-2.67l13.59-37.64a175.58 175.58 0 0 0 7.74-28.66c2.53-13.51 4.25-27.14 5.86-40.79l4.55-37.36c.48-4.2.58-8.45.7-12.68a15.34 15.34 0 0 0-3.37-10c-2.77-3.5-3.75-7.51-3.93-11.84a80.08 80.08 0 0 1 1.73-19.06 46.76 46.76 0 0 0 .23-18.78c-2.58-12.77-5.37-25.48-9.6-37.83-.64-1.89-1.44-3.72-2.15-5.59a14.54 14.54 0 0 0-6.53-7.72c-4.72-2.69-9.37-5.52-14.23-7.93a489.82 489.82 0 0 0-69.88-28.44c-6-1.91-12.12-3.51-18.51-3.7a9.1 9.1 0 0 1-2.8-.59 5.33 5.33 0 0 1-3.71-6 19.63 19.63 0 0 1 3.2-8.19 5.15 5.15 0 0 0 1-4.3 14.43 14.43 0 0 0-2.24 1.4c-1.47 1.35-2.86 2.8-4.25 4.22-1.12 1.15-2.18 2.35-3.32 3.47a5.34 5.34 0 0 1-5.27 1.51c-4.58-1.08-9.16-2.29-13.81-3-7.25-1.13-14.55-2.2-21.86-2.77-8.92-.68-17.89-1.11-26.83-1.13a140.62 140.62 0 0 0-49.24 9.16c-16.19 6-31.14 14.16-44.25 25.45-3.8 3.27-7.11 7.12-10.6 10.74a24.56 24.56 0 0 0-1.86 2.5c-3.41 4.63-3.75 9.75-2.16 15.06a44.26 44.26 0 0 0 2.57 5.93c.85 1.8 1.92 3.51 2.68 5.35 1.52 3.67 1.13 7.11-1.94 9.86-2.91 2.61-5.89 5.16-9 7.59-6.52 5.17-13.17 10.19-18.92 16.24a94 94 0 0 0-7 8.18 39.49 39.49 0 0 0-7.73 17.85 171 171 0 0 1-11.61 39.21 39.18 39.18 0 0 0-3.24 15.58l-.17 39.1.7 41.49c.06 5.19-.18 10.39-.31 15.58 0 2.13-1.54 3.38-3.61 2.82a7.24 7.24 0 0 1-3-1.77 43.36 43.36 0 0 1-3.52-4.23l-8.69-11.15c-2.09-2.58-2.57-5.61-2.73-8.76-.1-1.82-.11-3.65-.16-5.48l.53-1.43.57-5.13.8-1.57 1.9-6.42c.59-2.15 1.61-4.16 2.09-6.77-1.71 1-3 1.74-4.26 2.59a2.36 2.36 0 0 0-.91 1.32c-.45 2.18-1 4.38-.23 6.61l-.92-.13-.57-2.56-.72.12a64.67 64.67 0 0 0 1 9.17zm384.49 40.69l2.37-4.78 6.71-14.27c1.38-3 2.59-6.15 3.88-9.23l3.44-8.62 4.83-14.22c.81-2.55 1.27-5.21 1.94-8l-2.4-.34-4.35 11a29.48 29.48 0 0 0-1 3.19l-2.05 8.33h-.79l.31-1.17.58-1.79-.57-.19-.85 2.25c-.76 2.17-1.84 4.27-1.5 6.68a10.53 10.53 0 0 0-2.19 5.91c0 .09.21.21.32.32a3.88 3.88 0 0 1-.18.69c-3 6-4.62 12.47-6.66 18.81l-1.82 5.44a1.18 1.18 0 0 1 0 .2c0 0-.07 0-.1 0zm32.36-157.12l.64-.12a17 17 0 0 1 .25-2.58c1.11-4.44.79-9 1.26-13.5a33.86 33.86 0 0 0-.41-6.17l-.45-6.18a73.8 73.8 0 0 0-3.15-15.86 91.38 91.38 0 0 0-19.79-35.13 86.3 86.3 0 0 0-12.67-11.66 129.14 129.14 0 0 0-24.5-14.78 205.3 205.3 0 0 0-21.81-8.47c-8-2.58-16.13-4.32-24.25-6.25a4.86 4.86 0 0 0-1.36.07c3.46 1.42 7 2.43 10.36 3.74 5 1.91 10 3.85 14.79 6.13s9.66 4.94 14.37 7.63a130.39 130.39 0 0 1 22.52 16.45 173.15 173.15 0 0 1 13 13.42 117.4 117.4 0 0 1 8.09 10.32 121.68 121.68 0 0 1 13 23.64 62.77 62.77 0 0 1 2.64 7.41c.78 2.74 1.27 5.57 1.89 8.36l4 17.9c.48 1.91 1.06 3.76 1.58 5.63zM353.95 75.81l.14.3a2.71 2.71 0 0 0 .82-.12l4.82-2.12c5.09-2.07 10.13-4.32 15.32-6.1a192.32 192.32 0 0 1 25.07-7l18.93-3.64c4.38-.72 8.82-1.07 13.24-1.53l14.46-1.39c3.41-.27 6.84-.51 10.25-.46 6.46.11 12.92-.38 19.39.36 4.42.51 8.91.38 13.37.57 1.26.06 2.52.32 3.78.37 1.42.07 2.85 0 4.28 0a5 5 0 0 0-2.13-1.34c-3.47-1.18-6.91-2.44-10.44-3.43-4.81-1.36-9.65-2.75-14.56-3.69a128.58 128.58 0 0 0-18.14-2.56c-4.13-.18-8.24-.74-12.36-.85-3.25-.08-6.52.26-9.78.43a77.76 77.76 0 0 0-8.09.56c-5 .8-10 1.72-15 2.86a103 103 0 0 0-33.34 14.66c-6.26 4.09-12.33 8.49-18.48 12.76-.52.46-1.02.93-1.55 1.36zm213-6c2.76.28 5 .67 7.17.69a112.51 112.51 0 0 1 12.84 1c3.46.43 7 .55 10.42 1 5.89.86 11.79 1.7 17.6 3 9.57 2.07 19.12 4.32 28.2 8.1 5 2.08 10 4.32 14.75 6.84a67.68 67.68 0 0 1 13.8 10.2 3.5 3.5 0 0 0 1.08.44 65.57 65.57 0 0 0-9.54-11.67 77.19 77.19 0 0 0-6-5.11 81 81 0 0 0-13.1-8.74 83.07 83.07 0 0 0-16.13-6.63 80.42 80.42 0 0 0-22-3.63h-10.31a75.8 75.8 0 0 0-9 .53c-4.79.68-9.54 1.64-14.29 2.56-1.79.32-3.42.87-5.53 1.44zm-235.63 80c-1.37 1.11-2.78 2.18-4.1 3.34l-9.1 8.11q-7.71 7-15.4 14a18.36 18.36 0 0 1-1.56 1.5c-3.74 2.69-6.49 6.33-9.34 9.85-2.3 2.83-4.26 5.94-6.35 9-.09.12.05.41.11.76a5.25 5.25 0 0 0 .89-.52l10.65-9.22c4.44-4 8.87-8 13.15-12.2 6-5.85 12-11.67 17.3-18.23 1.47-1.96 3.02-3.84 3.71-6.39zm-44.84 97.46c-5.38 15.12-10.39 29.74-8.49 45.66a12.51 12.51 0 0 0 2.48-5.3 106.5 106.5 0 0 1 5.32-20.61 73 73 0 0 0 3-11.08c.67-3.25-.56-5.68-2.35-8.67zm389.82 56.11c-.8.46-1.5.8-2.12 1.23a5.15 5.15 0 0 0-2.59 5c.24 3.66.06 7.35.07 11 0 .48.08 1 .15 1.75 3.13-6.12 5.07-12.1 4.45-18.98zm-396.86-3.31l3.53-9.33-.62-.3c-1 1.93-2 3.87-3.12 5.77a3.28 3.28 0 0 0 .17 3.86zm10-51.3v-9.09c-.63 1-.93 2.14-1.45 3.16-1.2 2.22-.08 3.82 1.41 5.93zm-13 58.4c.87-2.24 3-4.23 1.39-7.44a15.18 15.18 0 0 0-1.47 7.44zm403.51-4.56c-2.12.27-2.19.49-1.86 5zm-403.56 9.14h.68l-.15-3h-.57a3.69 3.69 0 0 0-.04 3zm397.67-208.62l.45-.44c-.31-.25-.62-.49-1-.72 0 0-.26.27-.24.29.2.3.46.59.71.87z" class="g"/><path d="M310.52 475.45l.13-15.94.13-3.08a8.64 8.64 0 0 1 1.11 1.69l2.65 7.43c1.53 3.92 3.57 7.56 7 10.15 5.26 4 10.53 8 16 11.73 12.75 8.77 25.7 17.23 39.16 24.88 6.86 3.91 13.64 8 20.61 11.67s13.89 6.89 20.87 10.24a153.84 153.84 0 0 0 20.93 8.18 51.54 51.54 0 0 0 14.48 2.81c9.72.13 19.47.51 29.16-.86 4.32-.61 8.7-.83 13-1.56 6.73-1.15 13.45-2.4 20.11-3.94a195.67 195.67 0 0 0 29.45-9c7.34-3 14.48-6.29 20.87-11.06a28.58 28.58 0 0 0 7.74-8.35c2.55-4.32 5.38-8.48 8.15-12.67a9 9 0 0 1 1.67-1.52l-2 7.84c-1.14 5.52-2.47 11-3.14 16.59-.6 5-.44 10 1.89 14.74a16.64 16.64 0 0 0 9 8.45 2.83 2.83 0 0 1 .56.42l-.65.89h3l2.75 1a12.18 12.18 0 0 1 .52 3.27 63.68 63.68 0 0 1-1.52 8.92c-1.71 6.23-5.12 11.67-8.64 17a154.13 154.13 0 0 1-15.3 19.61q-6.59 7.13-13.52 13.92a56.8 56.8 0 0 1-6.91 5.51c-4.49 3.19-9.07 6.24-13.62 9.33a7.71 7.71 0 0 1-1.48.62 14.78 14.78 0 0 1 1.43-2l19.63-19.74 20-20.75a19.77 19.77 0 0 0 4.68-8.25 122.88 122.88 0 0 0 3.81-19.26c.36-2.6.61-5.22.91-7.83a11.73 11.73 0 0 0-1.24 2.89q-3.78 12.76-7.52 25.53a6.87 6.87 0 0 1-1.76 3l-15.21 15.34q-18.5 18.66-37 37.31c-2.93 2.94-5.94 5.8-8.91 8.69l-.74.5h0a11.65 11.65 0 0 0-2.22.67c-2.61 1.37-5.14 2.9-7.78 4.24a190.69 190.69 0 0 1-35 13.61 151.32 151.32 0 0 1-31.25 5.38 101.34 101.34 0 0 1-20.52-1 141.87 141.87 0 0 1-24.83-6l-33.53-11.43-25-8.13c-.44-.66-.92-1.29-1.3-2q-2.76-5-5.47-10.12-15.8-29.45-31.59-59.08l-4.78-9.09-.1-.16a1.62 1.62 0 0 1-.1-.18l.23.31c.48 2 .89 4 1.47 6 2.19 7.52 4.42 15 8.37 21.87l26.76 47.42a21 21 0 0 1 .87 1.93 4.63 4.63 0 0 1-1.37-.26 70.23 70.23 0 0 1-20.34-16.48 85 85 0 0 1-14.37-24.15 112.16 112.16 0 0 1-8.2-36.16 21.42 21.42 0 0 1 2.33-.48 11.15 11.15 0 0 0 7.55-4.24 46.88 46.88 0 0 0 5.45-7.83c4.07-7.52 6.11-15.74 7.78-24.06 2.97-14.81 4.05-29.81 4.7-44.92z" class="f"/><path d="M583.69 496.29a9 9 0 0 0-1.67 1.52c-2.77 4.19-5.6 8.35-8.15 12.67a28.58 28.58 0 0 1-7.74 8.35c-6.39 4.77-13.53 8.09-20.87 11.06a195.67 195.67 0 0 1-29.45 9c-6.66 1.54-13.38 2.79-20.11 3.94-4.3.73-8.68.95-13 1.56-9.69 1.37-19.44 1-29.16.86a51.54 51.54 0 0 1-14.48-2.81 153.84 153.84 0 0 1-20.93-8.18c-7-3.35-14-6.62-20.87-10.24s-13.75-7.76-20.61-11.67c-13.46-7.65-26.41-16.11-39.16-24.88-5.44-3.74-10.71-7.74-16-11.73-3.41-2.59-5.45-6.23-7-10.15-1-2.44-1.73-5-2.65-7.43a8.64 8.64 0 0 0-1.11-1.69c0-3.42-1.41-6.51-2.13-9.77l-7-31.41a20.62 20.62 0 0 1-.24-2.38c.21.09.55.11.61.25 1.47 3.88 2.81 7.8 4.39 11.63q3.74 9.07 7.74 18a20.31 20.31 0 0 0 6.53 7.8c2.79 2.11 5.31 4.58 8 6.86 3.44 3 6.84 6 10.37 8.83q7.35 5.91 14.88 11.58c4.26 3.21 8.55 6.4 13 9.36l23.85 15.45c2.55 1.63 5.23 3.07 7.9 4.51a217.25 217.25 0 0 0 24 11.29 139.13 139.13 0 0 0 24.5 7.13l14.51 2.72c3.29.53 6.63.77 9.94 1.12 3.08.32 6.16.83 9.25.87 4.86.07 9.72-.19 14.58-.31.32 0 .64-.07 1-.07a69.29 69.29 0 0 0 10-.89 110.3 110.3 0 0 0 15.43-3 128.6 128.6 0 0 0 21.34-7.73 148.76 148.76 0 0 0 19.21-10.68c4.53-3 8.81-6.3 13.13-9.56a102.3 102.3 0 0 0 12-10.55 5.58 5.58 0 0 1 1.64-.81l-4.68 7.61a12.68 12.68 0 0 0-.79 1.97z" class="h"/><path d="M534.69 624.43a7.71 7.71 0 0 0 1.48-.62l13.62-9.33a56.8 56.8 0 0 0 6.91-5.51q6.93-6.79 13.52-13.92a154.13 154.13 0 0 0 15.3-19.61c3.52-5.34 6.93-10.78 8.64-17a63.68 63.68 0 0 0 1.52-8.92 12.18 12.18 0 0 0-.52-3.27c-.17-.36-.33-.72-.52-1.16.17-.1.35-.29.53-.3a51.82 51.82 0 0 1 22.69 3.9c3.24 1.33 6.36 3 9.53 4.49a5.52 5.52 0 0 1 1 .91 13.8 13.8 0 0 1-.49 1.81 217.71 217.71 0 0 1-15 29.2c-2 3.16-4.08 6.51-6.9 8.82-5.21 4.27-10 9-14.91 13.52-5.86 5.43-11.49 11.11-17.24 16.67l-10.41 9.93-27.18 24.61c-5.11 4.44-10.7 8.34-16.16 12.36a26.74 26.74 0 0 1-9.53 4.35c-11.32 2.79-22.83 4.51-34.34 6.18l3.32-3.41q25.29-25 50.61-49.9c.78-.77 1.7-1.4 2.55-2.09l.57-.71h0l.5-.5h0c.32-.18.64-.36 1-.53z" class="e"/><path d="M476.31 681.56c11.51-1.67 23-3.39 34.34-6.18a26.74 26.74 0 0 0 9.53-4.35c5.46-4 11.05-7.92 16.16-12.36 9.23-8 18.17-16.36 27.18-24.61 3.53-3.24 7-6.6 10.41-9.93l17.24-16.67c4.92-4.56 9.7-9.25 14.91-13.52 2.82-2.31 4.91-5.66 6.9-8.82a217.71 217.71 0 0 0 15-29.2 13.8 13.8 0 0 0 .49-1.81l3.81 1.29a7.55 7.55 0 0 1-.33 1.86c-5.18 11.52-10.55 22.94-17.64 33.46a41.58 41.58 0 0 1-7.78 8.4c-4.8 4.09-9.34 8.49-13.9 12.85l-17.4 16.86-17.26 16.3c-9.54 8.74-19.06 17.52-29.48 25.23-4.82 3.57-9.68 7.2-15.62 8.67-6.19 1.52-12.45 2.83-18.73 3.95-7.13 1.28-14.33 2.25-21.5 3.34a9.42 9.42 0 0 1-1.19 0z" class="k"/><path d="M592.41 545.22h-3l.65-.89c1.15.23 2.36-.94 3.5.19z" fill="#b9e9ff"/><path d="M431.88 765.56c3.61.57 5.47 2.87 6.47 6.22a17.59 17.59 0 0 1-.89 13.07 58.44 58.44 0 0 1-4.62 7.55 149.39 149.39 0 0 1-19 22.81 54.37 54.37 0 0 1-7.27 5.84c-3.2 2.16-4.54 2-7.57-.3a59 59 0 0 1-15.71-17.29 33.71 33.71 0 0 1-4.53-14.5c-.38-5-1.81-9.88-3.2-14.72a30.54 30.54 0 0 1-1.66-8.68c0-3.72 1.24-5.31 4.92-6.27a51.64 51.64 0 0 1 7.12-.37c4.19.33 8.36 1 12.52 1.58l11.79 1.69 12 1.77 9.63 1.6zm-30.77 12.2l5.27 4.09c1.58 1.2 3.18 2.4 4.84 3.48a5.67 5.67 0 0 0 2 .39 5.49 5.49 0 0 0 0-1.52c-1.57-4.26-4-7.75-8.21-9.88-6.84-3.51-14.18-4.08-21.67-3.94a1.42 1.42 0 0 0-1.58 1.65 23.2 23.2 0 0 0 .44 4.73c1.1 4.26 3.91 7.44 7.09 10.3a9.17 9.17 0 0 0 1.64 1c-.13-1.57-.29-2.83-.33-4.1-.09-2.87-.3-5.75-.14-8.61.15-2.52 1.15-3.06 3.53-2.19a19.7 19.7 0 0 1 7.15 4.65c-2.75.26-4.45 2-5.74 4.19a26.48 26.48 0 0 0-3.67 15.12c.25 5.23 3.3 8.46 7.48 10.92 1.22.71 1.76.42 2.51-.75a24.87 24.87 0 0 1 1.55-2.11l3.47-4.16-3.63-2.67c-1.47.44-2.15 1.9-3.73 2v-15a9.32 9.32 0 0 1 1-4.37 15.35 15.35 0 0 0 .73-3.18zm30.17-3.2l-.24-.72a14.78 14.78 0 0 0-2.68-.53 71.25 71.25 0 0 1-12.63-.83 3.88 3.88 0 0 0-2.42.71c-1.23.75-1.07 2.05-.85 3.24s1.3 1.19 2.27 1.2l2.8.09a9.14 9.14 0 0 1-1.38 6c-2 3.86-5.61 6-9.2 8.12-.47.28-.93.58-1.4.87l.23.45a31.8 31.8 0 0 0 3.36-1 32.24 32.24 0 0 0 8.21-5.3l11.67-9.92c.77-.74 1.51-1.58 2.26-2.38z" fill="#a67961"/><path d="M431.88 765.56l-9.63-1.6-12-1.77-11.79-1.69c-4.16-.57-8.33-1.25-12.52-1.58a51.64 51.64 0 0 0-7.12.37l-.36-.77 26.23-4.17c0-2.62.09-5.16-.06-7.68 0-.66-.75-1.35-1.27-1.92l-13.74-14.69a34.83 34.83 0 0 1-3.53-4.5q-11.53-17.64-23-35.32c-.43-.67-.93-1.3-1.39-1.94l-4-6.23-.47-.52h0a19.41 19.41 0 0 0-1-1.87l-17.84-27.5-11-17.65-.44-.52h0a21 21 0 0 0-.87-1.93l-26.76-47.42c-4-6.88-6.18-14.35-8.37-21.87-.58-2-1-4-1.47-6h0l4.78 9.09q15.79 29.68 31.59 59.28 2.72 5.07 5.47 10.12c.38.69.86 1.32 1.3 2 .77 1.48 1.42 3 2.32 4.42q11.6 18 23.26 36l4.78 7.15 3.71 5.71a11.76 11.76 0 0 0 .55 1.06q10.66 16.51 21.36 33a13.7 13.7 0 0 0 2.06 2.32q7.89 7.35 15.82 14.66c.45.42 1 .77 1.52 1.21.75-.67 1.4-1.25 2-1.84l30.52-28.43c8.66-8.27 17.05-16.83 25.56-25.27l4.6-4.73 4.8-4.66q18-18.18 36-36.38a11.75 11.75 0 0 0 1.17-1.66h0l.74-.5 8.91-8.69q18.52-18.63 37-37.31L574.51 578a6.87 6.87 0 0 0 1.76-3q3.72-12.78 7.52-25.53a11.73 11.73 0 0 1 1.24-2.89l-.91 7.83a122.88 122.88 0 0 1-3.81 19.26 19.77 19.77 0 0 1-4.68 8.25l-20 20.75L536 622.41a14.78 14.78 0 0 0-1.43 2h.22l-1 .53h0l-.5.5h0l-.57.71c-.85.69-1.77 1.32-2.55 2.09q-25.32 24.93-50.61 49.9c-1.13 1.11-2.22 2.27-3.32 3.41l-4.9 4.78-11.73 11.29q-24.37 23.25-48.74 46.47a14.18 14.18 0 0 0-2.61 3.09c-1.56 2.72-1.68 5.42 2.1 7.32l19.4 9.94c.77.34 1.44.76 2.12 1.12z" fill="#624b3f"/><path d="M357.66 682.09l4 6.23c-1-.36-2.15-.62-3.15-1.08a217 217 0 0 1-23.95-13.08c-16.05-10.06-31.25-21.32-46.44-32.58l-13.13-9.63a52 52 0 0 1-14.51-16c-5.65-9.43-9-19.75-11.23-30.4-1.25-5.83-2-11.78-2.86-17.68-.33-2.21-.39-4.45-.57-6.67.15-.27.31-.76.46-.76 1.29 0 2.58.12 3.86.2.13 1.83.15 3.67.39 5.48.77 5.76 1.41 11.55 2.5 17.25a96.61 96.61 0 0 0 10 28.59 48.31 48.31 0 0 0 13.62 16.17l25.91 18.93c15.63 11.51 31.49 22.67 48.57 32 1.93 1.05 4 1.75 6.08 2.61h0z" class="k"/><path d="M822.46 693.74l-3.12 5.32-9.9 16.9q-6.3 11.13-12.38 22.37c-2.44 4.48-4.71 9.05-7.08 13.58l-3.26 6.11a2.6 2.6 0 0 0-.24 1.87l3.42-4.15 10.61-12.88a11 11 0 0 1 2.25-1.61h0c-1 1.8-1.92 3.65-3 5.41a112 112 0 0 0-8 17.33 178.82 178.82 0 0 0-7.4 24.17 184.53 184.53 0 0 0-4.18 21.72c-.1.83-.31 1.64-.58 3.06l3.76-2.64 19-14.06a3.4 3.4 0 0 1 .9-.29h0a4.57 4.57 0 0 1-.59 1.26l-5.83 6.34-14 15.05-11.54 12.46c-1.45 1.55-1.49 1.49-3.46.69a21.16 21.16 0 0 1-10.28-9.3 37.47 37.47 0 0 1-5.15-16.75l-.74-11.3-10.74 28.16a14.39 14.39 0 0 1-1.12-1.84l-6.67-16.9a5.94 5.94 0 0 1-.18-3.73l4.87-21.88c.93-4.75 1.37-9.59 2.09-14.38a81.59 81.59 0 0 0 1-11.89c0-2.86.37-5.72.38-8.58 0-2.22-.24-4.45-.43-6.67a28.28 28.28 0 0 1 1.83-12c1.69-4.73 3.58-9.39 5.56-14 1.5-3.52 3.14-7 5-10.37l11.48-20.73a17.08 17.08 0 0 1 2.26-3.34c-.67 5.42-2.3 10.58-3.4 15.85l-3.39 16.1-2.9 15.94-2.5 16.24-2.53 16.18.53.14 2.25-5.4q6-15.39 11.86-30.8a181.41 181.41 0 0 1 22.21-41.45 161.85 161.85 0 0 1 11-13.53 199.59 199.59 0 0 1 14.2-14.59c5.18-4.7 10.8-8.92 16.36-13.18a134.33 134.33 0 0 1 22.27-13.51c.42-.21.86-.36 1.51-.63a2.81 2.81 0 0 1-1.4 2.69c-3.75 2.55-7.46 5.18-11.31 7.58-4.13 2.57-8.46 4.82-12.58 7.4-3.49 2.19-6.06 5.41-8.51 8.67a141.13 141.13 0 0 0-10.93 17.4c-5.18 9.48-9.61 19.29-13.87 29.19q-8 18.59-14.73 37.63-5 14.22-10 28.45a2.87 2.87 0 0 0 0 1.89l2.61-4.45a255.46 255.46 0 0 1 17.64-27.32l9.59-13.12c3.81-5 7.76-9.9 11.67-14.83l7.83-9.63a9.49 9.49 0 0 1 2.06-1.48zm-52.12 72.15s.12-.05.14-.09 0-.12 0-.18l-.22.12zM24.49 777.91l8.79 14.7c3.15 5 6.49 9.85 9.82 14.72a16.08 16.08 0 0 0 2.67 2.74c.37.32 1.18.65 1.43.47a2.08 2.08 0 0 0 .81-1.52c-.07-2.07-.26-4.13-.48-6.18l-.88-7.33a36.77 36.77 0 0 0-3.74-13.26c-2.54-4.79-5.31-9.46-8-14.15a93.39 93.39 0 0 1-7.49-16l-7.12-21.33c-1.42-4.55-2.51-9.21-3.7-13.84-.48-1.87-.13-2.36 1.77-2.92 2.83-.82 6 .73 7.76 3.82a27.75 27.75 0 0 1 3.27 9.68c.92 5.81 1.57 11.68 3.35 17.3l7.79 23.86c1.73 5 3.67 10 5.68 15l8.46 20.06a14.47 14.47 0 0 0 2 3.62c-.12-1-.34-2-.36-3l-.49-25.38v-14.63l.49-21.31c.09-3.1.48-6.2.39-9.3-.12-4.21-.55-8.41-.86-12.61-.16-2.14-.28-4.29-.53-6.42-.47-4-.84-8.07-1.58-12-1.07-5.7-2.32-11.37-3.7-17a154.64 154.64 0 0 0-6.41-19.78l-13.71-34.7-9.17-22.09-4-9.73a2.71 2.71 0 0 1 2.05 1.42c2.82 4.15 5.76 8.24 8.32 12.54 5.78 9.7 10.14 20.1 14.06 30.65 3.31 8.88 6.16 18 9 27 4.1 12.82 7.53 25.84 10.57 38.95l6.47 30.07c1.12 5.52 2 11.09 2.86 16.66 1 6.94 2 13.9 1.49 20.93a46.07 46.07 0 0 1-1.21 7.76 69.48 69.48 0 0 1-5.31 14.59c-2.19 4.35-4.32 8.74-6.34 13.17a20.51 20.51 0 0 0-2 9.5 13.89 13.89 0 0 1-.62 4.23c-1 3.4-4 4.91-7.57 3.79a25 25 0 0 1-8.89-5 42.75 42.75 0 0 1-9.64-12.71c-4.9-9.32-9.2-18.78-13.2-28.39-.69-1.63-.57-1.95 1-2.88l4.09-2.49c.78-.43 1.65-.8 2.61-1.28zm676.9 44.05c-1.33-3.73-2.83-7.41-4-11.19-1.51-5-2.94-10.1-4-15.23-1.49-6.9-2.69-13.87-3.91-20.83-.87-5-1.67-10-2.31-15.06-.5-3.85-.79-7.75-1-11.63-.26-4.29-.44-8.6-.47-12.9a86.49 86.49 0 0 1 2-17.49 140.36 140.36 0 0 1 6.22-22.54c2.5-6.64 5.29-13.17 8.09-19.68 1.54-3.6 3.27-7.11 5.06-10.59 4.16-8.09 8.66-16 13.6-23.64 3-4.68 6.16-9.3 9.26-13.93a3.4 3.4 0 0 1 1.67-1.36c-.31 1-.56 2.09-.95 3.1a334.42 334.42 0 0 0-12.86 41.51l-6.58 29.06c-1.37 6.6-2.41 13.28-3.41 20-.81 5.41-1.35 10.87-2 16.31l-1.84 15.37c-.28 2.68-.34 5.39-.55 8.09l-.88 10.93v.72l-.5 15.77-.43 17.7c0 5 .28 10 .43 15.06v2.39zm-57.6-222.92l1.42 6.91a70.32 70.32 0 0 1 .42 16 71.38 71.38 0 0 1-3.25 16.58 137.72 137.72 0 0 1-8.34 20.88l-9.11 18.75a56.67 56.67 0 0 0-2.94 8.32 6.71 6.71 0 0 0 0 4c1.19 3.05.53 6 0 8.93a175.58 175.58 0 0 1-5.59 20.26c-5 15.41-10.63 30.57-16.53 45.64l-9.91 25.4-12 29-3.79 9.31a4.83 4.83 0 0 1-1.34 1.92l1.33-11.07 1.06-9.72 1.06-8 2.28-13.38 3.52-18c2.47-11.42 6.68-22.27 11-33.09l6.83-17.37 9.42-22.76 13.7-32.65 13.3-31a76.79 76.79 0 0 0 6.14-22.73l1.2-11.86zM86.56 830.99l-1-7.44q-.74-6-1.38-12.07l-.51-6.19c-.2-9.42-.58-18.84-.41-28.26a54.87 54.87 0 0 1 2.4-15.27c.84-2.65 2-5.2 3.08-7.78 4-9.92 7.38-20 10.4-30.31 1.68-5.73 3.55-11.41 5.38-17.11a56.91 56.91 0 0 0 2.19-12.9c.67-8 .48-16 .39-23.94-.06-5.17-.57-10.33-.87-15.5v-1.67l-.92-13.09a15 15 0 0 1 .25-3.87l1.6 8.13q1.56 8.31 3.09 16.63 2.07 11.13 4.15 22.26l2.59 13.82 1.69 10.34c.54 3.45-1.09 6.07-2.61 8.79l-9.6 16.84a114.92 114.92 0 0 0-8.68 18.92 71.56 71.56 0 0 0-2.74 11.83c-.92 5.12.7 9.94.92 14.91.16 3.9 0 7.81-.18 11.71-.08 2-.41 3.95-.6 5.93a135.4 135.4 0 0 1-4.29 22.22l-3.37 11.95a7.87 7.87 0 0 1-.55 1.18zm605.65-230.54l-.54 2-7.56 23.2-11.61 39.66q-4.38 15.62-8.21 31.4c-2.2 9-4.17 18.12-6 27.23-1.3 6.37-2.35 12.81-3.37 19.24-.66 4.15-1 8.35-1.55 12.52l-.72 5.49c-.12-1-.22-1.4-.22-1.84l.05-16.55c.11-3.89.58-7.77.87-11.65l.52-7.14.91-9 1-8.75c.78-5.5 1.44-11 2.52-16.48q2.31-11.69 5.15-23.27a222.14 222.14 0 0 1 11-33.33c2.35-5.58 4.82-11.13 7.59-16.52 2.65-5.17 5.76-10.11 8.69-15.14a10.93 10.93 0 0 1 1-1.26zm101.77 31.71a10.72 10.72 0 0 1 .86-2.15l15.66-23.16a5.4 5.4 0 0 1 4.79-2.52h15.34a18.83 18.83 0 0 1 3.21.68 14.52 14.52 0 0 1-2.11 2.43l-14.92 9.92-21.73 14.35a6.21 6.21 0 0 1-1.09.44zm-2.39 2.4a15.48 15.48 0 0 1-.84 1.68l-13.68 21.3c-2.74 4.31-5.36 8.68-8 13a1.16 1.16 0 0 1-1 .55 32.38 32.38 0 0 1 .87-3.25c2-5.46 3.84-11 6.12-16.32a24.37 24.37 0 0 1 5.4-8.1 76.52 76.52 0 0 1 9.84-8.32 6.67 6.67 0 0 1 1.28-.55z" fill="#02e2ac"/><g fill="#82a6ff"><path d="M652.14 767.56a1.51 1.51 0 0 1 .21.46l.53 14.58c.21 3.89.61 7.77.88 11.65a15.68 15.68 0 0 1-.16 3.55 92.49 92.49 0 0 1-1.46-30.24zm169.65-74.46l.37-1.27.51.27-.85 1zm-54.81-18.61l-.17.05a.53.53 0 0 1 0-.2s.11 0 .17-.06zm35.16 66.14l.19-.64-.18.65zm21.13-49.91l.2-.2v.13a.77.77 0 0 1-.16.07z"/><path d="M823.27 690.72l-.19.21v-.13c0-.02.11 0 .16-.08zm-29.75-58.07l.46-.49h0l-.49.46z"/><path d="M793.5 632.63l-.1.2.12-.18zm9.12 162.72l.22-.19-.2.21zm-11.03-160.79l.19-.2v.12a.4.4 0 0 1-.16.08z"/></g><path d="M357.21 681.56l-6.08-2.61c-17.08-9.29-32.94-20.45-48.57-32l-25.91-18.93a48.31 48.31 0 0 1-13.62-16.17 96.61 96.61 0 0 1-10-28.59c-1.09-5.7-1.73-11.49-2.5-17.25-.24-1.81-.26-3.65-.39-5.48l3.44-.47c1.66-.13 3.32-.21 5-.39q12.06-1.33 24.11-2.72a112.16 112.16 0 0 0 8.2 36.16 85 85 0 0 0 14.37 24.15 70.23 70.23 0 0 0 20.34 16.48 4.63 4.63 0 0 0 1.37.26h0l.44.52 11 17.65 17.84 27.5a19.41 19.41 0 0 1 .96 1.89z" class="e"/><path d="M282.71 557.02q-12.06 1.37-24.11 2.72l-5 .39 1.51-2.43 21.72-29.23a400.9 400.9 0 0 0 27-41c2.1-3.74 3.92-7.65 5.89-11.48.13-.25.48-.39.73-.58-.58 15.15-1.66 30.15-4.66 45-1.67 8.32-3.71 16.54-7.78 24.06a46.88 46.88 0 0 1-5.45 7.83 11.15 11.15 0 0 1-7.55 4.24 21.42 21.42 0 0 0-2.3.48z" fill="#06041e"/><path d="M898 133.78a3.22 3.22 0 0 0 1.21.28c3.51-.63 7-1.54 10.52-1.92a40.5 40.5 0 0 1 7.85.24 55.73 55.73 0 0 1 6.81 1.06 43.08 43.08 0 0 1 14 5.45c2.95 1.88 5.89 3.78 8.71 5.84a77.43 77.43 0 0 1 12.08 11.52A145.11 145.11 0 0 1 971.45 173c.17.26.31.53.66 1.15-.66-.18-1.05-.17-1.27-.36l-7.57-6.57a134.31 134.31 0 0 0-19.2-14.22 88.78 88.78 0 0 0-19.28-8.86 62.91 62.91 0 0 0-10.48-2.14c-4.07-.58-8.12-.25-12.18-.4l-16-.5a4.89 4.89 0 0 1-.85-.25 4.1 4.1 0 0 1 2.1-1.8c1.21-.63 2.47-1.16 3.63-1.86a7.38 7.38 0 0 0 1.34-1.48z" transform="translate(-461.21 -121.44)" fill="url(#A)"/><path d="M283.89 196.79l.63.54-.75.43z" fill="#3f41b2"/><path d="M548.66 199.92l7.53-10.31a3.42 3.42 0 0 1 2-1.09c4.31-.81 8.62-1.74 13-2.21a174.44 174.44 0 0 1 17.68-1.24c9.77-.08 19.47.84 28.79 4.14a43.2 43.2 0 0 1 19.26 12.93c5.24 6.27 10.23 12.7 13.82 20.1a33.86 33.86 0 0 1 3.4 10.92 8.17 8.17 0 0 1-.55 4.58c-.79-.43-1.49-.78-2.15-1.18l-33.34-20.39c-8.72-5.39-18.27-8.31-28.33-9.79a101.19 101.19 0 0 0-19.6-.88c-3.91.19-7.81.62-11.68 1.13a3.35 3.35 0 0 1-3-.76l-6.83-5.95zm-199.58-19.8l3.3-4.36a80.07 80.07 0 0 1 17.3-16.13 14 14 0 0 1 5.68-2.32 174.47 174.47 0 0 1 36.5-2.7 117.19 117.19 0 0 1 34.93 6.55 34.55 34.55 0 0 1 18.9 16 24 24 0 0 1 2.07 4.3c.94 2.7.15 4.23-2.65 4.73a28 28 0 0 1-6.9.32c-3.1-.23-6.17-.82-9.24-1.36a4.22 4.22 0 0 1-2.06-1.07c-6.17-6-13.84-8.74-22-10.31-9.64-1.84-19.37-1.86-29.13-1.19a242.56 242.56 0 0 0-44.78 7.66c-.53.14-1.08.18-1.62.27z" class="g"/><path d="M509.05 232.12c.09.2.27.41.25.6l-1.35 12-.54 7.36-.76 6.37c-.15 2.47-.51 5 0 7.39 1.1 5.28 2.67 10.46 4 15.69l2.9 11.31a11 11 0 0 1 .06 3.34 3.17 3.17 0 0 1-1.85 2.59c-2.92 1.63-6.07 1.38-9.13 1a69.22 69.22 0 0 1-8.36-1.81 8.44 8.44 0 0 1-6.09-7.67 29.17 29.17 0 0 1 3.68-15.73c1.8-3.37 3.79-6.64 5.61-10a28.72 28.72 0 0 0 1.85-4.39q3.87-11.43 7.65-22.9c.57-1.72 1.06-3.47 1.59-5.2z" fill="#ffdad2"/><path d="M429.03 409.56l14.47-.49c1.1 0 2.2.36 3.3.35a92 92 0 0 1 19.14 2.25 67.06 67.06 0 0 1 17.52 6.18 40.51 40.51 0 0 1 11.86 9.64 6.25 6.25 0 0 1-1.45.16 58.87 58.87 0 0 0-12.36-.9c-4.89.23-9.67 1-13.94 3.63a39.61 39.61 0 0 0-3.9 3.08 27.23 27.23 0 0 1-1.76-2.13c-2.27-3.27-5.4-5.62-8.51-8a90 90 0 0 0-15.68-9.14c-2.23-1.07-4.53-2-6.79-3-.71-.31-1.38-.72-2.07-1.08z" class="h"/><path d="M567.72 359.44c2-.82 3.13 0 4.24.72a47.25 47.25 0 0 1 5.09 3.55 57.23 57.23 0 0 1 14.5 17.25 26.63 26.63 0 0 1 3.19 10.67c.34 4.53-1.23 8.68-3.59 12.43a36.06 36.06 0 0 1-9 10.13l-10.07 7.62a24.11 24.11 0 0 1-2.68 1.52 4.23 4.23 0 0 1 1.52-5c.83-.62 1.71-1.17 2.59-1.72a13.35 13.35 0 0 0 5.53-7.26 47.4 47.4 0 0 0 2.75-19.79 40.23 40.23 0 0 0-6.11-18.17c-2.06-3.3-4.43-6.41-6.64-9.62-.5-.66-.83-1.44-1.32-2.33zm-182.23 51.02a10 10 0 0 1 1.26 1 44.56 44.56 0 0 0 10.91 7.66q6.2 3.4 12.43 6.7c5.9 3.11 10 8 13.4 13.57.58 1 1.19 1.89 1.68 2.89a5.87 5.87 0 0 1 .63 2c.16 1.72-.63 2.44-2.29 2a23.44 23.44 0 0 1-4.54-1.49c-3.58-1.74-7.2-3.44-10.58-5.51a47.24 47.24 0 0 1-11.27-10.23 88.75 88.75 0 0 1-8.73-12.22c-1.17-2-2.25-4-3.37-6zm48.85-118.26l-2 3.34-2.61 4.84a12.87 12.87 0 0 0 .79 12.16c3 5.25 7.91 8.18 13.27 10.48a47.08 47.08 0 0 1 6.48 3 45.93 45.93 0 0 1-4.55-.76c-5.29-1.44-10.62-2.81-15.82-4.54a54.4 54.4 0 0 1-9.11-4.16 8.88 8.88 0 0 0-5.73-1.14 75.48 75.48 0 0 0-19.36 5.88l-6.26 2.75-.29-.5 11.43-7.33 11.52-7.7a344.26 344.26 0 0 0 11.21-8.15c3.68-2.79 7.15-5.65 10.72-8.48z" class="d"/><path d="M547.18 391.61c-.6 1.59-2 1.77-3.18 1.93a9.54 9.54 0 0 1-5.39-.68 75.31 75.31 0 0 0-15.09-5.24 39.33 39.33 0 0 1-7.33-2.86c-3.13-1.43-6.14-3.1-9.26-4.52a44.7 44.7 0 0 0-12.63-3.41 74.35 74.35 0 0 0-10.19-.92 31.32 31.32 0 0 1-11.61-2.42 83.76 83.76 0 0 0-18.58-5.2c-4.46-.63-9-1.22-13.55-.19a18.86 18.86 0 0 1-2.39.07l-10.92.89-6.89.54a64.68 64.68 0 0 1-8.09.42c-4.83-.28-9.68-.68-14.29-2.35a10.71 10.71 0 0 1-2.77-1.38 2.58 2.58 0 0 1-.53-4 1.81 1.81 0 0 1 2.31-.73 14.66 14.66 0 0 1 3.65 2.12 11.73 11.73 0 0 0 6.82 3.05c6.13.85 12.28.44 18.41.33 5-.08 10-1 14.94-1.26 3.81-.17 7.63.23 11.45.35 5.89.19 11.43 1.91 16.93 3.82 2 .71 4 1.72 6 2.27a36.3 36.3 0 0 0 6.79 1.11c4.45.29 8.93.2 13.37.57a29.74 29.74 0 0 1 14.74 5c4.79 3.3 10.27 5.05 15.85 6.44l18.08 4.38c1.25.31 2.6.42 3.35 1.87z" class="i"/><path d="M592.51 250.38c-.59 6.67-4.9 11.68-11.22 12.81-5 .9-9.07-1-12.24-4.84a14.37 14.37 0 0 1-3.2-10.24c0-.79.13-1.59.19-2.38 2.74-.29 5.5-1 8.21-.8 5.49.33 10.71 2 15.82 4a18.28 18.28 0 0 1 2.44 1.45z" fill="#513d3d"/><path d="M264.63 279.13l.92 2.08a136.53 136.53 0 0 1 6.48 23.45c.44 2.68 1.06 5.41.31 8.28-.67 2.54-2.26 4.27-3.88 6.52a7.55 7.55 0 0 1-1-1.55l-2.43-8.49a2.5 2.5 0 0 0-1.84-1.86c-2.45-.9-4.87-1.92-6.43-4.32a7.53 7.53 0 0 1-1.11-6.38 44.1 44.1 0 0 1 2.81-7.6c1.52-3.07 3.39-6 5.13-8.92a11.39 11.39 0 0 1 1.04-1.21z" class="d"/><path d="M436.43 222c-1.188 7.829-8.474 13.23-16.31 12.09-7.84-.961-13.484-7.998-12.72-15.86a7.54 7.54 0 0 1 1.38-.29 80.82 80.82 0 0 1 22.3 2.17 54.84 54.84 0 0 1 5.35 1.89z" fill="#513d3d"/><path d="M492.73 455.19l2.14 2.42c3.07 3.51 7.06 3.78 11.19 2.87 5.18-1.13 9.5-4.08 13.52-7.36 3.2-2.61 6.06-5.65 9.07-8.49.56-.53 1.15-1 2.17-2a9.43 9.43 0 0 1-.36 1.76 191.25 191.25 0 0 1-11.41 20.72c-1.28 2-3.08 3.65-4.47 5.58-1.83 2.55-4.41 2.46-6.89 1.84a18.25 18.25 0 0 1-8.08-4.46c-2.55-2.43-5.05-4.9-6.14-8.38-.43-1.35-1.14-2.71-.74-4.5z" class="d"/><path d="M436.43 222a54.84 54.84 0 0 0-5.35-1.89 80.82 80.82 0 0 0-22.3-2.17 7.54 7.54 0 0 0-1.38.29 45.23 45.23 0 0 0-14 1.73c-5 1.47-9.92 2.31-15.09 1.38a38.27 38.27 0 0 0-4-.28c3.21-2.24 5.79-4 9.37-4.34 11.21-1.05 22.38-2.4 33.66-2.6a35.89 35.89 0 0 1 15.15 3c4.46 1.94 8.83 4.11 13.24 6.16 1.81.84 3.69 1.53 5.43 2.47a17.55 17.55 0 0 1 7.31 7.94c-4.14 1.22-8 .09-11.94-.36l5.85-1.7c-1.59-3.62-10.17-8.72-15.95-9.63z" class="g"/><path d="M254.07 267.64c-1.15-8.65.65-16.53 4.15-24.1a34 34 0 0 1 5-8.08c3.2-3.74 9.12-4.57 12.17-.51l-.84 1.54-5.86 10.12a117 117 0 0 1-11.28 17.1l-3.34 3.93z" class="d"/><path d="M592.51 250.38a18.28 18.28 0 0 0-2.44-1.43c-5.11-2-10.33-3.69-15.82-4-2.71-.17-5.47.51-8.21.8-5 .76-9.35 3-13.57 6.07l2.6 5a29.56 29.56 0 0 1-7.28-2.26 14.37 14.37 0 0 1-2.92-1.63c-1.3-1-1.2-2 .27-2.77a40.18 40.18 0 0 1 3.79-1.47c4-1.48 8.06-2.7 11.87-4.51a27.82 27.82 0 0 1 17.31-2.06c3 .53 5.93 1.32 8.9 1.94 4.12.87 7.7 3 11.16 5.17 7.94 4.94 15.62 10.29 23.41 15.48.26.17.49.38.78.6a6.57 6.57 0 0 1-6.44-.69c-5.78-4.16-11.36-8.61-17.75-11.83-1.81-.95-3.76-1.62-5.66-2.41z" class="g"/><path d="M674.86 336.29q2.09-5 4.16-10a16.9 16.9 0 0 1 6 9.18c.92 3.6.19 7.11-.28 10.65a52.61 52.61 0 0 1-3.62 12.83c-.38.95-.72 1.94-2 2.34a8.3 8.3 0 0 1-.47-4.37 24.66 24.66 0 0 0-.15-6.18 55.62 55.62 0 0 0-1.18-7.51c-.61-2.34-1.62-4.62-2.46-6.94z" class="h"/><path d="M519.84 338.33a19.18 19.18 0 0 0 13.51-3 18.81 18.81 0 0 0 8.16-11.36c1.14-4.81-.79-9.1-2.23-13.51a18.66 18.66 0 0 1 3.79 7.57 23.78 23.78 0 0 1 .32 12c-1.32 5.76-5.37 8.58-10.82 9.81-3.92.88-7.71.18-11.47-.94a12.56 12.56 0 0 1-1.26-.57z" class="i"/><path d="M460.41 305.98a6.74 6.74 0 0 1 5.47 2.23c2.24 2.15 4.3 4.49 6.35 6.82a1.78 1.78 0 0 1 .3 1.63 1.92 1.92 0 0 1-1.65.56 18.43 18.43 0 0 1-3.57-1.31 55.9 55.9 0 0 0-12.81-4.51 12.14 12.14 0 0 1-2.48-.86c-.45-.22-1.13-.74-1.08-1a2.68 2.68 0 0 1 1-1.4 3.56 3.56 0 0 1 1.5-.73l6.97-1.43z" class="d"/><path d="M497.79 319.4a36.75 36.75 0 0 1 4-.93l15.83-1.67a4.2 4.2 0 0 1 3.61 1.52 3.33 3.33 0 0 1 .45 3.38c-.1.37-.83.77-1.29.8a8.74 8.74 0 0 1-2.84-.21 64.25 64.25 0 0 0-13-1.67l-5.68-.54c-.25-.03-.49-.29-1.08-.68zm157 71.3c4.45-4.84 6.65-10.83 8.53-17l.6.15a55.07 55.07 0 0 0 .06 7c.38 2.95-.82 4.73-3.22 6.19-1.93 1.17-3.67 2.67-5.49 4z" class="i"/><path d="M278.44 323.99l-.53 1.43-1.39-4.23h.7l1.22 2.8z" class="j"/><ellipse cx="451.99" cy="326.16" rx=".51" ry=".13" class="d"/><path d="M653.72 392.11a.4.4 0 0 1 .07-.43z" class="i"/><g transform="translate(-461.21 -121.44)"><path d="M1154.58 326.2l-1.54-5.61-4-17.9-1.89-8.36a62.77 62.77 0 0 0-2.64-7.41 121.68 121.68 0 0 0-13-23.64 117.4 117.4 0 0 0-8.09-10.32 173.15 173.15 0 0 0-13-13.42 130.39 130.39 0 0 0-22.52-16.45c-4.71-2.69-9.47-5.32-14.37-7.63s-9.81-4.22-14.79-6.13c-3.39-1.31-6.9-2.32-10.36-3.74a4.86 4.86 0 0 1 1.36-.07c8.12 1.93 16.29 3.67 24.25 6.25a205.3 205.3 0 0 1 21.81 8.47 129.14 129.14 0 0 1 24.5 14.78 86.3 86.3 0 0 1 12.67 11.64 91.38 91.38 0 0 1 19.79 35.13 73.8 73.8 0 0 1 3.15 15.86l.45 6.18a33.86 33.86 0 0 1 .41 6.17c-.47 4.49-.15 9.06-1.26 13.5a17 17 0 0 0-.25 2.58z" fill="url(#B)"/><path d="M815.16 197.25c.53-.43 1-.9 1.59-1.29l18.48-12.76a103 103 0 0 1 33.34-14.66c4.95-1.14 9.95-2.06 15-2.86a77.76 77.76 0 0 1 8.09-.56c3.26-.17 6.53-.51 9.78-.43 4.12.11 8.23.67 12.36.85a128.58 128.58 0 0 1 18.14 2.56c4.91.94 9.75 2.33 14.56 3.69 3.53 1 7 2.25 10.44 3.43a5 5 0 0 1 2.13 1.34c-1.43 0-2.86.05-4.28 0-1.26 0-2.52-.31-3.78-.37-4.46-.19-9-.06-13.37-.57-6.47-.74-12.93-.25-19.39-.36-3.41-.05-6.84.19-10.25.46-4.83.38-9.64.88-14.46 1.39-4.42.46-8.86.81-13.24 1.53-6.34 1.06-12.63 2.4-18.93 3.64a192.32 192.32 0 0 0-25.07 7c-5.19 1.78-10.23 4-15.32 6.1-1.62.66-3.21 1.43-4.82 2.12a2.71 2.71 0 0 1-.82.12z" fill="url(#C)"/><path d="M1028.12 191.27l5.41-1.44c4.75-.92 9.5-1.88 14.29-2.56a75.8 75.8 0 0 1 9-.53c3.43-.09 6.88-.06 10.31 0a80.42 80.42 0 0 1 22 3.63 83.07 83.07 0 0 1 16.13 6.63 81 81 0 0 1 13.1 8.74 77.19 77.19 0 0 1 6 5.11 65.57 65.57 0 0 1 9.54 11.67 3.5 3.5 0 0 1-1.08-.44 67.68 67.68 0 0 0-13.8-10.2c-4.79-2.52-9.75-4.76-14.75-6.84-9.08-3.78-18.63-6-28.2-8.1-5.81-1.25-11.71-2.09-17.6-3-3.45-.5-7-.62-10.42-1a112.51 112.51 0 0 0-12.84-1c-2.12 0-4.33-.39-7.09-.67z" fill="url(#D)"/><path d="M792.49 271.25c-.69 2.55-2.24 4.43-3.75 6.31-5.25 6.56-11.3 12.38-17.3 18.23-4.28 4.18-8.71 8.2-13.15 12.2-3.49 3.15-7.09 6.16-10.65 9.22a5.25 5.25 0 0 1-.89.52c-.06-.35-.2-.64-.11-.76 2.09-3 4.05-6.12 6.35-9 2.85-3.52 5.6-7.16 9.34-9.85a18.36 18.36 0 0 0 1.56-1.5q7.7-7 15.4-14l9.1-8.11 4.1-3.26z" fill="url(#E)"/></g><path d="M286.44 247.27c1.79 3 3 5.42 2.34 8.67a73 73 0 0 1-3 11.08 106.5 106.5 0 0 0-5.38 20.61 12.51 12.51 0 0 1-2.48 5.3c-1.87-15.92 3.14-30.54 8.52-45.66zm387.94 77.68l2.05-8.33a29.48 29.48 0 0 1 1-3.19l4.35-11 2.4.34-1.94 8c-1.51 4.77-3.21 9.49-4.83 14.22l-2.9.46c-.04-.17-.08-.34-.13-.5zm-.41 8.61l-3.88 9.23-6.71 14.27-.53-.64c2-6.34 3.7-12.8 6.66-18.81a3.88 3.88 0 0 0 .18-.69l2.76-5.31zm2.29-30.18c.62 6.88-1.32 12.86-4.49 19-.07-.79-.15-1.27-.15-1.75 0-3.67.17-7.36-.07-11a5.15 5.15 0 0 1 2.59-5c.65-.45 1.32-.79 2.12-1.25zm-397.82 20.61l-1.22-2.77a64.67 64.67 0 0 1-1-9.17l.72-.12.57 2.56.77 2.68.51-.13-.36-2.42c-.74-2.23-.22-4.43.23-6.61a2.36 2.36 0 0 1 .91-1.32c1.24-.85 2.55-1.57 4.26-2.59-.48 2.61-1.49 4.63-2.09 6.77l-1.9 6.42-.8 1.57z" fill="#eac9c5"/><path d="M673.97 333.56l-1.52-2 2.06-6.21 2.9-.46q-1.72 4.4-3.44 8.67z" class="h"/><path d="M279.4 300.07a3.28 3.28 0 0 1-.21-3.86l3.12-5.77.62.3z" class="j"/><path d="M674.51 325.44l-2.06 6.21-2.76 5.31c-.11-.11-.33-.23-.32-.32a10.53 10.53 0 0 1 2.19-5.91q1-2.88 2-5.78h.79z" fill="#4747b2"/><path d="M289.4 248.77c-1.49-2.11-2.59-3.71-1.45-5.93.52-1 .82-2.15 1.45-3.16zm-13.04 58.4a15.18 15.18 0 0 1 1.39-7.44c1.58 3.21-.52 5.2-1.39 7.44zm403.51-4.56l-1.86 5c-.33-4.51-.22-4.73 1.86-5zm-6.28 22.34q-1 2.89-2 5.78c-.34-2.41.74-4.51 1.5-6.68l.84-.27c-.14.39-.24.78-.34 1.17zm-10.74 31.51l.53.64-2.37 4.78h0zm-386.54-44.71a3.69 3.69 0 0 1 0-2.95h.57l.15 3zm2.09 2.87l.36 2.42-.51.13-.77-2.68z" class="j"/><path d="M673.9 323.78l-.84.27.85-2.25.57.19-.58 1.79z" fill="#4747b2"/><path d="M673.98 103.13l-.74-.87.24-.29 1 .72z" fill="#3f41b2"/><path d="M279.01 318.86l.8-1.57zm382 43.02l-.12.27h.1a1.18 1.18 0 0 0 0-.2z" class="j"/><path d="M362.98 684.82l-4.78-7.15q-11.65-18-23.26-36c-.9-1.39-1.55-2.94-2.32-4.42l25 8.13 33.53 11.43a141.87 141.87 0 0 0 24.83 6 101.34 101.34 0 0 0 20.52 1 151.32 151.32 0 0 0 31.29-5.42 190.69 190.69 0 0 0 35-13.61l7.78-4.24a11.65 11.65 0 0 1 2.22-.67 11.75 11.75 0 0 1-1.17 1.66q-18 18.21-36 36.38l-4.8 4.66-9.27 1-14 1.59-16.17 1.74c-4.52.43-9.06.73-13.6 1.07l-18.14 1.26c-6.05.26-12.16.14-18.24.05a25.92 25.92 0 0 1-6.14-.81c-4.21-1.11-8.23-2.43-12.28-3.65z" class="e"/><path d="M289.52 556.81l-.23-.31a1.62 1.62 0 0 0 .1.18l.1.16z" fill="#624b3f"/><path d="M513.46 639.37l-.74.5z" fill="#8fddfe"/><g class="f"><path d="M533.79 624.96l1-.53c-.34.13-.66.35-1 .53z"/><path d="M533.33 625.44l.5-.5z"/><path d="M532.79 626.13l.57-.71z"/></g><path d="M769.73 765.28l-.1-.15.22-.12v.18c0 .05-.06.06-.12.09z" fill="#8fddff"/><path d="M401.11 777.8a15.35 15.35 0 0 1-.83 3.2 9.32 9.32 0 0 0-1 4.37v15c1.58-.1 2.26-1.56 3.73-2l3.63 2.67-3.47 4.16a24.87 24.87 0 0 0-1.55 2.11c-.75 1.17-1.29 1.46-2.51.75-4.18-2.46-7.23-5.69-7.48-10.92a26.48 26.48 0 0 1 3.67-15.12c1.29-2.18 3-3.93 5.74-4.19z" fill="#39bad5"/><path d="M401.11 777.8h0a19.7 19.7 0 0 0-7.15-4.65c-2.38-.87-3.38-.33-3.53 2.19-.16 2.86.05 5.74.14 8.61 0 1.27.2 2.53.33 4.1a9.17 9.17 0 0 1-1.64-1c-3.18-2.86-6-6-7.09-10.3a23.2 23.2 0 0 1-.44-4.73 1.42 1.42 0 0 1 1.58-1.65c7.49-.14 14.83.43 21.67 3.94 4.16 2.13 6.64 5.62 8.21 9.88a5.49 5.49 0 0 1 0 1.52 5.67 5.67 0 0 1-2-.39c-1.66-1.08-3.26-2.28-4.84-3.48-1.75-1.28-3.49-2.67-5.24-4.04z" fill="#dddb99"/><path d="M431.28 774.56l-2.26 2.32-11.67 9.92a32.24 32.24 0 0 1-8.21 5.3 31.8 31.8 0 0 1-3.36 1l-.23-.45 1.4-.87c3.59-2.11 7.16-4.26 9.2-8.12a9.14 9.14 0 0 0 1.38-6l-2.8-.09c-1 0-2 .1-2.27-1.2s-.38-2.49.85-3.24a3.88 3.88 0 0 1 2.42-.71 71.25 71.25 0 0 0 12.63.83 14.78 14.78 0 0 1 2.68.53z" fill="#74c69a"/><path d="M466.12 687.3l-25.56 25.27c-10 9.61-20.34 19-30.52 28.43l-2 1.84c-.56-.44-1.07-.79-1.52-1.21q-7.92-7.32-15.82-14.66a13.7 13.7 0 0 1-2.06-2.32q-10.71-16.49-21.36-33a9.59 9.59 0 0 1-.54-1.06c.85.22 1.71.4 2.54.66a45.34 45.34 0 0 0 12.93 2.23c5.82.06 11.66-.07 17.48-.34l25.57-1.53c2.07-.13 4.13-.34 6.19-.55q6.32-.64 12.61-1.33l10.68-1.23 11.38-1.2z" class="e"/><path d="M466.12 687.3l-11.42 1.2-10.68 1.23q-6.3.69-12.61 1.33l-6.19.55-25.57 1.53c-5.82.27-11.66.4-17.48.34a45.34 45.34 0 0 1-12.93-2.23c-.83-.26-1.69-.44-2.54-.66l-3.72-5.77c4 1.22 8.07 2.54 12.16 3.62a25.92 25.92 0 0 0 6.14.81c6.08.09 12.17.17 18.24-.05s12.09-.82 18.14-1.26l13.6-1.07 16.17-1.74 14-1.59 9.27-1z" class="k"/><path d="M357.66 682.09l-.47-.52z" fill="#8fddff"/><path d="M327.4 634.56l-.44-.52z" class="f"/></svg>