<svg xmlns="http://www.w3.org/2000/svg" viewBox="0 0 540.8 544.19" xmlns:v="https://vecta.io/nano"><g fill="#ffb9a1"><path d="M406 287.19s-37-22-40-14-133-8-133-8l-28 22 33 116 103 141h80l-15-183z"/><path d="M380 544.19l-10-72s-5 43-9 45-43-42-43-42l23 69z"/></g><path d="M370 399.19s-21-8-20-20 1-25 5-29 16 1 17 3-2 46-2 46zm6.6-88c-4.44 11-14.06 11-15.54-4s22.94-20 22.94-20l-2.22 18zm-151.96-35c3.52 1.53 14.09 9.16 16.2 18.33S250 319 250 319a322.21 322.21 0 0 0-12.68 38.18c-5.64 21.34-18.32-48.92-18.32-48.92zm45.36 94s28 24 71 4l3-1s-38 25-74-3z" fill="#e8a080"/><path d="M532 543.19s8-69 8-82 5-73-10-90-20-16-65-31-79-41-79-41l7 87 67.63 157.14-165.92.31L260 373.19c-1.52-6.38-9.51-19.41-15-23l-69-35-17 23h-10a121.37 121.37 0 0 1-31 18c-18 7-48 21-54 25s-10-5-20 14-14 44-16 62-28 40-28 56 7 19 7 24l-.13 6z" fill="#02e2ac"/><path d="M226.36 451.23l13 48c2 9 8 44 8 44h-6s-18-85-15-92zM172 433.19c0 1-7 4-7 19s20 62 22 71 3 17 3 17-12-35-17-44-25-78-2-63zm-24.28 63.94c-3.83-2.3 6 46 6 46h5s-6-43-11-46zm-17.82 46c.18 2-22.9-118.94-43.9-135.94s-32-23-32-23h7s16 5 30 24 34.9 90.94 38.9 134.94zM51 412.19c2.53-4.43-1 52 0 60s1 19-1 18-3-71 1-78zm-9 2c.88-4.39-5 18-9 23s-6 13-3 14 11-32 12-37zm-17 67c-1 3-14 15-17 22s-7 4-5 11 5 24 7 18 5-28 9-34 6-17 6-17zm461-108c-2.92-2.11 11 21 12 30s6 47 6 54 6 22 5 28 9 29 9 29-13-64-13-71-1-57-19-70zm-14 94c-2-2.41 33.8 57 39.8 76 0 .04-6.8-37-39.8-76zm40-73c-6.71-6.71 14 55 15 64s0 9 0 9 8-64 6-73-6-29-17-35-7 0-7 0 6 0 12 14 9 29 6 50l-1 8s-11-34-14-37z" fill="#11bc92"/><path d="M244 321.19a103.53 103.53 0 0 0 35 30c6 3.12 13.89 7.07 25 8a54.82 54.82 0 0 0 26-4 51.17 51.17 0 0 0 12.94-8.47A58.85 58.85 0 0 0 360 319.19c-1.42 3.72-13.32 33.58-40 39-14.52 2.95-27.12-2.59-37-7a108.18 108.18 0 0 1-39-30z" fill="#e8a080"/><path d="M262.69 387.19s24 2 34 22 12 32 21 50l43 85H294s-25.31-138-31.31-157zm104.31 3c0 2-15 12-12 23s2 19 6 42 9 89 9 89h91s-25-68-36-79-58-75-58-75z" fill="#fefefe"/><path d="M382 272.94s-13 23.44-18 29.31-28 44.94-58 44.94c-27.54 0-59-35.17-68-52.76-6.09-11.9-5.45-32.24-5.45-32.24l140.42 1z" fill="#e8a080"/><path d="M411 279.19c-3 0-109-44-125-39s-82 19-82 19l-8-144c1-3 78-78 94-72s103 50 103 53 36 74 36 76-12 66-12 71-6 36-6 36z" fill="#2f0c11"/><path d="M274 1.19s-53 13-79 67-12 60-28 98-7 72-17 105c-8.26 27.27-8.33 45.67-14.88 62.52a69.1 69.1 0 0 1-5.12 10.48c-12 20-29 19-29 19s30-3 40-12 12 12 10 12-17 9-30 27-14 21-13 26a24.22 24.22 0 0 0 3 8l10-26s13 38 23 43c0 0-4-49-1-54s11-26 12-11 10 43 21 57 12 17 12 17l-14-31 14 22-9-26s3 23 25 35 21 9 21 9-2-10-7-18 9 6 26 8c0 0-18-11-18-21s1-34 9-41 22-30 13-51-18-77-28-104-22-81-12-102 101-51 107-50 94 107 94 107l-27 78c-5 14-30 63-30 87s5 37 18 58 18 20 13 35-15 21-15 21l6 6v5s16-5 19-13 16-19 16-19-14 27-19 32c0 0 22-13 24-18s4 18 0 27c0 0 10-12 12-15s12 12 12 10 6-9 10-22 12 8 23 11 33-6 33-6l-11-10 11 3a96.51 96.51 0 0 1-24-27l-10-17s24 3 28 15c0 0-6-14-22-25s-27-16-15-16 14 2 23 2 14-4 14-4-11 0-18-5-12-6-12-6 25-8 33-16 9-15 6-11-23 15-35 14-17-9-16-19 11-28 9-41-15-36-9-33 12-4 12-4-6 0-8-9a193.18 193.18 0 0 0-6-20l11 14a51.44 51.44 0 0 1-11-26c-2-16 1-22 1-22l3 6s-4-20-6-38-21-69-39-95-28-49-61-64-78-9-78-9z" fill="#4c151e"/><g fill="#2f0c11"><path d="M144 334.19c-1 4-25 26-32 41s-7 23-7 23 14-17 20-23 44-21 44-21h0l-7-7c1.9-.9 15.92-7.81 18.57-22.32 2.73-15-8.38-28.42-10.57-27.68-2.59.87 7.23 21.52-2 31-4.91 5-10.69 2.3-18 9-6.73 6.17-8.13 14.27-9 14-.55-.19-.29-3.57 3-17zm123-289s17-18 38-18 89 26 101 92l6 32s-12-48-23-60-37-39-67-35-33 0-33 0v-4l-12-2zm4 16s-23-9-33-10-20-1-30 10-10 8-10 8 21-19 40-14a199.72 199.72 0 0 0 33 6zm-16 8s-13 3-26 0-16 0-16 0 28-3 42 0zm0-30s-10-12-21-7-16 11-16 11 21-17 37-4zm2-17s25-30 68-10 67 58 67 58-53-66-85-56-29 20-32 23a50.33 50.33 0 0 1-8 6l-2-12h-7zm-76 157s8 23 17 44 15 71 15 71 22 28 14 53-21 35-15 51 6 20 6 20-9-13 0-34 28-48 9-86-35-104-29-128a91.92 91.92 0 0 0 1.94-10c2.41-17.6-1.94-27-1.94-27a59.45 59.45 0 0 1-8 31s-8-36 0-50 8-21 8-21-23 45-17 86z"/><path d="M198 325.19s7 16-8 31-39 9-25 34 16.93 33.46 20 42.23-25-42.23-10-59.23 36-7 15-79-15-85-15-85-5 75 23 116zm227-31a328.33 328.33 0 0 0 18 45c11 22 18 39 18 39s-5-7-18-17-13-18-13-14-14 13-5 26 2 28 2 32-1 13 3 26-14-23-17-41-5-44 0-56 5-67-3-111-7-58-7-58 23 102 22 129z"/></g><path d="M330 328.19a115.09 115.09 0 0 0 20-14c9-8 29-33 32-45s7-36 8-41 3-16 0-38-7-30-9-50-12-34-22-45-16-20-40-21-30-10-54 0-27 22-31 37c0 0 3 4 0 10s-18 19-20 36-2 35 0 42 6 32 7 43 8 36 15 46 30 36 38 39 32 13 56 1z" fill="#ffb9a1"/><path d="M271 171.19a8 8 0 1 1-15.21-3.47h0a8 8 0 0 1 4-3.87 18.71 18.71 0 0 1 4.16.35c.55.11 2.08.32 4.15.88a7.7 7.7 0 0 1 1.73 2 8 8 0 0 1 1.17 4.11zm83.21 1a8 8 0 1 1-15.21-3.47h0a3.77 3.77 0 0 1 1-1.52 4.86 4.86 0 0 1 3-1 37.92 37.92 0 0 1 5 0l3.36-.12a7.7 7.7 0 0 1 1.73 2 8 8 0 0 1 1.12 4.11z" fill="#331421"/><g fill="#230e18"><circle cx="263.5" cy="171.69" r="1.5"/><circle cx="346.5" cy="172.69" r="1.5"/></g><g fill="#e8a080"><path d="M330 223.19c3.15 2.82 6.32 6.67 6 11s-4.11 7.92-4 8 2.22-2.74 5-6c1.48-1.74 1.68-1.88 2-2 2.74-1 6.6 2.71 10 6 1.94 1.87 2.41 2.65 5 5s3.07 2.29 3.66 3.17c1.45 2.18 2.1 5.77.34 12.83.85-1.77 1.56-3.33 2.13-4.63 2.14-4.88 2.42-6.19 1.87-7.37a9 9 0 0 0-2-2 39 39 0 0 0-4-3l-3.91-2.75c-2.18-1.44-7.93-6.11-22.09-18.25zm-65 16c-2.32 2.25-3.34 2-8 5-.59.38-8.54 4-9 9-.34 3.74 3.56 6.93 5 8a10.68 10.68 0 0 1-2-7c.45-4.64 4.44-8.73 10-10 6.79-11.52 7.94-8.86 4-5z"/><path d="M285 220.19s.06-.06.08 0c.22.15-8.29 8-7.08 15a13.33 13.33 0 0 0 5 7.54 2.44 2.44 0 0 0 0-.54h0a48.68 48.68 0 0 1-4-3c-3.32-2.71-3.68-3.58-5-4-4.06-1.28-8.51 4.49-9 4-.92-.86 18.3-17.43 20-19zm46 21a12.19 12.19 0 0 0-6 0 8.52 8.52 0 0 0-4 2c-1.14 1.08-.79 1.47-2 3-.59.75-1.14 1.23-5 4h0c4.57-5 7.82-6.06 10-6a8.29 8.29 0 0 0 5-1 6.81 6.81 0 0 0 2-2zm-34 8c.41-.35-1.27-3-2-4a11.11 11.11 0 0 0-4-4 10.63 10.63 0 0 0-4-1 19.13 19.13 0 0 0-5.5.11 7.25 7.25 0 0 1 2.5-.11c2.27.31 3.73 1.8 5 3 2.92 2.81 7.44 6.47 8 6zm3 2c-1.2-.75 7 4 13 0 0 0-5 5-13 0zm63 30c-2 3.58-5.09 8.8-9 15-6.83 10.83-12.08 17.94-12 18s7.93-10.27 17-24l11-17h0l-4 6zm-133-26c-1.06-5.39-1.48-11.92-1-12s2.05 8.08 4 15c7.56 26.76 42.88 64.6 35 60-4.92-8.41-9.22-14.92-12-19-14.35-21.07-22.94-28.39-26-44zm152-10a67.59 67.59 0 0 0-3 7c-1 3 0 4 0 4s3-7 3-11z"/></g><path d="M305 206.19s1 18 0 23-5 12-3 15 7 9 9 1 1-12 0-22-4-30-6-17z" fill="#ffc0b3"/><path d="M297 258.19s5 3 8 2a35.86 35.86 0 0 1 11-2h20a31.11 31.11 0 0 1 10 2l-8 8-30 8-21-5-13-5s-8-5-7-6 11-4 13-4 12 0 17 2z" fill="#ff9f85"/><path d="M268 262.19s8 13 18 19 19 8 28 6 19-9 21-12l8-12a29.6 29.6 0 0 1-9 2c-4 0-15 5-18 5s-13 1-18-1-9-2-13-3-16-2-17-4z" fill="#ff9880"/><path d="M328 158.19l5.71-1.63c2-.51 6-1.41 17.29-2.37s13.21-.58 15 0a63.52 63.52 0 0 1 7 3c2.42 1.14 4.3 2.12 8 4h0a23.24 23.24 0 0 0-7-10c-4.64-3.76-10.82-4.23-23-5-15.39-1-19.87.62-23 3-1.21.92-4.63 3.52-4 6 .5 1.98 3.31 2.81 4 3zm-48-4l-7-1c-6.91-.8-7.74-.34-14-1-7.46-.78-8.34-1.65-12-1a19.23 19.23 0 0 0-8 3c-3 2.05-6.48 5.94-9 6a.4.4 0 0 1-.3-.09c-.8-.82 3.64-7.84 9.3-11.91 5-3.6 10-4.24 16-5a49.58 49.58 0 0 1 18 1c3.91 1 10.41 2.64 12 7 .17.46.75 2.06 0 3s-2.77 1-5 0zm50.5 22.5c-.51-3.29 7.88-8.51 16-9h.78a24.1 24.1 0 0 1 10.22 2 19.1 19.1 0 0 1 5 3 17.17 17.17 0 0 1 2 2c-1.27.61-2.61 1.32-4 2.12a63.4 63.4 0 0 0-3 1.88 30.86 30.86 0 0 1 6-2 7.61 7.61 0 0 0 3-1c1.29-.87 1.33-1.69 2.68-2.2.49-.19 1.06-.3 1.32-.8a1 1 0 0 0 0-1c-.36-.53-1.5-.5-1.5-.5h0l.5.5-.5-1.5h-2v-1l-1 1v-2a31.39 31.39 0 0 0-16.5-3.5 32.59 32.59 0 0 0-22 11c-1.94 2-2.19 2.72-2 3s.79 0 2 0c1.7 0 2.22.7 4 1a9.43 9.43 0 0 0 3 0c-3.14-1.05-3.87-2.19-4-3zm-44.5.5l-1.75.5a44.91 44.91 0 0 1-10.57 1.48 12 12 0 0 0 8.32-4 22.94 22.94 0 0 0-4-4 24.35 24.35 0 0 0-14-5 25.28 25.28 0 0 0-8.21 1.52h0a23.49 23.49 0 0 0-8.79 5.47 2.69 2.69 0 0 0-1 2c.15 1.87 3.55 2.87 4 3l3.38 1.12c0 .02-3.6-1-10.38-3.12l-5-4 2 1v-2h2s-3-1-2-1a9.91 9.91 0 0 0 3-1s8.17-5.2 16.84-5.35a18.71 18.71 0 0 1 4.16.35c.55.11 2.08.32 4.15.88a34.14 34.14 0 0 1 4.29 1.52A34.94 34.94 0 0 1 286 177.19z" fill="#2f0c11"/><path d="M330 187.19a7 7 0 0 1 5 0 52 52 0 0 0 11 2s-14-1-18-1 2-1 2-1zm-50 0s-1-3-7-2a61.81 61.81 0 0 1-9 1s13-1 16 1z" fill="#e8a080"/></svg>