<svg xmlns="http://www.w3.org/2000/svg" viewBox="0 0 961 759.89" xmlns:v="https://vecta.io/nano"><defs><linearGradient id="A" x1="515.76" y1="299.89" x2="515.76" y2="680.01" gradientUnits="userSpaceOnUse"><stop offset="0" stop-color="#775647"/><stop offset=".33" stop-color="#6b4d40"/><stop offset=".91" stop-color="#4d362e"/><stop offset="1" stop-color="#47322b"/></linearGradient><linearGradient id="B" x1="586.68" y1="493.92" x2="425.85" y2="493.92" gradientUnits="userSpaceOnUse"><stop offset="0" stop-color="#99584f"/><stop offset=".53" stop-color="#97574e"/><stop offset=".72" stop-color="#90564d"/><stop offset=".86" stop-color="#855249"/><stop offset=".97" stop-color="#744e45"/><stop offset="1" stop-color="#6d4c43"/></linearGradient><linearGradient id="C" x1="571" y1="492.66" x2="601.71" y2="492.66" gradientUnits="userSpaceOnUse"><stop offset="0" stop-color="#99584f"/><stop offset=".21" stop-color="#8d534a"/><stop offset=".59" stop-color="#6f443c"/><stop offset="1" stop-color="#47322b"/></linearGradient></defs><path d="M644 557.89c4 11 9 73 19 120s-25 49-44 56-94 12-94 12H353c-14 0-100-21-100-21s15-67 19-73 64-46 81-67 14-76 14-76l107 92.39s131-2.39 130-8.39 40-35 40-35z" fill="#eca999"/><path d="M426 652.89c3.75 9.78 9 16.46 15 21 9.47 7.22 15.64 5.21 30 13 13.14 7.12 10.29 10.06 22 16 16.31 8.28 32.86 8.19 38 8 .74 0 7.49-.69 21-2a281.94 281.94 0 0 1 60-81.5l-10-8.5-66 30-59-7-51-23-26-14a58.36 58.36 0 0 0 11 34 56 56 0 0 0 15 14z" fill="#dd9f92"/><path d="M0 759.89c7 0 47-36 61-56s35-28 68-35 59-5 73-11 90-45 105-57 44-14 44-14a86 86 0 0 0-22 45c-.55 3.5-3.74 25.5 6 47 3.52 7.77 16.91 33.54 73 52 61.43 20.21 164.89 18.17 227-31 24-19 22-61 22-73s-8-42-8-42a100.3 100.3 0 0 0 27 23c17.13 9.89 26.14 8 50 17 15.61 5.91 11 6.45 43 22 31.27 15.2 34.07 13.91 50 24 18 11.38 17.12 14.75 31 21 16.81 7.57 23.28 5 38 13 11.38 6.19 15 11.82 26 22a220 220 0 0 0 47 33z" fill="#02e2ac"/><path d="M356.47 579.68c-8.77 1.09-28.6 4.9-37.47 20.21-3.7 6.39-3.85 15.34-4 33-.17 20.53-.26 30.79 4 44a97.49 97.49 0 0 0 17 31c15.4 19.7 33.46 29.15 41 33 30.44 15.53 55.51 11.42 143 9 67.38-1.87 81.18 2.26 99-12 10-8 46-40 48-59s5-35 6-49-6-33.65-6-33.65l-18-14.35s4 67-8 84-30 44-62 50-115 12-130 10c-10.43-1.39-18-1.33-27.3-3.52a126.69 126.69 0 0 1-13.7-4.48c-40-16.1-54-50-54-50-6-14.57-6-27.09-6-40a143.55 143.55 0 0 1 8.47-48.21zM118 677.89c23 9 27.87 16.6 28 22 .23 9.58-14.51 15.4-14 30 .14 4 1.4 9 3.5 9.27s5-6.25 10.5-17.27c9-18 15-22 6-30s-34-14-34-14zm85.38 67.25c45.17-22.94 58.38-33.76 60.62-39.25.35-.87 1.67-4.65 5-6 3.65-1.49 6.89 1.1 11 2 10 2.19 20.18-6.67 20-7s-20.13 9.63-96.62 50.25zM654 742.89c5-10 31-10 36-17s9-33 9-33 15-14-5 0-53 57-53 57zm149-17c4-2 39 0 59 17l20 17-57-21zm-74-48s12 15 28 40 22.88 42 22.88 42h-18.72zm-424-64s-31 24-41 24-41 28-61 28-57 7-57 7 58-2 74-7 29-17 47-23 38-29 38-29z" fill="#5bf1cd"/><path d="M515 63.89c9.15-7.47 35.11-26.55 72-27a111.2 111.2 0 0 1 40 7 179.1 179.1 0 0 1 74 87q5 25.5 10 51v118s-18 147-24 166-99 148-99 148-156-3-161-8-89-106-89-106l-10.56-78.32S325 313.89 327 280.89s7-90 7-90l3.16-48.52L357 102.89a120.46 120.46 0 0 1 40-44 118.39 118.39 0 0 1 37-16z" fill="#eca999"/><path d="M444 286.39c-.41-7-6.37-16.5-16.5-16.5s-16.25 9.1-16.5 16.5a15.66 15.66 0 0 0 3 9.5 8.26 8.26 0 0 0 2 2c2.56 1.75 4.51.71 9 1 5.93.38 7.88 2.54 12 1a10.1 10.1 0 0 0 2-1c4.31-2.89 5.19-9.13 5-12.5z" fill="#24170f"/><circle cx="427" cy="285.89" r="3" fill="#1e130f"/><path d="M401 272.89s-11 3-17 11-10 9-14 11a19.66 19.66 0 0 0 4.62-1.5 39.46 39.46 0 0 0 11.38-7.5c2.08-1.95 13.68-12.86 24-17 6.75-2.71 14.17-1.8 29 0 7.05.86 20.39 3 30 9 5.52 3.43 8.71 5.41 10 9a12.21 12.21 0 0 0 3 5c1.16 1.13 3.19 2.58 4 2 .65-.47.28-2.07 0-3a60 60 0 0 0-19-18c-28.89-17-62-1.89-66 0zm269 54c8.37 3.94 12.63 11 15 15 1.53 2.6 3.56 6.63 1.71-.43-7.04-12.36-20.32-16.27-16.71-14.57zm-23 7c-20.18-7.47-41-6-41-6-9.72.69-19 2.93-30-2-5.16-2.32-10.41-6.1-10-7 .19-.41 1.61-.38 13 3l16 5c10.76 3.08 15.29-.17 27 0 16 .23 35.52 6.69 47 19 .17.18 12 14 12 14h0c-12.86-16.4-26-23-34-26zm-185-7c10.13-4.65 17.27-11.61 17-12-.15-.22-2.7 1.59-9 5-5.19 2.81-9.9 5.07-12 6-4.2 1.86-8.89 3.23-26 5-16.67 1.72-24 1.63-24 2 0 .54 16.17 1.91 35-1 11.9-1.84 17.31-4.22 19-5zm-75-6c3.08-.7-29 12-34 16s-7 11-7 11-3-17 41-27z" fill="#bf8677"/><path d="M621 300.89c-1.81 1.23-4.88 1.49-11 2a35.67 35.67 0 0 1-8 0c-3.07-.41-5.19-.7-7-2-4.53-3.26-4-10.65-4-11.5a19.21 19.21 0 0 1 3.75-10.24 18 18 0 0 1 4.64-4.49 64.69 64.69 0 0 1 16.61-1 17.93 17.93 0 0 1 5.83 4.84 18.63 18.63 0 0 1 4.17 10.89c0 .35.08 8.05-5 11.5z" fill="#24170f"/><circle cx="608.5" cy="289.39" r="3.5" fill="#1e130f"/><path d="M653 294.89l-6 2a14.79 14.79 0 0 1-6 0c1.52-.45 4-6 4-6a53.65 53.65 0 0 0-17-10.38 60.25 60.25 0 0 0-6.14-2 49.48 49.48 0 0 0-22.86-.62 39.11 39.11 0 0 0-4.25 1.26 53.25 53.25 0 0 0-15.75 8.74 14.21 14.21 0 0 0-4 5 7.47 7.47 0 0 0-1 4c.26 1.92 2 3.64 4.71 4.79a75.76 75.76 0 0 0-6.71-.67l-4-.12c1.91-5.15 6.91-16.27 18-22a49.61 49.61 0 0 1 13.39-4.23 63.81 63.81 0 0 1 16.61-1c.82.06 1.5.12 2 .18 21.4 2.35 36.26 20.62 35 21.05zm-190-4s-10-13-25-17-35 4-43 14a21.46 21.46 0 0 0 9 6l3.87 2.38s-6.42-2.54-18.87-8.38a46.61 46.61 0 0 1 11.87-10.75C415.92 267.7 432 270 437 270.89a49.74 49.74 0 0 1 11.37 3.88c13.51 6.52 20.63 17.56 23.63 23.12a24.52 24.52 0 0 0-14 0c-4.13.41-6.21.5-6.25.25s4.36-1.45 13.25-3.25c0 0-1-3-2-4z" fill="#47312a"/><path d="M639 273.89a70.35 70.35 0 0 1 17 15c7 9 16 9 16 9a56.19 56.19 0 0 1-19-10c-6.15-5-8.63-9.39-16-12-2.66-.94-5.44-1.3-11-2a124.08 124.08 0 0 0-16-1c-10.42 0-15.63.05-22 2a57.75 57.75 0 0 0-24 15c-4.12 4.65-8 10.93-11 10a3.12 3.12 0 0 1-2-2c-.37-1.55 1.15-3.13 2-4l11-11a88.91 88.91 0 0 0 7-7 31.45 31.45 0 0 1 10-4c5.18-1.08 9-.43 13 0 9.71 1 9.76-.41 23 0a190.69 190.69 0 0 1 22 2zm-252 172a581.44 581.44 0 0 1 14-18c22.88-28.26 32.36-34.54 39.51-33.46a25 25 0 0 1 6.08 1.93c8.45 4.71 10.33 9.41 10.33 9.41s-9.39-17.88 0-24.47 14.08-9.41 14.08-9.41-10.33 1.88-24.41 14.12-57.27 48-59.15 60.23a39.39 39.39 0 0 0 2.82 21.65q-1.63-10.99-3.26-22zm75-32s1-2 9 0 30 15 27 18-30-12-36-18zm74 21s18-14 22-16 9-1 9 0-3 2-9 7-21 12-22 9zm36-55c-3.5-.87 7 13 7 20v13s0-8 4-9a13.63 13.63 0 0 0 6-3s-13-20-17-21zm38 43s28 13 30 22 0 23 0 23-3-16-5-20-25-25-25-25z" fill="#bf8677"/><path d="M506 315.89s11 20 8 35-3 22-8 29-8 20 0 30 22 11 30 3 17-20 11-33-13-13-11-40-20-52-30-24z" fill="#f4afa2"/><path d="M704 320.89a115.34 115.34 0 0 1-5 50c-3.7 11-5.39 10.21-8 20-7 26.32 3.2 39.22-7 53-4.53 6.13-8.18 5.78-13 14-4.62 7.89-3.88 12.68-6 21-5.51 21.65-22.62 36.81-33 46-7.19 6.37-7.53 5.22-12 10-12.52 13.39-9.77 22.3-20 32-10.72 10.16-25.92 11.94-27 10-.38-.69 1.09-1.67 5-8 2-3.28 1.81-3.3 3-5 3.43-4.91 5.28-4.8 7-8 2.2-4.1 2.14-9.81 0-11-.53-.29-1.38-.42-6 2s-6.91 4.22-10 6c-4 2.29-5 2.07-9 4-7.07 3.39-9.65 6.78-13 9-6.53 4.34-12.16 1.7-34-1-25.48-3.15-25.26-.47-33-4-9.3-4.24-20.12-12.9-24-16-6.54-5.23-12.33-10.66-15-9-1.27.79-.46 2.34-2 8-1.47 5.4-3.05 7.1-2 9s2.7 1 5 3c2.8 2.5 1.61 4.93 4 8 2.77 3.55 5.88 2.23 8 5 3.17 4.13 1.16 13.49-3 15-7 2.55-19.95-17.36-21-19-2-3.1-3.34-5.69-11-26-9.29-24.62-10.85-30.22-12-37-1.26-7.41-.45-6.94-2-16-1.82-10.62-3.49-14.51-1-18s7.49-5.48 10-4c2.08 1.22 1.12 4.07 3 5 2.63 1.3 5.48-3.81 13-6 1.88-.55 4.25-.7 9-1 5.8-.37 7.55.05 9 1 2 1.29 1.46 2.31 3 3 3.38 1.52 6.35-3.2 12-3 1.87.06 1.07.57 6 2 6.28 1.83 7.85 1.09 13 3 2.61 1 2.68 1.33 5 2a24.07 24.07 0 0 0 8 1c4.18-.28 4.38-2.11 9-3 3.7-.72 3.42 0 14 0 5.23 0 6.84-.21 9 1 2.66 1.49 2.56 3.09 5 4 3.13 1.16 4.32-1.08 9-1 4.85.09 5.64 2.54 10 2 3.14-.39 2.93-1.68 6-2 4.27-.45 5.14 2 10 2 3.41 0 3.56-1.21 7-1 2.43.15 4.2.87 7 2 5.17 2.09 6.2 3.59 8 3 2.1-.69 1.6-3 4-5 3.91-3.23 10.29-1.23 11-1 5.22 1.71 7.85 6 9 8 3.93 6.69 3.43 13.47 3 21-1.22 21.27-1.77 32 1 34 5.88 4.35 22.54-3 26-14 1.83-5.83-1.23-8.9-4-19-6.27-22.85 2.93-30.76-4-47-4.87-11.4-13-20.36-17-20-11 1-31-13-48-9s-46 19-57 19-20-23-51-24-66 17-77 22 8 34 3 43-20-16-31-29-20-44-21-53-3-40-5-49-8-43-8-43-5 28-3 41 7 49 7 56c0 53.8-.91 50 7 79 8.14 29.88 17.31 28.45 44 88 11.87 26.48 9.73 26 16 36 21.81 34.64 54.54 50.77 70 57 10.84 4.36 36.86 14.49 69 10 9.15-1.28 24.15-3.54 39-14 5.84-4.11 10.45-8.65 21-22a525.14 525.14 0 0 0 32-45c18.76-30.34 16.56-32.92 33-58 14.62-22.31 17.12-21.43 23-34 7.45-15.92 8.06-27.24 11-58 5.06-53 4-27.89 9-85l5-63z" fill="url(#A)"/><path d="M480 481.89a109.54 109.54 0 0 1-23-6c-7.71-3-13.47-4.31-25-7-2.13-.5-5.25-1.2-6 0-.89 1.43 2.22 4.5 9 13 5.49 6.89 4.76 6.52 7 9 1.71 1.9 5.91 6.3 15 12 0 0 13.75 8.63 28 13 18.45 5.66 50.11 5.77 86-6 15.74-17 16.88-23.87 15-27-4.26-7.1-25.78 2.11-60 3a206.51 206.51 0 0 1-46-4z" fill="url(#B)"/><path d="M571,481.89a122.54,122.54,0,0,1,20-4c10-1,13-6,9,2s-5,18-9,22-20,8-20,8Z" fill="url(#C)"/><path d="M443 477.89s2 18 9 12c0 0 7 16 10 15l9-3s0 7 6 9a21.12 21.12 0 0 0 12 0s1 5 9 6 13 5 18 0c0 0 2 1 10 2s17-1 20-5a29 29 0 0 0 10 0c5-1 9-7 9-7s2 5 6 3 9-11 9-11 3-7 5-9-2.7-6.3-5-7c-3.67-1.12-4.41-3.82-7.32-3.87-1.62 0-3.51.7-5.68 2.87-7 7-2 4-2 4s-10-6-13 0-3 4-3 4a13.39 13.39 0 0 0-13-6c-9 1-17 3-17 6 0 0-8-5-13-6s-10-4-13 0a45.36 45.36 0 0 0-4 6s-4-8-9-8a15.45 15.45 0 0 0-8 2s-5-8-10-9-10 4-10 4z" fill="#fcd1c8"/><path d="M703 327.89l.56-3.49a271.9 271.9 0 0 0-.56-87.51c-5.31-29.64-10.3-24.4-14-50-4.9-33.91 4.47-38.9 0-62-7.91-40.87-47.42-77.68-74-73-6.15 1.08-11.82 4.42-23 11-16.77 9.86-17.41 14.42-29 21-4.47 2.54-24.61 14-48.9 9.14A65.4 65.4 0 0 1 484 77.89c-2.33-5.51-9.16-19.54-24.13-25.87A46 46 0 0 0 445 48.89c-23.22-.69-69.16 21.43-83 63-9.39 28.2 1.24 49.56-13 72a108 108 0 0 0-11.26 22.83c-2 5.7-3.38 12.27-4.74 23.17-3 24 7 60 0 76s-6 40-7 36-5-51-5-51-6-17-10-18-4-54 0-72 19-68 22-78 41-61 75-79 79-37 108-43 109 19 144 59 56 82 60 101 4 97 4 107c0 7.46-2.23 7.13-4.6 10.22a16.14 16.14 0 0 0-2.4 4.78c-1.3 3.69-6.77 21.11-14 45z" fill="#775647"/><path d="M711 291.89s4-16 17-18 15 0 18 14-15 49-18 62-13 41-17 54-10 36-17 17l2-33 6-33zm-395-19s-13-6-17-5-14 4-13 13 9 38 10 45 7 12 7 20 2 28 5 32 6 5 8 14 3 20 15 18l1-34c0-1-6-40-6-40v-43s-4-20-5-20z" fill="#eca999"/><path d="M724 299.89c3 0 8-10 13-8s2 21-4 29-9 19-9 19zm-15 30c0 11-1 19-1 30s4 5 4-2 5-23 3-26-6-2-6-2zm-1 64s-4-7-4 0v12zm-392-94c-2-3-11-11-16-13s-10-4-10 0 3 10 5 15 7 20 8 25a31.1 31.1 0 0 0 2 7s-2-37 0-38 11 4 11 4zm3 12c-4.24-1.41-8 4-7 12s6 6 4 12-3 22-2 24 8 2 8-2-2-26-1-30 1-15-2-16zm-11 50c0 1-2 3 1 6a16.93 16.93 0 0 1 4 7s-1-8 0-9-5-4-5-4zm11 16s4-2 5 2 2 6 2 9-3 1-4 2-3-13-3-13z" fill="#bf8677"/><path d="M571 249.89c.32-2.54 2.52-4.7 7-7 8.94-4.59 17.2-4.72 27-5 23.39-.66 20.84-1.13 33-1 14.19.16 21.36.27 25 2 12.08 5.74 17.12 18.88 21 29 4.66 12.14 6.08 24.41 4.88 24.76-.8.23-2.2-5-5.88-10.76-7.18-11.15-18-16.16-22-18-16.34-7.55-34-5.3-52-3-13 1.66-22.92 4.42-31.45-1.41-1.08-.75-7.14-4.89-6.55-9.59zm-103 12c3.91-1.1 9-4.41 9-8 0-8.83-31-15.72-48-18-15.47-2.08-25.43-3.41-38 1-5 1.75-19.35 7.56-29 22-6.35 9.51-9.28 20.69-8.37 21.14.4.2 1.49-1.72 4.37-5.14a91 91 0 0 1 9-9c1.22-1.06 7.56-6.39 21-10 9.56-2.57 39.41-10.58 63 2 3.61 1.93 10.09 5.94 17 4z" fill="#775647"/></svg>