<svg xmlns="http://www.w3.org/2000/svg" viewBox="0 0 980.15 836.46" xmlns:v="https://vecta.io/nano"><path d="M434.58 521.83s-14 2-16 5-18 14-24 14-13-8-31-6-69 26-90 26-38-8-48 0-12 13-20 16-17-5-40 11-83 69-92 84c0 0-18-2-20 22a28.62 28.62 0 0 1-9 17c-8 7-32 41-44 125l979-1s-10-71-66-153c0 0-25-36-107-56 0 0-78-20-85-27s-28-19-32-19a7.5 7.5 0 0 0-6 3s0-8-8-10-23-4-23-4z" fill="#2f2c3a" stroke="#000" stroke-miterlimit="10"/><path d="M440.58 413.83s1 61-11 104l-4 9s-3 12 32 52 85 93 95 98 36 31 37 31 17-4 39-26 28-38 33-43 11-39 9-60c0 0-5-6-5-24s10-97 10-97z" fill="#fcd2c5"/><path d="M444.19 445.69c5.89 36.78 21.89 57.77 30.39 67.14 11.46 12.65 25.09 21.75 38.34 30.59 16.21 10.82 24.32 16.23 36.72 20.88 10.75 4 16.47 4.47 25.2 10.8 8.53 6.18 10.68 11.27 15.84 10.8 4.29-.39 6.17-4.2 16.56-16.56 4.2-5 7.75-9 10.08-11.52a411.57 411.57 0 0 0 56.83-82.29z" fill="#f2c4b8"/><path d="M407.58 331.83s6 29 5 37 4 20 9 20 13-5 13-5l-1-78-21-5zm290 59l4-4s3 9 10 7 11-1 13-10 1-19 3-22 7-22 7-22l-3-15-29 17z" fill="#f9cabb"/><path d="M426.58 307.83s4 29 4 35 5 64 7 82 26 65 59 88 42 22 42 22 13 5 63 1c0 0 27-8 60-45s35-60 35-60 5-25 7-42 10-53 10-53l23-82-39-139-114-54-157 83-14 120z" fill="#fcd2c5"/><path d="M432.08 283.33s-4 31-2 42 1 14 1 14-3-19-4-22-1 15-1 15-7-5-6-10-1-7-1-7-2 5-1 9a45.89 45.89 0 0 0 3 8c0 0-6-4-6-11v-9s-5 9-3 13l2 4s-3-12-2-16-2-4-2-4 1 27 3 34-1 14-1 14l-2-10-1 7v-5s-3 7-3 4v-9l-4 6a61.29 61.29 0 0 0-7-12c-4-5-1 2-1 2l-3-7v11l-3-21s-3 18-2 17-2-18-2-18 1 13 0 13-3-17-3-17-3 18-3 20a34.8 34.8 0 0 0 1 6c0 0-1-16-2-24s-2 3-2 3v-8l-3 5a15.73 15.73 0 0 1-1.12-8.75c1.18-6.62 6.84-9.36 10.2-13.68 3.49-4.48 5.92-12.51 1.42-28.07 2.93 12.53 3.77 15.15 4 15.11.46-.1-2.52-13.68-4-33.11-.55-7.38-.89-11.08-.58-15.54.84-12.23 4.58-19.88 4.58-26.46 0-9-8-21-6-24s-4 7-3 12a66.46 66.46 0 0 1 1 11c0 0-13-22-12-42s7-29 7-29-15 24-15 19c0-1 5-43 37-73s30-16 43-23 26-18 26-18-4-20 13-22h7s6-20 59-6c0 0 68-32 96-2s21 54 35 66 20 24 37 27 17 14 17 14 12 15 13 22 0 10 0 10-1-12-7-15a94.07 94.07 0 0 1-9-5 145.71 145.71 0 0 1 23 47c9.5 34.18 3.89 64.45.28 82.81-4.31 21.92-7.5 20.6-11.3 43.82-1.88 11.47-2.43 19.9-5 55.37h0v-23a45.51 45.51 0 0 1-5 9 25.32 25.32 0 0 0-4 9l-2-9-2 9-1-4-1 5-3-4s0 6-1 8-2 0-3-7 0-21 4-53a53.06 53.06 0 0 0-2-27c-5-14 3-68-3-89s-28-72-61-80-42-7-59-5c0 0-8 1-20-6s-60-2-83 25-28 41-26 57 10 21 14 10c0 0-2 14-7 10s-6-5-6-5-8 28 0 29c0 0 9-5 7-14 0 0 2 12-1 15l-3 3s3 1 9-5l7-7s-7 15-12 14l15-8-12 10s20-8 19-8-17 11-22 12-13-1-13-1 10 5 14 3a59.19 59.19 0 0 1 7-3l-9 6 11-3a14.32 14.32 0 0 1-10 6 82.29 82.29 0 0 1-9 1s5 10 4 14-10 19-10 19a19.18 19.18 0 0 0 0-18s-1 0-3 5a62.74 62.74 0 0 0-3 12c0 0-4 1-2-11s1-19 1-19a134.4 134.4 0 0 0-14.48 40.5z" fill="#685400"/><g fill="#725c00"><path d="M386.08 340.33c.28-.28.25-1.79.06-3.82-.29 2.49-.39 4.15-.06 3.82zm26-15l2 4c-.8-3.28-1.44-6.6-1.91-9.94-.6 2.19-.85 4.42-.09 5.94zm-4.77-49.65l-.23-2.35.23 2.35zm-28.23 68.65l-.64-9.2-.36 3.2a34.8 34.8 0 0 0 1 6z"/><path d="M421.08 281.33c-5 18-1 25-7 16-4.55-6.82-6.22-17.08-6.77-21.65a163.55 163.55 0 0 1-.23 20.65c-1 17-6 22-6 22s-1-3-2-13 0-32 0-32l-7 26s2-33 0-52-6-28.45-6-28.45a4 4 0 0 0-.87-.44c-1.86 7.75-4.75 17.81-2.63 33.39 3 22 0 18 0 18 1.9 12.47.39 21.77-1.42 28.07-2.71 9.41-9 22.28-9.08 22.43h0l3-5v8s1-11 2-3c.49 4 1 9.84 1.36 14.8.8-5.74 2.64-16.8 2.64-16.8s2 17 3 17 0-13 0-13 1.57 8.88 2.06 14.18c.58-5 1.94-13.18 1.94-13.18l3 21v-11l3 7s-3-7 1-2a61.29 61.29 0 0 1 7 12l4-6v9c0 3 3-4 3-4v5l1-7 2 10s3-7 1-14-3-34-3-34 3 0 2 4a19.25 19.25 0 0 0 .09 6.06 36.83 36.83 0 0 1 2.91-7.06v9c0 7 6 11 6 11a45.89 45.89 0 0 1-3-8c-1-4 1-9 1-9s2 2 1 7 6 10 6 10 0-18 1-15 4 22 4 22 1-3-1-14 2-42 2-42 3.5-14.5 5.5-20.5a49.95 49.95 0 0 1 1.77-4.55c-5.27 3.17-14.75 10.38-18.27 23.05z"/></g><path d="M468.84 207.74a11.25 11.25 0 0 0-.26-1.91l.26 1.91zm-15.23 66.04z" fill="#6d5800"/><path d="M462.52 237.06c18-10.38 32-10.61 38.06-10.23 10.49.65 21.48 1.32 27.82 5.55 1 .66 4.78 3.35 9.6 3a12.67 12.67 0 0 0 4.44-1.19 11.15 11.15 0 0 0-.2-4.11c-2.73-11.24-23.62-15.52-31.48-17.13-5.39-1.1-10.55-1.64-15.48-2.16-6.25-.65-11.47-.94-15.12-1.08a114.31 114.31 0 0 0-10.44 9.36c-5.44 5.53-6.62 7.87-7.2 10.08a16.29 16.29 0 0 0 0 7.91z" fill="#3f3300"/><path d="M487.13 118.22l-14.05 5.11 18-18s-15 12-32 10-42 33-40 59 27 68 27 68l-1 3.52 1.49-3s1 7-1 19 2 11 2 11a62.74 62.74 0 0 1 3-12c2-5 3-5 3-5a19.18 19.18 0 0 1 0 18c.57-1 9-15.08 10-19s-4-14-4-14a82.29 82.29 0 0 0 9-1 14.32 14.32 0 0 0 10-6l-11 3 9-6a59.19 59.19 0 0 0-7 3c-4 2-14-3-14-3s8 2 13 1c2.35-.47 7.13-3.15 11.64-5.85l.23-1.74-8.87 3.59L481 220l.11-.83-7.81 4.18c3.8-4 7.26-11.47 7.26-11.47l-7 7c-6 6-9 5-9 5l3-3c2.25-2.25 1.69-9.58 1.26-13.09.46 7.79-7.26 12.09-7.26 12.09-8-1 0-29 0-29s1 1 6 5 7-10 7-10c-4 11-12 6-14-10s3-30 26-57c.2-.26.44-.45.57-.66z" fill="#725c00"/><path d="M682.58 111.83s-15 19-20 31-14 37-21 43-15 18-31 17c0 0 23 6 41-22s26-53 34-50-3-19-3-19z" fill="#685400"/><path d="M565.58 352.83a32.42 32.42 0 0 0-15.22-5.61c-3.64-.32-8.15 0-8.16.21s.66.06 1.38.4c1.38.64 2.08 2.2 2.46 3.71q5.72.33 11.52.72 4.04.27 8.02.57zm28.09 1.35l2.41-2.28c2-1.75 3.93-3.36 6.22-4 3.76-1.12 8.15.44 8.18 1.51s-3.4 1.79-9.36 3.24l-7.45 1.53z" fill="#dda6a6"/><path d="M544.6 312.33a31.59 31.59 0 0 1-3.36 13.92c-3.13 6-6 6.31-7.68 12-1.58 5.49-1 12.6-1 12.61h0l5.78 4.67-14.78-.67c-9 4-12 4-12 4h0l-11.62 8.19a85.49 85.49 0 0 0 25.44-21.12 125.33 125.33 0 0 0 12-18.72 160.64 160.64 0 0 0 7.22-14.88z" fill="#f4ccc1"/><path d="M591.08 79.33s-36-32-66-15-27 16-27 16 23-14 26-18 9-5 9-5-25 6-27 10 16-13 24-15 11-2 11-2-19-1-26 3l-9 5s9-10 28-11 58-5 75 29l5 11-2-1s1 2 0 2-2-2-2-2v3l-3-2-1 3-3-2v3l-3-3v3c0-1-9-12-9-12z" fill="#3f3300"/><path d="M516.08 36.33s-26 7-26 25 9 38 8 36-12-23-12-23 3 21 4 23 1 7 0 6-4-8-4-8v7l-3-4s2 10 0 6a59.19 59.19 0 0 1-3-7v8c0-1-3-16-3-16s2 11-1 15-2 7-2 7v-10s-2 9-2 6 0-13-1-14-2-3-5-23a43.57 43.57 0 0 1 .35-15.33 45.1 45.1 0 0 1 11.65-21.68c11.78-12.6 25.35-13.82 27-13l2 1h0s-12 13-12 15a.11.11 0 0 0 0 .08c.38.71 3.92-.76 9-2.08 3-.78 4.55-1.17 6-1a10.81 10.81 0 0 1 6 3.01zm-108 85c-1 0 6 11 4 22s-16 38-16 49 2 24 2 23-4-29-5-34-2 5-2 5v15s-5-2-5-24 4-27 8-38 14-35 14-35z" fill="#5b4a00"/><path d="M695.08 139.33s21 17 24 34 13 44 13 44-4-26-7-39-7-26-30-39zm9-7s30 25 31 43 7 42 7 42-5-33-10-44-28-41-28-41zm-30-23s-13-6-16-17-5-29-5-29 7 26 12 30 9 16 9 16zm5-4s-4-11-7-14-7-16-7-16 14 16 14 20zm-57-27s-17-30-36-39-48-11-48-11 64-9 84 50zm-55-56s36 13 47 33l12 22s-8-50-59-55zm38 9s18 12 21 20l7 18s-12-29-28-38zm-12-7s25 9 28 13a87.31 87.31 0 0 0 7 8s1-15-35-21z" fill="#3f3300"/><path d="M455.08 122.33c1.08-.91-18 28-17 38s16 31 16 31l-13-14s1 14 3 19 1 7 6 16-13-9-18-32-2-37 23-58z" fill="#826900"/><path d="M396.58 546.83s82 109 105 129 73 51 73 62c0 0 19-14-66-66 0 0-87-94-98-124zm284.5 46.5s-2 36-8 49-33 55-53 66-26 15-27 21-3 20-3 20 28-25 37-31 52-44 56-70-2-55-2-55zm-277-23s58 93 82 108 77 55 78 59-20-24-80-54-80-113-80-113z" fill="#3a3747"/><path d="M609.08 325.26a22.14 22.14 0 0 1 5.72 10.07 31.09 31.09 0 0 1 .72 7.2 43 43 0 0 1-.44 6.8l-1 3s4-2 5-4a2 2 0 0 1 1.43-1.27c2.15-.69 5 3 7.61 5.92a68.15 68.15 0 0 0 10.44 9.35c-10.11-11.57-14.48-18.6-16.48-23a28.63 28.63 0 0 0-2.81-4.93 31.43 31.43 0 0 0-10.19-9.14z" fill="#edc4bc"/><path d="M550.08 632.33s27 22 32 32a55.82 55.82 0 0 0 12 16c0 0 17-15 19-24s-3 1-12 2-34-32-51-26z" fill="#f2c4b8"/><path d="M586.36 298.62s0 14 2.16 23 8.14 15.12 5.15 18-6.59 8.08-12 7.82-15.48-8.54-13-12.86 8.38-41 8.15-52.56 3-14.76 3-11.16 6.54 27.76 6.54 27.76z" fill="#ffd5ca"/><path d="M458.2 376.38s.12 31.68 13.38 61.92 7.5 18.72 7.5 18.72S454 422.46 455 381.42s3.2-5.04 3.2-5.04zm198.39 12.45s13.29-1.45 11.85 5.29-5.87 16.35-5.87 16.35 8.81-20.71-5.98-21.64zm31.91-14.61s-5.06 35.28-12.92 54.72-10.74 30.23-10.74 30.23 24.24-43.91 23.66-84.95z" fill="#f4ccc1"/><path d="M511.48 399.59a25.76 25.76 0 0 0 16.6 7.74l53.37 3.13c6.37-.26 47.79-2 52.11-3.13s8.64-2.16 9.72-4c0 0 1.2 2.76-2.16 4.44s-51.18 3.36-59.67 3.84-60.33-2.4-62.49-4.08-7.44-.65-7.44-4.32z" fill="#dda6a6"/><path d="M658.86 258.47c0 6.71-5.44 12.15-12.15 12.15s-12.15-5.44-12.15-12.15a12.44 12.44 0 0 1 2.65-7.6 43.38 43.38 0 0 1 12.33-1.24 37 37 0 0 1 6.37.88 13 13 0 0 1 3 8zm-138.4-1.55c0 6.71-5.44 12.15-12.15 12.15s-12.15-5.44-12.15-12.15a12.44 12.44 0 0 1 2.65-7.6 43.38 43.38 0 0 1 12.33-1.24 37 37 0 0 1 6.37.88 11.71 11.71 0 0 1 2 3.36 11.9 11.9 0 0 1 .95 4.6z" fill="#2e3a3d"/><path d="M680.68 268a3.41 3.41 0 0 1-4 1.48 14.08 14.08 0 0 0-5.71 0c3.6-2.47 2.88-4.36 2.88-4.36A48 48 0 0 0 658 253.9a31.35 31.35 0 0 0-13.28-2.44 40.54 40.54 0 0 0-8.75 1.41c-4.86 1.35-9.29 3.71-9.73 7.23-.53 4.26 5 8.26 6.72 9.4l-9.96-5.6-3.53-2a29.38 29.38 0 0 1 3-3.21 33.27 33.27 0 0 1 14.76-7.79 43.38 43.38 0 0 1 12.33-1.24 37 37 0 0 1 6.37.88c16.45 3.79 24.75 17.46 24.75 17.46z" fill="#3f3300"/><path d="M666.28 239.22s12.6 4.68 14.4 16.2c0 0-.68-13.68-14.4-16.2z" fill="#dda6a6"/><g fill="#1e2728"><circle cx="646.93" cy="257.51" r="2.61"/><circle cx="508.31" cy="256.42" r="2.61"/></g><path d="M614.44 226.62a36.2 36.2 0 0 1 6.84-7.2c7.94-6.32 16.41-7.49 22.68-8.28 6-.75 17.72-2.08 31 3.6 3.55 1.59 17.61 7.79 24.12 21.59 1.59 3.39 3.89 9.72 2.27 10.81-1.23.83-4.18-1.75-6.59-3.61 0 0-9.6-7.4-26.28-11.88a60.39 60.39 0 0 0-24.12-1.44c-8.85 1.32-17.77 2.07-26.64 3.24-1.47.19-4.83.64-5.73-.9-1.08-1.79 1.84-5.22 2.45-5.93zM527 263.33s4.68-3.38 2.52-5.83-10.8-9.38-20.52-7.89-26 4.76-28.64 10.5 4.52 7.9 4.52 7.9-6.84-2.52-8.64-4.32l-4-4.08s9-6.36 15.48-8.16 25.92-7.65 36.36-1.84 12.24 10 12.24 10z" fill="#3f3300"/><path d="M491.08 237.06a35.07 35.07 0 0 0-8.88 3.46A36.34 36.34 0 0 0 468.64 254a29.3 29.3 0 0 1 7.44-10.06 29.62 29.62 0 0 1 15-6.88z" fill="#dda6a6"/><path d="M78.08 724.14s90.72 72 102.24 95 11.52 16.45 11.52 16.45 0-20.77-5.76-30.85-51.84-50.4-85-74.88c0 0 41.76 1.42 60.48 19.43 0 .04-50.4-38.11-83.48-25.15zm113.72 43.19s74.88 31.68 97.92 46.08c0 .01-76.31-25.91-97.92-46.08zm-95.04-88.5s38.88 4 56.16 29 0 6.23 0 6.23-67.7-34.49-83.52-27.36l-15.82 7.13s17.86-21.5 43.18-15zm106.56-85.5s21.6-.23 37.44 27.13 49 78.74 49 78.74-53.32-130.12-86.44-105.87zm86.4-23S347.32 637.18 366 654s73.31 45.18 73.31 45.18-76.15-9.06-149.59-128.85zm444.86 64.44s26 56.64 41.86 86.68S828.28 779 828.28 779zm113.86 144.21l37.44 55.95-23.2-15.75-8.48-5.76-5.76-34.44z" fill="#1d1a2d"/></svg>