<svg xmlns="http://www.w3.org/2000/svg" xmlns:xlink="http://www.w3.org/1999/xlink" viewBox="0 0 1000 1003.02" xmlns:v="https://vecta.io/nano"><style><![CDATA[.m{stroke-miterlimit:10}.n{fill:#90b9f7}.o{fill:#81a8f7}]]></style><defs><linearGradient id="A" x1="99" y1="727.99" x2="158.5" y2="727.99" gradientUnits="userSpaceOnUse"><stop offset="0" stop-color="#3b3cc8"/><stop offset=".1" stop-color="#3845c9"/><stop offset=".27" stop-color="#305fcd"/><stop offset=".48" stop-color="#2488d4"/><stop offset=".57" stop-color="#1e9cd7"/><stop offset=".87" stop-color="#0075be"/><stop offset=".99" stop-color="#005b97"/></linearGradient><linearGradient id="B" x1="105.5" y1="756.19" x2="138.5" y2="756.19" xlink:href="#A"/><linearGradient id="C" x1="218" y1="929.99" x2="277.5" y2="929.99" xlink:href="#A"/><linearGradient id="D" x1="224.5" y1="958.19" x2="257.5" y2="958.19" xlink:href="#A"/><linearGradient id="E" x1="337" y1="916.99" x2="396.5" y2="916.99" xlink:href="#A"/><linearGradient id="F" x1="343.5" y1="945.19" x2="376.5" y2="945.19" xlink:href="#A"/><linearGradient id="G" x1="756" y1="908.99" x2="815.5" y2="908.99" xlink:href="#A"/><linearGradient id="H" x1="762.5" y1="937.19" x2="795.5" y2="937.19" xlink:href="#A"/><linearGradient id="I" x1="187" y1="759.24" x2="345" y2="759.24" xlink:href="#A"/><linearGradient id="J" x1="204.26" y1="810.91" x2="291.89" y2="810.91" xlink:href="#A"/><linearGradient id="K" x1="392" y1="897.24" x2="550" y2="897.24" xlink:href="#A"/><linearGradient id="L" x1="409.26" y1="948.91" x2="496.89" y2="948.91" xlink:href="#A"/><linearGradient id="M" x1="563" y1="831.24" x2="721" y2="831.24" xlink:href="#A"/><linearGradient id="N" x1="580.26" y1="882.91" x2="667.89" y2="882.91" xlink:href="#A"/><linearGradient id="O" x1="687" y1="735.24" x2="845" y2="735.24" xlink:href="#A"/><linearGradient id="P" x1="704.26" y1="786.91" x2="791.89" y2="786.91" xlink:href="#A"/><linearGradient id="Q" x1="829" y1="877.24" x2="987" y2="877.24" xlink:href="#A"/><linearGradient id="R" x1="846.26" y1="928.91" x2="933.89" y2="928.91" xlink:href="#A"/><linearGradient id="S" x1="20" y1="897.24" x2="178" y2="897.24" xlink:href="#A"/><linearGradient id="T" x1="37.26" y1="948.91" x2="124.89" y2="948.91" xlink:href="#A"/><linearGradient id="U" x1="316.15" y1="386.7" x2="694.23" y2="386.7" gradientUnits="userSpaceOnUse"><stop offset="0" stop-color="#69737f" stop-opacity=".3"/><stop offset=".07" stop-color="#807486" stop-opacity=".25"/><stop offset=".36" stop-color="#c7789b" stop-opacity=".11"/><stop offset=".66" stop-color="#f17aa8" stop-opacity=".03"/><stop offset="1" stop-color="#ff7bac" stop-opacity="0"/></linearGradient></defs><path d="M279 564.69s-123-91-72-124 181-48 181-48l373 28s29 18 42 37 42 47 35 57-63 35-88 50-54 76-54 76l-176 47z" fill="#6F3FF5"/><path d="M106 652.69s69-10 105-12 81-14 89-18 204 0 204 0l230-32s21 25 52 31 72 12 81 0 28-14 39-5 30 39 29 43-26 17-28 28c0 0 10-24 28-10s42 39 42 39l23 44v241H0l.5-168.5s26-76 40-92 37-46 42-53 1-27 1-27 15-8 22.5-8.5z" fill="#02E2AC"/><g opacity=".67" stroke="#000"><path d="M132.5 726.5c-3.39-3.46-6.84-7.28-10.25-11.5A161.79 161.79 0 0 1 99 676c0 0 7.5 16.5 43.5 30.5 0 0-3-34-22-33 0 0 25 0 38 16 0 0-14-6-10 22s9 58-6 71a58 58 0 0 0 3.19-19.69c-.26-18.31-9.32-31.35-13.19-36.31z" transform="translate(0 1.69)" fill="url(#A)" class="m"/><ellipse cx="122" cy="756.19" rx="16.5" ry="20" fill="url(#B)"/><path d="M251.5 928.5c-3.39-3.46-6.84-7.28-10.25-11.5A161.79 161.79 0 0 1 218 878c0 0 7.5 16.5 43.5 30.5 0 0-3-34-22-33 0 0 25 0 38 16 0 0-14-6-10 22s9 58-6 71a58 58 0 0 0 3.19-19.69c-.26-18.31-9.32-31.35-13.19-36.31z" transform="translate(0 1.69)" fill="url(#C)" class="m"/><ellipse cx="241" cy="958.19" rx="16.5" ry="20" fill="url(#D)"/><path d="M370.5 915.5c-3.39-3.46-6.84-7.28-10.25-11.5A161.79 161.79 0 0 1 337 865c0 0 7.5 16.5 43.5 30.5 0 0-3-34-22-33 0 0 25 0 38 16 0 0-14-6-10 22s9 58-6 71a58 58 0 0 0 3.19-19.69c-.26-18.31-9.32-31.35-13.19-36.31z" transform="translate(0 1.69)" fill="url(#E)" class="m"/><ellipse cx="360" cy="945.19" rx="16.5" ry="20" fill="url(#F)"/><path d="M789.5 907.5c-3.39-3.46-6.84-7.28-10.25-11.5A161.79 161.79 0 0 1 756 857c0 0 7.5 16.5 43.5 30.5 0 0-3-34-22-33 0 0 25 0 38 16 0 0-14-6-10 22s9 58-6 71a58 58 0 0 0 3.19-19.69c-.26-18.31-9.32-31.35-13.19-36.31z" transform="translate(0 1.69)" fill="url(#G)" class="m"/><ellipse cx="779" cy="937.19" rx="16.5" ry="20" fill="url(#H)"/><path d="M276 756.43c-9-6.51-18.17-13.72-27.22-21.68C219.43 709 200 683.22 187 661.23c0 0 19.92 31.11 115.51 57.5 0 0-8-64.1-58.42-62.21 0 0 66.39 0 100.91 30.16 0 0-37.18-11.31-26.55 41.47S342.34 837.49 302.51 862a81.33 81.33 0 0 0 8.49-37.11c-.71-34.53-24.77-59.12-35-68.46z" transform="translate(0 1.69)" fill="url(#I)" class="m"/><ellipse cx="248.08" cy="810.91" rx="43.82" ry="37.7" fill="url(#J)"/><path d="M481 894.43c-9-6.51-18.17-13.72-27.22-21.68C424.43 847 405 821.22 392 799.23c0 0 19.92 31.11 115.51 57.5 0 0-8-64.1-58.42-62.21 0 0 66.39 0 100.91 30.16 0 0-37.18-11.31-26.55 41.47s23.89 109.34-15.94 133.85a81.33 81.33 0 0 0 8.49-37.11c-.71-34.53-24.77-59.12-35-68.46z" transform="translate(0 1.69)" fill="url(#K)" class="m"/><ellipse cx="453.08" cy="948.91" rx="43.82" ry="37.7" fill="url(#L)"/><path d="M652 828.43c-9-6.51-18.17-13.72-27.22-21.68C595.43 781 576 755.22 563 733.23c0 0 19.92 31.11 115.51 57.5 0 0-8-64.1-58.42-62.21 0 0 66.39 0 100.91 30.16 0 0-37.18-11.31-26.55 41.47S718.34 909.49 678.51 934a81.33 81.33 0 0 0 8.49-37.11c-.71-34.53-24.77-59.12-35-68.46z" transform="translate(0 1.69)" fill="url(#M)" class="m"/><ellipse cx="624.08" cy="882.91" rx="43.82" ry="37.7" fill="url(#N)"/><path d="M776 732.43c-9-6.51-18.17-13.72-27.22-21.68C719.43 685 700 659.22 687 637.23c0 0 19.92 31.11 115.51 57.5 0 0-8-64.1-58.42-62.21 0 0 66.39 0 100.91 30.16 0 0-37.18-11.31-26.55 41.47S842.34 813.49 802.51 838a81.33 81.33 0 0 0 8.49-37.11c-.71-34.53-24.77-59.12-35-68.46z" transform="translate(0 1.69)" fill="url(#O)" class="m"/><ellipse cx="748.08" cy="786.91" rx="43.82" ry="37.7" fill="url(#P)"/><path d="M918 874.43c-9-6.51-18.17-13.72-27.22-21.68C861.43 827 842 801.22 829 779.23c0 0 19.92 31.11 115.51 57.5 0 0-8-64.1-58.42-62.21 0 0 66.39 0 100.91 30.16 0 0-37.18-11.31-26.55 41.47S984.34 955.49 944.51 980a81.33 81.33 0 0 0 8.49-37.11c-.71-34.53-24.77-59.12-35-68.46z" transform="translate(0 1.69)" fill="url(#Q)" class="m"/><ellipse cx="890.08" cy="928.91" rx="43.82" ry="37.7" fill="url(#R)"/><path d="M109 894.43c-9-6.51-18.17-13.72-27.22-21.68C52.43 847 33 821.22 20 799.23c0 0 19.92 31.11 115.51 57.5 0 0-8-64.1-58.42-62.21 0 0 66.39 0 100.91 30.16 0 0-37.18-11.31-26.55 41.47s23.89 109.34-15.94 133.85a81.33 81.33 0 0 0 8.49-37.11c-.71-34.53-24.77-59.12-35-68.46z" transform="translate(0 1.69)" fill="url(#S)" class="m"/><ellipse cx="81.08" cy="948.91" rx="43.82" ry="37.7" fill="url(#T)"/></g><g fill="#5a5bad"><path d="M122.5 838.19s41.5 159.5 55.27 163.73l6.92-.23-62.19-217.5s-33-106-20-116 110-15 110-15 48-3 66-12 21-18 21-18a75.6 75.6 0 0 0-46 0c-25 8-150 14-160 18s-19 10-18 19 47 178 47 178z"/><path d="M23.5 864.19s51 0 74 21 29 12 36 32 9.65 84.5 9.65 84.5 13.77-42.39 8.06-63-20.71-41.5-25.71-48.5-37-26-37-26l-49-12L0 845.46l.41 18.73zm865-245s-29 62-23 89-8 103-1 137c5.07 24.64 1.22 79.74-.91 110.88-.81 11.83-1.37 20.19-1.09 22.12 1 7-.07 23.5-.07 23.5h31.19s-22.12-33.5-15.12-48.5 12-38 0-43-12-6 0-18 0-4 0-28 8-13 15-33 11-35 11-35-8 1-15 15-19 11-18-1-4-20 12-33 31-25 38-36 22-24 22-24l-41 24-23 18s21-30 23-42-20 24-20 24l10-38s-11 15-18-4 14-80 14-80zm-41 22s-33 16-31 55-22 57-21 74-15-42-34-65-15-58-17-64 0-40.36 0-40.36 33 36.36 103 40.36zm-452.35 360.5s123.35-87.5 195.35-99.5 153-50 153-50l28-68s-60-65-64-67-117-29-117-29-164 202-174 222-53.5 91.5-53.5 91.5z"/></g><path d="M343 370.69s-4 43 9 69 73 111 103 129 61 26 94 12 88-56 88-56l53.5-80.5 15-85s4-117 0-135-69-96-69-96l-124-11-121 22-49 64 .5 167.5z" fill="#f4ceb9"/><path d="M329 303.69s13 63 13 85 24 78 34 91 34 56 51 68 44 41 73 40 49 60 49 60l-15 84-30 38-103-200-78-118z" fill="#6d92cc"/><path d="M567.5 334.19s4 15 34 23c0 0-28 5-34-23z" fill="#e1cefb"/><path d="M375.5 184.19s1 26-44 52-42 139-40 152 22 59 46 110 22 126 38 153 84 75 88 106 14 53 8 72-29 42-29 44a277.46 277.46 0 0 0-28-92c-25-49-62-59-68-100 0 0-10 7 6 41s48 66 57 83 34 49 34 49 4 28-10 40-6 0-6 0 2-26-16-45-60-20-69-40-14-20-14-20-3 43 14 58 64 45 72 45c0 0-48-9-72-36s-42-94-42-94-15 49-10 78 24 75 59 69c0 0-49 17-69-67s14-88 7-135-13-112-13-112-26 22-39 24c0 0 36-16 35-37s-8-97-8-106-31-139-22-153 47-81 47-81l50-52z" class="n"/><path d="M354.5 210.19s-30 134-25 158 32 96 34 103 24 90 64 112 55 2 62 32 22 70 25 84 10 67 10 67l-45 77-28 47-54-79-72-128 17-82-30-130-34-94 12-108z" class="o"/><path d="M411.5 595.19s32 35 54 80 24 66 24 66-8-85-22-105-56-41-56-41zm-16-12s-4 44 29 73 47 85 47 85-22-48-53-79-42-121-42-121z" class="n"/><path d="M534.5 163.19s31 54 63 70l63 31 38-4-40-65z" class="o"/><path d="M431.5 147.19s7 49 105 56 129 0 153 7c0 0-6-12-22-22-28-17.5-68.19-25.3-89.5-25.5l-43.5-28.5z" class="n"/><path d="M745.5 510.19s5 8-6 98-7 73 22 157 19 87 0 120-69 39-69 39 67-20 69-71-21-98-21-98 17 87 9 109-26 56-62 51c0 0 39-12 40-51s-13-87-13-87 13 80-8 96a86.34 86.34 0 0 1-44 17s28-49 30-63-41-121-41-121l20-101z" class="o"/><path d="M615.5 552.19s-54 20-81 72-24 146-24 146l6.41 14.35 67.59-81.35z" fill="#6d92cc"/><path d="M711.5 220.19s42 85 43 141-12 75-28 110-62 74-70 99-46 110-28 133 14 40 28 75 11 57 8 79-38 38-55 21-39-30-39-30 34 5 24-20-20-47-29-87-3-105 9-120c15.84-19.8 14.16-58.92 35-99 28.09-54 40.83-45.39 63.5-89.5 37.71-73.38 29.59-150.09 26.94-175.09a344.71 344.71 0 0 0-8.44-47.58z" class="o"/><g class="n"><path d="M733.5 361.19s13 47-41 126-76 84-76 121 0 100 12 133-2 52 7 79-19 44-19 44 22-88 0-133-31-52-23-90 39.72-110.62 47.36-122.31 53.64-60.69 66.64-104.69 11-97 11-97z"/><path d="M770.38 289.19s36.12 28 32.12 72 1 114-23 140-40 33-61 66-41 50-42 74-16 75-5 94 16 56 21 70 4 32 0 47 16 9-21 28-63 10-63 10l27-13 13-95-32-114 46.25-140.2 63.75-157.8 9.35-110.28z"/><path d="M671.5 202.19s61 69 96 58l35-11s-28 19-40 18-12 0-12 0 38 3 47 0a108.51 108.51 0 0 1-22 7s4 16 23 15c0 0 6 7-19 0s-51-20-51-20l-93-50v-25z"/></g><g fill="#f1afb1"><path d="M446.5 487.19s22-6 40-13 26 6 29 6 9-12 17-8 32 11 42 12 7 3 7 3h-135z"/><path d="M505.5 435.19s-3 20 0 25 9 12 9 7 5-22 0-25a53 53 0 0 1-9-7z" opacity=".28"/><path d="M500.5 417.19s-24-3-21 0 18 6 21 0zm34-1s14-5 20 0-18 5-20 0z"/></g><path d="M467.5 393.19s-7 20 0 27 3 4 3 4-18-9-24 1c0 0 20-20 21-32z" fill="#f9cbbe"/><path d="M562.5 388.19s13 26 0 41c0 0 22-11 0-41zm-67 124s8-7 15-7h14s4 1 5 4-10 9-34 3zm29-195s2 46 5 53 20 18 20 18-21-67-25-71z" fill="#f4b7b4"/><path d="M477,170c-101.56,52.36-119,72.4-116,81,3.32,9.55,32.4,6.69,158,4,75.93-1.63,101.07-1.35,127,16,28.44,19,56.43,57.65,46,87-13.31,37.44-85.47,49.52-124,26-16.81-10.26-27-26-27-26-15.89-24.54-11.19-47.45-19-49-8.65-1.71-13.9,26.5-42,50a118.2,118.2,0,0,1-35,20c-43.71,16.63-73.57-.5-84,14-8.89,12.36,2,37.77,13,51,8,9.59,13,9,21,20,11.71,16.17,5.44,23.69,14,36,15.49,22.27,47.73,14.5,53,32,2.81,9.31-5.67,13.66-2,25,4,12.36,15.19,10.64,20,23,2,5.2,1.33,8.79-3,35h0S328.15,472,322.07,423.5,313,266.11,321,241.56s48.62-74.87,48.62-74.87S463,146,477,170Z" transform="translate(0 1.69)" fill="url(#U)"/><path d="M302.5 280.19s-10-28 10-31 130-10 139-5 17 17 28 21 60 5 65 3 19-21 32-20 137 1 139 3 21 13 18 24-5 18-16 24-15 40-17 47-15 32-38 36-62 13-84 0-35-41-38-50-7-34-16-35-18-3-24 10-16 37-29 49-37 29-76 23-48-5-59-21-10-50-22-64z" fill="#3b3cc8"/><path d="M311.5 264.19s-6 7 0 9 22 0 22 0 8-9 0-9zm384 10s-6 7 0 9 22 0 22 0 8-9 0-9z" fill="#a5fcf6"/><path d="M388.5 269.19s-24 9-35 27-11 20-11 20l-5-28s22-14 35-19 16 0 16 0zm23-13s27 5 31 11l-6-11s-9-8-25 0zm5 104s36 7 47-21c0 0-17 20-47 21zm255-86s23 0 21 30c0 0-4-23-21-30z" fill="#e1cefb"/><path d="M278.5 213.19l30-61a534.83 534.83 0 0 1 80-87c34.25-29.74 55.33-40.13 62.5-43.5a220.38 220.38 0 0 1 72-20c22-2.13 58.3-5.64 94 14 8.85 4.87 15.9 10.91 30 23 41.58 35.65 78.29 96.67 88.25 115 15.75 29 18.75 40.36 21.25 50.5 2 8 5 38 5 38l-55-48-77-44-140-22-94 23-53 33z" fill="#d2c7ff"/><path d="M352 193.59l21.46-54.9a457.79 457.79 0 0 1 57.23-78.31c24.5-26.77 39.58-36.12 44.7-39.15 23.08-13.67 43.13-17 51.51-18 15.74-1.91 41.7-5.07 67.24 12.61 6.33 4.38 11.37 9.82 21.46 20.7 29.74 32.09 56 87 63.12 103.51 11.26 26.09 13.39 36.33 15.2 45.46 1.43 7.2 3.58 34.2 3.58 34.2l-39.34-43.21-55.08-39.6L500 135.69l-64.31 2.09-37.91 29.7z" fill="#b6a3e2"/><path d="M278.5 267.91s-16 11.28-14-7.72 8-12 7-24 0-26 7-26 17-10 17-18 15-5 21-12 19-20 26-18 13 2 20-6-1-19 14-14 12 12 25-1 21-17 30-10 15 0 28-3 21.33-2.88 25.16 2.06 14.84-6.06 27.84-5.06 7-14 24-5 23.56 9.61 35.78 10.3 21.22-14.3 29.22-5.3 13 23 22 17 13-15 28-6 34 22 38 23 15-10 18 4 9 37 19 39 20-1 20 6 14 24 15 26 10 1 10 9 1 16 0 17-9 7.44-22.5 7.72-21.94-8.61-32.22-16.66 5.61-5.44-9.84-13.25-13.44 8.19-24.44-9.81-11-28-24-26-27.61-14.88-32.3-14.94 2.3-14.06-17.7-12.06-30 12-36 0-13-19-28-14-23 9-34 4-17-16-31-7-13 21-29 13-27-7-39 0-13 7-23 9-32.22 13-39.11 22-16.89 16-26.89 19-23 29-23 29z" fill="#cdb1fb"/></svg>