<svg xmlns="http://www.w3.org/2000/svg" xmlns:xlink="http://www.w3.org/1999/xlink" viewBox="0 0 450 432.27" xmlns:v="https://vecta.io/nano"><path d="M450 404s-46-21-61-25-15-5-21-10-16-6-19-6-7-6-13-6a30.15 30.15 0 0 0-30-6c-18 6-151 0-151 0s-12 7-12 8-14 2-15 6-23 2-35 16c0 0 0 4-9 5s-10 12-17 11-23 7-29 9-21 6-25 9-13 5-13 5v12h450z" fill="#11bc92"/><path d="M363 384c-12.53-2.64 27 27 33 35s12 11 12 11-26-42-45-46zm-23-5s0 17-2 29l-3 17s14-36 11-42-6-4-6-4zm65 21s28 17 32 22a48.65 48.65 0 0 1 5 7zm-270-30l18 53c3 8 5 8 5 8s-26-46-23-61zm-4 0s-10 12-3 25 15 30 17 33a12.14 12.14 0 0 0 4 4s-19-30-19-39 1-23 1-23zm-26 11c0 1-4 38-4 42v9l-6-1 2-42c0-5 8-8 8-8zm-15 9s-2 11-8 16-19 26-19 26l-4-1s24-39 31-41zm-42 18c1.73-3.17-8 8-14 11s-8 7-8 7 16-7 22-18z" fill="#02e2ac"/><path d="M321 296s-12 47-7 55c0 0 14 10 14 12s8 21 0 44-11 25-11 25H181s-24-28-28-41-8-25 0-35c0 0 6-48 1-87l135 30z" fill="#dca9a8"/><path d="M294 383s-18 32-18 39v10h5.72S293 415 293 405s1-22 1-22zm16-27c-1.31 15.67-2.8 27.1-4 35-1.11 7.3-2.41 14.55-1 23l2 11h0s2-33 3-37 2-5 2-5 6 15 9 21 5 1 5 1-6-20-9-24-4-13-3-12 8 7 8 7a58.37 58.37 0 0 1-10-24 67 67 0 0 1 0-20l-2 24zm-123 41s10 32 13 34 2 1 2 1h-5.52S186 405 187 397zm-32-27s-3 6-2 11a42.31 42.31 0 0 1 1 7zm-6-98a113.15 113.15 0 0 0 47 88c8.85 6.28 6.51 2.53 28 15 7 4.06 12.53 7.53 20 7 5.94-.42 10.22-3.17 13-5 23.76-15.66 36.09-23.13 38-26s26-46 26-51 1-15 1-15z" fill="#d89c9c"/><path d="M349 199s-12 22-12 30-7 63-18 77-27 45-55 55-63-3-67-6-35-35-42-55-12-50-12-60-14-39-12-47-3-58-3-58 9-37 10-37 38-40 38-40l65-22s35-3 37-2 28 24 28 24l39 60 6 31z" fill="#dca9a8"/><path d="M209 274s-18 0-20-2 2 3 4 4 14 10 16 11 10-1 10-1zm66-2s9-1 12-2l3-1s-7 5-8 6-9 8-11 9-7 3-7 3l-6-2s13-13 17-13z" fill="#ce9797"/><path d="M198 274a15.32 15.32 0 0 1 5 5c.93 1.54 1.74 3.64 2.94 3.55A1.74 1.74 0 0 0 207 282c0 0 1.5 6.5 5.5 4.5l4-2a3 3 0 0 0 2.88 3h.12c3 0 5 1 6 0 0 0 0 2 3 2h11v-2s-1 2 2 2 9-1 10-1 1-2 1-2a4.36 4.36 0 0 0 3 1c2 0 5-1 6-2a5 5 0 0 0 1-3 14.39 14.39 0 0 1 3 2c1 1 3.5.42 3.5.42l1.5-2.42 3.5.25 3-3.34 2.51-3.91-.76-4s-5.24-2-6.24 0-1 1-1 1a12.48 12.48 0 0 0-2.5-.37 13.3 13.3 0 0 0-6.5 1.37 2.67 2.67 0 0 0-1-1c-.57-.31-1.26-.36-5 1a11.24 11.24 0 0 0-4 2l-1 1-2-2c-2-.06-3.74 0-5 0-3.51.11-4.37.37-5 1a4.16 4.16 0 0 0-1 3 4.21 4.21 0 0 0-1-3c-.83-.84-1.95-.94-5-1h-6l-1 2-4-2h-4l-2 2a4.74 4.74 0 0 0-1-1 5.29 5.29 0 0 0-3-1l-4.6-.52H204z" fill="#d8b8b9"/><path d="M210 308a142.79 142.79 0 0 0 25 4c7 .48 10.52.72 14 0 7.67-1.59 17.5-6.5 22-8l3-1a24.07 24.07 0 0 1-6 8c-2.22 1.92-5.29 3.82-14 6-9.86 2.46-14.79 3.69-21 3-8.66-1-14.85-4.58-19-7-3.59-2.09-8.33-5.39-8-6 .2-.36 2.26.35 4 1z" fill="#d89c9c"/><path d="M259.5 138.52A7.44 7.44 0 0 0 257 144c.13 3.37 3 5.7 5.5 6.5a8.71 8.71 0 0 0 7-1 93.33 93.33 0 0 1 25-4c8-.13 11.09 1 13 2 1.56.8 1.76 1.18 8 5 4.91 3 6.92 4.08 7.5 3.5.29-.29.11-.9-.5-2.5-.69-1.82-1.67-4.21-3-7a31.43 31.43 0 0 0-6.5-9.5 18.41 18.41 0 0 0-4.5-3.5 18 18 0 0 0-8-2 30.35 30.35 0 0 0-12 2c-5.14 2-13.75 4.16-29 5.02zm-51 12c2.95 2.28 6.43 2.9 8.5 1.5 2.92-2 2.25-7.37.5-10.5-2.22-4-6.62-5.06-15-7s-14.4-2-22-2-10.89.56-14 2A25 25 0 0 0 159 140c-.95 1-7 8.94-7 18 0 6 1.48 7.13.5 5.5 1.86-4.25 5.67-10.85 13-15 8.13-4.6 16.34-3.77 24-3a63.16 63.16 0 0 1 19 5.02z" fill="#452ba3"/><path d="M338 156s-5-9-12-11-45-2-48-1-18 5-22 8-4 15-3 19 7 19 9 21 8 4 21 4 30 3 40-3 13-31 12-31 6-1 6-1l10 2h2l-2-4s-7-1-9-2a9.93 9.93 0 0 0-4-1zm-203 6h6s2-7 7-10 22-6 35-6 35 2 38 11 1 18-1 26-11 15-27 15-32 2-40-3-11-23-12-25h-6l-1-1s-8 1-9 2-1 0-1 0v-3s0-3 9-4z" fill="#0d0630"/><g fill="#dca9a8"><use xlink:href="#B"/><path d="M144 159s3-5 11-7 23-5 39-3 25 4 26 12-2 23-5 26-2 6-23 8-33 1-38-3-10-15-10-24z"/></g><path d="M203 181s-18 7-28 8zm71 4s21 6 30 6z" fill="#ce9797"/><g opacity=".26" fill="#a2dbd7"><use xlink:href="#B"/><path d="M144 159s3-5 11-7 23-5 39-3 25 4 26 12-2 23-5 26-2 6-23 8-33 1-38-3-10-15-10-24z"/></g><path d="M221 164s14-21 32-1l2 8 1 5 1 3s-6-3-7-12-21-7-22-2-5 13-8 15l1-8z" fill="#0d0630"/><path d="M179 163a9.28 9.28 0 0 0-1 4c-.07 4.57 3.44 7.54 4 8a16.68 16.68 0 0 0 2 0 23.7 23.7 0 0 0 5-1c3.94-1 4.08-.34 5-1 2.56-1.84 3.1-8 0-11-2-1.93-4.87-1.82-6.89-1.76A15 15 0 0 0 179 163z" fill="#111168"/><circle cx="187" cy="167.02" r="2" fill="#0d0630"/><path d="M295 161a10.78 10.78 0 0 1 1 5 11.61 11.61 0 0 1-4 8h-4c-4.59-.11-6.89-.17-8-1-2.8-2.08-3.29-7.61-1-11a7.32 7.32 0 0 1 2-2h7z" fill="#111168"/><g fill="#0d0630"><circle cx="287" cy="166.02" r="2"/><path d="M272 166c-2.18 2.24-2.09 3.52-2 4 .55 2.79 6.11 3.65 6 4s-3.12-.3-6-2c-1.35-.8-1.83-1.35-2-2-.25-1 .2-1.84 1-3a20.23 20.23 0 0 1 6-5.47 56.58 56.58 0 0 1 10-2.53 33.45 33.45 0 0 1 8 0c9.35 1.37 15.55 10.71 17 13a20.49 20.49 0 0 1-6 2c-3.22.53-6 .18-6 0a23.89 23.89 0 0 0 4-1 13.83 13.83 0 0 0 2-1c.57-.05 1.36-.21 1.63-.76.48-1-1-2.56-1.63-3.24a25.51 25.51 0 0 0-16.95-7.78c-.53.01-9.43.04-15.05 5.78zm-104 6a22.87 22.87 0 0 1 9.74-8.74A23.68 23.68 0 0 1 193 162c4 1 9.17 3.63 9 6a4.46 4.46 0 0 1-1 2 14.71 14.71 0 0 1-3 3c.09.15 2.56-.89 5-3a21 21 0 0 0 2-2 23.52 23.52 0 0 0-13-8c-9.57-1.93-18.51 3.51-23 8-7 7-6 7-6 7s3-2 5.81-.86c0 .02.19-.14-.81-2.14z"/></g><path d="M354 203c2 1 6 0 6 9s-7 26-10 33 1 10-6 15-9 2-12-3 3-47 3-47l13-12zm-209 55s-1 8-10 2c0 0-5-2-4-11 0 0-16-10-5-46h6s7 9 8 13 7 38 7 38z" fill="#dca9a8"/><g fill="#ce9797"><path d="M292 241s20 10 12 28c0 0 3-17-12-28z"/><path d="M325 253s-5-2-8 9-6 25-10 32-3 9-3 9 22-43 21-50zm-56-42c4 7.5 4.45 11.61 4 14 0 .07-1 5-1 5a7.38 7.38 0 0 1 4-1c4.66.29 8.21 5.79 8 6s-5.92-3.8-9-10c-.65-1.31-.56-1.47-2-5-1.57-3.84-3-6.93-4-9zm-57 1s-4 8-4 13v9l-2-7s-5 3-7 6c0 0 8-17 13-21zm-27 35s-9 5-9 12a62.54 62.54 0 0 0 2 16s-11-21 7-28zm158-31c-1 0-5 7-5 10s-1 4-1 4 5 0 6 4c0 0 0-4 4-2s0-16-4-16zm9-5a22.19 22.19 0 0 1 2 9v6s4-8 2-11a12.14 12.14 0 0 0-4-4zm-8 27a6.17 6.17 0 0 0 2 4c2 2 3 1 3 1s-5-3-5-5zm-6 5c1 1 3 4 3 6v3s-5-5-5-6 2-3 2-3zm-203-22s-5 3-4 7 1 4 1 7 5 2 5 2 3-4 1-7-3-9-3-9zm0 23s-2 2 1 4 3 3 3 3-7-1-4-7zm-9-30a38.94 38.94 0 0 0 0 12 64.38 64.38 0 0 0 2 10s-7-19-2-22zm137 20s-6-2-12 4c-3 3-4 4.21-3.76 4.49s2.38-.74 3.76-1.49c4.76-2.59 5-4.07 8-5 2.45-.75 4.72-.52 4.8-1.17.04-.29-.4-.59-.8-.83zm-42 3c-.27-.17-2.3-1.48-2-2.36.12-.36.58-.52 1-.64a11.31 11.31 0 0 1 6 0 34.7 34.7 0 0 1 4 2h0c2.9 2.37 5.31 4.53 5 5s-2 0-2 0h0l-4-3z"/></g><path d="M238 212s-7 6-5 11 6 13 8 11 6-9 6-12-7-14-9-10z" fill="#e0adad"/><path d="M304 68c-4.82-6.7-13.62-16.63-26-18-9.08-1-16.26 3-20 5-33.66 18-43.44 7.9-72 25-15.24 9.13-43.38 22.83-46 49-2 20 3 50-2 60s-2 23-2 23l-5-5-5 5c-1 1-5 0-5 0s1-13 2-15-6 2-17-3c0 0 18-7 13-17l-5-10-8 6s7-12 8-15-2-36-2-36l-6 3s24-38 29-43c0 0 4-13 12-21 0 0 8-16 13-22s41-34 52-36 38 8 43 9-14-9-16-9 31 10 37 14 7 7 7 7-12-23-26-24c0 0 11-2 39 32 0 0 12 18 14 19s25-1 46 31c0 0 10 27 10 37s13 13 13 13a19.58 19.58 0 0 1-10-1c0 0 1 6 8 9 0 0-6 3-11-5 0 0 0 14-6 24s-3 30 1 35l-4-2s0 9 1 12-3 5-3 5c-2-.59-3.72-1.39-3.83-2.49-.15-1.59 3.09-2.83 2.83-3.51s-3.65-.5-7 1c-2.2 1-3.51 2.15-8 6h0s5-19 1-27c-13-26.08-8-32.13-10-62-.39-6-.54-12.32-4-20-2.54-5.63-5.29-8.49-12-18-4.49-6.34-7.9-11.63-10-15z" fill="#5932c4"/><path d="M294 43s-18-20-25-22l5 8s-39-16-55-8-13 6-13 6 42-2 44 4c0 0-36-8-61 18l-22 23c28.45-22.19 46-27 57-27 6.38 0 16.39 1.78 28-3 3.62-1.49 7.9-3.83 15-5s10.47-1.73 14 0c3.87 1.92 7.05 6 13 6zm24 15s15 0 23 11 5 15 5 15-16-26-28-26zm4 7s28 18 32 36 0 36 0 36-1-25-5-31c0 0 4 29-2 42s-6 12-6 12 13-53-2-69-17-26-17-26zM139 98s-11 11-17 15c0 0 7 3 9 0 0 0-1 22-9 30l-5 5s10-2 14-9 6-39 16-50l10-11z" fill="#452ba3"/><defs ><path id="B" d="M260 153s17-7 22-7 30-1 36 1 15 5 15 9-1 15-3 22c-1.76 6.16-4 15-16 16s-34 1-38 0-11 1-16-10-6-22-5-25 5-6 5-6z"/></defs></svg>