<svg xmlns="http://www.w3.org/2000/svg" xmlns:xlink="http://www.w3.org/1999/xlink" viewBox="0 0 697 726" xmlns:v="https://vecta.io/nano"><path d="M697,614s-5-15-11-40,0-69-15-82-14-16-15-13-71-35-109-38c0,0-15-2-23-5s-14-11-18-11-12-13-30-26-19-28-33-41-35-15-45-10-141,4-141,4-13-4-36,18-25,50-37,52-24,18-28,24-13,17-23,16-43,14-54,18-44,14-53,34,1,19-5,43c-4.06,16.26-3.24,40.28-9,92-2.4,21.58-4.35,33.94-5,38-2.47,15.38-5,28.08-7,37H697Z" fill="#674def"/><g fill="#5547d6"><path d="M436 474c4-3-5-9 12-15s24 38 36 55 35 38 35 38 7-73-4-87l-1-15s21 39 15 79-5 51-13 38-53-65-59-80-21-13-21-13zm-238 95c-9-8-28-22-27-33s22-25 22-25a22 22 0 0 0-5-2 19.81 19.81 0 0 0-6.38-.28c-6.08.92-9.27 10.21-16.63 22.25-3.28 5.37-5.68 9.29-9 13-7.66 8.56-22.94 19-30 15-11.23-6.41-.68-49 11-77 7.67-18.39 16.5-31.71 16-32s-11.85 15.82-22 37c0 0-13.89 30.45-14 71 0 3.94.15 13.8 4 15 1 .31 2.21 0 7-3a91.41 91.41 0 0 0 10-7c7.73-6.66 16.09-12.56 24-19h0a255.13 255.13 0 0 0 27 31c2.46 2.37 5.21 4.89 9 5 4.91.15 20-16 20-16h0a58.6 58.6 0 0 0-9 5c-4.68 3.17-7.11 5.81-9 5-.85-.34-1.77-1.48-1.99-4.97zm-156 8c2 5 19 59 12 87s-12 60-12 60l22-54c3-8 20.25 54 2 54 8.45-9.09 11.27-56.46 1-77 0 0-31.12-66.81-25-109 0-.22.11-.73.18-.72.51.01.18 21.36-.18 39.72zm172 19s15.72 31.5 22.32 58.5S249 725 249 725s-27.39-114.75-35-129zm447 27c-1.48-4.78 11 57 17 69s19 26 19 26-1-6-6-20-17-33-30-75zm6-127c-10.51 3.6-26.19 10.81-36 26-19.36 30-10.7 18-16 18-2 0-4.12 8.26-10 52l-7 56c-1.4-4.66-21.92-76.74 23-124 15.42-16.23 33.37-24.06 46-28zm-232 0s-10-1-22 23-24 5-23 27 6 11 7 9 34-48 35-50a92.17 92.17 0 0 0 3-9zm-222-71c-3 15.21-6.44 27.09-10 27-5.81-.15-9.07-32.14-10-32-.71.11-.88 19.19 6 43 1.85 6.39 7.76 6.29 23 52a214.63 214.63 0 0 0 18 39l-24-71a100.22 100.22 0 0 1-4-17 110.87 110.87 0 0 1-1-13 151.73 151.73 0 0 1 2-28zm163 299c1 0 0-121 4-137 .56-2.24 2.34-5.47 3.42-5.27 4.9.87-5.56 71.73-2.42 72.27 2 .33-6 70-5 70z"/><path d="M623.78,724C615,712,597,689,597,670V639s3,41,0,50,0,35,0,35l6-15,6.72,15Z"/></g><path d="M415 313a69.84 69.84 0 0 0-5 24c-.12 4.8.59 10.2 2 21 1 7.59.6 2.48 3 17 0 0 2.75 11.56 5.16 14.68 1.06 1.38 1.84 1.93 1.84 2.32 0 1 3 8-9 19s-48 37-52 41-11 9-12 14-16 14-16 19a41.6 41.6 0 0 1-2 11s-4-15-22-32-45-37-53-43-16-9-16-13c0-9.82 4.91-19.27 8-24 8.18-12.55 12.65-35.64-5-82l81 2h83c2.56 0 9.93-.06 11 3 .69 2-1.52 4.53-3 6z" fill="#f4cbc3"/><path d="M412 364c-.58 7.9-2.7 19.56-11 29-10.32 11.74-18.64 6.93-39 22-13.16 9.74-25.86 23.73-27 25l-9 10-5 1c-.86-1.18-2.22-3-4-5-9.55-10.93-18.71-14.87-27-20-8-5-20-13.1-29-27-6-9.29-8.19-17.46-11-17s-4 8.85-4 15c-.13 27.72 23.72 51.06 34.68 61.72L282 460l64 19 51-47c2-3 27-51 27-51z" fill="#efc5bf"/><path d="M361,726s-11-41-7-73,23-125,26-136,22-20,26-26,27-29,28-44,4-62,0-68-20-13-20-13v4c0,11.4,6,26-7,38s-38,24-46,29-26,17-27,22a73.65,73.65,0,0,1-2,8s-11-11-38-27c-17.93-10.63-40.42-27.34-44-42-1.11-4.57-2.84-11.66,0-17a30.73,30.73,0,0,0,3-7,29,29,0,0,0,1-6,47.61,47.61,0,0,0-7.31,5.14s-6.45,3.6-8.69,9.86c-5,14-3,18-7,28s-6,31,0,39c3.9,5.2,7.8,12.09,9.23,19.29A25.46,25.46,0,0,1,240,481c-3,11,7,44,10,64s21,112,21,132-3,49-3,49Z" fill="#c2fced"/><g fill="#5fddae"><path d="M338 473a32.27 32.27 0 0 1 14.1-2.42 9.13 9.13 0 0 1 2.75.37c5.27 2 3.84 10.55 8.15 21.13.5 1.22 6.34 15.22 13 14.92 1.74-.08 2-1.06 7-5 6.46-5.06 7.33-4.42 13-9 5-4.06 4.88-5 9-8a48.14 48.14 0 0 1 11-6c-17.72 23.65-35.77 37.74-43 34-1.89-1-6-4.72-9-8-3.45-3.78-5.18-5.66-6.12-8.21-2.4-6.46.5-12.05-2.69-14.2a4.16 4.16 0 0 0-2.19-.66c-9.21-.81-20.31 11.23-25 9.07-1.82-.84-3.35-4.13-2-15zm42-27s46-28 51-58c0 0 7 23-51 58z"/><path d="M327 487l-12 112c-2 22-4 96-4 98s-2.36 27-2.36 27h7.2l2.16-83c1-18 7-89 9-102l8-52z"/></g><g fill="#0d0630"><ellipse cx="340.5" cy="529" rx="5.5" ry="8"/><ellipse cx="328.5" cy="609" rx="5.5" ry="8"/><ellipse cx="324.5" cy="678" rx="5.5" ry="8"/></g><path d="M438 255c0 1 2 7 6 8s10 0 10-8 1-12 0-21 5-18 5-26 9-26 0-31-14-2-16 9a161.52 161.52 0 0 1-5 20l-2 41zm-212-7c0 1-3 15-9 15s-9 2-10-14 0-20-3-26-9-13-10-29 2-25 10-22 16 9 17 20 6 37 6 37z" fill="#f4cbc3"/><path d="M449 191s2-7 4-7 4-3 3 16-1 28-3 22 0-30-4-31zm-3 19c-1-1.71 3 15 2 16a41.7 41.7 0 0 0-3 4s4-1 4 1v5s3-16-3-26zm-2 36l3 6s2-1 2-2-5-4-5-4zm-236-62s-4-6-8-2-5 16-2 25 5 10 6 12 0-34 4-35zm6 19c-1-2-5 9-6 13s-1 14-1 17 0 6 1 5-1-12 2-14 6-17 4-21zm0 38c1.18-.78-1 4-3 7l-2 3s2-8 5-10zm52 86l11 19 13 23c4 7 4-4 7-10s11 4 17 3 19 1 26-5-8-6.12-8-6.12L269.42 327zm115 49s3-7 9-20 12-28.24 15.48-31.62S405 321 405 321s-22 15-24 20-14 9-14 9 3 1 8 7 2 35 6 19z" fill="#e2bdb3"/><path d="M437 141l4 81c0 28.85 6 38.8 0 54-6.23 15.78-18.16 27.1-37 45a96.68 96.68 0 0 1-20 15 106.93 106.93 0 0 1-13 6c-12.81 4.78-48.06 16.4-82-3-14-8-37-23-45-30s-15-28-18-41-4-44-4-52-8-67-8-67l4-64 41-44 102-11 70 48c4.24 7.67 11.56 23.62 10 44a74.39 74.39 0 0 1-4 19z" fill="#f4cbc3"/><path d="M240 291s17 15 24 19 12 13 16 16 20 17 26 17 21 6 25 2 5-5 9-1 20 0 23-2 22.38-10 24.69-12 5.31-6 14.31-11a85 85 0 0 0 20.43-16C426 299 439 279 440 270s0-6 0-6-3 32-10 41-29 22-33 25-14 15-21 18-23 11-29 11-17 1-30-3-30-14-37-17-29-19-35-24-17-23-18-35-2-17.7-2-17.7 7 26.7 15 28.7z" fill="#efc5bf"/><path d="M374 263l13 1c2 0 4 0 1 2s-14 5-16 6-5-2-5-2l3-3zm-75 0s-13 0-15 1 0 4 2 5 9 1 11 3 4-4 4-4z" fill="#ba9b95"/><path d="M377 263c-1 0-79-2-84 0s-1 7-1 7 15 8 42 8 41-7 43-9 0-6 0-6z" fill="#edc6bc"/><path d="M306 291s24.68 13 58 0c0 0-29.62 20.25-58 0z" fill="#e2bdb3"/><path d="M376,263.88s-2,6.53-4,5.59c0,0-4,2.8-6,.94,0,0-4,8.38-10,2.79,0,0-2,8.39-8,3.73,0,0-19,4.66-26,0a13.17,13.17,0,0,1-9-1.86s-4,2.79-9-1.87c0,0-4-.93-5-2.79,0,0-4-.94-4-1.87V263s5-.93,5,0,2-1.86,4,0c0,0,6-1.86,9,1.87,0,0,5-2.8,9-.94l2,1.87s3-4.66,11-1.87c0,0,7-2.79,12,0,0,0,6-.93,8,.94,0,0,4-3.73,8-1.87a26.16,26.16,0,0,1,9,0Z" fill="#f2e4d6"/><g fill="#e2bdb3"><path d="M380 228c3.35 2.68 17.18 14.11 21 28a22.91 22.91 0 0 1 1 10c-.47 3.21-2.32 6.85-6 14h0s12-12 9-26c-2.52-11.76-34.23-33.71-25-26zm39 26c-.34-5.37-4 17-8 26s-4 11-4 11 13-21 12-37zm-122-26c3.56-.59-23 14-25 26s0 23 2 32l3 14s-16-29-13-43 27-28 33-29zm52 9s3-5 10-3-10 3-10 3zm-18-1s-5-5-14-1c0 0 1 2 14 1z"/><path d="M308 218a11 11 0 0 0-2 12c2.28 4.88 7.49 5.91 8 6-3.58-3.95-8.88-8.43-15-8-3.83.27-6.77 2.38-7 2s2.33-2.68 16-12zm55-7s14 14 7 21l-4 4c5-4.09 9.08-5 12-5s5.53.9 6 0c.58-1.1-2.64-3.84-4-5-3.89-3.32-9.45-8.16-17-15z"/></g><path d="M440 195l-2-26-2-23c-4.68-32.94-18.3-36.74-17-58 .23-3.8 1.21-12.62-3-15-1.88-1.06-3.87-.33-6 0-8.64 1.32-16.05-4.57-20-7-13.19-8.1-43.86-11.74-68-8a113.81 113.81 0 0 0-41 15c-5.13 2.72-10.54 5.38-16.12 8.13C257.5 84.75 249.5 88.5 245 90l-3-8a14.64 14.64 0 0 0-4 7c-1.13 5.12 1.33 9.61 2 11 3.4 7 .69 16.27-7 43-10.17 35.35-9.56 37.73-11 43-3 11 0 27 0 27l-1 2s-3-30-11-37-6-5-8-7-2-3 0-21 1-47 6-61 19-47 40-69c0 0 19-18 31-20h100s31 15 51 55 25 60 25 64-1 41 2 45 3 14 3 14-8-7-10-1-4 25-4 33-4 17-4 17z" fill="#36363f"/><path d="M397 45s-6-17-17-24-32-14-33-16c0 0 2 8 2 10v-2s-3-6-18-5-17 2-17 2 24 2 35 15 21 19 31 23 2 0 2 0-20-19-19-27c0 0 22 7 34 24zm24 26a35.07 35.07 0 0 1 15 11c4.77 6.19 6.19 12.84 9 26a82.55 82.55 0 0 1 2 12 65.76 65.76 0 0 1-3 25c1.41-10.94 2.85-35.25-11.12-58.62A82.45 82.45 0 0 0 421 71zm-2-24s-7-20-22-26 3.29-6.05 13 5a57.17 57.17 0 0 1 11 18 37.5 37.5 0 0 1 2 8c1.1 8.69-1.52 16.07-2 16s.47-3.78 0-10a54.76 54.76 0 0 0-2-11zM227 92s-10 6-13 15 1 33 1 33 2-33 12-48zm87-42s-31-22-50-16-14 27-28 40-16 13-16 13 28-4 37-14 13-24 28-23a237.79 237.79 0 0 0 29 0zm-52-25s18-12 31-4 16 17 24 18l23 3s-16-6-21-19-37-28-55-9-16 19-16 19z" fill="#0c072f"/><path d="M367 151s0-5 4-7 25-5 44 4 9 7 9 7l-9-2-27-4-14 2s-6 2-7 0zm-53 2s4-2 1-6-11-7-18-7a290.77 290.77 0 0 0-32 3c-5 1-13 8-13 8l12-3 16-1 23 1c1 0 11 5 11 5z" fill="#36363f"/><path d="M446 158s-10-4-11-4a69.72 69.72 0 0 1-14-3c-6-2-32-9-48-2s-18 11-20 11h-6v5s4-1 4 3 1 19 7 27 18 22 40 17 29-24 32-43c0 0-2-4 3-6h13zm-115 2s-4 2-11-4-22-14-44-11-21 7-34 5c-3 0-24 4-26 4s-3 6-3 6h26c4 0 8-3 8 4s3 25 7 30 15 18 29 18 23 1 35-14 7-32 9-33a13.39 13.39 0 0 1 5-1z" fill="#0d0630"/><g fill="#f4cbc3"><use xlink:href="#B"/><use xlink:href="#C"/></g><g opacity=".53" fill="#9bcbc3"><use xlink:href="#B"/><use xlink:href="#C"/></g><path d="M325,160s7-2,30,0l-2,8-1-2s-15-5-27,0Z" fill="#3a3941"/><path d="M277.25 169.79s-1 5.38 1 8.07 11.85 2.68 13.83.89 5.92-8.06 3.95-9l-3-.89-4-1.11-3-.19a13.1 13.1 0 0 0-8.83 2.19zm97.75 2.06s2 8.3 5 9.23a26.68 26.68 0 0 0 8 .92c2 0 8-4.62 8-9.23l-1-.92-4.15-1.42-5.85-.69-5.79.52z" fill="#222930"/><path d="M370 179a8.86 8.86 0 0 1 1-3c3.2-5.81 12.24-5.91 14-6a24.31 24.31 0 0 1 14 4c.17.1 2.11 1.4 6 4a1.7 1.7 0 0 1 0 1c-.56 1.66-4 1.72-4 2s1.78.29 4 0c.28 0 4.36-.58 4.38-1.45 0-.1-.11-.27-.38-.55a31.11 31.11 0 0 0-1-1c-.68-.65-18.11-11.57-30-8a15.23 15.23 0 0 0-6 3c-.6.52-.93.9-3 3l-3 3a5.91 5.91 0 0 0 1 1 6.26 6.26 0 0 0 2 1 31.86 31.86 0 0 0 7 1 8.89 8.89 0 0 1-4.12-1.37A8.62 8.62 0 0 1 370 179zm-65-3c-1.75-1.5-11.49-9.67-21-8a38.55 38.55 0 0 0-9 3c-1 .5-1.76.94-7 4a25.05 25.05 0 0 0 10 4 88.13 88.13 0 0 1-14-3c2.53-2.29 11.3-9.73 22-9a35.64 35.64 0 0 1 9 2 58.35 58.35 0 0 1 11 6h0a4.9 4.9 0 0 1 1 2 2.8 2.8 0 0 1 0 1 11.39 11.39 0 0 1-3 1c-1.36.25-2.93.3-3 0s1.37-.58 3-2a9.44 9.44 0 0 0 1-1z" fill="#313745"/><path d="M303,484c3.07-1.33,7.52-3.14,13-5,11.25-3.81,14.94-3.78,15-5,.17-3.38-27.56-13.32-38-3-3.4,3.36-8.85,12.7-12,22-.73,2.17-1.76,5.57-4,6-2.42.46-4.5-2.89-8-7-1.47-1.72-7-6.48-18-16-2.72-2.35-6.83-5.84-12-10a73.16,73.16,0,0,1,2,17c0,9.38-1.82,16.3,0,17,2,.76,4.28-7.45,11-9,5.79-1.34,11.72,3,14.5,5,7.41,5.39,9.16,11.65,12.5,11,.76-.15,1.17-.57,4-5,4.32-6.76,8-13,8-13h0Z" fill="#5fddae"/><defs ><path id="B" d="M419 157s-2-2-9-5-33.63-4.25-46 4c-3 2-7 5-8 10a48.54 48.54 0 0 0 0 17c1 6 9 19 15 22s17 12 38 0c0 0 20-13 16-32 0 0-2-14-6-16z"/><path id="C" d="M255 154c.51-.86 17-8 26-7s23 0 35 10 7 22 5 28-10 22-24 23-23 1-38-12c-1 0-11-20-8-30 0 0 1-7 4-12z"/></defs></svg>