<svg xmlns="http://www.w3.org/2000/svg" width="337" height="100" fill="none" xmlns:v="https://vecta.io/nano"><path fill="#fff" d="M0 0h336.842v100H0z"/><path d="M256.947 88.316l9.052-2.842V10.526l-9.052 2.842v74.947zM152.526 42.842c5.684 0 10.947 2.526 14.316 6.737l3.684-8.526c-4.842-4.631-11.263-6.842-18-6.842-15.579 0-26.316 12.316-26.211 25.895.105 14.737 11.684 26.737 26.211 26.737 7.368 0 12.947-2.21 17.158-5.263V71.158c-4.421 4.421-10.842 7.053-16.421 7.053-8.421 0-17.895-6.842-17.895-18.105 0-10.421 8.21-17.263 17.158-17.263zm60.21-8.632c-15.579 0-24.631 12.316-24.631 25.895 0 14.737 11.684 26.737 26.21 26.737 7.369 0 12.948-2.21 17.158-5.263V71.158c-4.421 4.421-10.842 7.053-16.421 7.053-7.474 0-15.684-4.632-17.368-14.421h39.684v-3.474c0-14.526-9.579-26.105-24.632-26.105zm97.79 0c-14.527 0-26.316 11.789-26.316 26.316s11.789 26.316 26.316 26.316 26.316-11.79 26.316-26.316-11.79-26.316-26.316-26.316zm-97.684 8.632c7.052 0 14.526 4.421 15.157 12.947h-30.315c.631-8.526 8.105-12.947 15.158-12.947zm97.684 35.368c-3.498 0-6.917-1.037-9.825-2.98a17.68 17.68 0 0 1-6.513-7.936c-1.339-3.231-1.689-6.787-1.007-10.218a17.69 17.69 0 0 1 4.84-9.055c2.473-2.473 5.624-4.157 9.055-4.84s6.986-.332 10.217 1.006 5.993 3.605 7.937 6.513 2.98 6.327 2.98 9.825a17.66 17.66 0 0 1-1.338 6.772c-.888 2.147-2.19 4.098-3.833 5.741s-3.594 2.945-5.741 3.833-4.449 1.342-6.772 1.338z" fill="#2e3338"/><path d="M39.474 89.474c15.987 0 28.947-12.96 28.947-28.947s-12.96-28.947-28.947-28.947-28.947 12.96-28.947 28.947 12.96 28.947 28.947 28.947zm0 10.526C17.674 100 0 82.326 0 60.526s17.674-39.474 39.474-39.474 39.474 17.674 39.474 39.474S61.274 100 39.474 100z" fill="#fbcc5c"/><path d="M60.526 68.421c15.987 0 28.947-12.96 28.947-28.947s-12.96-28.947-28.947-28.947-28.947 12.96-28.947 28.947 12.96 28.947 28.947 28.947zm0 10.526c-21.8 0-39.474-17.674-39.474-39.474S38.726 0 60.526 0 100 17.674 100 39.474 82.326 78.947 60.526 78.947z" fill="#35d07f"/><path d="M61.821 78.926c2.736-3.315 4.697-7.199 5.739-11.368a28.86 28.86 0 0 0 11.368-5.738 39.3 39.3 0 0 1-3.067 14.037 39.3 39.3 0 0 1-14.039 3.069h-.001zM32.441 32.44a28.86 28.86 0 0 0-11.368 5.738c.151-4.828 1.191-9.586 3.067-14.037a39.3 39.3 0 0 1 14.039-3.067 28.86 28.86 0 0 0-5.738 11.366z" fill="#5ea33b"/></svg>