<svg xmlns="http://www.w3.org/2000/svg" width="427" height="80" fill="none" xmlns:v="https://vecta.io/nano"><path d="M376.8 40.1c-2.2-1.5-4.6-2.5-7-3.8-1.5-.8-3.1-1.6-4.4-2.7-2.2-1.8-1.8-5.4.6-7 3.3-2.2 8.8-1 9.4 3.5 0 .1.1.2.2.2h5c.1 0 .2-.1.2-.2-.3-3.1-1.5-5.7-3.7-7.4-2.1-1.6-4.5-2.4-7.1-2.4-13.2 0-14.4 14-7.3 18.4.8.5 7.8 4 10.3 5.6 2.5 1.5 3.2 4.3 2.2 6.5-1 2-3.5 3.4-6 3.2-2.8-.2-4.9-1.7-5.7-4-.1-.4-.2-1.2-.2-1.6 0-.1-.1-.2-.2-.2h-5.4c-.1 0-.2.1-.2.2 0 3.9 1 6.1 3.6 8.1 2.5 1.9 5.2 2.7 8.1 2.7 7.4 0 11.2-4.2 12-8.5.6-4.2-.6-8-4.4-10.6h0zm-235.7-19h-2.4-2.6c-.1 0-.2.1-.2.1l-4.5 14.7c-.1.2-.3.2-.4 0l-4.5-14.7c0-.1-.1-.1-.2-.1h-2.6-2.4-3.2c-.1 0-.2.1-.2.2v37.5c0 .1.1.2.2.2h5.4c.1 0 .2-.1.2-.2V30.3c0-.2.3-.3.4-.1l4.5 14.8.3 1c0 .1.1.1.2.1h4.2c.1 0 .2-.1.2-.1l.3-1 4.5-14.8c.1-.2.4-.2.4.1v28.5c0 .1.1.2.2.2h5.4c.1 0 .2-.1.2-.2V21.3c0-.1-.1-.2-.2-.2h-3.2 0zm152.6 0c-.1 0-.2.1-.2.1L289 35.9c-.1.2-.3.2-.4 0l-4.5-14.7c0-.1-.1-.1-.2-.1h-8.3c-.1 0-.2.1-.2.2v37.5c0 .1.1.2.2.2h5.4c.1 0 .2-.1.2-.2V30.3c0-.2.3-.3.4-.1l4.5 14.8.3 1c0 .1.1.1.2.1h4.2c.1 0 .2-.1.2-.1l.3-1 4.5-14.8c.1-.2.4-.2.4.1v28.5c0 .1.1.2.2.2h5.4c.1 0 .2-.1.2-.2V21.3c0-.1-.1-.2-.2-.2h-8.1 0zm-70 0h-10.1-5.4H198c-.1 0-.2.1-.2.2V26c0 .1.1.2.2.2h9.9v32.6c0 .1.1.2.2.2h5.4c.1 0 .2-.1.2-.2V26.2h9.9c.1 0 .2-.1.2-.2v-4.7c.1-.1 0-.2-.1-.2h0zm32 37.9h4.9c.1 0 .2-.1.2-.3l-10.2-37.6c0-.1-.1-.1-.2-.1h-1.9-3.3-1.9c-.1 0-.2.1-.2.1l-10.2 37.6c0 .1.1.3.2.3h4.9c.1 0 .2-.1.2-.1l3-11c0-.1.1-.1.2-.1h10.9c.1 0 .2.1.2.1l3 11s.1.1.2.1h0zm-13-16.6l4-14.7c.1-.2.3-.2.4 0l4 14.7c0 .1-.1.3-.2.3H243c-.2 0-.3-.2-.3-.3h0zM339.9 59h4.9c.1 0 .2-.1.2-.3l-10.2-37.6c0-.1-.1-.1-.2-.1h-1.9-3.3-1.9c-.1 0-.2.1-.2.1l-10.2 37.6c0 .1.1.3.2.3h4.9c.1 0 .2-.1.2-.1l3-11c0-.1.1-.1.2-.1h10.9c.1 0 .2.1.2.1l3 11s.1.1.2.1h0zm-13-16.6l4-14.7c.1-.2.3-.2.4 0l4 14.7c0 .1-.1.3-.2.3h-7.9c-.2 0-.3-.2-.3-.3zm-160.4 11V41.8c0-.1.1-.2.2-.2h14.5c.1 0 .2-.1.2-.2v-4.7c0-.1-.1-.2-.2-.2h-14.5c-.1 0-.2-.1-.2-.2v-9.9c0-.1.1-.2.2-.2h16.4c.1 0 .2-.1.2-.2v-4.7c0-.1-.1-.2-.2-.2h-16.6-5.6c-.1 0-.2.1-.2.2v4.9 10.4 5.1 12 5.1c0 .1.1.2.2.2h5.6 17.3c.1 0 .2-.1.2-.2v-4.9c0-.1-.1-.2-.2-.2h-17.2c0-.1-.1-.2-.1-.3h0zm259.9 5.2l-18.8-19.4c-.1-.1-.1-.2 0-.3l16.9-17.6c.1-.1 0-.3-.1-.3h-6.9c-.1 0-.1 0-.1.1l-14.4 15c-.1.1-.3 0-.3-.1V21.4c0-.1-.1-.2-.2-.2H397c-.1 0-.2.1-.2.2v37.5c0 .1.1.2.2.2h5.4c.1 0 .2-.1.2-.2V42.4c0-.2.2-.3.3-.1l16.2 16.8.1.1h6.9c.3-.2.4-.5.3-.6z" fill="#161616"/><g stroke-linejoin="round"><path d="M80.8.9L48 25.3l6.1-14.4L80.8.9z" fill="#e17726" stroke="#e17726"/><g fill="#e27625" stroke="#e27625"><path d="M5 .9l32.6 24.6-5.8-14.6L5 .9zm64 56.5l-8.8 13.4L79 76l5.3-18.3-15.3-.3zm-67.4.3L6.9 76l18.7-5.2-8.7-13.4-15.3.3z"/><path d="M24.6 34.8l-5.2 7.9 18.5.8-.6-20-12.7 11.3zm36.7 0L48.4 23.3 48 43.5l18.5-.8-5.2-7.9zm-35.7 36l11.2-5.4-9.7-7.6-1.5 13zm23.5-5.4l11.1 5.4-1.5-13-9.6 7.6z"/></g><path d="M60.2 70.8l-11.1-5.4.9 7.2-.1 3.1 10.3-4.9zm-34.6 0L36 75.7l-.1-3.1.9-7.2-11.2 5.4z" fill="#d5bfb2" stroke="#d5bfb2"/><path d="M36.2 53l-9.3-2.7 6.5-3 2.8 5.7zm13.5 0l2.7-5.7 6.6 3-9.3 2.7z" fill="#233447" stroke="#233447"/><path d="M25.6 70.8l1.6-13.4-10.3.3 8.7 13.1zm33.1-13.4l1.5 13.4L69 57.7l-10.3-.3zm7.8-14.7l-18.5.8 1.7 9.5 2.7-5.7 6.6 3 7.5-7.6zm-39.6 7.6l6.5-3 2.8 5.7 1.7-9.5-18.5-.8 7.5 7.6z" fill="#cc6228" stroke="#cc6228"/><path d="M19.4 42.7l7.7 15.1-.2-7.5-7.5-7.6zM59 50.3l-.3 7.5 7.8-15.1-7.5 7.6zm-21.1-6.8L36.2 53l2.1 11.3.5-14.9-.9-5.9zm10.1 0l-.9 5.9.4 14.9L49.7 53 48 43.5z" fill="#e27525" stroke="#e27525"/><path d="M49.7 53l-2.2 11.3 1.6 1.1 9.6-7.6.3-7.5-9.3 2.7zm-22.8-2.7l.2 7.5 9.7 7.6 1.5-1.1L36.2 53l-9.3-2.7z" fill="#f5841f" stroke="#f5841f"/><path d="M49.9 75.7l.1-3.1-.9-.7H36.7l-.8.7.1 3.1-10.4-4.9 3.6 3 7.4 5.1h12.6l7.4-5.1 3.6-3-10.3 4.9z" fill="#c0ac9d" stroke="#c0ac9d"/><path d="M49.1 65.4l-1.6-1.1h-9.2l-1.5 1.1-.9 7.2.8-.7h12.4l.9.7-.9-7.2z" fill="#161616" stroke="#161616"/><path d="M82.2 26.9L85 13.4 80.8.9 49.1 24.5l12.2 10.3 17.2 5 3.8-4.4-1.6-1.2 2.6-2.4-2-1.6 2.6-2-1.7-1.3zM.9 13.4l2.8 13.5-1.8 1.3 2.6 2-2 1.6 2.7 2.4-1.7 1.2 3.8 4.4 17.3-5 12.2-10.3L5 .9.9 13.4z" fill="#763e1a" stroke="#763e1a"/><path d="M78.5 39.8l-17.2-5 5.2 7.9-7.8 15.1 10.3-.1h15.3l-5.8-17.9zm-53.9-5l-17.3 5-5.7 17.9h15.3l10.2.1-7.7-15.1 5.2-7.9zM48 43.5l1.1-19 5-13.6H31.8l5 13.6 1.1 19 .4 6v14.8h9.2V49.5l.5-6z" fill="#f5841f" stroke="#f5841f"/></g></svg>