<svg xmlns="http://www.w3.org/2000/svg" width="414" height="100" fill="none" xmlns:v="https://vecta.io/nano"><g clip-path="url(#A)"><path fill="#fff" d="M0 0h413.223v100H0z"/><path d="M49.669 99.669c27.432 0 49.669-22.238 49.669-49.669S77.101.331 49.669.331 0 22.568 0 50s22.238 49.669 49.669 49.669z" fill="#007896"/><g fill="#fff"><path d="M54.836 62.521c-1.322 1.364-3.182 2.107-5.083 2.107s-3.719-.785-5.083-2.107l-6.446-6.57c-.827-.868-1.983-1.322-3.141-1.322s-2.314.496-3.14 1.322c-2.81 2.851-2.81 7.438 0 10.289l12.81 12.934c1.322 1.364 3.182 2.107 5.083 2.107s3.719-.785 5.083-2.107L67.687 66.24c2.81-2.851 2.81-7.438 0-10.289-.827-.868-1.984-1.322-3.141-1.322-1.198 0-2.314.496-3.141 1.322l-6.57 6.57zM30.538 39.752c1.281-1.322 3.017-2.066 4.876-2.108s3.595.703 4.917 1.984l6.198 6.24c.826.826 1.901 1.24 3.058 1.24s2.231-.496 3.017-1.322c2.727-2.727 2.769-7.149.083-9.917l-12.19-12.314c-1.322-1.281-3.058-2.025-4.917-1.983s-3.595.744-4.876 2.066L18.265 36.24c-2.727 2.727-2.769 7.149-.083 9.917.826.827 1.901 1.24 3.058 1.24s2.231-.496 3.016-1.322l6.281-6.322z"/><path d="M59.008 39.463c1.281-1.322 3.017-2.066 4.876-2.107 1.859 0 3.595.702 4.917 1.983l6.157 6.24c.826.827 1.901 1.24 3.058 1.24s2.231-.496 3.017-1.322c2.727-2.727 2.769-7.149.083-9.917l-12.19-12.314c-1.322-1.281-3.058-2.025-4.917-1.984-1.86 0-3.595.785-4.876 2.107L46.736 35.992c-2.727 2.727-2.769 7.149-.083 9.917.826.826 1.901 1.24 3.058 1.24s2.231-.496 3.017-1.322l6.281-6.364z"/></g><g fill="#007896"><path d="M166.776 34.008l-13.76 17.727c-.083.124-.207.165-.331.165h-1.694c-.124 0-.248-.041-.331-.165l-13.801-17.562c-.124-.165-.331-.207-.496-.124-.165.041-.289.207-.289.413v32.975a.46.46 0 0 1-.455.455h-5.579a.46.46 0 0 1-.454-.455l.083-45.992a.46.46 0 0 1 .454-.455h4.05c.124 0 .248.083.33.165l17.025 21.86c.083.124.207.165.331.165s.248-.083.33-.165l16.942-21.859c.083-.124.207-.165.331-.165h4.05a.46.46 0 0 1 .454.455v45.95a.46.46 0 0 1-.454.455h-5.538a.46.46 0 0 1-.454-.455V34.298c0-.165-.124-.331-.289-.413s-.372 0-.455.124zM192.604 80h-5.702c-.166 0-.29-.083-.372-.207s-.083-.289 0-.413l6.115-13.264c.042-.124.042-.248 0-.372L178.968 35.62c-.083-.124-.042-.289 0-.413s.206-.207.372-.207h6.074c.165 0 .33.083.413.248l9.339 22.769c.372.703.578 1.488.62 2.273h.33a7.95 7.95 0 0 1 .455-2.231v-.041l9.339-22.727c.082-.165.248-.289.413-.248h5.62c.165 0 .289.083.372.207s.082.289.041.413l-19.38 44.091c-.041.165-.207.248-.372.248zM256.9 62.686c.124.165.124.413-.041.579l-.372.372c-.579.537-1.198.992-1.818 1.446a16.5 16.5 0 0 1-3.099 1.818c-1.405.62-2.852 1.074-4.381 1.405a26.48 26.48 0 0 1-5.702.62c-6.901 0-12.562-2.355-16.942-7.025s-6.57-10.496-6.57-17.397c0-6.983 2.19-12.81 6.529-17.479s10-7.025 16.983-7.025c2.934-.041 5.826.496 8.595 1.488 2.603.992 4.422 1.983 5.455 2.975l1.281 1.198c.165.165.206.413.041.579l-3.182 4.256c-.083.124-.207.165-.331.165a.47.47 0 0 1-.33-.124l-.165-.165c-.248-.207-.744-.579-1.529-1.116s-1.571-1.033-2.438-1.488c-1.033-.496-2.108-.909-3.223-1.157a17.06 17.06 0 0 0-4.091-.496c-4.959 0-9.009 1.777-12.19 5.331s-4.753 7.892-4.753 13.099c0 5.165 1.571 9.504 4.753 13.017 3.181 3.554 7.231 5.289 12.19 5.289 2.148 0 4.256-.413 6.239-1.198s3.389-1.57 4.298-2.355l.041-.041.868-.868a.47.47 0 0 1 .33-.124c.124 0 .248.083.331.165l3.223 4.256zm23.595-22.934a.39.39 0 0 1-.413.413h-3.017c-2.273-.041-4.421.868-5.992 2.521-1.652 1.694-2.562 4.008-2.479 6.364v18.306a.39.39 0 0 1-.413.413h-5.537a.39.39 0 0 1-.414-.413v-31.86a.39.39 0 0 1 .414-.413h3.967a.39.39 0 0 1 .413.413l.165 5.124h.372a8.72 8.72 0 0 1 3.678-4.132A11 11 0 0 1 277.024 35h3.016a.39.39 0 0 1 .414.413l.041 4.339zM297.439 80h-5.703c-.165 0-.289-.041-.372-.207-.082-.124-.082-.289 0-.413l6.116-13.264a.58.58 0 0 0 0-.372L283.802 35.62c-.082-.124-.082-.289 0-.413s.207-.207.372-.207h6.075a.43.43 0 0 1 .413.289l9.339 22.769c.413.95.991 1.694.991 2.273h-.413c0-.578.537-1.322.827-2.273l9.338-22.769c.083-.165.248-.289.414-.289h5.619c.166 0 .29.041.372.165a.49.49 0 0 1 .042.413L297.81 79.752c-.041.165-.206.248-.371.248zm29.296-16.281v15.868a.39.39 0 0 1-.413.413h-5.579a.39.39 0 0 1-.413-.413V35.496a.39.39 0 0 1 .413-.413h4.256a.39.39 0 0 1 .414.413l.041 4.339h.331c.124 0 .289-.083.372-.207l.247-.413c.372-.496.786-.909 1.24-1.322a13.25 13.25 0 0 1 2.273-1.736 14.78 14.78 0 0 1 3.388-1.322c1.488-.413 3.017-.578 4.546-.578a14.33 14.33 0 0 1 10.95 4.711c2.934 3.14 4.38 7.314 4.38 12.438 0 5.041-1.446 9.174-4.339 12.355-2.685 3.099-6.611 4.876-10.743 4.793a20.6 20.6 0 0 1-4.504-.496 10.88 10.88 0 0 1-3.224-1.24c-.702-.455-1.363-.909-1.983-1.446-.413-.331-.785-.744-1.116-1.157l-.041-.041-.289-.537-.207.083zm2.562-3.636a9.7 9.7 0 0 0 7.893 3.223c2.231-.083 4.297-.992 5.909-2.521 2.396-2.314 3.595-5.413 3.595-9.339 0-3.43-.951-6.281-2.852-8.512-1.776-2.19-4.421-3.43-7.231-3.347-2.81-.041-5.496 1.116-7.355 3.223-1.984 2.149-2.976 5.041-2.976 8.636s1.034 6.446 3.017 8.636zm31.529-25.455v-9.132c0-.248.207-.455.413-.455h5.537c.248 0 .414.207.414.455v9.132c0 .248.206.413.454.413h8.513c.248 0 .413.207.413.413v4.215c0 .248-.207.413-.413.413h-8.513c-.248 0-.454.207-.454.413v17.686c0 3.264 1.529 4.917 4.545 4.917.744 0 1.446-.124 2.149-.331a6.47 6.47 0 0 0 1.735-.744l.207-.124c.124-.041.248-.041.331 0 .124.041.206.124.248.248l1.652 3.802c.083.165.042.413-.124.496l-.867.579c-.661.372-1.364.62-2.108.868-1.529.496-3.14.744-4.752.702-3.099-.083-5.413-.992-6.983-2.727-1.653-1.818-2.48-4.339-2.48-7.562V40.537c0-.248-.206-.413-.413-.413h-5.124c-.124 0-.206-.041-.289-.124s-.124-.207-.124-.289v-4.215c0-.248.207-.413.413-.413h5.124c.124 0 .207-.041.289-.124s.207-.207.207-.331zm47.563 29.298c-3.223 3.141-7.19 4.669-11.859 4.669-4.753 0-8.678-1.57-11.86-4.669-3.182-3.141-4.752-7.231-4.752-12.314 0-5.165 1.612-9.339 4.793-12.521s7.149-4.793 11.819-4.793c4.462-.083 8.76 1.653 11.859 4.835 3.223 3.223 4.835 7.397 4.835 12.479s-1.612 9.215-4.835 12.314zm-4.545-3.719c1.983-2.149 2.975-5.041 2.975-8.719 0-3.595-.992-6.488-2.975-8.76-1.819-2.149-4.505-3.389-7.356-3.347a9.61 9.61 0 0 0-7.396 3.306c-1.984 2.19-3.017 5.124-3.017 8.76s.992 6.57 2.975 8.719c1.901 2.066 4.587 3.223 7.356 3.223s5.537-1.116 7.438-3.182z"/></g></g><defs><clipPath id="A"><path fill="#fff" d="M0 0h413.223v100H0z"/></clipPath></defs></svg>