<svg xmlns="http://www.w3.org/2000/svg" width="350" height="100" fill="none" xmlns:v="https://vecta.io/nano"><g fill="#fff"><path d="M0 0h350v100H0z"/><path fill-rule="evenodd" d="M98.137 41.304c-.932.932-1.863 1.242-3.106 1.242H70.186c17.702 9.938 27.329 30.745 28.572 52.485 0 2.174-1.553 4.348-3.727 4.658l-.311-4.348c0-1.553-.311-2.795-.311-4.348-2.795-22.36-14.907-42.236-34.783-48.447-1.863-.621-4.037-.932-6.211-1.242-1.242-.31-2.484-.31-3.727-.31h-.621c.311-.932.311-1.553.621-2.484h45.652v-3.416-.621c-2.174-16.77-16.46-29.503-33.54-29.503h-16.46-.31c-22.36 0-40.373 18.012-40.373 40.373 0 15.217 8.385 28.571 20.807 35.404 1.242.621 2.795 1.242 4.037 1.863l2.174-15.528s.311 7.143 2.484 13.354c.621 1.553 1.242 3.106 2.174 4.348 2.795.621 5.901.932 8.696.932 2.484 0 4.658-.311 7.143-.621l3.727-.932c.311 0 .621-.311.932-.311l-2.795-3.727c-4.348-6.522-5.901-15.217-6.211-23.913 1.863 11.491 6.211 19.565 11.491 25.155.621.621 1.242 1.242 1.553 1.863 10.248 9.938 23.292 12.112 29.814 12.422h3.727.621l.311 4.348h-.311-1.553c-1.242 0-2.795 0-4.969-.311-4.037-.311-9.938-1.242-15.838-3.727-4.658-1.863-9.317-4.658-13.665-8.696-.311.311-.621.311-1.242.621-4.037 1.242-8.385 1.863-12.733 1.863-3.416 0-6.522-.311-9.627-.932-.932-.311-1.863-.932-2.484-1.863-.311-.311-.311-.621-.621-.932l-.31.311c-1.242.621-2.485.621-3.727.311C11.491 79.193 0 63.044 0 44.721A44.53 44.53 0 0 1 44.721 0h16.46c19.876 0 36.025 14.907 37.888 34.162 0 1.242.311 2.795.311 4.037s-.311 2.174-1.242 3.105z"/></g><path d="M41.926 37.267h19.876 31.988c0-17.702-14.286-31.988-31.988-31.988H46.584l-4.658 31.988z" fill="#ffba7b"/><path d="M43.168 23.603h24.534c18.323 0 23.602 11.18 23.602 11.18H43.168v-11.18z" fill="#f87aa3"/><path d="M13.357 34.472c0-12.733 10.248-26.398 22.981-27.329 1.863 0 3.727 0 4.969.932 2.174 1.242 3.106 10.87 2.174 18.323l-.31 2.174c-2.485 14.286-9.006 34.472-22.36 28.571-6.522-2.795-7.453-14.596-7.453-22.671z" fill="#fff"/><g fill="#152239"><path d="M33.541 23.292c2.174 0 4.037-1.863 4.037-4.037 0-.932-.311-1.553-.621-2.174-.31.621-.621.932-1.242.932a1.34 1.34 0 0 1-1.242-1.242c0-.621.31-.932.621-1.242-.621-.311-.932-.311-1.553-.311-2.174 0-4.037 1.863-4.037 4.037s1.863 4.037 4.037 4.037z"/><g fill-rule="evenodd"><path d="M41.927 36.957l4.348-32.609h-1.553C22.362 4.348 4.35 22.36 4.35 44.721c0 16.77 10.248 31.056 24.845 37.267l2.174-15.528s.311 11.491 4.348 17.702c2.795.621 5.901.932 8.696.932 4.037 0 8.075-.621 11.801-1.553-10.248-11.491-10.559-32.298-6.211-46.584h-8.075zM36.648 8.696c3.727-.932 6.832 2.484 6.211 6.522l-4.037 28.882c-1.242 9.317-10.559 17.702-17.391 11.18-4.658-4.348-7.453-11.801-4.969-24.845 3.106-15.217 13.354-20.186 20.186-21.739z"/><path d="M43.791 34.472h31.987 15.528c-.621-4.658-2.174-9.317-4.658-13.043-5.28-8.385-14.907-13.665-25.466-13.665H47.828l-4.037 26.708zm-4.037 3.727l4.969-33.851h16.46c17.391 0 31.988 13.354 33.851 30.435v3.416H39.754z"/></g><path d="M92.238 37.267c-2.795-.311-17.081 1.242-16.149-2.484 1.242-5.901 5.279-10.87 10.559-13.044 5.28-2.485 7.143 15.528 5.59 15.528zm2.485 57.764s-48.447 4.348-48.447-54.658c29.503.31 46.584 25.776 48.447 54.658zm76.085-55.279v-9.006h-40.372v9.006h15.527v39.752h9.317V39.752h15.528zm12.423 32.298c-4.348 0-8.696-3.416-8.696-9.627 0-6.522 4.037-9.627 8.696-9.627 4.347 0 8.695 3.106 8.695 9.627s-4.037 9.627-8.695 9.627zm0-27.329c-9.938 0-17.702 7.453-17.702 18.012 0 10.248 7.764 18.012 17.702 18.012s17.701-7.453 17.701-18.012-7.453-18.012-17.701-18.012zm45.031 34.783h8.695c0-1.242-.31-3.416-.31-6.211v-27.64h-9.006v19.565c0 4.037-2.485 6.522-6.522 6.522-4.348 0-6.211-3.106-6.211-6.832V45.342h-9.007V66.77c0 7.453 4.659 13.354 12.733 13.354 3.416 0 7.454-1.242 9.317-4.658 0 1.553 0 3.106.311 4.037zm31.056-26.397c4.658 0 6.521 2.795 7.453 5.59l8.074-2.795c-1.552-5.59-6.521-11.491-15.838-11.491-9.938 0-17.391 7.453-17.391 18.013 0 10.248 7.764 18.012 17.702 18.012 9.006 0 14.285-5.901 15.838-11.491l-8.075-2.485c-.621 2.485-3.105 5.59-7.763 5.59s-8.696-3.416-8.696-9.627c0-5.901 4.037-9.317 8.696-9.317zm26.708 9.317c0-6.211 3.416-9.938 8.385-9.938 4.658 0 8.385 3.727 8.385 9.938s-3.416 9.938-8.385 9.938-8.385-4.037-8.385-9.938zm16.77 12.733c0 1.553.31 3.416.31 4.037h8.696c0-.621-.311-3.106-.311-6.211v-27.64h-9.006v4.348c-.931-1.863-3.726-5.279-9.627-5.279-9.938 0-16.149 7.764-16.149 17.702 0 10.248 6.522 18.012 16.459 18.012 4.659 0 8.075-2.484 9.317-5.59v.621h.311zm25.776-15.217c0-4.037 2.485-7.143 6.211-7.143 4.348 0 6.212 3.106 6.212 6.832v19.565h9.006v-21.43c0-7.453-3.727-13.354-12.112-13.354-3.727 0-7.764 1.553-9.627 4.969v-4.037h-9.007v33.851h9.007V59.938h.31z"/></g></svg>