<svg xmlns="http://www.w3.org/2000/svg" width="456" height="100" fill="none" xmlns:v="https://vecta.io/nano"><g clip-path="url(#A)"><path fill="#fff" d="M0 0h455.556v100H0z"/><path d="M194.168 49.861c0-16.667-13.611-30.278-30.417-30.278s-30.417 13.611-30.417 30.278 13.611 30.278 30.417 30.278 30.417-13.472 30.417-30.278zM160.279.139C161.39 0 162.64 0 163.89 0s2.5 0 3.611.139h20.694 92.362c6.805 0 12.361 1.389 16.944 4.167 4.444 2.778 7.917 6.25 10.417 10.278 2.361 4.167 3.611 8.611 3.889 13.472.138 4.861-.695 9.444-2.5 13.611-1.945 4.167-4.862 7.639-9.028 10.417-4.028 2.778-9.167 4.306-15.278 4.306l-8.889.139 36.389 20.833V25.694c0-5.972 1.528-10.972 4.583-15s6.945-6.806 11.528-8.611c4.722-1.667 9.722-2.222 15.139-1.528s10.555 2.639 15.139 6.111l96.25 69.444V100L346.668 21.806c-1.945-1.389-3.889-2.222-5.695-2.5-1.805-.139-3.333 0-4.722.694s-2.5 1.806-3.194 3.194c-.834 1.528-1.112 3.056-1.112 5l.417 71.389h-19.861v.278l-98.194-60.139v-1.111l67.777-.139c3.473 0 6.111-.972 8.056-2.917 1.805-1.944 2.778-4.167 2.917-6.389.138-2.361-.695-4.444-2.362-6.389s-4.305-2.917-7.777-2.917l-79.445-.139c6.528 8.472 10.278 18.889 10.278 30.417 0 27.5-22.361 49.861-50 49.861-.972 0-1.806 0-2.639-.139V100H28.751c-5.278 0-10-1.111-13.889-3.333s-7.083-5.139-9.306-8.611C3.195 84.583 1.668 80.694.834 76.389a29.1 29.1 0 0 1 .278-12.5c.972-4.028 2.778-7.778 5.417-11.25s6.389-5.972 10.972-7.778l72.083-25.417H6.945V0l153.334.139zm-40.834 26.667L25.14 63.194a7.88 7.88 0 0 0-4.167 4.028c-.694 1.806-.833 3.75-.417 5.695.556 1.944 1.528 3.611 3.195 5.139 1.528 1.528 3.611 2.222 6.25 2.222l94.028.139c-6.528-8.472-10.417-19.028-10.417-30.417.139-8.472 2.222-16.389 5.833-23.194z" fill="#000"/></g><defs><clipPath id="A"><path fill="#fff" d="M0 0h455.556v100H0z"/></clipPath></defs></svg>