<svg width="252" height="252" viewBox="0 0 252 252" fill="none" xmlns="http://www.w3.org/2000/svg">
<path d="M4.51472 105.75L61.6783 105.286C64.9094 105.258 66.419 101.292 64.0153 99.1438L21.5014 61.1387C18.4664 58.4285 21.6897 53.6047 25.3795 55.3361L77.0847 79.5836C80.01 80.9562 83.0999 78.0355 81.8725 75.0601L60.1529 22.4746C58.604 18.7232 63.6114 15.7673 66.1798 18.9182L102.184 63.0768C104.22 65.5725 108.278 64.2739 108.47 61.0646L111.842 4.31435C112.082 0.266607 117.885 -0.236437 118.822 3.70991L131.998 59.029C132.743 62.1565 136.966 62.7375 138.538 59.9298L166.336 10.2534C168.32 6.70867 173.762 8.75984 172.888 12.7218L160.622 68.2476C159.928 71.3867 163.481 73.7342 166.124 71.882L212.841 39.1218C216.174 36.786 220.186 40.9819 217.668 44.1717L182.389 88.9035C180.393 91.4343 182.569 95.0804 185.757 94.5501L242.145 85.1911C246.168 84.5243 247.952 90.0344 244.289 91.8243L192.988 116.906C190.086 118.326 190.455 122.549 193.561 123.45L248.446 139.348C252.363 140.483 251.563 146.219 247.485 146.25L190.322 146.714C187.091 146.742 185.581 150.708 187.985 152.856L230.499 190.861C233.534 193.572 230.31 198.395 226.62 196.664L174.915 172.416C171.99 171.044 168.9 173.965 170.127 176.94L191.847 229.525C193.396 233.277 188.389 236.233 185.82 233.082L149.816 188.923C147.78 186.428 143.722 187.726 143.53 190.935L140.158 247.686C139.918 251.733 134.115 252.236 133.178 248.29L120.003 192.971C119.257 189.844 115.034 189.263 113.462 192.07L85.6644 241.747C83.6802 245.291 78.2376 243.24 79.112 239.278L91.3776 183.752C92.0716 180.613 88.519 178.266 85.8761 180.118L39.1587 212.878C35.8257 215.214 31.8143 211.018 34.3317 207.828L69.6109 163.096C71.6068 160.566 69.4305 156.92 66.2426 157.45L9.85543 166.809C5.83226 167.476 4.0481 161.966 7.71052 160.176L59.0118 135.094C61.9135 133.674 61.545 129.451 58.4393 128.55L3.55402 112.652C-0.363275 111.517 0.436653 105.781 4.51472 105.75V105.75Z" fill="#0E0333" stroke="#EAE4FF" stroke-miterlimit="10"/>
<path d="M11.0713 102.162L65.5292 103.862C68.6074 103.96 70.1954 100.239 67.9878 98.1025L28.9403 60.3158C26.1523 57.6212 29.4069 53.1484 32.8537 54.9344L81.1788 79.9656C83.9119 81.3812 86.9665 78.7139 85.9078 75.836L67.2114 24.9429C65.8782 21.3124 70.7562 18.6841 73.0854 21.7803L105.702 65.1824C107.545 67.6352 111.462 66.5512 111.764 63.5017L117.125 9.57862C117.509 5.72976 123.05 5.47239 123.795 9.26665L134.245 62.4449C134.837 65.4515 138.836 66.1651 140.44 63.5485L168.794 17.2802C170.818 13.9773 175.927 16.1377 174.943 19.8773L161.156 72.2991C160.376 75.2628 163.669 77.6298 166.257 75.9647L211.991 46.5152C215.253 44.4134 218.915 48.5625 216.398 51.5067L181.107 92.7874C179.111 95.1232 181.044 98.6757 184.103 98.2896L238.157 91.4888C242.015 91.0053 243.502 96.3204 239.949 97.888L190.142 119.854C187.326 121.098 187.518 125.134 190.44 126.105L242.109 143.302C245.795 144.531 244.819 149.963 240.933 149.842L186.475 148.142C183.397 148.044 181.809 151.764 184.017 153.901L223.064 191.688C225.852 194.383 222.598 198.855 219.151 197.069L170.826 172.038C168.093 170.623 165.038 173.29 166.097 176.168L184.793 227.061C186.126 230.691 181.248 233.32 178.919 230.223L146.302 186.821C144.459 184.368 140.542 185.453 140.24 188.502L134.88 242.425C134.496 246.274 128.955 246.531 128.21 242.737L117.76 189.559C117.168 186.552 113.168 185.839 111.564 188.455L83.21 234.723C81.1866 238.026 76.0773 235.866 77.0615 232.126L90.8485 179.705C91.6288 176.741 88.335 174.374 85.747 176.039L40.0138 205.488C36.7514 207.59 33.089 203.441 35.6064 200.497L70.8973 159.216C72.8932 156.88 70.9601 153.328 67.9015 153.714L13.8475 160.515C9.98906 160.998 8.50292 155.683 12.0555 154.116L61.8629 132.15C64.6783 130.906 64.4861 126.87 61.5648 125.899L9.89495 108.701C6.209 107.473 7.18539 102.041 11.0713 102.162V102.162Z" fill="#0E0333" stroke="#EAE4FF" stroke-miterlimit="10"/>
<path d="M17.623 98.5744L69.3752 102.439C72.3005 102.657 73.967 99.1827 71.9554 97.0574L36.3703 59.4852C33.8294 56.8062 37.1115 52.6844 40.319 54.525L85.2601 80.3361C87.8011 81.7946 90.8204 79.3847 89.9342 76.6004L74.265 27.3958C73.1475 23.8862 77.9 21.5854 79.9861 24.631L109.215 67.2804C110.866 69.6904 114.638 68.8208 115.054 65.9312L122.406 14.8392C122.931 11.1931 128.217 11.1736 128.766 14.8158L136.495 65.8532C136.93 68.7389 140.71 69.5812 142.345 67.1595L171.26 24.2995C173.323 21.2423 178.095 23.504 177.001 27.0253L161.696 76.343C160.83 79.1312 163.865 81.5216 166.398 80.0437L211.147 53.9049C214.339 52.041 217.652 56.1394 215.131 58.8379L179.824 96.6675C177.828 98.8083 179.518 102.267 182.444 102.029L234.168 97.7867C237.858 97.4825 239.054 102.607 235.607 103.948L187.294 122.798C184.561 123.863 184.577 127.716 187.318 128.761L235.768 147.256C239.227 148.574 238.07 153.706 234.376 153.429L182.624 149.565C179.699 149.347 178.032 152.821 180.044 154.946L215.629 192.519C218.17 195.198 214.888 199.319 211.68 197.479L166.739 171.668C164.198 170.209 161.179 172.619 162.065 175.403L177.734 224.608C178.852 228.118 174.099 230.418 172.013 227.373L142.784 184.723C141.134 182.313 137.361 183.183 136.946 186.073L129.593 237.165C129.068 240.811 123.782 240.83 123.233 237.188L115.504 186.151C115.069 183.265 111.289 182.423 109.654 184.844L80.7389 227.704C78.6764 230.762 73.9042 228.5 74.9983 224.979L90.3028 175.661C91.1694 172.873 88.1344 170.482 85.6012 171.96L40.8523 198.099C37.6604 199.963 34.347 195.864 36.8683 193.166L72.175 155.336C74.1709 153.195 72.4808 149.737 69.5556 149.974L17.8308 154.217C14.141 154.521 12.945 149.397 16.3917 148.056L64.7051 129.205C67.4382 128.141 67.4225 124.288 64.6815 123.243L16.231 104.747C12.7725 103.429 13.9292 98.2975 17.623 98.5744V98.5744Z" fill="#0E0333" stroke="#EAE4FF" stroke-miterlimit="10"/>
<path d="M24.1763 94.9907L73.2229 101.019C75.9952 101.359 77.7402 98.1298 75.9247 96.0202L43.806 58.6663C41.516 55.999 44.8255 52.2282 47.7899 54.1272L89.3509 80.7222C91.6997 82.2275 94.6838 80.071 93.9662 77.3842L81.3242 29.872C80.4223 26.4833 85.0493 24.5101 86.8923 27.5011L112.733 69.394C114.196 71.761 117.823 71.1059 118.348 68.3762L127.689 20.1114C128.355 16.6681 133.382 16.8904 133.739 20.3766L138.743 69.2731C139.025 72.0379 142.581 73.0128 144.244 70.7822L173.716 31.3304C175.818 28.515 180.253 30.8859 179.053 34.181L162.227 80.3947C161.274 83.0074 164.054 85.4173 166.528 84.1265L210.293 61.2985C213.414 59.6685 216.379 63.7163 213.857 66.1691L178.535 100.548C176.539 102.49 177.99 105.863 180.782 105.765L230.174 104.081C233.699 103.96 234.601 108.885 231.26 110.008L184.44 125.739C181.794 126.628 181.629 130.289 184.186 131.409L229.421 151.203C232.648 152.614 231.311 157.442 227.813 157.013L178.766 150.984C175.994 150.645 174.249 153.874 176.065 155.984L208.183 193.338C210.473 196.005 207.164 199.776 204.199 197.877L162.638 171.282C160.29 169.776 157.306 171.933 158.023 174.62L170.665 222.132C171.567 225.521 166.94 227.494 165.097 224.503L139.256 182.61C137.794 180.243 134.167 180.898 133.641 183.628L124.301 231.892C123.634 235.336 118.607 235.113 118.25 231.627L113.247 182.731C112.964 179.966 109.408 178.991 107.745 181.222L78.2735 220.673C76.1717 223.489 71.7368 221.118 72.9367 217.823L89.7626 171.609C90.7155 168.996 87.9354 166.587 85.4611 167.877L41.6963 190.705C38.575 192.335 35.6106 188.288 38.132 185.835L73.4543 151.456C75.4502 149.514 73.9993 146.141 71.2074 146.239L21.8158 147.923C18.2906 148.044 17.3887 143.119 20.7296 141.996L67.5489 126.265C70.1958 125.376 70.3604 121.714 67.8038 120.595L22.5686 100.801C19.3415 99.3894 20.6786 94.5617 24.1763 94.9907V94.9907Z" fill="#0E0333" stroke="#EAE4FF" stroke-miterlimit="10"/>
<path d="M30.7275 91.4031L77.0724 99.5961C79.6917 100.06 81.5151 97.077 79.8956 94.9751L51.2394 57.8396C49.1964 55.1879 52.5334 51.768 55.2586 53.7217L93.4395 81.1005C95.6001 82.6486 98.541 80.7456 97.9999 78.1563L88.3851 32.3326C87.6989 29.0648 92.2004 27.4231 93.8003 30.3556L116.253 71.4959C117.524 73.8239 121.006 73.3794 121.645 70.8096L132.973 25.3758C133.781 22.1353 138.553 22.5954 138.714 25.9335L140.996 72.6892C141.125 75.3331 144.455 76.4366 146.152 74.3972L176.181 38.3497C178.322 35.7759 182.42 38.2522 181.11 41.3289L162.767 84.4385C161.728 86.8757 164.249 89.3091 166.668 88.2055L209.449 68.6882C212.503 67.2961 215.111 71.2931 212.59 73.5003L177.256 104.424C175.256 106.171 176.467 109.45 179.126 109.501L226.188 110.374C229.545 110.437 230.153 115.167 226.922 116.068L181.592 128.683C179.028 129.397 178.687 132.871 181.063 134.064L223.083 155.157C226.083 156.662 224.565 161.186 221.259 160.601L174.915 152.408C172.295 151.944 170.472 154.927 172.091 157.029L200.748 194.164C202.791 196.816 199.454 200.236 196.728 198.282L158.547 170.903C156.387 169.355 153.446 171.258 153.987 173.848L163.602 219.671C164.288 222.939 159.787 224.581 158.187 221.648L135.734 180.508C134.463 178.18 130.981 178.625 130.342 181.194L119.014 226.628C118.206 229.869 113.434 229.408 113.273 226.07L110.991 179.315C110.862 176.671 107.532 175.567 105.834 177.607L75.8058 213.654C73.6648 216.228 69.5671 213.752 70.8768 210.675L89.2203 167.565C90.2594 165.128 87.7381 162.695 85.3187 163.798L42.5382 183.316C39.4835 184.708 36.8759 180.711 39.3973 178.504L74.7314 147.58C76.7312 145.833 75.5196 142.554 72.861 142.503L25.7985 141.629C22.4419 141.567 21.8341 136.837 25.0652 135.936L70.3945 123.321C72.959 122.607 73.3001 119.133 70.9239 117.94L28.9041 96.8469C25.9044 95.3417 27.4219 90.8182 30.7275 91.4031V91.4031Z" fill="#0E0333" stroke="#EAE4FF" stroke-miterlimit="10"/>
<path d="M37.2798 87.8154L80.9191 98.1727C83.3855 98.7576 85.2873 96.0201 83.8639 93.9338L58.674 57.0167C56.8781 54.3806 60.2464 51.3117 62.7285 53.32L97.5254 81.4787C99.4939 83.0697 102.399 81.4241 102.027 78.9283L95.4393 34.7971C94.9688 31.6462 99.3449 30.336 100.706 33.2177L119.774 73.6055C120.853 75.8906 124.19 75.6605 124.943 73.2506L138.259 30.6479C139.208 27.6063 143.725 28.3121 143.694 31.4941L143.251 76.109C143.227 78.632 146.333 79.8642 148.062 78.0198L178.648 45.3805C180.832 43.0524 184.588 45.6339 183.173 48.4884L163.312 88.494C162.19 90.7557 164.449 93.2085 166.813 92.2921L208.614 76.0817C211.598 74.9235 213.856 78.8737 211.335 80.8352L175.985 108.308C173.985 109.86 174.954 113.046 177.483 113.241L222.212 116.672C225.404 116.918 225.718 121.449 222.589 122.128L178.753 131.627C176.275 132.165 175.758 135.452 177.95 136.72L216.754 159.111C219.522 160.71 217.828 164.929 214.715 164.188L171.076 153.831C168.609 153.246 166.707 155.984 168.131 158.07L193.321 194.987C195.117 197.623 191.748 200.692 189.266 198.684L154.469 170.525C152.501 168.934 149.595 170.58 149.968 173.075L156.555 217.207C157.026 220.357 152.65 221.668 151.289 218.786L132.22 178.398C131.142 176.113 127.805 176.343 127.052 178.753L113.736 221.356C112.787 224.397 108.27 223.692 108.301 220.51L108.744 175.895C108.768 173.372 105.662 172.139 103.933 173.984L73.3472 206.623C71.1631 208.951 67.4065 206.37 68.8221 203.515L88.6831 163.51C89.8045 161.248 87.5459 158.795 85.1814 159.712L43.3812 175.922C40.3972 177.08 38.1386 173.13 40.6599 171.168L76.0097 143.696C78.0095 142.144 77.041 138.958 74.5118 138.763L29.7824 135.332C26.5906 135.086 26.2769 130.555 29.406 129.876L73.2413 120.377C75.7195 119.839 76.2371 116.551 74.0452 115.284L35.2408 92.8927C32.4724 91.2938 34.1664 87.0745 37.2798 87.8154V87.8154Z" fill="#0E0333" stroke="#6F3FF5" stroke-miterlimit="10"/>
<path d="M43.8365 84.2318L84.7701 96.7494C87.0836 97.4591 89.0638 94.9634 87.8365 92.8888L66.109 56.1862C64.5601 53.5657 67.9559 50.8477 70.1988 52.9105L101.616 81.853C103.392 83.4909 106.262 82.0987 106.062 79.6966L102.498 37.2538C102.243 34.2239 106.49 33.2412 107.611 36.0683L123.292 75.6995C124.178 77.9418 127.374 77.9262 128.237 75.6761L143.545 35.9007C144.639 33.0618 148.894 34.0094 148.67 37.0393L145.506 79.5133C145.325 81.9154 148.211 83.2803 149.972 81.6269L181.118 52.3958C183.342 50.3095 186.765 53.0002 185.24 55.6324L163.857 92.5339C162.649 94.6202 164.653 97.0964 166.959 96.3672L207.775 83.4675C210.688 82.5472 212.598 86.4467 210.073 88.1586L174.707 112.18C172.707 113.537 173.433 116.633 175.829 116.972L218.229 122.962C221.256 123.391 221.276 127.727 218.252 128.184L175.911 134.567C173.515 134.93 172.821 138.03 174.833 139.368L210.422 163.061C212.963 164.754 211.088 168.669 208.167 167.776L167.233 155.258C164.92 154.549 162.94 157.044 164.167 159.119L185.894 195.822C187.443 198.442 184.047 201.16 181.805 199.097L150.388 170.155C148.611 168.517 145.741 169.909 145.941 172.311L149.505 214.754C149.76 217.784 145.514 218.767 144.392 215.939L128.711 176.308C127.825 174.066 124.629 174.081 123.767 176.332L108.458 216.107C107.364 218.946 103.11 217.998 103.333 214.968L106.498 172.494C106.678 170.092 103.792 168.727 102.031 170.381L70.885 199.612C68.6617 201.698 65.2385 199.007 66.7638 196.375L88.1462 159.474C89.354 157.387 87.3502 154.911 85.0445 155.64L44.2286 168.54C41.3151 169.461 39.4055 165.561 41.9307 163.849L77.2962 139.828C79.296 138.471 78.5706 135.374 76.1747 135.035L33.7746 129.045C30.7474 128.617 30.7278 124.28 33.7511 123.824L76.0924 117.44C78.4883 117.078 79.1823 113.978 77.1707 112.64L41.5818 88.9463C39.0408 87.2539 40.9151 83.3388 43.8365 84.2318V84.2318Z" fill="#0E0333" stroke="#6F3FF5" stroke-miterlimit="10"/>
<path d="M50.3892 80.6444L88.6171 95.3262C90.7777 96.1568 92.8364 93.9107 91.8051 91.8478L73.544 55.3635C72.2421 52.7586 75.6693 50.3916 77.6691 52.513L105.706 82.2354C107.29 83.9161 110.125 82.7813 110.098 80.4767L109.56 39.7263C109.521 36.8172 113.642 36.1621 114.521 38.9347L126.814 77.8133C127.508 80.0126 130.558 80.2115 131.539 78.1213L148.835 41.1769C150.07 38.5408 154.07 39.7263 153.651 42.6042L147.765 82.9373C147.431 85.2185 150.094 86.7121 151.886 85.2536L183.589 59.4308C185.852 57.5863 188.938 60.3823 187.302 62.7961L164.403 96.5936C163.109 98.5043 164.853 101 167.104 100.458L206.936 90.869C209.779 90.1866 211.34 94.0354 208.814 95.5017L173.437 116.072C171.437 117.234 171.92 120.237 174.186 120.72L214.253 129.268C217.112 129.876 216.837 134.022 213.924 134.252L173.076 137.519C170.767 137.703 169.892 140.616 171.723 142.031L204.093 167.023C206.403 168.806 204.348 172.42 201.623 171.371L163.395 156.69C161.234 155.859 159.176 158.105 160.207 160.168L178.468 196.652C179.77 199.257 176.343 201.624 174.343 199.503L146.306 169.78C144.722 168.1 141.887 169.235 141.914 171.539L142.452 212.29C142.491 215.199 138.37 215.854 137.491 213.081L125.198 174.203C124.504 172.003 121.453 171.804 120.473 173.894L103.177 210.839C101.941 213.475 97.9418 212.29 98.3614 209.412L104.247 169.079C104.58 166.797 101.918 165.304 100.126 166.762L68.4229 192.585C66.1603 194.43 63.0743 191.634 64.7095 189.22L87.6094 155.422C88.9034 153.511 87.1584 151.016 84.9077 151.558L45.0759 161.147C42.233 161.829 40.6724 157.98 43.1976 156.514L78.5749 135.944C80.5747 134.782 80.0924 131.779 77.8259 131.296L37.7589 122.748C34.9003 122.14 35.1748 117.994 38.0883 117.764L78.9356 114.496C81.2452 114.313 82.1197 111.4 80.2885 109.985L47.9188 84.9924C45.6092 83.2103 47.6639 79.5954 50.3892 80.6444V80.6444Z" fill="#0E0333" stroke="#6F3FF5" stroke-miterlimit="10"/>
<path d="M56.9397 77.0567L92.462 93.9028C94.4697 94.8542 96.6067 92.8538 95.7715 90.8026L80.9728 54.5367C79.918 51.9474 83.3726 49.9314 85.1332 52.1073L109.79 82.6135C111.186 84.3371 113.982 83.4558 114.123 81.2487L116.613 42.1907C116.789 39.4026 120.785 39.075 121.42 41.7969L130.325 79.9189C130.827 82.0754 133.733 82.4887 134.827 80.5585L154.111 46.4413C155.488 44.0079 159.229 45.4352 158.617 48.161L150.006 86.3493C149.52 88.5097 151.959 90.1358 153.782 88.8684L186.042 66.4499C188.344 64.8511 191.092 67.7523 189.351 69.94L164.93 100.633C163.55 102.369 165.036 104.884 167.232 104.529L206.079 98.2508C208.852 97.8023 210.063 101.604 207.538 102.825L172.145 119.94C170.145 120.907 170.384 123.816 172.518 124.444L210.255 135.55C212.949 136.342 212.381 140.288 209.573 140.3L170.22 140.448C167.993 140.456 166.942 143.181 168.592 144.667L197.747 170.958C199.829 172.834 197.594 176.144 195.061 174.943L159.538 158.097C157.531 157.146 155.394 159.146 156.229 161.197L171.028 197.463C172.082 200.053 168.628 202.069 166.867 199.893L142.211 169.386C140.815 167.663 138.019 168.544 137.878 170.751L135.388 209.809C135.211 212.597 131.215 212.925 130.58 210.203L121.675 172.081C121.173 169.925 118.268 169.511 117.174 171.442L97.889 205.559C96.5126 207.992 92.7718 206.565 93.3835 203.839L101.994 165.651C102.481 163.49 100.042 161.864 98.2183 163.132L65.9585 185.55C63.6567 187.149 60.908 184.248 62.649 182.06L87.0703 151.367C88.4506 149.631 86.9645 147.116 84.7686 147.471L45.9211 153.749C43.1488 154.198 41.9371 150.396 44.4624 149.175L79.8553 132.06C81.8551 131.093 81.6159 128.184 79.4828 127.556L41.745 116.45C39.0511 115.658 39.6197 111.712 42.4273 111.7L81.7806 111.552C84.0079 111.544 85.0587 108.819 83.4079 107.333L54.2537 81.042C52.1715 79.1663 54.4066 75.8556 56.9397 77.0567V77.0567Z" fill="#0E0333" stroke="#6F3FF5" stroke-miterlimit="10"/>
<path d="M128.326 44.6512L133.843 82.0207C134.157 84.1342 136.917 84.7621 138.121 82.9917L159.394 51.7055C160.911 49.4711 164.397 51.144 163.589 53.7138L152.257 89.7613C151.618 91.8008 153.829 93.5556 155.688 92.4832L188.505 73.4729C190.846 72.1158 193.257 75.1224 191.406 77.0916L165.468 104.681C164.001 106.241 165.228 108.779 167.369 108.612L205.233 105.644C207.934 105.434 208.793 109.181 206.268 110.16L170.859 123.824C168.855 124.596 168.855 127.415 170.859 128.188L206.268 141.852C208.793 142.826 207.934 146.578 205.233 146.367L167.369 143.4C165.228 143.232 164.001 145.771 165.468 147.33L191.406 174.92C193.257 176.889 190.846 179.896 188.505 178.539L155.688 159.528C153.833 158.452 151.618 160.211 152.257 162.25L163.589 198.298C164.397 200.871 160.911 202.54 159.394 200.306L138.121 169.02C136.917 167.249 134.157 167.877 133.843 169.991L128.326 207.36C127.934 210.028 124.063 210.028 123.671 207.36L118.154 169.991C117.84 167.877 115.08 167.249 113.876 169.02L92.6034 200.306C91.0859 202.54 87.5999 200.868 88.4077 198.298L99.74 162.25C100.379 160.211 98.1676 158.456 96.3089 159.528L63.4923 178.539C61.1513 179.896 58.7397 176.889 60.5906 174.92L86.5294 147.33C87.996 145.771 86.7686 143.232 84.6276 143.4L46.7643 146.367C44.0626 146.578 43.2039 142.83 45.7291 141.852L81.1378 128.188C83.1415 127.415 83.1415 124.596 81.1378 123.824L45.7291 110.16C43.2039 109.185 44.0626 105.434 46.7643 105.644L84.6276 108.612C86.7686 108.779 87.996 106.241 86.5294 104.681L60.5906 77.0916C58.7397 75.1224 61.1513 72.1158 63.4923 73.4729L96.3089 92.4832C98.1637 93.5595 100.379 91.8008 99.74 89.7613L88.4077 53.7138C87.5999 51.1401 91.0859 49.4711 92.6034 51.7055L113.876 82.9917C115.08 84.7621 117.84 84.1342 118.154 82.0207L123.671 44.6512C124.063 41.9839 127.934 41.9839 128.326 44.6512V44.6512Z" fill="#0E0333" stroke="#6F3FF5" stroke-miterlimit="10"/>
</svg>
