<svg width="202" height="232" viewBox="0 0 202 232" fill="none" xmlns="http://www.w3.org/2000/svg">
<path d="M101.548 115.506L144.636 58.1077C148.414 53.074 154.492 50.6716 160.92 51.7351C169.901 53.2215 200.065 58.5264 200.065 58.5264C200.065 58.5264 189.57 87.3464 186.364 95.8812C184.07 101.99 178.954 106.061 172.713 106.823L101.548 115.505L101.548 115.506ZM144.688 173.804C148.466 178.838 154.544 181.24 160.972 180.176C169.953 178.69 200.117 173.385 200.117 173.385C200.117 173.385 189.622 144.565 186.416 136.03C184.122 129.922 179.006 125.85 172.765 125.089L101.6 116.407L144.688 173.805L144.688 173.804ZM72.771 182.981C70.3084 188.776 71.2704 195.25 75.4048 200.295C81.1801 207.343 100.848 230.858 100.848 230.858C100.848 230.858 120.516 207.343 126.291 200.295C130.424 195.25 131.386 188.776 128.925 182.981L100.848 116.9L72.771 182.981V182.981ZM28.8776 125.178C22.6367 125.939 17.5206 130.01 15.2263 136.119C12.0203 144.654 1.52586 173.474 1.52586 173.474C1.52586 173.474 31.6881 178.779 40.6707 180.265C47.098 181.328 53.1762 178.926 56.9544 173.892L100.043 116.494L28.8776 125.176L28.8776 125.178ZM56.9039 58.1976C53.1257 53.1639 47.0475 50.7615 40.6202 51.825C31.639 53.3114 1.47536 58.6163 1.47536 58.6163C1.47536 58.6163 11.9698 87.4364 15.1758 95.9711C17.4702 102.08 22.5862 106.151 28.8271 106.912L99.9923 115.595L56.9039 58.1962L56.9039 58.1976ZM128.821 49.0208C131.284 43.2256 130.321 36.7519 126.187 31.7069C120.412 24.6585 100.744 1.14333 100.744 1.14333C100.744 1.14333 81.0763 24.6585 75.301 31.7069C71.1681 36.7519 70.206 43.2256 72.6673 49.0208L100.744 115.102L128.821 49.0208V49.0208Z" stroke="#FFD6D3" stroke-miterlimit="10"/>
<path d="M100.841 231L100.841 182.206L100.841 231ZM1.3997 173.54L43.5822 149.144L1.3997 173.54ZM43.5373 82.9364L1.35482 58.539L43.5373 82.9364ZM100.751 0.999999L100.751 49.7935L100.751 0.999999ZM200.192 58.4617L158.01 82.8578L200.192 58.4617ZM158.055 149.065L200.237 173.461L158.055 149.065ZM142.653 110.454C146.25 110.016 149.2 107.668 150.522 104.148C152.371 99.2276 158.419 82.6147 158.419 82.6147C158.419 82.6147 141.032 79.5563 135.856 78.6993C132.15 78.0867 128.647 79.4705 126.469 82.3731L101.63 115.46L142.653 110.456L142.653 110.454ZM126.52 149.54C128.697 152.441 132.201 153.826 135.906 153.214C141.084 152.357 158.47 149.298 158.47 149.298C158.47 149.298 152.42 132.685 150.573 127.765C149.25 124.245 146.301 121.897 142.704 121.459L101.681 116.454L126.52 149.541L126.52 149.54ZM84.6624 155.086C83.2431 158.427 83.7971 162.159 86.1798 165.067C89.5092 169.13 100.847 182.684 100.847 182.684C100.847 182.684 112.184 169.13 115.513 165.065C117.896 162.157 118.45 158.426 117.031 155.085L100.847 116.994L84.6624 155.085L84.6624 155.086ZM58.9389 121.547C55.3416 121.986 52.3923 124.333 51.0698 127.854C49.2214 132.774 43.1727 149.387 43.1727 149.387C43.1727 149.387 60.5601 152.445 65.7365 153.302C69.4417 153.915 72.945 152.531 75.123 149.628L99.9616 116.542L58.9389 121.546L58.9389 121.547ZM75.0725 82.4616C72.8945 79.5605 69.3912 78.1752 65.686 78.7878C60.5082 79.6448 43.1222 82.7032 43.1222 82.7032C43.1222 82.7032 49.1723 99.3161 51.0193 104.236C52.3418 107.757 55.2911 110.104 58.8884 110.543L99.9111 115.547L75.0725 82.4602L75.0725 82.4616ZM116.93 76.915C118.349 73.5742 117.795 69.8428 115.412 66.9346C112.083 62.8717 100.746 49.3172 100.746 49.3172C100.746 49.3172 89.4082 62.8717 86.0788 66.9361C83.6961 69.8442 83.1421 73.5756 84.5614 76.9164L100.746 115.007L116.93 76.9164L116.93 76.915Z" stroke="#FFD6D3" stroke-miterlimit="10"/>
<path d="M101.41 116.001L161.544 93.7571C166.817 91.8071 172.709 92.5685 177.299 95.8433C183.714 100.419 200.593 116.001 200.593 116.001C200.593 116.001 183.714 131.583 177.299 136.158C172.709 139.433 166.817 140.195 161.544 138.245L101.41 116.001ZM111.94 179.824C112.891 185.375 116.495 190.104 121.621 192.45C128.784 195.726 150.695 202.579 150.695 202.579C150.695 202.579 155.725 180.144 156.474 172.291C157.01 166.671 154.722 161.178 150.4 157.579L101.103 116.532L111.94 179.823L111.94 179.824ZM51.1932 157.58C46.8695 161.18 44.5835 166.671 45.1193 172.292C45.8682 180.146 50.8987 202.58 50.8987 202.58C50.8987 202.58 72.809 195.727 79.9726 192.451C85.0985 190.106 88.7042 185.376 89.6536 179.825L100.49 116.535L51.1932 157.582L51.1932 157.58ZM40.0494 93.7571C34.7763 91.8071 28.8846 92.5685 24.2945 95.8433C17.8797 100.419 0.999996 116.001 0.999996 116.001C0.999996 116.001 17.8797 131.583 24.2945 136.158C28.8846 139.433 34.7763 140.195 40.0494 138.245L100.183 116.001L40.0494 93.7571V93.7571ZM89.6536 52.1777C88.7028 46.627 85.0985 41.8981 79.9726 39.5519C72.809 36.2757 50.8987 29.4226 50.8987 29.4226C50.8987 29.4226 45.8682 51.8574 45.1193 59.7108C44.5835 65.3304 46.8709 70.8235 51.1932 74.4229L100.49 115.47L89.6536 52.1791L89.6536 52.1777ZM150.4 74.4214C154.724 70.8221 157.01 65.3304 156.474 59.7094C155.725 51.856 150.695 29.4212 150.695 29.4212C150.695 29.4212 128.784 36.2743 121.621 39.5505C116.495 41.8953 112.889 46.6256 111.94 52.1763L101.103 115.467L150.4 74.42L150.4 74.4214Z" stroke="#FFD6D3" stroke-miterlimit="10"/>
<path d="M110.354 116.001C110.354 110.713 106.075 106.426 100.796 106.426C95.5175 106.426 91.2384 110.713 91.2384 116.001C91.2384 121.288 95.5175 125.575 100.796 125.575C106.075 125.575 110.354 121.288 110.354 116.001Z" fill="#1F774D" stroke="#FFD6D3" stroke-miterlimit="10"/>
</svg>
