<svg width="260" height="262" viewBox="0 0 260 262" fill="none" xmlns="http://www.w3.org/2000/svg">
<path d="M94.8959 42.3271L84.9416 17.4347M192.5 211.069L172.558 185.348L192.5 211.069ZM172.225 217.675L160.287 192.969L172.225 217.675ZM185.781 213.779L168.651 188.175L185.781 213.779ZM179.009 215.976L164.552 190.73L179.009 215.976ZM165.462 218.911L155.873 194.925L165.462 218.911ZM139.224 219.452L137.201 199.511L139.224 219.452ZM145.614 219.939L141.977 198.866L145.614 219.939ZM152.131 220.019L146.695 197.879L152.131 220.019ZM158.756 219.677L151.336 196.558L158.756 219.677ZM211.879 199.789L182.997 175.368L211.879 199.789ZM199.126 207.85L176.268 182.271L199.126 207.85ZM205.599 204.075L179.751 178.925L205.599 204.075ZM188.703 167.579L223.635 189.588L188.703 167.579ZM132.979 218.533L132.389 199.806L132.979 218.533ZM217.912 194.944L185.991 171.571L217.912 194.944ZM66.978 164.108L69.0911 162.992L66.978 164.108ZM73.6538 177.897L77.1457 174.986L73.6538 177.897ZM68.8893 168.789L71.4913 167.179L68.8893 168.789ZM71.1173 173.396L74.1825 171.185L71.1173 173.396ZM76.4992 182.289L80.3577 178.587L76.4992 182.289ZM126.891 217.202L127.559 199.789L126.891 217.202ZM79.6478 186.544L83.8075 181.961L79.6478 186.544ZM64.0751 154.578L65.1763 154.183L64.0751 154.578ZM65.361 159.374L66.974 158.661L65.361 159.374ZM63.097 149.757L63.6957 149.588L63.097 149.757ZM104.764 208.191L108.634 196.413L104.764 208.191ZM109.93 210.945L113.266 197.757L109.93 210.945ZM115.351 213.383L117.98 198.764L115.351 213.383ZM90.9041 198.321L95.462 190.484L90.9041 198.321ZM86.8542 194.576L91.38 187.912L86.8542 194.576ZM99.8654 205.143L104.111 194.736L99.8654 205.143ZM95.2426 201.847L99.7124 192.759L95.2426 201.847ZM83.101 190.642L87.488 185.064L83.101 190.642ZM12.5879 113.784L9.50176 113.339L12.5879 113.784ZM15.3272 105.888L10.9991 104.953L15.3272 105.888ZM10.2468 121.93L8.58195 121.808L10.2468 121.93ZM121.011 215.478L122.751 199.443L121.011 215.478ZM191.504 25.3633L169.374 63.4103L191.504 25.3633ZM196.597 150.056L242.262 163.325L196.597 150.056ZM198.745 29.8415L173.342 67.247L198.745 29.8415ZM195.103 154.616L238.367 170.542L195.103 154.616ZM205.702 34.7466L177.059 71.1835L205.702 34.7466ZM191.145 163.415L228.994 183.722L191.145 163.415ZM193.281 159.087L233.927 177.361L193.281 159.087ZM249.244 97.0255L197.325 111.727L249.244 97.0255ZM251.075 105.46L198.288 116.509L251.075 105.46ZM198.641 140.606L248.28 147.759L198.641 140.606ZM252.322 122.599L199.307 126.129L252.322 122.599ZM250.307 139.548L199.158 135.794L250.307 139.548ZM251.653 131.156L199.352 130.977L251.653 131.156ZM246.635 88.7886L196.077 107.007L246.635 88.7886ZM252.103 114.023L198.941 121.314L252.103 114.023ZM218.589 45.9247L183.547 79.5532L218.589 45.9247ZM224.493 52.1186L186.339 83.9339L224.493 52.1186ZM212.331 40.1061L180.458 75.282L212.331 40.1061ZM229.951 58.7455L188.808 88.4427L229.951 58.7455ZM239.44 73.0987L192.928 97.642L239.44 73.0987ZM243.354 80.7907L194.612 102.307L243.354 80.7907ZM234.96 65.7511L191.004 93.0266L234.96 65.7511ZM245.594 155.694L197.793 145.355L245.594 155.694ZM168.284 14.9192L155.706 53.1629L168.284 14.9192ZM160.511 12.2235L150.514 50.3402L160.511 12.2235ZM134.881 8.79882L133.529 44.0303L134.881 8.79882ZM143.371 9.42706L139.418 45.7695L143.371 9.42706ZM126.36 8.76524L127.455 42.6814L126.36 8.76524ZM101.125 12.2134L108.253 41.2079L101.125 12.2134ZM92.947 14.5437L101.612 41.5516L92.947 14.5437ZM176.258 17.8817L160.581 56.32L176.258 17.8817ZM117.894 9.30434L121.19 41.7585L117.894 9.30434ZM184.002 21.36L165.128 59.7437L184.002 21.36ZM109.461 10.4581L114.779 41.2752L109.461 10.4581ZM151.815 10.6488L145.121 47.8732L151.815 10.6488ZM37.3345 72.2138L27.03 65.7201L37.3345 72.2138ZM48.9656 62.0324L37.1032 51.9972L48.9656 62.0324ZM43.0227 66.8783L31.8301 58.6831L43.0227 66.8783ZM32.0156 78.0524L22.7491 73.0756L32.0156 78.0524ZM13.0991 96.6939L18.6728 98.3148L13.0991 96.6939ZM27.1139 84.3718L18.9796 80.7157L27.1139 84.3718ZM22.655 91.1406L15.7576 88.6018L22.655 91.1406ZM55.5143 34.3555L67.964 50.4028L55.5143 34.3555ZM74.6136 47.5924L62.4216 29.3668L74.6136 47.5924ZM81.351 45.339L69.6348 24.8687L81.351 45.339ZM77.1573 20.8848L88.128 43.5954L77.1573 20.8848ZM61.4486 53.7659L48.9743 39.806L61.4486 53.7659ZM55.1209 57.6549L42.8319 45.6896L55.1209 57.6549Z" stroke="#EAE4FF" stroke-miterlimit="10" stroke-linecap="round"/>
<path d="M165.632 219.256L175.587 244.152M68.0123 50.5217L87.9527 76.2401L68.0123 50.5217ZM88.2859 43.916L100.224 68.6226L88.2859 43.916ZM74.7293 47.8143L91.86 73.4165L74.7293 47.8143ZM81.5013 45.6178L95.9584 70.8617L81.5013 45.6178ZM95.0488 42.6836L104.638 66.6698L95.0488 42.6836ZM121.288 42.142L123.311 62.0844L121.288 42.142ZM114.897 41.6576L118.541 62.7455L114.897 41.6576ZM108.386 41.594L113.823 63.7318L108.386 41.594ZM101.764 41.9261L109.183 65.0455L101.764 41.9261ZM48.637 61.8112L77.5231 86.2309L48.637 61.8112ZM61.3932 53.7534L84.2522 79.3284L61.3932 53.7534ZM54.9153 57.5126L80.7675 82.6641L54.9153 57.5126ZM71.8124 94.0057L36.8789 72.0005L71.8124 94.0057ZM127.538 43.0587L128.128 61.782L127.538 43.0587ZM42.605 66.6425L74.5299 90.0168L42.605 66.6425ZM193.547 97.4832L191.434 98.5964L193.547 97.4832ZM186.871 83.6952L183.382 86.6035L186.871 83.6952ZM191.636 92.7996L189.034 94.4095L191.636 92.7996ZM189.408 88.1931L186.343 90.407L189.408 88.1931ZM184.026 79.3007L180.154 83.0016L184.026 79.3007ZM133.619 44.3899L132.951 61.804L133.619 44.3899ZM180.864 75.0451L176.705 79.6278L180.864 75.0451ZM196.438 107.006L195.337 107.403L196.438 107.006ZM195.152 102.211L193.539 102.924L195.152 102.211ZM197.416 111.829L196.818 111.996L197.416 111.829ZM155.739 53.4122L151.868 65.1914L155.739 53.4122ZM150.572 50.6585L147.236 63.848L150.572 50.6585ZM145.151 48.2205L142.522 62.8384L145.151 48.2205ZM169.599 63.2819L165.041 71.1182L169.599 63.2819ZM173.649 67.0239L169.123 73.6868L173.649 67.0239ZM160.637 56.4576L156.392 66.8637L160.637 56.4576ZM165.26 59.7529L160.79 68.8407L165.26 59.7529ZM177.403 70.9551L173.016 76.5323L177.403 70.9551ZM247.936 147.795L251.025 148.241L247.936 147.795ZM245.196 155.69L249.525 156.625L245.196 155.69ZM250.277 139.65L251.942 139.772L250.277 139.65ZM139.507 46.1084L137.767 62.1447L139.507 46.1084ZM69.013 236.209L91.1439 198.163L69.013 236.209ZM63.9173 111.54L18.2505 98.2687L63.9173 111.54ZM61.7709 231.742L87.1741 194.34L61.7709 231.742ZM65.4124 106.97L22.1437 91.0475L65.4124 106.97ZM54.8159 226.832L83.4601 190.396L54.8159 226.832ZM69.3723 98.1744L31.5216 77.8691L69.3723 98.1744ZM67.2368 102.502L26.5922 84.2142L67.2368 102.502ZM11.2745 164.558L63.1864 149.845L11.2745 164.558ZM9.43353 156.113L62.2231 145.066L9.43353 156.113ZM61.87 120.973L12.229 113.818L61.87 120.973ZM8.20367 138.956L61.2206 135.428L8.20367 138.956ZM10.1976 122.018L61.3481 125.771L10.1976 122.018ZM8.8541 130.409L61.1542 130.586L8.8541 130.409ZM13.8677 172.809L64.4243 154.595L13.8677 172.809ZM8.39628 147.578L61.5608 140.287L8.39628 147.578ZM41.9119 215.672L76.9557 182.044L41.9119 215.672ZM36.0356 209.447L74.1909 177.637L36.0356 209.447ZM48.2007 221.461L80.0631 186.3L48.2007 221.461ZM30.5555 202.834L71.7003 173.14L30.5555 202.834ZM21.0692 188.48L67.5801 163.939L21.0692 188.48ZM17.1519 180.788L65.8962 159.274L17.1519 180.788ZM25.5536 195.837L69.511 168.565L25.5536 195.837ZM14.9185 105.902L62.7215 116.238L14.9185 105.902ZM92.2332 246.666L104.811 208.423L92.2332 246.666ZM100.007 249.358L110.002 211.261L100.007 249.358ZM125.634 252.798L126.985 217.572L125.634 252.798ZM117.126 252.164L121.079 215.827L117.126 252.164ZM134.138 252.828L133.072 218.901L134.138 252.828ZM159.403 249.367L152.274 220.375L159.403 249.367ZM167.581 247.037L158.915 220.034L167.581 247.037ZM84.2665 243.699L99.9438 205.264L84.2665 243.699ZM142.623 252.267L139.328 219.813L142.623 252.267ZM76.5128 240.212L95.3873 201.832L76.5128 240.212ZM151.06 251.111L145.74 220.305L151.06 251.111ZM108.706 250.926L115.398 213.704L108.706 250.926ZM223.188 189.372L233.493 195.863L223.188 189.372ZM211.556 199.55L223.419 209.584L211.556 199.55ZM217.5 194.704L228.693 202.899L217.5 194.704ZM228.507 183.534L237.782 188.508L228.507 183.534ZM247.432 164.892L241.858 163.274L247.432 164.892ZM233.416 177.213L241.551 180.871L233.416 177.213ZM237.875 170.447L244.773 172.986L237.875 170.447ZM205.02 227.228L192.57 211.179L205.02 227.228ZM185.928 213.992L198.123 232.214L185.928 213.992ZM179.178 216.242L190.897 236.713L179.178 216.242ZM183.372 240.694L172.4 217.988L183.372 240.694ZM199.081 207.816L211.556 221.775L199.081 207.816ZM205.408 203.93L217.698 215.894L205.408 203.93Z" stroke="#6F3FF5" stroke-miterlimit="10" stroke-linecap="round"/>
</svg>
