<svg xmlns="http://www.w3.org/2000/svg" id="Layer_1" data-name="Layer 1" width="1915.5" height="1866.1" viewBox="0 0 1915.5 1866.1"><defs><radialGradient id="Gradient-0" cx="967.6" cy="948.5" r="764.8" fx="967.6" fy="948.5" gradientUnits="userSpaceOnUse"><stop offset="0" stop-color="#fff8bc"/><stop offset=".5" stop-color="#d7fff6"/><stop offset="1" stop-color="#eae4ff"/></radialGradient></defs><style>
@keyframes a0_o { 0% { opacity: 0; } 30% { opacity: 0; animation-timing-function: cubic-bezier(.4,.1,.6,.9); } 40% { opacity: 1; } 100% { opacity: 1; } }
@keyframes a0_do { 0% { stroke-dashoffset: 11107px; animation-timing-function: cubic-bezier(.4,.1,.6,.9); } 100% { stroke-dashoffset: 9072px; } }
@keyframes a1_do { 0% { stroke-dashoffset: 1885.9px; animation-timing-function: cubic-bezier(.4,.1,.6,.9); } 100% { stroke-dashoffset: 0px; } }
@keyframes a2_do { 0% { stroke-dashoffset: 8486.5px; animation-timing-function: cubic-bezier(.4,.1,.6,.9); } 100% { stroke-dashoffset: 7000px; } }
@keyframes a3_do { 0% { stroke-dashoffset: 9534px; animation-timing-function: cubic-bezier(.4,.1,.6,.9); } 100% { stroke-dashoffset: 7790px; } }
@keyframes a4_o { 0% { opacity: 0; } 40% { opacity: 0; animation-timing-function: cubic-bezier(.4,.1,.6,.9); } 50% { opacity: 1; } 100% { opacity: 1; } }
@keyframes a5_o { 0% { opacity: 0; } 30% { opacity: 0; } 40% { opacity: 1; } 100% { opacity: 1; } }
</style><path d="M971.1 953.8l408.6 307.3c35.8 26.9 52.9 70.3 45.3 116.1c-10.5 64-48.3 279.1-48.3 279.1c0 0-205.1-74.8-265.9-97.7c-43.5-16.3-72.5-52.8-77.9-97.3l-61.8-507.5Zm-414.9 307.7c-35.9 26.9-53 70.2-45.4 116.1c10.6 64 48.3 279.1 48.3 279.1c0 0 205.2-74.8 265.9-97.7c43.5-16.4 72.5-52.8 77.9-97.3l61.8-507.5l-408.6 307.3Zm-65.4-512.8c-41.2-17.6-87.3-10.7-123.2 18.7c-50.2 41.2-217.6 181.5-217.6 181.5c0 0 167.4 140.2 217.6 181.4c35.9 29.5 82 36.3 123.2 18.8l470.4-200.2l-470.4-200.2Zm411.5-313c-5.4-44.5-34.4-81-77.9-97.3c-60.8-22.9-265.9-97.7-265.9-97.7c0 0-37.8 215-48.3 279.1c-7.6 45.8 9.5 89.2 45.3 116.1l408.6 307.2l-61.8-507.4Zm476.7 199.8c35.9-26.9 53-70.2 45.4-116.1c-10.6-64-48.3-279.1-48.3-279.1c0 0-205.2 74.8-265.9 97.7c-43.5 16.4-72.5 52.8-77.9 97.3l-61.8 507.5l408.5-307.3Zm65.4 512.8c41.2 17.6 87.3 10.7 123.2-18.8c50.2-41.1 217.5-181.4 217.5-181.4c0 0-167.3-140.2-217.5-181.4c-35.9-29.5-82-36.3-123.2-18.8l-470.4 200.2l470.4 200.2Z" fill="url(#Gradient-0)" stroke="#000" stroke-miterlimit="10" stroke-width="2" stroke-dasharray="11107.2 11107.2" opacity="0" stroke-dashoffset="11107" style="animation: 2s linear both a0_o, 2s linear both a0_do;"/><ellipse rx="300.2" ry="300.2" fill="none" stroke="#000" stroke-miterlimit="10" stroke-width="2" stroke-dasharray="1885.9" stroke-dashoffset="1885.9" transform="translate(967.6,948.5)" style="animation: 2s linear both a1_do;"/><path d="M149 948.8h347.3m61.7-709.1l173.7 300.8m471.2-0.3l173.7-300.8m409.6 708.8h-347.4m-61.7 709l-173.6-300.8m-471.3 .4l-173.6 300.7m448.5-410.6c3.1 25.7 19.8 46.7 44.9 56.1c35 13.2 153.2 56.4 153.2 56.4c0 0 21.8-124 27.9-160.9c4.4-26.5-5.5-51.4-26.2-67l-235.5-177.1l35.7 292.5Zm-278.2-115c-20.7 15.5-30.6 40.5-26.2 66.9c6.1 36.9 27.9 160.9 27.9 160.9c0 0 118.2-43.1 153.2-56.3c25.1-9.4 41.8-30.5 44.9-56.1l35.7-292.5l-235.6 177.1Zm-39.5-298.5c-23.8-10.1-50.4-6.1-71.1 10.9c-28.9 23.7-125.4 104.5-125.4 104.5c0 0 96.5 80.9 125.4 104.6c20.7 17 47.3 21 71.1 10.8l271.1-115.4l-271.1-115.4Zm238.7-183.4c-3.1-25.6-19.8-46.7-44.9-56.1c-35-13.2-153.3-56.3-153.3-56.3c0 0-21.7 124-27.8 160.9c-4.4 26.4 5.5 51.4 26.1 66.9l235.5 177.1l-35.6-292.5Zm278.2 115.1c20.7-15.6 30.5-40.6 26.2-67c-6.1-36.9-27.9-160.9-27.9-160.9c0 0-118.3 43.2-153.3 56.3c-25 9.5-41.7 30.5-44.9 56.2l-35.6 292.5l235.5-177.1Zm39.5 298.4c23.8 10.1 50.3 6.2 71-10.8c29-23.7 125.4-104.6 125.4-104.6c0 0-96.4-80.8-125.4-104.6c-20.7-17-47.2-20.9-71-10.8l-271.1 115.4l271.1 115.4Z" fill="none" stroke="#000" stroke-miterlimit="10" stroke-width="2" stroke-dasharray="8486.5" stroke-dashoffset="8486.5" style="animation: 2s linear both a2_do;"/><path d="M967.6 952.9l158.3 428.7c13.9 37.6 8.5 79.6-14.8 112.4c-32.6 45.7-143.5 166.1-143.5 166.1c0 0-110.9-120.4-143.5-166.1c-23.3-32.8-28.7-74.8-14.8-112.4l158.3-428.7Zm-454.3 75c-39.5 6.8-73.2 32.5-89.9 69.1c-23.3 51-72.1 207.3-72.1 207.3c0 0 159.7 35.8 215.6 41.2c40 3.8 79.1-12.5 104.7-43.3l292.2-351.5l-450.5 77.2Zm158.3-433.1c-25.6-30.8-64.7-47.1-104.7-43.3c-55.9 5.3-215.6 41.2-215.6 41.2c0 0 48.8 156.2 72.1 207.3c16.7 36.5 50.4 62.3 89.9 69l450.5 77.3l-292.2-351.5Zm454.3-79.5c13.9-37.6 8.5-79.6-14.8-112.3c-32.6-45.8-143.5-166.1-143.5-166.1c0 0-110.9 120.3-143.5 166.1c-23.3 32.7-28.7 74.7-14.8 112.3l158.3 428.8l158.3-428.8Zm296 353.7c39.5-6.8 73.2-32.5 89.9-69c23.3-51.1 72-207.3 72-207.3c0 0-159.6-35.9-215.5-41.2c-40-3.8-79.1 12.5-104.8 43.3l-292.1 351.5l450.5-77.3Zm-158.3 433.2c25.6 30.8 64.7 47.1 104.7 43.3c55.9-5.4 215.6-41.2 215.6-41.2c0 0-48.8-156.3-72.1-207.3c-16.7-36.6-50.4-62.3-89.9-69.1l-450.5-77.2l292.2 351.5Z" fill="none" stroke="#000" stroke-miterlimit="10" stroke-width="2" stroke-dasharray="9534" stroke-dashoffset="9534" style="animation: 2s linear both a3_do;"/><ellipse rx="68.1" ry="68.1" fill="#ffe921" stroke="#000" stroke-miterlimit="10" stroke-width="2" opacity="0" transform="translate(967.6,948.5)" style="animation: 2s linear both a4_o;"/><g opacity="0" transform="translate(134,214.9)" style="animation: 2s linear both a5_o;"><ellipse rx="17.6" ry="17.6" fill="#02e2ac" stroke="#000" stroke-miterlimit="10" stroke-width="2" transform="translate(-651.1,568.8) rotate(-30) translate(1203.9,1356.7)"/><ellipse rx="17.6" ry="17.6" fill="#02e2ac" stroke="#000" stroke-miterlimit="10" stroke-width="2" transform="translate(-759.3,528.7) rotate(-30) translate(1074.9,1538.6)"/><ellipse rx="17.6" ry="17.6" fill="#02e2ac" stroke="#000" stroke-miterlimit="10" stroke-width="2" transform="translate(-833.4,491) rotate(-30) translate(967.6,1658.1)"/><ellipse rx="17.6" ry="17.6" fill="#6f3ff5" stroke="#000" stroke-miterlimit="10" stroke-width="2" transform="translate(-777.3,694.6) rotate(-30) translate(1375.6,1655.2)"/><ellipse rx="17.6" ry="17.6" fill="#6f3ff5" stroke="#000" stroke-miterlimit="10" stroke-width="2" transform="translate(-651.1,568.8) rotate(-30) translate(1203.9,1356.7)"/><ellipse rx="17.6" ry="17.6" fill="#6f3ff5" stroke="#000" stroke-miterlimit="10" stroke-width="2" transform="translate(-622.6,454.8) rotate(-30) translate(1005.4,1246.6)"/><ellipse rx="17.6" ry="17.6" fill="#6f3ff5" stroke="#000" stroke-miterlimit="10" stroke-width="2" transform="translate(-538.2,539.4) rotate(-30) translate(1205.4,1131.4)"/><ellipse rx="17.6" ry="17.6" fill="#02e2ac" stroke="#000" stroke-miterlimit="10" stroke-width="2" transform="translate(-788.1,421.3) rotate(-30) translate(860.1,1538.6)"/><ellipse rx="17.6" ry="17.6" fill="#02e2ac" stroke="#000" stroke-miterlimit="10" stroke-width="2" transform="translate(-943.3,1097.8) rotate(-60) translate(732.2,1357.2)"/><ellipse rx="17.6" ry="17.6" fill="#02e2ac" stroke="#000" stroke-miterlimit="10" stroke-width="2" transform="translate(-1036.3,895.2) rotate(-60) translate(510.2,1336.5)"/><ellipse rx="17.6" ry="17.6" fill="#02e2ac" stroke="#000" stroke-miterlimit="10" stroke-width="2" transform="translate(-1086.2,742.5) rotate(-60) translate(353.1,1303.3)"/><ellipse rx="17.6" ry="17.6" fill="#6f3ff5" stroke="#000" stroke-miterlimit="10" stroke-width="2" transform="translate(-1287.6,1097.3) rotate(-60) translate(559.6,1655.2)"/><ellipse rx="17.6" ry="17.6" fill="#6f3ff5" stroke="#000" stroke-miterlimit="10" stroke-width="2" transform="translate(-943.3,1097.8) rotate(-60) translate(732.2,1357.2)"/><ellipse rx="17.6" ry="17.6" fill="#6f3ff5" stroke="#000" stroke-miterlimit="10" stroke-width="2" transform="translate(-748.7,981) rotate(-60) translate(728.3,1130.3)"/><ellipse rx="17.6" ry="17.6" fill="#6f3ff5" stroke="#000" stroke-miterlimit="10" stroke-width="2" transform="translate(-749,1211.8) rotate(-60) translate(928.1,1245.9)"/><ellipse rx="17.6" ry="17.6" fill="#02e2ac" stroke="#000" stroke-miterlimit="10" stroke-width="2" transform="translate(-928.9,709.1) rotate(-60) translate(402.8,1150.5)"/><ellipse cx="268.9" cy="531.4" rx="17.6" ry="17.6" fill="#02e2ac" stroke="#000" stroke-miterlimit="10" stroke-width="2"/><ellipse cx="17.6" cy="733.6" rx="17.6" ry="17.6" fill="#6f3ff5" stroke="#000" stroke-miterlimit="10" stroke-width="2"/><ellipse rx="17.6" ry="17.6" fill="#02e2ac" stroke="#000" stroke-miterlimit="10" stroke-width="2" transform="translate(-306.2,223.1) rotate(-30) translate(731.3,540.3)"/><ellipse rx="17.6" ry="17.6" fill="#02e2ac" stroke="#000" stroke-miterlimit="10" stroke-width="2" transform="translate(-198,263.2) rotate(-30) translate(860.3,358.4)"/><ellipse rx="17.6" ry="17.6" fill="#02e2ac" stroke="#000" stroke-miterlimit="10" stroke-width="2" transform="translate(-123.8,300.9) rotate(-30) translate(967.6,238.9)"/><ellipse rx="17.6" ry="17.6" fill="#6f3ff5" stroke="#000" stroke-miterlimit="10" stroke-width="2" transform="translate(-180,97.3) rotate(-30) translate(559.6,241.8)"/><ellipse rx="17.6" ry="17.6" fill="#6f3ff5" stroke="#000" stroke-miterlimit="10" stroke-width="2" transform="translate(-306.2,223.1) rotate(-30) translate(731.3,540.3)"/><ellipse rx="17.6" ry="17.6" fill="#6f3ff5" stroke="#000" stroke-miterlimit="10" stroke-width="2" transform="translate(-334.6,337.1) rotate(-30) translate(929.8,650.4)"/><ellipse rx="17.6" ry="17.6" fill="#6f3ff5" stroke="#000" stroke-miterlimit="10" stroke-width="2" transform="translate(-419,252.5) rotate(-30) translate(729.8,765.5)"/><ellipse rx="17.6" ry="17.6" fill="#02e2ac" stroke="#000" stroke-miterlimit="10" stroke-width="2" transform="translate(-169.2,370.6) rotate(-30) translate(1075.1,358.4)"/><ellipse rx="17.6" ry="17.6" fill="#02e2ac" stroke="#000" stroke-miterlimit="10" stroke-width="2" transform="translate(0,1096.8) rotate(-60) translate(1203,539.7)"/><ellipse rx="17.6" ry="17.6" fill="#02e2ac" stroke="#000" stroke-miterlimit="10" stroke-width="2" transform="translate(93.1,1299.4) rotate(-60) translate(1425,560.5)"/><ellipse rx="17.6" ry="17.6" fill="#02e2ac" stroke="#000" stroke-miterlimit="10" stroke-width="2" transform="translate(142.9,1452.1) rotate(-60) translate(1582.1,593.7)"/><ellipse rx="17.6" ry="17.6" fill="#6f3ff5" stroke="#000" stroke-miterlimit="10" stroke-width="2" transform="translate(344.4,1097.3) rotate(-60) translate(1375.6,241.8)"/><ellipse rx="17.6" ry="17.6" fill="#6f3ff5" stroke="#000" stroke-miterlimit="10" stroke-width="2" 
transform="translate(0,1096.8) rotate(-60) translate(1203,539.7)"/><ellipse rx="17.6" ry="17.6" fill="#6f3ff5" stroke="#000" stroke-miterlimit="10" stroke-width="2" transform="translate(-194.6,1213.6) rotate(-60) translate(1206.9,766.7)"/><ellipse rx="17.6" ry="17.6" fill="#6f3ff5" stroke="#000" stroke-miterlimit="10" stroke-width="2" transform="translate(-194.3,982.8) rotate(-60) translate(1007.1,651)"/><ellipse rx="17.6" ry="17.6" fill="#02e2ac" stroke="#000" stroke-miterlimit="10" stroke-width="2" transform="translate(-14.3,1485.4) rotate(-60) translate(1532.4,746.5)"/><ellipse cx="1305.2" cy="733" rx="17.6" ry="17.6" fill="#02e2ac" stroke="#000" stroke-miterlimit="10" stroke-width="2"/><ellipse cx="1398.3" cy="935.7" rx="17.6" ry="17.6" fill="#02e2ac" stroke="#000" stroke-miterlimit="10" stroke-width="2"/><ellipse cx="1448.1" cy="1088.4" rx="17.6" ry="17.6" fill="#02e2ac" stroke="#000" stroke-miterlimit="10" stroke-width="2"/><ellipse cx="1649.6" cy="733.6" rx="17.6" ry="17.6" fill="#6f3ff5" stroke="#000" stroke-miterlimit="10" stroke-width="2"/><ellipse cx="1305.2" cy="733" rx="17.6" ry="17.6" fill="#6f3ff5" stroke="#000" stroke-miterlimit="10" stroke-width="2"/><ellipse cx="1110.6" cy="849.9" rx="17.6" ry="17.6" fill="#6f3ff5" stroke="#000" stroke-miterlimit="10" stroke-width="2"/><ellipse cx="1110.9" cy="619" rx="17.6" ry="17.6" fill="#6f3ff5" stroke="#000" stroke-miterlimit="10" stroke-width="2"/><ellipse cx="1290.9" cy="1121.7" rx="17.6" ry="17.6" fill="#02e2ac" stroke="#000" stroke-miterlimit="10" stroke-width="2"/><path d="M344.4 734.1c0-9.7 7.8-17.6 17.5-17.6c9.7 0 17.6 7.9 17.6 17.6c0 9.7-7.9 17.5-17.6 17.5c-9.7 0-17.5-7.8-17.5-17.5Z" fill="#02e2ac" stroke="#000" stroke-miterlimit="10" stroke-width="2"/><path d="M201.5 378.8c0-9.7 7.9-17.6 17.6-17.6c9.7 0 17.5 7.9 17.5 17.6c0 9.7-7.8 17.5-17.5 17.5c-9.7 0-17.6-7.8-17.6-17.5Z" fill="#02e2ac" stroke="#000" stroke-miterlimit="10" stroke-width="2"/><path d="M344.4 734.1c0-9.7 7.8-17.6 17.5-17.6c9.7 0 17.6 7.9 17.6 17.6c0 9.7-7.9 17.5-17.6 17.5c-9.7 0-17.5-7.8-17.5-17.5Z" fill="#6f3ff5" stroke="#000" stroke-miterlimit="10" stroke-width="2"/><path d="M539 617.3c0-9.7 7.8-17.6 17.5-17.6c9.7 0 17.6 7.9 17.6 17.6c0 9.7-7.9 17.5-17.6 17.5c-9.7 0-17.5-7.8-17.5-17.5Z" fill="#6f3ff5" stroke="#000" stroke-miterlimit="10" stroke-width="2"/><path d="M538.7 848.1c0-9.7 7.9-17.6 17.5-17.6c9.7 0 17.6 7.9 17.6 17.6c0 9.7-7.9 17.5-17.6 17.5c-9.6 0-17.5-7.8-17.5-17.5Z" fill="#6f3ff5" stroke="#000" stroke-miterlimit="10" stroke-width="2"/><path d="M358.7 345.4c0-9.6 7.9-17.5 17.6-17.5c9.7 0 17.5 7.9 17.5 17.5c0 9.7-7.8 17.6-17.5 17.6c-9.7 0-17.6-7.9-17.6-17.6Z" fill="#02e2ac" stroke="#000" stroke-miterlimit="10" stroke-width="2"/></g>
</svg>