<?xml version="1.0" standalone="no"?>
<!DOCTYPE svg PUBLIC "-//W3C//DTD SVG 20010904//EN"
 "http://www.w3.org/TR/2001/REC-SVG-20010904/DTD/svg10.dtd">
<svg version="1.0" xmlns="http://www.w3.org/2000/svg"
 width="700.000000pt" height="700.000000pt" viewBox="0 0 700.000000 700.000000"
 preserveAspectRatio="xMidYMid meet">
<metadata>
Created by potrace 1.14, written by Peter Selinger 2001-2017
</metadata>
<g transform="translate(0.000000,700.000000) scale(0.100000,-0.100000)"
fill="#000000" stroke="none">
<path d="M0 3500 l0 -3500 3500 0 3500 0 0 3500 0 3500 -3500 0 -3500 0 0
-3500z m2345 1506 c198 -22 382 -52 478 -77 l77 -21 0 -373 0 -372 -112 38
c-223 75 -439 105 -706 96 -151 -5 -190 -10 -227 -26 -39 -17 -45 -24 -45 -50
0 -56 39 -78 205 -116 192 -44 520 -151 640 -209 263 -127 368 -272 394 -544
23 -245 -38 -437 -185 -587 -220 -224 -562 -325 -1103 -325 -360 1 -807 64
-1026 147 l-50 19 -3 377 c-1 207 -1 377 1 377 3 0 33 -13 68 -29 226 -102
477 -150 824 -158 259 -5 302 1 319 49 25 71 -21 97 -303 177 -311 88 -490
162 -645 265 -140 93 -208 177 -253 311 -25 74 -27 92 -27 250 -1 160 1 175
27 252 106 314 410 490 937 542 136 14 539 6 715 -13z m3118 -6 c531 -113 797
-467 826 -1098 23 -516 -76 -876 -308 -1125 -169 -180 -413 -294 -701 -328
-141 -16 -386 -6 -510 20 -81 17 -186 49 -252 76 -17 7 -18 -24 -18 -569 l0
-576 -565 0 -565 0 0 1790 0 1790 489 0 488 0 23 -82 c13 -46 26 -86 29 -90 4
-4 30 8 58 27 129 87 301 156 451 180 127 21 425 13 555 -15z"/>
<path d="M4703 4206 c-69 -16 -88 -24 -155 -69 l-48 -32 0 -378 0 -377 53 -34
c66 -42 100 -53 186 -62 139 -13 257 30 321 117 63 88 93 267 79 478 -17 244
-108 352 -309 366 -37 3 -91 -1 -127 -9z"/>
</g>
</svg>
