<?xml version="1.0" standalone="no"?>
<!DOCTYPE svg PUBLIC "-//W3C//DTD SVG 20010904//EN"
 "http://www.w3.org/TR/2001/REC-SVG-20010904/DTD/svg10.dtd">
<svg version="1.0" xmlns="http://www.w3.org/2000/svg"
 width="359.000000pt" height="359.000000pt" viewBox="0 0 359.000000 359.000000"
 preserveAspectRatio="xMidYMid meet">
<metadata>
Created by potrace 1.14, written by Peter Selinger 2001-2017
</metadata>
<g transform="translate(0.000000,359.000000) scale(0.100000,-0.100000)"
fill="#000000" stroke="none">
<path d="M1232 3379 c0 -116 -3 -213 -5 -215 -2 -3 -72 63 -155 147 l-151 151
-76 -77 c-41 -42 -75 -80 -75 -83 0 -4 210 -217 467 -474 l468 -468 -50 -1
c-28 0 -99 0 -159 0 l-108 1 -389 390 c-213 215 -390 390 -393 390 -2 0 -39
-34 -82 -75 l-77 -76 29 -31 c16 -17 157 -158 313 -314 255 -255 280 -284 255
-285 -16 0 -87 -1 -157 -1 l-128 -1 -232 231 c-128 128 -235 232 -239 232 -4
0 -41 -34 -83 -75 l-77 -75 155 -155 155 -155 -37 -1 c-20 0 -118 -1 -218 -1
l-183 -1 0 -111 0 -111 653 0 c358 1 658 -1 665 -3 9 -3 -28 -47 -94 -113
l-109 -109 -557 0 -558 0 0 -113 0 -112 440 0 c242 0 440 -2 440 -5 0 -3 -48
-54 -108 -113 l-107 -107 -333 0 -332 0 0 -110 0 -110 25 -1 c14 0 113 -1 221
-1 l196 -1 -156 -156 -156 -156 79 -79 79 -78 467 467 c257 257 469 464 472
461 3 -2 5 -71 5 -152 l-1 -148 -393 -393 -393 -393 80 -80 80 -80 312 312
c261 261 313 309 314 288 0 -14 1 -83 2 -155 l2 -129 -232 -233 c-128 -128
-233 -236 -233 -241 0 -4 34 -41 75 -82 l75 -75 155 155 c85 85 155 150 156
145 0 -6 1 -103 1 -217 0 -145 4 -208 12 -211 6 -2 56 -3 111 -3 l100 1 1 665
c1 366 2 666 3 666 0 1 49 -46 109 -105 l107 -106 5 -559 5 -560 103 -1 c62
-1 106 3 111 9 4 6 7 205 7 443 -1 423 -1 431 18 415 10 -9 61 -59 112 -111
l94 -94 0 -331 0 -331 110 0 110 0 1 50 c0 27 1 126 1 218 0 151 2 166 16 155
8 -7 77 -75 152 -150 75 -76 140 -138 144 -138 3 0 41 34 82 76 l77 76 -467
467 c-256 256 -466 469 -466 473 0 3 68 6 152 6 l151 0 394 -393 394 -394 75
74 c41 41 74 79 74 84 0 5 -137 147 -305 314 -168 168 -305 308 -305 310 0 3
69 5 153 5 l152 0 236 -235 237 -236 76 77 c42 43 76 80 76 83 0 4 -62 68
-137 143 -76 75 -144 144 -151 152 -11 14 7 16 175 16 103 0 202 1 218 1 l30
1 0 110 1 110 -663 0 c-365 0 -663 3 -663 6 0 3 48 54 106 112 l107 107 551 1
c303 1 554 2 557 3 3 0 5 49 4 109 l0 107 -443 3 -442 2 110 112 109 112 333
1 333 0 0 110 0 110 -165 2 c-91 1 -189 2 -219 2 l-53 1 154 154 155 155 -76
75 c-42 42 -80 76 -84 76 -4 0 -216 -209 -472 -465 -256 -256 -467 -465 -470
-465 -2 0 -4 69 -3 153 l0 152 394 395 394 395 -80 80 -80 80 -314 -314 -315
-315 1 158 0 157 235 236 235 235 -78 79 -79 79 -150 -150 c-83 -82 -153 -150
-157 -150 -4 0 -7 89 -7 198 0 108 0 204 0 214 -1 14 -16 16 -111 17 l-110 1
-2 -666 -3 -666 -75 75 c-41 41 -91 91 -110 111 l-35 37 0 552 0 552 -112 3
-113 3 -2 -442 -3 -442 -107 108 c-60 60 -108 113 -109 119 -1 6 -2 155 -3
331 l-1 320 -111 3 -112 3 0 -212z m791 -1245 c50 -1 95 -2 100 -3 4 0 7 -45
7 -99 l0 -98 65 -64 c36 -35 65 -68 65 -72 0 -4 -29 -37 -65 -73 l-65 -66 0
-100 0 -99 -98 0 -97 0 -68 -65 c-37 -36 -71 -65 -75 -65 -4 0 -37 29 -72 65
l-64 65 -98 0 c-54 0 -98 3 -99 8 -1 4 -2 49 -3 99 l-1 92 -69 70 -69 70 70
69 71 69 -2 84 c-3 122 -10 115 101 114 l96 -1 70 68 70 69 69 -68 69 -68 92
-1z"/>
</g>
</svg>
