<svg xmlns="http://www.w3.org/2000/svg" width="492" height="100" fill="none" xmlns:v="https://vecta.io/nano"><g clip-path="url(#A)"><path d="M59.459 0h432.433v10.811h-2.722V8.166h-24.324v2.664h-2.607v12.066l1.255.116.077 1.235 1.275.116.057 1.294h2.607l.135 1.39h13.475v2.683h2.587v2.645H470.25v-2.568h-8.031v5.348h2.664v2.683h2.722v2.625h18.9v-2.664h2.683v-2.683h2.703v64.865H99.999v-2.722h2.703v-2.722h2.645V78.34h-2.684V64.807H99.98v-10.83h-2.722v-5.386h-2.722v-5.425h-2.683v-5.425H89.13v-5.386h-2.683v-5.386h-2.722v-5.425h-2.683V16.12H78.32v-2.683h-2.722v-2.722h-2.683V7.992h-2.722V5.309h-5.386V2.625H59.42L59.459 0zm94.595 73.05h-8.127v2.645h-2.722v2.626h-2.684V67.606h-8.011v24.228h8.05v-2.683h2.722v-2.683h2.722v-2.626h8.089v2.703h2.722v2.683h2.683v2.606h8.031V59.537h-8.089V78.34h-2.683v-2.703h-2.684l-.019-2.587zm59.402 12.085V67.548h-2.703v-2.722h-2.683v-2.683h-4.035v-2.606h-10.83v2.645h-4.035v2.683h-2.722v2.722h-2.606v17.587h2.683v2.683h2.684v2.683h4.073v2.626h10.791v-2.664h4.035V87.78h2.722v-2.645h2.626zm154.034-44.633V16.274h-8.05V26.95h-2.722v-2.645h-2.722v-2.722h-2.683V18.9h-2.684v-2.722h-2.722v-2.683h-2.722V8.166h-7.973v32.317h8.051v-16.1h2.722v2.645h2.722v2.722h2.683v2.683h2.683v2.722h2.722v2.683h2.722v2.664h7.973zM248.667 89.209h2.722v2.587h8.012v-5.347h-2.664v-5.386h-2.607V78.34h2.645v-5.425h2.626v-8.089h-2.664v-5.309h-26.931v24.208h8.05v-5.29h8.128v5.347h2.683v5.425zm108.108-5.386h-21.583v7.992h24.305v-2.683h2.684v-2.683h2.683v-2.722h2.625V67.529h-2.664v-2.683h-2.722v-2.722h-2.683v-2.587h-24.228v8.05h21.583v2.683h2.606V81.1h-2.606v2.722zm-75.618-51.371v8.031h8.051v-5.405h2.722v-5.386h2.683v-3.977l1.371-.097v-2.606h2.683v2.606l1.371.116v3.996h2.722v5.425h2.683v5.328h8.012v-8.089h-2.684v-5.386h-2.683v-5.386h-2.722v-5.425h-2.684v-4.073h-2.722V8.185h-5.424v4.035h-2.684v4.035h-2.683v5.425h-2.722v5.386h-2.722v5.386h-2.568zM141.872 16.216v5.425h-2.684v5.425h-2.722v5.386h-2.587v8.012h8.051v-5.367h2.683v-5.425h2.722v-3.957a41.11 41.11 0 0 0 1.371-.135v-2.587h2.683v2.625l1.332.058v4.054h2.761v5.425h2.683v5.309h7.992v-8.069h-2.644v-5.425h-2.722v-5.386h-2.722v-5.425h-2.684v-4.073h-2.722V8.147h-5.386v3.996h-2.722v4.035l-2.683.039zm39.285-8.089v8.108h13.456v24.228h8.108V16.197h5.29v-8.05l-26.854-.019zm229.634.058h-26.95v8.05h13.494v24.247h8.089V16.178h5.367V8.185zM281.157 59.479v29.71h2.645v2.606h18.842v-8.05H289.13V59.479h-7.973zm-43.301-19.016h16.139v-8.05h-10.772V29.73h-2.722V8.185h-7.992v26.988h2.644v2.722h2.684l.019 2.567zM435.211 8.127v32.336h7.954V8.127h-7.954zm-219.092 8.05V8.185h-5.232v7.992h5.232zm143.397-2.741h7.993V8.185h-7.993v5.251zm54.074-5.29v8.012h5.231V8.147h-5.231zM262.084 40.483V32.51h-5.27v7.973h5.27zM140.443 64.826v-5.289h-7.915v5.289h7.915zM310.771 83.88h-5.289v7.934h5.289V83.88zm-72.973 2.683h-8.011v5.232h8.011v-5.232zm97.375-12.317h6.66v-3.88h-6.66v3.88zm6.66 2.838h-6.622v3.919h6.622v-3.919z" fill="#fff"/><path d="M59.458 0v2.703h5.386v2.683h5.386V8.07h2.722v2.722h2.683v2.722h2.722v2.683h2.722v5.425h2.683v5.425h2.722v5.386h2.683v5.386h2.722v5.425h2.683v5.425h2.722v5.386h2.722v10.83h2.683v13.533h2.684v16.197h-2.645v2.722h-2.703v2.722h-5.405v-2.722h-2.703v-2.722h-2.722v-5.386h-2.722v-2.722h-2.683v-2.683h-2.683V81.1h-2.722v-2.683h-5.425v-2.722h-5.386v-2.683h-8.089v-2.606H45.964v2.645h-8.127v2.722H32.45v2.722h-5.425v2.683h-2.683v2.683H21.62v2.722h-2.683v2.722h-2.722v5.386h-2.683v2.683h-2.683v2.703H5.443v-2.722H2.74v-2.683H.037V78.456h2.761V64.903h2.683v-10.83h2.722v-5.386h2.683v-5.386h2.722v-5.425h2.683v-5.425h2.722v-5.386h2.722v-5.425h2.683v-5.425h2.722v-2.683h2.722v-2.722h2.683V8.127h2.683V5.405h5.425V2.722h5.386V.039L59.458 0zM32.412 54.093H29.69v2.683h-2.625v5.328h5.405v-2.683h5.386v-2.683h8.089v-2.606h13.533v2.645h8.127v2.722h5.386v2.606h5.328v-5.405h-2.664v-2.683h-2.722v-5.425H70.25v-2.722h-2.722v-5.386h-2.683v-2.683h-2.722v-5.425h-2.683v-2.722h-2.722v-5.386h-2.683v-2.626h-2.722v2.664h-2.683v5.425h-2.722v2.683h-2.722v5.425H40.5v2.683h-2.683v5.425h-2.722v2.683h-2.683v5.463z" fill="#000"/><g fill="#fff"><path d="M10.811 100v-2.703h2.683v-2.683h2.683v-5.386h2.722v-2.722h2.683v-2.722h2.722V81.1h2.683v-2.683h5.425v-2.722h5.386v-2.722h8.127v-2.645h13.533v2.606h8.089v2.683h5.386v2.722h5.425v2.683h2.722v2.722h2.683v2.683h2.683v2.722h2.722v5.386h2.722v2.722h2.703v2.722L10.811 100zM45.945 0v2.683h-5.386v2.683h-5.425v2.722h-2.683v2.683h-2.683v2.722h-2.722v2.683h-2.722v5.425H21.64v5.425h-2.722v5.386h-2.722v5.425h-2.683v5.425h-2.722v5.386H8.107v5.386H5.385v10.83H2.702v13.552H-.059L-.001 0h45.946z"/></g><path d="M491.89 35.135h-2.702v2.683h-2.684v2.664h-18.899v-2.625h-2.722v-2.683h-2.664v-5.347h8.031v2.567h13.455v-2.645h-2.587v-2.683h-13.475l-.135-1.39h-2.606l-.058-1.293-1.274-.116-.077-1.236-1.255-.116V10.849h2.606V8.185h24.324v2.645h2.722v8.108h-8.127v-2.664h-13.436v2.703h12.123v2.683h4.074v2.722h2.683v2.664h2.703l-.02 8.089z" fill="#000"/><g fill="#fff"><path d="M491.892 27.027h-2.703v-2.664h-2.683v-2.722h-4.074v-2.683h-12.123v-2.703h13.436v2.664h8.127l.02 8.108zM0 94.595h2.703v2.683h2.703V100H0v-5.405z"/></g><g fill="#000"><path d="M154.054 73.05v2.587h2.683v2.703h2.684V59.537h8.089v32.297h-8.031v-2.606h-2.684v-2.683h-2.722v-2.703h-8.089v2.626h-2.722v2.683h-2.722v2.683h-8.05V67.606h8.012V78.32h2.683v-2.626h2.722V73.05h8.147zm59.402 12.085h-2.606v2.645h-2.722v2.722h-4.035v2.664h-10.792V90.54h-4.073v-2.683h-2.683v-2.683h-2.684V67.587h2.607v-2.722h2.722v-2.683h4.034v-2.645h10.83v2.606h4.035v2.683h2.683v2.722h2.703l-.019 17.587zm-8.089-4.054v-8.127h-2.703v-2.645h-8.088v2.703h-2.645V81.1h2.703v2.645h8.088v-2.664h2.645zm162.122-40.579h-7.973v-2.664h-2.722v-2.683h-2.722v-2.722h-2.683V29.75h-2.684v-2.722h-2.722v-2.645h-2.722v16.1h-8.05V8.166h7.973v5.328h2.722v2.683h2.722V18.9h2.683v2.683h2.684v2.722h2.722v2.645h2.722V16.274h8.05v24.228zM248.668 89.209v-5.425h-2.684v-5.347h-8.127v5.29h-8.05v-24.21h26.93v5.309h2.664v8.089h-2.625v5.425h-2.645v2.722h2.606v5.386h2.664v5.347h-8.011v-2.587h-2.722zm2.625-16.274v-5.29h-13.398v5.29h13.398zm105.481 10.887V81.1h2.607V70.27h-2.607v-2.683h-21.583v-8.05h24.228v2.587h2.684v2.722h2.722v2.683h2.664v16.197h-2.626v2.722h-2.683v2.683h-2.684v2.683h-24.305v-7.992h21.583zm-75.616-51.37h2.587v-5.386h2.722V21.68h2.722v-5.425h2.684V12.22h2.683V8.185h5.425v3.938h2.722v4.073h2.683v5.425h2.722v5.386h2.684v5.386h2.683v8.089h-8.012v-5.328h-2.683V29.73h-2.722v-3.996l-1.371-.116v-2.606h-2.683v2.606l-1.371.097v3.977h-2.683v5.386h-2.722v5.405h-8.05l-.02-8.031zM141.871 16.216h2.684v-4.035h2.722V8.185h5.386v3.938h2.722v4.073h2.683v5.425h2.722v5.386h2.722v5.425h2.645v8.069h-7.992v-5.309h-2.684v-5.425h-2.76v-4.054l-1.332-.058v-2.626h-2.684v2.587l-1.37.135v3.957h-2.723v5.425h-2.683V40.5h-8.05v-8.01h2.587v-5.386h2.722V21.68h2.683v-5.463zm39.287-8.089h26.873v8.05h-5.29v24.266h-8.108V16.216h-13.455l-.02-8.089z"/><path d="M410.792 8.185v7.992h-5.367v24.305h-8.089V16.235h-13.494v-8.05h26.95zM281.158 59.479h7.973v24.266h13.514v8.05h-18.842v-2.606h-2.645v-29.71zm-43.301-19.016v-2.587h-2.683v-2.722h-2.645V8.166h7.993V29.71h2.722v2.683h10.772v8.05l-16.159.019zM435.211 8.127h7.954v32.336h-7.954V8.127zm-219.093 8.051h-5.231V8.185h5.231v7.992zm143.4-2.742V8.185h7.992v5.251h-7.992zm54.072-5.289h5.232v8.012h-5.232V8.147zM262.085 40.483h-5.271V32.51h5.271v7.973zM140.442 64.826h-7.915v-5.289h7.915v5.289zm170.33 19.054v7.934h-5.29V83.88h5.29zm-72.973 2.684v5.232h-8.012v-5.232h8.012zm97.375-12.317v-3.88h6.66v3.88h-6.66zm6.658 2.838v3.919h-6.621v-3.919h6.621z"/></g><g fill="#fff"><path d="M32.412 54.093v-5.425h2.683v-2.683h2.722V40.56H40.5v-2.683h2.683v-5.425h2.722v-2.683h2.722v-5.425h2.683V21.68h2.722v2.625h2.683v5.386h2.722v2.722h2.683v5.425h2.722v2.683h2.683v5.386h2.722v2.722h2.683v5.425h2.722v2.683h2.664v5.405h-5.328v-2.606h-5.386v-2.722h-8.127V54.17h-13.53v2.606h-8.089v2.683H32.47v2.683h-5.405v-5.328h2.625v-2.683l2.722-.039zm172.954 26.988h-2.645v2.664h-8.089V81.1h-2.702v-8.089h2.644v-2.703h8.089v2.645h2.703v8.127zm-2.703-6.68h-8.011v5.232h8.011v-5.232zm48.629-1.467h-13.397v-5.29h13.397v5.29z"/></g><path d="M202.664 74.402v5.232h-8.012v-5.232h8.012z" fill="#000"/></g><defs><clipPath id="A"><path fill="#fff" d="M0 0h491.892v100H0z"/></clipPath></defs></svg>