<svg xmlns="http://www.w3.org/2000/svg" width="555" height="100" fill="none" xmlns:v="https://vecta.io/nano"><path fill="#fff" d="M0 0h554.737v100H0z"/><path d="M151.268 60.976a9.74 9.74 0 0 1-3.567 2.819 11.08 11.08 0 0 1-4.705.98c-1.584.033-3.154-.295-4.595-.96a10.51 10.51 0 0 1-3.721-2.879c-2.196-2.559-3.295-6.126-3.295-10.701 0-3.108.487-5.722 1.46-7.843a10.83 10.83 0 0 1 4.175-4.863 11.61 11.61 0 0 1 6.21-1.676c2.702 0 4.905.681 6.608 2.044s2.772 3.377 3.206 6.044h11.193c-.129-3.28-1.195-6.453-3.071-9.137-1.904-2.619-4.454-4.692-7.396-6.015a24.57 24.57 0 0 0-10.545-2.167c-4.652 0-8.694.94-12.127 2.819a19.86 19.86 0 0 0-8.034 8.088c-1.914 3.51-2.871 7.745-2.871 12.706 0 4.846.907 9.039 2.721 12.578a19.05 19.05 0 0 0 7.868 8.172c3.436 1.905 7.505 2.858 12.209 2.858a24.86 24.86 0 0 0 10.423-2.123 19.66 19.66 0 0 0 7.582-5.922 17.64 17.64 0 0 0 3.479-9.029h-11.192c-.355 1.535-1.043 2.971-2.015 4.206zm41.727-34.353c-4.759 0-8.842.953-12.248 2.858a19.46 19.46 0 0 0-7.869 8.128c-1.839 3.513-2.759 7.748-2.759 12.706 0 4.846.92 9.028 2.759 12.544a19.46 19.46 0 0 0 7.869 8.127c3.406 1.905 7.489 2.858 12.248 2.858s8.841-.953 12.248-2.858c3.36-1.856 6.089-4.688 7.829-8.127 1.811-3.513 2.716-7.694 2.716-12.544 0-7.408-2.013-13.209-6.039-17.402s-9.611-6.289-16.754-6.289zm8.559 34.191c-2.082 2.595-4.936 3.892-8.559 3.892-3.679 0-6.558-1.294-8.638-3.882s-3.12-6.114-3.124-10.578c0-4.526 1.042-8.067 3.124-10.623s4.962-3.835 8.638-3.838c3.623 0 6.477 1.279 8.559 3.838s3.124 6.1 3.124 10.623c0 4.461-1.041 7.984-3.124 10.569zm53.941-28.309c-1.624-1.839-3.624-3.303-5.863-4.289a18.37 18.37 0 0 0-7.664-1.593 17.97 17.97 0 0 0-10.385 3.103 21.3 21.3 0 0 0-7.158 8.456 27.25 27.25 0 0 0-2.593 12.054 27.02 27.02 0 0 0 2.593 11.966c1.602 3.413 4.063 6.344 7.139 8.5a17.82 17.82 0 0 0 10.384 3.142 18.06 18.06 0 0 0 7.825-1.672 17.28 17.28 0 0 0 5.883-4.456l.243 5.147h10.628V12.569h-11.032v19.936zm0 23.775a12.67 12.67 0 0 1-4.18 6.005 10.84 10.84 0 0 1-6.289 2.24 10.83 10.83 0 0 1-6.406-1.873 12.29 12.29 0 0 1-4.136-5.108 17.55 17.55 0 0 1-1.46-7.309c-.048-2.543.45-5.066 1.46-7.397a11.98 11.98 0 0 1 4.136-5.064 10.5 10.5 0 0 1 6.087-1.838 10.7 10.7 0 0 1 6.608 2.162c1.976 1.525 3.436 3.627 4.18 6.02V56.28zm58.261-23.162c-3.542-4.382-9.184-6.575-16.924-6.578-4.973 0-9.218.94-12.735 2.819a19.14 19.14 0 0 0-8.068 8.128c-1.868 3.546-2.802 7.768-2.802 12.667s.934 9.119 2.802 12.662a19.55 19.55 0 0 0 7.947 8.172c3.435 1.905 7.559 2.858 12.369 2.858 6.219 0 11.277-1.497 15.173-4.49s6.167-7.025 6.813-12.093h-11.192c-.452 2.205-1.747 4.142-3.606 5.392-2.112 1.458-4.629 2.201-7.188 2.123-2.595 0-4.772-.626-6.53-1.877a12.17 12.17 0 0 1-4.053-5.025c-.92-2.127-1.4-4.42-1.412-6.74h33.893c.551-7.618-.944-13.623-4.487-18.015zM285.397 43.29a12.81 12.81 0 0 1 2.039-3.922c2.053-2.614 5.163-3.922 9.328-3.922 2.864 0 5.216.735 7.056 2.206a7.63 7.63 0 0 1 2.116 2.486 7.67 7.67 0 0 1 .886 3.151h-21.425z" fill="#3a1b9b"/><path d="M401.94 26.623a16.69 16.69 0 0 0-6.866 1.324 16.79 16.79 0 0 0-5.737 4.024c-.535.544-1.022 1.132-1.509 1.75l-.394-6.118h-10.627v45.26h11.192V44.392a19.54 19.54 0 0 1 4.258-5.476 11.54 11.54 0 0 1 7.586-2.902c2.326 0 4.083.668 5.27 2.005l5.693-9.196a17.29 17.29 0 0 0-8.866-2.201zm48.468 6.495c-3.543-4.382-9.179-6.575-16.91-6.578-4.98 0-9.224.94-12.735 2.819a19.12 19.12 0 0 0-8.072 8.128c-1.866 3.546-2.798 7.768-2.798 12.667s.932 9.119 2.798 12.662a19.54 19.54 0 0 0 7.951 8.172c3.432 1.905 7.555 2.858 12.369 2.858 6.219 0 11.275-1.497 15.168-4.49s6.164-7.025 6.813-12.093H443.79a8.55 8.55 0 0 1-3.611 5.392 11.98 11.98 0 0 1-7.177 2.123c-2.596 0-4.772-.626-6.531-1.877a12.24 12.24 0 0 1-4.058-5.025 17.2 17.2 0 0 1-1.406-6.74h33.897c.548-7.618-.95-13.623-4.496-18.015zm-28.36 10.172a12.81 12.81 0 0 1 2.039-3.922c2.054-2.614 5.163-3.922 9.328-3.922 2.868 0 5.22.735 7.056 2.206a7.6 7.6 0 0 1 2.117 2.486c.519.973.821 2.049.886 3.151h-21.426zm74.14-14.462c-2.463-1.47-5.397-2.206-8.803-2.206a18.55 18.55 0 0 0-9.411 2.574 17.19 17.19 0 0 0-4.915 4.343l-.277-5.936h-10.706v45.26h11.114V45.657c1.558-3.083 3.202-5.392 4.944-6.902a10.54 10.54 0 0 1 7.061-2.74c1.034-.038 2.063.16 3.01.577a6.89 6.89 0 0 1 2.464 1.835c1.376 1.608 2.065 3.719 2.069 6.333v28.103h11.192V44.118a19.6 19.6 0 0 0-2.025-9.186 15.1 15.1 0 0 0-5.717-6.103zm53.6 5.432a15.85 15.85 0 0 0-7.094-5.676c-3.056-1.307-6.667-1.961-10.832-1.961a29.75 29.75 0 0 0-10.871 1.838 17.77 17.77 0 0 0-7.499 5.27 14.66 14.66 0 0 0-3.207 8.25h10.788a7.3 7.3 0 0 1 .983-3.035c.547-.926 1.292-1.717 2.18-2.318 1.84-1.274 4.247-1.913 7.222-1.917 3.026 0 5.406.708 7.138 2.123s2.597 3.376 2.594 5.882v2.941h-9.246c-6.384 0-11.359 1.294-14.924 3.882s-5.35 6.196-5.353 10.824a13.09 13.09 0 0 0 1.869 7.029 12.82 12.82 0 0 0 5.231 4.735 16.97 16.97 0 0 0 7.829 1.716c4 0 7.407-.776 10.219-2.328a14.19 14.19 0 0 0 4.545-3.951l.243 5.299h10.706v-29.49c-.003-3.598-.844-6.636-2.521-9.113zm-8.598 23.701c-1.212 1.884-2.784 3.507-4.623 4.775-2.18 1.476-4.756 2.245-7.382 2.206-2.053 0-3.675-.505-4.866-1.515-.561-.44-1.014-1.003-1.323-1.648a4.71 4.71 0 0 1-.463-2.068c-.04-.912.164-1.819.592-2.624a5.07 5.07 0 0 1 1.841-1.95c1.622-1.036 3.84-1.554 6.652-1.554h9.572v4.377zM364.208 12.618h-15.182l-24.817 44.27v8.378h29.07v8.265h10.939v-8.284h6.667V55.211h-6.667l-.01-42.593zm-10.929 29.191v13.402h-16.773l17.031-30.843-.258 17.441zM101.527 59.235l-5.581-26.77a4.1 4.1 0 0 0-.209-.696c-.793-2.784-1.849-3.387-3.285-4.559l-1.893-1.392s-3.62 8.422-4.608 9.221c-9.683 7.843-25.907 20.064-29.868 22.27l-.073.039c-1.305.801-2.782 1.275-4.306 1.382v40.29a19.73 19.73 0 0 0 9.611-2.794c4.38-2.451 16.029-11.873 29.683-23.039l5.353-4.373c3.562-2.887 5.27-5.755 5.226-8.779a4.19 4.19 0 0 0-.049-.799z" fill="#56189e"/><path d="M48.228 57.642l-31.26-23.186c-.261-.218-.493-.468-.691-.745a4.31 4.31 0 0 0-.661-2.143 4.27 4.27 0 0 0-1.645-1.514l.2-4.618-2.141 1.338c-1.873 1.132-3.28 1.961-4.243 6.417l-.73 3.647-4.54 22.912c-.063.323-.091.651-.083.98.107 4.142 3.635 7.044 4.443 7.652L42.525 96.01a15.01 15.01 0 0 0 9.246 3.034V58.726c-1.272.079-2.529-.305-3.543-1.083z" fill="#3a1b9b"/><path d="M93.151 27.706l-.18-.142c-1.1-.936-22.803-15.956-35.644-24.823-1.7-1.182-3.724-1.798-5.789-1.762a9.84 9.84 0 0 0-5.725 1.963l-1.572 1.191-13.888 10.26c-6.997 5.029-13.44 9.402-19.163 12.868-2.433 1.471-4.681 5.446 1.46 10.294l32.953 24.632c3.703 2.75 8.097 2.505 12.452-.039 4.238-2.358 19.246-13.677 28.71-21.23l2.399-1.926a14.67 14.67 0 0 0 .623-.534c4.044-3.368 7.44-7.912 3.362-10.75z" fill="#8524e2"/><path d="M36.725 36.427c1.091.922 2.4 1.546 3.8 1.809a10.5 10.5 0 0 0 4.058-.098c1.382-.3 2.733-.725 4.039-1.27l2.92-1.304c.092-.039.487-.24.545-.181l5.066 3.922c.35.265.37.392-.336.677-.614.227-1.264.337-1.917.323h-.049c-1.531-.022-3.014-.538-4.233-1.471a.79.79 0 0 0-.973 0l-4.74 3.706c-.099.076-.179.174-.234.286a.82.82 0 0 0 0 .722.81.81 0 0 0 .234.286 12.95 12.95 0 0 0 5.557 2.392c.783.137 1.575.206 2.37.206 1.543-.008 3.077-.248 4.55-.711 1.581-.49 3.089-1.194 4.482-2.093.044-.033.096-.05.151-.05s.107.018.151.05l2.433 1.873a.81.81 0 0 0 .973 0l2.292-1.824a.8.8 0 0 0 .226-.288.81.81 0 0 0 .075-.359c0-.123-.029-.244-.084-.354s-.135-.205-.233-.278l-2.078-1.569c-.029-.023-.054-.052-.073-.085s-.03-.069-.035-.106.004-.08.017-.118.034-.073.061-.102a13.35 13.35 0 0 0 2.384-3.279 7.23 7.23 0 0 0 .793-4.686c-.332-1.527-1.25-2.859-2.555-3.706-1.201-.894-2.581-1.515-4.044-1.819a10.76 10.76 0 0 0-3.98 0c-1.312.242-2.595.62-3.83 1.127l-3.299 1.471c-.243.113-.55.201-.691.098l-4.453-3.363a3.92 3.92 0 0 1 .55-.221 7.25 7.25 0 0 1 2.618-.324c.739.043 1.457.265 2.093.647.136.084.294.125.453.119s.313-.06.442-.154l4.224-3.132c.108-.08.195-.186.251-.309a.8.8 0 0 0 .07-.392c-.008-.135-.049-.267-.121-.381a.8.8 0 0 0-.288-.276c-1.403-.786-2.966-1.241-4.569-1.328-1.976-.107-3.954.149-5.839.755a19.82 19.82 0 0 0-3.659 1.573c-.043.027-.093.042-.143.042s-.101-.015-.144-.042l-2.053-1.559a.8.8 0 0 0-.934 0l-2.141 1.471c-.104.072-.189.168-.249.28s-.093.236-.096.363.023.253.077.368.134.215.234.293l1.494 1.157c.032.023.058.053.075.088s.027.074.027.113-.005.083-.021.121-.041.072-.071.1a13.11 13.11 0 0 0-2.365 2.716 7.13 7.13 0 0 0-1.285 4.387c.063.724.276 1.427.626 2.062s.828 1.191 1.403 1.629zm5.421-6.784a3.77 3.77 0 0 1 .423-.804c.277-.412.336-.422.589-.226l3.26 2.52c.306.245.487.343-.277.632-.453.158-.924.26-1.401.304a2.5 2.5 0 0 1-1.024-.041 2.51 2.51 0 0 1-.923-.449 1.58 1.58 0 0 1-.675-.849c-.118-.354-.109-.74.028-1.087zm18.628 3.73c.847.627 1.158 1.348.973 2.206-.11.483-.328.934-.637 1.319-.248.304-.394.387-.633.221l-4.083-3.083c-.487-.412-.487-.412.345-.784.631-.216 1.284-.362 1.946-.436a2.98 2.98 0 0 1 2.088.559z" fill="#fff"/></svg>