<svg xmlns="http://www.w3.org/2000/svg" width="329" height="100" fill="none" xmlns:v="https://vecta.io/nano"><g clip-path="url(#A)"><path fill="#fff" d="M0 0h328.095v100H0z"/><path d="M38.676 35.9H14.464v-21.84h38.963c9.122.065 15.793 3.909 20.38 11.728a21.15 21.15 0 0 1 3.075 8.014c.104.834.182 1.863.261 3.179v.925h14.543v-1.016c-.117-3.57-.3-6.437-.547-8.483a30.69 30.69 0 0 0-4.391-11.728C80.245 5.708 70.433.078 57.506 0H0v50h38.676V35.9z" fill="#1e4aff"/><path d="M53.141 49.987v14.086h23.742l-.365 2.906a17.24 17.24 0 0 1-1.069 3.909 39.08 39.08 0 0 1-1.903 3.597c-2.029 3.32-4.844 6.091-8.196 8.066a22.75 22.75 0 0 1-12.692 3.388H14.464V62.08H0V100h56.542a32.58 32.58 0 0 0 18.243-4.887 34 34 0 0 0 11.728-11.546 55.23 55.23 0 0 0 2.684-5.069 26.15 26.15 0 0 0 1.59-5.747c.73-4.118 1.108-11.454 1.108-21.775v-.99H53.141z" fill="#ffd729"/><g fill="#333"><path d="M116.693 82.916a15.91 15.91 0 0 0 5.708-1.134c2.059-1.056 3.088-2.997 3.088-5.799V24.094a5.87 5.87 0 0 0-.633-3.259c-.52-1.003-1.318-1.835-2.299-2.396a16.44 16.44 0 0 0-5.851-1.303v-2.658h32.161c12.979 0 22.878 3.475 29.698 10.425 6.202 6.307 9.304 14.768 9.304 25.384a33.88 33.88 0 0 1-9.343 24.146c-7.029 7.428-16.55 11.146-28.564 11.155h-33.256v-2.671h-.013zm27.001-2.32c.703.964 2.202 1.433 4.495 1.433a19.86 19.86 0 0 0 8.411-1.607c2.653-1.141 5.027-2.847 6.953-4.999 4.013-4.404 6.016-12.857 6.007-25.358a51.31 51.31 0 0 0-3.232-19.169c-3.474-8.6-9.364-12.901-17.67-12.901-2.736 0-4.521.586-5.342 1.746a8.05 8.05 0 0 0-.821 4.365v51.785a8.68 8.68 0 0 0 1.199 4.704zm48.552 2.32a14.79 14.79 0 0 0 6.424-1.303c1.955-1.095 2.932-3.149 2.932-6.164V24.603c0-3.049-.96-5.104-2.879-6.164a17.03 17.03 0 0 0-6.516-1.303v-2.658h59.682v21.228h-2.606c-1.303-6.542-3.497-11.124-6.581-13.748s-8.77-3.927-17.057-3.909c-3.089 0-5.043.352-5.877 1.056a4.96 4.96 0 0 0-1.077 1.813c-.224.675-.302 1.389-.226 2.096v24.355c5.681.104 9.525-1.095 11.532-3.596s3.523-6.494 4.548-11.975h2.606v35.549h-2.606c-.721-5.682-2.168-9.825-4.34-12.432s-6.081-3.909-11.727-3.909V75.58c0 3.258.951 5.321 2.853 6.19a21.09 21.09 0 0 0 8.705 1.212v2.671h-37.803v-2.737h.013zm73.092-58.04c6.698-7.028 15.26-10.542 25.685-10.542 4.264.018 8.49.812 12.47 2.346 4.144 1.564 6.724 2.346 7.741 2.346a3.27 3.27 0 0 0 1.432-.269 3.26 3.26 0 0 0 1.174-.865 8.98 8.98 0 0 0 1.629-3.558h2.814v23.664h-2.606a55.19 55.19 0 0 0-7.44-12.119c-4.726-5.456-10.082-8.183-16.068-8.183a15 15 0 0 0-8.4 2.095c-2.533 1.509-4.565 3.731-5.843 6.388-2.988 5.656-4.482 13.609-4.482 23.86-.137 7.706 1.281 15.36 4.17 22.505 2.771 6.594 8.135 9.886 16.093 9.878 4.344 0 7.237-.903 8.679-2.71.964-1.346 1.426-2.988 1.303-4.639V64.425c0-3.062-.939-5.056-2.815-6.007-1.212-.586-3.675-.925-7.389-.99v-2.606h34.598v2.606c-3.48.13-5.799.834-6.92 2.098s-1.707 3.636-1.707 7.128V79.49a44.45 44.45 0 0 1-10.842 4.144 62.83 62.83 0 0 1-16.718 2.098c-11.207 0-20.159-3.531-26.857-10.594-6.246-6.602-9.37-14.881-9.37-24.837-.274-9.421 3.204-18.566 9.669-25.423z"/></g></g><defs><clipPath id="A"><path fill="#fff" d="M0 0h328.095v100H0z"/></clipPath></defs></svg>