<svg xmlns="http://www.w3.org/2000/svg" width="523" height="179" fill="none" xmlns:v="https://vecta.io/nano"><path d="M19.734 40.586h26.823v93.809c0 20.771-15.918 34.787-46.557 34.787v-19.735c13.15 0 19.734-5.537 19.734-16.784V40.586zm2.94-15.234c-5.88-5.88-5.88-15.052 0-20.943 5.88-5.88 15.052-5.88 20.943 0 5.88 5.88 5.88 15.052 0 20.943s-15.053 5.88-20.943 0zm101.098 15.234h26.823v88.785h-26.823v-12.979c-8.83 9.868-19.905 14.711-32.883 14.711-20.077 0-33.407-12.465-33.407-35.824V40.586h26.823v44.483c0 15.405 6.061 23.188 18.345 23.188s21.113-9.172 21.113-27.346V40.586h.01zm193.87 34.092v54.693h-26.823V84.022c0-14.881-5.708-22.322-17.136-22.322s-20.59 9.344-20.59 27.346v40.325H226.27V84.022c0-14.881-5.709-22.322-17.137-22.322s-20.59 9.344-20.59 27.346v40.325h-26.822V40.586h26.822v12.807c8.83-9.696 19.211-14.539 31.495-14.539 15.576 0 25.614 6.061 30.286 18.174 9.515-12.112 20.942-18.174 34.263-18.174 20.6 0 33.055 11.075 33.055 35.824zm99.377-23.711c8.648 8.307 12.978 19.553 12.978 33.921s-4.33 25.614-12.978 33.75c-8.649 8.306-19.554 12.465-32.884 12.465-11.77 0-21.285-3.806-28.555-11.418v47.765h-26.822V40.587h26.822v9.515c7.27-7.612 16.785-11.418 28.555-11.418 13.33 0 24.235 4.158 32.884 12.284zm-15.053 33.921c0-15.918-9.867-26.48-23.188-26.48s-23.188 10.038-23.188 26.48 10.039 26.48 23.188 26.48 23.188-10.562 23.188-26.48z" fill="#0c1f47"/><path d="M523 103.062h-84.143v21.637H523v-21.637z" fill="#1ce7c2"/><path d="M391.243 158.508h6.972c-1.327 5.881-5.739 9.39-12.377 9.39-4.032 0-7.352-1.138-9.959-3.462-2.655-2.324-3.984-5.359-3.984-9.201s1.327-6.83 3.984-9.154 5.975-3.462 9.959-3.462c6.638 0 11.05 3.509 12.377 9.39h-6.972c-.852-2.658-2.657-3.985-5.358-3.985-3.793 0-6.308 2.988-6.308 7.208s2.513 7.255 6.308 7.255c2.704 0 4.506-1.327 5.358-3.984v.005zm78.107-12.568c2.371 2.277 3.556 5.359 3.556 9.296s-1.185 7.018-3.556 9.248c-2.371 2.276-5.359 3.415-9.01 3.415-3.226 0-5.833-1.044-7.824-3.129v13.088h-7.349v-34.764h7.349v2.607c1.991-2.088 4.601-3.129 7.824-3.129 3.651 0 6.639 1.139 9.01 3.368zm-4.126 9.296c0-4.362-2.704-7.255-6.355-7.255s-6.355 2.751-6.355 7.255 2.751 7.254 6.355 7.254 6.355-2.893 6.355-7.254zm28.409-6.734h-8.68v9.484c0 2.799 1.469 4.173 4.459 4.173 1.469 0 2.846-.283 4.221-.852v5.739c-1.566.569-3.557.852-5.975.852-6.686 0-10.054-3.034-10.054-9.056v-10.34h-4.506v-5.405h4.506v-5.217l7.352-2.23v7.447h8.679v5.405h-.002zm25.134-2.421c2.657 2.324 3.984 5.358 3.984 9.154s-1.327 6.877-3.984 9.201-6.022 3.462-10.053 3.462-7.447-1.138-10.054-3.462c-2.657-2.324-3.984-5.359-3.984-9.201s1.327-6.83 3.984-9.154c2.607-2.324 5.975-3.462 10.054-3.462s7.399 1.138 10.053 3.462zm-10.053 16.409c1.943 0 3.462-.664 4.648-2.038 1.138-1.328 1.707-3.082 1.707-5.217 0-4.22-2.513-7.208-6.355-7.208s-6.355 2.988-6.355 7.208c0 2.135.569 3.889 1.754 5.217 1.139 1.374 2.655 2.038 4.601 2.038zm-101.442-14.603v-4.79h-7.352v24.327h7.352V156.66c0-2.893 1.28-5.028 3.223-6.022 1.872-.983 3.696-1.363 5.748-1.374l-2.996-6.228c-2.471.705-4.473 2.318-5.978 4.848l.003.003zm29.594-4.793h7.918l-11.145 24.327c-1.66 3.462-3.129 5.739-5.597 7.824s-5.88 3.082-10.386 3.082v-6.355c3.984 0 6.355-1.375 8.584-5.123l-11.333-23.758h8.49l6.877 16.076 6.592-16.076v.003z" fill="#0c1f47"/></svg>