<svg xmlns="http://www.w3.org/2000/svg" width="232" height="88" fill="#fff" xmlnsV="https://vecta.io/nano"><path d="M97.228 41.819V27.352h6.187v33.08h-6.187v-1.868c-.174.084-.244.1-.29.143-2.32 2.153-5.086 2.694-8.064 1.971-3.928-.951-6.292-3.61-7.263-7.428-.985-3.874-.323-7.485 2.335-10.596 2.795-3.273 7.726-4.2 11.41-2.147.615.342 1.163.81 1.872 1.313zm.205 8.654c.004-1.057-.128-1.86-.449-2.609-.754-1.761-2.079-2.837-4.004-3.044-1.816-.196-3.362.406-4.457 1.893-1.291 1.751-1.441 3.695-.706 5.7 1.016 2.765 4.227 4.006 6.85 2.651 1.951-1.006 2.668-2.748 2.767-4.589zm-26.619-8.676v-1.84h6.14c.159.498.234 18.788.073 20.488-2.026.08-4.064.011-6.18.039v-1.97c-.255.199-.4.299-.531.415-1.392 1.236-3.04 1.86-4.88 1.996-5.025.368-8.697-2.901-9.939-6.748-1.351-4.187-.822-8.113 2.09-11.544 2.768-3.259 7.684-4.17 11.349-2.146.637.351 1.199.831 1.879 1.311zm-9.894 8.421c0 .588.258 1.505.528 2.204.714 1.844 2.09 2.943 4.075 3.14 1.938.193 3.509-.524 4.611-2.157 1.351-2.004 1.193-5.024-.344-6.891-1.876-2.28-5.516-2.316-7.442-.076-.929 1.082-1.427 2.35-1.427 3.78zm105.898 5.276h7.333v4.934h-20.834c-.164-.506-.195-4.103-.026-4.946h7.23V32.334h-7.197c-.162-.589-.203-3.931-.082-4.9.504-.15 12.72-.182 13.576-.019v28.079zm14.012-3.711c.131 1.502.788 2.611 1.923 3.379 1.79 1.212 3.726 1.215 5.678.422.754-.306 1.267-.914 1.63-1.648h5.568c-.213.602-.349 1.159-.596 1.661a9.06 9.06 0 0 1-5.263 4.69c-2.805 1.003-5.651.94-8.419-.132-3.083-1.193-5.018-3.476-5.889-6.648-.656-2.385-.625-4.758.22-7.1a10.59 10.59 0 0 1 9.749-6.973c2.633-.05 5.008.644 7.007 2.413 1.745 1.547 2.729 3.527 3.231 5.768a13.37 13.37 0 0 1 .279 4.14l-2.986.026-3.011.001h-3.011-3.013-3.097zm9.106-3.893c0-.12.02-.216-.002-.3-.293-1.111-.893-2.013-1.935-2.535-1.664-.833-3.333-.767-4.921.19-.985.594-1.649 1.479-2.015 2.647l8.873-.002zm-38.026-.222h-6.214c-.055-.085-.123-.157-.154-.242-.8-2.139-3.359-3.276-5.872-2.17-1.398.615-2.269 1.721-2.659 3.183-.533 2.006-.297 3.89 1.077 5.516 1.714 2.029 4.938 2.145 6.668.245.377-.415.632-.94.987-1.477h6.208c-.027.23-.031.437-.078.634-.708 2.921-2.499 4.999-5.118 6.376-4.43 2.332-10.1 1.286-13.441-2.436-4.553-5.073-3.224-13.07 2.729-16.412 4.505-2.529 10.088-1.741 13.564 1.919 1.145 1.205 1.888 2.624 2.272 4.235a2.62 2.62 0 0 1 .062.352c.007.066-.013.136-.031.278zm-36.194-2.781h-7.233v-4.931h13.553l.032.814.001 13.803v.886h7.225c.183.535.226 4.029.072 4.974h-20.811c-.148-.528-.193-3.78-.062-4.926.785-.06 1.59-.02 2.391-.027l2.367-.001h2.419c.177-.521.221-9.625.046-10.591zm-64.035-4.934v4.941l-3.432.009h-3.511-3.505v15.439c-.588.166-5.398.196-6.233.054V39.953h16.681zm66.653-4.874c-2.311.004-4.114-1.773-4.109-4.047.004-2.233 1.795-4.013 4.058-4.032 2.308-.019 4.129 1.75 4.139 4.017.012 2.286-1.772 4.057-4.088 4.062z"/></svg>