<svg xmlns="http://www.w3.org/2000/svg" width="385" height="100" fill="none" xmlns:v="https://vecta.io/nano"><path fill="#fff" d="M0 0h384.973v100H0z"/><path d="M48.756 96.624c0 2.029-1.775 3.55-3.741 3.36C19.781 97.448 0 76.082 0 50.151S19.718 2.853 45.015.317c2.029-.19 3.741 1.395 3.741 3.36v17.182c0 1.648-1.205 3.107-2.853 3.36-12.49 1.965-22.064 12.807-22.064 25.868s9.574 23.902 22.064 25.868c1.648.254 2.853 1.712 2.853 3.36v17.309z" fill="#eb4236"/><path d="M99.919 54.906C97.7 78.491 79.06 97.385 55.539 99.921c-2.029.191-3.804-1.331-3.804-3.36V79.315c0-1.648 1.205-3.043 2.79-3.36 11.032-1.902 19.718-10.778 21.366-21.873.254-1.649 1.712-2.853 3.36-2.853h17.182c2.092-.063 3.678 1.712 3.487 3.677z" fill="#ffe4c7"/><path d="M48.818 27.58v20.162a3.41 3.41 0 0 0 3.424 3.424h20.415c2.029 0 3.614-1.775 3.36-3.804-1.458-12.173-9.954-21.62-23.395-23.141-2.029-.254-3.804 1.331-3.804 3.36z" fill="#0d4384"/><path d="M72.785 3.55c0 1.268.697 2.409 1.775 3.043a50.72 50.72 0 0 1 19.02 19.02c.634 1.078 1.775 1.775 3.043 1.775h.063a3.52 3.52 0 0 0 3.487-3.487V3.487A3.52 3.52 0 0 0 96.688 0H76.272c-1.902.063-3.487 1.585-3.487 3.55z" fill="#ffb600"/><path d="M145.822 71.644h-3.043c-11.919 0-21.873-9.574-21.81-21.556.063-11.729 9.574-21.239 21.303-21.303 11.919-.063 21.556 9.891 21.556 21.81v18.513c0 1.395-1.141 2.536-2.536 2.536h-5.769c-1.395 0-2.536-1.141-2.536-2.536v-18.64c0-5.706-4.692-10.715-10.398-10.842-6.023-.127-10.969 4.819-10.842 10.842.127 5.706 5.136 10.398 10.842 10.398h3.17c1.395 0 2.536 1.141 2.536 2.536v5.77c.063 1.331-1.078 2.473-2.473 2.473zm221.208 0h-3.106c-11.92 0-21.874-9.574-21.81-21.556.063-11.729 9.573-21.239 21.302-21.303 11.92-.063 21.557 9.891 21.557 21.81v18.513c0 1.395-1.141 2.536-2.536 2.536h-5.77c-1.395 0-2.536-1.141-2.536-2.536v-18.64c0-5.706-4.691-10.715-10.398-10.842-6.023-.127-10.968 4.819-10.841 10.842.127 5.706 5.135 10.398 10.841 10.398h3.17c1.395 0 2.537 1.141 2.537 2.536v5.77c.063 1.331-1.015 2.473-2.41 2.473zm-157.678 0h-5.77c-1.395 0-2.536-1.141-2.536-2.536v-18.64c0-5.96-4.882-10.968-10.778-10.842-5.77.127-10.462 4.819-10.462 10.588v18.894c0 1.395-1.141 2.536-2.536 2.536h-5.769c-1.395 0-2.536-1.141-2.536-2.536V50.594c0-11.729 9.256-21.556 20.986-21.747 11.983-.254 21.81 9.447 21.81 21.43v18.894c.127 1.395-1.015 2.473-2.409 2.473zm107.21-43.24c-6.341 0-12.11 2.79-16.041 7.228-3.931-4.438-9.637-7.228-16.041-7.228-11.792 0-21.429 9.954-21.429 21.747v18.577c0 1.395 1.141 2.536 2.536 2.536h5.769c1.395 0 2.536-1.141 2.536-2.536v-18.64c0-5.96 4.882-10.968 10.779-10.842 5.769.127 10.461 4.819 10.461 10.588v18.894c0 1.395 1.141 2.536 2.536 2.536h5.769c1.395 0 2.537-1.141 2.537-2.536v-18.64c0-5.96 4.881-10.968 10.778-10.842 5.769.127 10.461 4.819 10.461 10.588v18.894c0 1.395 1.141 2.536 2.536 2.536h5.77c1.394 0 2.536-1.141 2.536-2.536V50.151c-.064-11.729-9.701-21.747-21.493-21.747zM237.5 71.644c-11.793 0-21.43-9.637-21.43-21.43s9.637-21.43 21.43-21.43 21.43 9.637 21.43 21.43-9.637 21.43-21.43 21.43zm0-32.018a10.61 10.61 0 0 0-10.588 10.588A10.61 10.61 0 0 0 237.5 60.802a10.61 10.61 0 0 0 10.588-10.588A10.61 10.61 0 0 0 237.5 39.626z" fill="#011f43"/></svg>