<svg xmlns="http://www.w3.org/2000/svg" width="626" height="100" fill="none" xmlns:v="https://vecta.io/nano"><g clip-path="url(#A)"><path fill="#fff" d="M0 0h625.679v100H0z"/><g fill="#000"><path d="M23.55.181L3.623 11.504c-.679.226-.679 1.132 0 1.359l46.649 26.721c.453.227 1.132.227 1.585 0l19.928-11.322c.679-.226.679-1.132 0-1.359L25.362.181c-.679-.226-1.132-.226-1.812 0zm53.217 0L56.84 11.504c-.679.226-.679 1.132 0 1.359l20.154 11.775a1.94 1.94 0 0 0 1.585 0l19.928-11.322c.679-.226.679-1.132 0-1.359L78.352.385c-.453-.453-1.132-.453-1.585-.226v.023zM53.441 45.675v22.871c0 .679.679 1.132 1.359.679l20.154-11.549c.226-.226.453-.453.453-.679V33.469c0-.679-.679-1.132-1.359-.679L54.347 44.112c-.679.453-.906.906-.906 1.585v-.023zm27.174-16.757l19.928-11.323c.453-.226 1.358 0 1.358.679v53.442c0 .679-.226 1.132-.905 1.359L54.574 99.796c-.453.227-1.359 0-1.359-.679V76.246c0-.679.227-1.132.906-1.359l24.91-14.266c.453-.227.906-.906.906-1.585V30.503c0-.679.226-1.132.679-1.585zM48.913 45.471v23.551c0 .453-.453.679-.906.453l-24.456-14.04c-.453-.227-1.359 0-1.359.679v27.627c0 .679-.679 1.132-1.359.679L.906 73.075C.453 72.849 0 72.169 0 71.717V18.048c0-.679.679-1.132 1.359-.679L48.007 44.09c.453.226.906.906.906 1.359v.023zm-21.06 17.64L47.78 74.66c.453.226.906.906.906 1.359v23.098c0 .679-.679 1.132-1.359.679L27.4 88.247c-.453-.227-.906-.906-.906-1.359V64.017c.227-.679.906-1.132 1.359-.906zm151.269-28.306c0 9.737-6.567 15.398-14.493 16.304-2.717.226-4.529.453-7.699.453h-7.926v20.154h-10.643V18.071h18.569c3.17 0 5.209 0 7.699.453 8.153.906 14.493 6.341 14.493 16.304v-.023zm-11.322 0c0-4.982-2.718-7.473-6.341-7.926-1.132-.226-2.717-.226-4.755-.226h-7.7v16.304h7.7c2.038 0 3.623 0 4.755-.226 3.85-.679 6.341-2.944 6.341-7.926zm40.534-5.185v8.605c-8.832-.679-13.361 3.397-13.361 14.493v18.795H184.33V30.276h10.643v7.473l3.17-5.661c2.039-1.812 4.756-2.717 7.02-2.717 1.359 0 2.265 0 3.171.226v.023zm44.61 21.263c0 12.455-7.7 21.739-21.287 21.739s-21.286-9.284-21.286-21.739 7.699-21.739 21.286-21.739 21.287 9.284 21.287 21.739zm-11.096 0c0-8.832-3.85-14.266-10.191-14.266s-10.19 5.208-10.19 14.266 3.85 14.266 10.19 14.266c6.341-.227 10.191-5.435 10.191-14.266zm30.345 5.911v3.623c.226 4.076 1.811 4.982 7.699 4.529v7.02c-2.491.453-4.755.453-7.02.453-7.926 0-10.87-2.717-11.322-8.379-.227-1.812-.227-3.623-.227-5.888v-20.38h-6.114v-7.02h6.114V17.165h10.643v13.587h8.605v7.02h-8.605v19.022h.227zm53.893-5.911c0 12.455-7.699 21.739-21.286 21.739s-21.286-9.284-21.286-21.739 7.699-21.739 21.286-21.739 21.286 9.284 21.286 21.739zm-10.869 0c0-8.832-3.85-14.266-10.191-14.266s-10.19 5.208-10.19 14.266 3.85 14.266 10.19 14.266c6.114-.227 10.191-5.435 10.191-14.266zm54.123-5.661h-10.417c-.906-5.888-4.076-8.379-8.605-8.379-5.435 0-9.284 4.303-9.284 13.813 0 10.19 3.849 14.493 9.284 14.493 4.076 0 7.246-2.717 8.379-7.926h10.643c-1.812 10.19-9.285 15.399-19.701 15.399-11.323 0-19.701-7.02-19.701-21.286s9.284-21.966 20.606-21.966c11.096-.227 18.116 6.567 18.796 15.851zm46.42 5.661c0 12.455-7.699 21.739-21.286 21.739s-21.286-9.284-21.286-21.739 7.699-21.739 21.286-21.739 21.286 9.284 21.286 21.739zm-11.096 0c0-8.832-3.85-14.266-10.19-14.266s-10.19 5.208-10.19 14.266 3.849 14.266 10.19 14.266c6.34-.227 10.19-5.435 10.19-14.266zm15.852 20.63V16.916h10.643v54.597h-10.643zm76.768 0h-38.497V16.916h10.643v45.765h27.854v8.831zm28.758-6.137l-2.038 4.302c-2.944 2.038-6.341 2.717-10.19 2.717-7.02 0-13.134-4.076-13.134-12.002 0-9.058 7.699-14.266 22.645-14.266h2.717v-.906c0-1.132 0-2.491-.226-3.85-.227-2.944-2.265-4.982-6.341-4.982-4.303 0-6.567 2.491-6.794 7.02h-10.416c.226-9.284 7.926-14.493 17.663-14.493 11.549 0 15.851 4.982 16.531 12.228.226 2.038.226 4.076.226 6.341v13.36c0 3.17.227 5.888.679 10.417h-10.416l-.906-5.888zm0-9.058v-3.397c-8.605-.679-14.266 1.359-14.266 6.794 0 3.623 2.491 5.435 6.34 5.435 4.303-.227 7.926-3.17 7.926-8.832zm61.368-6.114c0 14.946-9.058 22.418-19.701 22.418-3.397 0-7.473-.906-9.737-2.264l-2.718-4.302v5.435h-10.643V16.916h10.643v19.701l3.171-4.529c2.264-1.812 6.567-2.944 10.643-2.944 11.549 0 18.342 8.831 18.342 21.06zm-11.096.679c0-8.379-4.076-14.04-10.416-14.04-5.888 0-10.644 3.623-10.644 13.587v2.038c0 9.284 5.435 12.681 10.191 12.681 6.34-.227 10.869-4.756 10.869-14.266zM625 42.278h-10.643c-.679-3.85-2.717-5.888-6.34-5.888-3.171 0-4.982 1.812-4.982 4.303 0 3.17 2.491 4.755 9.284 6.341 8.379 2.265 13.361 5.661 13.361 13.134 0 8.379-7.473 12.228-16.984 12.228s-16.984-4.302-18.116-13.587h10.643c.906 4.529 3.85 6.567 7.7 6.567 3.396 0 6.114-1.359 6.114-4.529s-2.718-4.982-9.738-6.793c-7.699-2.038-12.907-5.208-12.907-12.455 0-7.926 6.567-12.681 16.304-12.681 9.737.226 15.399 5.888 16.304 13.361z"/></g></g><defs><clipPath id="A"><path fill="#fff" d="M0 0h625.679v100H0z"/></clipPath></defs></svg>