<?xml version="1.0" standalone="no"?>
<!DOCTYPE svg PUBLIC "-//W3C//DTD SVG 20010904//EN"
 "http://www.w3.org/TR/2001/REC-SVG-20010904/DTD/svg10.dtd">
<svg version="1.0" xmlns="http://www.w3.org/2000/svg"
 width="260.000000pt" height="260.000000pt" viewBox="0 0 260.000000 260.000000"
 preserveAspectRatio="xMidYMid meet">
<metadata>
Created by potrace 1.14, written by Peter Selinger 2001-2017
</metadata>
<g transform="translate(0.000000,260.000000) scale(0.100000,-0.100000)"
fill="#000000" stroke="none">
<path d="M0 1300 l0 -1300 1300 0 1300 0 0 1300 0 1300 -1300 0 -1300 0 0
-1300z m995 619 c110 -18 105 -10 105 -154 0 -69 -2 -125 -3 -125 -2 0 -39 9
-82 20 -98 25 -276 28 -295 5 -17 -20 -5 -33 43 -45 306 -77 387 -141 387
-303 0 -122 -69 -210 -202 -257 -123 -44 -425 -37 -590 12 l-38 11 0 133 0
132 68 -23 c119 -42 310 -58 348 -31 17 13 17 16 4 30 -9 9 -56 28 -105 42
-246 70 -336 159 -322 315 12 136 109 221 287 249 67 11 299 5 395 -11z m1066
-8 c161 -61 240 -222 226 -461 -12 -213 -93 -339 -255 -396 -81 -28 -216 -32
-305 -9 -32 8 -60 15 -62 15 -3 0 -5 -90 -5 -200 l0 -200 -200 0 -200 0 0 630
0 630 174 0 174 0 7 -30 c4 -16 8 -30 10 -30 1 0 24 12 51 27 76 43 128 53
234 49 64 -3 113 -11 151 -25z"/>
<path d="M1688 1632 l-28 -17 0 -136 0 -137 40 -16 c50 -20 71 -20 115 -2 50
21 68 65 69 161 0 86 -17 135 -53 155 -30 16 -113 12 -143 -8z"/>
</g>
</svg>
