<svg xmlns="http://www.w3.org/2000/svg" width="556" height="100" fill="none" xmlns:v="https://vecta.io/nano"><path fill="#fff" d="M0 0h555.066v100H0z"/><path d="M179.511 55.412v-3.423c0-9.873 3.324-15.975 11.46-15.975 6.846 0 10.071 4.267 10.071 10.914h13.147v-2.332c0-11.46-7.491-20.688-23.565-20.688-17.463 0-25.054 11.758-25.054 28.03v3.423c0 16.173 7.591 28.03 25.054 28.03 16.074 0 23.565-8.98 23.565-19.795v-2.232h-13.147c0 5.556-2.977 9.873-10.071 9.873-8.186.05-11.46-6.053-11.46-15.826zm68.017 28.08c17.76 0 25.698-11.907 25.698-28.03v-3.423c0-16.272-7.938-28.03-25.698-28.03s-25.699 11.758-25.699 28.03v3.423c0 16.123 7.938 28.03 25.699 28.03zm0-12.204c-8.137 0-11.758-6.102-11.758-15.826v-3.423c0-9.873 3.621-15.975 11.758-15.975s11.757 6.102 11.757 15.975v3.423c0 9.724-3.621 15.826-11.757 15.826zm84.338 10.815V43.257c0-10.269-5.011-19.299-17.463-19.299-8.98 0-14.883 3.77-18.406 8.88l-1.289-7.491h-12.304l.943 16.074v40.681h13.94v-39.49c1.588-2.679 5.259-6.549 11.758-6.549 6.301 0 8.98 3.969 8.98 9.426v36.613h13.841zm60.327 0V43.257c0-10.269-5.011-19.299-17.463-19.299-8.98 0-14.883 3.77-18.406 8.88l-1.29-7.491h-12.303l.942 16.074v40.681h13.941v-39.49c1.588-2.679 5.259-6.549 11.758-6.549 6.301 0 8.98 3.969 8.98 9.426v36.613h13.841zm60.873-23.268v-6.549c0-16.173-7.938-28.377-25.401-28.377-17.563 0-25.996 12.204-25.996 28.377v2.778c0 16.173 8.235 28.377 26.541 28.377 16.273 0 24.856-8.98 24.856-19.15v-.446h-13.147c0 4.267-3.969 8.781-11.56 8.781-7.937 0-12.204-4.515-12.75-13.792h37.457zm-25.699-24.061c7.591 0 11.262 4.812 11.659 13.792H415.56c.595-8.98 4.316-13.792 11.807-13.792zm31.701-9.426l15.429 27.732-15.429 29.022h15.826l10.716-21.829 10.815 21.829h15.826L496.822 53.08l15.429-27.732h-16.173l-10.368 20.44-10.518-20.44h-16.124zm80.321 0V9.273h-13.941v16.074h-23.565v12.204h23.565v25.996c0 14.685 8.136 19.894 19.795 19.894 5.01 0 7.937-.943 8.781-1.389V70.493c-.645.298-3.423.744-5.457.744-5.805 0-9.228-1.588-9.228-9.228V37.502h15.727V25.298h-15.677v.05z" fill="#0d1216"/><path d="M41.742 2.328L30.48 13.59 6.022 37.849C-3.95 48.02-.03 58.388 6.915 65.334l20.043 19.944c1.786 1.786 8.732 9.079 14.288 3.374 3.225-3.225 2.481-8.186.695-10.17L18.921 55.66c-4.118-4.118-2.133-7.839 1.984-11.758l19.596-19.646 12.304 12.304c4.267 4.267 9.625 5.904 14.09 1.439s1.786-8.732-2.481-13.048L50.87 11.407l-9.128-9.079z" fill="url(#A)"/><path d="M42.834 3.221C39.609-.004 34.995-1.79 30.53 2.675s-2.133 9.476.694 12.304" fill="url(#B)"/><path d="M82.424 97.581l11.262-11.262 24.458-24.458c10.171-10.17 6.251-20.539-.893-27.484L97.257 14.582c-1.786-1.786-8.731-9.079-14.288-3.373-3.225 3.225-2.481 8.186-.695 10.17l23.019 22.821c4.118 4.118 2.134 7.839-1.984 11.758L83.664 75.603 71.36 63.3c-4.267-4.267-9.624-5.904-14.09-1.439s-1.786 8.731 2.48 13.048l13.544 13.544 9.128 9.128z" fill="url(#C)"/><path d="M81.381 96.688c3.225 3.225 7.838 5.159 12.304.695s2.133-9.476-.695-12.303" fill="url(#D)"/><defs><linearGradient id="A" x1="5.695" y1="25.764" x2="116.342" y2="97.149" gradientUnits="userSpaceOnUse"><stop stop-color="#29c1fc"/><stop offset=".502" stop-color="#ab00ff"/><stop offset=".508" stop-color="#ac03fc"/><stop offset=".641" stop-color="#c840b8"/><stop offset=".76" stop-color="#de7082"/><stop offset=".863" stop-color="#ee935b"/><stop offset=".945" stop-color="#f7a844"/><stop offset=".996" stop-color="#fbb03b"/></linearGradient><linearGradient id="B" x1="22.584" y1="-.414" x2="133.232" y2="70.971" gradientUnits="userSpaceOnUse"><stop stop-color="#29c1fc"/><stop offset=".502" stop-color="#ab00ff"/><stop offset=".508" stop-color="#ac03fc"/><stop offset=".641" stop-color="#c840b8"/><stop offset=".76" stop-color="#de7082"/><stop offset=".863" stop-color="#ee935b"/><stop offset=".945" stop-color="#f7a844"/><stop offset=".996" stop-color="#fbb03b"/></linearGradient><linearGradient id="C" x1="16.808" y1="8.539" x2="127.456" y2="79.924" gradientUnits="userSpaceOnUse"><stop stop-color="#29c1fc"/><stop offset=".502" stop-color="#ab00ff"/><stop offset=".508" stop-color="#ac03fc"/><stop offset=".641" stop-color="#c840b8"/><stop offset=".76" stop-color="#de7082"/><stop offset=".863" stop-color="#ee935b"/><stop offset=".945" stop-color="#f7a844"/><stop offset=".996" stop-color="#fbb03b"/></linearGradient><linearGradient id="D" x1="-.128" y1="34.788" x2="110.52" y2="106.174" gradientUnits="userSpaceOnUse"><stop stop-color="#29c1fc"/><stop offset=".502" stop-color="#ab00ff"/><stop offset=".508" stop-color="#ac03fc"/><stop offset=".641" stop-color="#c840b8"/><stop offset=".76" stop-color="#de7082"/><stop offset=".863" stop-color="#ee935b"/><stop offset=".945" stop-color="#f7a844"/><stop offset=".996" stop-color="#fbb03b"/></linearGradient></defs></svg>