<svg xmlns="http://www.w3.org/2000/svg" width="402" height="100" fill="none" xmlns:v="https://vecta.io/nano"><g clip-path="url(#A)"><path fill="#fff" d="M0 0h401.13v100H0z"/><g fill="#231f20"><path d="M111.741 78.287h12.115c0-12.168 1.99-41.955-3.26-48.27-8.941-10.496-23.017-23.183-36.833-12.572h-.144l-2.711-3.028-15.287.433v28.374c-2.307-7.757-8.48-11.649-13.326-17.33C26.566-4.268-18.748 30.277 8.337 60.208l7.211 7.209c14.71 15.398 41.275 16.061 50.044-3.23l-.433 2.134 11.97 11.966H92.82c.029-9.862-2.336-35.957 7.355-38.322l-.433 26.355 11.971 11.966h.028zM61.64 55.969h3.98v3.922l-3.98-3.922zm144.189-41.523c-4.875-1.355-10.24-.202-13.903 3.604h-.144l-3.404-3.576-15.171.404-.058 10.092-10.355-10.438-2.452.346v-2.883L148.257.029l-15.143.404V14.85H122.73l-.404 13.149 10.384 9.948c.577.923-2.135 20.531 6.028 28.691s24.258 15.138 36.141 11.246v-9.689l9.865 10.092h15.691c1.586-9.343-5.596-36.332 9.547-37.168-.375 10.698 6.577 18.137 13.874 24.827 12.778 18.108 41.535 18.397 50.39-3.403l-.433 25.49L285.784 100h15.691V73.356c25.238 23.212 52.986-23.126 29.334-42.013-9.432-10.727-23.854-24.712-38.334-13.87l-3.028-2.941-15.201.346v27.278c-2.25-6.2-7.932-10.727-12.46-15.427-10.874-15.023-34.469-18.31-46.208-2.48l-9.72-9.833-.029.029zm31.439 37.918c-.144-6.949 4.558-12.457 11.451-12.457.722 7.18-4.182 13.437-11.364 13.351 0-.317-.058-.606-.058-.923l-.029.029zm-74.445-.26c-.837.375-1.356.952-2.481 1.096V39.994h12.865v22.607l-10.384-10.525v.029zM312.349 40.83c.115 7.122-4.759 13.12-12.028 12.86-.894-7.44 4.182-14.533 11.941-14.187.029.433.087.865.087 1.327zm88.781-14.446L368.825 100h-16.932l-11.912-12.053 11.191-24.193-21.604-48.904h17.134l11.537 11.534 4.788 11.909 9.317-23.443h17.248l11.538 11.534z"/></g><g fill="#f473f6"><path d="M27.662 67.474c-8.047 0-14.624-2.566-19.787-7.67C2.712 54.671.145 48.155.145 40.283s2.624-14.187 7.845-19.32 11.797-7.67 19.671-7.67c3.807 0 7.384.663 10.759 1.961a27.52 27.52 0 0 1 8.941 5.709c2.595 2.479 4.615 5.709 6.086 9.66 1.442 3.95 2.106 8.42 1.961 13.379H15.403c.288 2.826 1.529 5.219 3.75 7.122s5.336 2.855 9.345 2.855c2.279 0 4.355-.461 6.23-1.413 1.875-.923 3.115-2.105 3.75-3.489H54.89c-1.673 5.479-4.99 9.89-9.98 13.293s-10.73 5.075-17.248 5.075v.029zm-.404-41.724c-2.971 0-5.451.75-7.413 2.278s-3.317 3.518-4.009 6.027h22.21c-.75-2.826-2.163-4.931-4.211-6.286s-4.24-2.018-6.605-2.018h.029zm37.901 40.571V14.418H80.85v5.306c2.971-4.296 7.788-6.43 14.422-6.43 6.288 0 11.22 2.105 14.797 6.344 3.577 4.21 5.336 9.804 5.336 16.724V66.35H99.714V39.043c0-7.67-2.798-11.534-8.422-11.534-3.115 0-5.653 1.153-7.586 3.431s-2.913 5.68-2.913 10.179V66.35H65.102l.058-.029zm88.348.634c-6.086 0-11.105-1.672-14.998-5.046-3.923-3.345-5.856-8.218-5.856-14.591V27.999H122.27V14.418h10.383V0h15.691v14.418h14.538v13.61h-14.538v16.09c0 3.114.693 5.363 2.077 6.747s3.634 2.076 6.749 2.076c2.366 0 4.269-.317 5.712-.923v13.898c-2.279.692-5.394 1.038-9.346 1.038h-.029zm19.21-.634V14.418h15.691v7.785c.836-2.364 2.394-4.354 4.672-5.969a13 13 0 0 1 7.673-2.451c1.788 0 3.49.202 5.076.634v15.888c-2.422-.836-4.73-1.24-6.951-1.24-3.317 0-5.913 1.153-7.73 3.489-1.846 2.307-2.74 5.392-2.74 9.198V66.35h-15.691v-.029zm83.386-6.69c-5.336 5.219-11.768 7.843-19.325 7.843s-13.989-2.624-19.325-7.843-7.99-11.649-7.99-19.262 2.654-14.043 7.99-19.262 11.768-7.843 19.325-7.843 13.989 2.624 19.325 7.843 7.99 11.649 7.99 19.262-2.654 14.043-7.99 19.262zm-27.574-10.236c2.192 2.278 4.932 3.431 8.249 3.431s6.086-1.153 8.249-3.431 3.26-5.306 3.26-9.025-1.097-6.747-3.26-9.025-4.932-3.431-8.249-3.431-6.086 1.153-8.249 3.431-3.26 5.306-3.26 9.025 1.096 6.747 3.26 9.025zm60.889 38.638h-15.691V14.418h15.691v5.19c1.096-1.672 2.942-3.143 5.509-4.412s5.422-1.932 8.624-1.932c6.721 0 12.403 2.653 17.075 7.987s7.01 11.707 7.01 19.089-2.337 13.783-7.01 19.089c-4.672 5.334-10.354 7.987-17.075 7.987-3.173 0-6.057-.634-8.624-1.932-2.567-1.269-4.385-2.739-5.509-4.412v26.874.087zm2.019-38.408c2.192 2.422 5.047 3.633 8.566 3.633s6.375-1.211 8.567-3.633 3.259-5.507 3.259-9.227-1.096-6.805-3.259-9.227c-2.192-2.422-5.048-3.633-8.567-3.633s-6.374 1.211-8.566 3.633-3.26 5.507-3.26 9.227 1.096 6.805 3.26 9.227zm65.389 38.409h-16.931l10.787-24.712-21.604-48.904h17.133l12.865 32.065 12.777-32.065h17.249l-32.305 73.587.029.029z"/></g></g><defs><clipPath id="A"><path fill="#fff" d="M0 0h401.13v100H0z"/></clipPath></defs></svg>