<svg xmlns="http://www.w3.org/2000/svg" width="476" height="100" fill="none" xmlns:v="https://vecta.io/nano"><path fill="#fff" d="M0 0h475.156v100H0z"/><path d="M183.652 43.587V1.035h18.26v97.294h-18.26v-5.495c-.512.248-.72.295-.855.421-6.848 6.332-15.009 7.924-23.8 5.798-11.593-2.798-18.569-10.616-21.434-21.847-2.908-11.394-.953-22.014 6.891-31.166 8.249-9.627 22.801-12.354 33.675-6.316 1.815 1.006 3.433 2.382 5.523 3.863zm.605 25.452c.013-3.109-.376-5.47-1.325-7.675-2.226-5.18-6.137-8.344-11.817-8.954-5.358-.576-9.921 1.195-13.155 5.567-3.809 5.15-4.254 10.868-2.082 16.763 2.996 8.133 12.473 11.782 20.215 7.797 5.756-2.958 7.873-8.083 8.164-13.498zm-78.558-25.517V38.11h18.12c.47 1.464.69 55.259.216 60.258-5.981.236-11.995.034-18.238.114v-5.794c-.754.585-1.181.879-1.567 1.22-4.109 3.635-8.973 5.47-14.403 5.87-14.831 1.082-25.667-8.533-29.332-19.847-3.987-12.316-2.425-23.862 6.167-33.952 8.169-9.585 22.678-12.265 33.493-6.312 1.878 1.031 3.538 2.445 5.544 3.854zM76.498 68.288c0 1.73.762 4.426 1.558 6.484 2.108 5.424 6.167 8.655 12.025 9.236 5.718.568 10.357-1.54 13.608-6.345 3.987-5.895 3.521-14.778-1.016-20.269-5.537-6.707-16.279-6.812-21.963-.223-2.743 3.181-4.211 6.911-4.211 11.117zm312.535 15.517h21.641v14.512h-61.487c-.484-1.49-.576-12.068-.078-14.546h21.338V15.687h-21.239c-.48-1.734-.601-11.563-.242-14.411 1.486-.442 37.54-.534 40.067-.055v82.585zm41.35-10.915c.388 4.418 2.326 7.679 5.677 9.938 5.281 3.564 10.996 3.572 16.756 1.241 2.226-.9 3.739-2.689 4.81-4.847h16.434c-.629 1.771-1.029 3.408-1.759 4.885-3.276 6.686-8.548 11.306-15.534 13.793-8.278 2.95-16.676 2.765-24.846-.387-9.099-3.509-14.809-10.225-17.381-19.553-1.935-7.014-1.842-13.995.652-20.882 4.371-12.084 15.858-20.264 28.771-20.508 7.769-.147 14.78 1.893 20.678 7.098 5.151 4.548 8.056 10.372 9.536 16.965.88 3.917 1.196 7.881.825 12.177-2.955.156-5.885.055-8.815.076l-8.886.004h-8.887-8.89-9.141zm26.876-11.449c0-.353.058-.636-.008-.884-.863-3.269-2.635-5.92-5.711-7.456-4.91-2.449-9.836-2.255-14.521.56-2.909 1.746-4.868 4.35-5.948 7.784l26.188-.004zm-112.223-.652h-18.34c-.165-.248-.364-.463-.457-.711-2.36-6.29-9.913-9.635-17.328-6.383-4.127 1.809-6.696 5.062-7.849 9.362-1.572 5.9-.874 11.441 3.179 16.225 5.059 5.967 14.575 6.308 19.68.72 1.112-1.22 1.864-2.765 2.911-4.342h18.323c-.079.677-.09 1.284-.229 1.864-2.09 8.592-7.378 14.702-15.106 18.754-13.075 6.858-29.807 3.783-39.667-7.166-13.439-14.92-9.516-38.441 8.054-48.271 13.294-7.439 29.771-5.121 40.031 5.643 3.379 3.543 5.572 7.717 6.705 12.455.08.341.149.686.183 1.035.021.194-.038.4-.09.816zm-106.822-8.181H216.87V38.104h39.997l.095 2.394.004 40.596v2.605h21.323c.539 1.574.665 11.849.213 14.63h-61.42c-.437-1.553-.571-11.117-.183-14.488 2.315-.177 4.691-.059 7.056-.08l6.985-.004h7.14c.521-1.532.651-28.309.134-31.15zM49.23 38.097v14.534l-10.129.025H28.74 18.395v45.409c-1.735.488-15.932.576-18.395.16V38.097h49.23zm196.711-14.336c-6.818.013-12.139-5.213-12.127-11.903C233.827 5.289 239.115.055 245.792 0c6.812-.055 12.186 5.146 12.216 11.815.033 6.724-5.231 11.933-12.067 11.946z" fill="#28333d"/></svg>