<svg width="94" height="45" viewBox="0 0 94 45" fill="none" xmlns="http://www.w3.org/2000/svg">
<g clip-path="url(#clip0_2652_15)">
<g clip-path="url(#clip1_2652_15)">
<path d="M61.677 34.9731L51.989 11.4731C51.9129 11.2588 51.8727 11.0335 51.87 10.8061C51.8519 10.3253 52.0228 9.85649 52.346 9.50008C52.5122 9.32995 52.7128 9.19732 52.9344 9.11109C53.1561 9.02485 53.3936 8.98701 53.631 9.00008C53.9908 9.00477 54.3402 9.12113 54.631 9.33308C54.9358 9.55962 55.1741 9.86389 55.321 10.2141L64.533 33.2141L73.745 10.2141C73.8919 9.86389 74.1302 9.55962 74.435 9.33308C74.7258 9.12113 75.0752 9.00477 75.435 9.00008C75.6725 8.98701 75.91 9.02485 76.1316 9.11109C76.3532 9.19732 76.5538 9.32995 76.72 9.50008C77.044 9.85724 77.2149 10.3273 77.196 10.8091C77.1933 11.0365 77.1531 11.2618 77.077 11.4761L67.389 34.9761C67.2231 35.4929 66.9 35.9451 66.4647 36.2694C66.0294 36.5937 65.5037 36.774 64.961 36.7851H64.104C63.5611 36.7736 63.0354 36.5927 62.6002 36.2679C62.1651 35.943 61.8423 35.4903 61.677 34.9731Z" fill="#1F774D"/>
<path d="M81.315 36.0669C81.1505 35.9013 81.0214 35.7041 80.9355 35.4872C80.8495 35.2702 80.8085 35.0381 80.815 34.8049V10.9989C80.8062 10.5211 80.9858 10.0592 81.315 9.71286C81.476 9.54083 81.6718 9.40518 81.8895 9.31498C82.1071 9.22478 82.3415 9.18212 82.577 9.18986H98.315C98.5375 9.18365 98.7588 9.22505 98.964 9.31128C99.1692 9.39751 99.3537 9.52658 99.505 9.68986C99.6664 9.84261 99.7942 10.0273 99.8803 10.2322C99.9664 10.4371 100.009 10.6576 100.005 10.8799C100.011 11.099 99.9697 11.3168 99.8833 11.5183C99.797 11.7198 99.6679 11.9002 99.505 12.0469C99.3477 12.2005 99.1616 12.3216 98.9574 12.4033C98.7532 12.485 98.5349 12.5256 98.315 12.5229H84.386V21.1899H96.907C97.1295 21.1837 97.3507 21.2251 97.556 21.3114C97.7612 21.3976 97.9456 21.5266 98.097 21.6899C98.2565 21.844 98.3831 22.029 98.4691 22.2336C98.555 22.4381 98.5985 22.658 98.597 22.8799C98.6032 23.099 98.5616 23.3168 98.4753 23.5183C98.389 23.7198 98.2599 23.9002 98.097 24.0469C97.9396 24.2005 97.7536 24.3217 97.5494 24.4033C97.3452 24.485 97.1269 24.5256 96.907 24.5229H84.386V33.2359H98.315C98.5375 33.2297 98.7588 33.271 98.964 33.3573C99.1692 33.4435 99.3537 33.5726 99.505 33.7359C99.6664 33.8886 99.7942 34.0733 99.8803 34.2782C99.9664 34.4831 100.009 34.7037 100.005 34.9259C100.011 35.145 99.9697 35.3628 99.8833 35.5643C99.797 35.7658 99.6679 35.9462 99.505 36.0929C99.3477 36.2465 99.1616 36.3677 98.9574 36.4493C98.7532 36.531 98.5349 36.5716 98.315 36.5689H82.577C82.3424 36.5861 82.1069 36.5499 81.8883 36.4629C81.6697 36.376 81.4737 36.2405 81.315 36.0669Z" fill="#1F774D"/>
<path d="M54.178 34.306L44.49 10.806C44.3236 10.2897 44.0002 9.83823 43.565 9.51449C43.1297 9.19075 42.6043 9.01089 42.062 9H41.205C40.6623 9.0111 40.1366 9.1914 39.7013 9.51571C39.2661 9.84002 38.9429 10.2922 38.777 10.809L34.564 21.046H31.374C30.9139 21.0486 30.4733 21.2326 30.148 21.5579C29.8226 21.8833 29.6386 22.3239 29.636 22.784V22.808C29.6386 23.2681 29.8226 23.7087 30.148 24.0341C30.4733 24.3594 30.9139 24.5434 31.374 24.546H33.088L29.065 34.307C28.9889 34.5213 28.9487 34.7466 28.946 34.974C28.9271 35.4558 29.098 35.9258 29.422 36.283C29.5882 36.4531 29.7888 36.5858 30.0104 36.672C30.2321 36.7582 30.4696 36.7961 30.707 36.783C31.0668 36.7783 31.4162 36.662 31.707 36.45C32.0118 36.2235 32.2501 35.9192 32.397 35.569L36.825 24.547H39.872C40.3321 24.5444 40.7727 24.3604 41.0981 24.0351C41.4234 23.7097 41.6074 23.2691 41.61 22.809V22.76C41.6074 22.2999 41.4234 21.8593 41.0981 21.5339C40.7727 21.2086 40.3321 21.0246 39.872 21.022H38.23L41.63 12.571L50.842 35.571C50.9889 35.9212 51.2272 36.2255 51.532 36.452C51.8228 36.664 52.1722 36.7803 52.532 36.785C52.7695 36.7981 53.007 36.7602 53.2286 36.674C53.4502 36.5878 53.6508 36.4551 53.817 36.285C54.141 35.9278 54.3119 35.4578 54.293 34.976C54.3038 34.747 54.2646 34.5183 54.178 34.306Z" fill="#1F774D"/>
<path d="M25.233 34.306L15.545 10.806C15.3786 10.2897 15.0552 9.83823 14.62 9.51449C14.1847 9.19075 13.6593 9.01089 13.117 9H12.26C11.7173 9.0111 11.1916 9.1914 10.7563 9.51571C10.321 9.84002 9.99788 10.2922 9.83198 10.809L5.61898 21.046H2.42898C1.96885 21.0486 1.5283 21.2326 1.20293 21.5579C0.877565 21.8833 0.693612 22.3239 0.690987 22.784V22.808C0.693612 23.2681 0.877565 23.7087 1.20293 24.0341C1.5283 24.3594 1.96885 24.5434 2.42898 24.546H4.14298L0.119987 34.306C0.0438854 34.5203 0.00367831 34.7456 0.000986755 34.973C-0.0178993 35.4548 0.153014 35.9248 0.476987 36.282C0.643153 36.4521 0.843777 36.5848 1.0654 36.671C1.28702 36.7572 1.52453 36.7951 1.76198 36.782C2.12177 36.7773 2.47121 36.661 2.76198 36.449C3.06677 36.2225 3.30508 35.9182 3.45198 35.568L7.87998 24.546H10.951C11.4111 24.5434 11.8517 24.3594 12.1771 24.0341C12.5024 23.7087 12.6864 23.2681 12.689 22.808V22.76C12.6864 22.2999 12.5024 21.8593 12.1771 21.5339C11.8517 21.2086 11.4111 21.0246 10.951 21.022H9.30798L12.688 12.571L21.9 35.571C22.0469 35.9212 22.2852 36.2255 22.59 36.452C22.8808 36.664 23.2302 36.7803 23.59 36.785C23.8275 36.7981 24.065 36.7602 24.2866 36.674C24.5082 36.5878 24.7088 36.4551 24.875 36.285C25.199 35.9278 25.3699 35.4578 25.351 34.976C25.3608 34.7467 25.3206 34.5181 25.233 34.306Z" fill="#1F774D"/>
</g>
</g>
<defs>
<clipPath id="clip0_2652_15">
<rect width="94" height="45" fill="white"/>
</clipPath>
<clipPath id="clip1_2652_15">
<rect width="95" height="29" fill="white" transform="translate(0 8)"/>
</clipPath>
</defs>
</svg>
