<svg width="601" height="594" viewBox="0 0 601 594" fill="none" xmlns="http://www.w3.org/2000/svg">
<path d="M0.750249 326.937C50.5893 704.994 593.628 670.686 601 293.469C581.161 -118.909 -24.1969 -86.584 0.750249 326.937ZM572.505 215.616C572.96 215.713 573.319 216.002 573.499 216.429C574.99 219.733 575.445 223.409 576.177 226.933C578.013 237.231 580.678 247.542 580.899 258.046C580.857 258.859 580.761 259.74 580.457 260.497C576.771 256.408 575.694 245.67 574.576 240.094C573.747 235.083 573.071 230.003 572.077 225.019C571.525 221.908 570.531 218.824 570.323 215.671C571.014 215.451 571.787 215.437 572.491 215.616H572.505ZM570.02 322.008C570.489 333.71 568.115 345.467 563.213 356.109C560.604 361.409 557.719 368.334 551.686 370.344C548.386 371.377 544.921 369.683 542.864 367.095C535.008 358.036 540.158 333.972 544.755 323.839C547.64 317.479 550.995 310.995 556.145 306.162C560.756 302.073 565.795 301.179 568.156 307.98C569.619 312.468 569.826 317.327 570.034 322.008H570.02ZM88.6243 288.981C96.1485 291.817 102.817 297.31 106.572 304.441C109.195 309.494 110.217 315.221 111.211 320.783C111.735 324.266 112.163 327.942 111.169 331.384C109.913 337.62 93.2631 336.877 88.3758 335.899C83.9442 335.087 79.1259 333.531 76.5442 329.594C73.4931 324.665 73.1756 318.594 72.8029 312.949C72.5405 307.098 72.4439 301.165 73.3275 295.355C74.4181 286.228 81.5419 286.407 88.6519 288.995L88.6243 288.981ZM79.2778 228.984C81.7352 217.668 84.3169 206.035 90.2396 195.957C93.3597 190.932 101.215 179.45 108.022 183.938C111.721 186.637 113.42 191.29 114.372 195.613C116.912 209.683 108.242 227.91 102.485 240.672C100.856 244.114 99.0615 247.735 97.2944 251.122C93.7877 257.551 85.1315 274.691 77.345 275.159C69.6275 274.305 78.1319 235.262 79.264 228.984H79.2778ZM80.5755 350.533C87.9202 345.894 100.622 349.184 106.517 355.049C112.398 360.831 114.372 369.243 116.291 376.98C117.216 381.413 118.238 386.066 117.575 390.609C117.479 391.697 116.471 392.289 115.559 392.674C110.051 394.616 103.894 394.065 98.2332 393.087C91.7168 391.876 85.6561 388.957 82.9087 382.583C80.4099 377.242 79.3468 371.349 78.3942 365.581C77.8558 361.024 76.3924 353.7 80.5893 350.533H80.5755ZM105.026 284.176C98.6198 277.362 103.176 265.88 106.172 258.377C108.947 252.374 116.609 235.386 125.113 240.906C129.089 243.756 131.243 248.52 132.706 253.063C135.081 261.144 134.543 270.616 129.365 277.527C124.45 284.328 112.37 290.702 105.026 284.19V284.176ZM244.603 71.9849C252.541 63.0776 265.311 61.6458 276.508 60.1727C280.277 59.7735 284.073 59.2641 287.87 59.209C289.913 59.2228 292.661 59.1264 293.13 61.6733C294.193 71.2965 270.999 82.6681 263.365 86.5642C256.324 89.7856 248.8 93.3375 240.889 93.0209C237.852 92.8144 237.23 90.2675 237.41 87.6655C237.921 81.8558 240.82 76.3628 244.603 71.9986V71.9849ZM238.266 50.4394C238.266 50.4394 238.487 50.3155 238.5 50.3155C242.38 48.5809 246.729 47.9751 250.898 47.3143C256.848 46.626 263.503 45.855 268.928 48.9388C265.629 50.7285 261.68 51.0865 258.036 51.7335C251.533 52.532 244.382 53.3993 238.28 50.4532L238.266 50.4394ZM524.723 189.858C518.648 190.244 512.38 189.404 506.554 187.972C500.356 186.513 498.009 183.801 497.235 177.619C496.697 171.521 496.2 161.76 498.809 156.308C500.521 152.674 505.16 153.486 508.225 154.739C515.763 157.726 520.498 164.844 524.681 171.424C527.36 175.995 529.872 180.951 530.48 186.279C530.811 189.335 526.959 189.624 524.737 189.872L524.723 189.858ZM535.961 209.889C538.473 213.648 539.73 218.108 540.779 222.445C541.607 226.162 542.408 229.934 542.822 233.706C543.485 240.191 543.043 244.211 535.726 245.505C527.981 246.799 519.891 246.152 512.298 244.293C506.968 242.958 506.154 240.59 505.022 235.606C503.545 228.516 503.213 221.165 503.13 213.937C502.937 205.608 508.86 201.519 516.715 201.505C523.798 201.547 531.75 203.791 535.947 209.876L535.961 209.889ZM497.042 258.432C496.379 264.971 495.579 271.593 494.64 278.105C492.735 289.394 490.484 310.471 483.153 318.938C475.229 327.598 467.263 313.996 464.709 307.181C461.382 298.756 459.476 289.656 459.711 280.583C459.891 267.133 466.876 254.316 477.037 245.697C481.814 241.65 490.07 238.126 495.758 242.228C498.851 245.202 497.277 254.329 497.042 258.432ZM384.318 226.437C371.243 220.173 358.045 212.932 348.063 202.249C343.273 196.948 339.808 190.271 338.993 183.126C338.758 180.731 338.51 178.198 339.186 175.843C341.409 169.456 350.811 169.469 356.471 169.139C371.658 169.084 387.451 171.342 400.954 178.638C414.331 186.127 426.232 199.261 420.875 215.52C419.923 218.645 418.528 221.688 416.927 224.537C415.726 226.658 414.373 228.833 412.468 230.402C405.261 236.184 391.759 229.562 384.318 226.451V226.437ZM416.803 306.919C419.136 314.257 419.384 322.118 419.674 329.759C419.702 336.436 420.075 343.306 418.57 349.859C417.258 355.765 411.598 357.706 406.214 358.477C399.283 359.551 390.806 357.692 388.708 350.093C386.402 340.718 388.998 330.847 391.414 321.733C392.366 318.47 393.498 315.097 394.769 311.944C396.826 307.236 398.938 301.66 403.77 299.155C405.758 298.274 408.091 298.343 410.134 299.003C413.627 300.187 415.684 303.602 416.83 306.919H416.803ZM359.867 227.869C371.63 233.39 383.158 240.438 391.745 250.309C398.289 258.033 401.989 268.165 401.727 278.298C401.506 282.689 401.064 287.577 398.192 291.115C393.94 295.713 385.588 294.86 379.803 294.983C364.575 294.46 346.089 292.354 336.052 279.551C328.556 269.129 327.493 255.5 328.293 243.068C328.942 237.107 329.329 230.485 333.001 225.474C338.855 218.273 352.923 224.978 359.867 227.855V227.869ZM187.888 342.783C189.145 334.041 192.996 324.803 202.039 321.788C208.417 319.392 219.863 318.966 225.606 322.972C228.947 325.835 227.539 330.792 226.834 334.536C224.211 345.371 219.531 362.69 210.999 370.083C205.629 374.667 197.069 374.681 191.45 370.523C187.543 367.04 187.336 361.217 187.046 356.343C186.908 351.828 187.198 347.229 187.888 342.769V342.783ZM165.178 273.961C142.909 275.985 142.481 261.089 152.918 245.904C158.22 238.676 167.18 229.026 177.051 233.059C183.705 235.978 188.164 243.068 188.606 250.213C189.076 263.567 177.838 272.846 165.178 273.961V273.961ZM243.664 351.47C251.091 351.332 257.829 355.737 263.185 360.487C275.721 371.735 281.657 389.687 278.634 406.194C275.61 422.865 262.454 428.001 246.908 427.588C241.455 427.298 233.862 427.395 230.286 422.631C226.158 416.216 225.84 403.908 225.689 396.295C225.799 383.987 227.47 352.557 243.678 351.47H243.664ZM274.092 350.41C266.581 346.734 259.513 342.053 252.886 336.959C247.709 332.623 237.368 325.326 240.433 317.603C242.808 311.476 248.634 307.415 254.722 305.433C264.179 302.514 274.824 301.936 284.211 305.336C290.217 307.443 294.621 312.647 296.278 318.704C298.942 327.322 298.556 343.306 293.102 350.726C288.257 356.687 279.794 353.094 274.078 350.41H274.092ZM287.511 294.419C278.261 293.235 264.014 291.39 259.264 282.332C253.01 268.702 269.467 250.764 279.421 242.751C292.44 232.288 309.31 226.589 313.935 247.983C316.089 257.744 316.227 267.945 315.247 277.857C314.46 283.35 313.894 290.385 308.482 293.373C303.015 296.002 293.586 294.86 287.511 294.419V294.419ZM294.718 194.608C296.996 188.096 303.388 184.475 310.001 183.746C324.027 182.107 334.865 188.922 330.999 204.135C329.66 209.449 326.154 214.185 321.308 216.814C315.454 219.953 308.068 221.316 301.745 218.838C292.743 215.024 291.722 202.744 294.732 194.608H294.718ZM314.239 302.569C317.318 299.003 322.509 298.824 326.885 298.59C340.567 298.439 359.895 299.251 370.36 308.971C378.726 317.451 376.462 331.604 370.111 340.621C365.652 347.202 358.017 351.112 350.134 351.511C339.159 352.13 327.617 348.496 319.499 340.993C313.245 335.046 310.429 326.248 310.47 317.768C310.636 312.605 311.022 306.837 314.239 302.583V302.569ZM325.449 171.314C314.515 174.425 303.015 175.265 291.708 175.843C282.072 175.926 269.136 177 263.779 167.17C258.905 157.905 259.182 141.481 262.136 131.569C263.572 126.778 267.272 125.456 271.883 125.029C276.466 124.589 281.174 124.547 285.785 124.52C311.602 124.823 331.193 127.315 333.899 157.423C334.63 165.656 333.899 168.781 325.449 171.314ZM264.676 180.896C272.035 182.121 277.267 187.27 278.951 194.47C281.395 204.465 279.573 215.258 275.238 224.482C272.67 229.796 269.191 234.739 265.104 239.007C261.032 243.027 255.744 247.969 249.752 248.299C245.817 248.299 243.319 244.692 241.717 241.526C239.204 236.418 237.575 230.857 236.126 225.377C234.414 218.604 233.102 211.61 232.674 204.63C232.094 196.053 233.227 185.838 242.545 182.507C249.559 179.987 257.373 179.698 264.676 180.91V180.896ZM234.441 254.866C246.48 261.557 246.811 281.726 242.697 293.249C240.999 298.012 237.451 302.073 232.84 304.207C225.564 307.539 217.226 308.103 209.329 307.608C203.254 307.016 196.117 305.777 192.486 300.353C187.861 292.753 190.939 282.442 193.687 274.636C196.862 266.527 201.68 258.143 209.826 254.205C217.488 250.612 227.028 250.764 234.455 254.866H234.441ZM220.111 234.863C214.147 243.811 201.653 236.79 195.481 231.517C185.127 222.61 180.309 210.812 189.034 198.834C195.316 190.106 207.216 185.26 214.326 195.902C220.139 204.41 225.357 225.529 220.111 234.863ZM182.366 185.191C177.727 197.527 170.52 208.871 162.002 218.907C158.855 222.527 155.445 226.052 151.634 228.957C148.031 231.655 143.516 234.312 138.85 233.211C131.988 231.325 127.971 224.248 126.162 217.805C124.299 210.936 126.342 203.57 130.263 197.788C138.284 185.852 161.74 168.478 175.739 165.023C178.542 164.403 182.407 163.839 184.202 166.633C186.88 171.603 184.092 180.111 182.366 185.191V185.191ZM165.081 287.164C177.644 289.243 181.358 297.475 182.283 309.164C182.766 314.891 182.849 320.755 182.311 326.482C181.814 332.746 179.632 340.291 172.895 342.301C159.296 346.348 126.756 329.002 120.944 316.295C117.603 309.797 119.19 302.569 124.395 297.558C134.059 288.141 152.09 285.071 165.081 287.164V287.164ZM182.366 409.195C183.401 402.022 185.693 394.423 191.133 389.343C194.998 385.777 201.114 384.91 205.698 387.581C214.506 392.674 215.569 407.97 212.711 416.753C210.309 424.49 202.495 428.744 194.998 430.396C188.137 432.131 184.506 430.809 182.891 423.581C181.827 418.887 181.772 413.972 182.366 409.209V409.195ZM206.94 442.071C209.163 437.624 214.036 435.366 218.661 434.196C221.409 433.521 224.322 432.929 227.152 433.439C233.572 434.746 238.059 440.143 242.269 444.755C247.764 451.115 252.803 457.958 257.207 465.117C269.287 484.845 265.422 492.499 241.897 491.618C231.97 491.343 219.614 490.82 215.003 480.398C210.488 471.422 202.246 451.46 206.926 442.071H206.94ZM257.732 442.181C257.138 434.471 271.717 436.357 276.563 436.922C282.431 437.761 288.284 439.235 293.82 441.382C299.688 443.75 305.707 446.793 309.628 451.914C314.198 458.013 312.265 464.497 304.837 466.686C295.463 469.192 285.136 467.25 276.549 462.996C269.301 459.211 259.154 450.551 257.746 442.181H257.732ZM307.792 434.967C299.039 429.405 294.98 419.327 293.655 409.429C292.081 398.346 292.177 386.892 294.29 375.892C296.485 364.383 302.131 360.225 313.797 360.556C327.051 360.845 361.082 367.274 364.534 382.101C367.378 393.803 354.98 410.847 348.381 420.167C344.667 425.137 340.719 430.052 336.301 434.416C332.753 437.899 328.252 441.437 322.978 440.831C317.594 440.088 312.362 437.899 307.806 434.967H307.792ZM361.869 424.049C368.482 416.285 378.381 411.563 388.542 410.861C403.535 409.759 420.254 415.652 420.558 432.998C420.613 434.389 420.558 436.041 420.447 437.431C419.702 444.37 417.631 451.776 412.509 456.787C407.498 461.523 400.015 461.482 393.609 460.394C382.771 458.357 371.685 455.053 362.739 448.431C353.434 441.506 355.022 432.131 361.883 424.063L361.869 424.049ZM393.775 396.474C388.804 394.712 383.268 392.523 380.479 387.773C377.415 382.473 381.128 376.691 386.167 374.364C389.785 372.588 393.871 371.776 397.861 371.501C405.427 371.06 413.862 372.478 419.205 378.288C422.573 381.867 424.686 386.479 426.066 391.146C426.632 393.363 427.544 395.8 426.77 398.057C424.644 404.473 398.924 398.346 393.775 396.474V396.474ZM425.417 295.052C419.812 295.231 416.996 292.698 415.505 287.453C414.069 282.332 413.669 276.921 413.379 271.635C413.13 265.673 413.199 259.63 414.014 253.71C414.677 249.979 415.643 243.316 420.13 242.545C425.818 242.201 432.5 249.635 436.076 253.6C443.213 261.901 451.759 276.012 445.836 286.888C441.653 293.235 432.527 294.901 425.404 295.08L425.417 295.052ZM430.236 318.429C430.691 310.526 435.013 301.289 444.428 303.643C450.751 305.364 455.224 311.765 455.473 318.181C455.763 325.147 449.426 330.186 443.324 332.182C432.652 335.61 429.628 327.515 430.236 318.429V318.429ZM433.259 227.263C430.18 212.643 441.004 205.415 454.617 207.618C466.614 209.394 472.675 217.406 470.024 229.37C468.188 236.377 464.032 243.742 457.24 246.936C446.817 251.342 435.247 236.239 433.273 227.263H433.259ZM494.336 223.945C492.431 230.168 487.544 228.915 483.844 224.992C481.221 222.142 479.868 218.397 478.777 214.763C477.728 211.211 476.817 207.549 476.168 203.901C475.395 198.972 474.815 193.878 475.312 188.881C475.698 185.646 477.493 182.837 481.096 183.057C483.678 183.209 486.301 184.021 488.4 185.549C489.794 186.651 490.636 188.303 491.409 189.858C493.673 194.443 494.364 199.619 494.681 204.658C494.902 208.155 495.026 211.762 495.095 215.272C495.137 218.15 495.192 221.151 494.322 223.932L494.336 223.945ZM481.069 171.424C477.534 171.121 474.359 169.084 471.75 166.798C465.648 161.058 457.047 148.571 465.082 141.261C470.424 136.676 477.258 141.426 481.014 145.776C484.7 150.016 486.122 155.744 486.274 161.237C486.274 164.857 486.149 171.727 481.055 171.41L481.069 171.424ZM464.833 191.689C463.245 195.351 458.455 195.461 455.003 195.379C448.156 194.966 441.474 192.681 435.468 189.445C425.859 184.035 417.534 176.312 411.046 167.432C408.533 163.88 406.324 159.97 405.164 155.757C400.581 139.085 421.773 142.5 431.437 145.611C437.939 147.621 444.249 150.76 448.915 155.812C455.418 162.269 467.788 182.617 464.847 191.676L464.833 191.689ZM447.949 138.796C438.229 141.343 429.67 133.303 424.989 125.621C421.662 120.417 410.59 99.5602 422.118 98.5552C429.104 98.0734 435.813 101.501 441.059 105.852C447.093 111.083 455.279 120.128 456.204 128.265C456.743 133.524 452.822 137.53 447.962 138.796H447.949ZM419.605 86.8533C408.643 86.9909 397.751 84.4303 387.603 80.424C378.823 76.762 366.508 71.916 364.216 61.6458C363.388 55.0652 374.681 57.6671 378.505 58.0251C387.162 59.3467 395.694 61.5494 404.129 63.8348C409.251 65.2528 414.4 66.7671 419.453 68.3779C422.919 69.5343 426.522 70.5531 429.697 72.3979C430.954 73.1688 432.155 74.2013 432.831 75.5367C433.245 76.6932 433.273 77.9735 433.259 79.185C433.149 86.1098 424.934 86.8395 419.591 86.867L419.605 86.8533ZM375.399 88.0785C388.777 91.658 399.504 101.735 405.855 113.782C408.409 118.779 411.805 125.291 411.253 131.004C410.659 134.997 404.06 132.574 401.561 131.899C392.919 128.925 384.897 124.272 377.359 119.165C370.567 114.25 362.988 108.715 360.351 100.414C357.534 89.9233 366.08 85.2838 375.399 88.0785V88.0785ZM371.092 128.416C376.614 132.161 382.081 136.249 386.444 141.329C391.483 147.318 394.12 154.339 384.249 156.721C373.383 159.158 356.789 157.203 348.091 149.879C340.498 143.16 338.772 131.114 342.141 121.877C346.503 112.019 365.238 124.768 371.078 128.43L371.092 128.416ZM342.886 102.672C340.001 107.944 334.865 110.753 329.149 112.047C322.882 113.534 316.338 114.002 309.918 114.263C300.875 114.497 291.68 114.346 282.776 112.611C262.688 108.165 265.394 98.6241 281.202 89.7856C289.361 85.2701 298.376 82.1862 307.571 80.6581C317.415 79.1437 327.714 78.7169 337.474 81.0023C349.858 83.9346 348.229 93.8056 342.886 102.672ZM279.683 39.1504C281.961 36.7687 285.081 35.3094 288.05 33.9603C295.229 30.8076 303.167 29.8302 310.953 30.0229C316.89 30.2707 323.047 30.312 328.79 32.0467C334.506 34.2494 335.749 37.7187 329.909 41.0503C326.692 42.7987 323.047 43.7762 319.513 44.6573C314.998 45.7449 310.374 46.626 305.79 47.3556C301.386 48.0302 296.913 48.6635 292.467 48.6222C288.781 48.6635 285.04 47.7824 282.085 45.4971C280.097 43.9964 277.281 41.6147 279.697 39.1642L279.683 39.1504ZM248.979 104.406C253.839 106.471 258.615 110.533 259.54 115.943C259.623 116.7 259.596 117.595 259.03 118.173C257.787 119.137 256.117 119.522 254.626 119.963C249.669 121.188 244.478 121.409 239.398 121.601C234.138 121.739 228.795 121.849 223.576 121.202C218.786 120.486 213.194 119.454 210.074 115.406C208.776 113.548 209.273 110.932 210.903 109.445C212.186 108.233 213.967 107.683 215.555 106.994C218.592 105.797 221.74 104.668 224.915 103.911C228.864 102.961 232.992 102.699 237.037 102.672C241.054 102.644 245.21 102.837 248.951 104.392L248.979 104.406ZM212.877 138.425C220.056 132.587 234.455 128.044 242.297 134.652C249.945 142.059 248.206 159.406 243.512 168.106C240.171 174.646 233.019 177.867 226.061 179.051C220.318 180.042 214.368 180.387 208.569 179.657C199.071 178.39 196.117 173.007 198.063 163.935C200.286 154.27 205.076 144.785 212.863 138.425H212.877ZM188.261 148.158C184.34 151.063 179.163 153.114 174.262 151.806C169.278 150.374 166.213 145.652 164.004 141.274C161.602 136.029 158.979 128.65 161.257 123.019C162.334 120.61 164.777 119.233 167.041 118.091C172.094 115.53 177.769 114.497 183.388 114.126C189.076 113.506 194.929 114.635 198.256 119.715C204.276 129.228 196.006 142.169 188.261 148.158ZM162.099 109.541C156.218 114.553 148.445 116.976 140.893 118.022C138.339 118.352 135.578 118.449 133.259 117.168C130.497 115.613 128.344 112.501 128.578 109.266C128.951 105.012 139.623 100.634 143.226 98.5552C148.238 96.0359 153.332 93.5027 158.703 91.7956C162.265 90.7356 166.779 89.8407 167.221 94.8794C167.621 100.111 165.937 105.838 162.099 109.541V109.541ZM145.67 130.935C152.159 138.879 154.092 150.98 149.356 160.232C145.049 168.299 135.398 176.835 126.273 178.638C119.812 179.74 117.106 174.935 117.023 169.166C116.995 162.365 119.784 155.895 122.628 149.837C125.514 143.697 137.594 121.436 145.67 130.922V130.935ZM118.818 341.654C118.928 340.635 119.149 339.644 120.447 339.781C123.097 339.96 125.693 341.02 128.178 341.902C139.223 346.183 149.977 351.387 160.428 356.963C166.655 360.625 178.928 366.324 180.599 373.731C181.013 375.727 180.599 377.806 180.088 379.747C176.347 394.932 165.73 396.557 152.269 392.234C139.803 388.228 128.344 379.816 123.76 367.205C121.662 361.891 120.364 356.219 119.536 350.575C119.163 347.642 118.638 344.627 118.831 341.667L118.818 341.654ZM146.554 403C156.121 407.061 169.913 412.967 170.783 424.807C170.921 432.186 162.624 435.215 156.494 436.123C149.329 437.39 141.307 435.972 136.227 430.451C131.685 425.633 129.448 419.203 127.35 413.063C125.928 408.479 124.078 403.743 124.285 398.87C128.716 396.199 141.763 401.182 146.567 403H146.554ZM174.193 442.442C176.443 441.809 178.804 441.245 181.137 441.396C187.957 442.084 191.354 451.487 193.77 456.939C195.44 461.399 202.081 478.36 193.411 478.36C183.912 477.975 175.781 471.188 170.907 463.451C168.56 459.624 166.337 455.342 166.241 450.758C166.103 446.242 170.272 443.53 174.179 442.456L174.193 442.442ZM201.818 489.553C206.623 490.2 211.427 491.412 215.666 493.821C218.095 495.019 220.139 496.905 221.409 499.314C224.405 504.945 226.862 511.154 227.359 517.555C227.746 523.406 223.852 523.558 219.145 523.145C213.443 522.553 207.838 521.135 202.302 519.689C199.099 518.822 195.758 517.803 193.19 515.587C189.642 512.351 187.736 507.712 186.176 503.279C181.413 488.149 189.172 487.681 201.805 489.539L201.818 489.553ZM217.585 533.002C221.077 533.236 224.639 533.69 228.105 534.145C234.124 534.902 240.199 536.223 245.597 539.087C246.411 539.472 246.867 540.257 247.06 541.097C247.488 542.68 247.598 544.415 247.198 546.012C245.196 552.992 234.055 549.688 228.933 548.586C222.596 546.92 215.873 544.47 211.814 539.059C207.479 533.291 212.739 532.616 217.571 533.016L217.585 533.002ZM245.541 527.247C241.303 522.787 235.877 509.295 239.757 503.788C244.202 498.474 258.781 502.205 264.552 504.243C273.678 507.629 282.306 513.012 288.823 520.267C302.256 535.976 277.916 532.919 268.666 532.506C264.828 532.217 260.935 531.832 257.124 531.391C253.079 530.854 248.551 530.304 245.555 527.261L245.541 527.247ZM284.805 501.613C278.841 496.395 271.565 484.969 282.762 481.141C292.219 478.154 309.462 479.641 316.793 486.8C319.803 489.539 321.294 493.945 319.416 497.744C316.434 503.678 309.849 507.519 303.443 508.634C296.512 509.708 289.83 506.074 284.791 501.613H284.805ZM308.33 523.861C314.985 515.724 328.349 507.45 338.565 504.903C344.764 503.527 351.432 503.417 352.771 511.071C354.235 519.483 351.97 529.546 345.841 535.728C340.222 540.945 332.09 541.909 324.745 542.501C321.446 542.68 318.05 542.598 314.778 542.047C311.754 541.469 308.441 540.601 306.287 538.261C302.836 533.869 305.196 527.77 308.33 523.861V523.861ZM338.096 490.861C330.061 487.158 325.988 478.209 324.552 469.907C323.82 465.447 323.185 453.91 328.984 452.768C330.986 452.368 333.112 452.685 335.1 453.07C338.178 453.704 341.271 454.667 344.267 455.645C352.578 458.398 360.834 461.592 368.745 465.351C374.612 468.407 383.31 472.248 385.85 478.705C386.513 480.687 385.919 482.89 384.663 484.514C381.17 488.823 375.233 489.815 370.098 490.944C368.013 491.343 365.804 491.673 363.692 491.935C355.505 492.747 345.855 494 338.082 490.861H338.096ZM364.244 524.315C365.762 515.297 368.275 503.719 378.298 500.787C386.885 498.185 396.122 499.465 404.861 500.622C412.233 501.93 425.141 503.802 429.835 509.942C432.141 513.108 431.299 517.679 428.966 520.598C426.218 523.544 421.938 524.287 418.225 525.389C406.89 528.266 395.5 531.074 384.193 534.062C380.314 535.067 376.338 536.127 372.444 537.091C369.904 537.641 367.24 538.467 364.63 538.151C362.394 538.151 363.982 526.077 364.244 524.301V524.315ZM422.38 492.596C415.809 491.728 404.087 490.021 399.904 484.556C397.654 481.196 400.07 476.956 402.569 474.451C405.91 471.147 410.535 469.618 414.911 468.187C422.56 465.805 431.105 464.001 439.099 465.516C442.067 466.232 444.815 467.842 446.982 469.99C450.061 473.088 452.56 477.466 451.869 481.94C450.765 486.992 445.491 489.842 440.977 491.467C435.013 493.394 428.551 493.229 422.38 492.582V492.596ZM445.519 452.919C443.02 453.924 440.369 454.888 437.649 454.943C433.577 455.149 431.906 450.937 431.34 447.564C429.877 438.698 430.885 429.598 431.782 420.718C432.79 414.234 433.121 405.753 439.32 401.94C446.554 398.044 464.405 395.152 471.046 400.866C477.01 406.538 473.945 417.978 471.805 424.875C468.795 434.21 462.873 442.621 454.617 448.045C451.787 449.973 448.694 451.597 445.546 452.905L445.519 452.919ZM435.206 378.921C430.885 374.254 427.903 366.008 427.916 359.675C428.096 354.911 432.03 351.552 435.772 349.184C443.531 344.118 470.369 331.975 478.805 335.417C485.997 338.529 484.769 350.465 483.871 356.853C482.836 363.061 480.82 369.339 477.01 374.419C468.436 386.025 445.546 390.031 435.206 378.921V378.921ZM496.103 398.071C500.604 394.147 506.982 391.229 513.029 392.578C516.922 393.528 517.323 397.424 516.784 400.797C516.177 404.927 514.893 409.016 513.057 412.761C510.102 418.914 505.036 423.815 499.375 427.533C497.125 429.006 494.695 430.313 492.224 431.374C490.526 432.048 488.703 432.792 486.853 432.75C484.506 432.585 484.631 429.116 484.548 427.381C485.003 417.579 488.745 404.872 496.117 398.057L496.103 398.071ZM510.71 379.692C499.113 380.435 495.537 372.809 496.02 362.442C496.587 353.7 498.754 343.953 505.767 338.074C509.454 335.101 514.451 333.352 519.187 334.371C526.338 335.83 527.567 343.113 527.456 349.322C527.401 354.98 526.656 360.652 525.786 366.228C525.137 369.752 524.585 373.827 521.699 376.292C518.593 378.618 514.52 379.389 510.724 379.706L510.71 379.692ZM506.375 311.022C503.365 301.688 504.718 291.418 506.913 282.042C509.315 272.116 515.059 260.924 526.186 259.189C533.324 257.964 541.442 261.185 544.603 267.931C548.731 277.43 548.124 289.711 544.672 299.334C542.256 305.832 538.391 312.123 532.537 316.061C523.674 322.105 510.503 322.82 506.389 311.008L506.375 311.022ZM567.756 282.304C567.7 284.713 567.783 291.872 563.835 290.399C557.581 286.971 557.305 277.596 556.034 271.345C554.668 263.085 553.025 254.784 553.025 246.386C553.08 242.187 552.693 237.85 553.563 233.72C553.977 232.192 555.537 230.196 557.277 231.091C563.71 234.009 565.45 256.89 566.444 263.925C567.107 270.01 567.797 276.164 567.769 282.29L567.756 282.304ZM546.978 184.696C550.512 191.689 552.845 199.261 555.317 206.668C556.131 209.229 557.028 211.83 557.829 214.405C558.285 216.002 558.837 217.64 558.878 219.32C555.952 219.747 552.887 218.273 550.885 216.195C548.289 213.166 547.074 209.187 545.487 205.594C544.217 202.455 542.919 199.261 542.077 195.971C540.986 191.538 540.337 186.967 539.757 182.452C539.661 181.364 539.481 180.097 540.241 179.203C540.448 178.955 540.751 178.693 541.11 178.762C543.94 179.492 545.639 182.314 546.978 184.709V184.696ZM530.991 142.073C534.042 145.749 536.679 149.796 539.053 153.94C540.862 157.148 542.601 160.479 543.374 164.1C543.554 164.981 543.72 165.917 543.692 166.826C543.692 167.074 543.333 167.156 543.154 167.253C540.047 168.148 536.541 166.578 534.111 164.678C524.681 156.019 518.082 141.605 515.997 129.091C521.644 132.546 526.697 137.062 531.004 142.073H530.991ZM513.885 110.629C515.625 112.983 517.281 115.502 518.786 117.994C513.084 113.658 508.073 108.481 503.697 102.809C501.322 99.8218 498.878 96.8068 497.153 93.3788C503.144 98.6654 509.108 104.172 513.871 110.615L513.885 110.629ZM502.523 122.221C504.194 126.833 505.671 131.61 506.347 136.47C506.582 138.879 506.899 142.238 503.448 141.99C496.076 141.426 489.366 137.557 483.416 133.413C473.641 126.709 465.675 117.802 458.331 108.605C454.769 104.172 451.179 99.6428 448.073 94.8932C446.416 92.2086 444.566 89.4139 443.903 86.2888C447.617 85.6968 451.524 87.2387 455.086 88.1749C461.313 90.1161 467.525 92.4702 473.531 95.0171C487.82 101.047 497.263 106.912 502.523 122.221ZM456.867 77.5605C451.649 75.3165 446.03 73.4166 441.556 69.8234C444.497 68.4743 447.949 69.3278 450.889 70.2502C456.108 72.0537 461.106 74.6006 465.993 77.1475C470.908 79.8183 475.919 82.5442 480.309 86.0135C472.371 83.6318 464.557 80.603 456.867 77.5467V77.5605ZM460.056 57.791C466.462 61.9624 472.771 66.3954 478.653 71.2827V71.3791C478.653 71.6957 478.667 72.0399 478.722 72.3566C470.714 68.433 462.79 64.2478 455.017 59.8699C450.655 57.378 446.402 54.5971 442.62 51.2792C441.184 49.9713 439.541 48.6359 438.851 46.7636C446.361 49.462 453.36 53.4819 460.056 57.791V57.791ZM407.87 52.1465C405.634 50.6735 403.356 48.7048 402.61 46.0477C405.91 45.0978 413.02 47.8512 416.416 48.9388C423.692 51.6509 431.313 54.4869 436.987 59.9525C430.374 61.9487 413.752 55.8774 407.884 52.1465H407.87ZM391.773 28.481C392.753 27.5586 393.885 26.5536 395.266 26.3609C398.648 26.3196 401.782 27.9991 404.792 29.3758C411.57 32.6937 418.501 35.929 424.7 40.2656C417.079 38.0215 409.693 34.9515 402.196 32.3358C398.648 31.0554 394.948 30.1606 391.386 28.9078C391.483 28.7976 391.662 28.6049 391.773 28.4948V28.481ZM351.404 15.9667C357.783 17.3435 364.258 18.5274 370.595 20.1382C374.184 21.1707 378.119 21.8728 381.266 23.9516C377.318 26.1131 372.5 25.287 368.261 24.5987C361.469 23.3459 355.022 20.3171 349.927 15.6363C350.314 15.7189 351.018 15.8841 351.404 15.9667V15.9667ZM345.385 32.143C350.852 32.0054 356.154 33.8364 361.483 34.7725C368.565 36.2869 375.772 37.3194 382.909 38.5998C385.187 39.1367 387.728 39.6185 389.439 41.3256C391.621 43.9414 391.096 46.7086 387.741 47.8375C385.436 48.5809 382.909 48.4432 380.521 48.3193C376.628 48.0715 372.652 47.6034 368.786 47.1491C363.374 46.5571 357.935 45.7449 352.73 44.1341C350.852 43.4595 348.409 43.1842 347.332 41.2843C346.448 39.7424 345.937 37.994 345.578 36.2594C345.344 34.9102 345.123 33.4922 345.371 32.143H345.385ZM349.002 53.2892C350.935 54.5282 351.556 57.0889 351.667 59.2503C351.46 69.1764 334.051 68.0337 327.079 67.8823C320.797 67.428 314.101 67.0838 308.399 64.1376C307.488 63.587 306.508 62.9261 305.956 62.0037C305.873 61.8385 305.749 61.6183 305.831 61.4255C306.48 60.0213 308.027 59.209 309.338 58.5207C313.576 56.552 318.27 55.5883 322.826 54.6384C328.321 53.5645 333.912 52.6697 339.504 52.2016C342.665 52.0089 346.103 51.8574 349.002 53.303V53.2892ZM291.114 12.2634C298.887 12.0569 306.701 12.1808 314.474 12.2634C327.714 12.346 332.78 11.1207 341.989 22.2996C335.569 22.4373 329.149 21.5699 322.757 21.1294C315.095 20.5236 307.35 20.1657 299.715 19.2158C291.667 18.1282 283.673 16.2834 275.9 13.9155C280.815 12.4974 286.048 12.4699 291.114 12.2634V12.2634ZM228.546 29.8439C234.58 26.6775 241.413 25.2182 248.082 24.0342C258.312 22.4235 269.329 22.0105 279.117 25.8102C270.433 32.1843 259.43 34.4834 249.034 36.5209C242.269 37.7875 235.436 38.8751 228.671 40.1141C225.316 40.7061 221.989 41.601 218.62 42.0966C220.083 36.9202 223.825 32.4046 228.56 29.8439H228.546ZM222.085 53.895C227.759 54.721 230.479 60.0075 230.258 65.3491C229.982 72.7696 227.359 79.9835 224.032 86.5504C220.387 93.6404 215.721 98.5002 208.031 101.075C202.274 103.305 196.241 104.971 190.07 105.576C187.874 105.687 185.362 106.375 183.332 105.205C177.948 101.722 177.796 92.1123 177.451 86.3163C177.354 83.439 177.368 80.5067 177.396 77.6293C177.451 75.0962 177.492 72.3428 178.956 70.1538C181.993 65.9411 189.269 63.9036 193.99 61.9487C200.272 59.6358 206.65 57.5157 213.015 55.4369C215.942 54.5558 218.993 53.537 222.085 53.8674V53.895ZM165.909 54.721C167.152 52.0226 169.25 49.6822 171.846 48.2229C176.374 45.7173 181.386 44.1892 186.176 42.2756C192.803 39.7975 199.43 36.9753 206.429 35.75C207.203 35.7087 208.197 35.4471 208.859 35.9427C208.128 40.183 203.585 44.4645 200.134 46.7912C192.845 51.4031 184.52 54.4732 176.084 56.2629C172.826 56.7998 169.319 57.2128 166.13 56.1528C165.399 55.9325 165.702 55.2579 165.896 54.7347L165.909 54.721ZM162.403 66.5469C164.349 66.7258 166.503 67.428 167.511 69.2177C167.842 69.9198 167.387 70.7183 167.11 71.3653C165.247 74.7658 161.754 76.9135 158.496 78.8408C152.904 81.8558 146.995 84.6643 140.728 85.9033C139.016 86.1374 136.282 86.4402 135.109 84.9121C134.529 83.2876 135.523 81.5254 136.462 80.2313C139.278 76.7482 143.213 74.2977 146.94 71.8885C151.593 69.1075 156.756 66.065 162.389 66.5469H162.403ZM146.195 55.6021C149.218 53.8261 152.435 52.1741 155.817 51.2241C151.275 57.0889 144.745 60.9712 138.684 65.0876C132.099 69.3553 125.417 73.8709 117.727 75.8672C126.715 68.4743 136.254 61.6458 146.208 55.6021H146.195ZM101.436 98.1698C105.909 93.7505 110.507 88.9183 116.581 86.7707C118.141 86.275 119.936 85.7794 121.482 86.5228C123.636 87.6104 125.044 89.8958 125.569 92.2086C126.107 94.3012 125.113 95.8707 123.567 97.2061C121.013 99.4914 118.003 101.24 114.924 102.713C111.694 104.241 108.339 105.59 104.998 106.857C101.243 108.151 97.1011 110.023 93.0698 109.101C93.2217 106.375 99.4205 100.4 101.45 98.1698H101.436ZM102.761 119.991C106.903 117.389 115.352 112.047 118.776 117.994C121.827 125.112 117.824 134.102 114.966 140.751C109.029 153.623 101.616 166 91.8549 176.38C87.2161 181.226 75.7159 193.741 68.5092 189.321C63.8705 186.086 62.6418 179.905 63.0559 174.591C64.0224 160.824 79.5953 142.899 88.6796 132.587C92.9318 127.989 97.5291 123.515 102.748 119.991H102.761ZM62.1448 241.939C57.8097 249.139 49.7195 255.885 41.2842 257.331C41.1185 255.637 41.4498 253.93 41.6431 252.251C41.9883 249.47 42.43 246.675 43.1341 243.963C45.067 236.432 48.9188 229.549 52.7982 222.872C56.2497 217.351 63.2492 204.561 69.4757 202.799C70.6077 204.272 70.6491 206.337 70.7734 208.113C70.732 218.852 67.5152 232.591 62.1586 241.939H62.1448ZM64.2432 291.28C63.76 294.075 63.76 297.833 60.7366 299.141C55.3247 301.192 48.2837 297.503 44.3076 293.882C41.367 291.239 40.0002 287.769 40.1935 283.846C40.2763 280.831 40.2763 277.637 41.4912 274.828C43.5069 270.451 47.7729 267.532 52.0527 265.618C55.5594 264.214 60.8746 262.59 63.8153 265.811C64.4641 266.623 64.5746 267.752 64.7126 268.743C64.9197 270.519 65.0026 272.433 65.0578 274.223C65.2511 279.895 64.9611 285.636 64.2432 291.266V291.28ZM44.9013 159.791C45.7158 157.189 46.8203 154.628 47.9524 152.164C52.4531 142.032 58.5552 135.01 67.4048 128.402C70.2488 126.213 73.217 124.079 76.1991 122.097C78.339 120.734 80.5341 119.275 82.9639 118.504C81.8733 122.193 79.4711 125.415 77.3588 128.581C73.4379 134.171 69.1719 139.677 65.0164 145.102C61.3992 149.769 57.7407 154.546 53.9303 159.061C51.8318 161.457 49.6919 164.018 46.9169 165.656C46.8479 165.615 46.7098 165.532 46.6546 165.491C44.5838 164.045 44.0177 162.131 44.9013 159.791V159.791ZM43.9763 191.703C45.7849 186.485 47.552 181.144 50.1061 176.229C53.1434 183.319 54.1098 191.497 52.1493 199C50.824 203.97 48.5322 208.705 45.9505 213.125C44.4181 215.616 42.8994 218.301 40.7181 220.297C40.5801 219.87 40.442 219.306 40.3592 218.879C38.661 209.71 41.0633 200.39 43.9763 191.703V191.703ZM39.7793 314.505C40.0278 311.6 39.9588 307.966 43.9763 308.572C50.4098 309.59 57.1056 314.161 61.0541 319.269C63.4563 322.435 64.616 326.345 65.5824 330.144C66.4522 333.628 67.2529 337.193 67.6947 340.759C68.1779 344.669 68.2193 348.675 67.9846 352.585C67.7913 354.14 67.9432 356.027 66.7697 357.252C62.7798 360.652 55.09 356.921 51.3762 354.416C43.1617 349.226 41.3946 339.327 40.5248 330.379C40.0554 325.119 39.517 319.805 39.7655 314.519L39.7793 314.505ZM24.6481 201.781C25.6283 197.595 27.8925 193.837 29.6597 189.955C32.3518 184.613 34.9197 179.092 38.5644 174.329C37.667 179.547 35.679 184.558 33.8152 189.5C31.8824 193.92 29.7011 200.693 24.5791 202.166L24.6481 201.794V201.781ZM12.499 260.827C12.43 256.986 13.3826 253.187 14.0729 249.428C16.3232 238.786 17.7176 227.745 21.9698 217.654C22.6877 216.263 24.1097 213.661 25.8907 213.785C29.2455 215.451 30.1981 222.266 31.054 225.653C33.0973 234.808 33.8014 245.395 27.6026 253.159C25.4351 255.926 23.1019 258.872 19.8023 260.318C17.5657 261.185 14.777 261.832 12.499 260.814V260.827ZM31.2749 294.915C31.2611 299.871 30.6261 304.841 30.1705 309.755C29.6597 313.018 29.7977 318.635 26.6638 320.521C24.8 318.993 24.4687 316.281 24.1235 314.037C23.4332 306.259 24.2063 298.356 24.869 290.606C25.9321 281.547 26.6914 271.758 31.9514 263.994C32.7107 268.73 31.6891 273.493 31.3578 278.215C30.8608 283.763 31.1783 289.366 31.2887 294.915H31.2749ZM21.1138 362.938C19.7056 359.441 18.753 355.71 17.9385 352.034C17.0411 347.835 16.3923 343.402 17.5796 339.203C18.3113 336.202 19.9956 332.967 23.3366 332.43C27.7821 331.852 29.1764 337.193 29.9496 340.566C30.8055 344.338 31.3578 348.221 31.9652 352.048C32.6141 356.632 33.5805 361.203 34.4089 365.76C34.754 368.376 35.5547 371.17 35.0025 373.8C32.9592 373.772 31.054 372.671 29.3145 371.721C25.8354 369.656 22.6601 366.737 21.1 362.938H21.1138ZM47.8971 424.435C42.361 419.74 37.8051 413.765 34.4641 407.323C30.419 399.09 27.8097 390.224 25.1175 381.482C25.2142 381.523 25.5179 381.661 25.6283 381.702C31.0402 384.18 36.4107 387.443 39.9036 392.372C45.8953 401.623 48.8497 413.449 47.8971 424.435V424.435ZM47.5106 371.143C47.483 370.014 47.1792 368.555 47.9938 367.646C48.6841 367.26 49.5815 367.439 50.327 367.522C57.078 368.899 64.2571 373.029 68.8682 378.123C71.3394 380.917 72.9133 384.4 74.3215 387.828C75.7021 391.256 77.0689 394.767 77.98 398.346C78.7808 401.513 79.264 404.803 79.5539 408.052C79.5953 408.699 79.6644 409.47 79.6367 410.117C79.6367 410.475 79.5815 410.861 79.3054 411.122C75.7297 414.344 67.1425 410.2 63.691 407.956C56.2221 403.33 53.4057 394.492 51.0449 386.521C49.6781 381.454 48.049 376.374 47.4968 371.129L47.5106 371.143ZM106.365 489.429C104.377 488.837 102.596 487.612 100.884 486.483C97.8742 484.432 94.9474 482.119 92.131 479.806C80.0095 470.197 70.5111 457.669 63.5806 443.915C61.2888 439.317 59.425 434.361 58.928 429.212C58.7209 426.431 58.4034 421.833 62.1586 421.516C67.0182 421.158 71.7398 423.237 76.0886 425.165C86.0979 429.68 93.5116 438.56 97.7362 448.527C100.953 456.168 102.831 464.359 104.542 472.454C105.536 478.016 107 483.757 106.379 489.443L106.365 489.429ZM106.71 436.096C100.332 433.136 95.0026 424.49 92.062 418.281C91.0956 416.12 90.2534 413.821 89.8254 411.48C89.6322 410.269 89.4113 408.92 89.8254 407.736C91.206 404.583 96.8112 404.886 99.7104 405.092C106.144 405.808 112.785 408.506 116.609 413.917C119.798 418.556 121.883 424.462 121.027 430.135C119.991 436.798 112.177 438.546 106.71 436.096V436.096ZM128.206 518.849C122.89 514.554 113.061 507.602 112.785 500.25C115.339 500.608 117.644 502.012 119.812 503.306C123.305 505.482 126.673 507.987 129.959 510.451C137.248 516.041 145.325 522.098 148.072 531.281V531.336C140.672 528.665 134.473 523.461 128.192 518.836L128.206 518.849ZM122.614 487.915C117.423 479.889 114.262 470.348 113.903 460.794C113.696 453.277 116.788 447.88 124.464 446.187C133.963 443.97 144.276 445.87 151.082 453.208C154.851 457.118 157.736 461.84 160.401 466.535C163.687 472.399 166.613 478.526 169.099 484.762C171.142 489.939 173.033 495.28 174.138 500.732C174.759 504.49 175.753 509.763 172.025 512.214C166.02 515.366 155.293 512.062 149.356 509.529C138.878 504.724 129.144 497.455 122.6 487.901L122.614 487.915ZM198.822 547.416C191.781 549.77 182.918 545.337 176.485 542.529C171.625 540.174 166.613 537.71 162.651 533.979C161.422 532.782 160.277 531.391 159.476 529.863C159.089 529.065 158.647 528.17 158.744 527.261C159.02 525.981 160.566 525.595 161.657 525.251C167.469 524.04 173.544 524.508 179.439 524.852C185.721 525.306 193.052 526.683 196.31 532.727C197.953 535.411 203.24 545.75 198.836 547.416H198.822ZM248.247 580.168C246.66 579.493 244.851 579.741 243.208 579.287C234.745 577.676 226.572 574.771 219.007 570.668C213.263 567.543 205.822 563.62 202.191 558.072C210.599 554.781 220.939 557.7 229.471 559.407C240.433 561.734 251.271 564.941 261.197 570.173C267.106 573.229 273.194 576.162 278.523 580.182C268.542 581.875 258.201 581.944 248.234 580.14L248.247 580.168ZM270.419 563.565C267.051 561.899 263.627 559.944 261.156 557.053C258.215 553.611 257.166 548.6 261.708 545.984C267.065 543.134 273.885 543.795 279.78 543.947C287.401 544.58 295.601 545.144 302.325 549.082C303.981 550.059 305.017 551.808 305.279 553.694C305.9 557.328 304.658 561.376 301.759 563.757C297.838 566.676 292.177 567.13 287.428 567.433C281.533 567.681 275.679 566.139 270.419 563.565ZM335.334 579.066C331.441 579.7 327.424 580.237 323.503 580.677C312.983 581.668 300.64 583.623 291.225 577.717C301.469 575.515 311.92 574.138 322.371 573.518C328.791 573.229 335.348 572.72 341.74 573.601C342.941 573.835 344.308 574.097 345.219 574.964C343.011 578.034 338.8 578.433 335.348 579.066H335.334ZM333.277 562.408C329.011 562.56 324.607 562.863 320.383 562.037C319.264 561.747 317.235 561.142 317.166 559.779C318.119 556.778 321.266 555.015 323.972 553.79C329.895 551.463 336.342 550.761 342.541 549.495C349.237 548.228 356.181 546.962 362.974 548.325C364.147 550.72 363.885 553.652 363.07 556.117C362.421 558.168 360.972 559.256 358.942 559.765C356.319 560.495 353.544 560.729 350.852 561.004C345.012 561.555 339.145 562.133 333.291 562.422L333.277 562.408ZM389.274 568.548C381.391 570.71 373.411 572.651 365.486 574.647C362.546 575.377 359.564 576.134 356.54 576.506C357.396 572.968 358.929 571.729 362.408 570.93C366.011 570.049 369.725 569.443 373.342 568.548C379.03 567.158 384.718 565.547 390.406 564.17C394.299 563.399 400.595 561.211 404.101 563.468C399.476 565.905 394.272 567.089 389.274 568.548ZM390.268 552.771C386.126 553.928 381.819 555.112 377.484 555.015C376.738 554.947 375.896 554.864 375.288 554.382C377.87 548.187 387.797 545.213 393.761 543.286C398.938 541.923 404.336 540.188 409.734 540.546C405.344 547.141 397.626 550.527 390.282 552.771H390.268ZM459.67 533.208C451.069 539.183 441.639 543.905 432.238 548.504C428.344 550.376 424.327 552.248 420.337 553.886C418.1 554.726 415.781 555.828 413.351 555.896C413.6 554.905 414.014 553.9 414.442 552.964C415.974 549.729 417.99 546.714 420.006 543.754C422.601 539.968 425.611 536.223 429.794 534.089C433.632 532.079 437.787 530.703 441.695 528.858C448.515 525.733 455.155 522.098 462.196 519.469C465.33 518.395 470.383 517.087 472.551 520.419C474.249 522.773 461.768 531.749 459.67 533.195V533.208ZM469.417 495.542C465.04 503.595 458.855 508.717 450.558 512.434C449.329 512.971 443.6 515.573 442.84 514.279C442.399 510.19 445.353 505.151 448.031 502.191C450.724 499.218 454.009 496.781 457.24 494.413C462.017 490.944 467.222 487.97 472.854 486.125C472.992 486.084 473.379 485.96 473.503 485.919C472.592 489.291 471.101 492.499 469.43 495.542H469.417ZM467.995 475.924C463.687 475.566 460.581 469.715 459.987 465.874C458.938 460.587 462.721 456.223 466.614 453.181C471.336 449.532 477.148 445.953 483.167 445.182C486.66 444.604 484.382 451.914 483.954 453.662C481.635 460.89 476.789 475.125 467.995 475.924ZM485.28 504.972C483.126 506.624 480.862 508.331 478.28 509.24C477.245 509.543 475.436 509.983 474.677 508.978C474.359 508.207 474.911 507.354 475.243 506.666C477.148 503.196 480.351 500.305 484.341 499.548C486.577 499.08 488.966 498.887 491.23 499.286C489.559 501.448 487.406 503.265 485.293 504.986L485.28 504.972ZM531.501 446.352C529.762 454.42 524.833 461.289 520.139 467.911C517.24 471.945 514.203 475.951 511.165 479.875C508.639 482.986 506.209 486.717 502.247 488.094C497.898 489.388 488.648 489.195 484.948 486.483C483.844 485.643 484.327 484.129 484.506 482.972C485.128 479.985 486.149 477.025 487.13 474.134C489.725 466.796 492.445 459.431 495.689 452.341C499.417 444.246 504.691 436.233 512.795 431.993C517.502 429.584 523.466 430.258 527.76 433.26C532.426 436.44 532.703 441.286 531.515 446.366L531.501 446.352ZM539.191 417.152C538.335 418.749 537.397 420.47 535.878 421.544C533.559 423.141 530.48 421.943 528.768 420.002C523.963 414.77 525.496 407.144 526.476 400.783C527.732 393.404 528.519 385.557 532.62 379.1C533.517 377.641 539.122 379.692 540.42 380.312C544.134 381.991 548.041 385.089 547.958 389.536C547.958 392.688 547.047 395.786 546.177 398.787C544.976 402.642 543.568 406.483 542.173 410.269C541.304 412.582 540.337 414.936 539.205 417.138L539.191 417.152ZM557.719 420.869C556.545 423.471 555.62 426.321 554.005 428.675C550.443 433.893 547.613 439.565 543.885 444.673C543.388 445.168 542.753 445.678 542.201 446.104C542.933 437.844 545.114 429.708 548.842 422.287C551.672 416.161 555.896 410.406 562.109 407.405C561.101 412.003 559.472 416.505 557.719 420.869ZM571.801 380.67C569.04 387.608 565.091 394.326 558.064 397.644C559.665 388.462 563.476 379.802 567.355 371.377C570.572 364.645 573.623 357.761 577.24 351.222C577.599 350.589 578.082 349.818 578.483 349.212C578.055 359.978 576.011 370.73 571.787 380.67H571.801ZM586.67 316.708C585.33 322.049 583.687 327.364 581.437 332.402C579.905 324.032 579.905 315.414 579.118 306.947C578.662 300.779 578.331 294.529 578.317 288.348C578.331 284.507 578.276 280.583 578.897 276.77C579.449 273.7 581.216 271.538 583.756 274.691C584.944 276.302 585.413 278.339 585.91 280.239C585.179 282.387 585.399 284.727 585.91 286.902C586.338 288.554 586.849 290.275 587.912 291.652C588.409 296.002 588.616 300.435 588.257 304.813C587.843 308.778 587.415 312.798 586.656 316.722L586.67 316.708Z" fill="#2A8D5E"/>
</svg>
