<svg width="168" height="38" viewBox="0 0 168 38" fill="none" xmlns="http://www.w3.org/2000/svg">
<path d="M17.473 37.8694C17.4368 37.8694 17.4078 37.8989 17.4082 37.9351C17.4082 37.9713 17.4376 38.0004 17.4737 38C17.5095 38 17.5382 37.9709 17.5385 37.9351C17.5385 37.8989 17.5091 37.8694 17.473 37.8694ZM15.658 37.2393C15.5865 37.2386 15.5284 37.2961 15.5277 37.3678C15.5277 37.3685 15.5277 37.3688 15.5277 37.3696C15.5273 37.4419 15.5854 37.5008 15.6577 37.5012C15.73 37.5015 15.7888 37.4434 15.7891 37.371C15.7895 37.2986 15.7314 37.2397 15.6591 37.2393H15.658ZM13.9125 36.4205C13.8041 36.4251 13.7202 36.5167 13.7248 36.6252C13.729 36.727 13.8105 36.809 13.9125 36.8133C14.0209 36.8179 14.1123 36.7338 14.1169 36.6252C14.1215 36.5167 14.0376 36.4251 13.9292 36.4205C13.9235 36.4205 13.9182 36.4205 13.9125 36.4205ZM12.2559 35.4214C12.1114 35.4221 11.9945 35.5399 11.9952 35.6847C11.9959 35.8294 12.1135 35.9465 12.2581 35.9458C12.4022 35.9451 12.5188 35.828 12.5188 35.6836C12.5188 35.5389 12.4023 35.4218 12.2577 35.4214C12.257 35.4214 12.2566 35.4214 12.2559 35.4214ZM10.7074 34.2545C10.5267 34.2545 10.38 34.4011 10.3797 34.582C10.3797 34.7629 10.526 34.9098 10.7067 34.9102C10.8874 34.9102 11.034 34.7637 11.0344 34.5827V34.582C11.0344 34.4011 10.8881 34.2545 10.7074 34.2545ZM9.28215 32.928C9.06534 32.9287 8.88997 33.105 8.89068 33.3222C8.89139 33.5393 9.06746 33.7149 9.28428 33.7142C9.50039 33.7135 9.67504 33.5386 9.67575 33.3222C9.67646 33.1054 9.50145 32.9287 9.28499 32.928C9.28392 32.928 9.28321 32.928 9.28215 32.928ZM7.99791 31.4602C7.74495 31.4617 7.54089 31.6682 7.54231 31.9215C7.54373 32.1748 7.74991 32.3791 8.00287 32.3777C8.25476 32.3763 8.45846 32.1712 8.45846 31.919C8.45846 31.6657 8.25334 31.4602 8.00039 31.4602C7.99968 31.4602 7.99862 31.4602 7.99791 31.4602ZM6.8699 29.8612C6.58045 29.8612 6.34557 30.0965 6.34557 30.3863C6.34557 30.6762 6.58045 30.9114 6.8699 30.9114C7.15934 30.9114 7.39422 30.6762 7.39422 30.3863C7.39422 30.0965 7.16005 29.8616 6.8706 29.8612H6.8699ZM6.5344 28.7231C6.5344 28.397 6.27046 28.1327 5.94488 28.1327C5.61931 28.1327 5.35537 28.397 5.35537 28.7231C5.35537 29.0491 5.61895 29.3131 5.94453 29.3134C6.26975 29.3127 6.53369 29.0488 6.5344 28.7231ZM5.90237 26.9523C5.90237 26.5901 5.60939 26.2963 5.24767 26.296C4.88596 26.296 4.59262 26.5894 4.59226 26.9516C4.59226 27.3135 4.88489 27.6073 5.24625 27.608C5.60832 27.6083 5.90202 27.3149 5.90237 26.9523ZM5.50806 25.1057C5.50806 24.7073 5.18532 24.3841 4.78747 24.3841C4.38962 24.3841 4.06687 24.7073 4.06687 25.1057C4.06687 25.5041 4.38962 25.8273 4.78747 25.8273C5.18532 25.8273 5.50771 25.5041 5.50806 25.1057ZM5.35962 23.2168C5.36033 22.7822 5.00889 22.4295 4.5749 22.4288C4.14092 22.4281 3.78877 22.7801 3.78806 23.2147C3.78735 23.6493 4.13879 24.002 4.57278 24.0027H4.5742C5.00747 24.0034 5.35891 23.6521 5.35962 23.2182C5.35962 23.2179 5.35962 23.2172 5.35962 23.2168ZM4.60856 22.1645C5.07797 22.1645 5.45882 21.7831 5.45882 21.313C5.45882 20.8429 5.07797 20.4615 4.60856 20.4615C4.13915 20.4615 3.7583 20.8429 3.7583 21.313C3.7583 21.7831 4.13915 22.1645 4.60856 22.1645Z" fill="#1F774D"/>
<path d="M3.95878 19.5507C3.95913 20.0511 4.36587 20.4563 4.86737 20.456C5.36886 20.4556 5.7749 20.0497 5.77455 19.5493C5.7742 19.0492 5.36746 18.6437 4.86631 18.6441C4.36552 18.6437 3.95913 19.0485 3.95878 19.5483C3.95878 19.549 3.95878 19.55 3.95878 19.5507ZM31.2076 33.4252C31.1756 33.4252 31.15 33.4504 31.1496 33.4823C31.1496 33.5142 31.1749 33.5397 31.2069 33.5401C31.2388 33.5401 31.2644 33.5149 31.2648 33.483C31.2648 33.483 31.2648 33.4826 31.2648 33.4823C31.2641 33.4511 31.2388 33.4259 31.2076 33.4252ZM29.5402 34.2415C29.4774 34.2405 29.4255 34.2905 29.4244 34.3536C29.4244 34.3539 29.4244 34.3546 29.4244 34.355C29.4209 34.4183 29.4697 34.473 29.5332 34.4765C29.5967 34.48 29.6515 34.4313 29.655 34.3679C29.655 34.3637 29.655 34.3595 29.655 34.3553C29.6546 34.2923 29.6034 34.2415 29.5402 34.2419V34.2415ZM27.7908 34.8788C27.6957 34.8788 27.6185 34.9559 27.6185 35.0508C27.6185 35.1457 27.6957 35.2227 27.7908 35.2227C27.8859 35.2227 27.9631 35.1457 27.9631 35.0508C27.9631 34.9559 27.8859 34.8788 27.7908 34.8788ZM25.9775 35.3285C25.8508 35.3334 25.7522 35.4399 25.7571 35.5663C25.7617 35.6857 25.8578 35.7816 25.9775 35.7862C26.1042 35.7911 26.2109 35.6927 26.2158 35.5663C26.2207 35.4399 26.1221 35.3334 25.9954 35.3285C25.9894 35.3285 25.9835 35.3285 25.9775 35.3285ZM24.1217 35.5838C23.9631 35.5824 23.8332 35.7091 23.8318 35.8674C23.8304 36.0257 23.9575 36.1553 24.1161 36.1567C24.2747 36.1581 24.4046 36.0313 24.406 35.873C24.406 35.872 24.406 35.8706 24.406 35.8695C24.4053 35.7127 24.2789 35.5855 24.1217 35.5838ZM22.2428 35.6433C22.0529 35.6433 21.8989 35.797 21.8989 35.9865C21.8989 36.176 22.0529 36.3297 22.2428 36.3297C22.4326 36.3297 22.5863 36.1763 22.5867 35.9872C22.5878 35.7981 22.4351 35.6444 22.2456 35.6433C22.2445 35.6433 22.2438 35.6433 22.2428 35.6433ZM20.36 35.506C20.1385 35.5067 19.9592 35.6864 19.9599 35.9074C19.9606 36.1283 20.1406 36.3073 20.3621 36.3066C20.5835 36.3059 20.7625 36.1266 20.7622 35.9056C20.7622 35.685 20.5828 35.506 20.3617 35.506C20.361 35.506 20.3607 35.506 20.36 35.506ZM18.5 35.1671C18.2466 35.1671 18.0413 35.3719 18.0413 35.6248C18.0413 35.8776 18.2466 36.0824 18.5 36.0824C18.7534 36.0824 18.9587 35.8776 18.9587 35.6248C18.9587 35.6241 18.9587 35.623 18.9587 35.6223C18.9576 35.3702 18.7527 35.1667 18.5 35.1671ZM16.6884 34.5955C16.4038 34.5959 16.1736 34.8263 16.174 35.1103C16.1743 35.3943 16.4052 35.6241 16.6898 35.6237C16.9745 35.6234 17.2047 35.3929 17.2043 35.1089C17.2036 34.8253 16.9727 34.5955 16.6884 34.5955ZM14.9618 33.7908C14.6453 33.7901 14.3884 34.0457 14.3877 34.3616C14.387 34.6775 14.6432 34.9338 14.9597 34.9345C15.2763 34.9352 15.5331 34.6796 15.5339 34.3637C15.5339 34.3634 15.5339 34.3627 15.5339 34.3623C15.5339 34.0468 15.278 33.7912 14.9618 33.7908ZM13.9781 33.3937C13.9781 33.0456 13.6953 32.7634 13.3464 32.7634C12.9976 32.7634 12.7147 33.0456 12.7147 33.3937C12.7147 33.7418 12.9976 34.024 13.3464 34.024C13.6942 34.0251 13.9771 33.7449 13.9781 33.3979C13.9781 33.3965 13.9781 33.3951 13.9781 33.3937ZM11.8763 31.538C11.497 31.5377 11.1889 31.8445 11.1885 32.223C11.1882 32.6016 11.4956 32.909 11.8749 32.9094C12.2543 32.9097 12.5624 32.603 12.5628 32.2244V32.2234C12.5617 31.8455 12.255 31.5394 11.8763 31.538ZM10.5687 30.1271C10.1567 30.1264 9.82265 30.4591 9.82194 30.8702C9.82124 31.2814 10.1546 31.6147 10.5666 31.6154C10.9786 31.6161 11.3127 31.2835 11.3134 30.8723C11.3134 30.872 11.3134 30.8713 11.3134 30.8709C11.3134 30.4605 10.98 30.1275 10.5687 30.1271ZM9.451 30.1614C9.89424 30.1618 10.254 29.8036 10.2543 29.3613C10.2547 28.919 9.89564 28.56 9.4524 28.5597C9.00917 28.5593 8.64945 28.9176 8.6491 29.3599C8.64805 29.8015 9.00566 30.1604 9.44784 30.1614C9.44889 30.1614 9.44995 30.1614 9.451 30.1614ZM9.3966 27.7178C9.39625 27.2447 9.01127 26.8613 8.53715 26.8616C8.06303 26.862 7.67875 27.2461 7.6791 27.7192C7.67945 28.192 8.06373 28.5751 8.5375 28.5754C9.01197 28.5754 9.3966 28.1913 9.3966 27.7178ZM37.9491 20.575C37.921 20.575 37.8979 20.5971 37.8968 20.6251C37.8972 20.6538 37.9203 20.6769 37.9491 20.6776C37.9775 20.6773 38.0004 20.6538 38 20.6254C38 20.6254 38 20.6254 38 20.6251C38 20.5974 37.9775 20.575 37.9498 20.575C37.9498 20.575 37.9495 20.575 37.9491 20.575ZM37.3894 22.3179C37.3329 22.3176 37.2869 22.3627 37.2865 22.4191C37.2862 22.4755 37.3315 22.5214 37.388 22.5217C37.4445 22.5221 37.4904 22.4769 37.4908 22.4205V22.4195C37.4908 22.3634 37.4459 22.3183 37.3897 22.3179H37.3894ZM36.6436 23.9908C36.5583 23.9915 36.4896 24.0608 36.4903 24.1459C36.491 24.231 36.5604 24.2996 36.6457 24.2989C36.7307 24.2982 36.7994 24.2292 36.7991 24.1445C36.7991 24.0594 36.7296 23.9904 36.6443 23.9908C36.6443 23.9908 36.644 23.9908 36.6436 23.9908ZM35.7206 25.5789C35.6076 25.5792 35.5164 25.671 35.5168 25.7837C35.5171 25.8965 35.6091 25.9875 35.7221 25.9872C35.8351 25.9868 35.9263 25.8954 35.9259 25.7827C35.9259 25.6699 35.834 25.5785 35.721 25.5789H35.7206ZM34.6303 27.0581C34.4885 27.0591 34.3748 27.1747 34.3758 27.3162C34.3769 27.4576 34.4927 27.5711 34.6345 27.57C34.7752 27.569 34.8886 27.4552 34.8889 27.3148C34.8889 27.1729 34.7731 27.0577 34.631 27.0581C34.631 27.0581 34.6306 27.0581 34.6303 27.0581ZM33.3837 28.4147C33.2135 28.4147 33.0756 28.552 33.0753 28.7218C33.0749 28.8917 33.2128 29.0293 33.383 29.0296C33.5532 29.03 33.6912 28.8924 33.6915 28.7225C33.6915 28.5527 33.5539 28.4151 33.3841 28.4147H33.3837ZM31.9961 29.6351C31.7978 29.6358 31.6378 29.7969 31.6385 29.9948C31.6392 30.1926 31.8006 30.3523 31.9989 30.3516C32.1972 30.3509 32.3572 30.1902 32.3565 29.9923C32.3565 29.7952 32.1969 29.6355 31.9993 29.6351C31.9982 29.6351 31.9972 29.6351 31.9961 29.6351ZM30.4811 30.6969C30.254 30.6958 30.0691 30.8783 30.068 31.1049C30.067 31.3314 30.2498 31.516 30.4769 31.517C30.704 31.5181 30.8889 31.3356 30.89 31.1091C30.89 31.1087 30.89 31.108 30.89 31.1077C30.8896 30.8821 30.7071 30.6986 30.4811 30.6969ZM28.837 31.5601C28.5818 31.5594 28.3744 31.7657 28.3737 32.0203C28.373 32.2748 28.5797 32.4818 28.8348 32.4825C29.09 32.4832 29.2974 32.2769 29.2981 32.0224V32.0206C29.297 31.7667 29.0914 31.5612 28.837 31.5601ZM27.0847 32.1989C26.8008 32.1978 26.5699 32.4268 26.5688 32.7101C26.5678 32.9934 26.7973 33.2239 27.0812 33.2249C27.3651 33.226 27.596 32.9969 27.5971 32.7136C27.5971 32.7126 27.5971 32.7119 27.5971 32.7108C27.5971 32.4286 27.3676 32.1996 27.0847 32.1989ZM25.2581 32.6026C24.9461 32.6019 24.6927 32.8541 24.692 33.1654C24.6913 33.4767 24.944 33.7295 25.256 33.7302C25.5679 33.7309 25.8213 33.4788 25.822 33.1675C25.822 32.8562 25.5697 32.6037 25.2581 32.6026ZM23.3872 32.7616C23.0471 32.7616 22.7713 33.0365 22.7709 33.3758C22.7709 33.7152 23.0464 33.9904 23.3865 33.9908C23.7262 33.9908 24.002 33.7166 24.0027 33.3776C24.0031 33.0379 23.7276 32.7623 23.3872 32.7616ZM22.1719 33.3426C22.1719 32.9752 21.8732 32.6772 21.5051 32.6772C21.137 32.6772 20.8383 32.9752 20.8383 33.3426C20.8383 33.7099 21.137 34.0079 21.5051 34.0079C21.8729 34.0069 22.1708 33.7096 22.1719 33.3426ZM20.3624 33.0642C20.3624 32.6681 20.0413 32.3473 19.6444 32.347C19.2475 32.347 18.926 32.6674 18.9257 33.0635C18.9257 33.4592 19.2468 33.7803 19.6434 33.7807C20.0399 33.7814 20.3617 33.4609 20.3624 33.0652V33.0642ZM18.6053 32.5445C18.6053 32.119 18.2596 31.7741 17.8332 31.7741C17.4068 31.7741 17.0611 32.119 17.0611 32.5445C17.0611 32.97 17.4068 33.3149 17.8332 33.3149C18.2586 33.316 18.6042 32.9724 18.6053 32.548C18.6053 32.5469 18.6053 32.5455 18.6053 32.5445ZM16.9281 31.7944C16.9281 31.3419 16.5604 30.9753 16.1069 30.9756C15.6535 30.9756 15.2861 31.3426 15.2864 31.7951C15.2864 32.2475 15.6542 32.6142 16.1076 32.6138C16.5604 32.6138 16.9274 32.2479 16.9278 31.7961C16.9278 31.7954 16.9278 31.7951 16.9278 31.7944H16.9281ZM33.6045 6.82869C33.6326 6.83115 33.6575 6.81013 33.6599 6.78212C33.6624 6.7541 33.6413 6.72924 33.6133 6.72679C33.6104 6.72679 33.6076 6.72679 33.6048 6.72679C33.5768 6.72924 33.5557 6.75375 33.5582 6.78212C33.5603 6.80698 33.5799 6.82694 33.6048 6.82869H33.6045ZM34.4818 8.54462C34.5387 8.54462 34.5847 8.49875 34.5847 8.44202C34.5847 8.38529 34.5387 8.33941 34.4818 8.33941C34.425 8.33941 34.3794 8.38528 34.379 8.44167C34.3783 8.4977 34.4232 8.54392 34.4794 8.54462C34.4801 8.54462 34.4811 8.54462 34.4818 8.54462ZM35.176 10.3414C35.2609 10.3414 35.3297 10.2732 35.3301 10.1884C35.3301 10.1037 35.2616 10.035 35.1767 10.0347C35.0918 10.0343 35.023 10.103 35.0226 10.1877C35.0226 10.2725 35.0911 10.3411 35.1756 10.3414H35.176ZM35.6849 12.2016C35.7986 12.202 35.8909 12.1106 35.8912 11.9971C35.8916 11.8837 35.8 11.7916 35.6863 11.7912C35.5726 11.7909 35.4803 11.8823 35.4799 11.9957C35.4799 11.9961 35.4799 11.9968 35.4799 11.9971C35.4799 12.1099 35.5711 12.2013 35.6842 12.2016H35.6849ZM35.7417 13.85C35.7424 13.9915 35.8575 14.1056 35.9993 14.1049C36.1411 14.1042 36.2555 13.9894 36.2548 13.8479C36.2541 13.7068 36.139 13.5926 35.9975 13.5929C35.8558 13.5936 35.7414 13.7085 35.7417 13.85ZM36.1148 15.4167C35.9449 15.4171 35.8073 15.5551 35.8077 15.7246C35.808 15.894 35.9463 16.0313 36.1162 16.031C36.2857 16.0306 36.4229 15.8937 36.4232 15.7246C36.4232 15.5547 36.285 15.4167 36.1148 15.4167ZM36.033 17.2426C35.834 17.2426 35.6729 17.4037 35.6733 17.6023C35.6733 17.8008 35.8347 17.9616 36.0337 17.9612C36.2327 17.9612 36.3938 17.8001 36.3934 17.6016C36.3938 17.4037 36.2334 17.243 36.0354 17.2426C36.0347 17.2426 36.0337 17.2426 36.033 17.2426ZM35.7519 19.0503C35.5252 19.051 35.3416 19.2348 35.3423 19.4611C35.343 19.6873 35.5273 19.8704 35.754 19.8697C35.9803 19.869 36.1635 19.6859 36.1635 19.46C36.1639 19.2341 35.9807 19.0506 35.7543 19.0503C35.7536 19.0503 35.7526 19.0503 35.7519 19.0503ZM35.6978 21.2663C35.6978 21.0117 35.4904 20.8051 35.2353 20.8054C34.9802 20.8054 34.7731 21.0124 34.7735 21.267C34.7735 21.5216 34.9809 21.7282 35.236 21.7278H35.2367C35.4911 21.7282 35.6975 21.523 35.6978 21.2691C35.6978 21.268 35.6978 21.2673 35.6978 21.2663ZM34.4864 22.4783C34.2032 22.4783 33.9733 22.7077 33.9733 22.9903C33.9733 23.2729 34.2032 23.5023 34.4864 23.5023C34.7696 23.5023 34.9995 23.2729 34.9995 22.9903C34.9998 22.708 34.7707 22.4787 34.4878 22.4783H34.4864ZM33.5171 24.038C33.2055 24.0384 32.9535 24.2905 32.9538 24.6015C32.9542 24.9125 33.2069 25.1639 33.5185 25.1636C33.8298 25.1632 34.0818 24.9114 34.0818 24.6008C34.0818 24.2902 33.8294 24.038 33.5178 24.038H33.5171ZM32.3435 25.4556C32.0035 25.4556 31.728 25.7302 31.7276 26.0695C31.7273 26.4088 32.0028 26.6837 32.3428 26.6841C32.6829 26.6844 32.9584 26.4095 32.9587 26.0702V26.0688C32.9587 25.7302 32.6836 25.4556 32.3443 25.4556H32.3435ZM30.9886 26.7068C30.6204 26.7068 30.3218 27.0048 30.3218 27.3722C30.3218 27.7395 30.6204 28.0376 30.9886 28.0376C31.3567 28.0376 31.6554 27.7395 31.6554 27.3722C31.6554 27.0048 31.3567 26.7068 30.9886 26.7068ZM29.4753 27.7721C29.0787 27.7721 28.7573 28.0932 28.7576 28.4889C28.7576 28.8847 29.0795 29.2054 29.476 29.2051C29.8719 29.2051 30.193 28.8847 30.1937 28.4896C30.194 28.0936 29.8729 27.7725 29.476 27.7721H29.4753ZM27.8287 28.6301C27.4034 28.6297 27.058 28.9736 27.0577 29.398C27.0573 29.8225 27.402 30.1671 27.8273 30.1674C28.2523 30.1678 28.5973 29.8246 28.5983 29.4005C28.5994 28.9761 28.2558 28.6311 27.8305 28.6301C27.8298 28.6301 27.8294 28.6301 27.8287 28.6301ZM26.0765 29.2678C25.623 29.2681 25.2556 29.6355 25.256 30.0879C25.2563 30.5404 25.6244 30.907 26.0779 30.9067C26.5313 30.9063 26.8987 30.5393 26.8984 30.0869C26.898 29.6341 26.5302 29.2674 26.0765 29.2678ZM20.7222 0.102259C20.7506 0.101909 20.773 0.0787966 20.7727 0.0504313C20.7723 0.022066 20.7492 -0.000346141 20.7208 4.04833e-06C20.693 0.000354238 20.6706 0.0231165 20.6702 0.0507815C20.6702 0.0791468 20.6934 0.102259 20.7218 0.102259C20.7218 0.102259 20.7218 0.102259 20.7222 0.102259ZM22.5197 0.712289C22.5765 0.711939 22.6221 0.665714 22.6218 0.608983C22.6214 0.552252 22.5751 0.506728 22.5183 0.507078C22.4614 0.507428 22.4165 0.552953 22.4161 0.609333C22.4161 0.666064 22.4618 0.711939 22.5186 0.712289C22.519 0.712289 22.5193 0.712289 22.5197 0.712289ZM24.2491 1.50582C24.334 1.50582 24.4032 1.43648 24.4028 1.35173C24.4028 1.26699 24.3333 1.198 24.2484 1.19835C24.1635 1.1987 24.0943 1.26769 24.0947 1.35243C24.095 1.43718 24.1642 1.50582 24.2491 1.50547V1.50582ZM25.8901 2.47899C26.0035 2.47864 26.0951 2.38654 26.0947 2.27343C26.0944 2.16032 26.0021 2.06892 25.8887 2.06927C25.7757 2.06962 25.6841 2.16137 25.6841 2.27413C25.6841 2.38724 25.7753 2.47864 25.8887 2.47899C25.8891 2.47899 25.8898 2.47899 25.8901 2.47899ZM27.4241 3.61711C27.5655 3.61711 27.6799 3.50295 27.6799 3.36182C27.6799 3.22069 27.5655 3.10653 27.4241 3.10653C27.2826 3.10653 27.1682 3.22069 27.1682 3.36182C27.1679 3.5026 27.2816 3.61676 27.4227 3.61711C27.423 3.61711 27.4237 3.61711 27.4241 3.61711ZM28.8348 4.91316C29.0051 4.91421 29.144 4.77694 29.1451 4.60709C29.1461 4.43725 29.0086 4.29858 28.8384 4.29753C28.6681 4.29648 28.5292 4.43375 28.5281 4.60359C28.5281 4.60394 28.5281 4.60464 28.5281 4.60499C28.5281 4.77448 28.665 4.91211 28.8348 4.91316ZM30.1091 6.34893C30.3077 6.34858 30.4685 6.1875 30.4681 5.98929C30.4678 5.79108 30.3063 5.6307 30.1077 5.63105C29.9091 5.6314 29.7483 5.79248 29.7487 5.99069C29.7487 5.99069 29.7487 5.99139 29.7487 5.99174C29.7494 6.1896 29.9108 6.34964 30.1091 6.34893ZM31.2265 7.91428C31.4536 7.91428 31.6375 7.73043 31.6371 7.50386C31.6368 7.27729 31.4529 7.09379 31.2258 7.09414C30.9991 7.09414 30.8156 7.27764 30.8152 7.50386C30.8149 7.73008 30.9984 7.91393 31.2251 7.91428C31.2255 7.91428 31.2262 7.91428 31.2265 7.91428ZM32.1421 9.60534C32.3969 9.60429 32.6029 9.39733 32.6018 9.14309C32.6008 8.88886 32.3934 8.6833 32.1386 8.68435C31.8845 8.6854 31.6789 8.89131 31.6789 9.14485C31.6792 9.39943 31.8866 9.60569 32.1418 9.60534C32.1418 9.60534 32.1418 9.60534 32.1421 9.60534ZM32.32 10.8909C32.3193 11.1738 32.5485 11.4039 32.8321 11.4046C33.1156 11.4053 33.3462 11.1766 33.3469 10.8937C33.3476 10.6107 33.1184 10.3807 32.8349 10.38C32.8349 10.38 32.8342 10.38 32.8338 10.38C32.551 10.3789 32.3211 10.6069 32.32 10.8891C32.32 10.8898 32.32 10.8902 32.32 10.8909ZM32.7243 12.7161C32.725 13.0274 32.978 13.2792 33.29 13.2785C33.602 13.2778 33.8543 13.0253 33.8536 12.714C33.8529 12.4034 33.6006 12.1519 33.2893 12.1516C32.9784 12.1505 32.7254 12.4016 32.7243 12.7119C32.7243 12.7133 32.7243 12.7147 32.7243 12.7161ZM32.8833 14.5822C32.8833 14.9219 33.1598 15.1975 33.5002 15.1972C33.8407 15.1972 34.1169 14.9212 34.1165 14.5815C34.1165 14.2418 33.84 13.9662 33.4995 13.9666H33.4992C33.1591 13.9666 32.8833 14.2418 32.8833 14.5812V14.5822ZM34.1312 16.4589C34.1312 16.0915 33.8326 15.7935 33.4645 15.7935C33.0963 15.7935 32.7977 16.0915 32.7977 16.4589C32.7977 16.8262 33.0963 17.1243 33.4645 17.1243C33.8326 17.1243 34.1312 16.8262 34.1312 16.4589ZM33.9031 18.3174C33.9031 17.9213 33.5813 17.6005 33.1844 17.6009C32.7875 17.6009 32.466 17.922 32.4664 18.3181C32.4664 18.7141 32.7882 19.0349 33.1851 19.0345C33.1851 19.0345 33.1858 19.0345 33.1862 19.0345C33.5827 19.0338 33.9035 18.7131 33.9031 18.3174ZM33.4364 20.1229C33.4364 19.6985 33.0918 19.3546 32.6664 19.3546C32.2411 19.3546 31.8965 19.6985 31.8965 20.1229C31.8965 20.5463 32.24 20.8902 32.6643 20.8912C33.0896 20.8923 33.4353 20.5488 33.4364 20.1243C33.4364 20.124 33.4364 20.1233 33.4364 20.1229ZM31.914 21.0254C31.4602 21.0261 31.0931 21.3938 31.0938 21.8466C31.0946 22.2994 31.463 22.6656 31.9168 22.6649C32.3699 22.6642 32.737 22.2973 32.737 21.8452C32.737 21.3924 32.3685 21.025 31.9147 21.0254H31.914ZM6.84527 4.4355C6.87334 4.4355 6.89615 4.41274 6.89615 4.38472C6.89615 4.35671 6.87334 4.33395 6.84527 4.33325C6.81684 4.33325 6.79368 4.35636 6.79368 4.38472C6.79368 4.41274 6.81579 4.43515 6.84386 4.4355C6.84421 4.4355 6.84492 4.4355 6.84527 4.4355ZM8.51118 3.61326C8.56768 3.61291 8.61295 3.56703 8.6126 3.51065C8.61225 3.45427 8.56628 3.4091 8.50978 3.40945C8.45328 3.4098 8.408 3.45567 8.40836 3.51205C8.40871 3.56843 8.45468 3.61361 8.51118 3.61326ZM10.2606 2.97101C10.3462 2.97171 10.4161 2.90342 10.4168 2.81798C10.4175 2.73253 10.3491 2.66284 10.2634 2.66214C10.1778 2.66144 10.108 2.72973 10.1073 2.81518C10.1073 2.81588 10.1073 2.81693 10.1073 2.81763C10.1073 2.90237 10.1757 2.97066 10.2606 2.97101ZM12.0736 2.51506C12.1869 2.51436 12.2785 2.42226 12.2778 2.30915C12.2771 2.19604 12.1848 2.10464 12.0715 2.10534C11.9581 2.10604 11.8665 2.19814 11.8672 2.31125C11.8672 2.42366 11.9581 2.51471 12.0708 2.51506C12.0718 2.51506 12.0725 2.51506 12.0736 2.51506ZM13.9301 2.25277C14.0718 2.25242 14.1862 2.13756 14.1859 1.99608C14.1855 1.85461 14.0704 1.74044 13.9286 1.74079C13.7876 1.74114 13.6732 1.85531 13.6728 1.99608C13.6721 2.13721 13.7858 2.25207 13.9272 2.25277C13.9283 2.25277 13.929 2.25277 13.9301 2.25277ZM15.8093 2.18799C15.9795 2.18764 16.1171 2.04966 16.1168 1.87982C16.1164 1.70998 15.9781 1.5727 15.8079 1.57305C15.6377 1.5734 15.5002 1.71138 15.5005 1.88122C15.4998 2.05001 15.6367 2.18729 15.8058 2.18799C15.8069 2.18799 15.8083 2.18799 15.8093 2.18799ZM17.6904 2.31931C17.8887 2.31966 18.0497 2.15962 18.0501 1.96176C18.0504 1.76391 17.8901 1.60317 17.6918 1.60282C17.4935 1.60247 17.3324 1.76251 17.3321 1.96036C17.3321 1.96036 17.3321 1.96071 17.3321 1.96106C17.331 2.15787 17.4903 2.31826 17.6876 2.31931C17.6886 2.31931 17.6893 2.31931 17.6904 2.31931ZM19.5528 2.65199C19.7795 2.65199 19.9634 2.46849 19.9634 2.24227C19.9634 2.01604 19.7795 1.83254 19.5528 1.83254C19.3265 1.83254 19.1429 2.01534 19.1422 2.24121C19.1412 2.46709 19.3233 2.65094 19.5497 2.65199C19.5507 2.65199 19.5518 2.65199 19.5528 2.65199ZM21.3633 3.21824C21.6185 3.21824 21.8252 3.01233 21.8255 2.75774C21.8259 2.50316 21.6192 2.2969 21.364 2.29654C21.1089 2.29619 20.9022 2.50246 20.9018 2.75704C20.9029 3.01093 21.1089 3.21684 21.3633 3.21824ZM23.0903 4.01702C23.3739 4.01807 23.6044 3.7894 23.6055 3.50645C23.6065 3.2235 23.3774 2.99342 23.0938 2.99237C22.8102 2.99132 22.5797 3.21999 22.5786 3.50295C22.5786 3.50365 22.5786 3.504 22.5786 3.5047C22.5779 3.78695 22.8071 4.01632 23.0899 4.01702C23.0899 4.01702 23.09 4.01702 23.0903 4.01702ZM24.1396 4.47227C24.1393 4.78324 24.3916 5.03573 24.7032 5.03608C25.0149 5.03643 25.2679 4.78464 25.2682 4.47367C25.2686 4.1627 25.0163 3.91022 24.7046 3.90987C24.7046 3.90987 24.7043 3.90987 24.7039 3.90987C24.3923 3.90987 24.14 4.1613 24.1396 4.47227ZM26.1768 6.25824C26.5169 6.25719 26.7917 5.98159 26.7906 5.64225C26.7896 5.30292 26.5134 5.02872 26.1733 5.02977C25.8343 5.03082 25.5602 5.30467 25.5595 5.64295C25.5595 5.98264 25.835 6.25789 26.1754 6.25824C26.1758 6.25824 26.1765 6.25824 26.1768 6.25824ZM27.4841 7.66214C27.8522 7.66214 28.1509 7.36413 28.1509 6.99678C28.1509 6.62944 27.8522 6.33143 27.4841 6.33143C27.1159 6.33143 26.8173 6.62944 26.8173 6.99678C26.8173 7.36413 27.1159 7.66214 27.4841 7.66214ZM28.6008 7.78926C28.2039 7.78926 27.8824 8.11004 27.8824 8.5061C27.8824 8.90216 28.2039 9.22294 28.6008 9.22294C28.9977 9.22294 29.3191 8.90216 29.3191 8.5061C29.3191 8.11039 28.998 7.78961 28.6015 7.78926H28.6008ZM28.7443 10.1502C28.745 10.574 29.0896 10.9172 29.5143 10.9165C29.9389 10.9158 30.2828 10.5719 30.2821 10.1481C30.2814 9.72441 29.9372 9.38157 29.5125 9.38192C29.0886 9.38192 28.7447 9.72476 28.7443 10.1478C28.7443 10.1485 28.7443 10.1495 28.7443 10.1502ZM29.3816 11.8966C29.3813 12.3491 29.7483 12.7161 30.2018 12.7164C30.6552 12.7168 31.023 12.3505 31.0233 11.898C31.0237 11.4459 30.6569 11.0789 30.2039 11.0782C29.7504 11.0782 29.3827 11.4442 29.3816 11.8966ZM30.6555 12.8484C30.1733 12.8484 29.7827 13.2379 29.7824 13.719C29.7824 14.2002 30.1726 14.5899 30.6548 14.5903C31.137 14.5903 31.5276 14.2009 31.528 13.7197C31.528 13.2386 31.1374 12.8488 30.6555 12.8484ZM0.102647 17.1449C0.0493037 17.1418 0.00333051 17.1824 0.000172043 17.2356C-0.00298642 17.2888 0.0377227 17.3347 0.0910656 17.3379C0.094926 17.3379 0.0987863 17.3379 0.102647 17.3379C0.15599 17.341 0.201963 17.3004 0.205121 17.2472C0.20828 17.1939 0.167571 17.1481 0.114228 17.1449C0.110367 17.1449 0.106507 17.1449 0.102647 17.1449ZM0.66345 15.2546C0.556413 15.2539 0.469379 15.34 0.468678 15.4469C0.467976 15.5537 0.554307 15.6405 0.661344 15.6412C0.768381 15.6419 0.855414 15.5558 0.856116 15.449C0.856116 15.449 0.856116 15.4486 0.856116 15.4483C0.855765 15.3421 0.769785 15.2556 0.66345 15.2546ZM1.69907 13.7229C1.69978 13.5625 1.56958 13.4319 1.40885 13.4312C1.24812 13.4305 1.11722 13.5604 1.11651 13.7208C1.11581 13.8812 1.24601 14.0118 1.40674 14.0125C1.56747 14.0125 1.69802 13.8833 1.69872 13.7229H1.69907ZM2.33007 12.4713C2.54344 12.4713 2.7161 12.299 2.7161 12.0861C2.7161 11.8732 2.54344 11.7009 2.33007 11.7009C2.11669 11.7009 1.94403 11.8732 1.94403 12.0861C1.94508 12.2983 2.1174 12.4702 2.33007 12.4713ZM3.42114 11.0366C3.68856 11.0366 3.90509 10.8209 3.90544 10.554C3.90544 10.2872 3.68926 10.0711 3.42184 10.0707C3.15443 10.0704 2.93789 10.2865 2.93754 10.5533C2.93754 10.5533 2.93754 10.5537 2.93754 10.554C2.93719 10.8202 3.15302 11.0362 3.41974 11.0366C3.42009 11.0366 3.42079 11.0366 3.42114 11.0366ZM4.66733 9.72406C4.98774 9.72406 5.24778 9.46457 5.24778 9.14485C5.24778 8.82512 4.98774 8.56563 4.66733 8.56563C4.34692 8.56563 4.08687 8.82512 4.08687 9.14485C4.08687 9.46457 4.34692 9.72406 4.66733 9.72406ZM6.05495 8.55233C6.42975 8.55303 6.73437 8.25046 6.73507 7.87646C6.73577 7.50246 6.43256 7.19849 6.05776 7.19779C5.68295 7.19709 5.37834 7.49966 5.37763 7.87366C5.37763 7.87401 5.37763 7.87471 5.37763 7.87506C5.37728 8.24871 5.68049 8.55197 6.05495 8.55233ZM7.5675 7.53222C7.9953 7.53362 8.34308 7.18869 8.34448 6.76181C8.34589 6.33493 8.00021 5.98789 7.57241 5.98649C7.14462 5.98509 6.79684 6.33002 6.79543 6.7569C6.79543 6.75796 6.79543 6.75901 6.79543 6.76006C6.79613 7.18554 7.14111 7.53082 7.5675 7.53222ZM9.20639 6.70228C9.68753 6.70228 10.0774 6.31357 10.0778 5.83346C10.0778 5.35335 9.68823 4.96429 9.2071 4.96394C8.72631 4.96394 8.33606 5.35265 8.33571 5.83241C8.33536 6.31252 8.7249 6.70193 9.20604 6.70228H9.20639Z" fill="#1F774D"/>
<path d="M11.0442 6.1736C11.5177 6.1715 11.9185 5.82215 11.9873 5.35158C12.3186 5.83089 12.9736 5.94932 13.4506 5.61639C13.5924 5.51752 13.7078 5.38477 13.7864 5.23036C14.1667 5.73936 14.886 5.84242 15.3925 5.45988C15.4499 5.41656 15.5031 5.368 15.5517 5.31455C15.9463 5.87491 16.7167 6.01045 17.2774 5.61848C17.323 5.69394 17.3765 5.76451 17.4373 5.82809C17.1307 5.86058 16.8432 5.99368 16.6197 6.20679C16.0767 5.70827 15.2343 5.746 14.7382 6.29168C14.7045 6.32871 14.6732 6.36749 14.6437 6.40801C14.4229 6.23264 14.1493 6.13762 13.8681 6.13866C13.3779 6.13936 12.9326 6.42548 12.7264 6.8723C12.1848 6.50199 11.4468 6.64312 11.0779 7.18741C10.9952 7.30968 10.9357 7.44663 10.9027 7.59091C10.3781 7.26951 9.6936 7.43615 9.37377 7.96331C9.26739 8.13834 9.21142 8.33956 9.21107 8.54463V8.54882C8.71464 8.26061 8.08019 8.43144 7.79338 8.93031C7.70195 9.08927 7.65398 9.26953 7.65433 9.45294C7.65467 9.55111 7.66858 9.64823 7.6957 9.74255C7.54517 9.64823 7.37134 9.59792 7.1937 9.59722C6.66076 9.59687 6.22864 10.0304 6.22829 10.566C6.22795 11.1015 6.65937 11.5358 7.19231 11.5361C7.72524 11.5365 8.15736 11.1029 8.15771 10.5674C8.15667 10.486 8.14554 10.4053 8.12503 10.3267C8.60443 10.6418 9.24757 10.5062 9.5608 10.0245C9.66474 9.86447 9.72315 9.67932 9.7294 9.48822C9.90705 9.60211 10.1132 9.66255 10.3239 9.6629C10.3433 9.6629 10.3645 9.6601 10.3851 9.6601C10.1448 9.87984 9.99709 10.1838 9.97275 10.5094C9.3105 10.3836 8.67188 10.8213 8.54672 11.4868C8.53247 11.562 8.52552 11.6381 8.52552 11.7146C8.52552 11.7628 8.52865 11.8107 8.53525 11.8582C8.49075 11.8523 8.44626 11.8495 8.40141 11.8498C7.76314 11.8498 7.24584 12.3693 7.2455 13.0107C7.2448 13.1368 7.26531 13.2619 7.30633 13.381C7.2827 13.381 7.26045 13.3779 7.23681 13.3779C6.63504 13.3772 6.1466 13.8673 6.1459 14.472C6.1459 14.675 6.20153 14.8741 6.30756 15.0471C6.29713 15.0464 6.28635 15.0464 6.27592 15.0471C5.70892 15.0464 5.24864 15.5079 5.24829 16.0776C5.24829 16.3645 5.36649 16.6384 5.57507 16.8336C5.55978 16.8336 5.54587 16.8291 5.53197 16.8291C4.99799 16.828 4.56378 17.2619 4.56274 17.7989C4.5617 18.3355 4.99347 18.7718 5.5278 18.7729C6.06177 18.7739 6.49598 18.34 6.49702 17.8031C6.49772 17.5421 6.39377 17.2916 6.20848 17.1086C6.23003 17.1086 6.25298 17.1114 6.27592 17.1114C6.56203 17.1114 6.83528 16.9912 7.02926 16.7795V16.8144C7.02892 17.0698 7.10957 17.3189 7.2594 17.5253C6.6698 17.7357 6.36179 18.3865 6.57142 18.979C6.63817 19.1676 6.75324 19.3353 6.90481 19.4649C6.36353 19.7137 6.12539 20.3561 6.37291 20.9001C6.47234 21.1184 6.64095 21.2976 6.85266 21.4091C6.34997 21.6648 6.14868 22.2814 6.40281 22.7865C6.53978 23.059 6.79078 23.2557 7.08697 23.3231C6.61209 23.5632 6.42089 24.1445 6.65937 24.6213C6.82311 24.9487 7.15685 25.1548 7.52153 25.1541C7.58097 25.1537 7.64007 25.1474 7.69848 25.1359C7.22846 25.2931 6.97434 25.8035 7.13078 26.2758C7.28721 26.7482 7.79512 27.0035 8.26513 26.8463C8.73515 26.6891 8.98927 26.1787 8.83283 25.7064C8.70977 25.3347 8.36143 25.0853 7.97138 25.0898C7.9161 25.0898 7.86083 25.0954 7.80625 25.1059C8.21021 24.9826 8.48658 24.6088 8.48763 24.1846C8.48763 24.1602 8.48206 24.1396 8.47998 24.1148C8.6312 24.2821 8.83005 24.3988 9.04942 24.4487C8.66736 24.8984 8.72055 25.574 9.16831 25.9579C9.36195 26.1242 9.60877 26.2151 9.86325 26.214H9.88654C9.55697 26.6696 9.65744 27.3075 10.1108 27.6383C10.2849 27.7655 10.4949 27.8336 10.7101 27.8332C10.8102 27.8332 10.9097 27.8182 11.0053 27.7892C10.7105 28.236 10.8321 28.8387 11.2771 29.1349C11.4349 29.2401 11.6202 29.2963 11.8094 29.2963C12.0284 29.296 12.2404 29.2195 12.4097 29.0801C12.0802 29.4644 12.1229 30.0443 12.5053 30.3755C12.8877 30.7066 13.4648 30.6637 13.7944 30.2794C14.1017 29.9213 14.0878 29.3871 13.7628 29.0451C13.8823 29.043 14.0009 29.0224 14.1146 28.9843V28.9969C14.1146 29.4189 14.3499 29.8053 14.724 29.9975C14.6691 29.9856 14.6127 29.9796 14.5564 29.9796C14.0739 29.9765 13.68 30.3671 13.6769 30.8523C13.6738 31.3372 14.0624 31.733 14.5453 31.7362C15.0278 31.7393 15.4217 31.3487 15.4248 30.8635C15.4269 30.5383 15.25 30.2385 14.9649 30.0844C15.0525 30.1072 15.1425 30.119 15.2329 30.1194C15.4419 30.1194 15.6466 30.0603 15.8239 29.9493C15.8719 30.539 16.3864 30.9777 16.9732 30.9295C17.2333 30.9082 17.4766 30.7915 17.6567 30.6022C17.7447 31.159 18.2654 31.5384 18.8196 31.4501C19.1338 31.3997 19.4067 31.2045 19.5562 30.9222C19.6616 31.4466 20.1698 31.7858 20.6916 31.6799C21.1043 31.5961 21.4154 31.2527 21.4592 30.8317C21.494 31.3369 21.9296 31.7184 22.4323 31.6834C22.935 31.6485 23.3146 31.2107 23.2798 30.7056C23.2475 30.2322 22.8609 29.8619 22.3888 29.8518C22.4719 29.7644 22.5414 29.6649 22.5953 29.5566C22.8908 29.8609 23.3323 29.9713 23.7352 29.8417C23.3396 30.1107 23.236 30.6507 23.5034 31.048C23.7707 31.4452 24.3085 31.5496 24.7038 31.281C25.0994 31.012 25.203 30.4719 24.9356 30.0747C24.7754 29.8364 24.508 29.6935 24.2219 29.6925C24.1378 29.6932 24.0544 29.7072 23.9744 29.7334C24.2327 29.5761 24.417 29.3208 24.4854 29.0252C24.6773 29.1898 24.9214 29.2799 25.1738 29.2792C25.7623 29.2782 26.2393 28.7988 26.2404 28.2074C26.2404 28.1994 26.2379 28.191 26.2379 28.1843C26.4107 28.3108 26.6189 28.3789 26.8327 28.3786C27.3942 28.3793 27.8496 27.9223 27.8503 27.3581V27.3574C27.851 27.2568 27.836 27.1569 27.8061 27.0608C28.2466 27.3602 28.8449 27.2439 29.1428 26.8013C29.3803 26.4481 29.3601 25.9803 29.0924 25.6495C29.2565 25.7944 29.4675 25.8744 29.6862 25.8744C30.1917 25.8744 30.6012 25.4629 30.6012 24.955C30.6012 24.447 30.1917 24.0355 29.6862 24.0355C29.4508 24.0355 29.2249 24.1277 29.0563 24.2922C29.0535 24.1714 29.0333 24.0515 28.9965 23.9366H29.0069C29.4268 23.9366 29.8117 23.7001 30.0032 23.3245C29.9921 23.3797 29.9862 23.436 29.9859 23.4922C29.9803 23.9782 30.3676 24.3764 30.8508 24.382C31.334 24.3876 31.7307 23.9984 31.7362 23.5128C31.7418 23.0269 31.3545 22.6286 30.8713 22.6231C30.5469 22.6192 30.2473 22.796 30.0922 23.0821C30.1148 22.9941 30.1263 22.9039 30.127 22.8131C30.126 22.6031 30.0672 22.3974 29.9567 22.2192C30.5431 22.171 30.9798 21.6543 30.9321 21.065C30.9109 20.8036 30.7948 20.5591 30.606 20.3778C31.1602 20.2884 31.5374 19.7643 31.4484 19.2078C31.398 18.8934 31.2047 18.6202 30.9252 18.4696C31.4466 18.3652 31.7853 17.8555 31.6813 17.3315C31.5986 16.915 31.2554 16.6013 30.8351 16.558C31.3431 16.5259 31.7289 16.0864 31.6969 15.576C31.665 15.0656 31.2276 14.6778 30.7197 14.7099C30.2118 14.7421 29.8259 15.1816 29.8579 15.692C29.8857 16.1384 30.2275 16.5011 30.6697 16.5535C30.1406 16.5853 29.7369 17.0419 29.7686 17.5736C29.7884 17.9068 29.9782 18.2062 30.2702 18.3648C29.7182 18.4606 29.3479 18.9881 29.4432 19.5428C29.4786 19.75 29.5774 19.9411 29.7251 20.0899C29.1421 20.1685 28.7329 20.7072 28.8112 21.2931C28.8299 21.4342 28.8769 21.5701 28.9485 21.6931C28.3551 21.7245 27.8899 22.2171 27.8892 22.8141C27.8892 22.9245 27.9063 23.0346 27.9396 23.1397C27.9226 23.1373 27.9056 23.1362 27.8885 23.1359C27.2426 23.1359 26.7191 23.6624 26.7187 24.3115C26.7187 24.3398 26.7204 24.3677 26.7236 24.3956C26.6627 24.3855 26.6012 24.3803 26.5397 24.3803C25.9334 24.3796 25.4192 24.8274 25.3337 25.4304C25.2252 25.4011 25.1133 25.3857 25.0007 25.3847C24.5074 25.3854 24.0585 25.6725 23.8496 26.1214C23.3733 25.7312 22.6728 25.8028 22.2845 26.2811C22.2219 26.3579 22.1701 26.4432 22.1298 26.534C21.712 26.0774 21.0045 26.0477 20.5501 26.4676C20.4584 26.5525 20.3812 26.6524 20.3221 26.7628C19.9355 26.2769 19.2301 26.1983 18.7469 26.5868C18.7073 26.6189 18.6694 26.6535 18.6343 26.6905C18.3777 26.1239 17.7127 25.873 17.1488 26.1309C17.0845 26.1602 17.0233 26.1955 16.9656 26.2364C16.8293 25.6295 16.2289 25.2484 15.6251 25.3854C15.5514 25.4021 15.4794 25.4262 15.4106 25.4577C15.3929 24.8376 14.8783 24.3495 14.2613 24.3674C14.2112 24.3687 14.1615 24.3736 14.1121 24.3817C14.2526 23.7766 13.8782 23.1715 13.2757 23.0304C13.1964 23.0119 13.1154 23.0021 13.0344 23.001C13.2809 22.4327 13.0219 21.771 12.4563 21.5233C12.4083 21.5023 12.3586 21.4845 12.3082 21.4705C12.6858 20.9783 12.5947 20.2712 12.1048 19.8918C12.0656 19.8614 12.0242 19.8335 11.9811 19.8087C12.4727 19.4297 12.5651 18.7219 12.1879 18.2279C12.1431 18.1692 12.0927 18.1151 12.0374 18.0665C12.3298 17.9184 12.5439 17.6501 12.6239 17.3311C12.7031 17.0143 12.6406 16.6782 12.4525 16.4116C13.0553 16.2754 13.4339 15.6738 13.2987 15.068C13.2886 15.023 13.2757 14.9786 13.2601 14.9353C13.8785 14.9671 14.4055 14.4892 14.4372 13.8677C14.441 13.7926 14.4372 13.7171 14.4261 13.6427C15.0278 13.7912 15.6359 13.4212 15.7836 12.8165C15.7968 12.7623 15.8062 12.7075 15.8111 12.6519C16.359 12.9408 17.0358 12.7288 17.3233 12.1782C17.3463 12.1345 17.3661 12.0891 17.3831 12.0427C17.6171 12.2561 17.9303 12.3592 18.2446 12.3256C18.588 12.2928 18.8967 12.1007 19.0789 11.8065C19.4321 12.3145 20.1281 12.4388 20.6339 12.0839C20.6854 12.0479 20.7337 12.0074 20.7782 11.963C21.0062 12.5391 21.656 12.82 22.2289 12.5908C22.2995 12.5625 22.3669 12.5272 22.4305 12.4853C22.4935 12.8172 22.701 13.1036 22.9961 13.2654H22.9941C23.2385 13.4009 23.5249 13.439 23.7961 13.373C23.8263 13.4149 23.8586 13.4554 23.892 13.4932C23.9063 13.7422 24.0043 13.9791 24.1701 14.165C24.1774 14.173 24.1854 14.1807 24.1938 14.1877C24.765 14.7882 26.0905 16.246 25.8426 18.1978C25.7797 18.6841 26.0512 18.9297 26.3989 18.5538C28.5039 16.2736 28.1743 13.4729 28.127 13.1473C28.1159 12.9387 28.0696 12.7337 27.9907 12.5405C28.0154 12.4196 28.0279 12.297 28.0283 12.1737C28.0283 11.6084 27.7655 11.0757 27.318 10.733C27.3386 10.625 27.3493 10.5153 27.3497 10.4056C27.3497 9.69783 26.9224 9.06097 26.2692 8.79616C26.2539 7.99126 25.666 7.31387 24.8748 7.18916C24.7368 6.4405 24.0874 5.89726 23.3299 5.89657C23.3014 5.89657 23.2753 5.89936 23.2451 5.90041C23.0462 5.28381 22.4747 4.86633 21.8298 4.86633C21.7033 4.86633 21.5774 4.8831 21.455 4.91594C21.1314 4.20362 20.2946 3.8899 19.5858 4.2148C19.5746 4.22004 19.5635 4.22528 19.5524 4.23087C19.1787 3.59296 18.3614 3.38055 17.7266 3.75575C17.6741 3.78685 17.6237 3.82178 17.5757 3.85986C17.1749 3.3002 16.3986 3.17304 15.8413 3.57584C15.7492 3.64222 15.6668 3.72117 15.5962 3.81025C15.1982 3.31488 14.4758 3.23767 13.9828 3.63802C13.8427 3.75191 13.7311 3.89724 13.6574 4.06213C13.2823 3.61462 12.6173 3.55767 12.1723 3.93462C11.9658 4.10964 11.8337 4.35768 11.8038 4.62738C11.4826 4.20572 10.8818 4.12537 10.4622 4.44816C10.0426 4.77096 9.96267 5.37464 10.2839 5.7963C10.465 6.03421 10.7459 6.1736 11.0442 6.1736ZM4.60063 31.0347C4.55996 31.0354 4.52728 31.0689 4.52797 31.1098C4.52797 31.1503 4.56031 31.1839 4.60063 31.1849C4.642 31.1845 4.67537 31.1514 4.67642 31.1098C4.67607 31.0682 4.642 31.0343 4.60063 31.0347ZM3.735 29.3005C3.65331 29.3002 3.58691 29.3662 3.58656 29.4483C3.58656 29.4483 3.58656 29.4483 3.58656 29.4486C3.58656 29.5307 3.65296 29.5975 3.73465 29.5975C3.81635 29.5975 3.88275 29.5307 3.88275 29.4486C3.88275 29.3669 3.81739 29.3009 3.73604 29.3005C3.7357 29.3005 3.73535 29.3005 3.735 29.3005ZM3.04563 27.4839C2.92256 27.4839 2.82279 27.5838 2.82244 27.7075C2.82244 27.8311 2.92186 27.9314 3.04493 27.9318C3.16765 27.9318 3.26742 27.8322 3.26812 27.7089C3.26812 27.5852 3.16869 27.4846 3.04563 27.4839ZM2.54189 25.6051C2.37815 25.6054 2.2457 25.7392 2.24605 25.9038C2.24639 26.0683 2.37954 26.2014 2.54328 26.2011C2.70667 26.2007 2.83913 26.0673 2.83913 25.9031C2.83913 25.7385 2.70702 25.6054 2.54328 25.6051C2.54293 25.6051 2.54224 25.6051 2.54189 25.6051ZM2.60099 24.0564C2.60169 23.8503 2.43586 23.683 2.23075 23.6823C2.02564 23.6816 1.85912 23.8482 1.85843 24.0543C1.85773 24.2605 2.02356 24.4278 2.22867 24.4285C2.22936 24.4285 2.23006 24.4285 2.23075 24.4285C2.43516 24.4281 2.60064 24.2618 2.60099 24.0564ZM2.56101 22.1846C2.56032 21.9376 2.36042 21.7375 2.11464 21.7382C1.86885 21.7388 1.66966 21.9397 1.67035 22.1867C1.67105 22.433 1.8692 22.6325 2.11429 22.6332C2.36007 22.6342 2.55997 22.4348 2.56101 22.1878C2.56101 22.1867 2.56101 22.1857 2.56101 22.1846ZM1.67696 20.3132C1.67696 20.6014 1.90953 20.8347 2.19633 20.8344C2.48314 20.834 2.71537 20.6007 2.71502 20.3125C2.71502 20.0249 2.48279 19.7916 2.19668 19.7912C1.91057 19.7902 1.678 20.0225 1.67696 20.31C1.67696 20.3111 1.67696 20.3121 1.67696 20.3132ZM2.47549 19.0558C2.80332 19.0551 3.06892 18.7875 3.06822 18.4581C3.06753 18.1287 2.80123 17.8618 2.47341 17.8625C2.14593 17.8632 1.88067 18.1301 1.88067 18.4592C1.88067 18.7886 2.14593 19.0555 2.47375 19.0558C2.47445 19.0558 2.4748 19.0558 2.47549 19.0558ZM2.98653 15.9858C2.61768 15.9851 2.31836 16.2852 2.31766 16.6558C2.31697 17.0265 2.61559 17.3273 2.98444 17.328C3.35329 17.3287 3.65261 17.0286 3.65331 16.6579C3.65331 16.6576 3.65331 16.6572 3.65331 16.6569C3.65331 16.2866 3.35503 15.9865 2.98653 15.9858ZM3.72735 15.6829C4.13757 15.6839 4.47061 15.3507 4.47166 14.9384C4.4727 14.5262 4.14105 14.1915 3.73083 14.1905C3.32061 14.1894 2.98757 14.5227 2.98653 14.9349C2.98653 14.9356 2.98653 14.9363 2.98653 14.937C2.98653 15.3482 3.31818 15.6818 3.72735 15.6829Z" fill="#1F774D"/>
<path d="M4.57928 14.0974C5.03182 14.0964 5.39782 13.7216 5.39678 13.2599C5.39573 12.7983 5.02833 12.4249 4.57579 12.426C4.12361 12.4271 3.75795 12.8011 3.7583 13.2624C3.75795 13.7233 4.12361 14.0971 4.57545 14.0974C4.57684 14.0974 4.57789 14.0974 4.57928 14.0974ZM6.63889 11.7689C6.63889 11.2657 6.23904 10.8574 5.74569 10.8571C5.25233 10.8567 4.85213 11.2649 4.85178 11.7682C4.85178 12.2715 5.25163 12.6798 5.74499 12.6801C6.23835 12.6801 6.6382 12.2722 6.63889 11.7689ZM52.5996 26.3075C51.6506 26.3118 50.7106 26.1182 49.8377 25.738C48.9971 25.3714 48.2337 24.8432 47.5893 24.1819C46.9466 23.5153 46.4337 22.7301 46.0782 21.8684C45.3343 20.0581 45.3343 18.0194 46.0782 16.2091C46.7913 14.4697 48.1374 13.0798 49.8342 12.3317C51.6108 11.5522 53.6244 11.5561 55.3982 12.342C56.251 12.7267 57.0241 13.2734 57.6766 13.9526C57.8193 14.1042 57.9268 14.2864 57.9906 14.4864C58.0709 14.7278 58.0374 14.9929 57.8999 15.2058C57.7391 15.4517 57.5046 15.587 57.2021 15.6073H57.1923C56.8605 15.6073 56.6285 15.5083 56.4415 15.3133C55.9048 14.8545 55.3197 14.4587 54.6969 14.1327C54.0483 13.7878 53.3271 13.6087 52.5954 13.6112C51.8892 13.6087 51.1904 13.755 50.5421 14.0401C49.9158 14.3181 49.3478 14.7167 48.8701 15.2147C48.396 15.7162 48.0171 16.3031 47.7536 16.9459C47.202 18.2856 47.202 19.7958 47.7536 21.1355C48.2801 22.4304 49.2818 23.4644 50.5449 24.0164C51.1925 24.3015 51.891 24.4471 52.5965 24.4435C53.3348 24.4481 54.0657 24.2951 54.7423 23.994C55.3912 23.7025 55.975 23.2786 56.4572 22.7482C56.6065 22.5788 56.804 22.4614 57.0217 22.4119C57.0915 22.3944 57.1627 22.3852 57.2345 22.3845C57.4013 22.3852 57.5639 22.4382 57.7003 22.5365C57.9247 22.7144 58.052 22.991 58.0437 23.2807C58.0437 23.5715 57.9568 23.8146 57.7858 24.0079C57.1375 24.7315 56.348 25.3084 55.4677 25.7017C54.564 26.1064 53.5867 26.3128 52.5996 26.3075Z" fill="#1F774D"/>
<path d="M67.6376 26.3076C66.6868 26.3115 65.7451 26.1159 64.8701 25.7322C64.0307 25.3643 63.2675 24.8347 62.6216 24.1712C61.9786 23.506 61.4641 22.7213 61.1046 21.859C60.3645 20.0373 60.3645 17.9862 61.1046 16.1645C61.4658 15.299 61.9803 14.5104 62.6216 13.8387C63.2661 13.1709 64.0293 12.6373 64.8701 12.2672C66.6386 11.5006 68.6331 11.5006 70.4016 12.2672C72.1065 13.012 73.4642 14.4093 74.188 16.1645C74.9337 17.9851 74.9337 20.0384 74.188 21.859C73.8303 22.7253 73.3126 23.5117 72.6643 24.1752C72.0112 24.8347 71.2444 25.3633 70.4033 25.7336C69.529 26.117 68.588 26.3126 67.6376 26.3076ZM67.6376 13.5719C66.932 13.569 66.2334 13.7125 65.583 13.994C64.9553 14.2637 64.3856 14.6582 63.9064 15.1551C63.4292 15.6568 63.0485 16.2469 62.7841 16.8941C62.2409 18.2491 62.2409 19.7702 62.7841 21.1251C63.927 23.8745 67.0102 25.1597 69.6894 24.0044C70.3181 23.7325 70.8913 23.3406 71.3782 22.8493C72.8861 21.2812 73.3322 18.9345 72.51 16.8966C72.2424 16.2487 71.8585 15.6589 71.3779 15.158C70.893 14.6625 70.3202 14.2677 69.6904 13.9951C69.0407 13.7139 68.3425 13.5697 67.6376 13.5719Z" fill="#1F774D"/>
<path d="M87.2833 26.3073C86.7785 26.3087 86.368 25.8934 86.3666 25.3801V17.0816C86.3701 16.6175 86.2783 16.158 86.0975 15.732C85.7402 14.8895 85.0785 14.2185 84.249 13.8576C83.4027 13.4882 82.4443 13.4882 81.5979 13.8576C81.192 14.0368 80.8231 14.2933 80.512 14.6135C80.2013 14.9376 79.9519 15.3177 79.7764 15.7337C79.5956 16.1594 79.5028 16.6182 79.5039 17.0816V25.3748C79.5081 25.6234 79.4107 25.8631 79.2348 26.0359C79.0646 26.2115 78.8313 26.3091 78.5889 26.3059C78.0845 26.3087 77.6732 25.8955 77.6704 25.3826C77.6704 25.3801 77.6704 25.3772 77.6704 25.3748V17.0816C77.6672 16.3667 77.8063 15.6586 78.0785 14.9993C78.3391 14.3617 78.7213 13.7828 79.2026 13.2959C79.6829 12.8072 80.2511 12.4171 80.8763 12.1471C82.1844 11.574 83.6672 11.5747 84.9748 12.1489C86.2366 12.6939 87.2423 13.7144 87.7804 14.9968C88.0606 15.6547 88.2035 16.3646 88.2007 17.0816V25.3748C88.2053 25.622 88.1097 25.8603 87.9366 26.0341C87.7643 26.2111 87.5285 26.3098 87.2833 26.3073ZM96.2888 26.3073C95.6138 26.3116 94.9429 26.1951 94.3075 25.9636C93.7123 25.7456 93.1596 25.4221 92.6758 25.0075C92.2152 24.6128 91.8389 24.1266 91.5699 23.5784C91.3005 23.0327 91.1622 22.4297 91.1653 21.8191C91.1653 21.329 91.5562 20.9315 92.0383 20.9315C92.5203 20.9315 92.9112 21.329 92.9112 21.8191C92.9098 22.18 92.9963 22.5355 93.1627 22.8543C93.3368 23.1852 93.5761 23.4758 93.8651 23.7091C94.1873 23.9628 94.5489 24.1601 94.9349 24.2926C95.3644 24.4369 95.8138 24.5088 96.266 24.5063C96.7232 24.5081 97.1775 24.4351 97.6115 24.2898C98.0081 24.1558 98.3808 23.9574 98.715 23.7024C99.0145 23.4769 99.2607 23.1866 99.4359 22.8521C99.5988 22.5404 99.6716 22.1882 99.6461 21.8362C99.6205 21.4993 99.514 21.174 99.3364 20.8884C99.1441 20.5767 98.8999 20.301 98.6151 20.0737C98.3027 19.824 97.9555 19.6224 97.5856 19.475C97.1905 19.3136 96.7796 19.1964 96.3595 19.1252C95.7539 19.0824 95.1563 18.9613 94.5807 18.765C94.0402 18.5852 93.5288 18.3258 93.0618 17.9956C92.6362 17.6975 92.273 17.316 91.9938 16.8736C91.7181 16.4376 91.5734 15.9293 91.5769 15.411C91.5748 14.8931 91.709 14.3841 91.9654 13.9367C92.2313 13.4765 92.5882 13.0768 93.0131 12.7634C93.4465 12.4349 93.9589 12.1735 94.5415 11.9797C95.7504 11.5964 97.0458 11.5964 98.2547 11.9797C98.8309 12.1731 99.3448 12.4346 99.782 12.7634C100.229 13.1039 100.579 13.4964 100.828 13.9367C101.087 14.3834 101.222 14.8928 101.22 15.411C101.221 15.924 100.813 16.3404 100.309 16.3414C100.307 16.3414 100.305 16.3414 100.304 16.3414C100.056 16.3461 99.8191 16.2399 99.6559 16.0508C99.4968 15.8727 99.4085 15.6333 99.3886 15.3384C99.3732 15.1104 99.2916 14.892 99.1539 14.7114C98.9812 14.4792 98.7675 14.2822 98.5233 14.1301C98.2252 13.9431 97.9016 13.8021 97.5628 13.7109C97.1838 13.6065 96.7932 13.5538 96.4005 13.5545C95.9963 13.5527 95.5934 13.6051 95.2029 13.7109C94.8641 13.7996 94.5408 13.9403 94.2441 14.1283C93.9999 14.2879 93.7898 14.4959 93.6269 14.7399C93.4867 14.9426 93.4107 15.1845 93.41 15.4324C93.41 15.6618 93.4941 15.8677 93.6707 16.0643C93.8812 16.2965 94.1302 16.4896 94.4063 16.6342C94.7272 16.8077 95.0638 16.9495 95.4113 17.0578C95.7444 17.1643 96.0856 17.2416 96.4317 17.2893C97.0924 17.3612 97.7401 17.5255 98.3566 17.7769C98.9654 18.0316 99.4996 18.3515 99.9428 18.728C100.39 19.1027 100.757 19.5676 101.019 20.0926C101.281 20.6209 101.415 21.205 101.411 21.7963C101.414 22.4097 101.275 23.0156 101.005 23.5645C100.74 24.1156 100.363 24.6036 99.8993 24.9961C98.8849 25.8514 97.6066 26.3158 96.2888 26.3073ZM105.532 26.3073C105.028 26.3098 104.617 25.8962 104.615 25.3833C104.615 25.3808 104.615 25.3787 104.615 25.3762V12.6504C104.612 12.4018 104.709 12.1625 104.884 11.9883C105.054 11.8105 105.289 11.7119 105.532 11.7165H113.169C113.672 11.7143 114.081 12.1275 114.083 12.6391C114.083 12.643 114.083 12.6465 114.083 12.6504C114.088 12.8973 113.991 13.1349 113.817 13.3069C113.647 13.484 113.412 13.5823 113.169 13.5791H106.449V18.0345H111.207C111.713 18.0345 112.123 18.4519 112.123 18.9667C112.123 19.4814 111.713 19.8988 111.207 19.8988H106.449V24.4419H113.17C113.672 24.4387 114.082 24.8494 114.085 25.3594C114.085 25.3644 114.085 25.3698 114.085 25.3748C114.089 25.6223 113.993 25.861 113.819 26.0341C113.648 26.2108 113.414 26.3091 113.17 26.3059L105.532 26.3073ZM126.159 26.3073C125.653 26.3094 125.242 25.8941 125.24 25.3797C125.24 25.3787 125.24 25.3772 125.24 25.3762V17.0816C125.243 16.6175 125.152 16.158 124.971 15.732C124.614 14.8899 123.953 14.2192 123.124 13.8576C122.278 13.4882 121.32 13.4882 120.474 13.8576C120.067 14.0354 119.699 14.2922 119.389 14.6135C119.077 14.9376 118.827 15.3166 118.649 15.732C118.47 16.1587 118.378 16.6178 118.38 17.0816V25.3748C118.38 25.8891 117.97 26.3062 117.464 26.3062C116.958 26.3062 116.548 25.8891 116.548 25.3748V17.0816C116.544 14.9316 117.805 12.9881 119.751 12.1464C121.061 11.5744 122.544 11.5751 123.853 12.1489C124.477 12.4186 125.044 12.8079 125.523 13.2959C126.003 13.7846 126.387 14.3617 126.654 14.9968C126.934 15.6547 127.077 16.3646 127.074 17.0816V25.3748C127.078 25.8863 126.673 26.3037 126.17 26.3073C126.166 26.3073 126.163 26.3073 126.159 26.3073ZM135.165 26.3073C134.49 26.3112 133.819 26.1951 133.184 25.9636C132.588 25.7463 132.035 25.4218 131.551 25.0061C131.091 24.6103 130.714 24.1248 130.443 23.5777C130.175 23.0316 130.037 22.4293 130.039 21.8191C130.038 21.584 130.13 21.3582 130.294 21.1933C130.636 20.8456 131.191 20.8453 131.533 21.1933C131.696 21.3593 131.789 21.5844 131.789 21.8195C131.787 22.1793 131.873 22.5344 132.039 22.8525C132.211 23.1837 132.45 23.4751 132.739 23.7074C133.061 23.9628 133.423 24.1608 133.81 24.2933C134.24 24.4379 134.69 24.5102 135.144 24.507C135.601 24.5088 136.055 24.4358 136.489 24.2905C136.885 24.1569 137.257 23.9585 137.591 23.7031C137.889 23.4758 138.135 23.1855 138.312 22.8525C138.475 22.5412 138.548 22.1892 138.522 21.8373C138.496 21.5007 138.389 21.1755 138.213 20.8894C138.02 20.5774 137.776 20.3013 137.491 20.0741C137.179 19.8237 136.832 19.6224 136.461 19.4764C136.066 19.3139 135.654 19.1968 135.233 19.1266C134.628 19.0842 134.031 18.9631 133.457 18.7665C132.916 18.5873 132.404 18.328 131.937 17.9974C131.511 17.6989 131.149 17.3174 130.869 16.8754C130.594 16.4394 130.449 15.9311 130.451 15.4128C130.452 14.8952 130.586 14.3869 130.84 13.9385C131.107 13.4779 131.465 13.0786 131.891 12.7651C132.326 12.4367 132.838 12.1753 133.416 11.9815C134.625 11.5986 135.92 11.5986 137.129 11.9815C137.707 12.1749 138.22 12.4364 138.657 12.7651C139.082 13.0782 139.439 13.4779 139.704 13.9385C139.961 14.3859 140.096 14.8945 140.096 15.4128C140.098 15.6614 139.999 15.9001 139.824 16.0732C139.656 16.2513 139.422 16.3493 139.179 16.3432C138.93 16.3482 138.692 16.2413 138.529 16.0508C138.372 15.8766 138.282 15.6369 138.264 15.3437C138.248 15.1157 138.166 14.8974 138.029 14.7168C137.855 14.4845 137.641 14.2868 137.396 14.1337C137.098 13.9463 136.775 13.8049 136.437 13.7144C136.057 13.6079 135.665 13.5556 135.272 13.5581C134.868 13.5566 134.465 13.6093 134.074 13.7144C133.736 13.8021 133.414 13.9431 133.119 14.1319C132.875 14.2915 132.665 14.4995 132.501 14.7435C132.361 14.9462 132.285 15.188 132.284 15.436C132.284 15.6661 132.37 15.8712 132.543 16.0679C132.756 16.2994 133.006 16.4921 133.283 16.6378C133.604 16.812 133.941 16.9537 134.29 17.0613C134.621 17.1671 134.961 17.2448 135.305 17.2928C135.967 17.3644 136.615 17.5283 137.232 17.7805C137.806 18.0131 138.341 18.334 138.82 18.7316C139.264 19.1066 139.63 19.5697 139.893 20.093C140.156 20.6219 140.292 21.2072 140.288 21.7999C140.29 22.4126 140.152 23.0178 139.885 23.5667C139.617 24.117 139.239 24.6046 138.776 24.9982C137.762 25.8517 136.485 26.3148 135.168 26.3066L135.165 26.3077V26.3073ZM148.97 26.3073C148.465 26.3098 148.055 25.8962 148.052 25.3833V20.6326L142.411 13.22C142.259 13.0323 142.188 12.7908 142.213 12.5493C142.228 12.3046 142.346 12.078 142.536 11.927C142.701 11.7881 142.91 11.7126 143.124 11.7133C143.443 11.7357 143.653 11.8518 143.811 12.0502L148.974 18.801L154.236 12.051C154.385 11.8554 154.609 11.7339 154.851 11.7168H154.867C155.147 11.7168 155.344 11.7881 155.512 11.9238C155.705 12.0755 155.826 12.3035 155.844 12.5507C155.862 12.7926 155.789 13.0327 155.639 13.2211L149.887 20.6344V25.3748C149.892 25.623 149.795 25.8624 149.62 26.0359C149.448 26.2122 149.214 26.3105 148.97 26.3073ZM162.745 26.3073C162.07 26.3112 161.398 26.1951 160.762 25.9636C160.167 25.7456 159.615 25.4218 159.132 25.0075C158.672 24.6114 158.296 24.1252 158.024 23.5784C157.756 23.0331 157.618 22.4307 157.621 21.8209C157.621 21.3311 158.011 20.9336 158.492 20.9329C158.725 20.9329 158.948 21.0269 159.112 21.1951C159.278 21.3596 159.37 21.5855 159.368 21.8209C159.367 22.1814 159.452 22.5369 159.617 22.856C159.792 23.187 160.032 23.478 160.322 23.7109C160.643 23.9653 161.005 24.1626 161.391 24.2944C161.82 24.439 162.27 24.5113 162.722 24.5081C163.179 24.5102 163.634 24.4369 164.068 24.2915C164.465 24.1576 164.837 23.9592 165.171 23.7042C165.469 23.4765 165.715 23.1859 165.892 22.8521C166.057 22.5412 166.13 22.1885 166.103 21.8362C166.075 21.5 165.97 21.1751 165.795 20.8884C165.601 20.5774 165.356 20.3021 165.072 20.0737C164.759 19.8244 164.412 19.6228 164.043 19.476C163.647 19.3147 163.235 19.1975 162.814 19.1262C162.209 19.0842 161.611 18.9631 161.037 18.7661C160.495 18.5866 159.983 18.3273 159.515 17.9967C159.09 17.6982 158.728 17.3167 158.449 16.8747C158.174 16.4383 158.03 15.9304 158.034 15.4125C158.032 14.8952 158.165 14.3866 158.419 13.9381C158.687 13.4779 159.044 13.0786 159.47 12.7648C159.904 12.4364 160.416 12.1749 160.996 11.9811C162.206 11.5979 163.501 11.5979 164.711 11.9811C165.258 12.1568 165.772 12.4214 166.235 12.7648C166.662 13.0765 167.02 13.4758 167.286 13.9363C167.542 14.3841 167.676 14.8928 167.676 15.4107C167.675 15.9254 167.264 16.3418 166.758 16.3411C166.51 16.3468 166.274 16.2403 166.112 16.0504C165.953 15.8759 165.86 15.6365 165.841 15.3416C165.827 15.1136 165.746 14.8952 165.609 14.7146C165.436 14.4806 165.221 14.2826 164.974 14.1315C164.677 13.9445 164.355 13.8035 164.017 13.7123C163.638 13.6061 163.246 13.5534 162.852 13.5559C162.448 13.5541 162.045 13.6069 161.655 13.7123C161.317 13.7999 160.995 13.9406 160.7 14.1298C160.454 14.2879 160.244 14.4963 160.082 14.7414C159.941 14.944 159.865 15.1855 159.864 15.4338C159.864 15.6632 159.946 15.8691 160.123 16.0657C160.335 16.2976 160.585 16.4903 160.862 16.6357C161.183 16.8098 161.519 16.9516 161.867 17.0592C162.2 17.165 162.54 17.2426 162.886 17.2907C163.547 17.3623 164.195 17.5265 164.812 17.7784C165.419 18.033 165.952 18.3511 166.399 18.7294C166.846 19.1041 167.212 19.5686 167.475 20.094C167.736 20.6226 167.871 21.2065 167.868 21.7978C167.87 22.4108 167.731 23.0156 167.463 23.5645C167.196 24.1152 166.818 24.6029 166.355 24.9961C165.34 25.8506 164.063 26.3148 162.745 26.3073Z" fill="#1F774D"/>
</svg>
