<svg width="157" height="74" viewBox="0 0 157 74" fill="none" xmlns="http://www.w3.org/2000/svg">
<g clip-path="url(#clip0_2534_10)">
<g clip-path="url(#clip1_2534_10)">
<path fill-rule="evenodd" clip-rule="evenodd" d="M0 17H41V42.4712L24.9382 26.225L22.7652 24.052L20.5922 26.225L11.9412 34.958L12.4127 35.45L14.6062 37.6332L16.769 35.45L20.5922 31.5857L22.7652 29.382L24.9382 31.5857L41 47.8217V58H0V52.3625L3.82325 48.5187L7.462 44.8287L9.635 42.625L11.8285 44.8287L13.1097 46.11L24.9485 58H30.2682L27.1933 54.925L15.744 43.4142L12.3 39.9293L11.8285 39.4475L9.635 37.2437L7.462 39.4372L1.1685 45.8435L0 47.012V17Z" fill="#1F774D"/>
<path d="M46.2967 19.3062H46.2326C46.2261 18.8953 46.0787 18.4991 45.815 18.1839C45.7024 18.039 45.5582 17.9217 45.3935 17.8409C45.2288 17.76 45.0478 17.7179 44.8643 17.7175H44.5875V17.4612H46.2967V19.3062ZM46.2967 33.2898V35.1323H44.5875V34.876H44.8643C45.0479 34.8762 45.2291 34.8343 45.3939 34.7534C45.5587 34.6726 45.7028 34.5549 45.815 34.4096C46.0801 34.0953 46.2278 33.6985 46.2326 33.2872L46.2967 33.2898ZM49.4358 17.4536V35.1348H46.2326V17.4536H49.4358ZM55.3295 17.4536V18.5375H49.3717V17.4536H55.3295ZM54.2815 25.8842V26.9451H49.3717V25.8842H54.2815ZM49.3717 33.2796H49.4358C49.4386 33.6907 49.5855 34.0879 49.8509 34.4019C49.9631 34.5473 50.1072 34.6649 50.272 34.7457C50.4368 34.8266 50.618 34.8685 50.8016 34.8683H51.0783V35.1246H49.3717V33.2796ZM54.2815 23.5113V25.9354H52.2545V25.8842C52.5057 25.8807 52.753 25.8212 52.9782 25.7099C53.2034 25.5986 53.4009 25.4384 53.5563 25.241C53.9069 24.8011 54.0887 24.2503 54.0688 23.6881V23.5113H54.2815ZM54.2815 26.8938V29.3179H54.0688V29.1155C54.0896 28.5579 53.9075 28.0116 53.5563 27.578C53.399 27.3836 53.2008 27.2263 52.9758 27.1174C52.7508 27.0084 52.5045 26.9504 52.2545 26.9476V26.8964L54.2815 26.8938ZM55.3295 17V17.7329L52.7235 17.4536C53.0562 17.4516 53.3884 17.4268 53.7177 17.3792C54.0662 17.328 54.3891 17.2691 54.6889 17.2024C54.9096 17.1603 55.1247 17.0923 55.3295 17ZM55.3295 18.4632V21.2666H55.1143V21.0103C55.1468 20.3642 54.9468 19.7279 54.5505 19.2166C54.3624 18.995 54.126 18.8195 53.8595 18.7035C53.5929 18.5876 53.3034 18.5343 53.013 18.5477V18.4709L55.3295 18.4632Z" fill="#1F774D"/>
<path d="M64.1471 19.6496C65.2047 19.6353 66.2555 19.8196 67.2452 20.1928C68.1475 20.5387 68.9635 21.0774 69.636 21.7713C70.317 22.4878 70.8407 23.3389 71.1735 24.2698C71.5516 25.3301 71.7365 26.4497 71.7193 27.5754C71.7386 28.6861 71.5572 29.7912 71.1837 30.8374C70.8484 31.7641 70.325 32.6112 69.6462 33.3256C68.9729 34.018 68.1572 34.5558 67.2554 34.9016C65.2615 35.6258 63.0763 35.6258 61.0823 34.9016C60.1774 34.5586 59.3581 34.0225 58.6813 33.3308C57.9988 32.6173 57.4749 31.7676 57.1438 30.8374C56.7742 29.7885 56.5937 28.6823 56.6108 27.5703C56.594 26.4474 56.7744 25.3303 57.1438 24.2698C57.473 23.3372 57.9971 22.4854 58.6813 21.7713C59.3538 21.0774 60.1697 20.5387 61.0721 20.1928C62.0541 19.8208 63.0971 19.6366 64.1471 19.6496ZM64.1471 34.4659C64.9845 34.4776 65.796 34.176 66.4226 33.6203C67.1207 32.9714 67.6329 32.1478 67.9063 31.2346C68.2749 30.0508 68.448 28.8149 68.4188 27.5754C68.4481 26.3233 68.275 25.0746 67.9063 23.8777C67.632 22.9589 67.1161 22.1305 66.4124 21.4792C65.7858 20.9235 64.9742 20.622 64.1368 20.6336C63.3097 20.6236 62.5092 20.9255 61.8947 21.4792C61.1961 22.1348 60.6811 22.9616 60.4007 23.8777C60.021 25.0726 59.8409 26.3219 59.8677 27.5754C59.841 28.8163 60.0212 30.0529 60.4007 31.2346C60.683 32.1462 61.1979 32.9684 61.8947 33.6203C62.5118 34.1764 63.3165 34.4785 64.1471 34.4659Z" fill="#1F774D"/>
<path d="M74.0999 21.5433H74.0563C74.0596 21.1922 73.9337 20.852 73.7027 20.5875C73.609 20.4741 73.4916 20.3826 73.3588 20.3193C73.226 20.256 73.081 20.2225 72.9339 20.2211H72.6469V19.9648H74.1844L74.0999 21.5433ZM74.0999 33.5307L74.1844 35.122H72.6469V34.8658H72.9032C73.0573 34.8662 73.2095 34.8313 73.3481 34.7638C73.4867 34.6963 73.608 34.5979 73.7027 34.4763C73.9263 34.2105 74.0512 33.8755 74.0563 33.5282L74.0999 33.5307ZM77.1313 19.9777V35.122H74.0358V19.9777H77.1313ZM79.2249 19.9777C79.8006 19.9767 80.374 20.0491 80.9315 20.1929C81.4677 20.3269 81.9749 20.5579 82.428 20.8745C82.8784 21.1971 83.2413 21.6269 83.4837 22.125C83.7663 22.7469 83.9014 23.4257 83.8783 24.1084C83.8771 24.7062 83.7722 25.2992 83.5683 25.8612C83.371 26.4305 83.0417 26.9451 82.6073 27.3628C82.137 27.8025 81.5465 28.0923 80.911 28.1956C81.3751 28.3847 81.7835 28.6889 82.0974 29.0797C82.4341 29.4633 82.7303 29.8806 82.9815 30.325C83.0378 30.4583 83.1378 30.6735 83.2813 30.9682C83.4248 31.2629 83.6042 31.5986 83.8271 31.9778C84.05 32.3571 84.2781 32.7466 84.519 33.1515C84.7416 33.5184 84.9918 33.8679 85.2672 34.197C85.4387 34.416 85.66 34.591 85.9127 34.7073C86.1654 34.8237 86.4422 34.878 86.7202 34.8658V35.122H84.9264C84.2689 35.1345 83.6123 35.0665 82.9712 34.9196C82.4532 34.7944 81.9759 34.5386 81.5849 34.1765C81.1435 33.7488 80.7786 33.2487 80.5061 32.6979C80.378 32.4801 80.2498 32.2162 80.0987 31.9035C79.9475 31.5909 79.8142 31.2783 79.6733 30.958C79.5324 30.6377 79.4042 30.3276 79.2992 30.0227C79.2076 29.7715 79.1323 29.5147 79.0737 29.2539C78.9486 28.8226 78.7338 28.4227 78.4433 28.0803C78.3645 27.9791 78.2664 27.8945 78.1547 27.8316C78.043 27.7687 77.9198 27.7287 77.7924 27.7138V27.5063H78.328C78.6332 27.5052 78.935 27.4415 79.2146 27.3192C79.5449 27.1552 79.822 26.9011 80.0141 26.5863C80.3013 26.0945 80.4828 25.5481 80.5471 24.9822C80.5827 24.8416 80.6084 24.6986 80.624 24.5543C80.6411 24.3445 80.6411 24.1337 80.624 23.9239C80.6163 23.4103 80.5183 22.902 80.3344 22.4223C80.2051 22.0908 79.9966 21.7961 79.7271 21.5638C79.5088 21.3836 79.2584 21.2462 78.9891 21.159C78.7786 21.0907 78.5594 21.0527 78.3382 21.0462C78.0924 21.0338 77.8461 21.0338 77.6002 21.0462C77.4336 21.0565 77.2664 21.0522 77.1005 21.0334C77.0852 21.0334 77.0647 20.9463 77.0365 20.7772C77.0083 20.608 76.9647 20.3441 76.9084 20.0084L79.2249 19.9777ZM77.0877 33.5307H77.1313C77.12 33.7123 77.1476 33.8942 77.2121 34.0643C77.2766 34.2344 77.3766 34.3888 77.5054 34.5173C77.7149 34.7355 78.0024 34.8618 78.3049 34.8683H78.5202V35.1246H76.9827L77.0877 33.5307Z" fill="#1F774D"/>
<path d="M87.5939 21.5689H87.5529C87.5506 21.2172 87.4255 20.8773 87.1993 20.608C87.1026 20.4896 86.9806 20.3943 86.8422 20.3291C86.7039 20.2639 86.5527 20.2305 86.3998 20.2313H86.1205V19.9751H87.7015L87.5939 21.5689ZM87.5939 33.5307L87.7015 35.122H86.1205V34.8658H86.3998C86.554 34.8662 86.7062 34.8313 86.8447 34.7638C86.9833 34.6963 87.1046 34.5979 87.1993 34.4763C87.4219 34.2098 87.5466 33.8753 87.5529 33.5281L87.5939 33.5307ZM90.6279 19.9776V35.122H87.5529V19.9776H90.6279ZM95.858 19.9776V20.9873H90.5844V19.9776H95.858ZM94.897 27.1219V28.1315H90.5844V27.1219H94.897ZM95.6248 34.1124L96.1142 35.122H90.5844V34.1124H95.6248ZM96.9906 30.4788L96.1783 35.122H92.4857L93.1469 34.1124C93.7217 34.123 94.2878 33.9701 94.7792 33.6716C95.2815 33.3515 95.7026 32.919 96.0092 32.4083C96.3719 31.8105 96.6382 31.1594 96.7984 30.4788H96.9906ZM94.897 24.9438V27.1629H93.0623V27.1219C93.2921 27.1209 93.5186 27.0667 93.724 26.9636C93.9294 26.8604 94.1081 26.7111 94.2462 26.5274C94.5462 26.1239 94.7006 25.6308 94.6844 25.1283V24.9438H94.897ZM94.897 28.0726V30.2943H94.6844V30.0918C94.7022 29.5923 94.5475 29.1018 94.2462 28.7029C94.1061 28.5225 93.9266 28.3764 93.7214 28.276C93.5162 28.1757 93.2907 28.1236 93.0623 28.1238V28.0726H94.897ZM95.858 19.5907V20.198L93.6158 19.9699C94.0541 19.9673 94.491 19.921 94.9201 19.8316C95.2384 19.7786 95.552 19.7006 95.858 19.5984V19.5907ZM95.858 20.9283V23.6138H95.6453V23.3858C95.6786 22.7634 95.4978 22.1484 95.1328 21.6433C94.9589 21.4311 94.7387 21.2616 94.489 21.1479C94.2393 21.0341 93.9669 20.9792 93.6927 20.9873V20.936L95.858 20.9283Z" fill="#1F774D"/>
<path d="M102.095 19.6496C102.38 19.6496 102.723 19.6675 103.12 19.7008C103.517 19.7341 103.927 19.7726 104.327 19.8136C104.727 19.8546 105.078 19.9058 105.383 19.9648C105.597 20.0002 105.808 20.0551 106.013 20.1288L105.736 23.2038H105.544C105.564 22.8661 105.514 22.5281 105.398 22.2104C105.282 21.8927 105.103 21.602 104.87 21.3562C104.414 20.9026 103.761 20.6746 102.905 20.6746C102.307 20.6466 101.72 20.8349 101.249 21.205C101.04 21.3806 100.872 21.5997 100.756 21.8471C100.64 22.0945 100.579 22.3642 100.578 22.6375C100.546 22.9192 100.594 23.2042 100.716 23.46C100.841 23.7079 101.015 23.927 101.229 24.1032C101.466 24.2999 101.712 24.4846 101.967 24.6567L105.319 27.0962C105.898 27.4445 106.366 27.9525 106.664 28.5594C107.007 29.2826 107.155 30.083 107.092 30.881C107.072 31.7433 106.833 32.5862 106.398 33.3308C105.986 34.0125 105.385 34.5599 104.668 34.9067C103.856 35.2854 102.968 35.4714 102.072 35.45C101.498 35.454 100.926 35.3947 100.365 35.2731C99.8932 35.1753 99.4364 35.0141 99.0073 34.794C98.6764 34.6274 98.3826 34.3955 98.1437 34.1123C98.0212 33.7162 97.9709 33.3014 97.9951 32.8875C98.0086 32.4029 98.0731 31.921 98.1873 31.4499C98.2782 31.0339 98.4211 30.6309 98.6127 30.2506H98.7844C98.7343 30.9673 98.8546 31.6856 99.1354 32.3468C99.3914 32.9655 99.818 33.4988 100.365 33.8843C100.937 34.2731 101.617 34.4721 102.308 34.4531C103.133 34.4531 103.752 34.2259 104.166 33.7715C104.569 33.3416 104.791 32.7725 104.786 32.1828C104.791 31.7456 104.66 31.3175 104.412 30.9579C104.078 30.5218 103.661 30.1567 103.184 29.8842L100.15 27.6138C99.4702 27.2055 98.9331 26.5969 98.6127 25.8713C98.2884 25.1252 98.1673 24.3065 98.2616 23.4985C98.3065 22.7723 98.5141 22.0656 98.8689 21.4305C99.18 20.8746 99.6384 20.4153 100.194 20.1031C100.779 19.7935 101.433 19.6375 102.095 19.6496ZM106.023 19.8776L106.003 20.3312H103.717V19.8776H106.023Z" fill="#1F774D"/>
<path d="M109.739 21.569H109.675C109.681 21.3927 109.652 21.2169 109.59 21.0519C109.527 20.887 109.432 20.7361 109.311 20.608C109.203 20.4888 109.072 20.3936 108.925 20.3287C108.778 20.2638 108.619 20.2306 108.458 20.2313H108.181V19.9751H109.739V21.569ZM109.739 33.5307V35.122H108.181V34.8658H108.458C108.62 34.8663 108.78 34.8317 108.927 34.7645C109.074 34.6972 109.205 34.5989 109.311 34.4763C109.552 34.2204 109.683 33.8797 109.675 33.5282L109.739 33.5307ZM112.75 19.9777V35.122H109.675V19.9777H112.75ZM112.706 21.569V19.9777H114.244L114.223 20.2339H113.988C113.825 20.2312 113.664 20.2634 113.515 20.3284C113.366 20.3934 113.233 20.4896 113.124 20.6106C112.885 20.8726 112.752 21.2142 112.75 21.569H112.706ZM112.706 33.5307H112.75C112.755 33.8818 112.888 34.2189 113.124 34.4788C113.231 34.6033 113.363 34.7028 113.512 34.7701C113.662 34.8375 113.824 34.871 113.988 34.8683H114.244V35.1246H112.706V33.5307Z" fill="#1F774D"/>
<path d="M122.252 19.6496C122.913 19.65 123.573 19.6962 124.227 19.788C124.853 19.8753 125.47 20.0107 126.075 20.1929C126.585 20.3411 127.076 20.5483 127.538 20.8104V24.8233H127.366C127.207 23.9191 126.857 23.0589 126.341 22.2992C125.952 21.7433 125.421 21.3011 124.804 21.018C124.204 20.7628 123.557 20.6337 122.905 20.6387C121.993 20.6113 121.1 20.9062 120.384 21.4715C119.651 22.1116 119.117 22.9485 118.846 23.8829C118.475 25.1136 118.302 26.3955 118.334 27.6805C118.31 28.9006 118.468 30.1175 118.803 31.291C119.044 32.1813 119.52 32.9903 120.181 33.6332C120.787 34.1863 121.583 34.4846 122.403 34.466C122.85 34.4702 123.293 34.383 123.705 34.2097C124.122 34.0295 124.494 33.7591 124.794 33.4179C125.118 33.0527 125.345 32.6122 125.455 32.1367L125.478 29.1078C125.488 28.9691 125.471 28.8296 125.427 28.6976C125.383 28.5657 125.313 28.4438 125.222 28.339C125.13 28.2511 125.021 28.1829 124.901 28.1389C124.782 28.0948 124.654 28.0757 124.527 28.0828H124.227V27.8547H129.716V28.0828H129.44C128.812 28.0828 128.507 28.4185 128.52 29.0924V32.4493C128.149 32.9944 127.678 33.4647 127.133 33.8356C126.451 34.3197 125.703 34.7029 124.912 34.9734C124.016 35.2901 123.073 35.4513 122.124 35.45C120.821 35.4644 119.537 35.129 118.408 34.4788C117.342 33.8338 116.488 32.8903 115.953 31.7651C115.337 30.4383 115.037 28.9866 115.077 27.5242C115.036 26.0658 115.336 24.6181 115.953 23.296C116.494 22.1687 117.356 21.2263 118.431 20.5875C119.596 19.9335 120.917 19.6092 122.252 19.6496Z" fill="#1F774D"/>
<path d="M131.328 21.569H131.264C131.277 21.2169 131.155 20.8732 130.923 20.608C130.823 20.49 130.699 20.3951 130.559 20.33C130.418 20.265 130.266 20.2313 130.111 20.2313H129.855V19.9751H131.328V21.569ZM131.328 33.5307V35.122H129.855V34.8658H130.111C130.267 34.8657 130.421 34.8307 130.561 34.7633C130.702 34.6959 130.826 34.5978 130.923 34.4763C131.152 34.214 131.273 33.8757 131.264 33.5282L131.328 33.5307ZM134.339 19.9777V35.122H131.264V19.9777H134.339ZM140.148 27.0707V28.0803H134.147V27.0707H140.148ZM134.296 21.569V19.9777H135.748V20.2339H135.513C135.358 20.2339 135.206 20.2676 135.066 20.3327C134.926 20.3977 134.802 20.4926 134.703 20.6106C134.47 20.8769 134.341 21.2179 134.339 21.5715L134.296 21.569ZM134.296 33.5307H134.339C134.346 33.8796 134.474 34.2152 134.703 34.4788C134.8 34.6003 134.923 34.6984 135.064 34.7658C135.204 34.8332 135.357 34.8683 135.513 34.8683H135.748V35.1246H134.296V33.5307ZM140.02 21.569H139.977C139.975 21.2175 139.851 20.8776 139.626 20.608C139.525 20.4881 139.399 20.392 139.257 20.3269C139.114 20.2617 138.959 20.2291 138.803 20.2313H138.567V19.9751H140.02V21.569ZM140.02 33.5307V35.122H138.567V34.8658H138.803C138.961 34.8686 139.117 34.8349 139.26 34.7673C139.403 34.6998 139.528 34.6002 139.626 34.4763C139.847 34.2096 139.971 33.875 139.977 33.5282L140.02 33.5307ZM143.031 19.9777V35.122H139.977V19.9777H143.031ZM142.967 33.5307H143.031C143.035 33.8778 143.159 34.2127 143.382 34.4788C143.48 34.6027 143.605 34.7023 143.748 34.7699C143.891 34.8375 144.047 34.8712 144.205 34.8683H144.44V35.1246H142.967V33.5307ZM142.988 21.569V19.9777H144.461V20.2339H144.225C144.067 20.2324 143.911 20.2654 143.767 20.3304C143.623 20.3955 143.496 20.4911 143.392 20.6106C143.16 20.8757 143.039 21.2195 143.052 21.5715L142.988 21.569Z" fill="#1F774D"/>
<path d="M144.953 19.5753C145.138 19.6419 145.327 19.6967 145.519 19.7393C145.776 19.7983 146.032 19.8469 146.349 19.8905C146.63 19.9296 146.912 19.9501 147.195 19.952L144.953 20.2083V19.5753ZM157.338 19.952V20.9616H144.953V19.952H157.338ZM147.131 20.8873V20.9616C146.857 20.9526 146.584 21.0065 146.334 21.1193C146.084 21.2322 145.863 21.4009 145.688 21.6125C145.327 22.1098 145.146 22.7154 145.176 23.3294V23.5574H144.943V20.8873H147.131ZM149.629 33.5307V35.122H148.197V34.8658H148.412C148.57 34.8682 148.726 34.8343 148.868 34.7667C149.01 34.6992 149.135 34.5998 149.232 34.4763C149.456 34.2104 149.581 33.8755 149.586 33.5281L149.629 33.5307ZM152.681 20.0545V35.122H149.586V20.0545H152.681ZM152.617 33.5307H152.681C152.673 33.8804 152.8 34.2198 153.035 34.4788C153.135 34.6002 153.261 34.698 153.403 34.7653C153.545 34.8326 153.7 34.8678 153.858 34.8683H154.091V35.1246H152.617V33.5307ZM157.338 19.5753V20.2057L155.075 19.9494C155.367 19.9479 155.659 19.9273 155.949 19.8879C156.261 19.8444 156.548 19.7957 156.804 19.7368C156.987 19.7011 157.166 19.647 157.338 19.5753ZM157.338 20.8873V23.5626H157.102V23.3345C157.147 22.7187 156.965 22.1077 156.589 21.6176C156.413 21.4082 156.192 21.2406 155.943 21.1271C155.694 21.0137 155.423 20.9571 155.149 20.9616V20.8873H157.338Z" fill="#1F774D"/>
<path d="M50.4505 41.4207H46.6555C46.4919 40.9306 46.1892 40.4987 45.7842 40.1779C45.4894 39.9507 45.1312 39.8208 44.7592 39.8063H44.5875V39.55H51.4422V39.8063H51.25C51.1042 39.8122 50.962 39.8539 50.836 39.9276C50.71 40.0013 50.604 40.1049 50.5274 40.2291C50.3258 40.511 50.3002 40.9082 50.4505 41.4207ZM53.1232 58.0001L45.9892 39.7038H49.8458L54.4583 53.0544L53.1232 58.0001ZM53.1232 58.0001L53.0566 54.8738L58.5326 39.6269H60.083L54.3737 54.6432C54.343 54.7457 54.2763 54.9379 54.1687 55.2197C54.0611 55.5016 53.9406 55.8219 53.8125 56.1807C53.6844 56.5394 53.5716 56.8854 53.4768 57.2057C53.4002 57.461 53.3462 57.7225 53.3154 57.9872L53.1232 58.0001ZM57.8869 41.4207C58.0714 40.9082 58.0509 40.511 57.8203 40.2291C57.7356 40.1056 57.6235 40.0032 57.4929 39.9298C57.3623 39.8565 57.2165 39.8143 57.0669 39.8063H56.8721V39.55H61.4846V39.8063H61.2899C60.9255 39.8233 60.5754 39.9532 60.288 40.1779C59.883 40.4987 59.5803 40.9306 59.4167 41.4207H57.8869Z" fill="#1F774D"/>
<path d="M63.2733 43.7269H63.2297C63.2304 43.3708 63.1052 43.0258 62.8761 42.7531C62.7791 42.6319 62.6558 42.5343 62.5155 42.4678C62.3752 42.4012 62.2216 42.3673 62.0664 42.3688H61.787V42.1125H63.3809L63.2733 43.7269ZM63.2733 55.8731L63.3809 57.4875H61.787V57.2313H62.0664C62.2227 57.2312 62.3769 57.1954 62.5173 57.1265C62.6576 57.0577 62.7804 56.9577 62.8761 56.8341C63.1003 56.5636 63.2251 56.2245 63.2297 55.8731H63.2733ZM66.3483 42.1125V57.4875H63.2297V42.1125H66.3483ZM71.627 42.1125V43.1375H66.2919V42.1125H71.627ZM70.6584 49.3644V50.3894H66.3022V49.3644H70.6584ZM71.3913 56.4625L71.8859 57.4875H66.2919V56.4625H71.3913ZM72.7699 52.7725L71.9499 57.4875H68.2087L68.8775 56.4625C69.459 56.4729 70.0315 56.3174 70.5277 56.0141C71.034 55.6887 71.4578 55.2501 71.7654 54.7328C72.1318 54.125 72.4007 53.4636 72.5624 52.7725H72.7699ZM70.6584 47.1606V49.4157H68.8032V49.3644C69.0357 49.3639 69.2649 49.3092 69.4727 49.2047C69.6804 49.1002 69.8609 48.9487 69.9999 48.7622C70.3036 48.3516 70.4598 47.8505 70.4432 47.34V47.1606H70.6584ZM70.6584 50.3382V52.5931H70.4432V52.3882C70.4609 51.8815 70.3045 51.384 69.9999 50.9788C69.859 50.7953 69.6778 50.6466 69.4703 50.5444C69.2628 50.4422 69.0345 50.3892 68.8032 50.3894V50.3382H70.6584ZM71.627 41.7281V42.3431L69.3644 42.1125C70.1332 42.0943 70.8953 41.9648 71.627 41.7281ZM71.627 43.0863V45.8025H71.4118V45.5719C71.4455 44.9416 71.2648 44.3184 70.8993 43.8038C70.7237 43.5889 70.5012 43.4172 70.2489 43.3017C69.9966 43.1862 69.7212 43.1301 69.4438 43.1375V43.0863H71.627Z" fill="#1F774D"/>
<path d="M75.6886 55.9244V57.4875H74.0947V57.2313H74.4381C74.5967 57.2335 74.7539 57.2014 74.8989 57.1373C75.044 57.0732 75.1735 56.9785 75.2786 56.8597C75.5118 56.6052 75.636 56.2694 75.6245 55.9244H75.6886ZM75.5938 41.7538L78.5688 45.5975V57.4875H75.6245V44.675C75.6169 43.6976 75.545 42.7218 75.4093 41.7538H75.5938ZM75.5938 41.7538L88.2449 54.9763L88.4627 57.8207L75.85 44.5982L75.5938 41.7538ZM78.5688 55.9244C78.5717 56.2706 78.7022 56.6037 78.9353 56.8597C79.0372 56.9771 79.1632 57.071 79.3047 57.1351C79.4462 57.1993 79.5999 57.2321 79.7553 57.2313H80.1217V57.4875H78.5253V55.9244H78.5688ZM85.4876 43.6757C85.4847 43.3313 85.3583 42.9994 85.1314 42.7403C85.0294 42.6218 84.9027 42.5271 84.7601 42.4629C84.6176 42.3987 84.4626 42.3666 84.3063 42.3688H83.9399V42.1125H85.5363V43.6757H85.4876ZM88.4473 42.1125V54.8225C88.4473 55.4205 88.4652 55.9458 88.5011 56.3985C88.537 56.8512 88.5908 57.3252 88.6625 57.8207H88.4704L85.4953 53.7463V42.1125H88.4473ZM88.3832 43.6757V42.1125H90.0002V42.3688H89.6337C89.4769 42.3684 89.3218 42.4013 89.1787 42.4654C89.0355 42.5294 88.9077 42.6231 88.8035 42.7403C88.6844 42.8644 88.5915 43.0111 88.5303 43.1718C88.4691 43.3325 88.4409 43.5038 88.4473 43.6757H88.3832Z" fill="#1F774D"/>
<path d="M91.0764 41.7025C91.2629 41.7709 91.4538 41.8265 91.6478 41.8691C91.9041 41.928 92.1783 41.9793 92.4883 42.0228C92.7701 42.0639 93.0544 42.0853 93.3391 42.0869L91.0764 42.3431V41.7025ZM103.579 42.0869V43.1119H91.0764V42.0869H103.579ZM93.275 43.035V43.1119C92.9976 43.1042 92.7222 43.1603 92.4698 43.2758C92.2175 43.3913 91.995 43.5632 91.8195 43.7781C91.4561 44.2841 91.2754 44.8985 91.307 45.5206V45.7513H91.0687V43.035H93.275ZM95.7965 55.8731V57.4875H94.3538V57.2313H94.5691C94.7286 57.2328 94.8864 57.1978 95.0303 57.1289C95.1742 57.0601 95.3004 56.9592 95.3993 56.8341C95.6236 56.5636 95.7484 56.2244 95.753 55.8731H95.7965ZM98.8715 42.1894V57.4875H95.7453V42.1894H98.8715ZM98.8075 55.8731H98.8715C98.8626 56.2273 98.9902 56.5713 99.2277 56.8341C99.3293 56.9581 99.4572 57.0581 99.6021 57.1268C99.747 57.1955 99.9053 57.2312 100.066 57.2313H100.301V57.4875H98.8152L98.8075 55.8731ZM103.571 41.7025V42.3431L101.285 42.0869C101.581 42.0856 101.877 42.0642 102.169 42.0228C102.486 41.9801 102.773 41.9289 103.03 41.8691C103.219 41.8335 103.403 41.7777 103.579 41.7025H103.571ZM103.571 43.035V45.7513H103.333V45.5206C103.38 44.8967 103.198 44.2769 102.82 43.7781C102.643 43.5655 102.421 43.3953 102.17 43.28C101.918 43.1647 101.644 43.1073 101.367 43.1119V43.035H103.571Z" fill="#1F774D"/>
<path d="M106.249 42.1125V43.445H106.208C106.206 43.1526 106.098 42.8706 105.906 42.6507C105.82 42.5525 105.714 42.4742 105.595 42.4211C105.476 42.368 105.347 42.3414 105.216 42.3432H104.914V42.1125H106.249ZM109.311 42.1125V51.7732C109.311 53.3448 109.616 54.5748 110.226 55.4632C110.502 55.8878 110.882 56.2337 111.332 56.4672C111.781 56.7008 112.283 56.8139 112.788 56.7957C113.298 56.8195 113.805 56.7174 114.265 56.4984C114.726 56.2794 115.125 55.9502 115.428 55.54C116.053 54.7013 116.373 53.5396 116.389 52.055V42.1125H117.811V51.9013C117.811 53.7292 117.34 55.1728 116.399 56.2319C115.458 57.2911 114.125 57.8207 112.402 57.8207C110.316 57.8207 108.764 57.2954 107.745 56.2447C106.727 55.1941 106.215 53.7548 106.208 51.9269V42.1125H109.311ZM110.592 42.1125V42.3432H110.27C110.142 42.3429 110.017 42.3702 109.901 42.4233C109.786 42.4764 109.683 42.554 109.601 42.6507C109.409 42.8696 109.309 43.1542 109.321 43.445H109.278V42.1125H110.592ZM116.432 42.1125V43.445H116.391C116.389 43.1526 116.282 42.8706 116.089 42.6507C116.006 42.554 115.904 42.4764 115.788 42.4233C115.673 42.3702 115.547 42.3429 115.42 42.3432H115.108V42.1125H116.432ZM119.085 42.1125V42.3432H118.805C118.673 42.3418 118.542 42.3685 118.421 42.4215C118.3 42.4745 118.192 42.5526 118.103 42.6507C117.906 42.8672 117.802 43.1525 117.814 43.445H117.77V42.1125H119.085Z" fill="#1F774D"/>
<path d="M122.308 43.7013H122.265C122.264 43.3487 122.138 43.0079 121.908 42.7404C121.813 42.6245 121.692 42.5312 121.556 42.467C121.42 42.4028 121.272 42.3693 121.122 42.3688H120.842V42.1126H122.393L122.308 43.7013ZM122.308 55.8732L122.393 57.4876H120.842V57.2313H121.099C121.255 57.2312 121.409 57.1954 121.55 57.1266C121.69 57.0577 121.813 56.9577 121.908 56.8341C122.134 56.564 122.259 56.2248 122.265 55.8732H122.308ZM125.368 42.1126V57.4876H122.231V42.1126H125.368ZM127.479 42.1126C128.061 42.1112 128.641 42.1844 129.204 42.3304C129.745 42.4673 130.256 42.7018 130.713 43.0223C131.171 43.3528 131.537 43.7935 131.779 44.3035C132.065 44.9345 132.202 45.6228 132.179 46.3151C132.177 46.9222 132.071 47.5245 131.866 48.096C131.666 48.677 131.334 49.2034 130.895 49.6335C130.421 50.0793 129.825 50.3737 129.183 50.4791C129.651 50.6715 130.062 50.9802 130.377 51.376C130.718 51.7626 131.018 52.1833 131.272 52.6316C131.331 52.7674 131.431 52.9853 131.574 53.2851C131.718 53.5849 131.902 53.9257 132.125 54.3101C132.348 54.6944 132.581 55.0788 132.825 55.5016C133.049 55.8745 133.301 56.23 133.578 56.5651C133.76 56.7866 133.988 56.9658 134.247 57.0904C134.499 57.197 134.77 57.2494 135.044 57.2441V57.5004H133.235C132.571 57.5121 131.909 57.4433 131.262 57.2954C130.738 57.1668 130.257 56.9066 129.862 56.5394C129.416 56.1056 129.048 55.5986 128.773 55.0404C128.623 54.7784 128.486 54.509 128.363 54.2332C128.22 53.9189 128.076 53.5985 127.933 53.2723C127.789 52.9468 127.664 52.6316 127.556 52.3241C127.463 52.0732 127.387 51.8164 127.328 51.5554C127.202 51.1182 126.985 50.7123 126.693 50.3638C126.614 50.2613 126.515 50.1756 126.402 50.1118C126.289 50.048 126.165 50.0073 126.037 49.9923V49.7616H126.588C126.896 49.7603 127.2 49.6948 127.482 49.5694C127.817 49.4047 128.097 49.1466 128.289 48.8263C128.58 48.3274 128.765 47.7732 128.83 47.1991C128.865 47.056 128.89 46.9104 128.904 46.7635C128.922 46.5504 128.922 46.336 128.904 46.1229C128.898 45.6016 128.8 45.0855 128.614 44.5982C128.483 44.2625 128.272 43.9636 127.999 43.7269C127.78 43.5437 127.528 43.4045 127.256 43.3169C127.044 43.2467 126.822 43.2079 126.598 43.2016C126.35 43.1892 126.102 43.1892 125.855 43.2016C125.684 43.2122 125.512 43.2079 125.342 43.1888C125.306 43.1079 125.284 43.0211 125.278 42.9326C125.25 42.7532 125.206 42.4918 125.15 42.1638L127.479 42.1126ZM125.324 55.8732H125.368C125.357 56.0569 125.385 56.2408 125.45 56.4129C125.515 56.5851 125.615 56.7417 125.744 56.8726C125.956 57.0938 126.246 57.2228 126.552 57.2313H126.769V57.4876H125.217L125.324 55.8732Z" fill="#1F774D"/>
<path d="M136.791 43.7269H136.748C136.745 43.3709 136.62 43.0267 136.392 42.7531C136.295 42.6323 136.172 42.5349 136.032 42.4683C135.892 42.4017 135.739 42.3677 135.584 42.3688H135.3V42.1125H136.896L136.791 43.7269ZM136.791 55.8731L136.899 57.4875H135.3V57.2313H135.582C135.738 57.2308 135.892 57.1948 136.031 57.126C136.171 57.0571 136.294 56.9573 136.389 56.8341C136.614 56.5639 136.74 56.2248 136.745 55.8731H136.791ZM139.851 42.1125V57.4875H136.748V42.1125H139.851ZM145.132 42.1125V43.1375H139.807V42.1125H145.132ZM144.161 49.3644V50.3894H139.805V49.3644H144.161ZM144.894 56.4625L145.389 57.4875H139.807V56.4625H144.894ZM146.273 52.7725L145.455 57.4875H141.727L142.393 56.4625C142.975 56.4729 143.547 56.3174 144.043 56.0141C144.55 55.6894 144.974 55.2506 145.281 54.7328C145.648 54.1251 145.918 53.4637 146.08 52.7725H146.273ZM144.161 47.1606V49.4157H142.308V49.3644C142.539 49.3642 142.766 49.311 142.973 49.2088C143.18 49.1065 143.36 48.9581 143.5 48.775C143.802 48.3635 143.957 47.8628 143.941 47.3528V47.1735L144.161 47.1606ZM144.161 50.3382V52.5931H143.946V52.3882C143.963 51.8819 143.808 51.3849 143.505 50.9788C143.364 50.7956 143.183 50.6471 142.975 50.545C142.768 50.4428 142.54 50.3896 142.308 50.3894V50.3382H144.161ZM145.132 41.7281V42.3431L142.867 42.1125C143.309 42.1104 143.749 42.0632 144.182 41.9716C144.504 41.9141 144.822 41.8328 145.132 41.7281ZM145.132 43.0863V45.8025H144.915V45.5719C144.948 44.9416 144.768 44.3184 144.402 43.8038C144.227 43.5888 144.004 43.417 143.752 43.3014C143.499 43.1859 143.224 43.1299 142.947 43.1375V43.0863H145.132Z" fill="#1F774D"/>
<path d="M152.287 41.7794C152.574 41.7794 152.922 41.7974 153.332 41.8307C153.742 41.864 154.147 41.9024 154.55 41.946C154.952 41.9896 155.318 42.0408 155.616 42.0997C155.833 42.134 156.047 42.1898 156.254 42.2663L155.972 45.3926H155.777C155.795 45.0503 155.743 44.7079 155.625 44.3863C155.506 44.0647 155.324 43.7706 155.088 43.5219C154.628 43.0607 153.968 42.8301 153.107 42.8301C152.503 42.801 151.909 42.9922 151.436 43.3682C151.227 43.5447 151.057 43.7641 150.94 44.0117C150.823 44.2594 150.761 44.5293 150.757 44.8032C150.725 45.0883 150.772 45.3767 150.895 45.636C151.019 45.8871 151.193 46.1097 151.408 46.2894C151.631 46.4765 151.879 46.6661 152.151 46.8532L155.544 49.3388C156.13 49.6933 156.602 50.2093 156.902 50.8251C157.249 51.5598 157.397 52.3726 157.332 53.1826C157.312 54.0568 157.072 54.9118 156.633 55.6682C156.217 56.3598 155.61 56.9161 154.885 57.2697C154.068 57.6538 153.172 57.8424 152.269 57.8207C151.689 57.8253 151.111 57.7652 150.544 57.6413C150.068 57.5418 149.608 57.378 149.176 57.1544C148.84 56.9866 148.543 56.7511 148.302 56.4626C148.179 56.0605 148.127 55.6397 148.151 55.2197C148.167 54.7276 148.232 54.2382 148.346 53.7591C148.438 53.337 148.583 52.9281 148.776 52.5419H148.948C148.898 53.269 149.02 53.9976 149.304 54.6688C149.563 55.292 149.993 55.8293 150.544 56.2191C151.121 56.6129 151.807 56.8146 152.505 56.7957C153.338 56.7957 153.964 56.5651 154.38 56.1038C154.788 55.6654 155.011 55.0877 155.006 54.4894C155.011 54.0462 154.88 53.6122 154.629 53.2466C154.292 52.8047 153.87 52.4345 153.389 52.1576L150.329 49.8513C149.637 49.439 149.09 48.8209 148.766 48.0832C148.439 47.3252 148.316 46.4947 148.41 45.6744C148.457 44.9372 148.667 44.2196 149.025 43.5732C149.341 43.0127 149.807 42.5513 150.37 42.2407C150.959 41.9263 151.619 41.7675 152.287 41.7794ZM156.254 42.0101L156.231 42.4713H153.924V42.0101H156.254Z" fill="#1F774D"/>
</g>
</g>
<defs>
<clipPath id="clip0_2534_10">
<rect width="157" height="74" fill="white"/>
</clipPath>
<clipPath id="clip1_2534_10">
<rect width="157.337" height="41" fill="white" transform="translate(0 17)"/>
</clipPath>
</defs>
</svg>
