<svg width="165" height="74" viewBox="0 0 165 74" fill="none" xmlns="http://www.w3.org/2000/svg">
<path d="M52.7166 50.5303H59.237V29.5204H65.1839V23.5049H46.7697V29.5204H52.7166V50.5303Z" fill="#1F774D"/>
<path d="M24.6495 40.657C24.1957 43.4627 21.6162 45.4149 18.3786 45.4149C14.165 45.4149 10.7377 41.7119 10.7377 37.1612C10.7377 32.3377 14.0424 28.8361 18.5945 28.8361C21.123 28.8361 23.2284 29.9449 24.8508 32.1305L30.5964 29.1337C27.9162 25.1769 23.6311 23 18.5216 23C14.5414 23 10.8836 24.3904 8.22094 26.9175C5.49841 29.4985 4 33.1241 4 37.1262C4 41.1283 5.48382 44.5774 8.18008 47.1278C10.818 49.6241 14.4145 51 18.3057 51C26.73 51 31.9621 45.5039 31.9621 36.6579V35.5782H18.9549V40.5491H24.6495V40.6585V40.657Z" fill="#1F774D"/>
<path d="M43.2009 23.5049H36.6805V50.5303H43.2009V23.5049Z" fill="#1F774D"/>
<path d="M130.608 23.5049H124.087V50.5303H130.608V23.5049Z" fill="#1F774D"/>
<path d="M155.78 40.6527L142.046 23.5049H136.606V50.5303H143.018L142.909 33.2759L156.639 50.5303H161.937V23.5049H155.561L155.78 40.6527Z" fill="#1F774D"/>
<path d="M86.8328 31.1485C87.4879 29.1001 88.4873 27.1931 89.8048 25.4773C87.3828 23.8797 84.5188 23.0364 81.5161 23.0364C73.3529 23.0364 66.9581 29.1613 66.9581 36.9817C66.9581 44.802 73.1706 50.9984 81.4082 50.9984C84.4473 50.9984 87.3332 50.1741 89.7581 48.6129C88.4552 46.8971 87.4675 44.9785 86.8211 42.9053C85.3913 44.2446 83.4741 44.9815 81.4082 44.9815C79.3422 44.9815 77.4163 44.1921 75.9821 42.7579C74.507 41.2828 73.6943 39.2446 73.6943 37.0167C73.6943 32.5506 77.1143 29.0519 81.4797 29.0519C83.5194 29.0519 85.4146 29.796 86.8313 31.1485H86.8328Z" fill="#1F774D"/>
<path d="M115.52 27.0064C112.816 24.4458 109.188 23.0364 105.304 23.0364C100.421 23.0364 95.9035 25.3037 93.2203 29.103C91.6023 31.3951 90.7458 34.1205 90.7458 36.9817C90.7458 39.8428 91.5965 42.736 93.2058 45.0296C95.8276 48.7676 100.31 50.9984 105.196 50.9984C109.132 50.9984 112.79 49.6153 115.494 47.1029C118.264 44.5292 119.791 40.9604 119.791 37.0532C119.791 33.1459 118.275 29.6151 115.52 27.0064ZM105.196 44.9815C103.131 44.9815 101.204 44.1921 99.7699 42.7579C98.2948 41.2828 97.4821 39.2446 97.4821 37.0167C97.4821 32.5506 100.902 29.0519 105.267 29.0519C109.633 29.0519 113.053 32.4923 113.053 37.0532C113.053 41.614 109.675 44.9815 105.196 44.9815Z" fill="#1F774D"/>
</svg>
