<svg width="410" height="410" viewBox="0 0 410 410" fill="none" xmlns="http://www.w3.org/2000/svg">
<path d="M164.115 257.216L164.111 257.225L164.107 257.233C161.371 263.348 153.351 266.182 147.598 262.713C144.203 260.563 142.405 256.958 141.788 252.957C141.172 248.96 141.746 244.619 143.046 241.085C145.325 236.508 148.163 234.495 150.967 234.122C153.796 233.745 156.746 235.016 159.269 237.336C161.786 239.651 163.824 242.965 164.815 246.54C165.806 250.113 165.742 253.909 164.115 257.216Z" stroke="#B3DE9F"/>
<path d="M125.761 114.637C129.831 112.56 134.229 112.17 138.178 115.209L138.441 115.421C141.647 118.011 144.521 122.477 145.464 126.923C145.934 129.14 145.918 131.325 145.251 133.259C144.588 135.183 143.271 136.891 141.079 138.156C138.66 139.535 135.168 140.343 131.427 140.508C127.692 140.673 123.764 140.196 120.495 139.052C117.213 137.903 114.68 136.115 113.593 133.72C112.521 131.358 112.788 128.249 115.455 124.283L115.455 124.283L115.459 124.277C117.82 120.657 121.582 116.769 125.761 114.637Z" stroke="#FBC624"/>
<path d="M212.051 203.751C208.793 202.001 206.552 199.293 206.172 195.552C205.926 189.622 208.632 183.259 213.012 178.806C217.386 174.359 223.368 171.875 229.668 173.558C233.845 174.898 237.355 178.039 239.654 181.939C241.955 185.843 243.02 190.466 242.351 194.723C241.786 198.192 239.394 200.951 236.005 202.898C232.615 204.846 228.274 205.951 223.94 206.118C219.605 206.285 215.325 205.511 212.051 203.751Z" stroke="#FBC624"/>
<path d="M199.409 228.302L199.404 228.309L199.399 228.316C196.112 233.453 190.831 236.516 185.528 236.925C180.24 237.333 174.911 235.107 171.466 229.614L171.46 229.605L171.454 229.597C167.724 224.16 165.624 216.462 169.591 210.843L169.655 210.751C174.433 204.424 183.512 203.281 191.132 204.086C198.512 204.889 202.319 208.327 203.463 212.764C204.623 217.261 203.095 222.951 199.409 228.302Z" stroke="#B3DE9F"/>
<path d="M278.745 162.423L278.745 162.423C279.549 157.022 282.534 151.492 287.816 149.841L287.816 149.841L287.825 149.839C291.372 148.661 294.504 150.038 296.719 152.598C298.947 155.172 300.192 158.893 299.908 162.223L299.908 162.223L299.907 162.234C299.668 166.001 297.818 170.834 295.024 174.906C292.237 178.966 288.593 182.152 284.811 182.848C283.081 182.685 281.789 181.762 280.818 180.328C279.825 178.861 279.18 176.873 278.795 174.681C278.024 170.299 278.317 165.266 278.745 162.423Z" stroke="#67A0F7"/>
<path d="M247.577 278.745L247.578 278.745C252.978 279.549 258.508 282.534 260.159 287.816L260.159 287.816L260.162 287.825C261.34 291.372 259.962 294.504 257.403 296.719C254.828 298.947 251.107 300.192 247.777 299.908L247.777 299.908L247.766 299.907C244 299.668 239.166 297.818 235.094 295.024C231.034 292.237 227.848 288.593 227.152 284.811C227.315 283.081 228.238 281.789 229.672 280.818C231.139 279.825 233.127 279.18 235.32 278.795C239.702 278.025 244.735 278.317 247.577 278.745Z" stroke="#B3DE9F"/>
<path d="M169.437 263.872C169.692 258.402 172.797 253.153 179.092 249.823L179.094 249.825C190.066 243.931 205.655 244.749 213.29 255.35C218.053 262.087 220.47 269.503 219.293 275.361C218.708 278.274 217.233 280.812 214.696 282.72C212.15 284.634 208.502 285.939 203.537 286.315L203.537 286.315L203.532 286.316C194.302 287.112 184.323 285.418 177.065 279.484C171.788 275.13 169.182 269.354 169.437 263.872Z" stroke="#FFCDC6"/>
<path d="M305.431 245.805L305.432 245.802C308.545 247.272 310.3 249.293 311.136 251.6C311.979 253.928 311.908 256.607 311.25 259.407C309.931 265.016 306.299 270.931 303.407 275.053L303.405 275.056C299.862 280.184 294.266 286.92 288.272 290.414C285.28 292.158 282.241 293.065 279.333 292.619C276.441 292.176 273.583 290.379 270.972 286.515L270.972 286.515L270.967 286.507C263.774 276.291 262.537 260.61 271.686 251.34C280.292 242.909 294.491 241.006 305.431 245.805Z" stroke="#67A0F7"/>
<path d="M151.129 266.797L151.129 266.797L151.137 266.8C159.906 269.97 165.268 278.992 166.455 288.044L166.455 288.044L166.456 288.05C167.121 292.697 166.842 298.975 164.873 303.907C163.891 306.368 162.5 308.463 160.628 309.865C158.766 311.259 156.394 311.994 153.384 311.687L153.147 311.662L153.143 311.666C150.302 311.323 146.47 309.941 142.339 307.818C138.103 305.641 133.596 302.707 129.585 299.387C125.57 296.064 122.075 292.371 119.842 288.682C117.612 284.996 116.682 281.384 117.648 278.162C120.035 272.465 125.614 268.567 132.042 266.621C138.476 264.673 145.663 264.713 151.129 266.797Z" stroke="#67A0F7"/>
<path d="M88.1383 296.276L88.1338 296.279C84.835 298.017 81.9314 298.71 79.3473 298.63C76.7662 298.55 74.468 297.699 72.3784 296.29C68.1758 293.457 64.8404 288.389 61.8409 282.89L61.6987 282.63H61.695C59.3737 278.316 56.6364 272.985 55.6513 267.823C55.15 265.197 55.1089 262.643 55.7887 260.307C56.4653 257.981 57.8643 255.841 60.2955 254.04C68.4262 248.371 79.2201 244.574 89.0077 246.835C98.846 250.24 105.015 261.138 107.432 270.952C108.623 276.941 106.24 282.015 102.314 286.24C98.3783 290.477 92.9323 293.812 88.1383 296.276Z" stroke="#FFCDC6"/>
<path d="M66.5806 211.904L66.5806 211.904L66.5727 211.907C62.9034 213.302 58.2364 214.53 54.0238 214.316C49.8356 214.102 46.1653 212.474 44.286 208.214C41.6583 201.539 42.7443 194.517 45.963 188.304C49.1836 182.089 54.5228 176.722 60.3192 173.402C64.1263 171.423 68.8899 169.575 73.6001 168.971C78.3005 168.367 82.8861 169.008 86.4413 171.912C89.1712 175.052 89.9579 179.074 89.6303 183.234C89.3015 187.41 87.852 191.678 86.1797 195.214C82.3033 203.2 74.8565 208.917 66.5806 211.904Z" stroke="#B3DE9F"/>
<path d="M159.784 165.753L159.761 165.748L159.738 165.745C154.967 165.1 150.585 162.273 148.159 158.5C145.746 154.75 145.271 150.08 148.252 145.642C151.503 141.049 157.233 138.958 163.225 138.917C169.212 138.875 175.349 140.882 179.328 144.344C182.252 147.342 183.179 150.299 182.83 152.995C182.479 155.717 180.815 158.27 178.367 160.403C175.922 162.534 172.731 164.212 169.412 165.186C166.09 166.161 162.676 166.42 159.784 165.753Z" stroke="#B3DE9F"/>
<path d="M231.343 129.317C237.394 133.4 241.486 139.509 240.841 147.386L240.833 147.434C239.734 153.834 235.314 158.295 229.659 160.939C223.997 163.585 217.146 164.381 211.323 163.46L211.323 163.46L211.317 163.459C203.298 162.299 196.679 156.438 193.406 149.14L193.406 149.14L193.403 149.133C189.618 141.025 189.562 134.671 192.466 130.357C195.377 126.034 201.389 123.564 210.203 123.539L210.215 123.539L210.227 123.539C217.229 123.19 225.255 125.21 231.343 129.317Z" stroke="#FFCDC6"/>
<path d="M62.9919 129.755C71.1796 122.263 83.6878 121.422 93.6323 125.931L93.6318 125.933C100.686 129.069 103.385 132.863 103.474 136.639C103.564 140.474 100.98 144.539 96.8767 148.224C92.7926 151.892 87.2963 155.097 81.78 157.216C76.2523 159.34 70.7732 160.348 66.7126 159.695L66.6896 159.692L66.6664 159.69C62.5096 159.415 59.6294 157.91 57.7679 155.729C55.8992 153.54 55.0119 150.618 54.9515 147.434C54.8305 141.047 58.0427 133.779 62.9698 129.775L62.9811 129.765L62.9919 129.755Z" stroke="#B3DE9F"/>
<path d="M159.965 180.004L160.145 180.306C167.966 193.421 162.979 211.129 148.558 216.847L148.548 216.851L148.538 216.855C141.651 219.942 135.843 220.411 131.581 218.277C127.337 216.152 124.452 211.356 123.608 203.502L123.608 203.502L123.608 203.498C122.671 195.447 122.84 186.407 128.281 180.145L128.281 180.145L128.288 180.136C132.242 175.378 138.482 172.565 144.611 172.382C150.621 172.202 156.472 174.548 159.965 180.004Z" stroke="#FFCDC6"/>
<path d="M338.127 114.246C341.953 117.109 345.021 121.723 347.607 126.37H347.602L348.01 127.111C350.468 131.578 353.015 136.71 354.136 141.882C355.254 147.04 354.945 152.191 351.751 156.76C348.375 161.25 343.122 164.712 337.407 166.366C331.696 168.02 325.572 167.857 320.435 165.167C312.284 160.264 306.779 151.63 303.359 142.873L303.356 142.865L303.353 142.857C300.366 135.896 302.387 129.76 306.647 124.679C310.923 119.579 317.427 115.588 323.256 113.031L323.256 113.031L323.268 113.025C326.315 111.591 329.034 111.161 331.476 111.448C333.919 111.736 336.122 112.746 338.127 114.246Z" stroke="#FFCDC6"/>
<path d="M274.848 107.095L274.851 107.097C280.467 110.597 287.353 116.247 290.708 122.283C292.381 125.293 293.149 128.349 292.505 131.262C291.863 134.167 289.796 137.032 285.586 139.622C276.586 145.116 267.182 146.128 259.42 143.195C251.664 140.264 245.471 133.366 242.938 122.88C241.053 114.975 240.837 109.235 241.851 105.276C242.855 101.354 245.058 99.1888 248.091 98.3405C251.173 97.4787 255.185 97.9563 259.799 99.527C264.402 101.094 269.542 103.727 274.848 107.095Z" stroke="#B3DE9F"/>
<path d="M196.326 60.3121L196.326 60.3121L196.324 60.3019C195.002 54.4939 195.754 50.3771 197.692 47.6193C199.631 44.8601 202.829 43.3601 206.615 42.9372C214.212 42.0885 223.928 45.6151 229.586 51.5333L229.596 51.5442L229.607 51.5545C237.906 59.2469 243.169 70.3555 243.829 81.6771C244.063 85.7551 242.955 88.3185 241.13 89.8662C239.284 91.4322 236.606 92.0446 233.531 91.993C227.38 91.8896 219.962 89.1338 215.531 86.7666L215.42 86.7076H215.405C205.209 81.6882 198.596 71.3505 196.326 60.3121Z" stroke="#B3DE9F"/>
<path d="M390.78 262.866L390.769 262.866L390.758 262.867C386.658 263.011 379.542 262.271 373.263 260.276C370.124 259.278 367.223 257.976 365.017 256.336C362.827 254.707 361.362 252.777 360.974 250.512C361.2 245.071 364.786 240.096 369.609 236.011C374.435 231.924 380.418 228.8 385.215 227.07L385.215 227.07L385.219 227.068C394.743 223.532 401.751 224.426 405.695 228.335C409.649 232.254 410.74 239.414 407.931 248.913L407.928 248.923L407.926 248.932C405.923 256.863 399.086 262.936 390.78 262.866Z" stroke="#FBC624"/>
<path d="M303.789 366.124C299.272 363.499 295.876 359.564 295.381 354.487C296.058 351.264 298.398 349.415 301.676 348.626C305.005 347.825 309.248 348.143 313.477 349.259C317.701 350.374 321.859 352.272 325.009 354.576C328.174 356.892 330.223 359.543 330.449 362.146C330.53 364.978 328.87 366.82 326.497 368.007C324.104 369.205 321.058 369.689 318.618 369.782L318.618 369.782L318.611 369.782C313.918 370.027 308.323 368.758 303.789 366.124Z" stroke="#FBC624"/>
<path d="M293.906 371.224L293.914 371.235L293.922 371.246C297.314 375.755 298.397 380.55 297.152 383.948C296.535 385.633 295.338 387.003 293.513 387.86C291.678 388.721 289.18 389.077 285.958 388.665L285.958 388.665L285.952 388.664C280.622 388.048 275.411 385.254 272.731 380.553C270.271 375.604 269.713 371.517 270.371 368.445C271.026 365.385 272.891 363.293 275.385 362.296C280.39 360.296 288.171 362.666 293.906 371.224Z" stroke="#B3DE9F"/>
<path d="M112.163 382.55C111.65 379.903 112.468 376.345 115.477 371.902L115.55 371.8C117.475 369.108 119.926 366.361 122.773 364.401C125.615 362.445 128.824 361.29 132.295 361.716C134.796 362.102 136.581 363.203 137.789 364.712C139.004 366.23 139.662 368.195 139.836 370.336C140.187 374.632 138.581 379.505 135.886 382.536C130.615 388.376 122.437 390.016 117.16 388.034C114.541 387.051 112.675 385.197 112.163 382.55Z" stroke="#B3DE9F"/>
<path d="M95.7336 307.754L95.7347 307.754C96.5862 304.314 98.9753 301.122 102.045 299.125C105.112 297.13 108.807 296.355 112.286 297.646C117.705 299.665 121.237 305.807 119.932 311.485L119.932 311.485L119.931 311.492C119.112 315.285 116.806 319.445 113.647 322.31C110.501 325.164 106.575 326.683 102.454 325.398C99.355 324.006 97.32 321.211 96.2343 317.929C95.1468 314.642 95.03 310.912 95.7336 307.754Z" stroke="#B3DE9F"/>
<path d="M41.5095 309.108L41.5096 309.108L41.5122 309.098C42.1126 306.705 43.4968 304.113 45.3013 301.824C47.1059 299.534 49.3032 297.582 51.4987 296.442C53.701 295.298 55.8183 295.01 57.5502 295.879C59.2845 296.748 60.801 298.861 61.6045 302.914C62 304.911 61.8457 307.872 61.1919 311.157C60.5403 314.43 59.4023 317.977 57.8702 321.131C56.3346 324.291 54.4223 327.016 52.2428 328.69C50.0982 330.337 47.7189 330.954 45.1368 330.003C42.0496 327.86 40.6649 324.387 40.2941 320.54C39.9211 316.673 40.5829 312.496 41.5095 309.108Z" stroke="#FBC624"/>
<path d="M39.737 293.175L39.7154 293.19L39.6954 293.207C36.2285 296.151 31.5989 297.973 27.8631 297.605C26.0103 297.422 24.3965 296.704 23.225 295.339C22.0499 293.969 21.273 291.893 21.2059 288.908L21.2056 288.896L21.2048 288.884C20.3943 277.279 31.7841 267.148 43.0446 270.921C45.6124 272.146 47.1041 273.821 47.8258 275.693C48.5539 277.581 48.5199 279.729 47.9267 281.916C46.7363 286.306 43.3292 290.721 39.737 293.175Z" stroke="#FFCDC6"/>
<path d="M30.6483 208.377L30.6465 208.38C28.5303 211.869 23.9394 216.47 18.8301 219.548C13.7033 222.636 8.27849 224.063 4.32348 221.654C1.88267 219.392 1.73043 216.37 2.68463 213.25C3.64548 210.109 5.70394 206.979 7.47912 204.717C11.3915 199.898 17.1298 196.528 23.2878 195.826L23.7312 195.775V195.761C27.9586 195.255 30.6664 196.685 31.873 198.94C33.1381 201.305 32.8666 204.777 30.6483 208.377Z" stroke="#B3DE9F"/>
<path d="M106.211 43.8763C110.728 46.5008 114.124 50.4359 114.619 55.5128C113.942 58.7356 111.602 60.5852 108.324 61.3738C104.995 62.175 100.752 61.8573 96.5228 60.7409C92.2992 59.626 88.1415 57.7284 84.9915 55.4241C81.8259 53.1083 79.7767 50.4569 79.5509 47.8545C79.4703 45.0225 81.1298 43.1805 83.5034 41.9926C85.8966 40.795 88.942 40.3109 91.3826 40.218L91.3826 40.2181L91.3896 40.2177C96.0819 39.9733 101.677 41.2417 106.211 43.8763Z" stroke="#67A0F7"/>
<path d="M201.616 30.6483L201.615 30.6478C198.108 28.4972 193.608 24.0297 190.556 19.0315C187.496 14.0205 186.006 8.67121 188.126 4.61747C190.285 1.94251 193.342 1.70121 196.539 2.6336C199.76 3.57285 203.001 5.6799 205.278 7.48039C210.1 11.3926 213.471 17.1307 214.174 23.2885L214.225 23.7318H214.239C214.745 27.9588 213.315 30.6663 211.058 31.8729C208.692 33.138 205.219 32.8664 201.616 30.6483Z" stroke="#FBC624"/>
<path d="M294.524 38.0971L294.45 38.2005C292.525 40.8922 290.074 43.6391 287.227 45.5991C284.386 47.5554 281.177 48.7104 277.705 48.2836C275.204 47.8985 273.419 46.7971 272.211 45.2882C270.996 43.7697 270.338 41.8048 270.164 39.6644C269.814 35.3683 271.419 30.4951 274.114 27.464C279.385 21.6245 287.563 19.9843 292.841 21.9661C295.459 22.9493 297.325 24.8031 297.838 27.4499C298.35 30.0967 297.533 33.6548 294.524 38.0971Z" stroke="#FFCDC6"/>
<path d="M262.876 19.1407L262.876 19.1407L262.877 19.1519C262.978 24.4875 262.059 31.9009 259.45 37.9735C256.843 44.0418 252.62 48.6346 246.157 48.6997C236.535 47.5184 229.505 38.5201 226.057 29.845C222.365 19.8094 222.829 11.1716 226.828 5.9462C230.797 0.76092 238.422 -1.27171 249.561 2.2827L249.571 2.28583L249.581 2.28855C257.224 4.38471 262.903 11.1437 262.876 19.1407Z" stroke="#B3DE9F"/>
<path d="M328.8 44.0328C330.997 46.3688 331.644 49.9784 329.302 55.0508L329.3 55.0503C325.767 61.958 319.82 67.6861 313.024 71.507L313.024 71.5069L313.014 71.513C306.887 75.1544 300.955 74.4333 297.127 71.2709C293.296 68.1063 291.473 62.416 293.74 55.9032C297.382 45.9213 308.67 40.6715 317.932 40.5194C322.561 40.4433 326.553 41.6451 328.8 44.0328Z" stroke="#B3DE9F"/>
<path d="M314.267 102.246C314.97 99.0877 314.853 95.3585 313.766 92.0712C312.68 88.7895 310.645 85.9944 307.546 84.6016C303.425 83.3169 299.499 84.8358 296.353 87.6902C293.194 90.5552 290.888 94.7145 290.069 98.5082L290.068 98.5147L290.068 98.5147C288.763 104.193 292.295 110.335 297.714 112.354L314.267 102.246ZM314.267 102.246L314.265 102.246C313.414 105.686 311.025 108.878 307.955 110.875C304.888 112.87 301.194 113.645 297.714 112.354L314.267 102.246Z" stroke="#B3DE9F"/>
<path d="M368.334 291.546L368.323 291.535L368.311 291.524C364.334 287.954 362.343 284.342 361.791 281.156C361.241 277.977 362.118 275.195 363.934 273.223C367.551 269.296 375.134 268.404 383.113 274.624C387.206 278.276 389.107 284.046 388.806 289.493C388.6 292.705 387.599 294.774 386.192 296.018C384.783 297.263 382.891 297.748 380.769 297.636C376.501 297.412 371.492 294.777 368.334 291.546Z" stroke="#B3DE9F"/>
<path d="M324.458 322.943L324.475 322.944L324.492 322.944C329.722 322.885 334.895 325.056 338.547 328.75L338.555 328.758L338.564 328.767C340.292 330.351 341.672 332.614 342.112 334.896C342.548 337.158 342.063 339.411 340.108 341.107C336.26 344.28 330.781 344.472 325.308 343.063C319.854 341.659 314.533 338.692 311.124 335.736C309.12 333.698 308.601 331.926 308.897 330.439C309.2 328.919 310.383 327.537 312.125 326.366C315.612 324.024 321.015 322.751 324.458 322.943Z" stroke="#B3DE9F"/>
<path d="M318.278 292.917L318.294 292.929L318.31 292.939C322.221 295.309 325.095 299.283 325.729 303.164C326.044 305.095 325.804 306.992 324.878 308.669C323.953 310.345 322.319 311.843 319.775 312.937L319.775 312.937L319.764 312.942C314.496 315.353 307.858 315.509 303.107 312.074C299.324 309.227 297.514 305.959 297.104 302.848C296.694 299.73 297.681 296.717 299.596 294.368C303.417 289.681 310.933 287.644 318.278 292.917Z" stroke="#B3DE9F"/>
<path d="M147.604 394.133C146.814 390.132 147.068 385.764 147.759 381.813L147.786 381.688C147.837 381.453 147.89 381.211 147.943 380.962C148.727 377.331 149.824 372.252 151.811 368.099C153.936 363.658 156.965 360.491 161.544 361.033C168.485 362.807 175.583 369.957 180.174 378.469C182.465 382.716 184.111 387.269 184.796 391.6C185.479 395.922 185.199 399.991 183.682 403.318C180.752 408.076 175.387 409.73 169.63 409.475C163.866 409.219 157.831 407.045 153.785 404.311C150.258 401.817 148.401 398.174 147.604 394.133Z" stroke="#FBC624"/>
<path d="M66.4762 335.335L66.4763 335.335L66.474 335.324C65.3011 329.811 67.0685 324.062 69.2834 318.881L69.2834 318.881L69.2863 318.874C70.1522 316.762 71.2965 314.715 72.6002 313.025C73.908 311.328 75.3531 310.02 76.8106 309.34C78.2494 308.668 79.6871 308.611 81.0696 309.383C82.48 310.171 83.9068 311.863 85.1927 314.857L85.1925 314.857L85.1971 314.867C87.3972 319.697 87.6565 325.592 86.0224 330.73C84.3907 335.861 80.8889 340.192 75.6039 341.986C73.454 342.647 71.3918 342.062 69.7443 340.763C68.0874 339.457 66.8758 337.445 66.4762 335.335Z" stroke="#B3DE9F"/>
<path d="M352.076 202.752L352.076 202.753C341.995 205.177 333.322 197.094 333.764 186.936L333.765 186.92L333.765 186.903C333.629 180.906 337.196 176.96 341.834 175.407C346.494 173.846 352.206 174.719 356.261 178.393L356.277 178.407L356.293 178.42C361.143 182.129 363.169 187.504 362.457 192.286C361.748 197.05 358.312 201.291 352.076 202.752Z" stroke="#B3DE9F"/>
<path d="M111.749 75.8L111.75 75.8002C112.351 73.5561 114.474 70.8945 117.576 68.2124C120.658 65.5475 124.635 62.9236 128.826 60.741C133.019 58.558 137.405 56.827 141.301 55.9356C145.223 55.0381 148.542 55.0167 150.681 56.1179L150.692 56.1233L150.703 56.1283C153.159 57.2485 155.476 59.5291 157.469 62.5201C159.458 65.5045 161.098 69.1586 162.214 72.9678C163.331 76.7773 163.918 80.7231 163.817 84.2878C163.715 87.8586 162.924 91.0016 161.328 93.252C154.57 102.57 140.389 107.272 129.948 101.804C125.794 99.4937 120.526 95.5608 116.657 90.8951C112.776 86.2143 110.39 80.9072 111.749 75.8Z" stroke="#FFCDC6"/>
<path d="M62.221 237.726C59.0073 234.204 59.0658 227.992 62.5147 224.662L62.5147 224.662L62.5158 224.661C63.9984 223.22 66.0875 222.107 68.2281 221.72C70.36 221.334 72.4966 221.673 74.1553 223.06C75.952 224.743 76.8839 227.229 76.9072 229.75C76.9306 232.276 76.0415 234.783 74.2673 236.501L74.2672 236.501L74.2652 236.503C72.7467 237.99 70.5619 239.128 68.3452 239.481C66.1344 239.834 63.9448 239.401 62.3264 237.828L62.221 237.726Z" stroke="#B3DE9F"/>
<path d="M19.1407 147.124L19.1407 147.124L19.1519 147.123C24.4875 147.022 31.9009 147.941 37.9735 150.55C44.0418 153.157 48.6346 157.38 48.6997 163.843C47.5184 173.465 38.5202 180.495 29.8451 183.943C19.8095 187.635 11.1716 187.171 5.9462 183.172C0.76092 179.203 -1.27171 171.578 2.2827 160.439L2.28583 160.429L2.28855 160.419C4.38471 152.776 11.1437 147.097 19.1407 147.124Z" stroke="#FFCDC6"/>
<path d="M41.6664 118.453L41.6777 118.465L41.6898 118.476C45.666 122.046 47.6579 125.658 48.2093 128.844C48.7596 132.023 47.8827 134.805 46.0665 136.777C42.4496 140.704 34.8666 141.596 26.8877 135.376C22.7941 131.724 20.8935 125.954 21.195 120.507C21.4007 117.295 22.4017 115.226 23.8086 113.982C25.2174 112.737 27.1091 112.252 29.2311 112.364C33.4993 112.588 38.5081 115.223 41.6664 118.453Z" stroke="#FBC624"/>
<path d="M74.665 66.4758L74.665 66.4759L74.676 66.4736C80.1884 65.3007 85.9375 67.0682 91.1184 69.283L91.1184 69.2831L91.1253 69.2859C93.2381 70.1519 95.2843 71.2961 96.9752 72.5998C98.6713 73.9076 99.9799 75.3527 100.66 76.8102C101.332 78.249 101.389 79.6867 100.617 81.0692C99.8286 82.4796 98.1368 83.9065 95.1425 85.1923L95.1424 85.1922L95.1325 85.1967C90.3026 87.3969 84.4077 87.6561 79.2694 86.022C74.1385 84.3903 69.8078 80.8885 68.014 75.6035C67.3526 73.4536 67.9382 71.3914 69.2369 69.744C70.5431 68.087 72.5551 66.8755 74.665 66.4758Z" stroke="#B3DE9F"/>
<path d="M88.725 112.983L88.7245 112.983C86.4532 111.207 85.1205 109.337 84.5224 107.528C83.9261 105.725 84.0487 103.95 84.7424 102.329C86.1368 99.0701 89.8759 96.3741 94.8426 95.4944L94.8533 95.4925L94.8638 95.4902C100.107 94.3256 105.91 95.0217 110.207 98.2987C113.794 101.231 115.107 104.311 114.942 107.066C114.777 109.835 113.11 112.401 110.48 114.276C105.217 118.027 96.2571 118.887 88.725 112.983Z" stroke="#B3DE9F"/>
<path d="M103.191 228.315L103.183 228.327L103.175 228.339C101.748 230.751 99.1669 234.28 96.3258 236.295C94.9061 237.301 93.4777 237.89 92.1317 237.834C90.8189 237.78 89.4854 237.109 88.2351 235.382C84.9194 229.93 84.4885 223.811 86.637 219.295C88.7688 214.815 93.489 211.811 100.733 212.642C102.742 212.955 104.064 213.774 104.899 214.859C105.743 215.956 106.132 217.379 106.165 218.963C106.232 222.147 104.86 225.83 103.191 228.315Z" stroke="#67A0F7"/>
<path d="M171.377 71.2509C170.337 69.0251 170.071 66.4785 170.872 64.2304C171.769 62.1801 173.618 60.8648 175.786 60.2566C177.963 59.6462 180.413 59.765 182.412 60.5413C184.664 61.4575 186.512 63.408 187.543 65.7233C188.572 68.0331 188.766 70.6534 187.794 72.9074C186.786 74.8132 184.949 76.0256 182.839 76.5727C180.723 77.1217 178.373 76.9874 176.423 76.2371C174.221 75.3444 172.42 73.481 171.377 71.2509Z" stroke="#B3DE9F"/>
<path d="M340.784 91.073L340.775 91.0907L340.767 91.109C339.899 93.2251 338.751 95.2746 337.443 96.9682C336.131 98.667 334.681 99.9779 333.218 100.659C331.774 101.332 330.331 101.39 328.944 100.616C327.528 99.8262 326.097 98.1314 324.807 95.1324L324.804 95.1256L324.801 95.1188C322.497 90.1737 322.33 83.8852 324.212 78.5424C326.085 73.2248 329.958 68.9114 335.69 67.742C338.526 67.8618 340.448 68.8979 341.716 70.4556C343.008 72.0414 343.666 74.2221 343.847 76.6769C344.21 81.5937 342.64 87.4052 340.784 91.073Z" stroke="#67A0F7"/>
<path d="M384.795 188.91C391.635 185.782 399.075 184.67 404.574 187.267L404.577 187.269C407.353 188.911 408.114 191.567 407.791 194.457C407.466 197.371 406.038 200.453 404.525 202.738L404.525 202.738L404.521 202.745C401.353 207.706 395.986 212.396 389.947 215.223C383.912 218.047 377.277 218.98 371.525 216.559C368.927 215.217 367.604 212.834 367.282 210.177C366.958 207.502 367.658 204.577 369.088 202.263L369.096 202.25L369.103 202.237C371.852 197.13 377.945 192.043 384.795 188.91Z" stroke="#B3DE9F"/>
<path d="M298.216 334.094L298.212 334.11C296.658 338.134 293.68 341.163 290.137 343.693C287.258 345.748 284.043 347.45 280.946 349.089C280.2 349.484 279.46 349.876 278.733 350.268C273.587 352.981 267.809 354.849 262.392 354.717C256.998 354.587 251.953 352.478 248.192 347.202C243.644 340.692 241.624 333.946 242.398 327.695C243.171 321.454 246.739 315.633 253.516 310.972L253.524 310.967L253.531 310.961C257.894 307.711 263.363 304.411 268.908 302.987C274.437 301.567 279.988 302.021 284.632 306.198C288.128 309.345 292.163 313.91 295.003 318.913C297.849 323.927 299.448 329.296 298.216 334.094Z" stroke="#B3DE9F"/>
<path d="M216.193 376.623L216.209 376.645L216.227 376.666C217.826 378.509 219.591 381.567 221.054 385.095C222.516 388.619 223.66 392.571 224.042 396.188C224.427 399.823 224.031 403.024 222.528 405.134C221.064 407.189 218.452 408.337 214.064 407.671C209.29 406.468 205.048 403.494 201.562 399.979C196.377 394.622 192.962 387.448 192.112 380.021L192.101 379.928C191.825 375.314 192.723 372.15 194.266 370.144C195.812 368.134 198.06 367.215 200.631 367.204C205.818 367.183 212.23 370.877 216.193 376.623Z" stroke="#B3DE9F"/>
<path d="M178.72 294.175L178.726 294.17C180.357 293.23 182.301 293.204 184.105 293.827C185.927 294.456 187.557 295.733 188.498 297.307C189.505 299.112 189.934 301.421 189.658 303.599C189.383 305.77 188.417 307.762 186.691 309.009C185.052 309.963 183.093 309.991 181.278 309.363C179.456 308.731 177.828 307.452 176.89 305.879C175.885 304.077 175.458 301.769 175.734 299.592C176.01 297.415 176.982 295.418 178.72 294.175Z" stroke="#B3DE9F"/>
<path d="M107.823 179.425L107.855 179.426L107.888 179.422C110.697 179.115 113.168 180.022 114.292 181.459C114.842 182.162 115.079 182.997 114.894 183.927C114.708 184.867 114.08 185.957 112.792 187.124C111.017 188.395 108.352 189.327 105.719 189.489C103.096 189.651 100.617 189.045 99.0708 187.391C98.4752 186.166 98.4561 185.094 98.7872 184.166C99.1295 183.206 99.8661 182.348 100.855 181.626C102.843 180.175 105.71 179.379 107.823 179.425Z" stroke="#B3DE9F"/>
<path d="M255.964 153.361C259.048 153.205 262.376 154.417 265.352 157.563C269.608 163.895 269.516 173.544 264.935 179.665C261.143 184.629 253.529 184.176 249.782 179.308L249.773 179.297L249.764 179.286C242.593 170.988 243.641 162.419 247.845 157.521C249.956 155.061 252.864 153.519 255.964 153.361Z" stroke="#B3DE9F"/>
<path d="M185.656 110.764L185.644 110.757L185.632 110.749C182.197 108.752 177.157 105.13 174.272 101.131C172.83 99.1313 171.969 97.0951 172.05 95.1568C172.129 93.2523 173.124 91.3377 175.621 89.5621C183.415 84.8997 192.185 84.2804 198.676 87.3168C205.13 90.3362 209.428 97.0145 208.239 107.197C207.788 110.043 206.604 111.938 205.013 113.142C203.41 114.355 201.341 114.905 199.059 114.953C194.483 115.048 189.21 113.113 185.656 110.764Z" stroke="#67A0F7"/>
<path d="M315.871 210.802L315.84 210.809C309.024 212.234 302.8 210.976 298.989 207.639C295.216 204.335 293.692 198.889 296.461 191.637L296.464 191.63L296.466 191.622C298.156 186.736 302.469 179.81 307.304 176.151C309.72 174.322 312.186 173.369 314.476 173.778C316.745 174.183 319.009 175.958 320.964 179.967C323.031 184.654 325.045 191.632 324.865 197.819C324.775 200.911 324.138 203.767 322.722 206.04C321.321 208.29 319.137 210.001 315.871 210.802Z" stroke="#B3DE9F"/>
<path d="M131.256 247.576L131.255 247.577C130.452 252.978 127.466 258.508 122.184 260.159L122.184 260.159L122.175 260.161C118.628 261.339 115.496 259.962 113.281 257.402C111.054 254.828 109.808 251.106 110.092 247.776L110.092 247.776L110.093 247.766C110.333 243.999 112.182 239.166 114.977 235.094C117.763 231.034 121.407 227.848 125.19 227.152C126.919 227.314 128.211 228.238 129.182 229.672C130.176 231.139 130.82 233.127 131.205 235.319C131.976 239.701 131.683 244.734 131.256 247.576Z" stroke="#FBC624"/>
<path d="M249.825 230.906C243.931 219.934 244.75 204.345 255.351 196.71C262.087 191.947 269.503 189.53 275.361 190.707C278.274 191.292 280.812 192.766 282.72 195.304C284.634 197.849 285.94 201.497 286.315 206.463L286.316 206.468C287.112 215.697 285.419 225.677 279.485 232.935C275.13 238.212 269.355 240.818 263.872 240.563C258.403 240.308 253.153 237.203 249.823 230.908L249.825 230.906Z" stroke="#B3DE9F"/>
<path d="M164.19 128.458L164.189 128.458C159.237 126.878 154.686 123.393 152.953 118.476L152.949 118.467L152.945 118.457C151.788 115.567 152.456 113.034 154.094 111.28C155.749 109.509 158.427 108.501 161.317 108.788L161.317 108.789L161.331 108.79C165.096 109.06 170.201 111.175 174.571 114.237C178.93 117.29 182.414 121.183 183.176 124.95C183.027 126.708 182.157 127.89 180.835 128.681C179.469 129.498 177.609 129.901 175.549 130.012C171.434 130.233 166.731 129.279 164.19 128.458Z" stroke="#B3DE9F"/>
<path d="M249.653 245.885L249.661 245.889L249.669 245.893C255.784 248.629 258.618 256.649 255.149 262.402C252.999 265.797 249.395 267.595 245.393 268.212C241.397 268.828 237.055 268.254 233.521 266.954C228.945 264.675 226.931 261.837 226.558 259.033C226.181 256.204 227.452 253.254 229.772 250.732C232.087 248.214 235.402 246.176 238.976 245.185C242.549 244.194 246.346 244.258 249.653 245.885Z" stroke="#FBC624"/>
<path d="M203.677 322.721C201.408 321.319 199.682 319.135 198.874 315.87L198.868 315.839C197.431 309.024 198.7 302.802 202.064 298.991C205.397 295.216 210.893 293.691 218.209 296.461L218.216 296.464L218.224 296.467C223.153 298.157 230.138 302.471 233.828 307.305C235.673 309.722 236.633 312.187 236.221 314.476C235.813 316.743 234.024 319.008 229.979 320.963C225.251 323.03 218.213 325.045 211.972 324.865C208.853 324.775 205.971 324.138 203.677 322.721Z" stroke="#B3DE9F"/>
<path d="M361.177 111.759L361.17 111.764L361.164 111.769C357.827 114.825 354.679 115.208 352.371 113.962C350.027 112.697 348.34 109.645 348.19 105.39C348.056 101.224 349.235 95.1058 351.618 89.8384C354.007 84.5592 357.518 80.3164 361.952 79.5485C363.667 79.5748 364.988 80.1597 366.016 81.0983C367.064 82.054 367.83 83.3983 368.372 84.9545C369.458 88.073 369.602 91.9185 369.415 94.7763C368.963 101.244 366.064 107.568 361.177 111.759Z" stroke="#B3DE9F"/>
<path d="M387.74 116.058C389.992 121.535 388.584 128.249 385.248 133.076L385.145 133.217C380.962 138.901 373.522 140.904 368.121 139.404C365.434 138.658 363.297 137.06 362.281 134.665C361.264 132.269 361.326 128.974 363.254 124.745C365.194 121.03 369.864 116.249 374.823 113.733C377.302 112.475 379.8 111.81 382.033 112.079C384.228 112.343 386.223 113.516 387.74 116.058Z" stroke="#FFCDC6"/>
<path d="M116.058 22.2606C121.536 20.0085 128.25 21.4168 133.078 24.7521L133.218 24.8553C138.902 29.0382 140.905 36.478 139.404 41.8792C138.657 44.566 137.058 46.7035 134.663 47.7197C132.268 48.736 128.973 48.6747 124.746 46.7465C121.031 44.8066 116.249 40.1367 113.733 35.177C112.475 32.6983 111.81 30.2001 112.079 27.9676C112.343 25.7727 113.516 23.7774 116.058 22.2606Z" stroke="#B3DE9F"/>
<path d="M395.187 171.867C389.979 177.424 381.856 180.951 374.357 179.054L374.357 179.054L374.233 179.018C370.222 177.87 366.251 174.896 363.786 171.151C361.328 167.415 360.408 162.98 362.34 158.849C364.965 154.03 370.918 150.552 377.581 148.682C384.231 146.815 391.445 146.592 396.468 148.148C398.978 149.157 400.475 150.741 401.257 152.626C402.048 154.531 402.126 156.791 401.699 159.154C400.843 163.891 397.987 168.884 395.187 171.866L395.187 171.867Z" stroke="#67A0F7"/>
<path d="M209.743 357.21C205.792 351.748 205.301 343.331 211.612 337.413C220.409 331.006 228.669 333.062 232.705 338.282C236.747 343.511 236.703 352.107 228.444 359.101C224.687 362.127 220.994 362.985 217.773 362.445C214.54 361.902 211.718 359.941 209.743 357.21Z" stroke="#FBC624"/>
<path d="M349.137 278.019C344.81 282.898 338.393 286.114 331.794 286.171L331.671 286.167C323.627 285.877 318.47 282.359 316.889 277.868C315.315 273.395 317.196 267.679 323.832 262.778L323.832 262.778L323.839 262.773C327.403 260.042 335.126 256.692 342.04 255.871C345.498 255.461 348.677 255.693 351.018 256.881C353.312 258.045 354.862 260.156 355.052 263.691C355.059 268.933 352.593 274.026 349.137 278.019Z" stroke="#B3DE9F"/>
<path d="M231.625 385.104H231.661L231.414 384.432C227.983 375.086 233.9 364.384 243.189 361.527L243.189 361.527L243.2 361.524C247.278 360.163 250.879 361.446 253.785 364.009C256.705 366.585 258.888 370.431 260.042 374.066L260.045 374.075L260.048 374.084C261.661 378.592 263.34 385.944 262.771 391.983C262.486 395.002 261.646 397.626 260.024 399.415C258.424 401.18 256 402.202 252.377 401.905C243.079 400.869 234.65 394.049 231.625 385.104Z" stroke="#67A0F7"/>
<path d="M131.602 348.733L131.602 348.732L131.596 348.726C126.898 344.394 123.834 338.124 123.829 331.702L123.829 331.698C123.796 328.161 124.979 323.994 127.189 320.896C129.389 317.812 132.554 315.843 136.531 316.486C142.864 317.888 147.773 323.111 150.824 329.566C153.87 336.011 155.012 343.581 153.898 349.531C153.086 352.007 151.667 353.496 149.931 354.293C148.17 355.102 146.03 355.223 143.768 354.851C139.233 354.104 134.39 351.4 131.602 348.733Z" stroke="#B3DE9F"/>
<path d="M44.0329 81.2003C46.3689 79.0025 49.9786 78.3555 55.0509 80.6976L55.0505 80.6995C61.9581 84.2332 67.6863 90.1799 71.5071 96.976L71.507 96.9761L71.5132 96.9864C75.1546 103.113 74.4334 109.045 71.271 112.873C68.1064 116.704 62.4162 118.527 55.9033 116.26C45.9214 112.618 40.6716 101.33 40.5195 92.0678C40.4435 87.4389 41.6452 83.4466 44.0329 81.2003Z" stroke="#FFCDC6"/>
<path d="M276.023 59.3776C282.063 63.6503 286.167 70.8432 286.172 78.2953C285.443 85.9232 282.763 90.2926 279.316 92.2853C275.861 94.2824 271.483 93.9822 267.168 91.929C258.521 87.815 250.479 76.8169 251.509 64.5517L251.51 64.5472C251.746 61.391 252.912 59.1528 254.61 57.6373C256.317 56.1141 258.605 55.2828 261.143 55.0311C266.235 54.526 272.188 56.3697 276.004 59.3628L276.013 59.3704L276.023 59.3776Z" stroke="#FBC624"/>
<path d="M334.754 247.486C329.397 248.794 324.556 248.838 321.437 247.223L321.405 247.202C317.454 244.693 316.776 239.642 317.734 234.173C318.686 228.741 321.222 223.134 323.359 219.853L323.359 219.853L323.36 219.85C326.848 214.423 333.13 212.12 339.808 212.061C346.475 212.003 353.43 214.187 358.14 217.606C360.167 219.465 361.295 221.396 361.729 223.33C362.165 225.27 361.911 227.258 361.1 229.239C359.47 233.22 355.606 237.125 350.747 240.377C345.899 243.621 340.123 246.176 334.754 247.486Z" stroke="#FFCDC6"/>
<path d="M352.834 328.154L352.727 328.091C346.544 324.154 341.254 318.534 337.96 311.936L337.961 311.936L337.954 311.924C335.065 306.509 335.656 301.24 338.367 297.614C341.079 293.987 345.965 291.93 351.828 293.057C357.519 294.361 361.872 298.055 364.839 302.688C367.809 307.327 369.37 312.882 369.478 317.834C369.586 322.81 368.23 327.053 365.523 329.213C362.868 331.333 358.71 331.595 352.834 328.154Z" stroke="#FFCDC6"/>
<path d="M170.565 352.414C165.017 344.907 161.41 335.546 161.552 326.198C161.726 322.923 162.915 320.822 164.664 319.525C166.434 318.212 168.848 317.671 171.556 317.676C176.976 317.686 183.33 319.886 187.272 321.961L187.279 321.965L187.286 321.969C192.556 324.528 196.618 329.397 197.319 335.236C198.29 343.52 196.997 353.01 191.232 359.241C189.533 360.941 187.704 361.737 185.848 361.905C183.98 362.075 182.047 361.611 180.157 360.724C176.367 358.945 172.847 355.511 170.566 352.415L170.565 352.414Z" stroke="#FFCDC6"/>
<path d="M80.6979 354.949L80.6998 354.95C84.2335 348.042 90.1801 342.314 96.9762 338.493L96.9763 338.493L96.9867 338.487C103.113 334.846 109.045 335.567 112.873 338.729C116.704 341.894 118.528 347.584 116.26 354.097C112.619 364.079 101.33 369.329 92.0681 369.481C87.4391 369.557 83.4469 368.355 81.2005 365.967C79.0028 363.631 78.3558 360.022 80.6979 354.949Z" stroke="#FFCDC6"/>
<path d="M50.822 247.829L50.8194 247.841L50.8173 247.853C50.3154 250.806 48.3323 253.433 45.4017 255.648C42.4744 257.861 38.6457 259.626 34.5557 260.86C30.4681 262.094 26.1431 262.789 22.2377 262.875C18.3218 262.961 14.8788 262.435 12.5203 261.27C9.74512 259.863 8.60098 257.347 8.40365 254.484C8.2051 251.603 8.97558 248.423 9.98661 245.85C12.2644 240.077 16.4826 234.119 21.7178 229.42C26.9465 224.728 33.1495 221.327 39.3965 220.588C44.4683 220.667 47.7969 225.227 49.6366 231.09C51.4673 236.925 51.7193 243.766 50.822 247.829Z" stroke="#FBC624"/>
<path d="M155.937 8.38718C161.161 8.13794 167.75 10.9896 172.8 14.7199L172.946 14.8326C176.554 17.6119 181.26 22.1856 184.661 27.2732C188.069 32.3717 190.08 37.8531 188.58 42.5374C187.14 45.3489 184.625 47.1648 181.683 48.421C178.727 49.6835 175.388 50.3604 172.372 50.9228C166.032 51.924 158.73 51.3228 154.732 46.0029C149.518 38.8561 147.467 29.6112 147.127 20.8136C147 16.2959 147.949 13.2612 149.519 11.3316C151.081 9.4121 153.319 8.51211 155.937 8.38718Z" stroke="#B3DE9F"/>
<path d="M294.175 231.28L294.171 231.274C293.23 229.643 293.204 227.699 293.827 225.895C294.456 224.073 295.734 222.443 297.307 221.502C299.112 220.495 301.421 220.066 303.599 220.342C305.77 220.617 307.763 221.583 309.009 223.309C309.964 224.948 309.991 226.907 309.363 228.721C308.731 230.544 307.453 232.172 305.879 233.11C304.077 234.115 301.77 234.542 299.593 234.266C297.415 233.989 295.418 233.017 294.175 231.28Z" stroke="#B3DE9F"/>
<path d="M229.84 104.383C232.097 107.983 232.568 112.692 229.909 115.498C228.049 116.502 226.203 116.46 224.535 115.742C222.832 115.009 221.301 113.562 220.177 111.769C217.919 108.166 217.448 103.453 220.109 100.65C221.969 99.6491 223.816 99.6933 225.483 100.411C227.186 101.145 228.716 102.591 229.84 104.383Z" stroke="#B3DE9F"/>
<path d="M189.514 192.694C185.514 194.695 180.961 195.064 176.9 192.665L176.854 192.633C174.065 190.711 172.756 187.583 172.702 184.303C172.648 181.016 173.858 177.63 176.042 175.265L176.042 175.265C178.619 172.474 182.292 169.837 186.209 168.455C190.116 167.076 194.207 166.963 197.71 169.104C199.83 170.682 200.594 173.002 200.563 175.527C200.532 178.07 199.689 180.77 198.654 182.972L198.649 182.982L198.645 182.992C196.964 187.022 193.546 190.677 189.514 192.694Z" stroke="#67A0F7"/>
<path d="M223.343 241.496L223.34 241.497C218.218 243.343 213.937 242.638 211.473 240.319C209.025 238.015 208.198 233.951 210.335 228.693L210.341 228.679L210.346 228.665C213.459 219.442 221.594 215.191 228.047 215.71C231.267 215.97 234.033 217.41 235.594 219.968C237.153 222.521 237.572 226.29 235.891 231.335C233.5 236.3 228.515 239.657 223.343 241.496Z" stroke="#FFCDC6"/>
<path d="M119.959 168.255L119.944 168.266L119.931 168.278C117.594 170.275 113.106 172.69 109.417 173.215C107.569 173.479 106.041 173.251 105.058 172.406C104.094 171.577 103.508 170.025 103.842 167.28C104.639 162.365 107.914 157.421 112.291 154.06C116.65 150.713 122.019 148.994 127.015 150.345C128.831 151.432 129.563 152.817 129.637 154.33C129.715 155.898 129.089 157.674 128.036 159.477C125.933 163.077 122.264 166.554 119.959 168.255Z" stroke="#B3DE9F"/>
</svg>
