<svg width="1600" height="1656" viewBox="0 0 1600 1656" fill="none" xmlns="http://www.w3.org/2000/svg">
<path d="M0.164437 1020.64C-1.18905 1005.51 3.70348 951.788 24.8985 937.617C25.6129 937.147 26.3893 936.767 27.1887 936.492C37.849 932.902 45.0205 939.534 48.8623 943.071L49.8039 943.933C54.6721 948.675 59.2555 954.16 63.1139 958.938C71.7071 968.025 79.0879 974.733 86.3112 979.981L87.4212 980.612L92.8301 980.98C95.5995 980.381 98.8455 979.522 100.964 978.738C101.094 978.686 101.226 978.647 101.356 978.595C105.582 976.919 111.996 974.02 115.355 972.313C115.537 972.229 115.705 972.147 115.886 972.063C117.28 971.33 118.684 970.569 120.1 969.793C120.216 969.729 120.318 969.665 120.434 969.601L120.615 969.504C134.101 962.024 148.55 952.62 162.069 942.474C162.221 942.366 162.372 942.244 162.539 942.148C176.897 931.116 192.736 917.018 205.226 904.138C205.436 903.917 205.66 903.708 205.886 903.512C207.368 901.959 208.837 900.409 210.289 898.832C210.575 898.401 210.89 897.994 211.261 897.609L215.09 893.454C215.249 893.278 215.423 893.1 215.597 892.936C251.13 852.416 274.947 804.59 283.208 756.668C283.227 756.585 283.234 756.503 283.253 756.42C290.26 716.519 290.863 671.026 285.009 624.759C284.997 624.625 284.958 624.493 284.946 624.359C282.071 602.945 277.072 579.219 271.513 560.573C271.46 560.429 271.42 560.284 271.366 560.14C267.829 548.681 262.37 534.92 257.653 525.526C257.574 525.398 257.508 525.269 257.442 525.126C255.511 521.365 250.749 514.031 248.124 510.507L244.183 506.02L239.869 502.187L238.721 501.425C237.773 500.793 236.666 500.054 235.905 499.541C234.588 498.861 232.45 498.065 230.146 497.379L226.665 496.974L222.72 497.111C220.545 497.413 217.424 498.152 214.777 498.916C214.725 498.935 214.672 498.953 214.621 498.984C211.9 499.971 206.927 502.214 203.558 503.962C203.456 504.026 203.34 504.09 203.238 504.153C195.958 508.239 187.038 514.823 178.679 522.249L173.46 527.178C156.238 544.387 140.421 566.433 127.689 590.948C127.689 590.948 127.689 590.948 127.69 590.961C127.667 591.004 127.645 591.06 127.608 591.103C113.161 617.894 99.7119 646.325 86.7061 673.825L75.5108 697.404C71.145 706.582 66.1991 716.975 60.9149 725.248C57.7203 731.361 52.2941 739.255 44.363 743.155C42.3068 744.177 39.3431 744.267 37.1295 743.681C33.3025 742.725 32.4441 742.491 31.3133 741.93C29.8282 741.184 28.5532 740.068 27.6318 738.676C13.7219 717.87 14.6577 671.712 15.2752 641.171C15.3576 636.959 15.4444 633.098 15.4747 629.661C16.4682 571.466 28.7072 539.019 65.8414 496.166L66.4624 495.407C98.8428 453.318 124.528 404.337 143.319 366.316C143.354 366.245 143.388 366.174 143.422 366.104C146.095 360.957 148.714 355.653 151.341 350.294C165.024 322.504 180.523 291.023 210.078 273.21C223.089 266.151 235.811 265.23 245.936 270.597C256.046 275.952 262.436 286.993 263.94 301.69C266.02 322.067 261.096 342.516 256.001 359.858C256.001 359.858 256.004 359.885 255.99 359.886L253.487 368.438C252.791 371.528 251.926 375.608 251.602 378.476L251.682 384.647L252.014 385.793L260.558 386.787C260.558 386.787 260.612 386.782 260.625 386.781C266.82 386.267 274.166 385.191 280.225 383.918C335.493 371.038 389.288 347.122 435.509 325.371C459.271 313.917 479.753 302.797 496.48 292.283C496.507 292.281 496.518 292.252 496.543 292.237C511.363 282.596 529.744 269.433 541.044 252.767L543.716 248.202C544.7 246.221 545.926 243.164 546.738 240.766L547.475 236.928C547.57 235.879 547.579 234.309 547.475 232.548L546.893 229.666L545.765 226.266C545.353 225.288 543.942 222.643 542.289 219.871C540.304 216.858 536.843 212.598 532.88 208.315C532.806 208.241 532.733 208.18 532.658 208.092C528.566 203.875 522.236 198.492 517.662 194.927C517.633 194.902 517.603 194.878 517.574 194.854C510.853 189.777 501.634 183.964 492.798 179.265C492.798 179.265 492.798 179.265 492.785 179.266L486.848 176.323C483.455 174.774 476.854 171.958 473.969 170.959C473.969 170.959 473.955 170.96 473.942 170.961C473.929 170.962 473.915 170.963 473.901 170.951C473.845 170.929 473.789 170.907 473.733 170.885C447.871 161.275 432.095 144.381 430.456 124.545C428.886 105.637 440.96 87.3466 464.088 74.0968C491.551 60.5404 527.418 67.5388 551.382 91.1089C554.243 93.5028 557.729 96.2328 559.979 97.6809C560.051 97.7286 560.108 97.764 560.167 97.8128C563.772 100.059 570.077 103.659 573.181 105.139C573.351 105.218 573.507 105.299 573.664 105.393C584.225 110.356 597.536 114.965 609.544 117.825C609.764 117.873 609.972 117.935 610.181 117.998C630.006 122.484 653.049 124.289 676.993 123.188C677.06 123.182 677.127 123.176 677.194 123.17C700.461 121.886 725.73 118.07 748.732 112.322C748.863 112.283 748.995 112.244 749.14 112.204C758.64 109.691 770.228 105.897 778.642 102.562C778.785 102.495 778.927 102.428 779.083 102.36C785.957 99.4738 793.816 95.3773 799.904 91.561C800.056 91.4393 800.195 91.3322 800.36 91.2228C803.121 89.3129 807.442 85.8303 810.329 83.2197C810.414 83.1174 810.514 83.0274 810.613 82.924C812.313 81.2442 814.763 78.2804 816.584 75.8327L818.41 72.6951L819.658 69.8796L820.167 68.0225C820.212 67.6263 820.275 67.1205 820.329 66.6695C819.157 47.9823 827.078 28.5627 841.142 15.7589C854.069 3.98958 870.248 -0.878225 886.894 2.05337C916.964 7.96165 937.445 39.4143 931.643 70.7307C931.624 70.827 931.606 70.9233 931.588 71.0195C931.181 73.5705 930.815 76.7263 930.787 78.3782L931.001 82.4284C931.396 84.8807 931.914 87.4977 932.433 89.2223C932.436 89.2625 932.453 89.3015 932.47 89.3406C933.451 92.146 934.814 95.6068 935.729 97.3771C935.761 97.4418 935.795 97.5197 935.828 97.5844C937.404 100.404 939.975 104.528 941.474 106.489C941.551 106.59 941.613 106.679 941.689 106.781C944.13 109.753 947.876 113.879 950.048 115.97C950.153 116.082 950.27 116.18 950.361 116.293C955.426 120.815 962.025 125.889 967.372 129.332C967.458 129.392 967.543 129.438 967.63 129.498C983.951 139.665 1002.89 148.002 1021.73 153.387C1035.49 157.118 1051.01 159.271 1064.87 159.356C1065.05 159.34 1065.24 159.323 1065.44 159.332C1083.06 159.053 1101.71 155.587 1118.24 149.511C1118.44 149.426 1118.63 149.341 1118.84 149.255C1124.67 147.003 1131.63 143.609 1137.38 140.242C1137.42 140.211 1137.46 140.195 1137.49 140.164L1138.47 139.482C1139.69 138.629 1141.69 137.22 1143.06 136.259C1143.09 136.243 1143.11 136.227 1143.14 136.198C1144.97 134.804 1148.55 131.36 1150.85 128.911C1150.89 128.853 1150.93 128.809 1150.98 128.75C1163.87 113.901 1184.15 105.625 1205.22 106.607C1224.29 107.496 1241.05 116.136 1251.36 130.491C1260.57 143.876 1262.79 160.401 1257.61 176.993C1251.24 197.409 1234.43 215.407 1214.78 222.884L1213.33 223.459C1213.23 223.496 1213.12 223.532 1213.03 223.581C1204.61 227.377 1194.87 232.722 1188.29 237.205C1188.16 237.284 1188.04 237.376 1187.91 237.455C1183.3 240.788 1176.31 246.402 1172.64 249.772C1172.49 249.907 1172.33 250.044 1172.16 250.18C1165.34 256.915 1157.88 265.694 1153.07 272.762C1153 272.877 1152.92 272.979 1152.84 273.093C1149.32 278.546 1143.8 288.247 1141.22 293.534C1141.12 293.746 1141 293.959 1140.88 294.172C1134.19 308.858 1128.1 327.574 1124.03 345.999C1124.01 346.096 1123.98 346.193 1123.96 346.276C1116.48 381.461 1112.78 422.431 1113.26 464.867C1115.5 520.447 1118.21 583.246 1151.81 629.276C1159.62 638.987 1170.65 647.409 1181.4 651.91C1181.47 651.93 1181.55 651.963 1181.62 651.998C1189.51 655.185 1200.42 657.4 1210.94 657.96C1211.01 657.954 1211.09 657.96 1211.17 657.966C1224.18 658.438 1240.15 656.671 1256.3 652.956C1256.43 652.917 1256.56 652.878 1256.69 652.853C1272.45 649.009 1290.5 642.663 1307.71 634.891C1307.85 634.81 1308.01 634.742 1308.16 634.661C1325.36 626.7 1344.07 616.091 1360.98 604.694C1361.11 604.602 1361.24 604.509 1361.36 604.417C1378.32 592.815 1396.35 578.169 1411 564.082C1411.1 563.979 1411.2 563.875 1411.3 563.772C1426.07 549.35 1440.07 532.577 1450.94 516.354C1451.01 516.226 1451.08 516.112 1451.15 515.997L1453.69 511.877C1465.21 492.217 1486.8 478.388 1508.66 476.689C1526.19 475.296 1541.91 481.934 1552.92 495.361C1553.09 495.562 1553.24 495.765 1553.38 495.968C1571.4 521.923 1560.05 556.913 1539.49 578.153C1539.46 578.182 1539.44 578.198 1539.41 578.227L1535.42 582.667C1534.7 583.475 1534.04 584.183 1533.58 584.698C1530.04 589.151 1525.12 596.026 1522.66 599.964C1522.53 600.178 1522.4 600.379 1522.24 600.569C1515.16 612.438 1508.61 627.246 1504.56 640.655C1504.5 640.809 1504.46 640.961 1504.41 641.115C1489.45 695.733 1497.54 760.282 1529.1 838.318C1533.51 848.238 1540.05 860.754 1545.14 869.032L1549.94 876.282C1554.51 882.741 1560.7 890.096 1565.91 895.294C1566.08 895.428 1566.24 895.563 1566.4 895.711C1568.59 897.758 1572.45 900.874 1575.69 903.221L1578.22 904.711L1581.4 906.401C1599.38 913.594 1621.32 932.113 1627.22 955.947C1630.82 970.456 1627.57 984.131 1617.87 995.449C1600.91 1015.46 1572.33 1018.37 1551.52 1012.38C1551.22 1012.28 1550.91 1012.19 1550.62 1012.07C1549.5 1011.69 1547.24 1011.19 1545.6 1010.81L1539.66 1009.96C1536.35 1009.81 1532.37 1009.78 1529.56 1009.96C1529.47 1009.97 1529.36 1009.98 1529.26 1009.99C1525.51 1010.43 1520.55 1011.21 1517.43 1011.96C1517.3 1012 1517.17 1012.03 1517.02 1012.06C1512.64 1013.3 1506.52 1015.33 1503 1016.76C1502.83 1016.83 1502.66 1016.88 1502.49 1016.95C1495.25 1020.22 1486.4 1024.98 1479.51 1029.34C1433.26 1061.19 1378.63 1114.17 1362.4 1168.53L1360.96 1175.27C1360.17 1180.03 1359.94 1185.92 1360.32 1190.65L1361.15 1194.64L1361.94 1196.82L1363.07 1198.97L1364.52 1200.86C1365.3 1201.65 1366.68 1202.69 1368 1203.66L1371.66 1205.61C1373.61 1206.48 1377.17 1207.62 1380.19 1208.46C1380.26 1208.48 1380.33 1208.49 1380.4 1208.51C1385.4 1209.66 1392.54 1210.59 1399.89 1211.05C1400.05 1211.04 1400.22 1211.05 1400.39 1211.06C1410.44 1211.43 1423.23 1210.92 1435.79 1209.66C1435.85 1209.66 1435.91 1209.65 1435.96 1209.63C1453.66 1206.58 1472.93 1212.06 1487.49 1224.3C1500.58 1235.29 1507.8 1249.99 1507.82 1266.29C1505.94 1298.05 1471.7 1312.44 1442.94 1315.12C1442.71 1315.15 1442.47 1315.17 1442.24 1315.16C1430.35 1316.44 1416.22 1319.3 1403.84 1322.92C1403.77 1322.96 1403.67 1322.98 1403.59 1323.01L1393.75 1326.19C1393.35 1326.31 1392.96 1326.41 1392.56 1326.5C1344.91 1343.47 1300 1379.58 1264.45 1429.74C1264.27 1430.07 1264.07 1430.4 1263.84 1430.72C1259.78 1436.35 1253.96 1445.95 1250.07 1452.81C1250.06 1452.85 1250.03 1452.88 1250.01 1452.92C1246.75 1458.99 1243.32 1466.69 1240.68 1473.7C1240.61 1473.95 1240.54 1474.2 1240.44 1474.47C1238.94 1478.59 1237.45 1484.82 1236.48 1489.85L1235.87 1495.86C1233.16 1526.3 1218.3 1551.3 1196.12 1562.75C1195.9 1562.87 1195.67 1562.97 1195.44 1563.07C1174.3 1571.96 1148.51 1572.57 1116.59 1564.93C1116.33 1564.87 1116.08 1564.8 1115.83 1564.72C1107.39 1562.58 1095.78 1560.74 1086.44 1560.07C1086.27 1560.06 1086.1 1560.05 1085.92 1560.02C1075.32 1559.46 1061.14 1559.48 1049.9 1560.12C1049.79 1560.13 1049.67 1560.14 1049.56 1560.14C1019.96 1562.25 990.275 1566.93 962.776 1573.6C948.145 1577.34 928.252 1583.42 910.224 1592.22C910.082 1592.3 909.941 1592.38 909.786 1592.46C898.818 1598.06 887.823 1605.6 880.193 1612.71L877.068 1615.98L871.639 1622.63C856.841 1642.64 842.893 1651 831.418 1653.78C818.211 1656.99 808.274 1652.81 804.107 1650.48C779.397 1636.68 770.992 1596.17 785.37 1560.16C785.403 1560.07 785.435 1559.99 785.468 1559.9C785.559 1559.71 785.636 1559.51 785.728 1559.33C788.203 1554.24 791.705 1545.22 794.088 1538.49C794.143 1538.35 794.198 1538.21 794.253 1538.07C799.281 1522.86 803.686 1504.6 806.729 1486.38C806.755 1486.21 806.794 1486.05 806.821 1485.9C809.847 1466.72 811.587 1446.61 811.716 1429.03C811.717 1428.89 811.72 1428.77 811.721 1428.63C811.688 1413.17 810.424 1397.07 808.236 1384.25C808.223 1384.1 808.182 1383.94 808.169 1383.8C805.555 1369.67 801.336 1355.73 796.506 1345.38C796.456 1345.27 796.406 1345.17 796.37 1345.07C792.514 1337.15 786.276 1327.66 781.022 1321.78C780.871 1321.6 780.722 1321.44 780.598 1321.26C772.866 1313.19 762.016 1305.46 751.85 1300.84C751.682 1300.77 751.526 1300.69 751.369 1300.6C731.043 1291.87 705.303 1289.36 680.334 1293.65C680.163 1293.7 679.99 1293.73 679.817 1293.76C665.047 1296.56 647.493 1302.66 632.603 1310.15C632.5 1310.22 632.397 1310.27 632.293 1310.32C613.359 1320.16 592.523 1335.03 573.532 1352.25C573.434 1352.36 573.334 1352.45 573.221 1352.55C559.283 1365.4 543.877 1382.38 531.909 1398.08C531.862 1398.15 531.813 1398.21 531.752 1398.28C521.008 1412.56 510.275 1430.13 502.681 1445.8C502.605 1446.01 502.516 1446.23 502.413 1446.44C499.709 1452.29 495.268 1463.8 493.065 1470.58C493.045 1470.66 493.014 1470.76 492.994 1470.84C491.665 1475.47 489.362 1485.2 488.864 1489.45C488.85 1489.6 488.837 1489.75 488.81 1489.9C488.791 1490 488.786 1490.09 488.767 1490.18C483.35 1520.97 457.927 1545.11 428.711 1547.53C402.828 1550.82 379.226 1536.57 363.592 1527.14C346.166 1516.56 329.524 1504.33 313.445 1492.49C304.35 1485.8 294.952 1478.88 285.607 1472.42C253.834 1450.33 225.549 1421.79 203.822 1389.86C179.651 1359.14 161.276 1321.64 149.223 1278.41C149.22 1278.38 149.219 1278.37 149.203 1278.34C139.278 1241.83 124.082 1202.88 104.007 1162.53C103.96 1162.46 103.927 1162.39 103.893 1162.31C87.0261 1130.35 69.7281 1100.06 43.7222 1080.69C22.6113 1065.15 2.72303 1047.12 0.160833 1020.6L0.164437 1020.64ZM999.602 295.888L999.781 296.372C994.064 282.594 984.918 267.337 975.193 256.013L975.284 256.126C966.287 245.845 953.641 235.539 941.935 228.502L941.948 228.5C870.772 187.374 757.22 196.181 682.851 225.953L683.782 225.491C673.209 230.357 661.812 237.041 653.888 245.7L654.131 245.394C652.095 247.699 648.716 252.355 647.2 255.045L647.884 253.632C645.712 257.734 643.538 263.322 642.816 267.943L642.807 267.836C642.518 270.349 642.189 275.421 642.373 277.933L642.34 277.571C642.555 280.729 643.494 286.688 644.229 289.772L643.752 288.071C646.529 299.328 651.721 311.166 657.314 321.292L656.901 320.599C665.916 336.664 678.034 352.534 690.446 366.105C690.266 365.905 690.073 365.72 689.88 365.521L690.446 366.105C723.961 402.084 765.563 431.363 808.343 455.237C808.343 455.237 808.33 455.238 808.315 455.226L808.342 455.224L808.343 455.237C839.664 472.268 874.524 487.793 909.561 495.028L909.121 494.932C928.445 498.651 951.015 499.701 969.66 492.504L968.701 492.806C973.743 490.732 982.636 485.056 986.659 481.411L986.609 481.456C993.844 474.603 1000.89 463.198 1004.9 454.133L1004.7 454.515C1009.12 444.089 1012.81 429.171 1014.52 417.986L1014.45 418.398C1016.93 400.952 1017.02 380.057 1015.46 362.512L1015.53 363.507C1013.37 341.231 1007.97 316.689 999.551 295.92L999.602 295.888ZM1229.21 962.771L1229.03 962.504C1239 976.631 1252.11 990.898 1265.92 1001.33L1265.16 1000.72C1272.22 1005.98 1282.35 1011.64 1290.57 1014.75L1289.5 1014.29C1293.95 1015.91 1302.38 1017.79 1307.08 1018.32L1306.33 1018.2C1310.85 1018.6 1319.33 1018.09 1323.8 1017.36L1323.29 1017.41C1327.69 1016.64 1336.31 1013.87 1340.45 1012.14L1340.41 1012.15C1348.52 1008.61 1358.41 1002.11 1365.32 996.601L1364.51 997.201C1385.23 980.083 1401.82 956.238 1411.96 931.415L1411.9 931.528C1412.06 931.068 1416.02 920.169 1416.18 919.708L1416.06 920.043C1429.8 875.822 1425.34 826.01 1407.74 783.498L1408.25 784.561C1404.32 775.705 1398.1 764.446 1392.2 756.74L1392.61 757.218C1389.46 753.254 1382.92 746.431 1379.02 743.197L1380.17 744.013C1374.02 739.183 1365.07 734.156 1357.49 732.022L1357.66 732.062C1353.46 730.963 1345.1 729.575 1340.79 729.42L1341.63 729.413C1333.63 729.209 1322.96 730.204 1315.16 732.024L1315.22 732.018C1306.84 734.039 1295.69 737.849 1287.85 741.416L1288.37 741.167C1276.65 746.555 1263.48 754.331 1253.08 761.967L1253.99 761.264C1239.21 772.239 1224.64 786.021 1214.18 801.246L1214.24 801.147C1197.44 825.308 1190.72 856.382 1195.69 885.369L1195.68 885.222C1200.42 912.877 1213.3 939.819 1229.19 962.76L1229.21 962.771ZM911.444 1432.69L911.117 1431.9C913.23 1436.34 918.205 1443.79 921.365 1447.55L920.889 1446.92C924.09 1450.54 930.875 1456.02 934.93 1458.62L934.28 1458.15C938.59 1460.72 947.218 1464.32 952 1465.82L951.399 1465.61C956.462 1467.09 966.901 1468.87 972.161 1469.39L972.065 1469.37C987.492 1470.6 1005.92 1468.99 1021.15 1466.36L1020.91 1466.38C1021.31 1466.31 1032.2 1464.08 1034.24 1463.66L1034.48 1463.61C1034.52 1463.6 1034.56 1463.6 1034.57 1463.6L1034.48 1463.61C1034.48 1463.61 1034.35 1463.65 1034.24 1463.67C1098.84 1449.06 1156.78 1410.05 1198.64 1359.18C1225.42 1326.77 1248.92 1289 1258.48 1247.64L1258.36 1248.26C1262.26 1230.72 1263.24 1211.19 1260.84 1193.37L1260.99 1194.34C1258.94 1179.33 1254.29 1163.06 1248.7 1148.99L1249.09 1149.93C1241.18 1130.45 1230.62 1110.26 1218.71 1092.92L1219.32 1093.75C1211.52 1082.62 1201.15 1070.3 1190.82 1061.42L1191.15 1061.68C1184.16 1055.81 1173.84 1049.1 1165.39 1045.6L1165.85 1045.76C1157.24 1042.3 1145.09 1040.03 1135.8 1040.31L1136.62 1040.23C1115.87 1041.04 1095.03 1051.94 1078.45 1063.84C1078.61 1063.7 1078.78 1063.57 1078.95 1063.44L1078.36 1063.9C1078.36 1063.9 1078.42 1063.85 1078.45 1063.84C1014.41 1113.69 968.042 1185.25 933.818 1258.06C933.829 1258.03 933.84 1258 933.863 1257.96L933.625 1258.47C933.693 1258.33 933.761 1258.19 933.83 1258.05C922.729 1282.98 912.659 1311.89 906.999 1338.62C906.999 1338.62 906.998 1338.6 906.997 1338.59L906.999 1338.62C906.809 1339.66 905.312 1347.84 904.615 1351.67L904.443 1352.62C904.355 1353.14 904.28 1353.51 904.263 1353.62L904.443 1352.62C904.486 1352.35 904.552 1352.03 904.615 1351.67C902.757 1363.97 901.557 1380.3 902.031 1392.69L902.02 1390.61C902.323 1396.87 903.717 1408.22 905.005 1414.31L904.807 1413.15C905.995 1418.43 909.182 1427.78 911.416 1432.68L911.444 1432.69ZM627.026 1082.04L626.972 1081.89C656.31 1153.3 722.171 1207.49 802.139 1183.83C871.158 1162.65 922.787 1105.93 969.02 1052.9C967.677 1054.5 966.319 1056.08 964.975 1057.66L957.353 1066.52L958.114 1065.67L962.921 1060.06C963.605 1059.25 964.289 1058.45 964.974 1057.64L971.972 1049.5C970.992 1050.63 970.011 1051.75 969.032 1052.87C1007.87 1006.91 1043.81 956.551 1074.9 905.22L1070.61 912.229C1151.62 782.4 1139.4 719.979 1007.09 640.736C860.053 552.507 742.835 542.39 658.175 712.144L660.652 707.515C603.911 820.95 577.861 961.422 627.038 1082.02L627.026 1082.04ZM489.02 806.488C552.647 750.706 610.087 605.681 627.729 522.661L627.623 523.13C632.614 497.24 635.375 468.156 629.14 442.256L629.31 443.093C627.146 434.607 622.684 423.988 617.819 416.717L618.423 417.731C615.819 413.989 610.246 407.714 606.844 404.707L607.302 405.152C601.366 400.1 592.359 395.146 585.08 392.445L585.923 392.802C574.286 388.651 559.793 386.839 547.49 386.871L548.221 386.887C529.666 387.087 509.25 391.239 491.86 397.662L492.371 397.494C472.898 404.793 452.839 416.862 437.423 430.855L437.51 430.779C361.156 501.017 380.662 640.388 404.493 731.175C404.415 730.912 404.324 730.65 404.247 730.386L404.493 731.175C412.458 756.947 421.732 785.266 440.046 805.623L439.416 805.072C442.204 807.85 447.646 812.217 451.147 814.053L450.349 813.746C453.434 815.16 458.974 816.841 462.376 816.969L462.215 816.984C462.215 816.984 462.108 816.993 462.081 816.996L462.215 816.984C463.139 816.901 468.555 816.444 468.825 816.433L467.733 816.761C475.133 815.233 489.032 806.473 489.032 806.473L489.02 806.488ZM241.854 1242.3L241.766 1242.06C262.681 1288.93 299.883 1372.76 346.138 1396.52L345.957 1396.46C351.537 1398.89 359.457 1400.61 365.556 1400.24L364.742 1400.35C368.588 1400.01 375.337 1398.74 378.979 1397.48L378.706 1397.6C382.97 1396.04 390.906 1392.34 394.834 1390.05L394.144 1390.49C403.16 1385.12 414.492 1376.66 422.456 1369.81L421.282 1370.88C455.442 1340.98 484.182 1302.9 504.844 1262.53L504.549 1263.17C513.971 1244.37 522.989 1221.07 527.98 1200.61L527.82 1201.38C533.948 1175.51 536.14 1145.82 534.538 1119.3L534.61 1120.1C529.549 1055.99 509.614 989.118 467.573 939.383C467.588 939.395 467.618 939.433 467.631 939.432L467.389 939.143C467.45 939.218 467.511 939.294 467.585 939.368C467.065 938.834 462.013 933.702 460.706 932.386L460.409 932.075C460.409 932.075 460.528 932.199 460.706 932.386L461.003 932.684C452.793 925.009 441.652 917.637 431.092 913.742L431.373 913.866C424.323 911.306 414.479 909.685 407.002 909.449L407.695 909.495C399.333 909.337 388.291 910.92 380.186 912.875L380.942 912.726C362.535 917.442 343.278 926.398 326.847 935.844L328.262 935.055C308.276 946.739 287.744 962.434 271.231 978.661L272.252 977.691C254.965 994.785 238.503 1016.56 227.719 1038.4L228.079 1037.73C219.598 1054.97 213.384 1077.01 211.653 1096.16L211.675 1095.96C210.008 1116.28 212.232 1140.37 216.072 1160.35L215.929 1159.51C221.47 1186.86 231.296 1216.53 241.883 1242.32L241.854 1242.3Z" stroke="#FFCDC6" stroke-miterlimit="10"/>
</svg>
