<svg width="1600" height="1511" viewBox="0 0 1600 1511" fill="none" xmlns="http://www.w3.org/2000/svg">
<g clip-path="url(#clip0_1188_6)">
<rect width="1600" height="1511" fill="white"/>
<path d="M-780.863 647.395L-404.556 644.324C-383.286 644.143 -373.348 617.891 -389.171 603.668L-669.039 352.091C-689.019 334.151 -667.8 302.22 -643.51 313.681L-303.135 474.188C-283.879 483.274 -263.538 463.94 -271.617 444.245L-414.597 96.1521C-424.794 71.3196 -391.83 51.7532 -374.922 72.6103L-137.904 364.92C-124.507 381.441 -97.7905 372.845 -96.5256 351.601L-74.3262 -24.0605C-72.7516 -50.8547 -34.5479 -54.1847 -28.3784 -28.0616L58.3543 338.126C63.2589 358.828 91.0597 362.674 101.411 344.089L284.401 15.2531C297.463 -8.21116 333.292 5.36665 327.536 31.593L246.792 399.149C242.223 419.928 265.609 435.468 283.008 423.207L590.548 206.349C612.489 190.887 638.896 218.662 622.324 239.777L390.081 535.882C376.942 552.635 391.269 576.77 412.255 573.259L783.45 511.308C809.935 506.893 821.68 543.368 797.57 555.216L459.855 721.247C440.753 730.643 443.179 758.599 463.623 764.562L824.932 869.803C850.72 877.314 845.454 915.286 818.608 915.492L442.302 918.564C421.031 918.745 411.093 944.997 426.917 959.22L706.785 1210.8C726.764 1228.74 705.546 1260.67 681.255 1249.21L340.881 1088.7C321.624 1079.61 301.283 1098.95 309.363 1118.64L452.343 1466.74C462.539 1491.57 429.576 1511.13 412.668 1490.28L175.65 1197.97C162.253 1181.45 135.536 1190.04 134.271 1211.29L112.072 1586.95C110.497 1613.74 72.2935 1617.07 66.1241 1590.95L-20.6086 1224.76C-25.5131 1204.06 -53.3141 1200.21 -63.6653 1218.8L-246.656 1547.63C-259.717 1571.1 -295.546 1557.52 -289.79 1531.29L-209.046 1163.74C-204.477 1142.96 -227.864 1127.42 -245.262 1139.68L-552.802 1356.54C-574.743 1372 -601.15 1344.23 -584.578 1323.11L-352.336 1027.01C-339.197 1010.25 -353.523 986.118 -374.509 989.628L-745.705 1051.58C-772.189 1055.99 -783.934 1019.52 -759.825 1007.67L-422.109 841.64C-403.007 832.244 -405.434 804.289 -425.878 798.326L-787.187 693.085C-812.974 685.573 -807.709 647.602 -780.863 647.395Z" fill="white" stroke="#C9B8FF" stroke-miterlimit="10"/>
<path d="M-737.702 623.647L-379.207 634.902C-358.943 635.547 -348.489 610.921 -363.022 596.776L-620.071 346.645C-638.424 328.808 -616.999 299.2 -594.309 311.022L-276.186 476.718C-258.194 486.088 -238.085 468.432 -245.055 449.382L-368.133 112.492C-376.909 88.4597 -344.798 71.0616 -329.464 91.5573L-114.749 378.86C-102.617 395.096 -76.8296 387.92 -74.8419 367.734L-39.5552 10.7875C-37.0255 -14.6903 -0.55127 -16.3939 4.35327 8.72241L73.1457 360.739C77.0435 380.641 103.373 385.365 113.931 368.044L300.587 61.7688C313.906 39.9049 347.541 54.2055 341.062 78.9604L250.303 425.969C245.166 445.587 266.849 461.256 283.885 450.233L584.946 255.291C606.423 241.378 630.532 268.843 613.96 288.332L381.641 561.592C368.501 577.054 381.228 600.57 401.362 598.015L757.198 552.996C782.599 549.795 792.382 584.979 768.995 595.356L441.115 740.762C422.581 748.997 423.845 775.714 443.076 782.141L783.218 895.978C807.483 904.109 801.055 940.067 775.474 939.267L416.979 928.012C396.715 927.367 386.261 951.993 400.794 966.138L657.843 1216.27C676.196 1234.11 654.771 1263.71 632.081 1251.89L313.958 1086.2C295.966 1076.83 275.858 1094.48 282.827 1113.53L405.905 1450.42C414.682 1474.45 382.57 1491.85 367.237 1471.36L152.522 1184.05C140.389 1167.82 114.602 1174.99 112.614 1195.18L77.3275 1552.13C74.7977 1577.6 38.3236 1579.31 33.4191 1554.19L-35.3734 1202.18C-39.2712 1182.27 -65.6008 1177.55 -76.1584 1194.87L-262.814 1501.15C-276.134 1523.01 -309.769 1508.71 -303.29 1483.95L-212.53 1136.95C-207.393 1117.33 -229.076 1101.66 -246.113 1112.68L-547.174 1307.62C-568.651 1321.54 -592.76 1294.07 -576.188 1274.58L-343.868 1001.32C-330.729 985.86 -343.455 962.344 -363.59 964.899L-719.426 1009.92C-744.826 1013.12 -754.61 977.935 -731.223 967.558L-403.342 822.152C-384.808 813.917 -386.073 787.201 -405.304 780.773L-745.446 666.936C-769.71 658.805 -763.283 622.847 -737.702 623.647Z" fill="white" stroke="#C9B8FF" stroke-miterlimit="10"/>
<path d="M-694.572 599.899L-353.888 625.48C-334.631 626.926 -323.66 603.926 -336.903 589.858L-571.159 341.146C-587.886 323.413 -566.28 296.128 -545.165 308.312L-249.318 479.17C-232.591 488.824 -212.715 472.872 -218.549 454.441L-321.699 128.729C-329.055 105.497 -297.77 90.2667 -284.037 110.427L-91.6246 392.747C-80.7572 408.7 -55.9249 402.943 -53.1887 383.816L-4.7887 45.6097C-1.32971 21.4742 33.4666 21.3452 37.0805 45.4548L87.9586 383.299C90.8239 402.401 115.708 407.977 126.472 391.947L316.819 108.233C330.397 87.9952 361.812 102.967 354.61 126.276L253.861 452.737C248.156 471.194 268.135 487.017 284.811 477.234L579.392 304.207C600.404 291.869 622.217 318.999 605.619 336.861L373.196 587.276C360.057 601.448 371.182 624.344 390.439 622.77L730.942 594.685C755.233 592.671 763.106 626.59 740.416 635.47L422.37 760.251C404.378 767.298 404.481 792.802 422.525 799.72L741.474 922.152C764.241 930.877 756.627 964.848 732.31 963.015L391.626 937.434C372.37 935.988 361.399 958.988 374.641 973.056L608.897 1221.77C625.624 1239.5 604.018 1266.79 582.903 1254.6L287.057 1083.74C270.33 1074.09 250.453 1090.04 256.287 1108.47L359.437 1434.19C366.794 1457.42 335.508 1472.65 321.776 1452.49L129.363 1170.17C118.496 1154.21 93.6632 1159.97 90.927 1179.1L42.5271 1517.3C39.0681 1541.44 4.27179 1541.57 0.657959 1517.46L-50.2201 1179.61C-53.0853 1160.51 -77.9694 1154.94 -88.7335 1170.97L-279.081 1454.68C-292.659 1474.92 -324.073 1459.95 -316.872 1436.64L-216.122 1110.18C-210.417 1091.72 -230.397 1075.9 -247.072 1085.68L-541.654 1258.71C-562.666 1271.05 -584.478 1243.92 -567.88 1226.05L-335.457 975.638C-322.318 961.466 -333.444 938.57 -352.7 940.144L-693.204 968.229C-717.494 970.243 -725.367 936.324 -702.677 927.444L-384.632 802.663C-366.64 795.616 -366.743 770.112 -384.786 763.194L-703.736 640.761C-726.503 632.037 -718.888 598.066 -694.572 599.899Z" fill="white" stroke="#C9B8FF" stroke-miterlimit="10"/>
<path d="M-651.431 576.176L-328.558 616.083C-310.308 618.329 -298.821 596.956 -310.773 582.991L-522.209 335.725C-537.284 318.069 -515.498 293.107 -495.983 305.678L-222.388 481.725C-206.926 491.689 -187.282 477.414 -192.006 459.629L-275.228 145.119C-281.165 122.688 -250.705 109.626 -238.573 129.425L-68.4631 406.737C-58.8347 422.406 -34.9574 418.069 -31.4984 400L29.9889 80.5088C34.3771 57.7156 67.4698 59.187 69.8188 82.2641L102.757 405.937C104.615 424.239 128.028 430.692 138.973 415.927L332.986 154.774C346.822 136.136 376.016 151.831 368.117 173.643L257.353 479.557C251.08 496.852 269.381 512.804 285.67 504.26L573.772 353.149C594.32 342.359 613.834 369.153 597.236 385.39L364.71 612.96C351.571 625.815 361.122 648.144 379.501 647.498L704.646 636.347C727.852 635.547 733.789 668.149 711.796 675.583L403.585 779.714C386.161 785.599 385.077 809.838 401.907 817.247L699.689 948.275C720.934 957.619 712.132 989.576 689.106 986.737L366.233 946.829C347.983 944.584 336.496 965.957 348.448 979.922L559.885 1227.19C574.96 1244.84 553.173 1269.81 533.658 1257.23L260.063 1081.19C244.601 1071.22 224.957 1085.5 229.681 1103.28L312.903 1417.79C318.84 1440.23 288.38 1453.29 276.248 1433.49L106.138 1156.18C96.5098 1140.51 72.6325 1144.84 69.1735 1162.91L7.68622 1482.4C3.29791 1505.2 -29.7947 1503.73 -32.1437 1480.65L-65.0815 1156.98C-66.9401 1138.67 -90.3528 1132.22 -101.298 1146.99L-295.31 1408.14C-309.146 1426.78 -338.341 1411.08 -330.442 1389.27L-219.677 1083.36C-213.405 1066.06 -231.707 1050.11 -247.995 1058.65L-536.097 1209.76C-556.644 1220.55 -576.159 1193.76 -559.561 1177.52L-327.035 949.953C-313.896 937.098 -323.447 914.769 -341.826 915.415L-666.971 926.566C-690.177 927.366 -696.114 894.764 -674.121 887.33L-365.91 783.199C-348.486 777.313 -347.402 753.075 -364.232 745.666L-662.014 614.638C-683.259 605.293 -674.456 573.337 -651.431 576.176Z" fill="white" stroke="#C9B8FF" stroke-miterlimit="10"/>
<path d="M-608.304 552.428L-303.216 606.662C-285.973 609.734 -273.97 589.987 -284.631 576.073L-473.274 330.253C-486.723 312.7 -464.756 290.062 -446.816 302.994L-195.472 484.229C-181.248 494.477 -161.888 481.88 -165.451 464.74L-228.745 161.408C-233.262 139.776 -203.629 128.909 -193.097 148.321L-45.2897 420.651C-36.9262 436.062 -14.004 433.119 -9.79639 416.108L64.7783 115.357C70.0958 93.9062 101.511 96.9522 102.569 119.048L117.592 428.55C118.444 446.051 140.36 453.357 151.537 439.856L349.215 201.238C363.309 184.201 390.284 200.593 381.662 220.959L260.908 506.326C254.067 522.459 270.665 538.566 286.592 531.261L568.215 402.066C588.324 392.85 605.49 419.309 588.892 433.919L356.288 638.619C343.123 650.183 351.099 671.892 368.601 672.228L678.412 678.01C700.509 678.423 704.51 709.734 683.24 715.697L384.838 799.203C367.956 803.927 365.71 826.927 381.353 834.826L657.968 974.45C677.715 984.414 667.726 1014.36 645.965 1010.49L340.877 956.252C323.634 953.18 311.631 972.927 322.292 986.84L510.936 1232.66C524.384 1250.21 502.417 1272.85 484.477 1259.92L233.133 1078.68C218.91 1068.44 199.55 1081.03 203.112 1098.17L266.406 1401.51C270.923 1423.14 241.29 1434 230.758 1414.59L82.9509 1142.26C74.5873 1126.85 51.6651 1129.79 47.4576 1146.81L-27.1171 1447.56C-32.4346 1469.01 -63.8494 1465.96 -64.9078 1443.87L-79.9312 1134.36C-80.783 1116.86 -102.698 1109.56 -113.876 1123.06L-311.554 1361.68C-325.648 1378.71 -352.623 1362.32 -344.001 1341.95L-223.247 1056.59C-216.406 1040.45 -233.004 1024.35 -248.931 1031.65L-530.554 1160.85C-550.663 1170.06 -567.829 1143.6 -551.231 1128.99L-318.627 924.295C-305.462 912.73 -313.438 891.021 -330.94 890.686L-640.751 884.904C-662.847 884.491 -666.848 853.179 -645.578 847.216L-347.176 763.71C-330.294 758.986 -328.049 735.987 -343.692 728.088L-620.307 588.464C-640.054 578.5 -630.065 548.556 -608.304 552.428Z" fill="white" stroke="#C9B8FF" stroke-miterlimit="10"/>
<path d="M-565.171 528.68L-277.895 597.24C-261.658 601.112 -249.139 582.991 -258.509 569.181L-424.334 324.806C-436.156 307.356 -413.983 287.041 -397.643 300.335L-168.576 486.733C-155.617 497.265 -136.49 486.372 -138.942 469.851L-182.308 177.722C-185.406 156.865 -156.598 148.191 -147.641 167.267L-22.1108 434.616C-15.0121 449.742 6.95496 448.219 11.9111 432.267L99.5731 150.256C105.82 130.122 135.557 134.794 135.35 155.858L132.433 451.188C132.279 467.889 152.723 476.046 164.106 463.837L365.45 247.779C379.828 232.368 404.557 249.457 395.239 268.352L264.494 533.171C257.112 548.143 271.98 564.379 287.546 558.313L562.716 451.007C582.359 443.341 597.228 469.49 580.63 482.474L347.923 664.328C334.758 674.602 341.134 695.692 357.784 696.982L652.236 719.698C673.248 721.324 675.313 751.319 654.714 755.811L366.147 818.692C349.833 822.254 346.426 844.015 360.855 852.404L616.304 1000.62C634.528 1011.21 623.377 1039.14 602.881 1034.23L315.605 965.673C299.368 961.801 286.849 979.922 296.219 993.732L462.044 1238.11C473.866 1255.56 451.693 1275.87 435.353 1262.58L206.285 1076.18C193.327 1065.65 174.199 1076.54 176.652 1093.06L220.018 1385.19C223.116 1406.05 194.308 1414.72 185.351 1395.65L59.8206 1128.3C52.7219 1113.17 30.7548 1114.69 25.7987 1130.65L-61.8633 1412.66C-68.1102 1432.79 -97.8471 1428.12 -97.6406 1407.05L-94.7237 1111.72C-94.5688 1095.02 -115.013 1086.87 -126.397 1099.08L-327.74 1315.13C-342.118 1330.54 -366.848 1313.46 -357.529 1294.56L-226.785 1029.74C-219.402 1014.77 -234.27 998.534 -249.836 1004.6L-525.006 1111.91C-544.65 1119.57 -559.518 1093.42 -542.92 1080.44L-310.213 898.584C-297.048 888.311 -303.424 867.221 -320.074 865.93L-614.526 843.215C-635.538 841.589 -637.603 811.593 -617.004 807.102L-328.437 744.221C-312.123 740.659 -308.716 718.898 -323.146 710.509L-578.594 562.288C-596.818 551.705 -585.667 523.775 -565.171 528.68Z" fill="white" stroke="#C9B8FF" stroke-miterlimit="10"/>
<path d="M-522.008 504.957L-252.543 587.818C-237.313 592.516 -224.277 575.995 -232.357 562.263L-375.388 319.308C-385.585 301.961 -363.23 283.969 -348.465 297.625L-141.649 489.211C-129.955 500.053 -111.06 490.837 -112.376 474.936L-135.841 193.984C-137.519 173.927 -109.563 167.422 -102.18 186.137L1.0473 448.478C6.8811 463.32 27.919 463.217 33.5979 448.323L134.373 185.027C141.575 166.235 169.582 172.507 168.111 192.564L147.28 473.723C146.092 489.624 165.091 498.659 176.681 487.714L381.716 294.217C396.352 280.407 418.888 298.218 408.846 315.642L268.086 559.914C260.135 573.724 273.326 590.115 288.504 585.288L557.195 499.898C576.375 493.806 588.946 519.619 572.322 530.951L339.512 689.961C326.347 698.944 331.122 719.44 346.894 721.686L626.014 761.335C645.941 764.175 646.071 792.879 626.168 795.899L347.436 838.156C331.664 840.556 327.095 861.078 340.337 869.932L574.619 1026.77C591.346 1037.98 579.007 1063.89 559.776 1057.98L290.311 975.121C275.082 970.423 262.046 986.943 270.125 1000.68L413.157 1243.63C423.353 1260.98 400.999 1278.97 386.234 1265.31L179.417 1073.73C167.724 1062.89 148.828 1072.1 150.145 1088L173.609 1368.95C175.287 1389.01 147.331 1395.52 139.949 1376.8L36.7213 1114.46C30.8875 1099.62 9.84961 1099.72 4.17065 1114.62L-96.6045 1377.91C-103.806 1396.7 -131.814 1390.43 -130.342 1370.37L-109.511 1089.22C-108.324 1073.31 -127.322 1064.28 -138.913 1075.23L-343.948 1268.72C-358.584 1282.53 -381.119 1264.72 -371.077 1247.3L-230.317 1003.03C-222.367 989.215 -235.558 972.824 -250.736 977.651L-519.427 1063.04C-538.606 1069.13 -551.177 1043.32 -534.553 1031.99L-301.743 872.978C-288.578 863.995 -293.354 843.499 -309.126 841.253L-588.245 801.604C-608.173 798.764 -608.302 770.06 -588.4 767.04L-309.668 724.783C-293.896 722.383 -289.327 701.861 -302.569 693.007L-536.851 536.166C-553.578 524.963 -541.239 499.046 -522.008 504.957Z" fill="white" stroke="#C9B8FF" stroke-miterlimit="10"/>
<path d="M-478.871 481.209L-227.217 578.396C-212.994 583.894 -199.442 569.026 -206.231 555.371L-326.444 313.861C-335.014 296.618 -312.453 280.949 -299.288 294.992L-114.723 491.741C-104.294 502.866 -85.6313 495.355 -85.812 480.099L-89.3484 210.35C-89.6065 191.093 -62.4767 186.756 -56.6945 205.11L24.2302 462.468C28.7992 477.027 48.8819 478.344 55.3353 464.508L169.198 219.952C177.329 202.503 203.659 210.35 200.897 229.4L162.151 496.387C159.957 511.488 177.484 521.375 189.281 511.72L397.981 340.785C412.875 328.575 433.191 347.083 422.426 363.061L271.677 586.785C263.158 599.434 274.645 615.954 289.462 612.366L551.674 548.892C570.388 544.374 580.662 569.852 564.038 579.558L331.15 715.723C317.986 723.415 321.161 743.292 336.081 746.492L599.841 803.075C618.659 807.102 616.852 834.542 597.673 836.065L328.776 857.696C313.572 858.909 307.815 878.192 319.87 887.562L532.959 1053C548.163 1064.8 534.637 1088.73 516.697 1081.78L265.043 984.595C250.819 979.096 237.267 993.965 244.056 1007.62L364.269 1249.13C372.839 1266.37 350.278 1282.04 337.113 1268L152.548 1071.25C142.12 1060.12 123.457 1067.64 123.637 1082.89L127.174 1352.64C127.432 1371.9 100.302 1376.23 94.5198 1357.88L13.5952 1100.52C9.02618 1085.96 -11.0566 1084.65 -17.5099 1098.48L-131.372 1343.04C-139.504 1360.49 -165.833 1352.64 -163.071 1333.59L-124.325 1066.6C-122.131 1051.5 -139.659 1041.62 -151.455 1051.27L-360.156 1222.21C-375.05 1234.42 -395.365 1215.91 -384.601 1199.93L-233.851 976.205C-225.333 963.557 -236.82 947.036 -251.637 950.624L-513.848 1014.1C-532.563 1018.62 -542.837 993.139 -526.213 983.433L-293.325 847.268C-280.16 839.575 -283.335 819.699 -298.256 816.498L-562.016 759.915C-580.834 755.888 -579.027 728.449 -559.848 726.926L-290.95 705.294C-275.746 704.081 -269.99 684.799 -282.045 675.428L-495.134 509.991C-510.338 498.194 -496.812 474.265 -478.871 481.209Z" fill="white" stroke="#C9B8FF" stroke-miterlimit="10"/>
<path d="M-435.748 457.461L-201.905 568.974C-188.689 575.273 -174.621 562.03 -180.119 548.453L-277.538 308.389C-284.482 291.249 -261.74 277.903 -250.15 292.307L-87.8362 494.245C-78.6466 505.654 -60.2418 499.82 -59.3125 485.21L-42.921 226.664C-41.7594 208.207 -15.4556 206.039 -11.2739 224.057L47.3481 476.408C50.6522 490.682 69.78 493.419 76.9819 480.641L203.932 254.8C212.992 238.693 237.618 248.141 233.591 266.184L176.905 518.974C173.704 533.274 189.76 544.039 201.763 535.649L414.129 387.249C429.282 376.665 447.377 395.87 435.916 410.351L275.151 613.528C266.064 625.015 275.848 641.665 290.303 639.316L546.035 597.756C564.285 594.788 572.262 619.956 555.638 628.035L322.647 741.33C309.482 747.731 311.057 766.988 325.099 771.144L573.527 844.66C591.26 849.901 587.517 876.023 569.035 876.101L309.973 877.082C295.311 877.134 288.393 895.177 299.26 905.012L491.182 1079.05C504.889 1091.46 490.175 1113.38 473.5 1105.43L239.657 993.913C226.441 987.615 212.373 1000.86 217.871 1014.43L315.29 1254.5C322.234 1271.64 299.492 1284.98 287.902 1270.58L125.588 1068.64C116.399 1057.23 97.9938 1063.07 97.0645 1077.68L80.6732 1336.22C79.5115 1354.68 53.2078 1356.85 49.026 1338.83L-9.59601 1086.48C-12.9001 1072.2 -32.0278 1069.47 -39.2297 1082.25L-166.18 1308.09C-175.24 1324.19 -199.866 1314.75 -195.839 1296.7L-139.153 1043.91C-135.952 1029.61 -152.008 1018.85 -164.011 1027.24L-376.377 1175.64C-391.53 1186.22 -409.625 1167.02 -398.164 1152.54L-237.399 949.359C-228.312 937.872 -238.095 921.223 -252.551 923.572L-508.283 965.131C-526.533 968.1 -534.51 942.932 -517.886 934.852L-284.895 821.557C-271.73 815.156 -273.305 795.899 -287.347 791.743L-535.775 718.227C-553.508 712.987 -549.765 686.864 -531.283 686.786L-272.221 685.805C-257.559 685.754 -250.641 667.71 -261.508 657.875L-453.43 483.842C-467.137 471.426 -452.423 449.51 -435.748 457.461Z" fill="white" stroke="#C9B8FF" stroke-miterlimit="10"/>
<path d="M34.1841 242.952L70.5035 490.321C72.5685 504.312 90.741 508.468 98.6657 496.749L238.703 289.648C248.693 274.857 271.641 285.931 266.323 302.942L191.723 541.561C187.515 555.061 202.074 566.677 214.31 559.578L430.341 433.738C445.752 424.755 461.627 444.657 449.443 457.693L278.688 640.322C269.034 650.648 277.113 667.452 291.207 666.342L540.461 646.698C558.246 645.304 563.899 670.111 547.276 676.59L314.181 767.04C300.991 772.151 300.991 790.814 314.181 795.925L547.276 886.375C563.899 892.828 558.246 917.661 540.461 916.267L291.207 896.623C277.113 895.513 269.034 912.317 278.688 922.643L449.443 1105.27C461.627 1118.31 445.752 1138.21 430.341 1129.23L214.31 1003.39C202.1 996.262 187.515 1007.9 191.723 1021.4L266.323 1260.02C271.641 1277.06 248.693 1288.11 238.703 1273.32L98.6657 1066.22C90.741 1054.5 72.5685 1058.65 70.5035 1072.64L34.1841 1320.01C31.6028 1337.67 6.12506 1337.67 3.5437 1320.01L-32.7756 1072.64C-34.8407 1058.65 -53.0133 1054.5 -60.938 1066.22L-200.975 1273.32C-210.965 1288.11 -233.913 1277.03 -228.595 1260.02L-153.995 1021.4C-149.787 1007.9 -164.346 996.288 -176.582 1003.39L-392.613 1129.23C-408.024 1138.21 -423.899 1118.31 -411.715 1105.27L-240.96 922.643C-231.306 912.317 -239.385 895.513 -253.48 896.623L-502.733 916.267C-520.518 917.661 -526.171 892.854 -509.548 886.375L-276.453 795.925C-263.263 790.814 -263.263 772.151 -276.453 767.04L-509.548 676.59C-526.171 670.137 -520.518 645.304 -502.733 646.698L-253.48 666.342C-239.385 667.452 -231.306 650.648 -240.96 640.322L-411.715 457.693C-423.899 444.657 -408.024 424.755 -392.613 433.738L-176.582 559.578C-164.372 566.703 -149.787 555.061 -153.995 541.561L-228.595 302.942C-233.913 285.906 -210.965 274.857 -200.975 289.648L-60.938 496.749C-53.0133 508.468 -34.8407 504.312 -32.7756 490.321L3.5437 242.952C6.12506 225.296 31.6028 225.296 34.1841 242.952Z" fill="white" stroke="#C9B8FF" stroke-miterlimit="10"/>
<path d="M747.875 739.791L1123.76 721.658C1145 720.626 1153.88 693.997 1137.5 680.419L847.788 440.247C827.106 423.121 847.029 390.366 871.759 400.846L1218.29 547.599C1237.89 555.908 1257.44 535.775 1248.58 516.418L1091.78 174.328C1080.6 149.924 1112.75 129.054 1130.48 149.217L1379.01 431.805C1393.06 447.776 1419.41 438.118 1419.82 416.84L1426.97 40.5913C1427.47 13.7555 1465.51 8.89901 1472.72 34.7542L1574.04 397.176C1579.77 417.666 1607.7 420.396 1617.3 401.411L1786.98 65.514C1799.09 41.5456 1835.44 53.6784 1830.73 80.1141L1764.77 450.607C1761.03 471.553 1785.02 486.144 1801.92 473.196L2100.53 244.202C2121.84 227.874 2149.33 254.57 2133.62 276.332L1913.42 581.495C1900.96 598.76 1916.24 622.303 1937.07 617.955L2305.49 541.194C2331.77 535.724 2344.97 571.699 2321.35 584.502L1990.55 763.919C1971.84 774.072 1975.39 801.908 1996.05 807.048L2361.29 897.742C2387.35 904.215 2383.61 942.367 2356.8 943.648L1980.91 961.78C1959.67 962.812 1950.79 989.441 1967.17 1003.02L2256.88 1243.19C2277.56 1260.32 2257.64 1293.07 2232.91 1282.59L1886.38 1135.84C1866.78 1127.53 1847.23 1147.66 1856.09 1167.02L2012.89 1509.11C2024.07 1533.51 1991.92 1554.39 1974.19 1534.22L1725.66 1251.63C1711.61 1235.66 1685.26 1245.32 1684.85 1266.6L1677.7 1642.85C1677.2 1669.68 1639.16 1674.54 1631.95 1648.68L1530.63 1286.26C1524.9 1265.77 1496.97 1263.04 1487.37 1282.03L1317.69 1617.92C1305.58 1641.89 1269.23 1629.76 1273.94 1603.32L1339.9 1232.83C1343.64 1211.89 1319.65 1197.29 1302.75 1210.24L1004.14 1439.24C982.834 1455.56 955.336 1428.87 971.05 1407.11L1191.25 1101.94C1203.71 1084.68 1188.43 1061.14 1167.6 1065.48L799.183 1142.24C772.897 1147.72 759.701 1111.74 783.317 1098.94L1114.12 919.52C1132.83 909.367 1129.28 881.53 1108.62 876.391L743.384 785.697C717.317 779.224 721.059 741.072 747.875 739.791Z" fill="white" stroke="#C9B8FF" stroke-miterlimit="10"/>
<path d="M790.05 714.334L1148.71 711.23C1168.98 711.063 1178.44 686.039 1163.35 672.486L896.499 432.845C877.446 415.757 897.669 385.315 920.814 396.22L1245.32 549.049C1263.67 557.691 1283.05 539.244 1275.33 520.488L1138.86 188.795C1129.13 165.133 1160.52 146.464 1176.66 166.329L1402.7 444.807C1415.48 460.544 1440.96 452.342 1442.13 432.092L1463.11 74.0195C1464.61 48.4609 1500.99 45.2986 1506.9 70.1985L1589.72 419.179C1594.42 438.909 1620.91 442.575 1630.77 424.846L1805.02 111.344C1817.45 88.9649 1851.63 101.908 1846.15 126.902L1769.35 477.265C1765 497.073 1787.3 511.862 1803.88 500.166L2096.89 293.329C2117.8 278.567 2142.99 305.046 2127.21 325.182L1906.01 607.523C1893.5 623.498 1907.16 646.486 1927.18 643.127L2280.92 583.9C2306.18 579.685 2317.36 614.449 2294.41 625.754L1972.61 784.169C1954.42 793.138 1956.75 819.783 1976.23 825.436L2320.65 925.566C2345.22 932.719 2340.24 968.905 2314.65 969.13L1955.99 972.234C1935.72 972.401 1926.26 997.425 1941.34 1010.98L2208.2 1250.62C2227.25 1267.71 2207.03 1298.15 2183.88 1287.24L1859.38 1134.42C1841.03 1125.77 1821.64 1144.22 1829.37 1162.98L1965.84 1494.67C1975.57 1518.33 1944.18 1537 1928.04 1517.13L1701.99 1238.66C1689.22 1222.92 1663.74 1231.12 1662.56 1251.37L1641.59 1609.44C1640.08 1635 1603.71 1638.17 1597.8 1613.27L1514.97 1264.29C1510.28 1244.55 1483.78 1240.89 1473.93 1258.62L1299.68 1572.12C1287.25 1594.5 1253.07 1581.56 1258.55 1556.56L1335.35 1206.2C1339.7 1186.39 1317.4 1171.6 1300.82 1183.3L1007.8 1390.13C986.902 1404.9 961.712 1378.42 977.491 1358.28L1198.69 1075.94C1211.2 1059.97 1197.54 1036.98 1177.52 1040.34L823.773 1099.56C798.522 1103.78 787.338 1069.01 810.291 1057.71L1132.09 899.295C1150.28 890.326 1147.94 863.681 1128.47 858.028L784.045 757.898C759.475 750.745 764.458 714.558 790.05 714.334Z" fill="white" stroke="#C9B8FF" stroke-miterlimit="10"/>
<path d="M832.195 688.879L1173.63 700.802C1192.93 701.475 1202.97 678.055 1189.18 664.528L945.152 425.393C927.728 408.343 948.225 380.216 969.811 391.544L1272.26 550.423C1289.36 559.4 1308.58 542.665 1302.01 524.482L1185.91 203.16C1177.63 180.241 1208.28 163.771 1222.81 183.365L1426.37 457.757C1437.86 473.262 1462.45 466.516 1464.41 447.295L1499.24 107.422C1501.73 83.1676 1536.49 81.6458 1541.07 105.591L1605.43 441.129C1609.06 460.101 1634.14 464.676 1644.26 448.228L1823.09 157.122C1835.85 136.357 1867.84 150.059 1861.58 173.638L1773.98 503.87C1769.02 522.54 1789.61 537.551 1805.88 527.108L2093.3 342.429C2113.8 329.259 2136.68 355.494 2120.81 374.006L1898.6 633.524C1886.04 648.21 1898.07 670.643 1917.25 668.299L2256.36 626.607C2280.55 623.622 2289.77 657.199 2267.46 666.98L1954.66 804.392C1936.96 812.154 1938.09 837.633 1956.39 843.823L2279.99 953.39C2303.09 961.197 2296.84 995.445 2272.47 994.587L1931.03 982.664C1911.73 981.99 1901.69 1005.41 1915.49 1018.94L2159.51 1258.07C2176.94 1275.12 2156.44 1303.25 2134.85 1291.92L1832.4 1133.04C1815.3 1124.07 1796.08 1140.8 1802.65 1158.98L1918.75 1480.31C1927.04 1503.22 1896.38 1519.69 1881.86 1500.1L1678.3 1225.71C1666.8 1210.2 1642.22 1216.95 1640.25 1236.17L1605.43 1576.04C1602.94 1600.3 1568.17 1601.82 1563.6 1577.87L1499.24 1242.34C1495.61 1223.36 1470.52 1218.79 1460.41 1235.24L1281.57 1526.34C1268.81 1547.11 1236.82 1533.41 1243.09 1509.83L1330.69 1179.6C1335.65 1160.93 1315.05 1145.91 1298.78 1156.36L1011.36 1341.04C990.86 1354.21 967.98 1327.97 983.849 1309.46L1206.06 1049.94C1218.62 1035.25 1206.59 1012.82 1187.41 1015.17L848.306 1056.86C824.115 1059.84 814.891 1026.27 837.207 1016.49L1150 879.073C1167.7 871.311 1166.57 845.832 1148.27 839.642L824.674 730.075C801.576 722.268 807.825 688.021 832.195 688.879Z" fill="white" stroke="#C9B8FF" stroke-miterlimit="10"/>
<path d="M874.352 663.448L1198.56 690.399C1216.89 691.912 1227.51 670.096 1215.01 656.621L993.844 418.017C978.075 400.978 998.845 375.164 1018.85 386.944L1299.27 551.898C1315.12 561.235 1334.18 546.186 1328.74 528.604L1233 217.678C1226.17 195.501 1256.08 181.231 1269 200.528L1450.07 470.809C1460.32 486.08 1484 480.791 1486.74 462.598L1535.38 140.901C1538.86 117.951 1571.98 118.096 1575.25 141.061L1621.12 463.156C1623.71 481.369 1647.36 486.879 1657.71 471.688L1841.11 202.978C1854.19 183.802 1883.99 198.315 1876.97 220.426L1778.54 530.528C1772.96 548.06 1791.89 563.268 1807.82 554.078L2089.65 391.556C2109.74 379.952 2130.32 405.944 2114.38 422.832L1891.15 659.527C1878.54 672.898 1888.97 694.826 1907.31 693.446L2231.75 669.288C2254.91 667.56 2262.14 699.898 2240.46 708.207L1936.67 824.591C1919.49 831.17 1919.38 855.432 1936.5 862.161L2239.28 981.164C2260.89 989.651 2253.37 1021.93 2230.25 1020.02L1906.04 993.068C1887.71 991.555 1877.09 1013.37 1889.59 1026.85L2110.76 1265.45C2126.53 1282.49 2105.76 1308.3 2085.75 1296.52L1805.33 1131.57C1789.48 1122.23 1770.42 1137.28 1775.86 1154.86L1871.6 1465.79C1878.43 1487.97 1848.52 1502.24 1835.6 1482.94L1654.53 1212.66C1644.28 1197.39 1620.6 1202.68 1617.86 1220.87L1569.22 1542.57C1565.74 1565.52 1532.62 1565.37 1529.35 1542.41L1483.48 1220.31C1480.89 1202.1 1457.24 1196.59 1446.89 1211.78L1263.49 1480.49C1250.41 1499.66 1220.61 1485.15 1227.63 1463.04L1326.06 1152.94C1331.64 1135.41 1312.71 1120.2 1296.78 1129.39L1014.95 1291.91C994.856 1303.51 974.284 1277.52 990.219 1260.64L1213.45 1023.94C1226.06 1010.57 1215.63 988.641 1197.29 990.021L872.85 1014.18C849.695 1015.91 842.457 983.569 864.135 975.26L1167.93 858.875C1185.11 852.297 1185.22 828.035 1168.1 821.306L865.316 702.302C843.715 693.816 851.231 661.532 874.352 663.448Z" fill="white" stroke="#C9B8FF" stroke-miterlimit="10"/>
<path d="M916.494 637.992L1223.51 679.97C1240.86 682.349 1252.06 662.138 1240.85 648.662L1042.52 410.59C1028.38 393.589 1049.42 370.09 1067.87 382.294L1326.27 553.323C1340.89 562.993 1359.73 549.631 1355.48 532.648L1280.1 232.092C1274.72 210.659 1303.89 198.614 1315.19 217.588L1473.78 483.784C1482.76 498.847 1505.54 494.99 1509.06 477.824L1571.54 174.329C1576 152.682 1607.51 154.468 1609.45 176.504L1636.85 485.157C1638.4 502.61 1660.59 509.032 1671.22 495.095L1859.19 248.755C1872.59 231.168 1900.2 246.466 1892.4 267.162L1783.16 557.133C1776.97 573.527 1794.2 588.957 1809.83 581.021L2086.05 440.655C2105.77 430.643 2123.99 456.393 2107.99 471.656L1883.76 685.502C1871.07 697.584 1879.91 718.957 1897.41 718.591L2207.21 711.968C2229.3 711.496 2234.55 742.622 2213.54 749.432L1918.72 844.815C1902.04 850.211 1900.71 873.282 1916.66 880.549L2198.64 1008.99C2218.77 1018.15 2209.99 1048.47 2188.09 1045.48L1881.08 1003.5C1863.73 1001.12 1852.52 1021.33 1863.73 1034.81L2062.07 1272.88C2076.21 1289.88 2055.16 1313.38 2036.72 1301.17L1778.32 1130.14C1763.7 1120.47 1744.86 1133.84 1749.1 1150.82L1824.49 1451.38C1829.87 1472.81 1800.7 1484.85 1789.39 1465.88L1630.81 1199.68C1621.83 1184.62 1599.05 1188.48 1595.52 1205.64L1533.05 1509.14C1528.59 1530.79 1497.08 1529 1495.14 1506.96L1467.74 1198.31C1466.19 1180.86 1444 1174.44 1433.37 1188.37L1245.4 1434.71C1232 1452.3 1204.39 1437 1212.19 1416.31L1321.42 1126.33C1327.61 1109.94 1310.38 1094.51 1294.76 1102.45L1018.54 1242.81C998.812 1252.83 980.601 1227.07 996.601 1211.81L1220.82 997.965C1233.52 985.883 1224.68 964.511 1207.18 964.876L897.381 971.5C875.286 971.972 870.035 940.846 891.049 934.036L1185.87 838.652C1202.55 833.256 1203.87 810.185 1187.93 802.919L905.943 674.479C885.813 665.314 894.596 634.994 916.494 637.992Z" fill="white" stroke="#C9B8FF" stroke-miterlimit="10"/>
<path d="M958.641 612.536L1248.43 669.542C1264.81 672.761 1276.59 654.154 1266.68 640.73L1091.21 403.189C1078.69 386.226 1100.04 365.04 1116.9 377.669L1353.24 554.748C1366.61 564.753 1385.29 553.103 1382.17 536.694L1327.15 246.534C1323.22 225.818 1351.66 215.998 1361.37 234.701L1497.5 496.81C1505.2 511.64 1527.09 509.239 1531.4 493.101L1607.71 207.808C1613.14 187.439 1643.04 190.917 1643.68 211.972L1652.59 507.183C1653.1 523.877 1673.85 531.209 1684.74 518.553L1877.27 294.609C1891.02 278.636 1916.42 294.72 1907.86 313.974L1787.82 583.814C1781.04 599.069 1796.55 614.697 1811.86 608.013L2082.52 489.778C2101.84 481.332 2117.74 506.864 2101.67 520.502L1876.43 711.527C1863.69 722.319 1870.91 743.136 1887.59 743.76L2182.72 754.67C2203.78 755.454 2207.04 785.343 2186.64 790.655L1900.82 865.037C1884.66 869.249 1882.13 891.129 1896.88 898.934L2158.06 1036.81C2176.69 1046.66 2166.67 1075.01 2145.99 1070.93L1856.2 1013.92C1839.83 1010.7 1828.04 1029.31 1837.96 1042.74L2013.43 1280.28C2025.94 1297.24 2004.6 1318.43 1987.74 1305.8L1751.4 1128.72C1738.03 1118.71 1719.35 1130.36 1722.46 1146.77L1777.49 1436.93C1781.42 1457.65 1752.98 1467.47 1743.27 1448.76L1607.13 1186.66C1599.44 1171.83 1577.55 1174.23 1573.23 1190.36L1496.93 1475.66C1491.49 1496.03 1461.59 1492.55 1460.96 1471.49L1452.05 1176.28C1451.54 1159.59 1430.78 1152.26 1419.9 1164.91L1227.36 1388.86C1213.61 1404.83 1188.22 1388.75 1196.77 1369.49L1316.81 1099.65C1323.59 1084.4 1308.08 1068.77 1292.77 1075.45L1022.12 1193.69C1002.8 1202.13 986.896 1176.6 1002.96 1162.96L1228.2 971.939C1240.95 961.147 1233.73 940.329 1217.04 939.706L921.916 928.795C900.856 928.011 897.592 898.123 917.995 892.811L1203.81 818.429C1219.97 814.216 1222.51 792.337 1207.75 784.532L946.575 646.656C927.941 636.81 937.966 608.456 958.641 612.536Z" fill="white" stroke="#C9B8FF" stroke-miterlimit="10"/>
<path d="M1000.82 587.105L1273.39 659.113C1288.79 663.198 1301.16 646.169 1292.53 632.771L1139.89 395.736C1129.01 378.811 1150.63 359.939 1165.93 372.992L1380.24 556.147C1392.36 566.511 1410.87 556.547 1408.92 540.711L1374.23 260.924C1371.75 240.95 1399.42 233.331 1407.55 251.735L1521.2 509.734C1527.62 524.331 1548.64 523.386 1553.71 508.276L1643.87 241.157C1650.31 222.092 1678.55 227.238 1677.88 247.338L1668.32 529.105C1667.77 545.041 1687.12 553.308 1698.26 541.908L1895.38 340.359C1909.46 325.974 1932.69 342.869 1923.35 360.681L1792.48 610.391C1785.09 624.509 1798.93 640.359 1813.9 634.928L2078.96 538.851C2097.88 531.996 2111.47 557.285 2095.31 569.274L1869.06 737.475C1856.26 746.978 1861.85 767.266 1877.7 768.879L2158.18 797.324C2178.21 799.363 2179.49 828.039 2159.72 831.854L1882.91 885.234C1867.24 888.264 1863.5 908.952 1877.08 917.269L2117.46 1064.61C2134.62 1075.13 2123.33 1101.52 2103.87 1096.38L1831.31 1024.38C1815.9 1020.29 1803.54 1037.32 1812.16 1050.72L1964.8 1287.75C1975.69 1304.68 1954.07 1323.55 1938.77 1310.5L1724.45 1127.34C1712.33 1116.98 1693.82 1126.94 1695.77 1142.78L1730.47 1422.57C1732.94 1442.54 1705.27 1450.16 1697.15 1431.75L1583.5 1173.76C1577.08 1159.16 1556.06 1160.1 1550.98 1175.21L1460.83 1442.33C1454.38 1461.4 1426.15 1456.25 1426.81 1436.15L1436.37 1154.38C1436.92 1138.45 1417.58 1130.18 1406.44 1141.58L1209.31 1343.13C1195.24 1357.52 1172.01 1340.62 1181.35 1322.81L1312.21 1073.1C1319.61 1058.98 1305.77 1043.13 1290.8 1048.56L1025.74 1144.64C1006.82 1151.49 993.225 1126.2 1009.38 1114.22L1235.64 946.014C1248.44 936.511 1242.84 916.223 1226.99 914.61L946.511 886.166C926.486 884.126 925.208 855.45 944.973 851.636L1221.79 798.256C1237.45 795.226 1241.2 774.538 1227.61 766.221L987.239 618.883C970.077 608.358 981.368 581.969 1000.82 587.105Z" fill="white" stroke="#C9B8FF" stroke-miterlimit="10"/>
<path d="M1042.97 561.649L1298.31 648.685C1312.75 653.609 1325.69 638.21 1318.36 624.838L1188.58 388.334C1179.32 371.448 1201.24 354.888 1214.96 368.393L1407.25 557.596C1418.12 568.295 1436.46 560.043 1435.67 544.806L1421.34 275.415C1420.31 256.184 1447.25 250.765 1453.76 268.872L1544.92 522.785C1550.07 537.149 1570.19 537.661 1576.08 523.578L1680.06 274.661C1687.49 256.899 1714.11 263.686 1712.11 282.832L1684.09 551.156C1682.5 566.332 1700.41 575.509 1711.81 565.391L1913.5 386.238C1927.89 373.442 1948.93 391.122 1938.82 407.518L1797.14 637.097C1789.14 650.077 1801.28 666.124 1815.94 661.946L2075.4 588.026C2093.92 582.763 2105.2 607.809 2088.98 618.173L1861.73 763.551C1848.89 771.764 1852.85 791.497 1867.89 794.098L2133.7 840.078C2152.67 843.348 2151.96 870.838 2132.86 873.128L1865.04 905.505C1849.9 907.326 1844.92 926.824 1857.34 935.704L2076.88 1092.48C2092.54 1103.66 2079.99 1128.11 2061.78 1121.89L1806.44 1034.85C1792.01 1029.93 1779.06 1045.33 1786.39 1058.7L1916.18 1295.2C1925.43 1312.09 1903.51 1328.65 1889.8 1315.15L1697.5 1125.94C1686.64 1115.24 1668.29 1123.5 1669.08 1138.73L1683.41 1408.12C1684.44 1427.35 1657.51 1432.77 1651 1414.67L1559.83 1160.75C1554.69 1146.39 1534.57 1145.88 1528.67 1159.96L1424.69 1408.88C1417.26 1426.64 1390.64 1419.85 1392.64 1400.71L1420.67 1132.38C1422.25 1117.21 1404.34 1108.03 1392.94 1118.15L1191.25 1297.3C1176.86 1310.1 1155.82 1292.42 1165.94 1276.02L1307.61 1046.44C1315.61 1033.46 1303.48 1017.41 1288.81 1021.59L1029.35 1095.51C1010.83 1100.78 999.549 1075.73 1015.77 1065.37L1243.02 919.987C1255.87 911.774 1251.9 892.041 1236.86 889.44L971.05 843.46C952.086 840.19 952.793 812.7 971.896 810.411L1239.71 778.033C1254.86 776.212 1259.83 756.714 1247.41 747.834L1027.87 591.059C1012.21 579.88 1024.77 555.429 1042.97 561.649Z" fill="white" stroke="#C9B8FF" stroke-miterlimit="10"/>
<path d="M1085.11 536.194L1323.23 638.258C1336.69 644.022 1350.21 630.227 1344.18 616.881L1237.23 380.909C1229.6 364.06 1251.79 349.815 1263.95 363.744L1434.22 559.022C1443.85 570.055 1462.01 563.489 1462.35 548.853L1468.38 289.858C1468.81 271.37 1495 268.15 1499.9 285.986L1568.58 535.788C1572.45 549.919 1591.67 551.887 1598.36 538.832L1716.16 308.09C1724.57 291.633 1749.56 300.088 1746.26 318.278L1699.73 573.134C1697.11 587.551 1713.58 597.664 1725.24 588.801L1931.5 432.018C1946.21 420.837 1965.06 439.302 1954.19 454.231L1801.69 663.68C1793.07 675.521 1803.51 691.766 1817.86 688.84L2071.72 637.077C2089.84 633.381 2098.82 658.209 2082.53 666.948L1854.26 789.478C1841.36 796.401 1843.71 815.58 1857.9 819.17L2109.07 882.683C2127 887.209 2124.31 913.461 2105.85 914.278L1847.03 925.628C1832.38 926.267 1826.19 944.573 1837.44 953.965L2036.18 1120.18C2050.37 1132.03 2036.55 1154.52 2019.57 1147.24L1781.45 1045.18C1767.99 1039.42 1754.46 1053.21 1760.5 1066.56L1867.45 1302.53C1875.07 1319.38 1852.89 1333.62 1840.73 1319.69L1670.46 1124.42C1660.82 1113.38 1642.67 1119.95 1642.32 1134.59L1636.29 1393.58C1635.87 1412.07 1609.67 1415.29 1604.78 1397.45L1536.1 1147.65C1532.23 1133.52 1513 1131.55 1506.32 1144.61L1388.51 1375.35C1380.1 1391.81 1355.12 1383.35 1358.42 1365.16L1404.94 1110.3C1407.57 1095.89 1391.09 1085.77 1379.44 1094.64L1173.18 1251.42C1158.46 1262.6 1139.61 1244.14 1150.49 1229.21L1302.99 1019.76C1311.61 1007.92 1301.17 991.672 1286.82 994.598L1032.95 1046.36C1014.84 1050.06 1005.86 1025.23 1022.15 1016.49L1250.42 893.96C1263.31 887.037 1260.97 867.859 1246.77 864.268L995.601 800.755C977.672 796.229 980.366 769.977 998.831 769.16L1257.65 757.81C1272.29 757.171 1278.48 738.865 1267.23 729.473L1068.5 563.262C1054.3 551.404 1068.13 528.917 1085.11 536.194Z" fill="white" stroke="#C9B8FF" stroke-miterlimit="10"/>
<path d="M1546.08 303.047L1592.27 548.764C1594.89 562.66 1613.22 566.086 1620.67 554.059L1752.3 341.519C1761.69 326.34 1785.07 336.486 1780.43 353.696L1715.44 595.11C1711.78 608.768 1726.79 619.792 1738.73 612.209L1949.56 477.822C1964.59 468.23 1981.25 487.48 1969.6 500.993L1806.29 690.311C1797.06 701.015 1805.81 717.482 1819.84 715.809L2068.11 686.203C2085.83 684.099 2092.47 708.659 2076.12 715.798L1846.83 815.506C1833.86 821.141 1834.6 839.789 1847.99 844.368L2084.51 925.415C2101.38 931.198 2096.73 956.237 2078.9 955.556L1829.06 945.905C1814.93 945.36 1807.53 962.475 1817.59 972.405L1995.52 1148.05C2008.22 1160.59 1993.15 1181.11 1977.4 1172.75L1756.5 1055.66C1744.01 1049.03 1729.91 1061.25 1734.65 1074.57L1818.74 1310.01C1824.74 1326.82 1802.25 1338.78 1791.68 1324.4L1643.46 1123.07C1635.08 1111.68 1617.08 1116.56 1615.58 1130.62L1589.19 1379.24C1587.32 1396.99 1561.86 1398.01 1558.58 1380.47L1512.38 1134.75C1509.76 1120.86 1491.44 1117.43 1483.99 1129.46L1352.35 1342C1342.96 1357.18 1319.59 1347.03 1324.22 1329.82L1389.21 1088.41C1392.88 1074.75 1377.86 1063.73 1365.92 1071.31L1155.1 1205.69C1140.06 1215.29 1123.4 1196.04 1135.05 1182.52L1298.36 993.206C1307.6 982.503 1298.85 966.035 1284.81 967.708L1036.54 997.314C1018.83 999.418 1012.19 974.858 1028.54 967.719L1257.83 868.011C1270.8 862.376 1270.05 843.728 1256.67 839.149L1020.14 758.102C1003.27 752.319 1007.93 727.28 1025.75 727.961L1275.59 737.612C1289.72 738.157 1297.12 721.043 1287.06 711.112L1109.13 535.464C1096.44 522.927 1111.5 502.405 1127.26 510.764L1348.16 627.856C1360.64 634.486 1374.75 622.269 1370 608.948L1285.91 373.507C1279.92 356.697 1302.4 344.739 1312.98 359.119L1461.19 560.447C1469.58 571.84 1487.57 566.96 1489.07 552.898L1515.46 304.273C1517.34 286.528 1542.79 285.508 1546.08 303.047Z" fill="white" stroke="#C9B8FF" stroke-miterlimit="10"/>
</g>
<defs>
<clipPath id="clip0_1188_6">
<rect width="1600" height="1511" fill="white"/>
</clipPath>
</defs>
</svg>
