<svg width="1600" height="1740" viewBox="0 0 1600 1740" fill="none" xmlns="http://www.w3.org/2000/svg">
<path d="M-39.9566 729.158L355.216 725.933C377.553 725.743 387.989 698.175 371.372 683.238L77.473 419.049C56.4918 400.21 78.7741 366.678 104.282 378.713L461.721 547.267C481.943 556.809 503.304 536.506 494.819 515.823L344.671 150.279C333.964 124.201 368.58 103.654 386.335 125.557L635.236 432.522C649.305 449.87 677.361 440.844 678.689 418.534L702.002 24.0394C703.655 -4.09812 743.774 -7.59499 750.253 19.8377L841.334 404.384C846.485 426.124 875.679 430.163 886.549 410.646L1078.71 65.324C1092.43 40.6834 1130.06 54.9419 1124.01 82.4831L1039.22 468.466C1034.42 490.288 1058.98 506.606 1077.25 493.73L1400.21 266.001C1423.25 249.763 1450.98 278.931 1433.58 301.105L1189.69 612.054C1175.89 629.647 1190.94 654.992 1212.98 651.306L1602.78 586.248C1630.59 581.613 1642.93 619.915 1617.61 632.358L1262.96 806.713C1242.9 816.58 1245.45 845.937 1266.92 852.199L1646.34 962.716C1673.42 970.604 1667.89 1010.48 1639.7 1010.7L1244.53 1013.92C1222.19 1014.11 1211.76 1041.68 1228.37 1056.62L1522.27 1320.81C1543.25 1339.65 1520.97 1373.18 1495.46 1361.14L1138.03 1192.59C1117.8 1183.05 1096.44 1203.35 1104.93 1224.03L1255.08 1589.58C1265.78 1615.65 1231.17 1636.2 1213.41 1614.3L964.51 1307.33C950.442 1289.98 922.386 1299.01 921.057 1321.32L897.745 1715.82C896.091 1743.95 855.972 1747.45 849.494 1720.02L758.413 1335.47C753.262 1313.73 724.067 1309.69 713.197 1329.21L521.032 1674.53C507.316 1699.17 469.691 1684.91 475.736 1657.37L560.528 1271.39C565.326 1249.57 540.767 1233.25 522.496 1246.12L199.538 1473.85C176.497 1490.09 148.766 1460.92 166.169 1438.75L410.054 1127.8C423.852 1110.21 408.807 1084.86 386.769 1088.55L-3.03618 1153.61C-30.8484 1158.24 -43.1823 1119.94 -17.864 1107.5L336.783 933.142C356.842 923.275 354.294 893.918 332.825 887.656L-46.5979 777.139C-73.6782 769.25 -68.1483 729.375 -39.9566 729.158Z" fill="white" stroke="#C9B8FF" stroke-miterlimit="10"/>
<path d="M5.36701 704.22L381.835 716.039C403.115 716.716 414.093 690.856 398.832 676.001L128.896 413.33C109.622 394.598 132.121 363.506 155.949 375.921L490.021 549.924C508.915 559.764 530.032 541.223 522.713 521.217L393.464 167.438C384.248 142.201 417.969 123.93 434.071 145.454L659.551 447.16C672.292 464.21 699.372 456.675 701.459 435.477L738.515 60.6345C741.172 33.8795 779.474 32.0904 784.625 58.4659L856.866 428.13C860.959 449.03 888.609 453.991 899.696 435.802L1095.71 114.172C1109.7 91.2118 1145.02 106.229 1138.21 132.225L1042.9 496.631C1037.51 517.233 1060.28 533.687 1078.17 522.112L1394.33 317.396C1416.88 302.785 1442.2 331.628 1424.79 352.094L1180.83 639.054C1167.03 655.291 1180.39 679.986 1201.54 677.302L1575.21 630.027C1601.89 626.665 1612.16 663.613 1587.6 674.51L1243.28 827.206C1223.82 835.854 1225.15 863.91 1245.34 870.66L1602.54 990.204C1628.02 998.742 1621.27 1036.5 1594.41 1035.66L1217.94 1023.84C1196.66 1023.17 1185.68 1049.03 1200.94 1063.88L1470.88 1326.55C1490.15 1345.28 1467.65 1376.38 1443.82 1363.96L1109.75 1189.96C1090.86 1180.12 1069.74 1198.66 1077.06 1218.67L1206.31 1572.44C1215.52 1597.68 1181.8 1615.95 1165.7 1594.43L940.222 1292.72C927.481 1275.67 900.401 1283.21 898.313 1304.41L861.258 1679.25C858.601 1706 820.298 1707.79 815.148 1681.42L742.907 1311.75C738.813 1290.85 711.164 1285.89 700.077 1304.08L504.063 1625.71C490.075 1648.67 454.754 1633.65 461.558 1607.66L556.868 1243.25C562.262 1222.65 539.492 1206.2 521.601 1217.77L205.447 1422.49C182.894 1437.1 157.575 1408.25 174.978 1387.79L418.945 1100.83C432.743 1084.59 419.379 1059.9 398.235 1062.58L24.5591 1109.86C-2.11464 1113.22 -12.3883 1076.27 12.171 1065.37L356.49 912.676C375.953 904.029 374.625 875.973 354.43 869.223L-2.76522 749.679C-28.2462 741.14 -21.4965 703.38 5.36701 704.22Z" fill="white" stroke="#C9B8FF" stroke-miterlimit="10"/>
<path d="M50.6614 679.281L408.426 706.144C428.648 707.662 440.168 683.509 426.262 668.736L180.262 407.556C162.696 388.933 185.385 360.28 207.559 373.075L518.238 552.499C535.803 562.637 556.676 545.885 550.55 526.53L442.229 184.488C434.503 160.092 467.357 144.098 481.778 165.269L683.837 461.743C695.249 478.496 721.327 472.451 724.2 452.364L775.027 97.2024C778.659 71.8569 815.2 71.7214 818.995 97.0397L872.424 451.822C875.433 471.882 901.564 477.737 912.868 460.903L1112.76 162.965C1127.02 141.713 1160.01 157.435 1152.44 181.913L1046.64 524.741C1040.65 544.123 1061.63 560.74 1079.15 550.466L1388.5 368.765C1410.56 355.807 1433.47 384.297 1416.04 403.056L1171.96 666.025C1158.16 680.907 1169.85 704.951 1190.07 703.298L1547.64 673.805C1573.15 671.691 1581.42 707.31 1557.59 716.635L1223.6 847.672C1204.71 855.073 1204.82 881.855 1223.76 889.12L1558.7 1017.69C1582.61 1026.85 1574.62 1062.53 1549.08 1060.6L1191.32 1033.74C1171.09 1032.22 1159.57 1056.37 1173.48 1071.15L1419.48 1332.33C1437.04 1350.95 1414.36 1379.6 1392.18 1366.81L1081.5 1187.38C1063.94 1177.24 1043.07 1194 1049.19 1213.35L1157.51 1555.39C1165.24 1579.79 1132.38 1595.78 1117.96 1574.61L915.904 1278.14C904.492 1261.39 878.414 1267.43 875.541 1287.52L824.715 1642.68C821.082 1668.03 784.541 1668.16 780.746 1642.84L727.318 1288.06C724.309 1268 698.177 1262.15 686.873 1278.98L486.983 1576.92C472.724 1598.17 439.735 1582.45 447.298 1557.97L553.098 1215.14C559.089 1195.76 538.108 1179.14 520.596 1189.42L211.246 1371.12C189.181 1384.07 166.275 1355.58 183.705 1336.83L427.78 1073.86C441.578 1058.97 429.895 1034.93 409.672 1036.58L52.0981 1066.08C26.59 1068.19 18.3223 1032.57 42.1497 1023.25L376.141 892.21C395.034 884.809 394.926 858.027 375.978 850.762L41.0383 722.192C17.1295 713.029 25.1262 677.356 50.6614 679.281Z" fill="white" stroke="#C9B8FF" stroke-miterlimit="10"/>
<path d="M95.9641 654.368L435.024 696.277C454.189 698.635 466.252 676.19 453.701 661.525L231.664 401.863C215.833 383.321 238.712 357.108 259.205 370.309L546.517 555.182C562.754 565.646 583.383 550.655 578.423 531.978L491.028 201.701C484.793 178.145 516.78 164.428 529.521 185.22L708.159 476.435C718.27 492.889 743.344 488.335 746.977 469.36L811.547 133.851C816.155 109.915 850.907 111.46 853.373 135.694L887.963 475.595C889.914 494.814 914.501 501.591 925.994 486.085L1129.73 211.839C1144.26 192.268 1174.92 208.749 1166.63 231.655L1050.31 552.905C1043.72 571.067 1062.94 587.82 1080.05 578.847L1382.59 420.16C1404.17 408.829 1424.66 436.967 1407.23 454.017L1163.05 692.997C1149.25 706.496 1159.28 729.944 1178.58 729.266L1520.03 717.556C1544.4 716.716 1550.63 750.952 1527.54 758.759L1203.87 868.111C1185.58 874.291 1184.44 899.745 1202.11 907.525L1514.82 1045.12C1537.13 1054.94 1527.89 1088.49 1503.71 1085.51L1164.65 1043.6C1145.48 1041.25 1133.42 1063.69 1145.97 1078.36L1368.01 1338.02C1383.84 1356.56 1360.96 1382.77 1340.47 1369.57L1053.16 1184.7C1036.92 1174.24 1016.29 1189.23 1021.25 1207.9L1108.64 1538.18C1114.88 1561.74 1082.89 1575.45 1070.15 1554.66L891.514 1263.45C881.403 1246.99 856.328 1251.55 852.696 1270.52L788.126 1606.03C783.518 1629.97 748.766 1628.42 746.299 1604.19L711.71 1264.29C709.758 1245.07 685.172 1238.29 673.678 1253.8L469.939 1528.04C455.409 1547.61 424.75 1531.13 433.045 1508.23L549.363 1186.98C555.95 1168.81 536.731 1152.06 519.626 1161.03L217.08 1319.72C195.503 1331.05 175.009 1302.91 192.44 1285.86L436.623 1046.88C450.421 1033.38 440.391 1009.94 421.091 1010.61L79.6454 1022.33C55.2758 1023.17 49.0411 988.929 72.1366 981.122L395.8 871.77C414.097 865.59 415.236 840.136 397.562 832.356L84.85 694.759C62.5406 684.946 71.7842 651.387 95.9641 654.368Z" fill="white" stroke="#C9B8FF" stroke-miterlimit="10"/>
<path d="M141.253 629.43L461.636 686.383C479.744 689.609 492.349 668.872 481.153 654.261L283.052 396.116C268.929 377.683 291.997 353.91 310.837 367.491L574.782 557.812C589.719 568.574 610.049 555.346 606.308 537.346L539.841 218.806C535.097 196.09 566.217 184.678 577.276 205.063L732.494 491.047C741.276 507.23 765.348 504.14 769.766 486.276L848.08 170.447C853.664 147.92 886.654 151.119 887.765 174.323L903.542 499.342C904.436 517.72 927.451 525.392 939.188 511.215L1146.78 260.633C1161.58 242.742 1189.9 259.956 1180.85 281.343L1054.04 581.016C1046.86 597.959 1064.29 614.874 1081.01 607.202L1376.76 471.529C1397.87 461.852 1415.9 489.637 1398.47 504.98L1154.2 719.942C1140.38 732.086 1148.76 754.884 1167.13 755.236L1492.48 761.308C1515.68 761.742 1519.88 794.623 1497.55 800.885L1184.19 888.578C1166.46 893.538 1164.1 917.691 1180.53 925.986L1471.01 1072.61C1491.75 1083.07 1481.26 1114.52 1458.4 1110.45L1138.02 1053.5C1119.91 1050.27 1107.31 1071.01 1118.5 1085.62L1316.61 1343.77C1330.73 1362.2 1307.66 1385.97 1288.82 1372.39L1024.87 1182.07C1009.94 1171.31 989.608 1184.54 993.349 1202.54L1059.82 1521.08C1064.56 1543.79 1033.44 1555.2 1022.38 1534.82L867.164 1248.84C858.381 1232.65 834.309 1235.74 829.891 1253.61L751.577 1569.44C745.993 1591.96 713.003 1588.76 711.892 1565.56L696.115 1240.54C695.221 1222.16 672.207 1214.49 660.469 1228.67L452.88 1479.25C438.08 1497.14 409.752 1479.93 418.806 1458.54L545.615 1158.87C552.798 1141.92 535.368 1125.01 518.643 1132.68L222.901 1268.35C201.784 1278.03 183.757 1250.25 201.187 1234.9L445.453 1019.94C459.278 1007.8 450.901 984.999 432.523 984.646L107.179 978.574C83.9748 978.141 79.7732 945.259 102.11 938.997L415.472 851.305C433.2 846.344 435.559 822.191 419.131 813.897L128.648 667.272C107.911 656.809 118.401 625.364 141.253 629.43Z" fill="white" stroke="#C9B8FF" stroke-miterlimit="10"/>
<path d="M186.549 604.491L488.228 676.488C505.279 680.555 518.426 661.525 508.586 647.023L334.447 390.396C322.032 372.072 345.318 350.738 362.477 364.698L603.028 560.441C616.636 571.501 636.723 560.062 634.147 542.713L588.607 235.938C585.354 214.035 615.606 204.927 625.012 224.96L756.836 505.711C764.29 521.596 787.359 519.997 792.563 503.245L884.62 207.096C891.18 185.952 922.408 190.858 922.191 212.978L919.128 523.114C918.965 540.653 940.435 549.219 952.389 536.397L1163.83 309.508C1178.93 293.325 1204.89 311.27 1195.11 331.112L1057.81 609.208C1050.06 624.93 1065.67 641.981 1082.02 635.61L1370.98 522.925C1391.61 514.874 1407.22 542.334 1389.79 555.969L1145.42 746.941C1131.6 757.729 1138.29 779.876 1155.78 781.232L1464.99 805.086C1487.06 806.794 1489.22 838.293 1467.59 843.01L1164.56 909.043C1147.43 912.784 1143.85 935.636 1159 944.446L1427.26 1100.1C1446.4 1111.21 1434.68 1140.54 1413.16 1135.39L1111.48 1063.39C1094.43 1059.33 1081.28 1078.36 1091.12 1092.86L1265.26 1349.49C1277.68 1367.81 1254.39 1389.14 1237.23 1375.18L996.682 1179.44C983.075 1168.38 962.988 1179.82 965.563 1197.17L1011.1 1503.94C1014.36 1525.85 984.105 1534.95 974.698 1514.92L842.875 1234.17C835.42 1218.29 812.352 1219.88 807.147 1236.64L715.09 1532.79C708.53 1553.93 677.303 1549.02 677.519 1526.9L680.583 1216.77C680.745 1199.23 659.276 1190.66 647.322 1203.48L435.884 1430.37C420.785 1446.56 394.816 1428.61 404.602 1408.77L541.901 1130.67C549.654 1114.95 534.04 1097.9 517.694 1104.27L228.728 1216.96C208.1 1225.01 192.486 1197.55 209.916 1183.91L454.29 992.941C468.114 982.152 461.419 960.005 443.935 958.65L134.72 934.795C112.654 933.088 110.486 901.589 132.117 896.872L435.152 830.838C452.284 827.097 455.862 804.246 440.709 795.436L172.453 639.785C153.316 628.671 165.026 599.341 186.549 604.491Z" fill="white" stroke="#C9B8FF" stroke-miterlimit="10"/>
<path d="M231.875 579.579L514.85 666.594C530.843 671.528 544.532 654.179 536.048 639.758L385.845 384.623C375.138 366.406 398.613 347.512 414.119 361.852L631.303 563.044C643.583 574.429 663.426 564.752 662.043 548.053L637.403 253.016C635.641 231.953 664.998 225.122 672.751 244.775L781.154 520.268C787.28 535.855 809.372 535.747 815.336 520.106L921.164 243.61C928.727 223.875 958.138 230.462 956.593 251.525L934.717 546.779C933.47 563.478 953.421 572.965 965.593 561.472L1180.91 358.274C1196.28 343.772 1219.94 362.476 1209.4 380.773L1061.58 637.291C1053.23 651.794 1067.08 669.007 1083.02 663.938L1365.18 574.266C1385.32 567.869 1398.53 594.977 1381.07 606.877L1136.59 773.859C1122.76 783.292 1127.78 804.815 1144.34 807.174L1437.45 848.811C1458.38 851.793 1458.51 881.936 1437.61 885.108L1144.91 929.483C1128.35 932.004 1123.55 953.554 1137.45 962.852L1383.48 1127.56C1401.05 1139.32 1388.09 1166.54 1367.89 1160.33L1084.92 1073.31C1068.93 1068.38 1055.24 1085.73 1063.72 1100.15L1213.92 1355.29C1224.63 1373.5 1201.16 1392.4 1185.65 1378.06L968.466 1176.87C956.186 1165.48 936.344 1175.16 937.726 1191.86L962.367 1486.89C964.129 1507.96 934.772 1514.79 927.019 1495.13L818.616 1219.64C812.49 1204.05 790.397 1204.16 784.433 1219.8L678.606 1496.3C671.043 1516.03 641.631 1509.45 643.177 1488.38L665.052 1193.13C666.299 1176.43 646.348 1166.94 634.177 1178.44L418.862 1381.64C403.492 1396.14 379.828 1377.43 390.372 1359.14L538.189 1102.62C546.538 1088.12 532.687 1070.9 516.747 1075.97L234.586 1165.64C214.445 1172.04 201.244 1144.93 218.701 1133.03L463.183 966.051C477.008 956.617 471.993 935.094 455.43 932.735L162.317 891.098C141.39 888.117 141.255 857.973 162.155 854.802L454.861 810.427C471.424 807.906 476.222 786.355 462.316 777.057L216.288 612.352C198.723 600.588 211.68 573.372 231.875 579.579Z" fill="white" stroke="#C9B8FF" stroke-miterlimit="10"/>
<path d="M277.175 554.64L541.446 656.7C556.382 662.474 570.613 646.86 563.484 632.52L437.244 378.903C428.245 360.795 451.937 344.341 465.761 359.087L659.58 565.7C670.531 577.383 690.13 569.495 689.94 553.475L686.226 270.202C685.955 249.979 714.445 245.425 720.517 264.699L805.499 534.96C810.297 550.249 831.387 551.631 838.164 537.102L957.735 280.286C966.273 261.961 993.923 270.202 991.023 290.207L950.334 570.579C948.03 586.437 966.436 596.819 978.824 586.681L1197.99 407.176C1213.63 394.354 1234.96 413.79 1223.66 430.569L1065.35 665.51C1056.41 678.792 1068.47 696.141 1084.03 692.373L1359.39 625.716C1379.04 620.972 1389.83 647.727 1372.37 657.92L1127.81 800.911C1113.98 808.989 1117.32 829.862 1132.98 833.224L1409.97 892.643C1429.73 896.872 1427.83 925.687 1407.69 927.286L1125.31 950.002C1109.35 951.276 1103.3 971.526 1115.96 981.366L1339.73 1155.1C1355.7 1167.49 1341.49 1192.61 1322.66 1185.32L1058.38 1083.26C1043.45 1077.49 1029.22 1093.1 1036.35 1107.44L1162.59 1361.06C1171.59 1379.17 1147.89 1395.62 1134.07 1380.88L940.25 1174.26C929.299 1162.58 909.7 1170.47 909.89 1186.49L913.604 1469.76C913.875 1489.98 885.385 1494.54 879.313 1475.26L794.331 1205C789.533 1189.71 768.443 1188.33 761.666 1202.86L642.096 1459.68C633.557 1478 605.907 1469.76 608.808 1449.76L649.496 1169.38C651.8 1153.53 633.394 1143.14 621.006 1153.28L401.842 1332.79C386.201 1345.61 364.868 1326.17 376.171 1309.39L534.479 1074.45C543.424 1061.17 531.362 1043.82 515.802 1047.59L240.444 1114.25C220.791 1118.99 210.003 1092.24 227.46 1082.04L472.023 939.051C485.848 930.973 482.514 910.1 466.846 906.739L189.862 847.319C170.1 843.091 171.998 814.275 192.139 812.676L474.517 789.96C490.483 788.686 496.528 768.437 483.869 758.597L260.097 584.865C244.131 572.477 258.335 547.348 277.175 554.64Z" fill="white" stroke="#C9B8FF" stroke-miterlimit="10"/>
<path d="M322.46 529.702L568.026 646.806C581.905 653.42 596.679 639.514 590.905 625.255L488.602 373.156C481.31 355.157 505.191 341.142 517.363 356.268L687.814 568.33C697.465 580.311 716.792 574.185 717.768 558.842L734.981 287.334C736.201 267.952 763.824 265.675 768.215 284.596L829.776 549.599C833.246 564.589 853.332 567.462 860.895 554.044L994.21 316.881C1003.72 299.966 1029.59 309.887 1025.36 328.835L965.828 594.299C962.467 609.316 979.328 620.62 991.933 611.81L1214.95 455.969C1230.86 444.855 1249.86 465.023 1237.82 480.231L1069 693.593C1059.46 705.656 1069.73 723.14 1084.91 720.674L1353.46 677.031C1372.63 673.913 1381.01 700.343 1363.55 708.828L1118.88 827.802C1105.05 834.525 1106.71 854.747 1121.45 859.111L1382.33 936.313C1400.96 941.816 1397.03 969.249 1377.62 969.33L1105.57 970.36C1090.17 970.415 1082.91 989.363 1094.32 999.691L1295.86 1182.45C1310.26 1195.49 1294.8 1218.5 1277.29 1210.15L1031.73 1093.05C1017.85 1086.43 1003.07 1100.34 1008.85 1114.6L1111.15 1366.7C1118.44 1384.7 1094.56 1398.71 1082.39 1383.59L911.939 1171.52C902.289 1159.54 882.961 1165.67 881.985 1181.01L864.772 1452.52C863.552 1471.9 835.929 1474.18 831.538 1455.26L769.977 1190.26C766.507 1175.27 746.421 1172.39 738.858 1185.81L605.543 1422.97C596.028 1439.89 570.168 1429.97 574.397 1411.02L633.925 1145.56C637.286 1130.54 620.425 1119.23 607.82 1128.04L384.807 1283.89C368.895 1295 349.893 1274.83 361.928 1259.62L530.754 1046.26C540.296 1034.2 530.022 1016.71 514.842 1019.18L246.288 1062.82C227.123 1065.94 218.747 1039.51 236.204 1031.03L480.876 912.052C494.701 905.33 493.047 885.108 478.301 880.743L217.419 803.541C198.796 798.038 202.726 770.606 222.135 770.524L494.186 769.494C509.583 769.44 516.848 750.492 505.435 740.164L303.891 557.406C289.497 544.367 304.949 521.353 322.46 529.702Z" fill="white" stroke="#C9B8FF" stroke-miterlimit="10"/>
<path d="M815.954 304.439L854.094 564.209C856.262 578.902 875.346 583.266 883.668 570.959L1030.73 353.476C1041.22 337.943 1065.32 349.572 1059.73 367.436L981.391 618.018C976.972 632.195 992.261 644.393 1005.11 636.939L1231.97 504.79C1248.16 495.356 1264.83 516.256 1252.03 529.946L1072.72 721.731C1062.58 732.574 1071.06 750.221 1085.86 749.055L1347.61 728.426C1366.29 726.963 1372.23 753.013 1354.77 759.817L1109.99 854.801C1096.14 860.169 1096.14 879.767 1109.99 885.135L1354.77 980.119C1372.23 986.896 1366.29 1012.97 1347.61 1011.51L1085.86 990.881C1071.06 989.715 1062.58 1007.36 1072.72 1018.21L1252.03 1209.99C1264.83 1223.68 1248.16 1244.58 1231.97 1235.15L1005.11 1103C992.288 1095.52 976.972 1107.74 981.391 1121.92L1059.73 1372.5C1065.32 1390.39 1041.22 1401.99 1030.73 1386.46L883.668 1168.98C875.346 1156.67 856.262 1161.03 854.094 1175.73L815.954 1435.5C813.243 1454.04 786.488 1454.04 783.777 1435.5L745.637 1175.73C743.468 1161.03 724.385 1156.67 716.063 1168.98L569.005 1386.46C558.514 1401.99 534.415 1390.36 540 1372.5L618.34 1121.92C622.759 1107.74 607.47 1095.54 594.621 1103L367.759 1235.15C351.576 1244.58 334.905 1223.68 347.699 1209.99L527.015 1018.21C537.153 1007.36 528.669 989.715 513.868 990.881L252.118 1011.51C233.441 1012.97 227.505 986.923 244.962 980.119L489.742 885.135C503.594 879.767 503.594 860.169 489.742 854.801L244.962 759.817C227.505 753.04 233.441 726.963 252.118 728.426L513.868 749.055C528.669 750.221 537.153 732.574 527.015 721.731L347.699 529.946C334.905 516.256 351.576 495.356 367.759 504.79L594.621 636.939C607.443 644.42 622.759 632.195 618.34 618.018L540 367.436C534.415 349.545 558.514 337.943 569.005 353.476L716.063 570.959C724.385 583.266 743.468 578.902 745.637 564.209L783.777 304.439C786.488 285.897 813.243 285.897 815.954 304.439Z" fill="white" stroke="#C9B8FF" stroke-miterlimit="10"/>
</svg>
