<svg width="140" height="140" viewBox="0 0 140 140" fill="none" xmlns="http://www.w3.org/2000/svg">
<path d="M69.2946 113.837V95.467L86.8623 105.851L69.2946 135V113.836V113.837ZM69.2946 113.837V95.467L51.7269 105.851L69.2946 135V113.836V113.837ZM13 102.5L47.0294 103.141L47.2389 82.735L31.3302 91.9202L13 102.5ZM31.3302 91.9183L47.2389 82.733L29.4617 72.7115L13 102.5L31.3302 91.9183ZM13 37.4995L29.4617 67.2885L47.2389 57.267L31.3302 48.0817L13 37.4995ZM31.3302 48.0817L47.2389 57.267L47.0294 36.8612L13 37.4995L31.3302 48.0817ZM69.2946 5L51.7269 34.1487L69.2946 44.533V5ZM69.2946 26.1645V44.5349L86.8623 34.1506L69.2946 5V26.1645ZM125.589 37.4995L91.5598 36.8592L91.3502 57.265L107.259 48.0798L125.589 37.4976V37.4995ZM107.259 48.0817L91.3502 57.267L109.127 67.2885L125.589 37.4995L107.259 48.0817V48.0817ZM125.589 102.5L109.127 72.7115L91.3502 82.733L107.259 91.9183L125.589 102.5V102.5ZM107.259 91.9183L91.3502 82.733L91.5598 103.139L125.589 102.499L107.259 91.9163V91.9183Z" stroke="#0E0333" stroke-linecap="round" stroke-linejoin="round"/>
<path d="M69.2943 77.764V92.1414L86.862 102.52L69.2943 77.764ZM51.7266 102.52L69.2943 92.1414V77.764L51.7266 102.52ZM62.5711 73.8815L50.12 81.0702L49.9163 101.474L62.573 73.8815H62.5711ZM32.3467 71.0448L50.12 81.0702L62.5711 73.8815L32.3467 71.0448ZM62.5711 66.1165L50.12 58.9278L32.3467 68.9532L62.5711 66.1165ZM49.9144 38.524L50.1181 58.9278L62.5691 66.1165L49.9124 38.524H49.9144ZM69.2943 62.2341V47.8567L51.7266 37.4781L69.2943 62.2341ZM86.862 37.4781L69.2943 47.8567V62.2341L86.862 37.4781ZM76.0175 66.1165L88.4686 58.9278L88.6723 38.524L76.0156 66.1165H76.0175ZM106.242 68.9532L88.4686 58.9278L76.0175 66.1165L106.242 68.9532ZM76.0175 73.8815L88.4686 81.0702L106.242 71.0448L76.0175 73.8815ZM88.6742 101.474L88.4705 81.0702L76.0195 73.8815L88.6762 101.474H88.6742Z" fill="#6F3FF5" stroke="#0E0333" stroke-linecap="round" stroke-linejoin="round"/>
<path d="M69.2948 113.838V95.469L86.8625 105.853L69.2948 113.838ZM69.2948 113.838V95.469L51.7271 105.853L69.2948 113.838ZM47.0296 103.141L47.2391 82.735L31.3304 91.9202L47.0296 103.143V103.141ZM31.3304 91.9183L47.2391 82.733L29.4619 72.7116L31.3304 91.9183V91.9183ZM29.4619 67.2885L47.2391 57.267L31.3304 48.0818L29.4619 67.2885V67.2885ZM31.3304 48.0818L47.2391 57.267L47.0296 36.8612L31.3304 48.0837V48.0818ZM51.7271 34.1487L69.2948 44.533V26.1645L51.7271 34.1487V34.1487ZM69.2948 26.1645V44.533L86.8625 34.1487L69.2948 26.1645V26.1645ZM91.56 36.8612L91.3504 57.267L107.259 48.0818L91.56 36.8593V36.8612ZM107.259 48.0837L91.3504 57.269L109.128 67.2904L107.259 48.0837V48.0837ZM109.128 72.7135L91.3504 82.735L107.259 91.9202L109.128 72.7135ZM107.259 91.9202L91.3504 82.735L91.56 103.141L107.259 91.9183V91.9202Z" fill="#C9B8FF" stroke="#0E0333" stroke-linecap="round" stroke-linejoin="round"/>
</svg>
