<svg width="140" height="140" viewBox="0 0 140 140" fill="none" xmlns="http://www.w3.org/2000/svg">
<path d="M61.5093 41.6101C60.587 41.8608 59.6347 41.2693 59.4542 40.327L55.1436 17.8717L62.6421 39.4749C62.9528 40.3771 62.4316 41.3695 61.5093 41.6101ZM31.1846 31.7058L46.1415 48.9983C46.773 49.7201 47.8858 49.7602 48.5574 49.0885C49.2391 48.4069 49.199 47.2941 48.4672 46.6726L31.1746 31.7158L31.1846 31.7058ZM17.3506 55.6748L38.9538 63.1732C39.856 63.484 40.8484 62.9627 41.089 62.0404C41.3396 61.1182 40.7482 60.1658 39.8059 59.9854L17.3506 55.6748V55.6748ZM17.3506 83.3529L39.8059 79.0423C40.7482 78.8618 41.3396 77.9195 41.089 76.9872C40.8384 76.0649 39.856 75.5437 38.9538 75.8544L17.3506 83.3529V83.3529ZM31.1846 107.322L48.4772 92.3651C49.199 91.7335 49.2391 90.6208 48.5674 89.9491C47.8857 89.2674 46.773 89.3076 46.1515 90.0394L31.1947 107.332L31.1846 107.322ZM55.1536 121.156L62.6521 99.5528C62.9629 98.6505 62.4416 97.6581 61.5193 97.4175C60.597 97.1669 59.6447 97.7584 59.4643 98.7007L55.1536 121.156V121.156ZM82.8318 121.156L78.5212 98.7007C78.3407 97.7584 77.3984 97.1669 76.4661 97.4175C75.5438 97.6681 75.0226 98.6505 75.3333 99.5528L82.8318 121.156V121.156ZM106.801 107.322L91.844 90.0293C91.2124 89.3075 90.0997 89.2674 89.428 89.9391C88.7463 90.6208 88.7864 91.7335 89.5182 92.3551L106.811 107.312L106.801 107.322ZM120.635 83.3529L99.0317 75.8544C98.1294 75.5437 97.137 76.0649 96.8964 76.9872C96.6458 77.9095 97.2372 78.8618 98.1795 79.0423L120.635 83.3529V83.3529ZM120.635 55.6748L98.1795 59.9854C97.2372 60.1658 96.6458 61.1081 96.8964 62.0404C97.147 62.9627 98.1294 63.484 99.0317 63.1732L120.635 55.6748V55.6748ZM106.801 31.7058L89.5082 46.6626C88.7864 47.2941 88.7463 48.4069 89.418 49.0785C90.0997 49.7602 91.2124 49.7201 91.8339 48.9883L106.791 31.6957L106.801 31.7058ZM82.8318 17.8717L75.3333 39.4749C75.0226 40.3771 75.5438 41.3695 76.4661 41.6101C77.3884 41.8608 78.3407 41.2693 78.5212 40.327L82.8318 17.8717V17.8717Z" fill="#C9B8FF" stroke="#0E0333"/>
<path d="M69.99 34.8735C68.8271 34.8735 67.9048 33.8811 67.985 32.7182L69.99 5L71.9949 32.7182C72.0751 33.8811 71.1528 34.8735 69.99 34.8735ZM37.5 13.7114L49.6198 38.723C50.1311 39.7756 51.4243 40.1666 52.4368 39.5851C53.4493 39.0037 53.75 37.6804 53.0984 36.7181L37.5 13.7114V13.7114ZM13.7114 37.5L36.7181 53.0984C37.6804 53.75 39.0037 53.4493 39.5851 52.4368C40.1666 51.4243 39.7756 50.1311 38.723 49.6198L13.7114 37.5V37.5ZM5 70L32.7182 72.0049C33.8811 72.0851 34.8735 71.1629 34.8735 70C34.8735 68.8371 33.8811 67.9149 32.7182 67.9951L5 70ZM13.7114 102.5L38.723 90.3802C39.7756 89.8689 40.1666 88.5757 39.5851 87.5632C39.0037 86.5507 37.6804 86.25 36.7181 86.9016L13.7114 102.5V102.5ZM37.5 126.289L53.0984 103.282C53.75 102.32 53.4493 100.996 52.4368 100.415C51.4243 99.8334 50.1311 100.224 49.6198 101.277L37.5 126.289ZM70 135L72.0049 107.282C72.0851 106.119 71.1629 105.126 70 105.126C68.8371 105.126 67.9149 106.119 67.9951 107.282L70 135ZM102.5 126.289L90.3802 101.277C89.8689 100.224 88.5757 99.8334 87.5632 100.415C86.5507 100.996 86.25 102.32 86.9016 103.282L102.5 126.289ZM126.289 102.5L103.282 86.9016C102.32 86.25 100.996 86.5507 100.415 87.5632C99.8334 88.5757 100.224 89.8689 101.277 90.3802L126.289 102.5ZM135 70L107.282 67.9951C106.119 67.9149 105.126 68.8371 105.126 70C105.126 71.1629 106.119 72.0851 107.282 72.0049L135 70ZM126.289 37.5L101.277 49.6198C100.224 50.1311 99.8334 51.4243 100.415 52.4368C100.996 53.4493 102.32 53.75 103.282 53.0984L126.289 37.5ZM102.5 13.7114L86.9016 36.7181C86.25 37.6804 86.5507 39.0037 87.5632 39.5851C88.5757 40.1666 89.8689 39.7756 90.3802 38.723L102.5 13.7114Z" stroke="#0E0333"/>
<path d="M69.9996 89.5982C80.8234 89.5982 89.5979 80.8238 89.5979 70C89.5979 59.1762 80.8234 50.4017 69.9996 50.4017C59.1758 50.4017 50.4014 59.1762 50.4014 70C50.4014 80.8238 59.1758 89.5982 69.9996 89.5982Z" fill="#6F3FF5" stroke="#0E0333"/>
</svg>
