<svg width="48" height="48" viewBox="0 0 48 48" fill="none" xmlns="http://www.w3.org/2000/svg">
<path d="M26.8194 40.941C27.7465 41.8686 28.8474 42.6044 30.0591 43.1063C31.2707 43.6082 32.5694 43.8663 33.8809 43.866C35.1924 43.8657 36.491 43.6068 37.7024 43.1043C38.9138 42.6018 40.0143 41.8655 40.941 40.9374C41.8683 40.0106 42.6039 38.9101 43.1058 37.6989C43.6077 36.4877 43.866 35.1895 43.866 33.8784C43.866 32.5673 43.6077 31.2691 43.1058 30.0579C42.6039 28.8467 41.8683 27.7463 40.941 26.8194L31.058 16.9365L16.9419 31.0526L26.8194 40.941Z" fill="#02E2AC" stroke="black" stroke-miterlimit="10"/>
<path d="M31.0527 16.9417L21.1698 7.05869C19.2986 5.18747 16.7609 4.13576 14.1146 4.13474C11.4683 4.13373 8.92986 5.18349 7.0572 7.05328C5.18583 8.92561 4.13474 11.4646 4.13508 14.1117C4.13542 16.7589 5.18716 19.2976 7.05901 21.1695L16.942 31.0524L31.0527 16.9417Z" fill="#02E2AC" stroke="black" stroke-miterlimit="10"/>
</svg>
