<svg width="37" height="54" viewBox="0 0 37 54" fill="none" xmlns="http://www.w3.org/2000/svg">
<g clip-path="url(#clip0_1188_170)">
<path d="M2.79952 26.04C-1.83048 18 0.729524 7.54 8.79952 2.97C11.5795 1.4 14.7795 0.5 18.1995 0.5C21.6195 0.5 24.8295 1.4 27.5995 2.97C35.6695 7.54 38.2295 18 33.5995 26.04L18.1995 52.79L2.79952 26.04Z" fill="#02E2AC" stroke="#000101" stroke-linecap="round" stroke-linejoin="round"/>
<path d="M20.3054 29.1686C26.5042 28.0051 30.5862 22.0368 29.4228 15.838C28.2594 9.63911 22.291 5.5571 16.0922 6.72055C9.89333 7.88399 5.81132 13.8523 6.97477 20.0512C8.13821 26.25 14.1065 30.332 20.3054 29.1686Z" fill="#6F3FF5" stroke="#000101" stroke-linecap="round" stroke-linejoin="round"/>
<path d="M19.2591 23.3972C22.2683 22.8139 24.2348 19.9016 23.6515 16.8925C23.0683 13.8833 20.156 11.9167 17.1468 12.5C14.1377 13.0833 12.1711 15.9956 12.7544 19.0047C13.3377 22.0139 16.2499 23.9805 19.2591 23.3972Z" fill="#02E2AC" stroke="#000101" stroke-linecap="round" stroke-linejoin="round"/>
</g>
<defs>
<clipPath id="clip0_1188_170">
<rect width="36.4" height="53.29" fill="white"/>
</clipPath>
</defs>
</svg>
