<svg xmlns="http://www.w3.org/2000/svg" width="438" height="440" fill="none" xmlns:v="https://vecta.io/nano"><g fill="#6f3ff5" stroke="#0e0333" stroke-miterlimit="10"><path d="M7.126 184.591l99.635-.813c5.632-.048 8.263-6.999 4.074-10.765l-74.101-66.61c-5.29-4.75.328-13.205 6.759-10.17l90.121 42.498c5.099 2.405 10.485-2.714 8.345-7.928l-37.856-92.165c-2.7-6.575 6.028-11.756 10.504-6.233l62.756 77.395c3.547 4.374 10.621 2.098 10.956-3.527l5.877-99.464c.417-7.094 10.533-7.976 12.166-1.059l22.964 96.955c1.299 5.482 8.66 6.5 11.401 1.579l48.45-87.066c3.458-6.213 12.945-2.618 11.421 4.326l-21.379 97.318c-1.21 5.502 4.983 9.617 9.589 6.37l81.428-57.417c5.809-4.094 12.801 3.26 8.413 8.851l-61.491 78.4c-3.479 4.436.314 10.826 5.871 9.897l98.282-16.403c7.012-1.169 10.122 8.488 3.738 11.626l-89.417 43.96c-5.058 2.488-4.415 9.89.998 11.468l95.664 27.865c6.828 1.989 5.434 12.043-1.674 12.097l-99.636.814c-5.631.047-8.263 6.998-4.073 10.764l74.101 66.61c5.29 4.75-.328 13.205-6.759 10.17l-90.122-42.497c-5.098-2.406-10.484 2.713-8.345 7.928l37.857 92.164c2.7 6.575-6.028 11.756-10.505 6.234l-62.755-77.396c-3.547-4.374-10.621-2.098-10.956 3.527l-5.878 99.464c-.417 7.095-10.532 7.976-12.165 1.06l-22.965-96.956c-1.298-5.482-8.659-6.5-11.4-1.579l-48.45 87.066c-3.459 6.213-12.945 2.618-11.421-4.326l21.379-97.318c1.209-5.502-4.983-9.616-9.589-6.37L67.51 372.352c-5.81 4.093-12.801-3.261-8.414-8.851l61.491-78.4c3.478-4.436-.315-10.826-5.871-9.897l-98.282 16.403c-7.012 1.169-10.122-8.488-3.739-11.625l89.418-43.961c5.057-2.487 4.415-9.889-.998-11.468L5.452 196.688c-6.828-1.989-5.434-12.042 1.674-12.097z"/><path d="M18.554 178.303l94.919 2.98c5.365.171 8.133-6.349 4.285-10.095l-68.059-66.227c-4.859-4.723.813-12.562 6.821-9.432l84.23 43.871c4.764 2.481 10.088-2.193 8.242-7.237l-32.587-89.199c-2.324-6.363 6.178-10.969 10.238-5.543l56.85 76.069c3.213 4.299 10.041 2.399 10.567-2.945l9.343-94.509c.67-6.746 10.327-7.197 11.625-.547l18.215 93.204c1.032 5.269 8.003 6.52 10.798 1.934l49.421-81.093c3.527-5.789 12.433-2.002 10.717 4.552l-24.03 91.878c-1.36 5.194 4.381 9.343 8.891 6.424l79.713-51.615c5.686-3.684 12.07 3.588 7.682 8.748l-61.512 72.352c-3.479 4.094-.109 10.32 5.222 9.643l94.215-11.919c6.725-.848 9.316 8.468 3.123 11.215l-86.813 38.5c-4.907 2.18-4.572 9.254.52 10.956l90.059 30.14c6.425 2.153 4.723 11.674-2.05 11.462l-94.919-2.98c-5.365-.171-8.133 6.349-4.286 10.095l68.06 66.227c4.859 4.723-.814 12.562-6.821 9.432l-84.23-43.871c-4.764-2.481-10.088 2.194-8.243 7.238l32.588 89.198c2.323 6.363-6.179 10.97-10.239 5.543l-56.85-76.069c-3.212-4.299-10.04-2.399-10.566 2.945l-9.343 94.509c-.67 6.746-10.327 7.197-11.626.547l-18.214-93.203c-1.032-5.27-8.003-6.521-10.799-1.935l-49.421 81.093c-3.527 5.789-12.432 2.003-10.717-4.552l24.031-91.877c1.36-5.195-4.381-9.343-8.892-6.425L69 359.4c-5.686 3.684-12.07-3.588-7.682-8.748l61.511-72.352c3.479-4.094.11-10.32-5.221-9.643l-94.215 11.919c-6.725.848-9.316-8.468-3.123-11.215l86.813-38.5c4.908-2.18 4.573-9.254-.519-10.956l-90.06-30.14c-6.424-2.153-4.723-11.674 2.05-11.462z"/><path d="M29.973 172.015l90.204 6.773c5.098.383 8.003-5.707 4.497-9.431L62.65 103.505c-4.429-4.695 1.292-11.919 6.883-8.693l78.332 45.239c4.429 2.556 9.691-1.668 8.147-6.548l-27.312-86.239c-1.947-6.151 6.336-10.183 9.972-4.846l50.945 74.75c2.878 4.224 9.453 2.7 10.177-2.364l12.815-89.547c.916-6.39 10.129-6.425 11.086-.041l13.471 89.451c.758 5.058 7.347 6.534 10.197 2.29l50.398-75.12c3.595-5.358 11.913-1.394 10.006 4.777l-26.675 86.437c-1.511 4.887 3.779 9.077 8.195 6.486l77.996-45.812c5.564-3.267 11.339 3.916 6.944 8.646l-61.539 66.302c-3.479 3.752-.533 9.815 4.566 9.398l90.155-7.436c6.432-.533 8.516 8.447 2.509 10.798l-84.21 33.039c-4.763 1.866-4.736 8.618.041 10.45l84.449 32.417c6.028 2.31 4.012 11.304-2.427 10.819l-90.203-6.773c-5.098-.383-8.003 5.707-4.497 9.431l62.024 65.852c4.429 4.695-1.292 11.92-6.882 8.694l-78.332-45.239c-4.429-2.556-9.691 1.668-8.147 6.548l27.311 86.239c1.948 6.151-6.335 10.184-9.971 4.846l-50.945-74.75c-2.878-4.224-9.453-2.7-10.177 2.364l-12.815 89.548c-.916 6.39-10.129 6.424-11.086.041l-13.471-89.452c-.759-5.057-7.347-6.534-10.197-2.289l-50.399 75.119c-3.595 5.358-11.912 1.394-10.005-4.778l26.675-86.437c1.51-4.887-3.78-9.076-8.195-6.486l-77.996 45.812c-5.563 3.267-11.339-3.916-6.944-8.645l61.539-66.303c3.478-3.752.533-9.815-4.566-9.398l-90.155 7.436c-6.431.534-8.516-8.447-2.508-10.798l84.21-33.039c4.763-1.866 4.736-8.618-.041-10.45l-84.449-32.417c-6.028-2.31-4.012-11.304 2.426-10.819z"/><path d="M41.396 165.734l85.487 10.567c4.832.594 7.874-5.065 4.709-8.762L75.61 102.07c-3.991-4.675 1.777-11.284 6.944-7.956l72.44 46.612c4.094 2.639 9.295-1.141 8.044-5.85l-22.035-83.273c-1.572-5.939 6.493-9.398 9.706-4.156l45.04 73.425c2.549 4.148 8.871 3 9.787-1.784l16.28-84.592c1.162-6.035 9.924-5.645 10.546.465l8.721 85.699c.492 4.846 6.691 6.554 9.589 2.645l51.369-69.146c3.663-4.934 11.393-.779 9.302 4.996l-29.328 80.997c-1.661 4.579 3.185 8.803 7.498 6.541l76.281-40.01c5.44-2.857 10.607 4.238 6.213 8.537l-61.567 60.254c-3.478 3.403-.95 9.315 3.917 9.144l86.088-2.952c6.145-.212 7.717 8.42 1.894 10.388l-81.606 27.571c-4.613 1.559-4.9 7.976-.444 9.938l78.844 34.692c5.625 2.474 3.295 10.936-2.802 10.184l-85.487-10.566c-4.832-.595-7.874 5.064-4.709 8.761l55.982 65.469c3.991 4.675-1.777 11.284-6.944 7.956l-72.44-46.612c-4.094-2.638-9.295 1.141-8.044 5.85l22.034 83.273c1.572 5.939-6.493 9.398-9.705 4.156l-45.04-73.425c-2.549-4.148-8.871-3-9.787 1.784l-16.28 84.592c-1.162 6.035-9.924 5.646-10.546-.465l-8.721-85.699c-.492-4.846-6.691-6.554-9.589-2.645l-51.369 69.146c-3.663 4.935-11.393.779-9.302-4.996l29.328-80.997c1.66-4.579-3.185-8.803-7.498-6.541l-76.281 40.01c-5.44 2.857-10.607-4.238-6.213-8.537l61.566-60.253c3.479-3.404.95-9.316-3.916-9.145l-86.089 2.952c-6.144.212-7.716-8.42-1.893-10.388l81.605-27.571c4.614-1.558 4.901-7.976.445-9.938l-78.845-34.692c-5.625-2.474-3.294-10.936 2.802-10.184z"/><path d="M52.815 159.446l80.778 14.36c4.566.813 7.744-4.415 4.921-8.099l-49.947-65.086c-3.561-4.648 2.255-10.642 7.006-7.218l66.549 47.986c3.766 2.714 8.892-.622 7.948-5.16l-16.758-80.313c-1.196-5.727 6.65-8.605 9.439-3.465l39.135 72.106c2.214 4.08 8.283 3.301 9.397-1.203l19.745-79.63c1.408-5.68 9.726-4.873 10.006.977l3.978 81.947c.225 4.634 6.028 6.568 8.988 2.994l52.339-63.179c3.732-4.511 10.874-.171 8.591 5.222l-31.972 75.557c-1.811 4.271 2.583 8.536 6.8 6.602l74.566-34.207c5.324-2.44 9.869 4.565 5.474 8.434l-61.586 54.198c-3.486 3.062-1.374 8.81 3.26 8.899l82.029 1.531c5.85.109 6.91 8.4 1.278 9.978l-79.008 22.11c-4.47 1.251-5.065 7.341-.923 9.432l73.24 36.969c5.228 2.638 2.583 10.566-3.178 9.541l-80.779-14.36c-4.565-.813-7.743 4.415-4.921 8.099l49.948 65.086c3.561 4.648-2.256 10.642-7.006 7.218l-66.548-47.986c-3.766-2.714-8.892.622-7.949 5.16l16.759 80.314c1.196 5.727-6.651 8.604-9.439 3.465l-39.135-72.106c-2.215-4.08-8.284-3.301-9.398 1.203l-19.745 79.63c-1.408 5.68-9.726 4.874-10.006-.977l-3.978-81.947c-.225-4.634-6.028-6.568-8.987-2.993l-52.34 63.179c-3.731 4.511-10.873.171-8.591-5.222l31.973-75.557c1.811-4.271-2.584-8.536-6.801-6.602l-74.565 34.207c-5.324 2.44-9.869-4.565-5.475-8.434l61.587-54.198c3.485-3.062 1.374-8.81-3.26-8.899l-82.029-1.531c-5.85-.109-6.91-8.399-1.278-9.978l79.009-22.11c4.47-1.251 5.064-7.341.922-9.432l-73.239-36.968c-5.229-2.639-2.584-10.567 3.178-9.542z"/><path d="M64.235 153.159l76.062 18.152c4.299 1.026 7.614-3.772 5.133-7.429l-43.905-64.703c-3.131-4.62 2.74-9.999 7.067-6.479l60.65 49.352c3.431 2.789 8.495-.095 7.846-4.47l-11.482-77.347c-.82-5.522 6.807-7.819 9.179-2.768l33.237 70.786c1.879 4.005 7.695 3.602 9.008-.622l23.21-74.668c1.654-5.331 9.527-4.094 9.473 1.483l-.773 78.195c-.041 4.422 5.372 6.582 8.387 3.349l53.31-57.206c3.806-4.08 10.354.444 7.887 5.447l-34.618 70.117c-1.954 3.964 1.982 8.263 6.104 6.657l72.857-28.412c5.201-2.03 9.138 4.894 4.743 8.332l-61.614 48.149c-3.486 2.721-1.798 8.305 2.611 8.646l77.962 6.015c5.564.43 6.11 8.372.656 9.561l-76.404 16.649c-4.319.944-5.222 6.705-1.401 8.926l67.635 39.245c4.826 2.802 1.873 10.197-3.554 8.899l-76.062-18.153c-4.299-1.025-7.614 3.772-5.133 7.429l43.906 64.703c3.13 4.621-2.741 9.999-7.067 6.48l-60.651-49.353c-3.431-2.789-8.495.095-7.846 4.47l11.482 77.347c.82 5.522-6.807 7.819-9.179 2.768l-33.236-70.786c-1.88-4.005-7.696-3.602-9.008.622l-23.211 74.668c-1.654 5.331-9.527 4.094-9.472-1.483l.772-78.195c.041-4.422-5.372-6.582-8.386-3.349l-53.31 57.206c-3.807 4.08-10.355-.444-7.887-5.447l34.617-70.117c1.955-3.964-1.982-8.263-6.103-6.657L74.87 307.58c-5.201 2.03-9.138-4.894-4.743-8.331l61.614-48.15c3.486-2.721 1.798-8.304-2.61-8.646l-77.963-6.015c-5.563-.43-6.11-8.372-.656-9.561l76.404-16.649c4.32-.944 5.222-6.705 1.401-8.926l-67.635-39.245c-4.825-2.802-1.873-10.197 3.554-8.898z"/><path d="M75.663 146.878l71.347 21.939c4.032 1.244 7.484-3.131 5.344-6.767l-37.87-64.327c-2.7-4.593 3.219-9.357 7.128-5.741l54.759 50.726c3.096 2.871 8.099.431 7.751-3.779l-6.213-74.388c-.444-5.31 6.958-7.033 8.912-2.078l27.332 69.46c1.545 3.93 7.115 3.903 8.619-.041l26.682-69.713c1.907-4.976 9.322-3.315 8.933 1.996l-5.516 74.443c-.314 4.21 4.716 6.602 7.785 3.704l54.287-51.232c3.875-3.657 9.842 1.059 7.183 5.673l-37.269 64.676c-2.105 3.657 1.388 7.997 5.406 6.719l71.142-22.609c5.078-1.613 8.407 5.222 4.005 8.222l-61.641 42.101c-3.486 2.379-2.222 7.805 1.954 8.4l73.903 10.498c5.276.752 5.311 8.352.041 9.152l-73.8 11.188c-4.176.635-5.386 6.069-1.88 8.413l62.031 41.527c4.429 2.967 1.162 9.829-3.93 8.263l-71.346-21.939c-4.033-1.244-7.484 3.131-5.345 6.767l37.871 64.327c2.699 4.593-3.219 9.357-7.129 5.741l-54.759-50.726c-3.096-2.871-8.099-.431-7.75 3.779l6.213 74.388c.444 5.311-6.958 7.033-8.913 2.078l-27.331-69.46c-1.545-3.93-7.115-3.903-8.619.041l-26.682 69.713c-1.907 4.975-9.323 3.314-8.933-1.996l5.515-74.443c.315-4.21-4.715-6.602-7.784-3.704L122.808 349.1c-3.875 3.657-9.841-1.059-7.183-5.672l37.269-64.676c2.105-3.657-1.387-7.997-5.406-6.719l-71.141 22.609c-5.078 1.613-8.407-5.222-4.005-8.222l61.641-42.101c3.486-2.379 2.221-7.805-1.955-8.4l-73.902-10.498c-5.276-.752-5.31-8.352-.041-9.152l73.8-11.188c4.176-.635 5.385-6.069 1.879-8.413l-62.031-41.527c-4.429-2.967-1.162-9.829 3.93-8.263z"/><path d="M87.085 140.59l66.631 25.732c3.766 1.456 7.354-2.481 5.557-6.096l-31.829-63.945c-2.269-4.565 3.704-8.714 7.19-4.996l48.867 52.093c2.762 2.946 7.703.957 7.655-3.082l-.936-71.422c-.068-5.099 7.115-6.247 8.646-1.387l21.426 68.141c1.21 3.854 6.527 4.203 8.236.54l30.147-64.751c2.153-4.62 9.125-2.543 8.393 2.501l-10.258 70.69c-.581 3.999 4.059 6.616 7.183 4.06l55.258-45.259c3.943-3.232 9.322 1.668 6.472 5.899l-39.914 59.235c-2.256 3.349.786 7.723 4.709 6.773l69.426-16.806c4.955-1.196 7.675 5.55 3.274 8.12l-61.662 36.052c-3.486 2.037-2.645 7.3 1.305 8.147l69.836 14.982c4.983 1.066 4.504 8.331-.574 8.734l-71.196 5.728c-4.026.321-5.55 5.426-2.358 7.907l56.42 43.803c4.025 3.124.444 9.459-4.306 7.621l-66.631-25.732c-3.766-1.456-7.354 2.481-5.556 6.096l31.829 63.945c2.269 4.565-3.705 8.714-7.19 4.996l-48.868-52.094c-2.761-2.945-7.703-.956-7.655 3.083l.937 71.422c.068 5.098-7.115 6.246-8.646 1.387l-21.427-68.141c-1.209-3.855-6.527-4.203-8.235-.54l-30.148 64.751c-2.153 4.62-9.124 2.543-8.393-2.501l10.259-70.691c.581-3.998-4.06-6.616-7.183-4.06l-55.258 45.259c-3.944 3.233-9.323-1.667-6.472-5.898l39.914-59.236c2.255-3.349-.786-7.723-4.709-6.773l-69.426 16.807c-4.955 1.196-7.675-5.55-3.274-8.12l61.662-36.053c3.485-2.036 2.645-7.299-1.306-8.146L65.07 214.383c-4.983-1.066-4.504-8.331.574-8.735l71.197-5.727c4.025-.321 5.549-5.427 2.357-7.908L82.779 148.21c-4.026-3.123-.444-9.459 4.306-7.62z"/><path d="M98.502 134.302l61.915 29.525c3.499 1.668 7.224-1.838 5.768-5.433l-25.793-63.562c-1.839-4.538 4.182-8.072 7.251-4.258l42.976 53.467c2.433 3.021 7.306 1.476 7.552-2.392l4.34-68.455c.308-4.887 7.272-5.461 8.38-.69l15.521 66.815c.875 3.78 5.939 4.504 7.846 1.121l33.613-59.796c2.399-4.265 8.919-1.763 7.853 3.014l-15.009 66.932c-.847 3.786 3.404 6.636 6.582 4.415l56.228-39.292c4.012-2.802 8.803 2.282 5.769 6.117l-42.566 53.795c-2.406 3.041.184 7.45 4.012 6.828l67.71-11.004c4.832-.786 6.944 5.878 2.542 8.017l-61.689 29.997c-3.485 1.695-3.068 6.794.65 7.894l65.776 19.465c4.695 1.388 3.704 8.304-1.189 8.325l-68.593.259c-3.882.014-5.713 4.791-2.836 7.395l50.815 46.079c3.63 3.288-.266 9.09-4.681 6.985l-61.915-29.525c-3.499-1.668-7.224 1.838-5.768 5.433l25.793 63.562c1.839 4.538-4.182 8.072-7.251 4.258l-42.976-53.467c-2.433-3.021-7.306-1.476-7.552 2.392l-4.34 68.456c-.308 4.886-7.272 5.461-8.38.69l-15.521-66.815c-.875-3.78-5.939-4.504-7.846-1.121l-33.613 59.796c-2.399 4.265-8.919 1.763-7.853-3.014l15.009-66.932c.847-3.786-3.404-6.636-6.582-4.415l-56.228 39.293c-4.012 2.802-8.803-2.283-5.769-6.117l42.566-53.796c2.406-3.041-.184-7.449-4.011-6.827l-67.711 11.003c-4.832.786-6.944-5.878-2.543-8.017l61.689-29.997c3.485-1.695 3.068-6.793-.65-7.894l-65.776-19.465c-4.695-1.387-3.704-8.304 1.189-8.324l68.593-.26c3.882-.014 5.713-4.791 2.836-7.395l-50.815-46.079c-3.629-3.288.267-9.09 4.682-6.985z"/><path d="M222.927 77.506l9.616 65.496c.547 3.705 5.358 4.805 7.457 1.702l37.077-54.834c2.645-3.916 8.721-.984 7.313 3.52l-19.752 63.179c-1.114 3.575 2.741 6.65 5.981 4.771l57.199-33.319c4.08-2.379 8.283 2.891 5.057 6.342l-45.211 48.355c-2.556 2.734-.417 7.183 3.315 6.89l65.995-5.202c4.709-.369 6.206 6.199 1.805 7.915l-61.717 23.948c-3.493 1.354-3.493 6.295 0 7.648l61.717 23.949c4.401 1.709 2.904 8.283-1.805 7.914l-65.995-5.201c-3.732-.294-5.871 4.156-3.315 6.89l45.211 48.354c3.226 3.452-.977 8.721-5.057 6.343l-57.199-33.319c-3.233-1.886-7.095 1.196-5.981 4.771l19.752 63.179c1.408 4.511-4.668 7.436-7.313 3.52L240 295.483c-2.099-3.103-6.91-2.003-7.457 1.701l-9.616 65.497c-.684 4.674-7.429 4.674-8.113 0l-9.616-65.497c-.547-3.704-5.359-4.804-7.457-1.701l-37.078 54.834c-2.645 3.916-8.721.984-7.313-3.52l19.752-63.179c1.114-3.575-2.74-6.65-5.98-4.771l-57.199 33.319c-4.08 2.378-8.283-2.891-5.057-6.343l45.211-48.354c2.556-2.734.416-7.184-3.315-6.89l-65.995 5.201c-4.709.369-6.206-6.199-1.804-7.914l61.717-23.949c3.492-1.353 3.492-6.294 0-7.648l-61.717-23.948c-4.401-1.709-2.905-8.284 1.804-7.915l65.995 5.202c3.731.293 5.871-4.156 3.315-6.89l-45.211-48.355c-3.226-3.451.977-8.721 5.057-6.342l57.199 33.319c3.233 1.886 7.094-1.196 5.98-4.771L153.35 93.39c-1.408-4.511 4.668-7.436 7.313-3.52l37.078 54.834c2.098 3.103 6.91 2.003 7.457-1.702l9.616-65.496c.684-4.675 7.429-4.675 8.113 0z"/></g><path d="M223.789 235.995a16.91 16.91 0 0 0 11.17-21.138c-2.751-8.922-12.212-13.925-21.132-11.173a16.91 16.91 0 0 0-11.17 21.138c2.751 8.923 12.212 13.925 21.132 11.173z" fill="#02e2ac"/><path d="M230.216 280.671h7.602v-14.938l10.561 10.563 5.376-5.377-32.062-32.07h10.752l26.686 26.693 5.375-5.378-21.312-21.318h10.752l15.936 15.941 5.376-5.377-10.561-10.564h14.935v-7.604h-45.343l7.602-7.604h37.741v-7.604h-30.139l7.602-7.605h22.537v-7.604h-14.935l10.561-10.563-5.376-5.378-32.061 32.071V206.2l26.685-26.693-5.375-5.377-21.31 21.315v-10.754l15.934-15.939-5.376-5.377-10.558 10.561V159h-7.602v45.358l-7.602-7.604V159h-7.602v30.15l-7.602-7.604v-22.543h-7.602v14.938l-10.561-10.563-5.375 5.377 32.061 32.07h-10.752l-26.685-26.693-5.376 5.378 21.312 21.318h-10.751l-15.937-15.941-5.376 5.377 10.561 10.564H158v7.604h45.343l-7.602 7.604H158v7.604h30.139l-7.602 7.605H158v7.604h14.932l-10.561 10.563 5.376 5.378 32.061-32.071v10.755L173.12 260.17l5.376 5.377 21.312-21.318v10.754l-15.936 15.941 5.376 5.378 10.56-10.564v14.939h7.602v-45.356l7.602 7.604v37.752h7.602V250.53l7.602 7.604v22.543-.006zM207.41 224.59l-4.737-4.739 4.716-4.718v-6.701h6.674l4.737-4.739 4.717 4.718h6.702v6.673l4.737 4.739-4.719 4.72v6.702h-6.67l-4.738 4.738-4.717-4.718h-6.699v-6.675h-.003z" fill="#000"/></svg>