<svg width="120" height="120" viewBox="0 0 120 120" fill="none" xmlns="http://www.w3.org/2000/svg">
<mask id="path-1-inside-1_1067_51" fill="white">
<path d="M112.5 52.5H85C80.8579 52.5 77.5 55.8579 77.5 60C77.5 64.1421 80.8579 67.5 85 67.5H112.5C116.642 67.5 120 64.1421 120 60C120 55.8579 116.642 52.5 112.5 52.5Z"/>
<path d="M35 52.5H7.5C3.35786 52.5 0 55.8579 0 60C0 64.1421 3.35786 67.5 7.5 67.5H35C39.1421 67.5 42.5 64.1421 42.5 60C42.5 55.8579 39.1421 52.5 35 52.5Z"/>
<path d="M67.5 7.5C67.5 3.35786 64.1421 0 60 0C55.8579 0 52.5 3.35786 52.5 7.5V35C52.5 39.1421 55.8579 42.5 60 42.5C64.1421 42.5 67.5 39.1421 67.5 35V7.5Z"/>
<path d="M67.5 85C67.5 80.8579 64.1421 77.5 60 77.5C55.8579 77.5 52.5 80.8579 52.5 85V112.5C52.5 116.642 55.8579 120 60 120C64.1421 120 67.5 116.642 67.5 112.5V85Z"/>
</mask>
<path d="M112.5 52.5H85C80.8579 52.5 77.5 55.8579 77.5 60C77.5 64.1421 80.8579 67.5 85 67.5H112.5C116.642 67.5 120 64.1421 120 60C120 55.8579 116.642 52.5 112.5 52.5Z" fill="#6F3FF5"/>
<path d="M35 52.5H7.5C3.35786 52.5 0 55.8579 0 60C0 64.1421 3.35786 67.5 7.5 67.5H35C39.1421 67.5 42.5 64.1421 42.5 60C42.5 55.8579 39.1421 52.5 35 52.5Z" fill="#6F3FF5"/>
<path d="M67.5 7.5C67.5 3.35786 64.1421 0 60 0C55.8579 0 52.5 3.35786 52.5 7.5V35C52.5 39.1421 55.8579 42.5 60 42.5C64.1421 42.5 67.5 39.1421 67.5 35V7.5Z" fill="#6F3FF5"/>
<path d="M67.5 85C67.5 80.8579 64.1421 77.5 60 77.5C55.8579 77.5 52.5 80.8579 52.5 85V112.5C52.5 116.642 55.8579 120 60 120C64.1421 120 67.5 116.642 67.5 112.5V85Z" fill="#6F3FF5"/>
<path d="M85 53.5H112.5V51.5H85V53.5ZM112.5 53.5C116.09 53.5 119 56.4101 119 60H121C121 55.3056 117.194 51.5 112.5 51.5V53.5ZM119 60C119 63.5899 116.09 66.5 112.5 66.5V68.5C117.194 68.5 121 64.6944 121 60H119ZM112.5 66.5H85V68.5H112.5V66.5ZM85 66.5C81.4101 66.5 78.5 63.5899 78.5 60H76.5C76.5 64.6944 80.3056 68.5 85 68.5V66.5ZM78.5 60C78.5 56.4101 81.4101 53.5 85 53.5V51.5C80.3056 51.5 76.5 55.3056 76.5 60H78.5ZM7.5 53.5H35V51.5H7.5V53.5ZM35 53.5C38.5899 53.5 41.5 56.4101 41.5 60H43.5C43.5 55.3056 39.6944 51.5 35 51.5V53.5ZM41.5 60C41.5 63.5899 38.5899 66.5 35 66.5V68.5C39.6944 68.5 43.5 64.6944 43.5 60H41.5ZM35 66.5H7.5V68.5H35V66.5ZM7.5 66.5C3.91015 66.5 1 63.5899 1 60H-1C-1 64.6944 2.80558 68.5 7.5 68.5V66.5ZM1 60C1 56.4101 3.91015 53.5 7.5 53.5V51.5C2.80558 51.5 -1 55.3056 -1 60H1ZM60 1C63.5899 1 66.5 3.91015 66.5 7.5H68.5C68.5 2.80558 64.6944 -1 60 -1V1ZM66.5 7.5V35H68.5V7.5H66.5ZM66.5 35C66.5 38.5899 63.5899 41.5 60 41.5V43.5C64.6944 43.5 68.5 39.6944 68.5 35H66.5ZM60 41.5C56.4101 41.5 53.5 38.5899 53.5 35H51.5C51.5 39.6944 55.3056 43.5 60 43.5V41.5ZM53.5 35V7.5H51.5V35H53.5ZM53.5 7.5C53.5 3.91015 56.4101 1 60 1V-1C55.3056 -1 51.5 2.80558 51.5 7.5H53.5ZM60 78.5C63.5899 78.5 66.5 81.4101 66.5 85H68.5C68.5 80.3056 64.6944 76.5 60 76.5V78.5ZM66.5 85V112.5H68.5V85H66.5ZM66.5 112.5C66.5 116.09 63.5899 119 60 119V121C64.6944 121 68.5 117.194 68.5 112.5H66.5ZM60 119C56.4101 119 53.5 116.09 53.5 112.5H51.5C51.5 117.194 55.3056 121 60 121V119ZM53.5 112.5V85H51.5V112.5H53.5ZM53.5 85C53.5 81.4101 56.4101 78.5 60 78.5V76.5C55.3056 76.5 51.5 80.3056 51.5 85H53.5Z" fill="#0E0333" mask="url(#path-1-inside-1_1067_51)"/>
<path d="M59.9998 51.51H60.0098C64.6987 51.51 68.4998 55.3111 68.4998 60V60.01C68.4998 64.6989 64.6987 68.5 60.0098 68.5H59.9998C55.3109 68.5 51.5098 64.6989 51.5098 60.01V60C51.5098 55.3111 55.3109 51.51 59.9998 51.51Z" fill="#02E2AC" stroke="#0E0333"/>
</svg>
