<svg width="0" height="0" xmlns="http://www.w3.org/2000/svg" xmlns:xlink="http://www.w3.org/1999/xlink" viewBox="0 0 300 300">
    <symbol id="event1" viewBox="0 0 140 140" fill="none">
    <path d="M34.0916 49.1012L13.6641 14.6639L48.1013 35.0915L34.0916 49.1012Z" stroke="#0E0333" stroke-linecap="round" stroke-linejoin="round"/>
<path d="M54.0592 81.5686C61.378 88.8874 73.2501 88.8874 80.5689 81.5686C87.8877 74.2498 87.8877 62.3777 80.5689 55.0588L62.0059 36.4958L35.4961 63.0055L54.0592 81.5686V81.5686Z" fill="#6F3FF5" stroke="#0E0333" stroke-linecap="round" stroke-linejoin="round"/>
<path d="M43.7578 54.5939L32.5088 7L61.9327 36.4191L43.7578 54.5939Z" fill="#C9B8FF" stroke="#0E0333" stroke-linecap="round" stroke-linejoin="round"/>
<path d="M53.5939 44.7587L6 33.5097L35.4191 62.9336L53.5939 44.7587Z" fill="#C9B8FF" stroke="#0E0333" stroke-linecap="round" stroke-linejoin="round"/>
<g clip-path="url(#clip0_1071_212)">
<path d="M132.26 76.5239C102.491 78.6686 80.1429 104.488 82.2877 134.257" stroke="#0E0333" stroke-miterlimit="10"/>
</g>
<g clip-path="url(#clip1_1071_212)">
<path d="M133.399 94.3418C113.084 95.8054 97.832 113.426 99.2956 133.742" stroke="#0E0333" stroke-miterlimit="10"/>
</g>
<g clip-path="url(#clip2_1071_212)">
<path d="M133.258 111.951C122.051 112.759 113.638 122.478 114.446 133.685" stroke="#0E0333" stroke-miterlimit="10"/>
</g>
<defs>
<clipPath id="clip0_1071_212">
<rect width="47.6851" height="61.1403" fill="white" transform="translate(84.7656 73.2268) rotate(3.2861)"/>
</clipPath>
<clipPath id="clip1_1071_212">
<rect width="32.5426" height="41.7251" fill="white" transform="translate(100.986 92.0917) rotate(3.2861)"/>
</clipPath>
<clipPath id="clip2_1071_212">
<rect width="17.9509" height="23.016" fill="white" transform="translate(115.378 110.71) rotate(3.2861)"/>
</clipPath>
</defs>
    <symbol>

    <symbol id="event2" viewBox="0 0 140 140" fill="none">
    <path d="M69.2946 113.837V95.467L86.8623 105.851L69.2946 135V113.836V113.837ZM69.2946 113.837V95.467L51.7269 105.851L69.2946 135V113.836V113.837ZM13 102.5L47.0294 103.141L47.2389 82.735L31.3302 91.9202L13 102.5ZM31.3302 91.9183L47.2389 82.733L29.4617 72.7115L13 102.5L31.3302 91.9183ZM13 37.4995L29.4617 67.2885L47.2389 57.267L31.3302 48.0817L13 37.4995ZM31.3302 48.0817L47.2389 57.267L47.0294 36.8612L13 37.4995L31.3302 48.0817ZM69.2946 5L51.7269 34.1487L69.2946 44.533V5ZM69.2946 26.1645V44.5349L86.8623 34.1506L69.2946 5V26.1645ZM125.589 37.4995L91.5598 36.8592L91.3502 57.265L107.259 48.0798L125.589 37.4976V37.4995ZM107.259 48.0817L91.3502 57.267L109.127 67.2885L125.589 37.4995L107.259 48.0817V48.0817ZM125.589 102.5L109.127 72.7115L91.3502 82.733L107.259 91.9183L125.589 102.5V102.5ZM107.259 91.9183L91.3502 82.733L91.5598 103.139L125.589 102.499L107.259 91.9163V91.9183Z" stroke="#0E0333" stroke-linecap="round" stroke-linejoin="round"/>
<path d="M69.2943 77.764V92.1414L86.862 102.52L69.2943 77.764ZM51.7266 102.52L69.2943 92.1414V77.764L51.7266 102.52ZM62.5711 73.8815L50.12 81.0702L49.9163 101.474L62.573 73.8815H62.5711ZM32.3467 71.0448L50.12 81.0702L62.5711 73.8815L32.3467 71.0448ZM62.5711 66.1165L50.12 58.9278L32.3467 68.9532L62.5711 66.1165ZM49.9144 38.524L50.1181 58.9278L62.5691 66.1165L49.9124 38.524H49.9144ZM69.2943 62.2341V47.8567L51.7266 37.4781L69.2943 62.2341ZM86.862 37.4781L69.2943 47.8567V62.2341L86.862 37.4781ZM76.0175 66.1165L88.4686 58.9278L88.6723 38.524L76.0156 66.1165H76.0175ZM106.242 68.9532L88.4686 58.9278L76.0175 66.1165L106.242 68.9532ZM76.0175 73.8815L88.4686 81.0702L106.242 71.0448L76.0175 73.8815ZM88.6742 101.474L88.4705 81.0702L76.0195 73.8815L88.6762 101.474H88.6742Z" fill="#6F3FF5" stroke="#0E0333" stroke-linecap="round" stroke-linejoin="round"/>
<path d="M69.2948 113.838V95.469L86.8625 105.853L69.2948 113.838ZM69.2948 113.838V95.469L51.7271 105.853L69.2948 113.838ZM47.0296 103.141L47.2391 82.735L31.3304 91.9202L47.0296 103.143V103.141ZM31.3304 91.9183L47.2391 82.733L29.4619 72.7116L31.3304 91.9183V91.9183ZM29.4619 67.2885L47.2391 57.267L31.3304 48.0818L29.4619 67.2885V67.2885ZM31.3304 48.0818L47.2391 57.267L47.0296 36.8612L31.3304 48.0837V48.0818ZM51.7271 34.1487L69.2948 44.533V26.1645L51.7271 34.1487V34.1487ZM69.2948 26.1645V44.533L86.8625 34.1487L69.2948 26.1645V26.1645ZM91.56 36.8612L91.3504 57.267L107.259 48.0818L91.56 36.8593V36.8612ZM107.259 48.0837L91.3504 57.269L109.128 67.2904L107.259 48.0837V48.0837ZM109.128 72.7135L91.3504 82.735L107.259 91.9202L109.128 72.7135ZM107.259 91.9202L91.3504 82.735L91.56 103.141L107.259 91.9183V91.9202Z" fill="#C9B8FF" stroke="#0E0333" stroke-linecap="round" stroke-linejoin="round"/>

    <symbol>

    <symbol id="event3" viewBox="0 0 140 140" fill="none">
        <path d="M61.5093 41.6101C60.587 41.8608 59.6347 41.2693 59.4542 40.327L55.1436 17.8717L62.6421 39.4749C62.9528 40.3771 62.4316 41.3695 61.5093 41.6101ZM31.1846 31.7058L46.1415 48.9983C46.773 49.7201 47.8858 49.7602 48.5574 49.0885C49.2391 48.4069 49.199 47.2941 48.4672 46.6726L31.1746 31.7158L31.1846 31.7058ZM17.3506 55.6748L38.9538 63.1732C39.856 63.484 40.8484 62.9627 41.089 62.0404C41.3396 61.1182 40.7482 60.1658 39.8059 59.9854L17.3506 55.6748V55.6748ZM17.3506 83.3529L39.8059 79.0423C40.7482 78.8618 41.3396 77.9195 41.089 76.9872C40.8384 76.0649 39.856 75.5437 38.9538 75.8544L17.3506 83.3529V83.3529ZM31.1846 107.322L48.4772 92.3651C49.199 91.7335 49.2391 90.6208 48.5674 89.9491C47.8857 89.2674 46.773 89.3076 46.1515 90.0394L31.1947 107.332L31.1846 107.322ZM55.1536 121.156L62.6521 99.5528C62.9629 98.6505 62.4416 97.6581 61.5193 97.4175C60.597 97.1669 59.6447 97.7584 59.4643 98.7007L55.1536 121.156V121.156ZM82.8318 121.156L78.5212 98.7007C78.3407 97.7584 77.3984 97.1669 76.4661 97.4175C75.5438 97.6681 75.0226 98.6505 75.3333 99.5528L82.8318 121.156V121.156ZM106.801 107.322L91.844 90.0293C91.2124 89.3075 90.0997 89.2674 89.428 89.9391C88.7463 90.6208 88.7864 91.7335 89.5182 92.3551L106.811 107.312L106.801 107.322ZM120.635 83.3529L99.0317 75.8544C98.1294 75.5437 97.137 76.0649 96.8964 76.9872C96.6458 77.9095 97.2372 78.8618 98.1795 79.0423L120.635 83.3529V83.3529ZM120.635 55.6748L98.1795 59.9854C97.2372 60.1658 96.6458 61.1081 96.8964 62.0404C97.147 62.9627 98.1294 63.484 99.0317 63.1732L120.635 55.6748V55.6748ZM106.801 31.7058L89.5082 46.6626C88.7864 47.2941 88.7463 48.4069 89.418 49.0785C90.0997 49.7602 91.2124 49.7201 91.8339 48.9883L106.791 31.6957L106.801 31.7058ZM82.8318 17.8717L75.3333 39.4749C75.0226 40.3771 75.5438 41.3695 76.4661 41.6101C77.3884 41.8608 78.3407 41.2693 78.5212 40.327L82.8318 17.8717V17.8717Z" fill="#C9B8FF" stroke="#0E0333"/>
<path d="M69.99 34.8735C68.8271 34.8735 67.9048 33.8811 67.985 32.7182L69.99 5L71.9949 32.7182C72.0751 33.8811 71.1528 34.8735 69.99 34.8735ZM37.5 13.7114L49.6198 38.723C50.1311 39.7756 51.4243 40.1666 52.4368 39.5851C53.4493 39.0037 53.75 37.6804 53.0984 36.7181L37.5 13.7114V13.7114ZM13.7114 37.5L36.7181 53.0984C37.6804 53.75 39.0037 53.4493 39.5851 52.4368C40.1666 51.4243 39.7756 50.1311 38.723 49.6198L13.7114 37.5V37.5ZM5 70L32.7182 72.0049C33.8811 72.0851 34.8735 71.1629 34.8735 70C34.8735 68.8371 33.8811 67.9149 32.7182 67.9951L5 70ZM13.7114 102.5L38.723 90.3802C39.7756 89.8689 40.1666 88.5757 39.5851 87.5632C39.0037 86.5507 37.6804 86.25 36.7181 86.9016L13.7114 102.5V102.5ZM37.5 126.289L53.0984 103.282C53.75 102.32 53.4493 100.996 52.4368 100.415C51.4243 99.8334 50.1311 100.224 49.6198 101.277L37.5 126.289ZM70 135L72.0049 107.282C72.0851 106.119 71.1629 105.126 70 105.126C68.8371 105.126 67.9149 106.119 67.9951 107.282L70 135ZM102.5 126.289L90.3802 101.277C89.8689 100.224 88.5757 99.8334 87.5632 100.415C86.5507 100.996 86.25 102.32 86.9016 103.282L102.5 126.289ZM126.289 102.5L103.282 86.9016C102.32 86.25 100.996 86.5507 100.415 87.5632C99.8334 88.5757 100.224 89.8689 101.277 90.3802L126.289 102.5ZM135 70L107.282 67.9951C106.119 67.9149 105.126 68.8371 105.126 70C105.126 71.1629 106.119 72.0851 107.282 72.0049L135 70ZM126.289 37.5L101.277 49.6198C100.224 50.1311 99.8334 51.4243 100.415 52.4368C100.996 53.4493 102.32 53.75 103.282 53.0984L126.289 37.5ZM102.5 13.7114L86.9016 36.7181C86.25 37.6804 86.5507 39.0037 87.5632 39.5851C88.5757 40.1666 89.8689 39.7756 90.3802 38.723L102.5 13.7114Z" stroke="#0E0333"/>
<path d="M69.9996 89.5982C80.8234 89.5982 89.5979 80.8238 89.5979 70C89.5979 59.1762 80.8234 50.4017 69.9996 50.4017C59.1758 50.4017 50.4014 59.1762 50.4014 70C50.4014 80.8238 59.1758 89.5982 69.9996 89.5982Z" fill="#6F3FF5" stroke="#0E0333"/>
    <symbol>

    <symbol id="greenpill" viewBox="0 0 48 48" fill="none">
        <path d="M26.8194 40.941C27.7465 41.8686 28.8474 42.6044 30.0591 43.1063C31.2707 43.6082 32.5694 43.8663 33.8809 43.866C35.1924 43.8657 36.491 43.6068 37.7024 43.1043C38.9138 42.6018 40.0143 41.8655 40.941 40.9374C41.8683 40.0106 42.6039 38.9101 43.1058 37.6989C43.6077 36.4877 43.866 35.1895 43.866 33.8784C43.866 32.5673 43.6077 31.2691 43.1058 30.0579C42.6039 28.8467 41.8683 27.7463 40.941 26.8194L31.058 16.9365L16.9419 31.0526L26.8194 40.941Z" fill="#02E2AC" stroke="black" stroke-miterlimit="10"/>
<path d="M31.0527 16.9417L21.1698 7.05869C19.2986 5.18747 16.7609 4.13576 14.1146 4.13474C11.4683 4.13373 8.92986 5.18349 7.0572 7.05328C5.18583 8.92561 4.13474 11.4646 4.13508 14.1117C4.13542 16.7589 5.18716 19.2976 7.05901 21.1695L16.942 31.0524L31.0527 16.9417Z" fill="#02E2AC" stroke="black" stroke-miterlimit="10"/>
    </symbol>

    <symbol id="sponsorship" viewBox="0 0 50 50" fill="none">
        <path d="M49 24.9937C49 27.9089 43.5498 29.7087 42.4978 32.2437C41.4457 34.7787 43.9554 39.9881 41.9781 41.9654C40.0008 43.9427 34.8801 41.4077 32.2564 42.4851C29.6327 43.5625 27.9216 48.9873 25.0063 48.9873C22.0911 48.9873 20.2913 43.5371 17.7563 42.4851C15.2213 41.4331 10.0119 43.9427 8.03459 41.9654C6.0573 39.9881 8.59229 34.8674 7.51492 32.2437C6.43755 29.62 1 27.9089 1 24.9937C1 22.0784 6.45022 20.2786 7.50224 17.7436C8.55427 15.2086 6.04463 9.99921 8.02192 8.02192C9.99921 6.04463 15.1199 8.57961 17.7436 7.50224C20.3673 6.42487 22.0911 1 24.9937 1C27.8962 1 29.7087 6.45022 32.2437 7.50224C34.7787 8.55427 39.9881 6.04463 41.9654 8.02192C43.9427 9.99921 41.4077 15.1199 42.4851 17.7436C43.5625 20.3673 48.9873 22.0784 48.9873 24.9937H49Z" fill="#02E2AC" stroke="black" stroke-linecap="round" stroke-linejoin="round"/>
<path d="M26.5019 15.2846L27.8328 19.5054C28.0356 20.1645 28.6566 20.6081 29.3538 20.6081L33.79 20.5701C35.3363 20.5701 35.9701 22.5347 34.7153 23.4346L31.1156 26.0076C30.5579 26.4132 30.3171 27.1357 30.5325 27.7948L31.9394 32.0028C32.4211 33.4605 30.748 34.6899 29.5059 33.7773L25.9442 31.141C25.3865 30.7354 24.626 30.7354 24.0683 31.141L20.5066 33.7773C19.2645 34.6899 17.5787 33.4731 18.0731 32.0028L19.48 27.7948C19.6955 27.1357 19.4673 26.4132 18.8969 26.0076L15.2972 23.4346C14.0424 22.5347 14.6889 20.5574 16.2225 20.5701L20.6587 20.6081C21.3559 20.6081 21.9643 20.1645 22.1797 19.5054L23.5106 15.2846C23.9796 13.8143 26.0583 13.8143 26.5146 15.2846H26.5019Z" fill="#02E2AC" stroke="black" stroke-linecap="round" stroke-linejoin="round"/>
    </symbol>

    <symbol id="swag" viewBox="0 0 44 52" fill="none">
        <path d="M40.7915 10.8567H3.60757L1 51.0002H43.399L40.7915 10.8567Z" fill="#02E2AC" stroke="black" stroke-linecap="round" stroke-linejoin="round"/>
<path d="M31.586 50.7132V10.3872C31.586 5.19818 27.3878 1 22.1988 1C17.0097 1 12.8115 5.19818 12.8115 10.3872V50.7132" stroke="black" stroke-linecap="round" stroke-linejoin="round"/>
    </symbol>

    <symbol id="gitcoindao" viewBox="0 0 188 58" fill="none">
        <path d="M8 0.5H180C184.142 0.5 187.5 3.85786 187.5 8V50C187.5 54.1421 184.142 57.5 180 57.5H8C3.85786 57.5 0.5 54.1421 0.5 50V8C0.5 3.85786 3.85786 0.5 8 0.5Z" fill="#02E2AC" stroke="#0E0333"/>
<path d="M49.666 37.718C49.666 36.494 49.948 35.396 50.512 34.424C51.088 33.452 51.862 32.696 52.834 32.156C53.818 31.604 54.892 31.328 56.056 31.328C57.388 31.328 58.57 31.658 59.602 32.318C60.646 32.966 61.402 33.89 61.87 35.09H59.404C59.08 34.43 58.63 33.938 58.054 33.614C57.478 33.29 56.812 33.128 56.056 33.128C55.228 33.128 54.49 33.314 53.842 33.686C53.194 34.058 52.684 34.592 52.312 35.288C51.952 35.984 51.772 36.794 51.772 37.718C51.772 38.642 51.952 39.452 52.312 40.148C52.684 40.844 53.194 41.384 53.842 41.768C54.49 42.14 55.228 42.326 56.056 42.326C56.812 42.326 57.478 42.164 58.054 41.84C58.63 41.516 59.08 41.024 59.404 40.364H61.87C61.402 41.564 60.646 42.488 59.602 43.136C58.57 43.784 57.388 44.108 56.056 44.108C54.88 44.108 53.806 43.838 52.834 43.298C51.862 42.746 51.088 41.984 50.512 41.012C49.948 40.04 49.666 38.942 49.666 37.718ZM71.8679 44.126C70.7039 44.126 69.6299 43.856 68.6459 43.316C67.6739 42.764 66.8999 42.002 66.3239 41.03C65.7599 40.046 65.4779 38.942 65.4779 37.718C65.4779 36.494 65.7599 35.396 66.3239 34.424C66.8999 33.452 67.6739 32.696 68.6459 32.156C69.6299 31.604 70.7039 31.328 71.8679 31.328C73.0439 31.328 74.1179 31.604 75.0899 32.156C76.0739 32.696 76.8479 33.452 77.4119 34.424C77.9759 35.396 78.2579 36.494 78.2579 37.718C78.2579 38.942 77.9759 40.046 77.4119 41.03C76.8479 42.002 76.0739 42.764 75.0899 43.316C74.1179 43.856 73.0439 44.126 71.8679 44.126ZM71.8679 42.344C72.6959 42.344 73.4339 42.158 74.0819 41.786C74.7299 41.402 75.2339 40.862 75.5939 40.166C75.9659 39.458 76.1519 38.642 76.1519 37.718C76.1519 36.794 75.9659 35.984 75.5939 35.288C75.2339 34.592 74.7299 34.058 74.0819 33.686C73.4339 33.314 72.6959 33.128 71.8679 33.128C71.0399 33.128 70.3019 33.314 69.6539 33.686C69.0059 34.058 68.4959 34.592 68.1239 35.288C67.7639 35.984 67.5839 36.794 67.5839 37.718C67.5839 38.642 67.7639 39.458 68.1239 40.166C68.4959 40.862 69.0059 41.402 69.6539 41.786C70.3019 42.158 71.0399 42.344 71.8679 42.344ZM95.3431 31.49V44H93.2911V35.432L89.4751 44H88.0531L84.2191 35.432V44H82.1671V31.49H84.3811L88.7731 41.3L93.1471 31.49H95.3431ZM113.106 31.49V44H111.054V35.432L107.238 44H105.816L101.982 35.432V44H99.9302V31.49H102.144L106.536 41.3L110.91 31.49H113.106ZM119.727 31.49V39.464C119.727 40.412 119.973 41.126 120.465 41.606C120.969 42.086 121.665 42.326 122.553 42.326C123.453 42.326 124.149 42.086 124.641 41.606C125.145 41.126 125.397 40.412 125.397 39.464V31.49H127.449V39.428C127.449 40.448 127.227 41.312 126.783 42.02C126.339 42.728 125.745 43.256 125.001 43.604C124.257 43.952 123.435 44.126 122.535 44.126C121.635 44.126 120.813 43.952 120.069 43.604C119.337 43.256 118.755 42.728 118.323 42.02C117.891 41.312 117.675 40.448 117.675 39.428V31.49H119.727ZM142.289 44H140.237L134.063 34.658V44H132.011V31.472H134.063L140.237 40.796V31.472H142.289V44ZM148.926 31.49V44H146.874V31.49H148.926ZM161.592 31.49V33.164H158.262V44H156.21V33.164H152.862V31.49H161.592ZM174.83 31.49L170.69 39.464V44H168.638V39.464L164.48 31.49H166.766L169.664 37.628L172.562 31.49H174.83Z" fill="#0E0333"/>
<path d="M54.112 19.692C54.416 19.74 54.692 19.864 54.94 20.064C55.196 20.264 55.396 20.512 55.54 20.808C55.692 21.104 55.768 21.42 55.768 21.756C55.768 22.18 55.66 22.564 55.444 22.908C55.228 23.244 54.912 23.512 54.496 23.712C54.088 23.904 53.604 24 53.044 24H49.924V15.636H52.924C53.492 15.636 53.976 15.732 54.376 15.924C54.776 16.108 55.076 16.36 55.276 16.68C55.476 17 55.576 17.36 55.576 17.76C55.576 18.256 55.44 18.668 55.168 18.996C54.904 19.316 54.552 19.548 54.112 19.692ZM51.016 19.248H52.852C53.364 19.248 53.76 19.128 54.04 18.888C54.32 18.648 54.46 18.316 54.46 17.892C54.46 17.468 54.32 17.136 54.04 16.896C53.76 16.656 53.356 16.536 52.828 16.536H51.016V19.248ZM52.948 23.1C53.492 23.1 53.916 22.972 54.22 22.716C54.524 22.46 54.676 22.104 54.676 21.648C54.676 21.184 54.516 20.82 54.196 20.556C53.876 20.284 53.448 20.148 52.912 20.148H51.016V23.1H52.948ZM58.4114 15.636V20.928C58.4114 21.672 58.5914 22.224 58.9514 22.584C59.3194 22.944 59.8274 23.124 60.4754 23.124C61.1154 23.124 61.6154 22.944 61.9754 22.584C62.3434 22.224 62.5274 21.672 62.5274 20.928V15.636H63.6194V20.916C63.6194 21.612 63.4794 22.2 63.1994 22.68C62.9194 23.152 62.5394 23.504 62.0594 23.736C61.5874 23.968 61.0554 24.084 60.4634 24.084C59.8714 24.084 59.3354 23.968 58.8554 23.736C58.3834 23.504 58.0074 23.152 57.7274 22.68C57.4554 22.2 57.3194 21.612 57.3194 20.916V15.636H58.4114ZM66.593 15.636V24H65.501V15.636H66.593ZM69.9662 23.112H72.8942V24H68.8742V15.636H69.9662V23.112ZM79.6218 15.636V16.524H77.3418V24H76.2498V16.524H73.9578V15.636H79.6218ZM88.4733 19.692C88.7773 19.74 89.0533 19.864 89.3013 20.064C89.5573 20.264 89.7573 20.512 89.9013 20.808C90.0533 21.104 90.1293 21.42 90.1293 21.756C90.1293 22.18 90.0213 22.564 89.8053 22.908C89.5893 23.244 89.2733 23.512 88.8573 23.712C88.4493 23.904 87.9653 24 87.4053 24H84.2853V15.636H87.2853C87.8533 15.636 88.3373 15.732 88.7373 15.924C89.1373 16.108 89.4373 16.36 89.6373 16.68C89.8373 17 89.9373 17.36 89.9373 17.76C89.9373 18.256 89.8013 18.668 89.5293 18.996C89.2653 19.316 88.9133 19.548 88.4733 19.692ZM85.3773 19.248H87.2133C87.7253 19.248 88.1213 19.128 88.4013 18.888C88.6813 18.648 88.8213 18.316 88.8213 17.892C88.8213 17.468 88.6813 17.136 88.4013 16.896C88.1213 16.656 87.7173 16.536 87.1893 16.536H85.3773V19.248ZM87.3093 23.1C87.8533 23.1 88.2773 22.972 88.5813 22.716C88.8853 22.46 89.0373 22.104 89.0373 21.648C89.0373 21.184 88.8773 20.82 88.5573 20.556C88.2373 20.284 87.8093 20.148 87.2733 20.148H85.3773V23.1H87.3093ZM97.4406 15.636L94.7166 20.844V24H93.6246V20.844L90.8886 15.636H92.1006L94.1646 19.872L96.2286 15.636H97.4406ZM106.58 15.636V16.524H104.3V24H103.208V16.524H100.916V15.636H106.58ZM114.308 15.636V24H113.216V20.208H108.956V24H107.864V15.636H108.956V19.308H113.216V15.636H114.308ZM117.204 16.524V19.32H120.252V20.22H117.204V23.1H120.612V24H116.112V15.624H120.612V16.524H117.204ZM131.44 18.06C131.208 17.572 130.872 17.196 130.432 16.932C129.992 16.66 129.48 16.524 128.896 16.524C128.312 16.524 127.784 16.66 127.312 16.932C126.848 17.196 126.48 17.58 126.208 18.084C125.944 18.58 125.812 19.156 125.812 19.812C125.812 20.468 125.944 21.044 126.208 21.54C126.48 22.036 126.848 22.42 127.312 22.692C127.784 22.956 128.312 23.088 128.896 23.088C129.712 23.088 130.384 22.844 130.912 22.356C131.44 21.868 131.748 21.208 131.836 20.376H128.5V19.488H133V20.328C132.936 21.016 132.72 21.648 132.352 22.224C131.984 22.792 131.5 23.244 130.9 23.58C130.3 23.908 129.632 24.072 128.896 24.072C128.12 24.072 127.412 23.892 126.772 23.532C126.132 23.164 125.624 22.656 125.248 22.008C124.88 21.36 124.696 20.628 124.696 19.812C124.696 18.996 124.88 18.264 125.248 17.616C125.624 16.96 126.132 16.452 126.772 16.092C127.412 15.724 128.12 15.54 128.896 15.54C129.784 15.54 130.568 15.76 131.248 16.2C131.936 16.64 132.436 17.26 132.748 18.06H131.44ZM136.076 15.636V24H134.984V15.636H136.076ZM143.625 15.636V16.524H141.345V24H140.253V16.524H137.961V15.636H143.625ZM144.621 19.812C144.621 18.996 144.805 18.264 145.173 17.616C145.541 16.96 146.041 16.448 146.673 16.08C147.313 15.712 148.021 15.528 148.797 15.528C149.709 15.528 150.505 15.748 151.185 16.188C151.865 16.628 152.361 17.252 152.673 18.06H151.365C151.133 17.556 150.797 17.168 150.357 16.896C149.925 16.624 149.405 16.488 148.797 16.488C148.213 16.488 147.689 16.624 147.225 16.896C146.761 17.168 146.397 17.556 146.133 18.06C145.869 18.556 145.737 19.14 145.737 19.812C145.737 20.476 145.869 21.06 146.133 21.564C146.397 22.06 146.761 22.444 147.225 22.716C147.689 22.988 148.213 23.124 148.797 23.124C149.405 23.124 149.925 22.992 150.357 22.728C150.797 22.456 151.133 22.068 151.365 21.564H152.673C152.361 22.364 151.865 22.984 151.185 23.424C150.505 23.856 149.709 24.072 148.797 24.072C148.021 24.072 147.313 23.892 146.673 23.532C146.041 23.164 145.541 22.656 145.173 22.008C144.805 21.36 144.621 20.628 144.621 19.812ZM158.151 24.084C157.375 24.084 156.667 23.904 156.027 23.544C155.387 23.176 154.879 22.668 154.503 22.02C154.135 21.364 153.951 20.628 153.951 19.812C153.951 18.996 154.135 18.264 154.503 17.616C154.879 16.96 155.387 16.452 156.027 16.092C156.667 15.724 157.375 15.54 158.151 15.54C158.935 15.54 159.647 15.724 160.287 16.092C160.927 16.452 161.431 16.956 161.799 17.604C162.167 18.252 162.351 18.988 162.351 19.812C162.351 20.636 162.167 21.372 161.799 22.02C161.431 22.668 160.927 23.176 160.287 23.544C159.647 23.904 158.935 24.084 158.151 24.084ZM158.151 23.136C158.735 23.136 159.259 23 159.723 22.728C160.195 22.456 160.563 22.068 160.827 21.564C161.099 21.06 161.235 20.476 161.235 19.812C161.235 19.14 161.099 18.556 160.827 18.06C160.563 17.556 160.199 17.168 159.735 16.896C159.271 16.624 158.743 16.488 158.151 16.488C157.559 16.488 157.031 16.624 156.567 16.896C156.103 17.168 155.735 17.556 155.463 18.06C155.199 18.556 155.067 19.14 155.067 19.812C155.067 20.476 155.199 21.06 155.463 21.564C155.735 22.068 156.103 22.456 156.567 22.728C157.039 23 157.567 23.136 158.151 23.136ZM165.304 15.636V24H164.212V15.636H165.304ZM174.161 24H173.069L168.677 17.34V24H167.585V15.624H168.677L173.069 22.272V15.624H174.161V24Z" fill="#0E0333"/>
<path fill-rule="evenodd" clip-rule="evenodd" d="M36.415 36.078C37.1065 36.6297 37.6985 37.1048 38.0633 37.403C38.1893 37.5062 38.2906 37.6357 38.36 37.7821C38.4294 37.9286 38.4651 38.0885 38.4645 38.2503L38.4533 43.2316C38.4207 43.4233 38.3204 43.5974 38.1703 43.7229C38.0203 43.8485 37.8301 43.9174 37.6335 43.9175H26.854C18.7791 43.9175 12.05 37.3839 12.1137 29.3992C12.1552 24.2605 14.9187 19.7638 19.0489 17.248V12.3717C19.0489 12.1839 19.0879 11.9981 19.1635 11.8258C19.2391 11.6535 19.3496 11.4984 19.4883 11.37C19.627 11.2417 19.7908 11.1429 19.9697 11.0798C20.1486 11.0167 20.3386 10.9905 20.5281 11.003C21.2653 11.0503 21.8227 11.6881 21.8227 12.4185V15.9369C22.9428 15.5451 24.1073 15.2911 25.2901 15.1806V12.3717C25.2901 12.1839 25.3291 11.998 25.4047 11.8258C25.4803 11.6535 25.5909 11.4983 25.7296 11.37C25.8683 11.2417 26.0322 11.1429 26.211 11.0798C26.3899 11.0167 26.58 10.9906 26.7695 11.003C27.5067 11.0503 28.0641 11.6881 28.0641 12.4185V15.1793C31.5742 15.5075 34.7223 17.0671 37.0591 19.4172C37.4967 19.8571 37.9055 20.3242 38.2829 20.8157C38.5727 21.193 38.5075 21.4841 38.1087 21.7469L36.4935 23.0437C37.7788 24.9629 38.4648 27.214 38.4656 29.5164C38.4704 31.8595 37.7547 34.1477 36.415 36.078ZM34.2823 34.3825C35.2267 32.932 35.7294 31.2428 35.7294 29.5164C35.7294 27.7507 35.1886 26.0743 34.2959 24.6878L30.9318 27.2041C31.319 27.9011 31.525 28.6823 31.5313 29.4775C31.5376 30.2728 31.344 31.0571 30.9679 31.76L31.0758 31.8453C31.5479 32.2181 32.8787 33.2694 34.2823 34.3825ZM35.6918 41.1743L35.7065 39.1608L28.8645 33.8007C28.1864 34.1404 27.4367 34.3172 26.6765 34.3166C23.9955 34.3166 21.8221 32.1675 21.8221 29.5162C21.8221 26.8648 23.9955 24.7157 26.6765 24.7157C27.425 24.7149 28.1635 24.886 28.8337 25.2157L34.496 20.8111C32.391 18.8752 29.778 17.8578 26.6765 17.8578C25.0022 17.8566 23.3471 18.2094 21.8221 18.8926V23.3441C21.8221 23.5319 21.783 23.7177 21.7075 23.89C21.6319 24.0623 21.5213 24.2174 21.3826 24.3457C21.244 24.474 21.0801 24.5728 20.9013 24.6359C20.7224 24.6991 20.5324 24.7252 20.3429 24.7128C19.6057 24.6655 19.0483 24.0277 19.0483 23.2971V20.6308C16.5175 22.7574 14.9049 25.9203 14.8875 29.4576C14.8554 35.9014 20.3055 41.1743 26.8222 41.1743H35.6918ZM28.4064 30.6592C28.635 30.3209 28.7571 29.9231 28.7571 29.5162C28.7571 28.9705 28.5378 28.4472 28.1477 28.0613C27.7575 27.6755 27.2283 27.4587 26.6765 27.4587C26.2649 27.4587 25.8627 27.5794 25.5205 27.8054C25.1784 28.0315 24.9117 28.3529 24.7542 28.7288C24.5968 29.1048 24.5555 29.5185 24.6358 29.9176C24.7161 30.3167 24.9143 30.6833 25.2052 30.971C25.4962 31.2588 25.867 31.4547 26.2705 31.5341C26.6741 31.6135 27.0925 31.5728 27.4727 31.417C27.8528 31.2613 28.1778 30.9976 28.4064 30.6592Z" fill="#0E0333"/>
    </symbol>
</svg>