<svg width="32" height="32" viewBox="0 0 32 32" fill="none" xmlns="http://www.w3.org/2000/svg">
<path d="M17.3082 20.2491C19.655 19.5254 20.9707 17.0365 20.2469 14.69C19.5232 12.3434 17.034 11.0278 14.6873 11.7515C12.3405 12.4752 11.0248 14.9641 11.7486 17.3107C12.4723 19.6572 14.9615 20.9728 17.3082 20.2491Z" fill="currentColor"/>
<path d="M18.9993 31.9986H20.9993V28.0698L23.7777 30.848L25.192 29.4338L16.7571 20.9996H19.5857L26.6063 28.0196L28.0206 26.6054L22.4136 20.9989H25.2423L29.435 25.1912L30.8493 23.777L28.0709 20.9989H32V18.9991H20.0709L22.0709 16.9992H32V14.9994H24.0709L26.0709 12.9996H32V10.9997H28.0709L30.8493 8.22159L29.435 6.8074L21 15.2416V12.4132L28.0206 5.3932L26.6063 3.97901L21 9.58486V6.75647L25.192 2.56482L23.7777 1.15062L21 3.92808V0H19V11.9288L17 9.92895V0H15V7.92912L13 5.92929V0.000688844H11V3.92946L8.22161 1.15131L6.8073 2.56551L15.2423 10.9997H12.4136L5.39298 3.9797L3.97866 5.39389L9.58569 11.0004H6.75705L2.56435 6.80808L1.15003 8.22228L3.92842 11.0004H0V13.0003H11.9291L9.92911 15.0001H0V16.9999H7.92911L5.92911 18.9997H0V20.9996H3.92842L1.15003 23.7777L2.56435 25.1919L10.9993 16.7577V19.5861L3.97798 26.6068L5.39229 28.021L10.9993 22.4144V25.2428L6.80661 29.4352L8.22092 30.8494L10.9993 28.0712V32H12.9993V20.0719L14.9993 22.0717V32H16.9993V24.0716L18.9993 26.0714V32V31.9986ZM12.9993 17.2497L11.7529 16.0034L12.9938 14.7627V13.0003H14.7495L15.9959 11.754L17.2368 12.9948H19V14.7496L20.2464 15.9959L19.0048 17.2373V18.9997H17.2498L16.0034 20.246L14.7626 19.0052H13V17.2497H12.9993Z" fill="black"/>
</svg>
