<svg width="22" height="18" viewBox="0 0 22 18" fill="none" xmlns="http://www.w3.org/2000/svg">
<path fill-rule="evenodd" clip-rule="evenodd" d="M1.49314 7.74888C7.32354 5.20867 11.2114 3.534 13.1567 2.72489C18.7109 0.414697 19.865 0.0133926 20.6173 0.000141289C20.7827 -0.00277319 21.1526 0.0382296 21.3923 0.232668C21.5946 0.396848 21.6503 0.618632 21.6769 0.774293C21.7035 0.929954 21.7367 1.28455 21.7103 1.56163C21.4094 4.7241 20.107 12.3986 19.4444 15.9406C19.1641 17.4394 18.6121 17.9419 18.0776 17.9911C16.9162 18.098 16.0342 17.2235 14.9093 16.4861C13.1491 15.3323 12.1546 14.614 10.446 13.488C8.47138 12.1868 9.75145 11.4716 10.8768 10.3027C11.1713 9.99686 16.2886 5.34226 16.3876 4.92001C16.4 4.86721 16.4115 4.67036 16.2946 4.56642C16.1776 4.46247 16.0051 4.49802 15.8805 4.52629C15.704 4.56636 12.8919 6.42501 7.44438 10.1022C6.64619 10.6503 5.92322 10.9174 5.27546 10.9034C4.56136 10.888 3.18771 10.4996 2.16654 10.1677C0.914043 9.76056 -0.0814207 9.5453 0.00526187 8.85385C0.0504115 8.4937 0.54637 8.12538 1.49314 7.74888Z" fill="currentColor"/>
</svg>
