<svg id="Layer_1" data-name="Layer 1" xmlns="http://www.w3.org/2000/svg" xmlns:xlink="http://www.w3.org/1999/xlink" viewBox="0 0 1000 886.25"><defs><style>.cls-1{fill:#11bc92;}.cls-2{fill:#5bf1cd;}.cls-3{fill:#c5cafa;}.cls-4{fill:url(#linear-gradient);}.cls-5{fill:#fcd2c5;}.cls-6{fill:#81a8f8;}.cls-7{fill:#c9b8ff;}.cls-24,.cls-8{fill:#a5fcf6;}.cls-9{fill:url(#linear-gradient-2);}.cls-10{fill:url(#linear-gradient-3);}.cls-11{fill:#f2c9c0;}.cls-12{fill:#efc5bb;}.cls-13{fill:#5932c4;}.cls-14{fill:#8c65f7;}.cls-15{fill:#6f3ff5;}.cls-16{fill:#ceaaa5;}.cls-17{fill:#e2bbb3;}.cls-18{fill:#1d1db4;}.cls-19{fill:#98cdf9;}.cls-20{fill:#1f0bac;}.cls-21{fill:#b096f2;}.cls-22{fill:#beb1f2;}.cls-23{fill:#eda8a8;}.cls-24{stroke:#cc52a8;stroke-miterlimit:10;}</style><linearGradient id="linear-gradient" x1="478.5" y1="510.7" x2="478.5" y2="10" gradientTransform="matrix(1, 0, 0, -1, 0, 888)" gradientUnits="userSpaceOnUse"><stop offset="0.21" stop-color="#d44d6e"/><stop offset="0.45" stop-color="#d24c6d"/><stop offset="0.57" stop-color="#ca4a69"/><stop offset="0.66" stop-color="#be4562"/><stop offset="0.73" stop-color="#ab3e59"/><stop offset="0.79" stop-color="#94364d"/><stop offset="0.85" stop-color="#772b3e"/><stop offset="0.91" stop-color="#541e2c"/><stop offset="0.95" stop-color="#2d1017"/><stop offset="1"/></linearGradient><linearGradient id="linear-gradient-2" x1="301" y1="960.55" x2="520" y2="960.55" gradientTransform="translate(0 -314.75)" gradientUnits="userSpaceOnUse"><stop offset="0" stop-color="#a5fcf6" stop-opacity="0.6"/><stop offset="0" stop-color="#94e2dd" stop-opacity="0.6"/><stop offset="0" stop-color="#74adad" stop-opacity="0.6"/><stop offset="0" stop-color="#578082" stop-opacity="0.6"/><stop offset="0" stop-color="#405b60" stop-opacity="0.6"/><stop offset="0" stop-color="#2e3f46" stop-opacity="0.6"/><stop offset="0" stop-color="#222b33" stop-opacity="0.6"/><stop offset="0" stop-color="#1b2029" stop-opacity="0.6"/><stop offset="0" stop-color="#191d26" stop-opacity="0.6"/><stop offset="1" stop-color="#5e61cc" stop-opacity="0"/></linearGradient><linearGradient id="linear-gradient-3" x1="741" y1="1046.55" x2="841" y2="1046.55" gradientTransform="translate(0 -314.75)" gradientUnits="userSpaceOnUse"><stop offset="0" stop-color="#a5fcf6" stop-opacity="0.6"/><stop offset="0" stop-color="#92deda" stop-opacity="0.59"/><stop offset="0" stop-color="#72aaaa" stop-opacity="0.56"/><stop offset="0" stop-color="#567e80" stop-opacity="0.54"/><stop offset="0" stop-color="#3f5a5f" stop-opacity="0.53"/><stop offset="0" stop-color="#2e3e45" stop-opacity="0.51"/><stop offset="0" stop-color="#222b33" stop-opacity="0.51"/><stop offset="0" stop-color="#1b2029" stop-opacity="0.5"/><stop offset="0" stop-color="#191d26" stop-opacity="0.5"/><stop offset="1" stop-color="#5e61cc" stop-opacity="0"/></linearGradient></defs><title>austin</title><g id="Layer_4" data-name="Layer 4"><path class="cls-1" d="M0,668.3a1306.06,1306.06,0,0,1,116-154c59.3-67.6,88.9-101.5,121-120,0,0,82.1-47.4,443,35h0l61,12a399.19,399.19,0,0,1,66.6,55c53.6,55,80,114.3,93.4,153l99,227L0,878.3Z" transform="translate(0 -0.05)"/><path class="cls-2" d="M623,554.3s53,45,118,4,112,33,112,33Z" transform="translate(0 -0.05)"/><path class="cls-2" d="M565,479.3s53,45,118,4,112,33,112,33Z" transform="translate(0 -0.05)"/><path class="cls-3" d="M230,429.3s53,45,118,4,112,33,112,33Z" transform="translate(0 -0.05)"/><path class="cls-3" d="M163,497.3s53,45,118,4,112,33,112,33Z" transform="translate(0 -0.05)"/><path class="cls-2" d="M98,561.3s53,45,118,4,112,33,112,33Z" transform="translate(0 -0.05)"/><path class="cls-2" d="M48,634.3s53,45,118,4,112,33,112,33Z" transform="translate(0 -0.05)"/><path class="cls-2" d="M0,778.3s53,45,118,4,112,33,112,33Z" transform="translate(0 -0.05)"/><path class="cls-2" d="M9,702.3s53,45,118,4,112,33,112,33Z" transform="translate(0 -0.05)"/><path class="cls-2" d="M665,641.3s53,45,118,4,112,33,112,33Z" transform="translate(0 -0.05)"/><path class="cls-2" d="M702,730.3s53,45,118,4,112,33,112,33Z" transform="translate(0 -0.05)"/><path class="cls-2" d="M738,818.3s53,45,118,4,112,33,112,33Z" transform="translate(0 -0.05)"/><path class="cls-4" d="M680,451.3l-60-54c-1.2,10.9-4.9,29.5-18,47-26.5,35.3-70.4,38.1-85,39-55.2,3.5-118.4-26.3-123-60-1.6-11.4,3.3-25.2-6-36-6.3-7.3-15.8-9.3-22-10l-72,49-39,141v309L670.5,878,702,782.3,669.5,567.8Z" transform="translate(0 -0.05)"/><path class="cls-5" d="M421,376.3c-1.2.1-23.1,2.3-33,22-8.8,17.4-.9,34.1,0,36-3.3,7-8.1,20-3.6,33,3.9,11.2,13.2,25.7,43.4,31,32,5.7,140.8,7.9,140.8,7.9l20.5-40.7,9-36.3Z" transform="translate(0 -0.05)"/><polygon class="cls-6" points="301.5 538.75 313.5 530.75 325.5 538.75 313.5 546.75 301.5 538.75"/><path class="cls-6" d="M299.5,541.8l14,9,15-10-15,37Z" transform="translate(0 -0.05)"/><path class="cls-6" d="M299.5,536.8l14-9,15,10-15-37Z" transform="translate(0 -0.05)"/><polygon class="cls-6" points="343.5 560.75 355.5 552.75 367.5 560.75 355.5 568.75 343.5 560.75"/><path class="cls-6" d="M341.5,563.8l14,9,15-10-15,37Z" transform="translate(0 -0.05)"/><path class="cls-6" d="M341.5,558.8l14-9,15,10-15-37Z" transform="translate(0 -0.05)"/><polygon class="cls-6" points="318.5 609.75 330.5 601.75 342.5 609.75 330.5 617.75 318.5 609.75"/><path class="cls-6" d="M316.5,612.8l14,9,15-10-15,37Z" transform="translate(0 -0.05)"/><path class="cls-6" d="M316.5,607.8l14-9,15,10-15-37Z" transform="translate(0 -0.05)"/><polygon class="cls-6" points="343.5 652.75 355.5 644.75 367.5 652.75 355.5 660.75 343.5 652.75"/><path class="cls-6" d="M341.5,655.8l14,9,15-10-15,37Z" transform="translate(0 -0.05)"/><path class="cls-6" d="M341.5,650.8l14-9,15,10-15-37Z" transform="translate(0 -0.05)"/><polygon class="cls-6" points="364.5 607.75 376.5 599.75 388.5 607.75 376.5 615.75 364.5 607.75"/><path class="cls-6" d="M362.5,610.8l14,9,15-10-15,37Z" transform="translate(0 -0.05)"/><path class="cls-6" d="M362.5,605.8l14-9,15,10-15-37Z" transform="translate(0 -0.05)"/><polygon class="cls-6" points="296.5 660.75 308.5 652.75 320.5 660.75 308.5 668.75 296.5 660.75"/><path class="cls-6" d="M294.5,663.8l14,9,15-10-15,37Z" transform="translate(0 -0.05)"/><path class="cls-6" d="M294.5,658.8l14-9,15,10-15-37Z" transform="translate(0 -0.05)"/><polygon class="cls-6" points="278.5 593.75 290.5 585.75 302.5 593.75 290.5 601.75 278.5 593.75"/><path class="cls-6" d="M276.5,596.8l14,9,15-10-15,37Z" transform="translate(0 -0.05)"/><path class="cls-6" d="M276.5,591.8l14-9,15,10-15-37Z" transform="translate(0 -0.05)"/><polygon class="cls-6" points="414.5 507.75 426.5 499.75 438.5 507.75 426.5 515.75 414.5 507.75"/><path class="cls-6" d="M412.5,510.8l14,9,15-10-15,37Z" transform="translate(0 -0.05)"/><path class="cls-6" d="M412.5,505.8l14-9,15,10-15-37Z" transform="translate(0 -0.05)"/><polygon class="cls-6" points="456.5 529.75 468.5 521.75 480.5 529.75 468.5 537.75 456.5 529.75"/><path class="cls-6" d="M454.5,532.8l14,9,15-10-15,37Z" transform="translate(0 -0.05)"/><path class="cls-6" d="M454.5,527.8l14-9,15,10-15-37Z" transform="translate(0 -0.05)"/><polygon class="cls-6" points="431.5 578.75 443.5 570.75 455.5 578.75 443.5 586.75 431.5 578.75"/><path class="cls-6" d="M429.5,581.8l14,9,15-10-15,37Z" transform="translate(0 -0.05)"/><path class="cls-6" d="M429.5,576.8l14-9,15,10-15-37Z" transform="translate(0 -0.05)"/><polygon class="cls-6" points="456.5 621.75 468.5 613.75 480.5 621.75 468.5 629.75 456.5 621.75"/><path class="cls-6" d="M454.5,624.8l14,9,15-10-15,37Z" transform="translate(0 -0.05)"/><path class="cls-6" d="M454.5,619.8l14-9,15,10-15-37Z" transform="translate(0 -0.05)"/><polygon class="cls-6" points="477.5 576.75 489.5 568.75 501.5 576.75 489.5 584.75 477.5 576.75"/><path class="cls-6" d="M475.5,579.8l14,9,15-10-15,37Z" transform="translate(0 -0.05)"/><path class="cls-6" d="M475.5,574.8l14-9,15,10-15-37Z" transform="translate(0 -0.05)"/><polygon class="cls-6" points="409.5 629.75 421.5 621.75 433.5 629.75 421.5 637.75 409.5 629.75"/><path class="cls-6" d="M407.5,632.8l14,9,15-10-15,37Z" transform="translate(0 -0.05)"/><path class="cls-6" d="M407.5,627.8l14-9,15,10-15-37Z" transform="translate(0 -0.05)"/><polygon class="cls-6" points="391.5 562.75 403.5 554.75 415.5 562.75 403.5 570.75 391.5 562.75"/><path class="cls-6" d="M389.5,565.8l14,9,15-10-15,37Z" transform="translate(0 -0.05)"/><path class="cls-6" d="M389.5,560.8l14-9,15,10-15-37Z" transform="translate(0 -0.05)"/><polygon class="cls-6" points="545.5 530.75 557.5 522.75 569.5 530.75 557.5 538.75 545.5 530.75"/><path class="cls-6" d="M543.5,533.8l14,9,15-10-15,37Z" transform="translate(0 -0.05)"/><path class="cls-6" d="M543.5,528.8l14-9,15,10-15-37Z" transform="translate(0 -0.05)"/><polygon class="cls-6" points="587.5 552.75 599.5 544.75 611.5 552.75 599.5 560.75 587.5 552.75"/><path class="cls-6" d="M585.5,555.8l14,9,15-10-15,37Z" transform="translate(0 -0.05)"/><path class="cls-6" d="M585.5,550.8l14-9,15,10-15-37Z" transform="translate(0 -0.05)"/><polygon class="cls-6" points="562.5 601.75 574.5 593.75 586.5 601.75 574.5 609.75 562.5 601.75"/><path class="cls-6" d="M560.5,604.8l14,9,15-10-15,37Z" transform="translate(0 -0.05)"/><path class="cls-6" d="M560.5,599.8l14-9,15,10-15-37Z" transform="translate(0 -0.05)"/><polygon class="cls-6" points="587.5 644.75 599.5 636.75 611.5 644.75 599.5 652.75 587.5 644.75"/><path class="cls-6" d="M585.5,647.8l14,9,15-10-15,37Z" transform="translate(0 -0.05)"/><path class="cls-6" d="M585.5,642.8l14-9,15,10-15-37Z" transform="translate(0 -0.05)"/><polygon class="cls-6" points="608.5 599.75 620.5 591.75 632.5 599.75 620.5 607.75 608.5 599.75"/><path class="cls-6" d="M606.5,602.8l14,9,15-10-15,37Z" transform="translate(0 -0.05)"/><path class="cls-6" d="M606.5,597.8l14-9,15,10-15-37Z" transform="translate(0 -0.05)"/><polygon class="cls-6" points="540.5 652.75 552.5 644.75 564.5 652.75 552.5 660.75 540.5 652.75"/><path class="cls-6" d="M538.5,655.8l14,9,15-10-15,37Z" transform="translate(0 -0.05)"/><path class="cls-6" d="M538.5,650.8l14-9,15,10-15-37Z" transform="translate(0 -0.05)"/><polygon class="cls-6" points="522.5 585.75 534.5 577.75 546.5 585.75 534.5 593.75 522.5 585.75"/><path class="cls-6" d="M520.5,588.8l14,9,15-10-15,37Z" transform="translate(0 -0.05)"/><path class="cls-6" d="M520.5,583.8l14-9,15,10-15-37Z" transform="translate(0 -0.05)"/><polygon class="cls-6" points="499.5 638.75 511.5 630.75 523.5 638.75 511.5 646.75 499.5 638.75"/><path class="cls-6" d="M497.5,641.8l14,9,15-10-15,37Z" transform="translate(0 -0.05)"/><path class="cls-6" d="M497.5,636.8l14-9,15,10-15-37Z" transform="translate(0 -0.05)"/><polygon class="cls-6" points="630.5 490.75 642.5 482.75 654.5 490.75 642.5 498.75 630.5 490.75"/><path class="cls-6" d="M628.5,493.8l14,9,15-10-15,37Z" transform="translate(0 -0.05)"/><path class="cls-6" d="M628.5,488.8l14-9,15,10-15-37Z" transform="translate(0 -0.05)"/><polygon class="cls-6" points="637.5 669.75 649.5 661.75 661.5 669.75 649.5 677.75 637.5 669.75"/><path class="cls-6" d="M635.5,672.8l14,9,15-10-15,37Z" transform="translate(0 -0.05)"/><path class="cls-6" d="M635.5,667.8l14-9,15,10-15-37Z" transform="translate(0 -0.05)"/><polygon class="cls-6" points="516.5 709.75 528.5 701.75 540.5 709.75 528.5 717.75 516.5 709.75"/><path class="cls-6" d="M514.5,712.8l14,9,15-10-15,37Z" transform="translate(0 -0.05)"/><path class="cls-6" d="M514.5,707.8l14-9,15,10-15-37Z" transform="translate(0 -0.05)"/><polygon class="cls-6" points="541.5 752.75 553.5 744.75 565.5 752.75 553.5 760.75 541.5 752.75"/><path class="cls-6" d="M539.5,755.8l14,9,15-10-15,37Z" transform="translate(0 -0.05)"/><path class="cls-6" d="M539.5,750.8l14-9,15,10-15-37Z" transform="translate(0 -0.05)"/><polygon class="cls-6" points="567.5 789.75 579.5 781.75 591.5 789.75 579.5 797.75 567.5 789.75"/><path class="cls-6" d="M565.5,792.8l14,9,15-10-15,37Z" transform="translate(0 -0.05)"/><path class="cls-6" d="M565.5,787.8l14-9,15,10-15-37Z" transform="translate(0 -0.05)"/><polygon class="cls-6" points="610.5 830.75 622.5 822.75 634.5 830.75 622.5 838.75 610.5 830.75"/><path class="cls-6" d="M608.5,833.8l14,9,15-10-15,37Z" transform="translate(0 -0.05)"/><path class="cls-6" d="M608.5,828.8l14-9,15,10-15-37Z" transform="translate(0 -0.05)"/><polygon class="cls-6" points="562.5 707.75 574.5 699.75 586.5 707.75 574.5 715.75 562.5 707.75"/><path class="cls-6" d="M560.5,710.8l14,9,15-10-15,37Z" transform="translate(0 -0.05)"/><path class="cls-6" d="M560.5,705.8l14-9,15,10-15-37Z" transform="translate(0 -0.05)"/><polygon class="cls-6" points="598.5 732.75 610.5 724.75 622.5 732.75 610.5 740.75 598.5 732.75"/><path class="cls-6" d="M596.5,735.8l14,9,15-10-15,37Z" transform="translate(0 -0.05)"/><path class="cls-6" d="M596.5,730.8l14-9,15,10-15-37Z" transform="translate(0 -0.05)"/><polygon class="cls-6" points="630.5 758.75 642.5 750.75 654.5 758.75 642.5 766.75 630.5 758.75"/><path class="cls-6" d="M628.5,761.8l14,9,15-10-15,37Z" transform="translate(0 -0.05)"/><path class="cls-6" d="M628.5,756.8l14-9,15,10-15-37Z" transform="translate(0 -0.05)"/><polygon class="cls-6" points="494.5 760.75 506.5 752.75 518.5 760.75 506.5 768.75 494.5 760.75"/><path class="cls-6" d="M492.5,763.8l14,9,15-10-15,37Z" transform="translate(0 -0.05)"/><path class="cls-6" d="M492.5,758.8l14-9,15,10-15-37Z" transform="translate(0 -0.05)"/><polygon class="cls-6" points="476.5 693.75 488.5 685.75 500.5 693.75 488.5 701.75 476.5 693.75"/><path class="cls-6" d="M474.5,696.8l14,9,15-10-15,37Z" transform="translate(0 -0.05)"/><path class="cls-6" d="M474.5,691.8l14-9,15,10-15-37Z" transform="translate(0 -0.05)"/><polygon class="cls-6" points="382.5 673.75 394.5 665.75 406.5 673.75 394.5 681.75 382.5 673.75"/><path class="cls-6" d="M380.5,676.8l14,9,15-10-15,37Z" transform="translate(0 -0.05)"/><path class="cls-6" d="M380.5,671.8l14-9,15,10-15-37Z" transform="translate(0 -0.05)"/><polygon class="cls-6" points="424.5 695.75 436.5 687.75 448.5 695.75 436.5 703.75 424.5 695.75"/><path class="cls-6" d="M422.5,698.8l14,9,15-10-15,37Z" transform="translate(0 -0.05)"/><path class="cls-6" d="M422.5,693.8l14-9,15,10-15-37Z" transform="translate(0 -0.05)"/><polygon class="cls-6" points="399.5 744.75 411.5 736.75 423.5 744.75 411.5 752.75 399.5 744.75"/><path class="cls-6" d="M397.5,747.8l14,9,15-10-15,37Z" transform="translate(0 -0.05)"/><path class="cls-6" d="M397.5,742.8l14-9,15,10-15-37Z" transform="translate(0 -0.05)"/><polygon class="cls-6" points="424.5 787.75 436.5 779.75 448.5 787.75 436.5 795.75 424.5 787.75"/><path class="cls-6" d="M422.5,790.8l14,9,15-10-15,37Z" transform="translate(0 -0.05)"/><path class="cls-6" d="M422.5,785.8l14-9,15,10-15-37Z" transform="translate(0 -0.05)"/><polygon class="cls-6" points="457.5 830.75 469.5 822.75 481.5 830.75 469.5 838.75 457.5 830.75"/><path class="cls-6" d="M455.5,833.8l14,9,15-10-15,37Z" transform="translate(0 -0.05)"/><path class="cls-6" d="M455.5,828.8l14-9,15,10-15-37Z" transform="translate(0 -0.05)"/><polygon class="cls-6" points="516.5 826.75 528.5 818.75 540.5 826.75 528.5 834.75 516.5 826.75"/><path class="cls-6" d="M514.5,829.8l14,9,15-10-15,37Z" transform="translate(0 -0.05)"/><path class="cls-6" d="M514.5,824.8l14-9,15,10-15-37Z" transform="translate(0 -0.05)"/><polygon class="cls-6" points="445.5 742.75 457.5 734.75 469.5 742.75 457.5 750.75 445.5 742.75"/><path class="cls-6" d="M443.5,745.8l14,9,15-10-15,37Z" transform="translate(0 -0.05)"/><path class="cls-6" d="M443.5,740.8l14-9,15,10-15-37Z" transform="translate(0 -0.05)"/><polygon class="cls-6" points="377.5 795.75 389.5 787.75 401.5 795.75 389.5 803.75 377.5 795.75"/><path class="cls-6" d="M375.5,798.8l14,9,15-10-15,37Z" transform="translate(0 -0.05)"/><path class="cls-6" d="M375.5,793.8l14-9,15,10-15-37Z" transform="translate(0 -0.05)"/><polygon class="cls-6" points="386.5 834.75 398.5 826.75 410.5 834.75 398.5 842.75 386.5 834.75"/><path class="cls-6" d="M384.5,837.8l14,9,15-10-15,37Z" transform="translate(0 -0.05)"/><path class="cls-6" d="M384.5,832.8l14-9,15,10-15-37Z" transform="translate(0 -0.05)"/><polygon class="cls-6" points="359.5 728.75 371.5 720.75 383.5 728.75 371.5 736.75 359.5 728.75"/><path class="cls-6" d="M357.5,731.8l14,9,15-10-15,37Z" transform="translate(0 -0.05)"/><path class="cls-6" d="M357.5,726.8l14-9,15,10-15-37Z" transform="translate(0 -0.05)"/><polygon class="cls-6" points="310.5 461.75 322.5 453.75 334.5 461.75 322.5 469.75 310.5 461.75"/><path class="cls-6" d="M308.5,464.8l14,9,15-10-15,37Z" transform="translate(0 -0.05)"/><path class="cls-6" d="M308.5,459.8l14-9,15,10-15-37Z" transform="translate(0 -0.05)"/><polygon class="cls-6" points="264.5 653.75 276.5 645.75 288.5 653.75 276.5 661.75 264.5 653.75"/><path class="cls-6" d="M262.5,656.8l14,9,15-10-15,37Z" transform="translate(0 -0.05)"/><path class="cls-6" d="M262.5,651.8l14-9,15,10-15-37Z" transform="translate(0 -0.05)"/><polygon class="cls-6" points="312.5 740.75 324.5 732.75 336.5 740.75 324.5 748.75 312.5 740.75"/><path class="cls-6" d="M310.5,743.8l14,9,15-10-15,37Z" transform="translate(0 -0.05)"/><path class="cls-6" d="M310.5,738.8l14-9,15,10-15-37Z" transform="translate(0 -0.05)"/><polygon class="cls-6" points="337.5 783.75 349.5 775.75 361.5 783.75 349.5 791.75 337.5 783.75"/><path class="cls-6" d="M335.5,786.8l14,9,15-10-15,37Z" transform="translate(0 -0.05)"/><path class="cls-6" d="M335.5,781.8l14-9,15,10-15-37Z" transform="translate(0 -0.05)"/><polygon class="cls-6" points="357.5 481.75 369.5 473.75 381.5 481.75 369.5 489.75 357.5 481.75"/><path class="cls-6" d="M355.5,484.8l14,9,15-10-15,37Z" transform="translate(0 -0.05)"/><path class="cls-6" d="M355.5,479.8l14-9,15,10-15-37Z" transform="translate(0 -0.05)"/><polygon class="cls-6" points="290.5 791.75 302.5 783.75 314.5 791.75 302.5 799.75 290.5 791.75"/><path class="cls-6" d="M288.5,794.8l14,9,15-10-15,37Z" transform="translate(0 -0.05)"/><path class="cls-6" d="M288.5,789.8l14-9,15,10-15-37Z" transform="translate(0 -0.05)"/><polygon class="cls-6" points="272.5 724.75 284.5 716.75 296.5 724.75 284.5 732.75 272.5 724.75"/><path class="cls-6" d="M270.5,727.8l14,9,15-10-15,37Z" transform="translate(0 -0.05)"/><path class="cls-6" d="M270.5,722.8l14-9,15,10-15-37Z" transform="translate(0 -0.05)"/><path class="cls-7" d="M657,876.3s27-102,5-196-12-166-12-166-10-80-39-102,0-35,0-35,18,23,46,30,45,8,47,22,2-19,37,7c0,0-6,33,0,51,0,0-11,31-10,65,0,0-15,49,1,96,0,0-3,33-18,87,0,0,8,53,18,87,0,0,5,45-5,54S657,876.3,657,876.3Z" transform="translate(0 -0.05)"/><path class="cls-8" d="M692,426.3s10,23,7,48-12,121-12,121,15,183,13,187-8,79-8,79l15-78-15-189s16-107,15-115,0-45,10-43C717,436.3,699,438.3,692,426.3Z" transform="translate(0 -0.05)"/><path class="cls-7" d="M610,879.3s27-102,5-196-12-166-12-166-10-80-39-102,0-35,0-35,18,23,46,30,45,8,47,22,2-19,37,7c0,0-6,33,0,51,0,0-11,31-10,65,0,0-15,49,1,96,0,0-3,33-18,87,0,0,8,53,18,87,0,0,5,45-5,54S610,879.3,610,879.3Z" transform="translate(0 -0.05)"/><path class="cls-8" d="M645,429.3s10,23,7,48-12,121-12,121,15,183,13,187-8,79-8,79l15-78-15-189s16-107,15-115,0-45,10-43C670,439.3,652,441.3,645,429.3Z" transform="translate(0 -0.05)"/><path class="cls-7" d="M439.5,369.8s-80-26-127,7c0,0-44-48-106,19,0,0-56,61-48,118s6,116,19,153,36,210,36,210h45l18-182s-1-189,33-243c0,0,7-44,24-51s65-24,65-24h41Z" transform="translate(0 -0.05)"/><path class="cls-8" d="M304.5,392.8s-123,53-119,175C185.5,567.8,167.5,388.8,304.5,392.8Z" transform="translate(0 -0.05)"/><path class="cls-8" d="M204.5,532.8s24,100,16,217l9,81,9-187S229.5,442.8,204.5,532.8Z" transform="translate(0 -0.05)"/><path class="cls-7" d="M486,370.3s-80-26-127,7c0,0-44-48-106,19,0,0-56,61-48,118s6,116,19,153,36,210,36,210h45l18-182s-1-189,33-243c0,0,7-44,24-51s65-24,65-24h41Z" transform="translate(0 -0.05)"/><path class="cls-8" d="M351,393.3s-123,53-119,175C232,568.3,214,389.3,351,393.3Z" transform="translate(0 -0.05)"/><path class="cls-8" d="M259,528.3s24,100,16,217l9,81,9-187S284,438.3,259,528.3Z" transform="translate(0 -0.05)"/><path class="cls-6" d="M476.5,479.8s-138-59.6-57-109.8l-18,2s-74,49.8,70,112.8Z" transform="translate(0 -0.05)"/><path class="cls-6" d="M489.5,479.8s103,7,87-64h9s22,72-98,72Z" transform="translate(0 -0.05)"/><path class="cls-6" d="M461.5,544.8l8-64s-69-26-87-67v-18s-12,49-4,72C378.5,467.8,413.5,537.8,461.5,544.8Z" transform="translate(0 -0.05)"/><path class="cls-6" d="M486.5,492.8l-4,60s75,11,102-65c0,0,14-49,1-72C585.5,415.8,615.5,487.8,486.5,492.8Z" transform="translate(0 -0.05)"/><path class="cls-9" d="M378,405.3s-52,156-51.5,165.5-6,186-6,186L301,885.3l219,1-87-79,64.5-15.5L417,676.3l91,9-91-86,80,10-116-132Z" transform="translate(0 -0.05)"/><path class="cls-10" d="M741,585.3s56.3,245,23.2,293H841S770,637.3,741,585.3Z" transform="translate(0 -0.05)"/></g><g id="face"><polygon class="cls-5" points="398 176.25 395 200.25 391 211.25 394 235.25 394 255.25 394 276.25 394 312.25 398 329.25 404 351.25 416 369.25 423 386.25 433 400.25 443 410.25 459 428.25 491 437.25 530 442.25 558 439.25 583 430.25 607 413.25 614 401.25 627 384.25 635 365.25 643 347.25 649 324.25 652 298.25 655 269.25 657.5 246.75 660.5 219.75 657.5 199.75 654.5 160.75 658.5 136.75 650.5 117.75 632.5 77.75 616.5 63.75 573.5 51.75 538.5 46.75 502.5 46.75 463.5 63.75 411.5 112.75 398 176.25"/><path class="cls-5" d="M399,228.3s-4-22-20-21c0,0-13,0-13,20l1.5,17.5,3,12v27l6,11s5,10,10,8a57.59,57.59,0,0,1,10-3v-49Z" transform="translate(0 -0.05)"/><path class="cls-11" d="M391.1,220.5s-13.4-13.7-17.9,2.5c0,0-1.6,15-.6,17s4.4,16.9,4.4,16.9,3,1.9,2.9-5.1.4-23,6.4-23.2S391.1,220.5,391.1,220.5Z" transform="translate(0 -0.05)"/><path class="cls-11" d="M386.5,272.8s7-13,9-2c0,0,1-23-6-14a25,25,0,0,0-5,19S386.5,276.8,386.5,272.8Z" transform="translate(0 -0.05)"/><path class="cls-5" d="M662.5,232.8s18-9,25-3,4,19,4,19l-3,29s-4,22-6,26-9,15-9,15l-14,14s-10.4,5-12.7,0,4.7-58,4.7-58Z" transform="translate(0 -0.05)"/><path class="cls-11" d="M658.5,259.8s17-23,24-19,3,19,3,19l-6,20-4,19s-5,2-6,7-5,14-10,15,1-19,3-21,5-21-3-18S654.5,264.8,658.5,259.8Z" transform="translate(0 -0.05)"/><path class="cls-12" d="M664.5,266.8c.9-.4,8-14,7,2s-3,24-3,24,1,3,3-1,5-21,5-21,3-28-6-17S659.5,268.8,664.5,266.8Z" transform="translate(0 -0.05)"/><path class="cls-13" d="M396.5,239.8v-27l3-27,3-18,7-18v-21l4-8,11-11,10-12,13-15,8-3v-3h8l3-4,7-2-3-4h18l-7-5h18l7-3h64l13,4,13,1,10,5,11,7,11,11,10,11,6,14,4,11v13l-3,14,1,10,4,15,4,16,6,18.9v17.5l-3,19.6-5,22,5-13,6-16,3-12,6-2,4-14,2,3v-30l2,1-4-18,4,4-6-21,6,7-6-15h3l-8-13,5,1-11-13,4,1-10-15,6,3-8-8,5-3-13-7s11-9,11-13l-5,3,5-15-5,6s3-17-1-20l-2,9s-6-21-11-24l1,12s-7-17-11-19v7s-23-19-31-20l3,6s-33-20-44-18c0,0,4,2,5,4,0,0-37-12-52-4l7,1s-52,1-57,9l10-2s-26,15-27,20l9-3s-21,16-24,24l6-1s-22,15-22,19l7-1s-15,15-15,17l7-2s-16,18-15,23l4-1-6,9,7,1-3,8-4,17-6,34-2,25,2,10,3,27,4,8Z" transform="translate(0 -0.05)"/><path class="cls-14" d="M643,73.3a161.85,161.85,0,0,0-47-36c-43.7-22.1-85.3-17.7-102-15,0,0,58,0,67,9,0,0-60-9-98,9,37.5-3.6,45.9-3.7,46-3s-8.9,1.7-20,5c-26.4,7.8-45.7,22.6-45,24,.6,1.1,12.9-6.5,37-14,10.4-3.2,27.5-8.4,50-10,11.4-.8,26.4-1.9,44,2,35.6,7.8,58.8,30.6,60,29,1-1.4-18.6-17.3-18-18C617.4,54.7,627.5,61.9,643,73.3Z" transform="translate(0 -0.05)"/><path class="cls-14" d="M646,97.3s24,27,21,62c0,0-1-13-7-18,0,0,5,36,1,47,0,0-2-46-8-46h7S657,116.3,646,97.3Z" transform="translate(0 -0.05)"/><path class="cls-15" d="M394,274.3l-2.5,44.5,3,18,3-2v15l2-2s3,9,2,10,3,0,3,0l4,12,2-3,2,15v-4l7,12v-6l5,20v-6l6,15v-5l9,19v-7l6,13v-5l6,13v-6l8,14v-6l7,13,2-9,6,12s1-7,2-6,10,15,10,15v-10l8,10v-7l8,13,2-8,4,11,3-9,4,9,5-10,5,13,8-12,5,7,4-9,8,8,2-8,5,8,3-8,5,5,4-10,4,5,4-9,3,6,5-11,2,3,4-11,2,5,2-13,2,7,3-13v5l4-11,2,4,4-13,2-2,3-9v4l5-11,4.7-10.2,2.3,1.2L630,377l2.5-.3,3-11v6l5-13,1,4,3-10,2-10,3-13v-19l-2-12-2,12v9l-1,13-5,14-7,17-8,14-8,11-11,9-7,5,2-8-4,4,3-11-4,1,2-13-5,6,2-14-2-13-1-10-1-11,2,2-3-7,6,3-9-8-6.3-3.9-1.7-1.1v3l-7-3,2,3-11-7,1,3-13-10v5l-7-5-5-2,1,4-8-4v6h-6l-1,4-7-5v5l-9-7,2,6-10-6,1,6-9-4,3,6-6-1-1,4-4,1-1,6-3-3-5,8-3-6-2,6h-5l-1,12a69.93,69.93,0,0,1-4,7c-2,3,1,2,1,2l6-7-4,14,6-7-2,9,7-12,5-5,1,3,5-7,1,4,7-8-1,8,8-8-2,6,8-9-4,9,12-11-4,8,14-13,9,4,6-1,9,6-3-7,10,6-2-5,10,6-2-4,11,5-7-6,10,4-4-6,10,4,3-3,2,8-3,9-3,12-4,7-5,13-7,10s-5,6-6,7-9,5-9,5l5-10-1-6h6l-5-6,3-4-6-8-11,2s-8,2-10,1-13,0-13,0a31.54,31.54,0,0,1-3,5c-1,1-2,7-2,7l-1,9,5-11-2,9,6-5s-1,5,0,6,5-3,5-3v6l8-6-8,10-7,3-2-4-10,8-11-3-15-3-10-2-5-13-1-11,1-8h-2l-5,5-6,8,4-1-4,8,4-2-6,11,5-2-10,8-8-4-11-11-10-14-8-17-8.2-15-4.1-16.1L394,308l1.5-27.3Z" transform="translate(0 -0.05)"/><path class="cls-16" d="M482.5,352.8s78-5,88-11,0-2,0-2l-6,2C537.4,346.8,510,350.5,482.5,352.8Z" transform="translate(0 -0.05)"/><path class="cls-17" d="M590.5,314.8s12,5,8,43C598.5,357.8,606.5,315.8,590.5,314.8Z" transform="translate(0 -0.05)"/><path class="cls-17" d="M605.5,321.8s6,14,0,28c0,0,12-9,1-28Z" transform="translate(0 -0.05)"/><path class="cls-16" d="M508.5,294.8c-2-1-13-10-20-5,0,0-3,6,4,5S508.5,294.8,508.5,294.8Z" transform="translate(0 -0.05)"/><path class="cls-16" d="M530.5,299.8s3-9,9-10,10,0,10,2-9,3-9,3S531.5,297.8,530.5,299.8Z" transform="translate(0 -0.05)"/><path class="cls-17" d="M555.5,274.8s12,14-3,24C552.5,298.8,571.5,290.8,555.5,274.8Z" transform="translate(0 -0.05)"/><path class="cls-13" d="M487.5,156.8c0,1-2-7-2-7l-22-4-18-4-10,8-9,7-4,14-2,12,7-8,5-9,7-7,13-2,11,3,11-1,8-1Z" transform="translate(0 -0.05)"/><polygon class="cls-13" points="565.5 165.75 571.5 157.75 580.5 157.75 595.5 155.75 612.5 155.75 624.5 154.75 632.5 165.75 636.5 174.75 636.5 184.75 631.5 184.75 624.5 176.75 617.5 169.75 603.5 169.75 590.5 169.75 576.5 169.75 565.5 167.75 565.5 165.75"/><g id="eyes"><path class="cls-18" d="M562,220.3s7-6,10-10,11-5,11-5l13,2,10,9s4,7,5,8-2.5-9.5-2.5-9.5l-8-7-12.5-4H577.5l-9,7s-10,12-11,12S562,220.3,562,220.3Z" transform="translate(0 -0.05)"/><path class="cls-18" d="M482.5,211.8a44,44,0,0,0-9.6-11c-3.5-2.8-7.8-4.8-12.4-4,0,0-10-1-23,15,0,0-3-3,13-15,0,0,14-7,24,1C474.5,197.8,482.5,205.8,482.5,211.8Z" transform="translate(0 -0.05)"/><path class="cls-17" d="M490.5,222.8s-13,19-25,24c0,0,18-19,19-24S490.5,222.8,490.5,222.8Z" transform="translate(0 -0.05)"/><circle class="cls-19" cx="460" cy="211.25" r="8.5"/><ellipse class="cls-19" cx="588" cy="220.75" rx="8.5" ry="9"/><circle class="cls-20" cx="460.5" cy="210.75" r="3"/><circle class="cls-20" cx="588" cy="220.25" r="2.5"/></g><path class="cls-18" d="M406,210.3l-9.1-1.3-1.9-8.7-4-6,7-4h13l14-2h12s39-1,51,6l13,3,5,2,13,1,16,2h11l27-3s34,0,46,3,17,4,17,4l11,5h10l2.6,2.8-1.6,6.2-6,3-7,8-2,9s-4,22-11,27l-7,7a44.91,44.91,0,0,1-20,9c-12,2-20,0-20,0l-17-3-13-6-9-6-6-10-4-12-3-10,2-12h5v-5l-3-8-11-1H512l-4,6v13l-2,7s-5,15-16,26c0,0-5,11-22,12s-23-2-23-2l-17-4-15-10-9-18-2-16v-10l1-11,3,4v22l4,15,3.8,6.2,9,8.5,9.3,3.1,15.1,2.8,13.4.8,14.1-1.2,11-7.8,7.4-8.4,3.8-7.5,4.2-7.5,2-13-3-13,12-4,25,2,12,5-6,10v13l2.6,17.1,9,15.4,15.8,8.5,15.1,3.5,17-1,12.5-2.5,13.5-10,7.5-10,3.5-13.5V224.4l-3.5-10.1-10.9-4.7-10.8-4-10.3-2.3-16-1h-19l-11.6,3.9-11.4,5.1-16-4-17-2-10,5-7.8-5.4-10.3-6-15-4.6-16.3-3.1-15-.4-12,2.4-14,5.9-3.7,4.3Z" transform="translate(0 -0.05)"/></g><g id="Layer_3" data-name="Layer 3"><path class="cls-5" d="M284,534.3s19,16,41,5,29-22,29-22,17-18,30-21,26,11,26,11l-28,31a95.45,95.45,0,0,1-16,17c-6.4,5.3-11.9,9.1-16.4,17a25,25,0,0,0-2.6,8c-2,12-3,39-10,45s-9.5,18.4-20,10c-10-8-24-20-24-20l-16-60Z" transform="translate(0 -0.05)"/><path class="cls-21" d="M380,474.3s-13-58,16-30l15,11,27,16,18,12,7.1,3.5,6.9,3.5,34-2,25-6,42-23s12-8,2,31c0,0,1,48-16,83,0,0-4,17-15,5s-52.5-35.5-61.5-42.5-24-3-24-3-12,20-50,28c0,0-20,7-23-16Z" transform="translate(0 -0.05)"/><polygon class="cls-8" points="115 649.25 184.7 646.75 194 696.25 223 746.75 250 745.25 238.5 803.75 139 790.25 94 694.25 115 649.25"/><path class="cls-22" d="M141.5,644.8s19,2,63-1l-20,10-53,2s-14,20-5,25l50-7,6.8,35-52.8,9,11,36,51-17,14.1,16.5-41.1,30.5,39,12,17-33,17,4-7,27,13-11,5.5-31s-1.5,92-63.5,85-100-106-100-106S38.5,618.8,141.5,644.8Z" transform="translate(0 -0.05)"/><path class="cls-21" d="M250,745.3s-1,29-28,18-37-45-37-45l-8-44,8-21,19.5-9.5,27,37Z" transform="translate(0 -0.05)"/><path class="cls-5" d="M222.5,635.8s20-24,0-84c0,0-4-34-16-43s-29-34-29-34,2-22,17-14S229,489.3,229,496.3c0,0,15,12,23,30,0,0,7.5,18.5,10.5,24.5,0,0-12-26-16-34s-18-21-19-22-22-29-22-29l-1-25v-18c0-3-7-31-3-36s13-12,22,0,8,39,8,39,7,28,4,41c0,0,4-38,5-38s8-23,10-28,2-45,2-45,3-11,11-12,17,4,17,14,2,36,0,40c0,0,1,30-7,45,0,0,6,31,1,43,0,0,42-14,53-13,0,0,34,14,40,15s22,8,28,6,27,9,7,26c0,0-15,7-42-4,0,0-20-5-29-8,0,0-15,10-33,3,0,0-1,21-9,35,0,0-6,42,5,68,0,0,23.9,25.5,29.5,24.5,0,0-2.5.5-3.5,7.5s-1,30-21,46-31,27-31,27l-26.2,23.9-7.8,7.1s-52-5-44-69c0,0-1-19,12-24S222.5,635.8,222.5,635.8Z" transform="translate(0 -0.05)"/><path class="cls-23" d="M464.5,509.8l5-14s3-11-5-9,0-10,13,0c0,0-5-4,5-4s17,2,15,11-7,33-15,39-7,5-11,3c0,0-2,5-8-1,0,0-6,3-6-5S464.5,509.8,464.5,509.8Z" transform="translate(0 -0.05)"/><path class="cls-23" d="M477.5,492.8s2,15-12,35C465.5,527.8,485.5,513.8,477.5,492.8Z" transform="translate(0 -0.05)"/><path class="cls-23" d="M486.5,492.8s-1,25-14,43C472.5,535.8,488.5,521.8,486.5,492.8Z" transform="translate(0 -0.05)"/><path class="cls-23" d="M472.5,502.8s-24-23-33-20c0,0,3-7,26,8l9,5Z" transform="translate(0 -0.05)"/><path class="cls-23" d="M465.5,509.8s-6,11-36,11c0,0,25,4,34,0Z" transform="translate(0 -0.05)"/><path class="cls-23" d="M494.5,506.7c0-.9,13-2.9,24-13.9,0,0-15,22-29,23Z" transform="translate(0 -0.05)"/><path class="cls-23" d="M482.5,522.5s18,11.2,43,5.2,3,0,3,0-12.8,14-48.9,0Z" transform="translate(0 -0.05)"/><circle class="cls-24" cx="406.5" cy="474.75" r="5"/><circle class="cls-24" cx="430" cy="501.25" r="5.5"/><circle class="cls-24" cx="411.5" cy="538.75" r="5"/><circle class="cls-24" cx="540.5" cy="487.75" r="5"/><ellipse class="cls-24" cx="562.5" cy="500.25" rx="4" ry="4.5"/><circle class="cls-24" cx="524.5" cy="510.75" r="4"/><circle class="cls-24" cx="551" cy="533.25" r="5.5"/><circle class="cls-24" cx="537.5" cy="552.75" r="6"/></g></svg>