<svg id="Layer_1" data-name="Layer 1" xmlns="http://www.w3.org/2000/svg" xmlns:xlink="http://www.w3.org/1999/xlink" viewBox="0 0 843 853.11"><defs><style>.cls-1{fill:#60ddae;}.cls-2{opacity:0.44;}.cls-10,.cls-11,.cls-12,.cls-13,.cls-14,.cls-15,.cls-16,.cls-17,.cls-18,.cls-19,.cls-20,.cls-21,.cls-22,.cls-23,.cls-24,.cls-25,.cls-26,.cls-27,.cls-28,.cls-29,.cls-3,.cls-30,.cls-31,.cls-32,.cls-33,.cls-34,.cls-35,.cls-36,.cls-37,.cls-38,.cls-39,.cls-4,.cls-40,.cls-41,.cls-42,.cls-43,.cls-44,.cls-45,.cls-46,.cls-47,.cls-48,.cls-49,.cls-5,.cls-50,.cls-51,.cls-52,.cls-53,.cls-54,.cls-55,.cls-56,.cls-57,.cls-58,.cls-6,.cls-66,.cls-7,.cls-8,.cls-9{stroke-miterlimit:10;}.cls-3{fill:url(#linear-gradient);stroke:url(#linear-gradient-2);}.cls-4{fill:url(#linear-gradient-3);stroke:url(#linear-gradient-4);}.cls-5{fill:url(#linear-gradient-5);stroke:url(#linear-gradient-6);}.cls-6{fill:url(#linear-gradient-7);stroke:url(#linear-gradient-8);}.cls-7{fill:url(#linear-gradient-9);stroke:url(#linear-gradient-10);}.cls-8{fill:url(#linear-gradient-11);stroke:url(#linear-gradient-12);}.cls-9{fill:url(#linear-gradient-13);stroke:url(#linear-gradient-14);}.cls-10{fill:url(#linear-gradient-15);stroke:url(#linear-gradient-16);}.cls-11{fill:url(#linear-gradient-17);stroke:url(#linear-gradient-18);}.cls-12{fill:url(#linear-gradient-19);stroke:url(#linear-gradient-20);}.cls-13{fill:url(#linear-gradient-21);stroke:url(#linear-gradient-22);}.cls-14{fill:url(#linear-gradient-23);stroke:url(#linear-gradient-24);}.cls-15{fill:url(#linear-gradient-25);stroke:url(#linear-gradient-26);}.cls-16{fill:url(#linear-gradient-27);stroke:url(#linear-gradient-28);}.cls-17{fill:url(#linear-gradient-29);stroke:url(#linear-gradient-30);}.cls-18{fill:url(#linear-gradient-31);stroke:url(#linear-gradient-32);}.cls-19{fill:url(#linear-gradient-33);stroke:url(#linear-gradient-34);}.cls-20{fill:url(#linear-gradient-35);stroke:url(#linear-gradient-36);}.cls-21{fill:url(#linear-gradient-37);stroke:url(#linear-gradient-38);}.cls-22{fill:url(#linear-gradient-39);stroke:url(#linear-gradient-40);}.cls-23{fill:url(#linear-gradient-41);stroke:url(#linear-gradient-42);}.cls-24{fill:url(#linear-gradient-43);stroke:url(#linear-gradient-44);}.cls-25{fill:url(#linear-gradient-45);stroke:url(#linear-gradient-46);}.cls-26{fill:url(#linear-gradient-47);stroke:url(#linear-gradient-48);}.cls-27{fill:url(#linear-gradient-49);stroke:url(#linear-gradient-50);}.cls-28{fill:url(#linear-gradient-51);stroke:url(#linear-gradient-52);}.cls-29{fill:url(#linear-gradient-53);stroke:url(#linear-gradient-54);}.cls-30{fill:url(#linear-gradient-55);stroke:url(#linear-gradient-56);}.cls-31{fill:url(#linear-gradient-57);stroke:url(#linear-gradient-58);}.cls-32{fill:url(#linear-gradient-59);stroke:url(#linear-gradient-60);}.cls-33{fill:url(#linear-gradient-61);stroke:url(#linear-gradient-62);}.cls-34{fill:url(#linear-gradient-63);stroke:url(#linear-gradient-64);}.cls-35{fill:url(#linear-gradient-65);stroke:url(#linear-gradient-66);}.cls-36{fill:url(#linear-gradient-67);stroke:url(#linear-gradient-68);}.cls-37{fill:url(#linear-gradient-69);stroke:url(#linear-gradient-70);}.cls-38{fill:url(#linear-gradient-71);stroke:url(#linear-gradient-72);}.cls-39{fill:url(#linear-gradient-73);stroke:url(#linear-gradient-74);}.cls-40{fill:url(#linear-gradient-75);stroke:url(#linear-gradient-76);}.cls-41{fill:url(#linear-gradient-77);stroke:url(#linear-gradient-78);}.cls-42{fill:url(#linear-gradient-79);stroke:url(#linear-gradient-80);}.cls-43{fill:url(#linear-gradient-81);stroke:url(#linear-gradient-82);}.cls-44{fill:url(#linear-gradient-83);stroke:url(#linear-gradient-84);}.cls-45{fill:url(#linear-gradient-85);stroke:url(#linear-gradient-86);}.cls-46{fill:url(#linear-gradient-87);stroke:url(#linear-gradient-88);}.cls-47{fill:url(#linear-gradient-89);stroke:url(#linear-gradient-90);}.cls-48{fill:url(#linear-gradient-91);stroke:url(#linear-gradient-92);}.cls-49{fill:url(#linear-gradient-93);stroke:url(#linear-gradient-94);}.cls-50{fill:url(#linear-gradient-95);stroke:url(#linear-gradient-96);}.cls-51{fill:url(#linear-gradient-97);stroke:url(#linear-gradient-98);}.cls-52{fill:url(#linear-gradient-99);stroke:url(#linear-gradient-100);}.cls-53{fill:url(#linear-gradient-101);stroke:url(#linear-gradient-102);}.cls-54{fill:url(#linear-gradient-103);stroke:url(#linear-gradient-104);}.cls-55{fill:url(#linear-gradient-105);stroke:url(#linear-gradient-106);}.cls-56{fill:url(#linear-gradient-107);stroke:url(#linear-gradient-108);}.cls-57{fill:url(#linear-gradient-109);stroke:url(#linear-gradient-110);}.cls-58{fill:url(#linear-gradient-111);stroke:url(#linear-gradient-112);}.cls-59{fill:#674def;}.cls-60{fill:#fad8cc;}.cls-61{fill:#d44d6e;opacity:0.17;isolation:isolate;}.cls-62{fill:#0d0630;}.cls-63{fill:#e5afaa;}.cls-64{fill:#f6bdb4;}.cls-65{fill:#120a4c;}.cls-66{fill:#82a8f9;stroke:#000;stroke-width:0.25px;}</style><linearGradient id="linear-gradient" x1="88" y1="963.61" x2="160" y2="963.61" gradientTransform="translate(0 -228.11)" gradientUnits="userSpaceOnUse"><stop offset="0" stop-color="#02e2ac"/><stop offset="0.49" stop-color="#11bc92"/><stop offset="1" stop-color="#5bf1cd"/></linearGradient><linearGradient id="linear-gradient-2" x1="87.5" y1="963.09" x2="161.6" y2="963.09" gradientTransform="translate(0 -228.11)" gradientUnits="userSpaceOnUse"><stop offset="0" stop-color="#fff"/><stop offset="1"/></linearGradient><linearGradient id="linear-gradient-3" x1="37.5" y1="1006.36" x2="131" y2="1006.36" xlink:href="#linear-gradient"/><linearGradient id="linear-gradient-4" x1="36.39" y1="1005.84" x2="134.29" y2="1005.84" xlink:href="#linear-gradient-2"/><linearGradient id="linear-gradient-5" x1="91.5" y1="966.61" x2="149.5" y2="966.61" xlink:href="#linear-gradient"/><linearGradient id="linear-gradient-6" x1="91" y1="965.81" x2="153.06" y2="965.81" xlink:href="#linear-gradient-2"/><linearGradient id="linear-gradient-7" x1="47.5" y1="1023.61" x2="108.5" y2="1023.61" xlink:href="#linear-gradient"/><linearGradient id="linear-gradient-8" x1="43.77" y1="1024.25" x2="111.9" y2="1024.25" xlink:href="#linear-gradient-2"/><linearGradient id="linear-gradient-9" x1="133.5" y1="988.11" x2="145.5" y2="988.11" xlink:href="#linear-gradient"/><linearGradient id="linear-gradient-10" x1="133" y1="988.11" x2="146" y2="988.11" xlink:href="#linear-gradient-2"/><linearGradient id="linear-gradient-11" x1="88.5" y1="950.11" x2="102.5" y2="950.11" xlink:href="#linear-gradient"/><linearGradient id="linear-gradient-12" x1="88" y1="950.11" x2="103" y2="950.11" xlink:href="#linear-gradient-2"/><linearGradient id="linear-gradient-13" x1="198" y1="932.61" x2="270" y2="932.61" xlink:href="#linear-gradient"/><linearGradient id="linear-gradient-14" x1="197.5" y1="932.09" x2="271.6" y2="932.09" xlink:href="#linear-gradient-2"/><linearGradient id="linear-gradient-15" x1="147.5" y1="975.36" x2="241" y2="975.36" xlink:href="#linear-gradient"/><linearGradient id="linear-gradient-16" x1="146.39" y1="974.84" x2="244.29" y2="974.84" xlink:href="#linear-gradient-2"/><linearGradient id="linear-gradient-17" x1="201.5" y1="935.61" x2="259.5" y2="935.61" xlink:href="#linear-gradient"/><linearGradient id="linear-gradient-18" x1="201" y1="934.81" x2="263.06" y2="934.81" xlink:href="#linear-gradient-2"/><linearGradient id="linear-gradient-19" x1="157.5" y1="992.61" x2="218.5" y2="992.61" xlink:href="#linear-gradient"/><linearGradient id="linear-gradient-20" x1="153.77" y1="993.25" x2="221.9" y2="993.25" xlink:href="#linear-gradient-2"/><linearGradient id="linear-gradient-21" x1="243.5" y1="957.11" x2="255.5" y2="957.11" xlink:href="#linear-gradient"/><linearGradient id="linear-gradient-22" x1="243" y1="957.11" x2="256" y2="957.11" xlink:href="#linear-gradient-2"/><linearGradient id="linear-gradient-23" x1="198.5" y1="919.11" x2="212.5" y2="919.11" xlink:href="#linear-gradient"/><linearGradient id="linear-gradient-24" x1="198" y1="919.11" x2="213" y2="919.11" xlink:href="#linear-gradient-2"/><linearGradient id="linear-gradient-25" x1="198" y1="1014.61" x2="270" y2="1014.61" xlink:href="#linear-gradient"/><linearGradient id="linear-gradient-26" x1="197.5" y1="1014.09" x2="271.6" y2="1014.09" xlink:href="#linear-gradient-2"/><linearGradient id="linear-gradient-27" x1="157.4" y1="1047.11" x2="241" y2="1047.11" xlink:href="#linear-gradient"/><linearGradient id="linear-gradient-28" x1="156.6" y1="1046.27" x2="244.29" y2="1046.27" xlink:href="#linear-gradient-2"/><linearGradient id="linear-gradient-29" x1="201.5" y1="1017.61" x2="259.5" y2="1017.61" xlink:href="#linear-gradient"/><linearGradient id="linear-gradient-30" x1="201" y1="1016.81" x2="263.06" y2="1016.81" xlink:href="#linear-gradient-2"/><linearGradient id="linear-gradient-31" x1="170.1" y1="1069.36" x2="218.5" y2="1069.36" xlink:href="#linear-gradient"/><linearGradient id="linear-gradient-32" x1="168.72" y1="1069.03" x2="221.9" y2="1069.03" xlink:href="#linear-gradient-2"/><linearGradient id="linear-gradient-33" x1="243.5" y1="1039.11" x2="255.5" y2="1039.11" xlink:href="#linear-gradient"/><linearGradient id="linear-gradient-34" x1="243" y1="1039.11" x2="256" y2="1039.11" xlink:href="#linear-gradient-2"/><linearGradient id="linear-gradient-35" x1="198.5" y1="1001.11" x2="212.5" y2="1001.11" xlink:href="#linear-gradient"/><linearGradient id="linear-gradient-36" x1="198" y1="1001.11" x2="213" y2="1001.11" xlink:href="#linear-gradient-2"/><linearGradient id="linear-gradient-37" x1="328" y1="953.61" x2="400" y2="953.61" xlink:href="#linear-gradient"/><linearGradient id="linear-gradient-38" x1="327.5" y1="953.09" x2="401.6" y2="953.09" xlink:href="#linear-gradient-2"/><linearGradient id="linear-gradient-39" x1="277.5" y1="996.36" x2="371" y2="996.36" xlink:href="#linear-gradient"/><linearGradient id="linear-gradient-40" x1="276.39" y1="995.84" x2="374.29" y2="995.84" xlink:href="#linear-gradient-2"/><linearGradient id="linear-gradient-41" x1="331.5" y1="956.61" x2="389.5" y2="956.61" xlink:href="#linear-gradient"/><linearGradient id="linear-gradient-42" x1="331" y1="955.81" x2="393.06" y2="955.81" xlink:href="#linear-gradient-2"/><linearGradient id="linear-gradient-43" x1="287.5" y1="1013.61" x2="348.5" y2="1013.61" xlink:href="#linear-gradient"/><linearGradient id="linear-gradient-44" x1="283.77" y1="1014.25" x2="351.9" y2="1014.25" xlink:href="#linear-gradient-2"/><linearGradient id="linear-gradient-45" x1="373.5" y1="978.11" x2="385.5" y2="978.11" xlink:href="#linear-gradient"/><linearGradient id="linear-gradient-46" x1="373" y1="978.11" x2="386" y2="978.11" xlink:href="#linear-gradient-2"/><linearGradient id="linear-gradient-47" x1="328.5" y1="940.11" x2="342.5" y2="940.11" xlink:href="#linear-gradient"/><linearGradient id="linear-gradient-48" x1="328" y1="940.11" x2="343" y2="940.11" xlink:href="#linear-gradient-2"/><linearGradient id="linear-gradient-49" x1="317" y1="1043.61" x2="389" y2="1043.61" xlink:href="#linear-gradient"/><linearGradient id="linear-gradient-50" x1="316.5" y1="1043.09" x2="390.6" y2="1043.09" xlink:href="#linear-gradient-2"/><linearGradient id="linear-gradient-51" x1="290.53" y1="1061.61" x2="308" y2="1061.61" xlink:href="#linear-gradient"/><linearGradient id="linear-gradient-52" x1="289.73" y1="1060.77" x2="308.5" y2="1060.77" xlink:href="#linear-gradient-2"/><linearGradient id="linear-gradient-53" x1="320.5" y1="1046.61" x2="378.5" y2="1046.61" xlink:href="#linear-gradient"/><linearGradient id="linear-gradient-54" x1="320" y1="1045.81" x2="382.06" y2="1045.81" xlink:href="#linear-gradient-2"/><linearGradient id="linear-gradient-55" x1="362.5" y1="1068.11" x2="374.5" y2="1068.11" xlink:href="#linear-gradient"/><linearGradient id="linear-gradient-56" x1="362" y1="1068.11" x2="375" y2="1068.11" xlink:href="#linear-gradient-2"/><linearGradient id="linear-gradient-57" x1="317.5" y1="1030.11" x2="331.5" y2="1030.11" xlink:href="#linear-gradient"/><linearGradient id="linear-gradient-58" x1="317" y1="1030.11" x2="332" y2="1030.11" xlink:href="#linear-gradient-2"/><linearGradient id="linear-gradient-59" x1="447" y1="968.61" x2="519" y2="968.61" xlink:href="#linear-gradient"/><linearGradient id="linear-gradient-60" x1="446.5" y1="968.09" x2="520.6" y2="968.09" xlink:href="#linear-gradient-2"/><linearGradient id="linear-gradient-61" x1="396.5" y1="1011.36" x2="490" y2="1011.36" xlink:href="#linear-gradient"/><linearGradient id="linear-gradient-62" x1="395.39" y1="1010.84" x2="493.29" y2="1010.84" xlink:href="#linear-gradient-2"/><linearGradient id="linear-gradient-63" x1="450.5" y1="971.61" x2="508.5" y2="971.61" xlink:href="#linear-gradient"/><linearGradient id="linear-gradient-64" x1="450" y1="970.81" x2="512.06" y2="970.81" xlink:href="#linear-gradient-2"/><linearGradient id="linear-gradient-65" x1="406.5" y1="1028.61" x2="467.5" y2="1028.61" xlink:href="#linear-gradient"/><linearGradient id="linear-gradient-66" x1="402.77" y1="1029.25" x2="470.9" y2="1029.25" xlink:href="#linear-gradient-2"/><linearGradient id="linear-gradient-67" x1="492.5" y1="993.11" x2="504.5" y2="993.11" xlink:href="#linear-gradient"/><linearGradient id="linear-gradient-68" x1="492" y1="993.11" x2="505" y2="993.11" xlink:href="#linear-gradient-2"/><linearGradient id="linear-gradient-69" x1="447.5" y1="955.11" x2="461.5" y2="955.11" xlink:href="#linear-gradient"/><linearGradient id="linear-gradient-70" x1="447" y1="955.11" x2="462" y2="955.11" xlink:href="#linear-gradient-2"/><linearGradient id="linear-gradient-71" x1="457" y1="1049.61" x2="529" y2="1049.61" xlink:href="#linear-gradient"/><linearGradient id="linear-gradient-72" x1="456.5" y1="1049.04" x2="530.6" y2="1049.04" xlink:href="#linear-gradient-2"/><linearGradient id="linear-gradient-73" x1="436.84" y1="1068.11" x2="448" y2="1068.11" xlink:href="#linear-gradient"/><linearGradient id="linear-gradient-74" x1="436.04" y1="1067.28" x2="448.5" y2="1067.28" xlink:href="#linear-gradient-2"/><linearGradient id="linear-gradient-75" x1="460.5" y1="1055.36" x2="518.5" y2="1055.36" xlink:href="#linear-gradient"/><linearGradient id="linear-gradient-76" x1="460" y1="1054.21" x2="522.07" y2="1054.21" xlink:href="#linear-gradient-2"/><linearGradient id="linear-gradient-77" x1="576.7" y1="1225.87" x2="588.3" y2="1225.87" gradientTransform="translate(-74 -376.61)" xlink:href="#linear-gradient"/><linearGradient id="linear-gradient-78" x1="576.06" y1="1225.87" x2="588.96" y2="1225.87" gradientTransform="translate(-74 -376.61)" xlink:href="#linear-gradient-2"/><linearGradient id="linear-gradient-79" x1="457.5" y1="1043.11" x2="471.5" y2="1043.11" xlink:href="#linear-gradient"/><linearGradient id="linear-gradient-80" x1="457" y1="1043.11" x2="472" y2="1043.11" xlink:href="#linear-gradient-2"/><linearGradient id="linear-gradient-81" x1="589" y1="978.61" x2="661" y2="978.61" xlink:href="#linear-gradient"/><linearGradient id="linear-gradient-82" x1="588.5" y1="978.09" x2="662.6" y2="978.09" xlink:href="#linear-gradient-2"/><linearGradient id="linear-gradient-83" x1="538.5" y1="1021.36" x2="632" y2="1021.36" xlink:href="#linear-gradient"/><linearGradient id="linear-gradient-84" x1="537.39" y1="1020.84" x2="635.29" y2="1020.84" xlink:href="#linear-gradient-2"/><linearGradient id="linear-gradient-85" x1="592.5" y1="981.61" x2="650.5" y2="981.61" xlink:href="#linear-gradient"/><linearGradient id="linear-gradient-86" x1="592" y1="980.81" x2="654.06" y2="980.81" xlink:href="#linear-gradient-2"/><linearGradient id="linear-gradient-87" x1="548.5" y1="1038.61" x2="609.5" y2="1038.61" xlink:href="#linear-gradient"/><linearGradient id="linear-gradient-88" x1="544.77" y1="1039.25" x2="612.9" y2="1039.25" xlink:href="#linear-gradient-2"/><linearGradient id="linear-gradient-89" x1="634.5" y1="1003.11" x2="646.5" y2="1003.11" xlink:href="#linear-gradient"/><linearGradient id="linear-gradient-90" x1="634" y1="1003.11" x2="647" y2="1003.11" xlink:href="#linear-gradient-2"/><linearGradient id="linear-gradient-91" x1="589.5" y1="965.11" x2="603.5" y2="965.11" xlink:href="#linear-gradient"/><linearGradient id="linear-gradient-92" x1="589" y1="965.11" x2="604" y2="965.11" xlink:href="#linear-gradient-2"/><linearGradient id="linear-gradient-93" x1="794" y1="1135.81" x2="836.8" y2="1135.81" gradientTransform="translate(-74 -376.61)" xlink:href="#linear-gradient"/><linearGradient id="linear-gradient-94" x1="793.5" y1="1135.82" x2="837.47" y2="1135.82" gradientTransform="translate(-74 -376.61)" xlink:href="#linear-gradient-2"/><linearGradient id="linear-gradient-95" x1="669.5" y1="1013.36" x2="763" y2="1013.36" xlink:href="#linear-gradient"/><linearGradient id="linear-gradient-96" x1="668.39" y1="1012.84" x2="766.29" y2="1012.84" xlink:href="#linear-gradient-2"/><linearGradient id="linear-gradient-97" x1="797.5" y1="1133.86" x2="826.27" y2="1133.86" gradientTransform="translate(-74 -376.61)" xlink:href="#linear-gradient"/><linearGradient id="linear-gradient-98" x1="797" y1="1134.16" x2="827.07" y2="1134.16" gradientTransform="translate(-74 -376.61)" xlink:href="#linear-gradient-2"/><linearGradient id="linear-gradient-99" x1="679.5" y1="1030.61" x2="740.5" y2="1030.61" xlink:href="#linear-gradient"/><linearGradient id="linear-gradient-100" x1="675.77" y1="1031.25" x2="743.9" y2="1031.25" xlink:href="#linear-gradient-2"/><linearGradient id="linear-gradient-101" x1="765.5" y1="995.11" x2="777.5" y2="995.11" xlink:href="#linear-gradient"/><linearGradient id="linear-gradient-102" x1="765" y1="995.11" x2="778" y2="995.11" xlink:href="#linear-gradient-2"/><linearGradient id="linear-gradient-103" x1="816" y1="1194.96" x2="883" y2="1194.96" gradientTransform="translate(-74 -376.61)" xlink:href="#linear-gradient"/><linearGradient id="linear-gradient-104" x1="815.5" y1="1194.97" x2="883.7" y2="1194.97" gradientTransform="translate(-74 -376.61)" xlink:href="#linear-gradient-2"/><linearGradient id="linear-gradient-105" x1="715.53" y1="1061.61" x2="733" y2="1061.61" xlink:href="#linear-gradient"/><linearGradient id="linear-gradient-106" x1="714.73" y1="1060.77" x2="733.5" y2="1060.77" xlink:href="#linear-gradient-2"/><linearGradient id="linear-gradient-107" x1="745.5" y1="1046.61" x2="803.5" y2="1046.61" xlink:href="#linear-gradient"/><linearGradient id="linear-gradient-108" x1="745" y1="1045.81" x2="807.06" y2="1045.81" xlink:href="#linear-gradient-2"/><linearGradient id="linear-gradient-109" x1="787.5" y1="1068.11" x2="799.5" y2="1068.11" xlink:href="#linear-gradient"/><linearGradient id="linear-gradient-110" x1="787" y1="1068.11" x2="800" y2="1068.11" xlink:href="#linear-gradient-2"/><linearGradient id="linear-gradient-111" x1="742.5" y1="1030.11" x2="756.5" y2="1030.11" xlink:href="#linear-gradient"/><linearGradient id="linear-gradient-112" x1="742" y1="1030.11" x2="757" y2="1030.11" xlink:href="#linear-gradient-2"/></defs><title>Karl Floersch</title><path class="cls-1" d="M843,851.5H0s7-43,36-100,71-64,71-64l68-17h34l41.6,9.7,5.1,1.2,1.1.3,3.9.9,47.3,11,57,1,4.4,14,1,3.3,1.6,5.3,3.5,11,5,16,.5,1.4a62.58,62.58,0,0,0,4.3,6.2c8.1,10.5,26,27.1,36.2-12.1,13.5-51.9,42.3-44.5,42.3-44.5l45.3,1.4,71,14,74.6,7.2,3.6.3,4.8.5s33.9,6,57.9,12.9c3.7,1,7.1,2.1,10.1,3.1l.5.2a77.76,77.76,0,0,1,9.3,4.2c.9.5,1.9,1,2.8,1.6,2.8,1.6,5.7,3.3,8.6,5.2,3.4,2.2,7,4.6,10.5,7.1,16.3,11.5,32.8,24.9,42.5,31.3,1.4.9,2.6,1.7,3.7,2.3h0C823,794.6,843,851.5,843,851.5Z"/><g class="cls-2"><polygon class="cls-3" points="88 745.5 160 698.5 118 766.5 88 772.5 88 745.5"/><polygon class="cls-4" points="79 735.5 79 782.5 131 772.5 37.5 821 79 735.5"/><polygon class="cls-5" points="91.5 746 149.5 710 91.5 767 91.5 746"/><polygon class="cls-6" points="77.5 786 108.5 780 47.5 811 77.5 786"/><circle class="cls-7" cx="139.5" cy="760" r="6"/><circle class="cls-8" cx="95.5" cy="722" r="7"/><polygon class="cls-9" points="198 714.5 270 667.5 228 735.5 198 741.5 198 714.5"/><polygon class="cls-10" points="189 704.5 189 751.5 241 741.5 147.5 790 189 704.5"/><polygon class="cls-11" points="201.5 715 259.5 679 201.5 736 201.5 715"/><polygon class="cls-12" points="187.5 755 218.5 749 157.5 780 187.5 755"/><circle class="cls-13" cx="249.5" cy="729" r="6"/><circle class="cls-14" cx="205.5" cy="691" r="7"/><polygon class="cls-15" points="198 796.5 270 749.5 228 817.5 198 823.5 198 796.5"/><polygon class="cls-16" points="241 823.5 187 851.5 157.4 851.5 189 786.5 189 833.5 241 823.5"/><polygon class="cls-17" points="201.5 797 259.5 761 201.5 818 201.5 797"/><polygon class="cls-18" points="218.5 831 178.2 851.5 170.1 851.5 187.5 837 218.5 831"/><circle class="cls-19" cx="249.5" cy="811" r="6"/><circle class="cls-20" cx="205.5" cy="773" r="7"/><polygon class="cls-21" points="328 735.5 400 688.5 358 756.5 328 762.5 328 735.5"/><polygon class="cls-22" points="319 725.5 319 772.5 371 762.5 277.5 811 319 725.5"/><polygon class="cls-23" points="331.5 736 389.5 700 331.5 757 331.5 736"/><polygon class="cls-24" points="317.5 776 348.5 770 287.5 801 317.5 776"/><circle class="cls-25" cx="379.5" cy="750" r="6"/><circle class="cls-26" cx="335.5" cy="712" r="7"/><polygon class="cls-27" points="317 825.5 389 778.5 347 846.5 317 852.5 317 825.5"/><polygon class="cls-28" points="308 815.5 308 851.5 290.5 851.5 308 815.5"/><polygon class="cls-29" points="320.5 826 378.5 790 320.5 847 320.5 826"/><circle class="cls-30" cx="368.5" cy="840" r="6"/><circle class="cls-31" cx="324.5" cy="802" r="7"/><polygon class="cls-32" points="447 750.5 519 703.5 477 771.5 447 777.5 447 750.5"/><polygon class="cls-33" points="438 740.5 438 787.5 490 777.5 396.5 826 438 740.5"/><polygon class="cls-34" points="450.5 751 508.5 715 450.5 772 450.5 751"/><polygon class="cls-35" points="436.5 791 467.5 785 406.5 816 436.5 791"/><circle class="cls-36" cx="498.5" cy="765" r="6"/><circle class="cls-37" cx="454.5" cy="727" r="7"/><polygon class="cls-38" points="529 791.5 491.9 851.5 457 851.5 457 838.5 529 791.5"/><polygon class="cls-39" points="448 828.5 448 851.5 436.8 851.5 448 828.5"/><polygon class="cls-40" points="518.5 803 469.1 851.5 460.5 851.5 460.5 839 518.5 803"/><path class="cls-41" d="M514.3,851.5H502.7a6,6,0,0,1,11.6,0Z"/><circle class="cls-42" cx="464.5" cy="815" r="7"/><polygon class="cls-43" points="589 760.5 661 713.5 619 781.5 589 787.5 589 760.5"/><polygon class="cls-44" points="580 750.5 580 797.5 632 787.5 538.5 836 580 750.5"/><polygon class="cls-45" points="592.5 761 650.5 725 592.5 782 592.5 761"/><polygon class="cls-46" points="578.5 801 609.5 795 548.5 826 578.5 801"/><circle class="cls-47" cx="640.5" cy="775" r="6"/><circle class="cls-48" cx="596.5" cy="737" r="7"/><path class="cls-49" d="M762.8,752.8,750,773.5l-30,6v-27l20.8-13.6c.9.5,1.9,1,2.8,1.6,2.8,1.6,5.7,3.3,8.6,5.2C755.7,748,759.2,750.3,762.8,752.8Z"/><polygon class="cls-50" points="711 742.5 711 789.5 763 779.5 669.5 828 711 742.5"/><path class="cls-51" d="M752.3,745.7,723.5,774V753l20.2-12.5C746.4,742.1,749.3,743.8,752.3,745.7Z"/><polygon class="cls-52" points="709.5 793 740.5 787 679.5 818 709.5 793"/><circle class="cls-53" cx="771.5" cy="767" r="6"/><path class="cls-54" d="M809,786.5l-37,60-30,6v-27l63.3-41.3C806.7,785.1,807.9,785.9,809,786.5Z"/><polygon class="cls-55" points="733 815.5 733 851.5 715.5 851.5 733 815.5"/><polygon class="cls-56" points="745.5 826 803.5 790 745.5 847 745.5 826"/><circle class="cls-57" cx="793.5" cy="840" r="6"/><circle class="cls-58" cx="749.5" cy="802" r="7"/></g><path class="cls-59" d="M357,708.5c-5.3-4.5-9.9-5.7-13-6-17.3-1.8-32.8,19.9-40,15-.8-.5-.5-.9-1.5-1.4-4.5-2.3-12.4,6-19.5,2.4-8-4-58-11-58-11l-58-34s-16-16,0-29,41-13,50-19,1-16,9-18,41-13,57-44,27-7,39-5,158,20,158,20l71,12s34,8,56,6,26,1,27,13,11,33,11,33,30-13,33-9,47,53,48,60,11,36,0,35-42-8-52,7S536.5,729,536.5,729s-9-26-22-16-49-29-64-16-30,75-30,75h-48c-4-14.7-7.9-29.8-11.5-45.5C359.6,720.5,358.3,714.5,357,708.5Z"/><path class="cls-60" d="M295,631.5s50-43,40-108-36-144-40-172-6-92-6-92l3-70,21-71,104-38H525l81,31L620.5,163l18,87-14,93-8,43c-2,8-32,97-32,97l-11,23c-9.2,18-19.9,46.5-16,79,2.5,20.6,10.7,41.3,13.5,48.5A247.39,247.39,0,0,0,584.5,662L560,682.5l-51,14c-41.5-8.9-59.5-2.2-68,6-14.8,14.3-19,20-19,20-6.1,8.4-9.7,16-17,17-.7.1-4,.5-9-2-16.9-8.5-12.3-29.7-30-42a58.67,58.67,0,0,0-15-7c-10-3.2-14.3-1.9-20-4s-13.1-7.6-19-23Z"/><path class="cls-61" d="M321,596.5s-5.5,13.2.2,27.3c1,2.4,2.7,5.5,10.8,14.7,6.8,7.7,12.1,13.7,20.1,20.5,21.6,18.3,28.6,13.5,38.9,26.5,11,14,8.2,26.2,14.6,27.4,10.9,2,18.2-33.7,40-37.8,10.7-2,21.1,4.3,28.4,10.4l59-15a57.16,57.16,0,0,0,15-16c15.8-25.3,5.2-54.9,10-56,5.6-1.3,20.5,39.7,21.5,42.5a8.8,8.8,0,0,1,.5,1.5c0,10-17,40-17,40L495.2,694,441,702.5l-31,43-28.2-26.1c-2.2-7.2-6.5-17.3-15.8-23.9-12-8.4-21.4-3.4-35-11-9.8-5.5-14.4-13.6-23.7-29.9A188.2,188.2,0,0,1,289,609.5S291.8,606.4,321,596.5Z"/><g id="Layer_4" data-name="Layer 4"><path class="cls-62" d="M311.5,645a80.46,80.46,0,0,0,21,33l41,14,25,39c4,14,12,0,12,0l27-35,22-7,46-3,36-5,22-14,11-14-11-28c-1.8-7.5-3.7-15-5.5-22.5v-14a10.45,10.45,0,0,1,4.2-1.4c4.6-.4,9.3,2.7,12.3,7.7,9.8,21.1,12,28.8,11,30.2-2,3,20-31,28-22,0,0-16,12-13,22s-13,20-13,20a44.16,44.16,0,0,0,37,4c21-7,16,1,16,1s-62,16-65,23-12,26-33,29-67.8-2.6-67.8-2.6-24.2-5.3-29.2,3.7-35,43-35,43h-20l-25-51s-27-10-39-5-5-11-5-11-19-31-57-19-65,4-53,0,43-1,51-12,26-42,8-39-25,0-9-10,16-7,16-7l22-29c5.3-3,17.6-8.9,29.5-4.5a29.17,29.17,0,0,1,3.1,1.4c0,1.1,0,2.7-.1,4.6-1,15.8-7.5,26.8-10.5,32.5C317.5,604.7,305.2,626.2,311.5,645Z"/></g><path class="cls-60" d="M311.5,393s-5,26-33,4-23-97-23-97,9-26,16-16,25,22,25,22Z"/><path class="cls-63" d="M292.3,324.4s-13.8-6.4-16.8,5.6-6,27,3,30,10,4,11,9,5.6,5.5,6.3-12.8A103.6,103.6,0,0,0,292.3,324.4Z"/><path class="cls-64" d="M272.5,301s-5-22-11-3-4,60,0,54,7-32,11-35S272.5,301,272.5,301Z"/><path class="cls-60" d="M596.5,425s26,2,31-4,19-44,19-59,8-46,6-50-11-2-19,11-15,24-15,24Z"/><path class="cls-63" d="M614.5,392.6s-1,4.4,6-3.6,7,5,11-5,3-28-3-28S611.5,384.3,614.5,392.6Z"/><path class="cls-64" d="M638.5,331s-2,13,0,21-2,33,3,20,10-54,6-51S638.5,327,638.5,331Z"/><path class="cls-64" d="M505.5,360c-.3-1.2-.6-2.9.1-3.3,1.2-.7,4.7,3,5.4,3.8a30.9,30.9,0,0,1,5,7c.9,1.7,3.9,5.5,10,13,6.7,8.4,10.5,12.4,10,13s-2.8-2-8-4c-3.2-1.3-3.7-.8-7-2-4.3-1.5-8.1-2.8-10-6-1.8-3-.3-4.9-1-10A26.68,26.68,0,0,0,505.5,360Z"/><path class="cls-64" d="M426.5,348s-18,14-8,28c0,0-8-5-20,18S405.5,362,426.5,348Z"/><path class="cls-64" d="M445.5,409s22,7,29,0C474.5,409,458.5,428,445.5,409Z"/><path class="cls-64" d="M391.5,431s-11-4-3,7c6.7,9.2,2.2,1,4-.3.6-.4,1.8.2,2,.3,3.8,2,39.7,6.4,63,7,26.8.7,55.8-3.4,61-2a5.52,5.52,0,0,0,4,0c2.2-.9,2.8-3.1,3.7-3.1.3,0,.6.8,1.3,3.1,1.7,5.8,6.1-4.3,2.9-6.7a3.67,3.67,0,0,0-2.9-.3,11.81,11.81,0,0,0-6,3c-6.1,5.7-44.1,4.6-63,4-4.9-.2-10.9-.4-19-1-9.8-.8-8.1-1-19-2-13.9-1.3-20.1-1.2-26-6A21.27,21.27,0,0,1,391.5,431Z"/><path class="cls-64" d="M436.5,471s45,6,59,0-11,14-26,13S423.5,470,436.5,471Z"/><path class="cls-64" d="M433.5,378s8-4,12,2-10,0-10,0S430.5,379,433.5,378Z"/><path class="cls-64" d="M480.5,385a14.08,14.08,0,0,1,10-2c6,1,2,2-3,3S478.5,386,480.5,385Z"/><path class="cls-62" d="M409.5,283a14,14,0,0,1-28,0,15.23,15.23,0,0,1,.6-4.2,11.07,11.07,0,0,1,1.2-2.7c6.8-1.7,13.8-2.7,20.1-2.1,1,.1,2.1.3,3.1.5A13.18,13.18,0,0,1,409.5,283Z"/><circle class="cls-65" cx="396.5" cy="283" r="3"/><path class="cls-62" d="M430.5,294c-4,7-12,3-8,3s4-7,4-7c-2.5-3.4-7.9-10-17.1-13.2a32.86,32.86,0,0,0-10.8-1.9c-3.3-.1-7.2.2-16.5,2.9-10,2.9-21.8,6.4-21.6,10.2.1,1.9,3,3.1,2.6,3.7s-4.6-1-6.7-1.9-3.3-1.4-3.4-1.9c-.2-1.2,2.3-2.8,12.5-6.7a146.13,146.13,0,0,1,17.8-6.1c12-2.9,18.4-2.2,20.1-2.1,1,.1,2.1.3,3.1.5C423.4,277.1,430.5,294,430.5,294Z"/><path class="cls-62" d="M550.5,291a14,14,0,1,1-21.2-12h.2a53.51,53.51,0,0,1,17.7,3A13.52,13.52,0,0,1,550.5,291Z"/><circle class="cls-62" cx="536.5" cy="290" r="3"/><path class="cls-62" d="M567.5,301c-2.5.8-2.5,1.4-4.5,1.8-2.7.6,2.2-3.7,3.2-5.7.1-.3.7-1.7-2.2-5-1.4-1.6-5.9-6.4-19.1-9.7-6.3-1.6-10.4-2.6-16.2-1.8a34.49,34.49,0,0,0-11.9,4.2c-3.1,1.6-11.8,6-11.3,10.3.1,1.2.8,1.8.5,2.7-.6,1.7-3.1,2.6-6.5,1.3-5-2,0-3,0-3s11.9-17.9,29.8-18h.2a73.69,73.69,0,0,1,17.7,3c7.9,2.4,15.1,6,21,11.5.6.6,5.5,5.3,4.4,7.1C572.1,300.5,570.8,299.9,567.5,301Z"/><path class="cls-62" d="M497.5,250s-8,14,2,13,43-6,56-4,30,13,33,14,12,11,11,5-13-25-24-28-22-10-42-7S497.5,250,497.5,250Z"/><path class="cls-62" d="M439.5,257s-3-18-19-19-16,0-16,0-22-1-31,2-32,11-32,11c-3,3-11,12,4,10s35-6,43-6,29,2,35,4S439.5,257,439.5,257Z"/><path class="cls-62" d="M303.5,238s-1,48-3,63-2.5,49.4-5.8,35.2c-4.1-18.1-11.6-21.9-16.2-40.2-3.2-12.8.1-11.6-3.5-25.5-2.9-10.9-5.6-14.1-8-24a84.23,84.23,0,0,1-2-26,211,211,0,0,1,10-54s6.4-19.6,40.5-79.5c0,0-20,2-32-6,0,0,33,0,41-6s43-40,58-46,64-25,64-25-10,4-7,7c0,0,3-2,28-4s56,1,62-3,7-4,7-4-6,5-5,11,17-1,24,6c0,0-8,3-8,6V20s25,4,28,13c-2.3,1.1-4.6,2.1-7,3,0,0,24,17,31,29l-7-2s19,16,25,14l-12,4s13,17,24,43l11,26,14,71c-1.2,17.8-2.3,35.7-3.5,53.5-1,12.8-1.8,22.3-2,27a13.25,13.25,0,0,1-2,7,10.71,10.71,0,0,1-3,3,63.62,63.62,0,0,0-11,11,59.47,59.47,0,0,0-7,10.9c-.9,4.8-1.8,9.7-2.6,14.6-1.2,6.8-2.3,13.3-2.3,13.3L617.5,328l3-69s3-53-7-74a423.9,423.9,0,0,1-17-42s-7,22-3,27c0,0-9-18-18-33s-20.3-27.4-17.5-15.5c.7,3,1.4,6,2,9.1a392.6,392.6,0,0,1,6.5,44.4,36.1,36.1,0,0,1-4,10s-12-56-35-79c0,0,14,28,13,34,0,0-11-15-25-15,0,0,7,20,5,27a120.47,120.47,0,0,0-26.1-23.8c-15.1-10-15.5-5.1-29.4-14.8-2.3-1.6-5.8-4.2-8-3-3.4,1.8-2,10.9-1,16a87.64,87.64,0,0,0-63-24c17.9,24.4,20.6,30.6,19.5,31.5-1.4,1.2-9.1-7.8-23.9-15.6A150.17,150.17,0,0,0,362,107.4a109.7,109.7,0,0,1,15.3,11,113.3,113.3,0,0,1,25.3,31.5s-41-2-57-23,3,30,14,39c0,0-26.8-28.3-34.2-40.1-1-1.7,4.2,15.1-5.8,33.1S298.5,222,303.5,238Z"/><path class="cls-65" d="M366,73.5c35.1,13.3,42.8,15.6,43,15,.2-.4-3.9-1.8-6-6a14,14,0,0,1-1-9c7.6,4.1,17.7,9.4,29.7,15.2,8.8,4.2,16.5,7.6,22.8,10.3,7.4,3.2,47,19,47,19s-33-34-47-47-19-13-19-13,29,5,39,14c0,0-6-13-17-18s-43-11-43-11c-5.8-1.3-14.2-3.1-24.5-4.5-14.4-2-17.5-1.3-18,0-.9,2.5,8.6,8,8,9s-10.8-5.4-13-3c-1.9,2.1,3.8,9.3,2,11-1.6,1.5-7.1-3.4-9-2C358.6,54.5,358.9,58.8,366,73.5Z"/><path class="cls-65" d="M445.5,22s68,5,77-3c0,0-2,13-9,17,0,0,38,8,49,33s5,23,5,23-11-21-45-30S445.5,22,445.5,22Z"/><path class="cls-64" d="M426,543.5a109.43,109.43,0,0,0,30,5.4c33.5,1.1,58.6-14.1,69-21.4a107.87,107.87,0,0,1-42.9,17.6c-47.3,8-83.9-19.9-91.1-25.6Z"/><path class="cls-65" d="M319.1,118.4s-27.8,36.8-30.6,66.9,2.6,20.1,2.6,20.1Z"/><path class="cls-65" d="M624,162.5s19.6,60.6,12.8,98.8Z"/><polygon class="cls-66" points="405.7 771.2 413.2 776.5 412.5 784.4 396.2 791.6 381.5 781.5 382.3 774 391.2 769.9 385.1 765.6 385.4 763.2 386.6 749.8 401 743.3 413.9 752.4 412.6 766 412.4 768.2 405.7 771.2"/><polygon class="cls-66" points="416.8 785.1 414.7 807 394.7 816.2 376.9 803.5 379 781.5 382.3 780 381.5 787.5 396.2 797.6 412.5 790.4 413.2 782.5 416.8 785.1"/></svg>