<svg id="Layer_1" data-name="Layer 1" xmlns="http://www.w3.org/2000/svg" xmlns:xlink="http://www.w3.org/1999/xlink" viewBox="0 0 806.3 813.25"><defs><style>.cls-1{fill:url(#linear-gradient);}.cls-2{fill:#5516b7;}.cls-3{fill:#674def;}.cls-4{fill:#02e2ac;}.cls-5{fill:#7f324e;}.cls-6{fill:#c6bcfb;}.cls-7{fill:#fcd2c5;}.cls-8{fill:#f4ccc1;}.cls-9{fill:url(#linear-gradient-2);}.cls-10{fill:url(#linear-gradient-3);}.cls-11{fill:url(#linear-gradient-4);}.cls-12{fill:#0d0630;}.cls-13{fill:#1b1544;}.cls-14{fill:url(#linear-gradient-5);}.cls-15{fill:url(#linear-gradient-6);}.cls-16,.cls-22{fill:none;stroke-miterlimit:10;}.cls-16{stroke:#c4a19d;stroke-width:1.5px;}.cls-17{fill:#e0bab3;}.cls-18{fill:#efc9bf;}.cls-19{opacity:0.17;}.cls-20{fill:url(#linear-gradient-7);}.cls-21{fill:url(#linear-gradient-8);}.cls-22{stroke:#5932c4;}.cls-23{fill:#38268e;}.cls-24{fill:#eac4bb;}</style><linearGradient id="linear-gradient" x1="192.32" y1="663.84" x2="958.08" y2="883.49" gradientTransform="translate(-163.5 -120.2)" gradientUnits="userSpaceOnUse"><stop offset="0" stop-color="#11bc92"/><stop offset="0.15" stop-color="#5bf1cd"/><stop offset="0.65" stop-color="#5bf1cd"/><stop offset="1" stop-color="#02e2ac"/></linearGradient><linearGradient id="linear-gradient-2" x1="470.57" y1="700.74" x2="471.32" y2="700.31" gradientTransform="translate(-163.5 -120.2)" gradientUnits="userSpaceOnUse"><stop offset="0" stop-color="#5c2f00"/><stop offset="1" stop-color="#964d00"/></linearGradient><linearGradient id="linear-gradient-3" x1="417.78" y1="585.19" x2="421.06" y2="583.3" xlink:href="#linear-gradient-2"/><linearGradient id="linear-gradient-4" x1="620.62" y1="957.16" x2="749.12" y2="957.16" gradientTransform="translate(12.38 -266.11)" gradientUnits="userSpaceOnUse"><stop offset="0" stop-color="#02e2ac"/><stop offset="1" stop-color="#b3ffed"/></linearGradient><linearGradient id="linear-gradient-5" x1="667.3" y1="388.74" x2="726.25" y2="388.74" xlink:href="#linear-gradient-2"/><linearGradient id="linear-gradient-6" x1="535" y1="367.15" x2="574.85" y2="367.15" xlink:href="#linear-gradient-2"/><linearGradient id="linear-gradient-7" x1="646.95" y1="353.29" x2="703.33" y2="450.94" gradientTransform="translate(-163.5 -120.2)" gradientUnits="userSpaceOnUse"><stop offset="0" stop-color="#29abe2"/><stop offset="0.28" stop-color="#8dff00"/><stop offset="0.56" stop-color="aqua"/><stop offset="0.83" stop-color="aqua"/><stop offset="1" stop-color="#29abe2"/></linearGradient><linearGradient id="linear-gradient-8" x1="513.35" y1="338.64" x2="562.76" y2="424.23" xlink:href="#linear-gradient-7"/></defs><title>Leon</title><g id="Layer_23_copy" data-name="Layer 23 copy"><path class="cls-1" d="M42,694.5C16.5,728.3,4,762.3,0,813.2l804.5-.2a251.73,251.73,0,0,0,0-60.1c-3.6-29.5-14.2-54.2-35.3-103.7-10-23.5-19.7-43.4-33.8-58.3-8.4-8.9-16.9-17.4-16.9-17.4-15.1-15.4-19.2-19.1-31.5-33-27.7-31.3-40-47.9-46.6-57.2-37.2-52.7-37.2-48.1-39.9-50.3-39-31.2-157.8,14.5-249.6,6.7-9-.8-26.2-2.7-48.8,1.6-27.5,5.2-48.6,17-62.1,26.2-30.6,36.1-55.3,65.5-71.8,85.3-32.7,39.2-52.7,63.5-83,96.4C67,669,51.8,684.7,42,694.5Z" transform="translate(0 0.05)"/><path class="cls-2" d="M97.5,688" transform="translate(0 0.05)"/><path class="cls-3" d="M374.7,444.5s-16.8,27.3-16.8,43.3-18.2,41.1-18.2,41.1-19.6,15.2,13.4,30.2S468.5,591,495.5,573s165-1,165-1l-81-177Z" transform="translate(0 0.05)"/><path class="cls-4" d="M558.5,719c-6.8,39.9-1.2,56.1,5.5,63.4,2.4,2.6,11.3,11.1,10.1,20.2-.4,2.7-2.3,10.4-2.3,10.4h0l-11.3-11,4.7,11H510.5s41,6,15-61c0,0,19,32,30,35C555.5,787,532.5,754,558.5,719Z" transform="translate(0 0.05)"/><path class="cls-5" d="M370.5,495c2.3,2.1,3.5,5.2,4.3,8.2a29.67,29.67,0,0,1,.7,9.4,56.51,56.51,0,0,1-4.8,18c-1.3,2.8-2.8,5.5-4.2,8.2a80.41,80.41,0,0,0-4,7.7c-.2.7-.5,1.3-.7,2-.1.3-.2.7-.3,1l-.2,1a31.76,31.76,0,0,0-.6,4.3,15.5,15.5,0,0,0,.1,4.3,7,7,0,0,0,1.8,3.9,5.22,5.22,0,0,1-1.9-1.4,13.73,13.73,0,0,1-1.3-2,18.56,18.56,0,0,1-1.3-4.6,25.72,25.72,0,0,1-.2-4.8l.1-1.2a5,5,0,0,1,.2-1.2,20.48,20.48,0,0,1,.5-2.4,54.53,54.53,0,0,1,3.5-8.7c1.3-2.7,2.7-5.3,3.9-8a80,80,0,0,0,5.5-16.5,41.1,41.1,0,0,0,.8-8.6A22.92,22.92,0,0,0,370.5,495Z" transform="translate(0 0.05)"/><path class="cls-6" d="M387.5,501a43.92,43.92,0,0,1,.5,8.9,87.77,87.77,0,0,1-1,8.8c-1,5.8-2.4,11.5-3.7,17.1-.3,1.4-.6,2.8-.9,4.1a27.33,27.33,0,0,0-.5,4c-.1,2.8,0,5.6.1,8.5.2,5.8.5,11.6.5,17.5a102.25,102.25,0,0,1-4.4-17.1,68.83,68.83,0,0,1-1-9,40.83,40.83,0,0,1,1.3-9.2c1.4-5.8,3.1-11.3,4.8-16.9.8-2.8,1.6-5.5,2.4-8.3S386.9,503.9,387.5,501Z" transform="translate(0 0.05)"/><path class="cls-6" d="M404.5,504a27,27,0,0,1,1.2,8.9,65.45,65.45,0,0,1-.9,8.9c-1,5.8-2.6,11.5-3.5,17l-.3,2-.1,2v1.9l.2,2.1c.2,2.8.6,5.7.9,8.6.6,5.8,1.3,11.6,1.5,17.5a99.64,99.64,0,0,1-5.4-16.8c-.7-2.9-1.3-5.8-1.7-8.7l-.3-2.2c0-.8-.1-1.6-.1-2.5l.1-2.4.3-2.3c1-6.1,2.9-11.6,4.6-17.1a78.36,78.36,0,0,0,2.3-8.3A61.38,61.38,0,0,0,404.5,504Z" transform="translate(0 0.05)"/><path class="cls-6" d="M424.5,505a73.14,73.14,0,0,1,.4,18.1,70.8,70.8,0,0,1-1.6,9c-.4,1.6-.8,2.8-1.1,4.2s-.6,2.7-.8,4.1a47.29,47.29,0,0,0-.4,8.4c.1,2.8.5,5.7.9,8.6.6,5.9,1.6,11.6,2.7,17.6a59.19,59.19,0,0,1-6.5-16.8,54.94,54.94,0,0,1-1.7-9,38.93,38.93,0,0,1,1.1-14c.2-.8.5-1.5.7-2.3s.5-1.4.7-2.1c.9-2.7,1.6-5.5,2.3-8.3C422.3,516.7,423.4,510.9,424.5,505Z" transform="translate(0 0.05)"/><path class="cls-6" d="M446.5,501a54.69,54.69,0,0,1,2.6,9c.6,3.1,1.1,6.2,1.4,9.3a61.54,61.54,0,0,1,.1,9.6,27.45,27.45,0,0,1-.8,5c-.4,1.5-.9,3-1.3,4.5-.9,3-1.9,5.8-2.6,8.7-.4,1.4-.7,2.9-1,4.3-.2.8-.2,1.4-.4,2.1a7.41,7.41,0,0,0-.1,2.1c0,3,.1,6,.4,9s.6,6.2.8,9.3a71.34,71.34,0,0,1-3.2-8.8,59,59,0,0,1-1.9-9.3,20.92,20.92,0,0,1,.1-5c.2-1.6.5-3.2.8-4.8a94.07,94.07,0,0,1,2.5-9.1l1.4-4.4a27.13,27.13,0,0,0,.9-4.1c.4-3,.6-6,.7-9C446.8,513.3,446.8,507.1,446.5,501Z" transform="translate(0 0.05)"/><path class="cls-6" d="M639.5,553a26.22,26.22,0,0,1-7.1-5.7,42.53,42.53,0,0,1-5.3-7.3,49.73,49.73,0,0,1-3.8-8.1,27.67,27.67,0,0,1-1.8-8.9c1.9,2.3,3.7,4.6,5.4,7.1s3.1,4.9,4.5,7.3,2.8,5,4.2,7.5A60.33,60.33,0,0,1,639.5,553Z" transform="translate(0 0.05)"/><path class="cls-5" d="M629.5,559a8.06,8.06,0,0,1-5.3.3,11.16,11.16,0,0,1-4.7-3,9.42,9.42,0,0,1-2.2-5.1,8.83,8.83,0,0,1,.2-2.8,6.47,6.47,0,0,1,.4-1.3l.6-1.2a16.44,16.44,0,0,1,1.4,2.2c.5.7.7,1.3,1.2,1.9a34.57,34.57,0,0,0,2.2,3.1,23.67,23.67,0,0,0,2.7,2.8C627,556.8,628.1,557.7,629.5,559Z" transform="translate(0 0.05)"/><path class="cls-7" d="M506.2,91.5s-50.2-5.8-84.5,25.8-64.6,98.2-64.6,98.2-1.6-3.3,0,15,3.2,20-1.6,43.3-6.4,96.6.8,123.2,23.1,50,25.5,74.9,27.9,40.8,27.9,40.8,33.5,15,62.2,8.3,49.4-22.5,73.3-29.1,69.3-40,74.9-47.5,14.4-45,14.4-45l1.6-8.3s0,6.7,3.2,9.2,23.1,6.7,31.1-7.5,30.3-46.6,24.7-60.8-8.8-19.1-21.6-20.8S671.1,114,671.1,114Z" transform="translate(0 0.05)"/><path class="cls-8" d="M351.5,330.3s14.4,45.2,19.2,53.5,4,5.8,4,5.8,0-13.3,4.8-15,31.1-5.8,32.7-5,10.4,9.2,15.1,8.3,4-3.3,9.6-4.2,70.9,25,75.7,35-.8,33.3-2.4,40,13.5-9.2,22.3-26.6,94.8-72.4,100.4-94.1,14.3-5.8,14.3-5.8l-11,71.2s-13.7,48-14.9,49.6-57.7,48.1-80.9,50.7c0,0-69.2,32.5-81.6,29.1,0,0-36.4-2.5-49.1-10s-27.6-28.9-27.7-39.4-9.6-38.2-12.8-42.3-16.5-36.9-15.8-52.1S350.6,357.5,351.5,330.3Z" transform="translate(0 0.05)"/><path class="cls-7" d="M384.2,406.3c.3-.8,0-19.2,7.2-22.5s21.5,5.8,25.5,7.5,23.9,1.7,31.1,5,43.8,15.8,47.8,18.3,13.5,10.8.8,28.3-27.1,49.1-43.8,32.5-17.5-19.2-24.7-20-14.3,1.7-21.5,3.3-8,2.5-13.5-7.5S377,428.8,384.2,406.3Z" transform="translate(0 0.05)"/><path class="cls-4" d="M295,480.4A583.26,583.26,0,0,0,80.3,755c18.9-26.8,36.4-54.6,52.5-83.1,22.8-40.5,29.8-59.5,41.2-79.6C192.5,559.8,226.5,518,295,480.4Z" transform="translate(0 0.05)"/><path class="cls-9" d="M306.8,580.2l1.2.3Z" transform="translate(0 0.05)"/><path class="cls-10" d="M257.9,463.6l-3.8.8v.1Z" transform="translate(0 0.05)"/><path class="cls-11" d="M633,569s35.4,6.6,63.5,48.8,40,104.8,40,104.8l25,90.5Q734.8,725.5,708.1,638A191.35,191.35,0,0,0,666,590.4,194.21,194.21,0,0,0,633,569Z" transform="translate(0 0.05)"/><path class="cls-12" d="M675.5,70.3C656.2,46.4,597,15.8,597,15.8S518.9-30,445.6,34.1s-77.3,83.3-114,178.1c0,0-17.5,46.6,6.4,91.6,0,0,12,35.8-.8,53.3s-37.5,34.1-46.2,33.3a38.26,38.26,0,0,1-27.9-16.6,114.16,114.16,0,0,1-12-23.3l3.2,13.3-3.2-5.8,1.6,8.3L247.1,353v10l-2.4-5,1.6,8.3-3.2-3.3,2.4,7.5-4.8-6.7s27.1,48.3,48.6,49.1c8,.3,13.2.3,16.5.1-10.5,2-31.2,7.8-30,21.5,1.6,18.3,4,13.3,4,13.3l.8,3.3-.8,4.2s15.9-8.3,16.7-10.8,5.6-3.3,5.6-3.3-14.3,18.3-15.9,21.7a12.26,12.26,0,0,0-1.6,5s11.2-16.7,14.4-18.3,6.4,0,8,4.2a31.21,31.21,0,0,0,8.7,11.3c-3.8,8.8-7.1,17.8-7.1,22.9,0,10.8,3.5,29,8.5,36.8-3.1,1.9-5.3,3.2-6.1,3.2-1.3,0,2.8.3,8.5-.1a137.48,137.48,0,0,0,13.8,12.6l-2.4-4.2,2.8,3.7c-4.2,7.7-7.6,14.6-8.4,18a96.74,96.74,0,0,0-2.4,20s0-11.5,9.4-30.5l.1-.3c1.1-2.2,2.3-4.4,3.6-6.5l.4.7-.2-.8c4.5-6.5,1.8,6.7,1.8,6.7s-5.6,10-4.8,9.2,5.6-8.3,5.6-8.3L333.2,559l5.6-5.8-4,7.5,12.8-18.3s-14.3,22.4-13.5,31.6,1.6,17.5,1.6,17.5l.8-7.5,1.6,10.8s0-20,3.2-25,8-14.2,8-14.2a32.93,32.93,0,0,1-.8,11.7,156.23,156.23,0,0,0-3.2,21.6l-.8,8.3,2.4-4.2s3.2,9.2,3.2,8.3,1.6-8.3,1.6-8.3l12,19.1v-3.3l4,3.3-.8-5,5.6,3.3s-14.4-13.3-15.9-24.1a56.19,56.19,0,0,1,0-18.3s4,25.8,7.2,26.6l5.4,1.4c-1.9-.7-6.2-3.2-6.2-12.2v-8.3l2.3-10.8s2.4-22.5,11.2-37.5,8.8-15.8,8.8-15.8a50,50,0,0,1-2.4,21.7c-4,10.8-1.6,21.6-7.2,30s-9.6,14.2-9.6,14.2l-.8,10,4-7.5s9.6-7.5,10.4-10,7.2-21.7,7.2-27.5,8.8-20.8,8.8-20.8L401,506c-7.6-6.9-17.4-18.7-18.8-33.7-2.4-25-18.3-48.3-25.5-74.9s-5.6-99.9-.8-123.2,3.2-25,1.6-43.3,0-15,0-15,30.3-66.6,64.6-98.2S506.6,92,506.6,92l34.6,4.7c45.7,41.7,71.1,252.8,80.2,271.7,3.2,6.6,4.1,17.1,4,28.3-6.4,5.7-19.6,19.4-24.4,38.7a129.92,129.92,0,0,0-3.6,27.8c-39.5,29.1-57.4,31-57.4,31l-32.4,14.3s-10.5,18.9-16.9,27.2-9.6,40.8-8.7,49.1,16.7,53.3,16.7,53.3-7.2-20.8-9.6-28.3,12.8-39.1,12.8-39.1l2.4,16.7V564.1s8.8,18.3,4,31.6,6.4,42.5,6.4,42.5a150.38,150.38,0,0,1,0-30c1.6-16.7,9.6-10,9.6-10l-2.4,10L537,597.4l-12.8,18.3,14.3-7.5a116.41,116.41,0,0,1-3.2,14.2c-2.4,8.3,8.8,29.1,8.8,29.1a208.52,208.52,0,0,0,0-25c-.8-11.7,14.3-22.5,14.3-22.5l-.8,8.3,15.9-10.8s-3.2,10-5.6,14.2S582.2,604,597.4,599s24.7-33.3,38.3-51.6,14.3-37.5,15.1-29.1,16.7,20,21.5,45-24.7,38.3-24.7,38.3l12-4.2-4,7.5,11.2-6.7-2.4,6.7,8.8-6.7.8,6.7s8.8-22.5,13.5-36.6S676.3,510,676.3,510l14.3,30-8.7-44.2,14.3,27.5s-10.3-30-10.3-62.4,38.3-81.6,44.6-153.2S717.7,122.7,675.5,70.3ZM306.9,446.1c.8-4.2,12-14.2,14.3-13.3s4.8,1.7,4.8,6.7c0,2.4-4.2,11.3-8.5,21C309.5,451.8,306.2,450,306.9,446.1ZM326,516.2a57.08,57.08,0,0,1,.9-16.5c-6.3,1.4-11.2,2.3-11.2,2.3l11.2-2.4c1.7-10.1,4.8-19.6,6.3-21.7,0,0-4.6,11.2-3.3,21l.8-.2-.8.2a1.27,1.27,0,0,0,.1.6c1.6,10,2.4,13.3,2.4,13.3s-.2-6.5.2-14.5c7.2-1.5,14.2-3,14.9-3l-7.2,5.8h5.6l-4.8,2.5h5.6s-10.6,7.9-20.4,14.6C326.2,517.5,326.1,516.8,326,516.2Zm7.9,23.2-.6-4.1,1.4,2.6Zm1.4-2.7-.5-2.2,1.2,1a12.75,12.75,0,0,0-.7,1.2Zm2.3.2,2,1.7A11.2,11.2,0,0,1,337.6,536.9Zm-1.6-1.5a41.71,41.71,0,0,1-6.6-9c5.7-1.2,11-3.3,13.4-6.9,6.4-10,10.4-13.3,10.4-13.3s-9.3,15-17.2,29.2Zm17.9-79.1s3.2,5.8,1.6,7.5a33.21,33.21,0,0,0-3.2,4.2l4-2.5-2.4,4.2,5.6-.8S357.9,488,348.4,493c-3.8,2-9.9,3.9-15.7,5.4.4-7.4,1.4-16.1,3.7-22a30.15,30.15,0,0,1,2.5-5.1,69.94,69.94,0,0,0,10.2-.7,47.86,47.86,0,0,1-10,.4,48.28,48.28,0,0,1,14.8-14.7Zm247.4,3.3,3.2-16.2c-.3,3.6-.8,9.2-1.4,14.8ZM603,440c-1.1,6.4-1.8,15.2-2.2,20l-2.1,1.6c1.6-9.1,4.3-21.6,4.3-21.6Zm.8,17.7c.3-1.4.5-2.8.8-4.4,3.3-17.6,12.5-31.3,19.5-39.7-1.4,16.7-4,30.9-4,30.9-5.7,4.9-11.2,9.3-16.3,13.2Z" transform="translate(0 0.05)"/><path class="cls-13" d="M561.4,513s-9,6-7,15,16,33,16,33l-10-8v7l-10-15s1,36,14,44,16,11,15,11-18-9-18-9l7,9s-14,0-21-27-11-42-5-53,12.1-29,12.1-29l-.1,5,5-7-1,6s10-5,15-6c0,0-12,10-15,18,0,0,0-2,7,1a11.36,11.36,0,0,1,7,10A9.69,9.69,0,0,0,561.4,513Z" transform="translate(0 0.05)"/><path class="cls-7" d="M587.4,159.9s30.3,151.6,34.3,167.3,7.2,35.8,7.2,35.8,1.6-20,8-32.5,4.8-34.1,4-45.8,4.8-35,4.8-35Z" transform="translate(0 0.05)"/><path class="cls-13" d="M592.6,163.6s17.7,49.3,44.7,73.4C637.3,237,605.4,200.1,592.6,163.6Z" transform="translate(0 0.05)"/><path class="cls-13" d="M589.4,156.9s13.5,74.9,51.8,123.2C641.2,280.1,614.9,241.9,589.4,156.9Z" transform="translate(0 0.05)"/><path class="cls-13" d="M592.2,151.4s34.3,62.4,43,72.4S660,271.3,660,271.3s-16.7-45.8-21.5-55S592.2,151.4,592.2,151.4Z" transform="translate(0 0.05)"/><path class="cls-13" d="M580.3,161.4s37.5,183.1,41.4,193.1,7.2,18.3,7.2,18.3S581.1,162.4,580.3,161.4Z" transform="translate(0 0.05)"/><path class="cls-13" d="M569.1,105.7s-1.6,16.7,6.4,23.3S589,149,589,149a147.9,147.9,0,0,0-4-17.5C582.7,124,579.5,112.3,569.1,105.7Z" transform="translate(0 0.05)"/><path class="cls-13" d="M601,137.4s7.2,30.8,10.4,34.1,17.5,20.8,20.7,25.8,9.6,18.3,9.6,18.3l-6.4-18.3,15.1,23.3s-13.5-32.5-23.9-45S601,137.4,601,137.4Z" transform="translate(0 0.05)"/><path class="cls-13" d="M417.7,247.3c0-7.4-5.8-8.6-12.4-11.2-6.4-2.5-13.1,3.9-13.1,11.2a12.76,12.76,0,1,0,25.5,0Z" transform="translate(0 0.05)"/><path class="cls-13" d="M546.8,267.3c0-7.4-5.2-10.4-12.3-12.1-6.9-1.6-13.1,4.7-13.1,12.1a13,13,0,0,0,12.7,13.3h.1C541.1,280.5,546.8,274.5,546.8,267.3Z" transform="translate(0 0.05)"/><path class="cls-14" d="M503.8,263s15.1-12.5,32.7-5.8,23.9,19.2,23.9,19.2-9.6,5.8-12,6.7,13.5-5,14.3-5.8-8.8-15-25.5-21.6S503.8,263,503.8,263Z" transform="translate(0 0.05)"/><path class="cls-15" d="M411.3,239.8s-5.6-5.8-21.5-5-16.7,15.8-16.7,15.8.8,8.3,7.2,10c0,0-4.8,2.5-8.8-10,0,0,1.6-17.5,19.1-17.5S411.3,239.8,411.3,239.8Z" transform="translate(0 0.05)"/><path class="cls-13" d="M475.9,239.8c0-.8,4.8-16.6,20.7-19.1s58.2-2.5,87.7,16.6,5.6,10,5.6,10-37.5-8.3-77.3-9.1S475.9,239.8,475.9,239.8Z" transform="translate(0 0.05)"/><path class="cls-13" d="M414.5,230.6s-38.3-15-47-15-10.4.8-10.4,0,5.9-12.2,5.9-12.2,28.4,1.4,36.3,6.4S408.1,211.4,414.5,230.6Z" transform="translate(0 0.05)"/><path class="cls-16" d="M385.8,396.3a19.81,19.81,0,0,1,.8,3.3c0,.8,1.6-1.7,1.6-1.7s4,5,16.7,6.7c0,0,15.9,10,18.3,8.3,0,0,16.7,3.3,23.1.8,0,0,31.1,8.3,43,5.8h3.2c.8,0,3.2,1.7,3.2,1.7l-4-3.3" transform="translate(0 0.05)"/><path class="cls-17" d="M423.3,363c-.8-.2,8.8-10.8,15.1-8.3l12.8,5h-4s-.8,2.5-2.4,2.5-6.4-1.7-8.8-.8S428.9,364.6,423.3,363Z" transform="translate(0 0.05)"/><path class="cls-18" d="M550,417.9s-8,2.5-12,8.3-12.8,25-12.8,25,8-1.7,13.5-7.5S550,421.3,550,417.9Z" transform="translate(0 0.05)"/><ellipse class="cls-12" cx="534.4" cy="267.65" rx="4.4" ry="4.6"/><ellipse class="cls-12" cx="404.5" cy="247.65" rx="3.6" ry="3.8"/><path class="cls-18" d="M514.1,404.5c-2.5-1.5,12,10.8,8,17.5s-10.4,17.5-10.4,17.5,14.4-15,14.4-16.7S530.9,414.5,514.1,404.5Z" transform="translate(0 0.05)"/><g class="cls-19"><path class="cls-20" d="M460.2,252.1s-6.3,18.8-5.5,28.8,7.2,29.1,12,33.3,23.9,22.5,31.1,22.5,35.9,1.7,44.6-8.3,23.9-38.3,23.9-48.3-8.8-30-8.8-30S536.8,239.3,528,236s-32.7-3.3-32.7-3.3L470.6,241s-10.4,4.2-10.4,7.5v3.6Z" transform="translate(0 0.05)"/><path class="cls-21" d="M334.4,230.1l18.3-13.3,18.3-1.7,16.7,3.3s12.8,6.7,16.7,10S419.5,245,417.9,250s-1.6,33.3-5.6,35-15.1,24.1-25.5,25-24.7,10.8-46.2-17.5C340.8,292.5,324,261.8,334.4,230.1Z" transform="translate(0 0.05)"/></g><path class="cls-22" d="M457.5,273.9s6.4-7.5,10.4.8c0,0,3.2,14.1.8,19.1s-5.6,4.2-11.2,0S457.5,273.9,457.5,273.9Z" transform="translate(0 0.05)"/><path class="cls-8" d="M404.1,431.3s23.1,6.7,32.7,6.7h19.1l-10.4,6.7s-4.8.8-4.8,0,.8-.8,0-.8-8.8,3.3-8.8,3.3.8-4.2,0-4.2a36.18,36.18,0,0,0-5.6,1.7l-3.2-2.5-4.8,2.5-4-5Z" transform="translate(0 0.05)"/><path class="cls-13" d="M483,83.2s-41.4,5.8-58.2,20S381,132.4,381,132.4s25.5-16.6,27.1-19.1-22.3,14.1-27.9,14.1h-8s8.8,1.7,32.7-17.5l14.4-7.5c1.6-.8-21.5,5.8-23.1,7.5s-4.8,5-5.6,5,9.6-10.8,14.3-15-4.8-2.5-9.6-3.3-3.2-4.2-3.2-4.2,22.3-1.7,28.7-2.5,35.9-12.5,47-10.8S483,83.2,483,83.2Z" transform="translate(0 0.05)"/><path class="cls-13" d="M619.3,455.4s-13.5,67.4-47,79.9c0,0,40.7-15.8,50.2-59.1s11.2-48.3,11.2-48.3-7.2,15-6.4,14.2,1.6-10.8,1.6-10.8Z" transform="translate(0 0.05)"/><path class="cls-13" d="M597,70s32.7,38.3,37.5,46.6,12.8,30.9,12.8,30.9-19.1-40.8-27.9-45.8c0,0,8,19.1,12,27.5s4,20,4,20l-3.2-10.8v6.7S616.3,101,592.4,75.2h4.8Z" transform="translate(0 0.05)"/><path class="cls-23" d="M642.4,280.5l-61.4-25-14.3-5c-35.1-19.1-46.2-18.3-63.7-20s-39.9,13.3-42.2,14.2-5.6,14.1-5.6,14.1-10.4,38.3,15.1,62.4,46.2,18.3,55.8,15.8,12.8-3.3,26.3-18.3,15.9-45,17.5-50,10.4-3.3,10.4-3.3c12-3.3,65.3,22.5,65.3,22.5Zm-86.8,25c-13.5,32.5-43.8,30.8-43.8,30.8s-23.1,5-47.8-28.3c0,0-7.2-9.2-7.2-30.8,0,0-2.4-22.5,11.2-33.3s36.7-10.8,52.6-7.5,26.3,7.5,31.1,13.3,17.4,23.3,3.9,55.8Z" transform="translate(0 0.05)"/><path class="cls-23" d="M456,274.8c0-.8,3.2-6.7,5.6-3.3a23,23,0,0,1,3.2,6.7s1.6-.8,2.4,0,1.6,4.2,1.6,4.2l-.8,3.3a30.61,30.61,0,0,1-4.8,1.7c-.8,0-2.4,0-2.4-.8a55,55,0,0,0-1.6-5.8l3.2-2.5-1.6-4.2h-2.4s0,10-.8,10.8l-1.6,1.7Z" transform="translate(0 0.05)"/><path class="cls-23" d="M419.3,265.5a85.14,85.14,0,0,1,3.2-15.8l-.8-10s-4,.8-10.4-6.7-12.8-10.8-23.9-15.8-30.3-5-40.6-.8-22.3,5-22.3,5c-2.4,3.3,0,7.5,0,7.5,6.4,1.7,6.4,5.8,6.4,5.8s-9.6,41.6,14.4,64.9,38,13.5,47.8,9.2c11.1-5,24.7-29.1,24.7-29.1s1.6.8,1.6,0,2.4-5,2.4-5.8-1.6-1.7-1.6-2.5,1.6-5,1.6-5.8S419.3,265.5,419.3,265.5Zm-6.4,10.8c-5.6,21.6-23.9,30.8-23.9,30.8s-15.9,10-33.5-2.5c0,0-12.8-7.5-15.9-19.1,0,0-11.2-22.5-4-47.5s34.7-22.2,34.7-22.2,26.7,3,36.3,16.4,11.9,22.6,6.3,44.1Z" transform="translate(0 0.05)"/><path class="cls-23" d="M421.6,252.8s1.3-6.8,5.3-7.6,19.1,0,24.7,5.8,1.9,18,1.9,18l10.4-25.9s-3.5,2.9-11.5.4-24.7-5-31.9-3.3Z" transform="translate(0 0.05)"/><path class="cls-12" d="M642.4,280.5l-61.4-25-14.3-5c-35.1-19.1-46.2-18.3-63.7-20s-39.9,13.3-42.2,14.2-5.6,14.1-5.6,14.1-10.4,38.3,15.1,62.4,46.2,18.3,55.8,15.8,12.8-3.3,26.3-18.3,15.9-45,17.5-50,10.4-3.3,10.4-3.3c12-3.3,65.3,22.5,65.3,22.5Zm-86.8,25c-13.5,32.5-43.8,30.8-43.8,30.8s-23.1,5-47.8-28.3c0,0-7.2-9.2-7.2-30.8,0,0-2.4-22.5,11.2-33.3s36.7-10.8,52.6-7.5,26.3,7.5,31.1,13.3,17.4,23.3,3.9,55.8Z" transform="translate(0 0.05)"/><path class="cls-12" d="M456,274.8c0-.8,3.2-6.7,5.6-3.3a23,23,0,0,1,3.2,6.7s1.6-.8,2.4,0,1.6,4.2,1.6,4.2l-.8,3.3a30.61,30.61,0,0,1-4.8,1.7c-.8,0-2.4,0-2.4-.8a55,55,0,0,0-1.6-5.8l3.2-2.5-1.6-4.2h-2.4s0,10-.8,10.8l-1.6,1.7Z" transform="translate(0 0.05)"/><path class="cls-12" d="M419.3,265.5a85.14,85.14,0,0,1,3.2-15.8l-.8-10s-4,.8-10.4-6.7-12.8-10.8-23.9-15.8-30.3-5-40.6-.8-22.3,5-22.3,5c-2.4,3.3,0,7.5,0,7.5,6.4,1.7,6.4,5.8,6.4,5.8s-9.6,41.6,14.4,64.9,38,13.5,47.8,9.2c11.1-5,24.7-29.1,24.7-29.1s1.6.8,1.6,0,2.4-5,2.4-5.8-1.6-1.7-1.6-2.5,1.6-5,1.6-5.8S419.3,265.5,419.3,265.5Zm-6.4,10.8c-5.6,21.6-23.9,30.8-23.9,30.8s-15.9,10-33.5-2.5c0,0-12.8-7.5-15.9-19.1,0,0-11.2-22.5-4-47.5s34.7-22.2,34.7-22.2,26.7,3,36.3,16.4,11.9,22.6,6.3,44.1Z" transform="translate(0 0.05)"/><path class="cls-12" d="M421.6,252.8s1.3-6.8,5.3-7.6,19.1,0,24.7,5.8,1.9,18,1.9,18l10.4-25.9s-3.5,2.9-11.5.4-24.7-5-31.9-3.3Z" transform="translate(0 0.05)"/><path class="cls-13" d="M538.7,83.4s5.3-7.3-11.4-9.8-33.5,0-33.5,0,35.1-9.2,39-5.8S545.3,71.6,538.7,83.4Z" transform="translate(0 0.05)"/><path class="cls-24" d="M426.1,244.4s8.8,8.3,1.6,23.3-22.3,49.1-25.5,52.5-15.1,20-4,30.8c0,0-5.6-3.3-5.6-11.7s5.6-16.6,9.6-20l24.7-52.4C426.8,266.8,429.3,253.4,426.1,244.4Z" transform="translate(0 0.05)"/><path class="cls-24" d="M399.8,353.4s8,5.8,9.6,7.5,0-1.7,0-1.7,3.2,2.5,5.6,4.2a25.12,25.12,0,0,1,3.2,2.5s-10.4-1.7-12.8-5S399.8,353.4,399.8,353.4Z" transform="translate(0 0.05)"/><path class="cls-13" d="M696.2,161.9s46.3,91.6,16.7,182.3-33.5,86.6-33.5,103.2v29.1s-7.2-23.3-7.2-31.6,31.1-80.8,32.7-105.7S733.7,330.9,696.2,161.9Z" transform="translate(0 0.05)"/><path class="cls-13" d="M667.5,455.8s7.2,20.8,9.6,30,3.2,24.8,3.2,24.8Z" transform="translate(0 0.05)"/><path class="cls-13" d="M663.5,467.4s3.2,20,4,29.1,0,18.3,4.8,26.6a62.73,62.73,0,0,1,8,23.3c.8,6.7-5.6-13.3-9.6-20s-8-20.8-7.2-31.6S663.5,467.4,663.5,467.4Z" transform="translate(0 0.05)"/><path class="cls-4" d="M80.5,771s-1,16,3,22,19-17,19-17L80.4,813H33.6s21.9-34,27.9-51-8,39-8,39,7,3,8-12,4-3,4-3,3,14,3,13,0-33,5-47,10-19,10-19-10,19-8,37a33.45,33.45,0,0,1,5-16c5-8,8-11,8-11S80.5,761,80.5,771Z" transform="translate(0 0.05)"/><path class="cls-13" d="M662.8,163.6s34.3,30,36.7,69.1,12,55.8,12,55.8-19.2-40.8-19.9-58.3S674.7,178.6,662.8,163.6Z" transform="translate(0 0.05)"/><path class="cls-13" d="M634.9,56.1s48.6,15.8,63,78.2C697.8,134.4,682.7,77.8,634.9,56.1Z" transform="translate(0 0.05)"/><path class="cls-13" d="M649.2,68.6s30.3,19.1,39.8,49.9C689,118.6,679.5,92,649.2,68.6Z" transform="translate(0 0.05)"/><path class="cls-13" d="M662,82.8s12,10.8,17.5,20.8Z" transform="translate(0 0.05)"/><path class="cls-13" d="M537.6,53.6s-17.5-4.2-37.4,5.8S444.4,62.7,430.9,71s-23.1,13.3-25.5,13.3H399c.8,0,18.3-6.7,30.3-15.8s63-4.2,68.5-12.5a59.88,59.88,0,0,1-31.1,2.5C450,55.2,430,61,430,61S479.5,33.6,537.6,53.6Z" transform="translate(0 0.05)"/><path class="cls-13" d="M624.5,417.5s-7.6,18.5-10.6,32.1Z" transform="translate(0 0.05)"/><path class="cls-13" d="M595.6,171.1s32.1,82.4,47.6,90.3a29.8,29.8,0,0,1-13.9-12.1C623.7,240.1,595.6,171.1,595.6,171.1Z" transform="translate(0 0.05)"/></g></svg>