<svg xmlns="http://www.w3.org/2000/svg" width="232" height="88" fill="#fff"><path d="M65.406 60.784c0 .73-.65 1.278-1.369 1.21-9.233-.913-16.472-8.605-16.472-17.94s7.215-17.027 16.472-17.94c.742-.069 1.369.502 1.369 1.21v6.185a1.23 1.23 0 0 1-1.044 1.21c-4.57.708-8.073 4.611-8.073 9.312s3.503 8.605 8.073 9.312a1.23 1.23 0 0 1 1.044 1.21v6.231zm18.723-15.018c-.812 8.491-7.633 15.292-16.24 16.205-.742.069-1.392-.479-1.392-1.21v-6.208c0-.593.441-1.095 1.021-1.21 4.037-.685 7.215-3.88 7.818-7.874.093-.593.626-1.027 1.23-1.027h6.287c.766-.023 1.346.616 1.276 1.324zm-18.7-9.837v7.258c0 .685.557 1.233 1.253 1.233h7.47c.742 0 1.322-.639 1.23-1.37-.534-4.382-3.642-7.783-8.561-8.331-.742-.091-1.392.479-1.392 1.21zm8.77-8.651c0 .457.255.867.65 1.096 2.9 1.621 5.313 3.994 6.96 6.847a1.3 1.3 0 0 0 1.114.639h.023c.696 0 1.276-.571 1.276-1.255v-7.349c0-.685-.58-1.255-1.276-1.255h-7.47c-.696.023-1.276.571-1.276 1.278zm26.726 24.513h-1.114c-4.362 0-8.004-3.447-7.981-7.76.023-4.223 3.503-7.646 7.795-7.669 4.361-.023 7.888 3.561 7.888 7.852v6.665c0 .502-.418.913-.928.913h-2.111c-.511 0-.928-.411-.928-.913v-6.71c0-2.054-1.717-3.857-3.805-3.903-2.204-.046-4.013 1.735-3.967 3.903.046 2.054 1.879 3.743 3.967 3.743h1.16c.51 0 .928.411.928.913v2.077c.023.479-.395.89-.905.89zm80.945 0h-1.137c-4.362 0-8.004-3.447-7.981-7.76.023-4.223 3.503-7.646 7.795-7.669 4.362-.023 7.888 3.561 7.888 7.852v6.665c0 .502-.417.913-.928.913h-2.111c-.51 0-.928-.411-.928-.913v-6.71c0-2.054-1.717-3.857-3.805-3.903-2.204-.046-4.013 1.735-3.967 3.903.046 2.054 1.879 3.743 3.967 3.743h1.16c.511 0 .928.411.928.913v2.077c.023.479-.371.89-.881.89zm-57.699.001h-2.111c-.51 0-.928-.411-.928-.913v-6.71c0-2.145-1.786-3.949-3.944-3.903-2.111.046-3.828 1.735-3.828 3.812v6.802c0 .502-.417.913-.928.913h-2.111c-.51 0-.928-.411-.928-.913v-6.665c0-4.222 3.387-7.76 7.679-7.829 4.385-.091 7.981 3.401 7.981 7.715v6.802c.046.502-.371.89-.882.89zm39.231-15.567a7.9 7.9 0 0 0-5.87 2.602c-1.438-1.598-3.526-2.602-5.869-2.602-4.315 0-7.842 3.583-7.842 7.829v6.688c0 .502.418.913.928.913h2.111c.511 0 .928-.411.928-.913v-6.71c0-2.146 1.787-3.949 3.944-3.903 2.112.046 3.828 1.735 3.828 3.812v6.802c0 .502.418.913.928.913h2.112c.51 0 .928-.411.928-.913v-6.71c0-2.146 1.786-3.949 3.944-3.903 2.111.046 3.828 1.735 3.828 3.812v6.802c0 .502.417.913.928.913h2.111c.51 0 .928-.411.928-.913v-6.688c-.024-4.222-3.55-7.829-7.865-7.829zm-28.93 15.567c-4.315 0-7.842-3.469-7.842-7.715s3.527-7.715 7.842-7.715 7.841 3.469 7.841 7.715-3.526 7.715-7.841 7.715zm0-11.526c-2.134 0-3.874 1.712-3.874 3.812s1.74 3.812 3.874 3.812 3.874-1.712 3.874-3.812-1.74-3.812-3.874-3.812z"/></svg>