<svg width="163" height="50" viewBox="0 0 163 50" fill="none" xmlns="http://www.w3.org/2000/svg">
<g clip-path="url(#clip0_2534_13)">
<path fill-rule="evenodd" clip-rule="evenodd" d="M25.3074 5.77185L40.2696 20.7341C42.6321 23.0966 42.6321 26.9152 40.2696 29.2776L25.2776 44.2696C22.9152 46.6321 19.0966 46.6321 16.7341 44.2696L1.77185 29.3074C-0.590616 26.9449 -0.590616 23.1263 1.77185 20.7638L16.7638 5.77185C19.1263 3.40938 22.9449 3.40938 25.3074 5.77185ZM20.0178 9.56071L19.9584 9.62014L5.62014 23.9584C5.05553 24.523 5.02581 25.4293 5.56071 26.0385L5.62014 26.098L19.9435 40.4213C20.5081 40.986 21.4293 41.0157 22.0237 40.4808L22.0831 40.4213L36.4213 26.0831C37.0157 25.4888 37.0157 24.5378 36.4213 23.9435L22.098 9.62014C21.5333 9.05553 20.627 9.02581 20.0178 9.56071ZM21.2808 15.8755L30.1511 24.7459C30.2997 24.8944 30.2997 25.1322 30.1511 25.2808L21.2659 34.166C21.1173 34.3146 20.8796 34.3146 20.731 34.166L11.8606 25.2956C11.712 25.147 11.712 24.9093 11.8606 24.7607L20.7459 15.8755C20.8944 15.7269 21.1322 15.7269 21.2808 15.8755Z" fill="#1F774D"/>
<path d="M61.3106 8.85095L49.3179 40.6974H54.9204L57.6102 33.4195H71.2822L74.0166 40.6974H79.7082L67.7007 8.85095H61.3106ZM64.4016 15.1425L69.4246 28.443H59.453L64.3868 15.1425H64.4016ZM100.558 36.1692H88.3423L100.424 21.449V17.4141H81.863V21.9422H94.1232L81.6847 36.7072V40.6974H100.558V36.1692ZM105.848 34.8392C105.848 39.5915 108.226 40.9664 112.64 40.9664C114.007 40.9664 115.33 40.8319 116.295 40.6526V36.1692C115.508 36.2589 115.017 36.3037 114.141 36.3037C112.238 36.3037 111.05 36.0796 111.05 34.0023V21.9422H115.894V17.4141H111.05V10.5845H105.848V17.4141H102.624V21.9422H105.848V34.8541V34.8392ZM129.611 41.1905C134.247 41.1905 137.903 38.7546 139.538 34.6748L134.99 32.9413C134.292 35.3324 132.211 36.6624 129.611 36.6624C126.208 36.6624 123.83 34.2265 123.429 30.2363H139.657V28.458C139.657 22.0767 136.09 16.9657 129.373 16.9657C122.656 16.9657 118.346 22.2411 118.346 29.0707C118.346 36.2589 122.983 41.1756 129.596 41.1756L129.611 41.1905ZM129.343 21.449C132.702 21.449 134.277 23.6608 134.322 26.2312H123.696C124.484 23.078 126.609 21.449 129.343 21.449ZM147.473 29.0707C147.473 24.3184 149.94 21.5238 153.566 21.5238C156.39 21.5238 158.114 23.4366 158.768 25.9622L163.226 23.5263C161.992 19.8052 158.545 16.9657 153.566 16.9657C146.953 16.9657 142.183 21.8824 142.183 29.0707C142.183 36.2589 146.953 41.1756 153.566 41.1756C158.589 41.1756 162.126 38.2017 163.315 34.4357L158.768 32.1343C158.114 34.7047 156.39 36.5727 153.566 36.5727C149.955 36.5727 147.473 33.823 147.473 29.0707Z" fill="#1F774D"/>
</g>
<defs>
<clipPath id="clip0_2534_13">
<rect width="163" height="50" fill="white"/>
</clipPath>
</defs>
</svg>
