<svg xmlns="http://www.w3.org/2000/svg" width="232" height="88" fill="#fff" xmlnsV="https://vecta.io/nano"><path d="M150.165 59.507l3.494-1.113V29.04l-3.494 1.113v29.354zm-40.3-17.811c2.194 0 4.225.989 5.525 2.639l1.422-3.34c-1.868-1.814-4.347-2.68-6.947-2.68-6.012 0-10.156 4.824-10.115 10.142.041 5.772 4.509 10.472 10.115 10.472 2.844 0 4.997-.866 6.622-2.061v-4.082c-1.706 1.732-4.184 2.762-6.337 2.762-3.25 0-6.906-2.68-6.906-7.091 0-4.082 3.168-6.761 6.621-6.761zm23.238-3.381c-6.013 0-9.506 4.824-9.506 10.142 0 5.772 4.509 10.472 10.115 10.472 2.844 0 4.997-.866 6.622-2.061v-4.082c-1.706 1.732-4.184 2.762-6.337 2.762-2.885 0-6.053-1.814-6.703-5.648h15.315v-1.36c0-5.689-3.697-10.224-9.506-10.224zm37.741 0c-5.607 0-10.157 4.618-10.157 10.307s4.55 10.307 10.157 10.307S181 54.312 181 48.623s-4.55-10.307-10.156-10.307zm-37.7 3.381c2.721 0 5.606 1.732 5.85 5.071h-11.7c.243-3.34 3.128-5.071 5.85-5.071zm37.7 13.853c-1.35 0-2.67-.406-3.792-1.167s-1.997-1.843-2.514-3.108a7.02 7.02 0 0 1-.388-4.002 6.95 6.95 0 0 1 1.868-3.546 6.79 6.79 0 0 1 3.494-1.895 6.73 6.73 0 0 1 3.943.394 6.85 6.85 0 0 1 3.063 2.551 7 7 0 0 1 .634 6.5 6.94 6.94 0 0 1-1.479 2.249 6.79 6.79 0 0 1-2.216 1.501 6.73 6.73 0 0 1-2.613.524zm-104.61 4.412c6.17 0 11.172-5.076 11.172-11.338s-5.002-11.338-11.172-11.338-11.172 5.076-11.172 11.338 5.002 11.338 11.172 11.338zm0 4.123C57.821 64.084 51 57.162 51 48.623s6.821-15.461 15.234-15.461 15.234 6.922 15.234 15.461-6.821 15.461-15.234 15.461z"/><path d="M74.359 51.715c6.17 0 11.172-5.076 11.172-11.338S80.53 29.04 74.359 29.04s-11.172 5.076-11.172 11.338 5.002 11.338 11.172 11.338zm0 4.123c-8.413 0-15.234-6.922-15.234-15.461s6.821-15.46 15.234-15.46 15.234 6.922 15.234 15.46-6.821 15.461-15.234 15.461z"/><path d="M74.859 55.83c1.056-1.298 1.813-2.819 2.215-4.453 1.609-.408 3.108-1.176 4.388-2.247-.058 1.891-.46 3.755-1.184 5.498-1.718.735-3.555 1.143-5.418 1.202h0zM63.52 37.623a11.08 11.08 0 0 0-4.387 2.247c.058-1.891.46-3.754 1.184-5.498a14.98 14.98 0 0 1 5.418-1.201 11.37 11.37 0 0 0-2.215 4.452z"/></svg>