<svg width="123" height="15" viewBox="0 0 123 15" fill="none" xmlns="http://www.w3.org/2000/svg">
<g clip-path="url(#clip0_2027_20)">
<path d="M1.99281 1.97756H0V13.0224H1.99281V8.4993H7.99239V6.52174H1.99281V1.97756ZM9.9852 15H1.99281V13.0224H9.9852V15ZM9.9852 1.97756H1.99281V0H9.9852V1.97756Z" fill="black"/>
<path d="M17.9867 15H15.9939V1.97756H11.9871V0H21.9935V1.97756H17.9867V15Z" fill="black"/>
<path d="M33.98 0H35.9729V15H33.98V8.4993H25.9876V15H23.9949V0H25.9876V6.52174H33.98V0Z" fill="black"/>
<path d="M47.6142 0L45.9366 2.49999L44.259 0H47.6142Z" fill="black"/>
<path fill-rule="evenodd" clip-rule="evenodd" d="M47.6142 5.00001L49.292 2.5H45.9367H42.5814L44.2591 5.00001H40.9038L42.5814 7.50001L40.9038 10H44.2591L42.5814 12.5H45.9367L44.2591 15H47.6142L45.9367 12.5H49.292L47.6142 10H50.9696L49.292 7.50001L50.9696 5.00001H47.6142ZM47.6142 5.00001L45.9367 2.5L44.2591 5.00001L42.5814 7.50001L44.2591 10L45.9367 12.5L47.6142 10L49.292 7.50001L47.6142 5.00001Z" fill="black"/>
<path fill-rule="evenodd" clip-rule="evenodd" d="M43.9976 7.5L45.9194 4.59375L47.8413 7.5L45.9194 10.4063L43.9976 7.5Z" fill="black"/>
<path d="M65.4794 13.0252V15H57.5592V13.0252H65.4794ZM55.5845 0.0209961H57.5592V13.0252H55.5845V0.0209961Z" fill="black"/>
<path d="M71.4128 1.99579V0.0209961H75.3623V1.99579H71.4128ZM71.4128 3.97058H69.4379V1.99579H71.4128V3.97058ZM79.3118 3.97058V15H77.3371V10.4832H69.4379V15H67.4631V3.97058H69.4379V8.5084H77.3371V3.97058H79.3118ZM75.3623 3.97058V1.99579H77.3371V3.97058H75.3623Z" fill="black"/>
<path d="M85.3458 15H87.3415V1.68067H92.3416V0H80.3457V1.68067H85.3458V15Z" fill="black"/>
<path d="M97.304 1.99579V0.0209961H101.253V1.99579H97.304ZM97.304 3.97058H95.3292V1.99579H97.304V3.97058ZM105.203 3.97058V15H103.228V10.4832H95.3292V15H93.3545V3.97058H95.3292V8.5084H103.228V3.97058H105.203ZM101.253 3.97058V1.99579H103.228V3.97058H101.253Z" fill="black"/>
<path d="M107.875 15H109.766V2.52101H109.808L114.493 15H116.195L120.88 2.52101H120.922V15H122.812V0H120.081L115.333 12.605L110.607 0H107.875V15Z" fill="black"/>
</g>
<defs>
<clipPath id="clip0_2027_20">
<rect width="122.812" height="15" fill="white"/>
</clipPath>
</defs>
</svg>
