<svg width="165" height="74" viewBox="0 0 165 74" fill="none" xmlns="http://www.w3.org/2000/svg">
<g clip-path="url(#clip0_2755_21)">
<path d="M42.9676 51.1156C40.5793 49.1472 32.3166 42.5639 31.2189 41.6886C31.8417 40.5141 32.1623 39.2036 32.1518 37.8749C32.1414 36.5463 31.8003 35.241 31.1592 34.0764L40.345 27.1356L43.0319 24.961C43.6933 24.5233 43.8012 24.0444 43.3213 23.4051C42.6952 22.5842 42.018 21.8036 41.2935 21.0678C37.3239 17.0311 32.0524 14.5241 26.4101 13.9895V9.37451C26.4182 8.78276 26.202 8.20979 25.8046 7.77041C25.4073 7.33103 24.8582 7.05769 24.2675 7.00515C23.9532 6.98409 23.638 7.02777 23.3413 7.13346C23.0447 7.23915 22.773 7.40459 22.5432 7.61951C22.3134 7.83443 22.1304 8.09422 22.0055 8.38273C21.8805 8.67125 21.8165 8.98232 21.8172 9.2966V13.9895C19.8586 14.174 17.9303 14.5988 16.076 15.2544V9.37451C16.0841 8.78276 15.8679 8.20979 15.4705 7.77041C15.0732 7.33103 14.5242 7.05769 13.9334 7.00515C13.6191 6.98409 13.3039 7.02777 13.0073 7.13346C12.7106 7.23915 12.439 7.40459 12.2091 7.61951C11.9793 7.83443 11.7963 8.09422 11.6714 8.38273C11.5465 8.67125 11.4824 8.98232 11.4831 9.2966V17.4427C8.00178 19.5786 5.12164 22.5623 3.11313 26.1136C1.10461 29.6649 0.0336259 33.6673 0.000745014 37.745C-0.104892 51.0858 11.0376 62 24.4076 62H42.2557C42.5811 61.9997 42.8958 61.8845 43.1443 61.6748C43.3927 61.4651 43.5587 61.1744 43.6129 60.8543L43.6313 52.5317C43.6321 52.2615 43.573 51.9943 43.4583 51.7495C43.3436 51.5047 43.176 51.2882 42.9676 51.1156ZM39.0406 57.4171H24.3548C13.5614 57.4171 4.54086 48.6088 4.60516 37.8412C4.61541 35.0334 5.2356 32.2612 6.42297 29.7156C7.61035 27.17 9.3367 24.9115 11.4831 23.0957V27.5503C11.4749 28.1421 11.6912 28.715 12.0885 29.1544C12.4859 29.5938 13.0349 29.8671 13.6257 29.9197C13.9399 29.9407 14.2552 29.8971 14.5518 29.7914C14.8484 29.6857 15.1201 29.5202 15.3499 29.3053C15.5797 29.0904 15.7628 28.8306 15.8877 28.5421C16.0126 28.2536 16.0767 27.9425 16.076 27.6282V20.1925C18.6007 19.0498 21.3414 18.4599 24.1136 18.4624C29.2485 18.4624 33.5751 20.1627 37.0611 23.3959L27.6846 30.7561C26.457 30.1482 25.0939 29.8637 23.725 29.9296C22.3561 29.9954 21.0268 30.4094 19.8634 31.1323C18.7001 31.8551 17.7412 32.8628 17.0781 34.0595C16.4149 35.2563 16.0694 36.6023 16.0745 37.9698C16.0795 39.3373 16.4349 40.6808 17.1069 41.8726C17.7788 43.0645 18.745 44.0651 19.9137 44.7794C21.0824 45.4937 22.4147 45.8979 23.784 45.9537C25.1534 46.0096 26.5143 45.7151 27.7374 45.0982L27.6203 45.2037L39.0406 53.9799V57.4171ZM27.5583 37.9398C27.5583 38.6196 27.3563 39.2841 26.9778 39.8493C26.5993 40.4146 26.0613 40.8551 25.4319 41.1153C24.8024 41.3754 24.1098 41.4435 23.4416 41.3109C22.7734 41.1783 22.1596 40.8509 21.6779 40.3702C21.1961 39.8895 20.868 39.2771 20.7351 38.6103C20.6022 37.9436 20.6704 37.2525 20.9311 36.6244C21.1919 35.9963 21.6334 35.4595 22.1999 35.0818C22.7663 34.7042 23.4323 34.5026 24.1136 34.5026C25.0272 34.5026 25.9034 34.8647 26.5494 35.5093C27.1954 36.1539 27.5583 37.0282 27.5583 37.9398Z" fill="#1F774D"/>
<path d="M39.015 38.1046C39.0183 40.9936 38.167 43.8216 36.5643 46.2452C37.7978 47.2166 39.0641 48.2133 40.1783 49.0951C42.4088 45.8829 43.611 42.0907 43.6311 38.2041C43.6511 34.3175 42.4879 30.5135 40.2907 27.2794L36.6111 30.019C38.1869 32.4319 39.0214 35.2389 39.015 38.1046V38.1046Z" fill="#1F774D"/>
<path d="M64.7944 36.9079H73.0864C73.0864 37.7771 73.0509 38.5667 72.9798 39.2765C72.9087 39.9864 72.7666 40.6455 72.5534 41.254C72.255 42.1087 71.85 42.8694 71.3385 43.5358C70.8268 44.1877 70.2229 44.7382 69.5265 45.1874C68.8445 45.6219 68.0913 45.9552 67.267 46.187C66.4429 46.4187 65.576 46.5347 64.6665 46.5347C63.4159 46.5347 62.272 46.3246 61.2346 45.9044C60.2114 45.4844 59.3304 44.8976 58.5914 44.1443C57.8525 43.3765 57.2769 42.4637 56.8648 41.4061C56.4526 40.3341 56.2466 39.1534 56.2466 37.8641C56.2466 36.5892 56.4456 35.4229 56.8436 34.3653C57.2556 33.2933 57.8311 32.3806 58.5702 31.6272C59.3232 30.8739 60.2257 30.2871 61.2773 29.867C62.3289 29.4468 63.5013 29.2368 64.7944 29.2368C66.4713 29.2368 67.942 29.6063 69.2068 30.3452C70.4715 31.0839 71.4734 32.2284 72.2124 33.7786L68.2476 35.4519C67.8781 34.5536 67.3949 33.909 66.7982 33.5178C66.2154 33.1267 65.5476 32.9311 64.7944 32.9311C64.1691 32.9311 63.6007 33.0543 63.0891 33.3005C62.5776 33.5324 62.137 33.8728 61.7675 34.3219C61.4122 34.7565 61.128 35.2852 60.9149 35.9082C60.7159 36.5311 60.6165 37.2266 60.6165 37.9945C60.6165 38.6898 60.7017 39.3344 60.8722 39.9285C61.057 40.5224 61.327 41.0367 61.6823 41.4713C62.0375 41.906 62.478 42.2464 63.0039 42.4928C63.5296 42.7245 64.1407 42.8405 64.8371 42.8405C65.2492 42.8405 65.647 42.797 66.0308 42.7101C66.4144 42.6086 66.7555 42.4564 67.0539 42.2537C67.3666 42.0364 67.6223 41.7611 67.8213 41.4279C68.0202 41.0947 68.1552 40.689 68.2262 40.211H64.7944V36.9079Z" fill="#1F774D"/>
<path d="M82.0368 29.5823V45.9674H77.8587V29.5823H82.0368Z" fill="#1F774D"/>
<path d="M93.6222 33.1895V45.9674H89.4443V33.1895H86.0123V29.5823H97.0541V33.1895H93.6222Z" fill="#1F774D"/>
<path d="M112.473 35.1692C111.507 33.9666 110.313 33.3654 108.892 33.3654C108.267 33.3654 107.684 33.4814 107.144 33.7131C106.618 33.945 106.163 34.2637 105.78 34.6693C105.396 35.0605 105.09 35.5313 104.863 36.0818C104.65 36.6324 104.543 37.2263 104.543 37.8638C104.543 38.5157 104.65 39.1169 104.863 39.6675C105.09 40.2179 105.396 40.696 105.78 41.1017C106.178 41.5073 106.639 41.8261 107.165 42.0579C107.691 42.2896 108.259 42.4056 108.871 42.4056C110.206 42.4056 111.407 41.8261 112.473 40.667V45.7086L112.047 45.8607C111.407 46.0926 110.81 46.2592 110.256 46.3606C109.702 46.4765 109.155 46.5344 108.615 46.5344C107.506 46.5344 106.44 46.3244 105.417 45.9042C104.408 45.4695 103.513 44.8683 102.731 44.1006C101.964 43.3182 101.346 42.3983 100.877 41.3407C100.408 40.2687 100.174 39.1024 100.174 37.8421C100.174 36.5816 100.401 35.43 100.856 34.3868C101.325 33.3292 101.943 32.4238 102.71 31.6704C103.492 30.9027 104.394 30.3086 105.417 29.8885C106.44 29.4539 107.513 29.2366 108.636 29.2366C109.276 29.2366 109.901 29.3091 110.512 29.4539C111.137 29.5843 111.791 29.7943 112.473 30.0841V35.1692Z" fill="#1F774D"/>
<path d="M121.122 37.8856C121.122 38.5374 121.243 39.1386 121.484 39.6892C121.726 40.2397 122.053 40.7178 122.465 41.1234C122.877 41.529 123.353 41.8478 123.893 42.0796C124.447 42.2969 125.03 42.4056 125.641 42.4056C126.252 42.4056 126.827 42.2969 127.367 42.0796C127.922 41.8478 128.405 41.529 128.817 41.1234C129.243 40.7178 129.577 40.2397 129.819 39.6892C130.06 39.1386 130.181 38.5374 130.181 37.8856C130.181 37.2336 130.06 36.6324 129.819 36.0818C129.577 35.5313 129.243 35.0532 128.817 34.6476C128.405 34.242 127.922 33.9304 127.367 33.7131C126.827 33.4814 126.252 33.3654 125.641 33.3654C125.03 33.3654 124.447 33.4814 123.893 33.7131C123.353 33.9304 122.877 34.242 122.465 34.6476C122.053 35.0532 121.726 35.5313 121.484 36.0818C121.243 36.6324 121.122 37.2336 121.122 37.8856ZM116.752 37.8856C116.752 36.6686 116.972 35.5386 117.413 34.4955C117.853 33.4379 118.464 32.518 119.246 31.7356C120.028 30.9533 120.958 30.3449 122.038 29.9103C123.133 29.4612 124.334 29.2366 125.641 29.2366C126.934 29.2366 128.128 29.4612 129.222 29.9103C130.316 30.3449 131.254 30.9533 132.036 31.7356C132.832 32.518 133.45 33.4379 133.89 34.4955C134.331 35.5386 134.551 36.6686 134.551 37.8856C134.551 39.1024 134.331 40.2397 133.89 41.2972C133.45 42.3404 132.832 43.253 132.036 44.0354C131.254 44.8177 130.316 45.4334 129.222 45.8825C128.128 46.3171 126.934 46.5344 125.641 46.5344C124.334 46.5344 123.133 46.3171 122.038 45.8825C120.958 45.4334 120.028 44.8177 119.246 44.0354C118.464 43.253 117.853 42.3404 117.413 41.2972C116.972 40.2397 116.752 39.1024 116.752 37.8856Z" fill="#1F774D"/>
<path d="M143.499 29.5823V45.9674H139.322V29.5823H143.499Z" fill="#1F774D"/>
<path d="M148.989 45.9674V29.5823H153.167L160.883 39.6003V29.5823H165.04V45.9674H160.883L153.167 35.9494V45.9674H148.989Z" fill="#1F774D"/>
</g>
<defs>
<clipPath id="clip0_2755_21">
<rect width="165" height="74" fill="white"/>
</clipPath>
</defs>
</svg>
