<svg xmlns="http://www.w3.org/2000/svg" width="147" height="30" fill="#000" xmlnsV="https://vecta.io/nano"><path d="M39.268 2.581h-9.387v.604c.767.836 2.951.511 2.951 2.254v19.402c0 .139 0 .302-.023.441-.302 2.254-2.904 2.161-2.904 2.161v.488h9.736v-.697c-.093 0-3.532.651-3.671-2.3v-9.062h3.299c.139 0 1.696 0 3.462-.558 2.463-.72 5.367-2.463 5.367-6.622 0-6.483-8.829-6.111-8.829-6.111h0zm5.739 6.785c0 2.858-1.208 4.391-2.533 5.112-.511.256-4.74 2.021-6.483-.163V3.208h3.532c5.693 0 5.484 5.577 5.484 6.157h0zm100.564 8.922c-1.046-1.975-3.044-3.857-5.925-5.414-7.227-3.834-4.253-8.225-4.253-8.225.326-.488.697-.929 1.185-1.301 1.069-.836 2.556-.813 3.811-.395.488.163.999.325 1.441.674.325.325.674.674.929 1.046a8.81 8.81 0 0 1 1.139 2.463c.232.767.418 1.58.488 2.37h.697V6.229l.069-4.066h-.627l-.07.488a2.47 2.47 0 0 1-.371.883c-.442.651-1.185.07-1.673-.232-.674-.488-1.325-.836-2.115-1.046-.488-.163-1.045-.232-1.557-.232h-.069c-.302 0-.558 0-.86.046-.86.07-1.673.325-2.44.674a5.49 5.49 0 0 0-2.44 2.579c-.487 1.092-.604 2.347-.511 3.555 0 0 0 1.464.93 3.09.511.999 1.371 2.091 2.788 2.974 2.602 1.603 5.576 3.555 6.831 5.786v.023c.465.86.697 1.743.581 2.695-.302 2.021-1.301 3.904-3.253 4.322-.674.163-1.371.163-2.068.046l-.929-.232c-.511-.209-.93-.372-1.325-.767-.371-.325-.674-.651-.952-1.046-.512-.72-.883-1.533-1.185-2.37-.372-1.139-.604-2.347-.628-3.509v-.232h-.766l.046 4.484-.07 4.159h.628c0-.163.046-.372.069-.534.07-.325.233-.72.442-.976.302-.279.627-.209.929-.047.372.163.674.442.999.674.326.209.674.372 1.046.534.697.325 1.441.488 2.231.558.743.07 1.51.046 2.253-.116 1.069-.163 2.138-.558 3.044-1.255 1.185-.883 1.975-2.207 2.301-3.741.116-.604.139-1.208.139-1.812 0-1.092-.325-2.207-.929-3.299h0zm-46.75 8.969H95.15c-.07 0-2.602.163-2.904-1.882-.023-.093-.023-.232-.023-.372V5.671c0-.139 0-.302.023-.441.418-2.254 3.648-2.161 3.648-2.161v-.488h-9.759v.488s2.347-.093 2.881 1.812c.07.232.093.488.093.697v19.425c-.139 2.579-2.974 2.463-2.974 2.463v.488h18.356v-7.528h-.86c0 3.183-.673 6.831-4.809 6.831h0zm21.121-2.254V5.602a2.91 2.91 0 0 1 .069-.627c.488-2.021 2.882-1.905 2.882-1.905v-.488h-9.016v.488s2.393-.093 2.881 1.905c.024.209.07.418.07.627v19.355a2.61 2.61 0 0 1-.093.697c-.511 1.905-2.835 1.812-2.835 1.812v.488h9.016v-.488s-2.835.139-2.974-2.463zM67.29 2c-6.25 0-11.292 5.925-11.292 13.268s5.065 13.268 11.316 13.268S78.63 22.588 78.63 15.269C78.606 7.925 73.54 2 67.29 2zm0 25.629c-4.438 0-8.04-5.623-8.04-12.547s3.601-12.547 8.04-12.547 8.086 5.623 8.086 12.547-3.602 12.547-8.086 12.547zM11.316 2C5.065 2 0 7.925 0 15.268s5.065 13.268 11.316 13.268 11.316-5.948 11.316-13.267C22.608 7.925 17.543 2 11.316 2zm0 25.629c-4.368 0-7.923-5.414-8.039-12.175l12.965 9.596c-1.371 1.627-3.09 2.579-4.926 2.579h0zm5.6-3.509L3.299 14.036C3.648 7.6 7.087 2.558 11.316 2.558c4.485 0 8.086 5.623 8.086 12.547-.023 3.532-.953 6.738-2.486 9.015h0z"/></svg>