<svg xmlns="http://www.w3.org/2000/svg" width="493" height="120" fill="#fff" xmlnsV="https://vecta.io/nano"><path d="M54.621 30.11l-13.218 7.246c-.451.145-.451.725 0 .87l30.941 17.102a1.33 1.33 0 0 0 1.051 0l13.218-7.246c.451-.145.451-.725 0-.87L55.823 30.11a1.71 1.71 0 0 0-1.202 0zm35.297 0L76.7 37.356c-.451.145-.451.725 0 .87l13.368 7.536a1.33 1.33 0 0 0 1.051 0l13.218-7.246c.45-.145.45-.725 0-.87L90.969 30.24c-.3-.29-.751-.29-1.051-.145v.015zM74.447 59.225v14.638c0 .435.451.725.901.435l13.368-7.391c.15-.145.3-.29.3-.435V51.414c0-.435-.451-.725-.901-.435l-13.067 7.246c-.451.29-.601.58-.601 1.014v-.014zm18.024-10.724l13.217-7.246c.301-.145.902 0 .902.435v34.203c0 .435-.151.725-.601.87l-30.791 17.1c-.3.145-.901 0-.901-.435V78.791c0-.435.15-.725.601-.87l16.522-9.13c.3-.145.601-.58.601-1.014V49.515c0-.435.15-.725.451-1.014zM71.443 59.095v15.072c0 .29-.3.435-.601.29L54.62 65.471c-.3-.145-.901 0-.901.435v17.681c0 .435-.451.725-.901.435L39.6 76.761c-.3-.145-.601-.58-.601-.87V41.545c0-.435.451-.725.901-.435l30.941 17.102c.3.145.601.58.601.87v.014zm-13.969 11.29l13.218 7.391c.3.145.601.58.601.87v14.783c0 .435-.451.725-.901.435l-13.218-7.391c-.3-.145-.601-.58-.601-.87V70.965c.15-.435.601-.725.901-.58zm100.333-18.116c0 6.232-4.355 9.855-9.612 10.435-1.803.145-3.004.29-5.107.29h-5.257v12.899h-7.06V41.559h12.317c2.103 0 3.454 0 5.107.29 5.407.58 9.612 4.058 9.612 10.435v-.014zm-7.51 0c0-3.188-1.802-4.783-4.205-5.072-.751-.145-1.803-.145-3.154-.145h-5.107v10.435h5.107c1.351 0 2.403 0 3.154-.145 2.553-.435 4.205-1.884 4.205-5.072zm26.886-3.319v5.507c-5.858-.435-8.862 2.174-8.862 9.275v12.029h-7.059v-26.39h7.059v4.783l2.103-3.623a7.44 7.44 0 0 1 4.656-1.739c.901 0 1.502 0 2.103.145v.015zm29.59 13.609c0 7.971-5.107 13.913-14.119 13.913s-14.119-5.942-14.119-13.913 5.107-13.913 14.119-13.913 14.119 5.942 14.119 13.913zm-7.36 0c0-5.652-2.554-9.13-6.759-9.13s-6.759 3.333-6.759 9.13 2.553 9.13 6.759 9.13c4.205-.145 6.759-3.478 6.759-9.13zm20.126 3.783v2.319c.151 2.609 1.202 3.188 5.107 2.898v4.493c-1.652.29-3.154.29-4.656.29-5.257 0-7.21-1.739-7.51-5.362-.15-1.159-.15-2.319-.15-3.768V54.168h-4.056v-4.493h4.056V40.98h7.059v8.696h5.708v4.493h-5.708v12.174h.15zm35.748-3.783c0 7.971-5.107 13.913-14.119 13.913s-14.119-5.942-14.119-13.913 5.107-13.913 14.119-13.913 14.119 5.942 14.119 13.913zm-7.21 0c0-5.652-2.553-9.13-6.759-9.13s-6.759 3.333-6.759 9.13 2.554 9.13 6.759 9.13c4.056-.145 6.759-3.478 6.759-9.13zm35.897-3.623h-6.909c-.6-3.768-2.703-5.362-5.707-5.362-3.605 0-6.158 2.754-6.158 8.841 0 6.522 2.553 9.275 6.158 9.275 2.703 0 4.806-1.739 5.557-5.073h7.059c-1.201 6.522-6.158 9.855-13.067 9.855-7.51 0-13.067-4.493-13.067-13.623s6.158-14.058 13.668-14.058c7.36-.145 12.016 4.203 12.466 10.145zm30.792 3.623c0 7.971-5.107 13.913-14.119 13.913s-14.119-5.942-14.119-13.913 5.107-13.913 14.119-13.913 14.119 5.942 14.119 13.913zm-7.36 0c0-5.652-2.553-9.13-6.759-9.13s-6.759 3.333-6.759 9.13 2.553 9.13 6.759 9.13c4.206-.145 6.759-3.478 6.759-9.13zm10.514 13.203V40.82h7.059v34.942h-7.059zm50.917 0h-25.534V40.82h7.06v29.29h18.474v5.652zm19.075-3.928l-1.352 2.754c-1.952 1.304-4.205 1.739-6.759 1.739-4.656 0-8.711-2.609-8.711-7.681 0-5.797 5.107-9.13 15.02-9.13h1.802v-.58c0-.725 0-1.594-.15-2.464-.15-1.884-1.502-3.188-4.206-3.188-2.853 0-4.355 1.594-4.506 4.493h-6.909c.15-5.942 5.257-9.275 11.716-9.275 7.66 0 10.514 3.188 10.964 7.826.15 1.304.15 2.609.15 4.058v8.551c0 2.029.151 3.768.451 6.667h-6.909l-.601-3.768zm0-5.797v-2.174c-5.707-.435-9.462.87-9.462 4.348 0 2.319 1.652 3.478 4.205 3.478 2.854-.145 5.257-2.029 5.257-5.652zm40.704-3.913c0 9.565-6.008 14.348-13.067 14.348-2.253 0-4.957-.58-6.459-1.449l-1.802-2.754v3.478h-7.059V40.82h7.059v12.609l2.103-2.898c1.502-1.16 4.355-1.884 7.059-1.884 7.66 0 12.166 5.652 12.166 13.478zm-7.36.435c0-5.362-2.703-8.986-6.909-8.986-3.905 0-7.059 2.319-7.059 8.696v1.304c0 5.942 3.605 8.116 6.759 8.116 4.205-.145 7.209-3.044 7.209-9.13zm32.294-5.507h-7.06c-.45-2.464-1.802-3.768-4.205-3.768-2.103 0-3.305 1.159-3.305 2.754 0 2.029 1.652 3.044 6.158 4.058 5.558 1.449 8.862 3.623 8.862 8.406 0 5.362-4.956 7.826-11.265 7.826s-11.265-2.754-12.016-8.696h7.06c.6 2.899 2.553 4.203 5.106 4.203 2.253 0 4.056-.87 4.056-2.898s-1.803-3.188-6.459-4.348c-5.107-1.304-8.561-3.333-8.561-7.971 0-5.072 4.356-8.116 10.814-8.116 6.459.145 10.214 3.768 10.815 8.551z"/></svg>