<svg width="30" height="30" viewBox="0 0 30 30" fill="none" xmlns="http://www.w3.org/2000/svg">
<path fillRule="evenodd" clipRule="evenodd" d="M24.358 12.8567C24.358 15.977 26.8797 18.4987 30 18.4987V24.358C23.6437 24.358 18.4987 19.213 18.4987 12.8567H24.358Z" fill="black"/>
<path fillRule="evenodd" clipRule="evenodd" d="M18.4987 30C18.4987 23.6437 23.6437 18.4987 30 18.4987V24.358C26.8797 24.358 24.358 26.8797 24.358 30H18.4987Z" fill="black"/>
<path fillRule="evenodd" clipRule="evenodd" d="M5.64198 17.1433C5.64198 14.023 3.12031 11.5013 0 11.5013V5.64197C6.35635 5.64197 11.5014 10.787 11.5014 17.1433H5.64198Z" fill="black"/>
<path fillRule="evenodd" clipRule="evenodd" d="M11.5014 0C11.5014 6.35635 6.35635 11.5014 0 11.5014V5.64198C3.12031 5.64198 5.64198 3.12031 5.64198 0H11.5014Z" fill="black"/>
<path fillRule="evenodd" clipRule="evenodd" d="M12.8567 5.64198C15.977 5.64198 18.4987 3.12031 18.4987 0H24.358C24.358 6.35636 19.213 11.5014 12.8567 11.5014V5.64198Z" fill="black"/>
<path fillRule="evenodd" clipRule="evenodd" d="M30 11.5014C23.6437 11.5014 18.4987 6.35635 18.4987 0H24.358C24.358 3.12031 26.8797 5.64198 30 5.64198V11.5014Z" fill="black"/>
<path fillRule="evenodd" clipRule="evenodd" d="M17.1433 24.358C14.023 24.358 11.5013 26.8797 11.5013 30H5.64197C5.64197 23.6437 10.787 18.4987 17.1433 18.4987V24.358Z" fill="black"/>
<path fillRule="evenodd" clipRule="evenodd" d="M0 18.4987C6.35635 18.4987 11.5014 23.6437 11.5014 30H5.64198C5.64198 26.8797 3.12031 24.358 0 24.358V18.4987Z" fill="black"/>
</svg>
