<svg width="220" height="74" viewBox="0 0 220 74" fill="none" xmlns="http://www.w3.org/2000/svg">
<path fill-rule="evenodd" clip-rule="evenodd" d="M76.0518 37.4942L54.5428 16.0078V31.7436L33.1865 47.4984L54.5428 47.5132V58.9805L76.0518 37.4942Z" fill="#1F774D"/>
<path fill-rule="evenodd" clip-rule="evenodd" d="M0.229004 37.4863L21.738 58.9727V43.4035L42.938 27.6382L21.738 27.6237V16L0.229004 37.4863Z" fill="#1F774D"/>
<path d="M109.161 50.1472H92.6584V45.4081L102.106 34.8767H92.9017V30.2188H108.999V34.7149L99.2676 45.4486H109.161V50.1472Z" fill="#1F774D"/>
<path d="M131.684 30.2187L123.696 38.6033L131.846 50.1472H125.237L119.966 42.5322L117.736 44.8815V50.1472H112.343V20.8215H117.736V37.6312L124.629 30.2187H131.684Z" fill="#1F774D"/>
<path d="M155.14 28.2744L150.112 29.8137C149.923 28.7875 149.409 27.856 148.572 27.0188C147.734 26.1817 146.503 25.7633 144.881 25.7633C143.558 25.7633 142.476 26.1278 141.637 26.8568C140.8 27.559 140.381 28.4096 140.381 29.4086C140.381 31.1639 141.422 32.244 143.503 32.649L147.517 33.4186C150.057 33.9047 152.031 34.9173 153.437 36.4565C154.843 37.9957 155.546 39.8048 155.546 41.8841C155.546 44.2605 154.599 46.3396 152.707 48.1219C150.842 49.8772 148.328 50.7546 145.165 50.7546C143.354 50.7546 141.719 50.4846 140.259 49.9447C138.799 49.4045 137.623 48.6889 136.731 47.7979C135.839 46.8798 135.136 45.921 134.623 44.922C134.136 43.8958 133.839 42.8427 133.731 41.7626L138.921 40.3854C139.056 41.9246 139.651 43.2072 140.705 44.2334C141.786 45.2595 143.287 45.7726 145.206 45.7726C146.665 45.7726 147.801 45.4486 148.612 44.8005C149.45 44.1524 149.868 43.3018 149.868 42.2487C149.868 41.4115 149.557 40.6961 148.936 40.1019C148.342 39.4808 147.49 39.0624 146.383 38.8463L142.367 38.0361C140.042 37.5501 138.205 36.5915 136.853 35.1603C135.501 33.7291 134.826 31.947 134.826 29.8137C134.826 27.2754 135.799 25.1422 137.745 23.414C139.719 21.6857 142.084 20.8215 144.84 20.8215C146.49 20.8215 147.964 21.0511 149.261 21.5101C150.557 21.9692 151.6 22.5902 152.382 23.3733C153.167 24.1296 153.774 24.9127 154.207 25.7226C154.64 26.5328 154.951 27.3834 155.14 28.2744Z" fill="#1F774D"/>
<path d="M164.63 58.0051H158.913L163.616 47.6358L155.142 30.2188H161.184L166.496 41.8842L171.402 30.2188H177.16L164.63 58.0051Z" fill="#1F774D"/>
<path d="M184.604 38.6846V50.1475H179.211V30.219H184.442V32.6899C185.009 31.7178 185.82 30.9751 186.874 30.462C187.929 29.9491 189.037 29.6925 190.199 29.6925C192.551 29.6925 194.335 30.4351 195.552 31.9202C196.796 33.3785 197.418 35.2686 197.418 37.591V50.1475H192.024V38.5225C192.024 37.3344 191.713 36.3757 191.091 35.6467C190.496 34.9176 189.577 34.5531 188.334 34.5531C187.199 34.5531 186.293 34.9447 185.618 35.7278C184.942 36.5107 184.604 37.4965 184.604 38.6846Z" fill="#1F774D"/>
<path d="M210.633 34.5934C209.2 34.5934 207.997 35.0929 207.025 36.0921C206.052 37.0911 205.564 38.4548 205.564 40.1831C205.564 41.9113 206.052 43.2884 207.025 44.3145C208.025 45.3137 209.241 45.8132 210.674 45.8132C211.944 45.8132 212.958 45.4891 213.716 44.841C214.472 44.1661 214.986 43.3694 215.256 42.4513L220 44.0311C219.514 45.8672 218.459 47.4469 216.838 48.7701C215.216 50.0932 213.161 50.7548 210.674 50.7548C207.7 50.7548 205.2 49.7557 203.172 47.7575C201.172 45.7323 200.172 43.2073 200.172 40.1831C200.172 37.1316 201.158 34.6068 203.132 32.6086C205.133 30.6104 207.593 29.6112 210.511 29.6112C213.053 29.6112 215.134 30.2729 216.756 31.596C218.378 32.8922 219.419 34.4718 219.878 36.3351L215.053 37.9553C214.405 35.714 212.931 34.5934 210.633 34.5934Z" fill="#1F774D"/>
</svg>
