<svg width="231" height="230" viewBox="0 0 231 230" fill="none" xmlns="http://www.w3.org/2000/svg">
<path d="M25.4275 43.9448C-60.6492 160.548 97.2727 294.726 198.812 193.478C302.168 75.4163 127.684 -75.7795 25.4275 43.9448ZM211.54 164.646C211.639 164.793 211.661 164.967 211.598 165.131C211.135 166.429 210.29 167.555 209.561 168.713C207.347 172.015 205.357 175.541 202.647 178.473C202.421 178.684 202.162 178.899 201.879 179.026C201.947 176.933 204.485 173.711 205.649 171.89C206.744 170.3 207.899 168.731 208.941 167.105C209.611 166.108 210.152 165.001 210.927 164.084C211.174 164.206 211.39 164.407 211.536 164.642L211.54 164.646ZM182.79 193.095C179.831 196.42 176.078 199.009 171.927 200.625C169.814 201.385 167.196 202.517 165.011 201.471C163.834 200.882 163.331 199.502 163.45 198.25C163.686 193.695 171.447 188.473 175.381 186.917C177.85 185.939 180.48 185.052 183.167 185.092C185.509 185.192 187.127 186.28 185.98 188.764C185.197 190.379 183.972 191.763 182.794 193.099L182.79 193.095ZM59.5313 56.7925C60.8458 59.5575 61.2246 62.8231 60.3727 65.7669C59.7589 67.8426 58.528 69.6794 57.3331 71.4638C56.5581 72.5554 55.7056 73.6742 54.5251 74.3529C52.5354 75.727 48.167 71.1218 47.0851 69.5624C46.0845 68.1686 45.174 66.4692 45.505 64.7095C45.9689 62.5545 47.4835 60.8096 48.8705 59.1669C50.3422 57.4968 51.8811 55.848 53.6561 54.4922C56.3631 52.2835 58.2689 54.2158 59.5352 56.8035L59.5313 56.7925ZM72.7975 37.9079C76.4567 35.4616 80.2336 32.9616 84.5159 31.7704C86.697 31.2206 91.8796 30.1563 92.5615 33.1835C92.8639 34.8998 92.1018 36.6218 91.2225 38.0562C88.2069 42.577 81.0213 45.2715 76.0761 47.2409C74.7215 47.7518 73.2742 48.2678 71.8963 48.7272C69.2388 49.559 62.3438 51.9596 60.0857 50.0291C58.1952 47.7553 70.8271 39.3224 72.7937 37.9042L72.7975 37.9079ZM41.0858 71.5038C44.3233 72.1763 46.9373 76.4343 47.0061 79.5972C47.093 82.7339 45.415 85.5571 43.8999 88.1811C42.984 89.6384 42.0364 91.1815 40.6561 92.2492C40.3427 92.5212 39.9102 92.4167 39.5588 92.2813C37.5365 91.356 35.9938 89.5775 34.6999 87.8137C33.2331 85.7595 32.3416 83.3588 33.27 80.8886C33.9942 78.7667 35.2573 76.8736 36.518 75.0437C37.5726 73.6547 39.1037 71.2642 41.0896 71.5075L41.0858 71.5038ZM65.2952 59.814C65.3369 56.2562 69.615 54.3195 72.4158 53.0589C74.7601 52.1504 81.3426 49.5284 82.2176 53.287C82.5558 55.1178 81.8895 56.9904 81.0921 58.6201C79.6111 61.4587 76.9646 63.9076 73.7221 64.4296C70.5804 64.9908 65.5871 63.541 65.2916 59.8178L65.2952 59.814ZM159.54 38.6638C164.066 38.3257 167.945 41.3101 171.403 43.8671C172.542 44.7543 173.717 45.6187 174.772 46.6073C175.329 47.1513 176.107 47.8512 175.564 48.6721C173.317 51.5858 163.958 48.565 160.837 47.6125C158.057 46.6324 155.058 45.6149 152.972 43.4369C152.194 42.5775 152.696 41.7165 153.431 41.0521C155.104 39.5977 157.348 38.8614 159.537 38.6676L159.54 38.6638ZM163.487 31.0942C163.487 31.0942 163.58 31.1187 163.584 31.1224C165.105 31.6734 166.457 32.6574 167.775 33.5789C169.588 34.9637 171.615 36.512 172.289 38.7901C170.912 38.4074 169.736 37.4614 168.566 36.6749C166.572 35.1742 164.383 33.5209 163.487 31.1017L163.487 31.0942ZM205.236 144.967C203.469 143.466 201.972 141.579 200.753 139.648C199.438 137.61 199.51 136.247 200.929 134.352C202.391 132.541 204.83 129.739 206.983 128.937C208.411 128.396 209.469 129.844 209.978 130.997C211.257 133.807 210.677 137.007 210.088 139.913C209.616 141.871 208.998 143.891 207.759 145.51C207.043 146.433 205.911 145.494 205.236 144.974L205.236 144.967ZM203.032 153.418C202.729 155.11 201.897 156.663 201.041 158.126C200.287 159.362 199.511 160.606 198.63 161.747C197.101 163.697 195.919 164.68 193.572 163.099C191.107 161.406 189.06 159.09 187.468 156.574C186.36 154.8 186.761 153.937 187.766 152.274C189.231 149.944 191.08 147.845 192.964 145.846C195.108 143.516 197.811 143.963 199.968 146.036C201.899 147.92 203.487 150.636 203.032 153.41L203.032 153.418ZM179.556 156.409C177.649 158.023 175.683 159.623 173.707 161.156C170.207 163.741 164.029 168.912 159.786 169.29C155.329 169.564 156.733 163.737 157.831 161.197C159.142 158.013 161.02 155.02 163.478 152.6C167.076 148.967 172.372 147.308 177.432 147.636C179.809 147.792 183.002 149.01 183.479 151.636C183.542 153.268 180.703 155.349 179.556 156.409ZM157.094 117.855C155.163 112.685 153.455 107.214 153.537 101.653C153.622 98.9363 154.434 96.1935 156.095 94.0235C156.663 93.3061 157.263 92.5474 158.07 92.0822C160.364 90.9222 162.938 93.4115 164.577 94.8176C168.755 98.8174 172.489 103.61 174.265 109.176C175.957 114.762 175.755 121.501 169.997 124.533C168.911 125.136 167.726 125.6 166.535 125.956C165.647 126.218 164.702 126.456 163.765 126.382C160.264 126.058 158.31 120.677 157.091 117.859L157.094 117.855ZM144.767 148.461C143.471 151.085 141.465 153.301 139.529 155.468C137.775 157.302 136.064 159.28 133.923 160.675C132.005 161.944 129.941 160.979 128.262 159.766C126.079 158.228 124.245 155.478 125.675 152.845C127.516 149.67 130.832 147.656 133.899 145.801C135.021 145.161 136.221 144.537 137.401 144.01C139.207 143.266 141.257 142.299 143.243 142.891C144.02 143.176 144.641 143.811 145.027 144.532C145.672 145.78 145.336 147.258 144.774 148.468L144.767 148.461ZM150.014 111.783C151.782 116.403 153.083 121.379 152.833 126.349C152.589 130.192 150.93 133.942 148.185 136.645C146.966 137.788 145.555 139.008 143.835 139.217C141.456 139.351 139.391 136.909 137.773 135.414C133.736 131.245 129.224 125.781 129.85 119.625C130.545 114.792 133.849 110.783 137.348 107.593C139.099 106.134 140.952 104.425 143.28 104.025C146.785 103.602 148.873 109.156 150.017 111.779L150.014 111.783ZM72.5498 97.7538C75.2006 95.6943 78.6937 94.1854 81.9681 95.7512C84.3487 96.7821 87.5989 99.6911 88.1164 102.305C88.2769 103.972 86.5833 104.956 85.4023 105.794C81.8248 108.065 75.9726 111.565 71.6832 111.332C69.0014 111.167 66.6512 108.907 66.2077 106.285C66.0555 104.299 67.5351 102.651 68.7414 101.241C69.8948 99.9691 71.1874 98.7878 72.5535 97.75L72.5498 97.7538ZM84.4805 72.9219C77.8417 67.5883 81.6543 63.4 88.5217 62.005C91.8819 61.4293 96.8843 61.1578 98.5263 64.871C99.5805 67.4287 98.9325 70.5473 97.1686 72.6188C93.7742 76.3962 88.2453 75.9637 84.4805 72.9219ZM85.5486 114.876C87.6211 116.802 88.3058 119.788 88.5212 122.504C88.9904 128.895 85.8817 135.375 80.698 139.092C75.4707 142.854 70.5091 140.78 66.3563 136.557C64.9376 135.037 62.8306 133.056 63.107 130.807C63.6679 127.961 66.8279 124.51 68.7948 122.387C72.0721 119.049 80.8221 110.892 85.5523 114.879L85.5486 114.876ZM94.1699 122.63C93.0807 119.639 92.3778 116.49 91.905 113.344C91.6298 110.789 90.72 106.059 93.5978 104.757C95.865 103.708 98.5336 104.137 100.726 105.205C104.088 106.906 107.159 109.562 108.835 112.974C109.926 115.138 109.761 117.726 108.617 119.822C107.073 122.884 102.751 127.154 99.298 127.743C96.3969 128.092 95.0248 124.872 94.1661 122.626L94.1699 122.63ZM112.62 110.86C110.397 108.091 106.978 103.819 108.066 100.086C109.947 94.7036 119.191 94.1467 124.033 94.5862C130.363 95.1656 136.492 98.0665 132.115 105.142C130.131 108.382 127.477 111.209 124.593 113.662C122.928 114.956 120.917 116.731 118.645 116.118C116.453 115.392 114.169 112.587 112.62 110.86ZM140.928 85.4595C143.271 84.2802 145.978 84.9796 147.984 86.5282C152.261 89.7883 153.435 94.5178 148.361 97.6576C146.592 98.7573 144.382 99.1259 142.359 98.5642C139.926 97.8753 137.542 96.2955 136.462 93.946C135.001 90.523 137.96 86.8933 140.932 85.4631L140.928 85.4595ZM117.797 120.156C119.582 119.994 121.052 121.318 122.314 122.411C126.105 125.986 131.189 131.318 131.494 136.744C131.55 141.276 127.195 144.549 123.075 145.337C120.117 145.958 116.992 145.01 114.726 143.035C111.554 140.303 109.348 136.257 109.102 132.058C108.957 128.778 110.506 125.627 112.754 123.317C114.162 121.949 115.79 120.473 117.794 120.16L117.797 120.156ZM155.499 87.2114C151.68 85.1719 148.306 82.3613 145.054 79.5303C142.39 77.0053 138.561 73.8791 139.685 69.7738C140.794 65.9507 145.202 61.5305 148.627 59.5998C150.285 58.6687 151.648 59.2853 153.025 60.3876C154.397 61.4788 155.699 62.7121 156.97 63.9236C163.968 70.8317 168.681 76.6926 161.48 85.6449C159.508 88.0906 158.483 88.7521 155.499 87.2114ZM136.31 73.7661C138.004 76.0467 138.08 78.8386 136.642 81.2536C134.675 84.634 131.328 87.105 127.706 88.4824C125.6 89.2573 123.343 89.6897 121.097 89.7769C118.92 89.7999 116.166 89.7542 114.436 88.2605C113.358 87.2203 113.624 85.5729 114.02 84.2833C114.679 82.2217 115.7 80.2694 116.748 78.3872C118.066 76.0816 119.551 73.8215 121.275 71.7989C123.379 69.2991 126.384 66.8038 129.818 68.356C132.406 69.5209 134.624 71.5077 136.307 73.7699L136.31 73.7661ZM108.506 86.0093C110.042 91.0225 104.811 96.6277 100.644 98.6925C98.9214 99.5467 96.8772 99.7197 95.0501 99.0845C92.1766 98.0724 89.7417 96.0223 87.7075 93.799C86.1984 92.0311 84.5685 89.8052 85.0042 87.3613C85.7411 84.0596 89.3056 82.0526 92.1181 80.6434C95.1279 79.2645 98.6607 78.2446 101.932 79.3209C104.981 80.3635 107.556 82.927 108.51 86.013L108.506 86.0093ZM109.855 76.7483C105.859 77.6197 104.286 72.3957 103.986 69.3218C103.497 64.1475 105.289 59.646 110.841 58.676C114.866 57.9489 119.407 59.7693 118.548 64.5603C117.897 68.4245 113.756 75.5817 109.855 76.7483ZM112.612 53.1807C108.086 55.329 103.118 56.5272 98.1346 57.0209C96.3164 57.1793 94.4518 57.2419 92.6408 57.0293C90.9411 56.8148 89.0025 56.3482 88.0138 54.8133C86.6303 52.4833 87.3958 49.4853 88.5998 47.2445C89.9013 44.8724 92.4046 43.3976 95.0049 42.8523C100.353 41.7075 111.367 43.1555 116.116 45.9111C117.048 46.4826 118.257 47.3501 118.011 48.5891C117.435 50.6569 114.425 52.2472 112.612 53.1807ZM80.9709 76.5082C83.8666 80.3983 82.7127 83.6324 79.8827 87.0745C78.5042 88.7691 76.9797 90.3954 75.3211 91.8199C73.5323 93.4022 70.9439 94.8894 68.5667 93.6582C63.7708 91.1704 59.4265 77.8221 61.1855 72.8092C61.9839 70.1482 64.326 68.5906 67.0749 68.5957C72.2086 68.5744 77.9614 72.5012 80.9709 76.5082ZM53.5149 114.463C55.691 112.774 58.3242 111.301 61.1556 111.349C63.1561 111.396 65.0616 112.775 65.6135 114.718C66.6843 118.44 62.9405 122.905 59.8398 124.553C57.1401 126.034 53.8756 125.132 51.3846 123.602C49.0459 122.263 48.3992 120.941 49.8632 118.537C50.8103 116.972 52.0918 115.613 53.5112 114.466L53.5149 114.463ZM51.5785 129.953C53.361 129.324 55.2926 129.995 56.8693 130.898C57.8004 131.439 58.7552 132.048 59.3967 132.935C60.8116 134.99 60.6179 137.653 60.5555 140.028C60.3838 143.22 59.9601 146.424 59.2788 149.547C57.3858 158.138 54.3066 159.21 48.0898 152.75C45.4412 150.05 42.1918 146.64 43.6771 142.57C44.8076 138.921 47.8146 131.281 51.5747 129.95L51.5785 129.953ZM65.4736 143.411C67.3448 141.145 70.844 145.515 72.0235 146.951C73.4105 148.732 74.6266 150.682 75.5777 152.734C76.5616 154.933 77.409 157.356 77.1328 159.794C76.7766 162.67 74.536 163.933 71.9223 162.569C68.6914 160.776 66.3725 157.515 65.1406 154.081C64.1524 151.129 63.6552 146.077 65.4774 143.415L65.4736 143.411ZM81.1005 154.672C80.1683 150.836 81.7142 147.006 83.9623 143.948C86.4547 140.5 89.503 137.392 92.9841 134.941C96.6223 132.373 99.2671 132.728 102.378 135.903C105.935 139.486 113.569 150.242 110.603 155.21C108.295 159.164 100.4 160.549 96.1322 161.354C93.8029 161.732 91.4238 162.032 89.0614 162.058C87.1697 162.073 85.0025 161.851 83.7165 160.291C82.4366 158.665 81.5796 156.682 81.1043 154.676L81.1005 154.672ZM98.8057 165.982C102.667 165.606 106.627 166.931 109.597 169.425C113.998 173.088 117.027 179.12 112.534 183.946C112.182 184.341 111.731 184.778 111.334 185.129C109.299 186.83 106.778 188.309 104.051 188.326C101.428 188.297 99.3875 186.307 97.9183 184.316C95.4848 180.893 93.3173 177.059 92.6118 172.882C91.8877 168.528 94.7964 166.382 98.8058 165.989L98.8057 165.982ZM114.827 166.873C113.93 165.077 112.99 163.014 113.478 160.978C114.036 158.717 116.58 158.117 118.575 158.813C120.035 159.283 121.37 160.142 122.536 161.121C124.726 163.001 126.665 165.619 126.597 168.621C126.576 170.49 125.938 172.31 125.086 173.952C124.656 174.708 124.263 175.616 123.455 176.029C121.18 177.222 115.745 168.746 114.827 166.873ZM150.259 147.492C148.676 146.059 148.572 144.621 149.547 142.792C150.504 141.012 151.822 139.426 153.137 137.903C154.642 136.206 156.255 134.571 158.04 133.167C159.206 132.321 161.229 130.754 162.663 131.729C164.313 133.139 164.183 136.939 164.117 138.969C163.884 143.127 162.504 149.247 158.011 150.656C155.19 151.287 152.249 149.33 150.248 147.496L150.259 147.492ZM145.413 155.161C147.623 153.119 151.245 151.735 153.205 154.868C154.484 157.01 154.021 159.944 152.397 161.765C150.639 163.747 147.572 163.451 145.373 162.383C141.543 160.5 142.849 157.486 145.413 155.161ZM170.293 131.02C173.307 126.206 178.181 127.09 181.331 131.291C184.152 134.949 183.7 138.743 179.817 141.315C177.465 142.747 174.382 143.663 171.677 142.741C167.658 141.191 168.47 134.001 170.297 131.023L170.293 131.02ZM187.913 146.259C185.749 147.458 184.739 145.823 184.76 143.771C184.793 142.298 185.41 140.916 186.07 139.633C186.719 138.384 187.436 137.141 188.22 135.972C189.308 134.419 190.493 132.872 191.948 131.636C192.908 130.854 194.141 130.56 195.07 131.573C195.738 132.297 196.243 133.212 196.415 134.185C196.507 134.855 196.302 135.53 196.103 136.16C195.514 138.012 194.338 139.611 193.096 141.073C192.234 142.089 191.316 143.108 190.409 144.087C189.661 144.885 188.885 145.721 187.913 146.251L187.913 146.259ZM198.132 128.383C197.243 127.366 196.91 125.969 196.797 124.654C196.639 121.47 197.575 115.78 201.707 115.904C204.381 116.063 205.001 119.169 204.883 121.352C204.775 123.486 203.654 125.429 202.246 126.972C201.291 127.962 199.445 129.809 198.132 128.375L198.132 128.383ZM188.334 129.635C186.933 130.217 185.591 128.98 184.666 128.045C182.898 126.122 181.669 123.73 180.876 121.257C179.669 117.237 179.425 112.923 179.989 108.778C180.237 107.142 180.663 105.489 181.456 104.03C184.598 98.257 189.507 104.794 191.336 108.2C192.588 110.469 193.489 112.995 193.436 115.611C193.515 119.097 191.538 127.934 188.342 129.634L188.334 129.635ZM197.66 110.701C194.324 108.828 194.098 104.365 194.842 101.026C195.303 98.7232 197.77 90.0901 201.195 92.8627C203.237 94.5778 204.172 97.2894 204.463 99.8665C204.737 102.893 204.595 107.532 202.702 110.002C201.462 111.583 199.33 111.642 197.664 110.704L197.66 110.701ZM203.594 88.9971C200.552 86.1368 198.242 82.5565 196.517 78.7778C195.076 75.4547 192.978 70.8733 195.059 67.4577C196.568 65.4384 198.978 69.1358 199.932 70.2448C201.956 72.8948 203.714 75.753 205.424 78.6083C206.454 80.3503 207.466 82.126 208.426 83.9025C209.071 85.135 209.79 86.3663 210.174 87.7105C210.315 88.2536 210.372 88.8536 210.205 89.3977C210.013 89.8236 209.683 90.1812 209.36 90.509C207.503 92.3742 205.058 90.4022 203.586 88.9972L203.594 88.9971ZM191.151 77.6454C193.875 82.1614 194.157 87.7543 192.72 92.7288C192.101 94.7712 191.315 97.4505 189.656 98.8675C188.44 99.8028 187.27 97.3953 186.763 96.5501C185.178 93.4518 184.207 90.0582 183.488 86.6681C182.922 83.5278 182.304 80.0099 183.772 77.0417C185.767 73.4272 189.334 74.4172 191.151 77.6454ZM179.329 87.542C179.855 90.0264 180.275 92.5903 180.131 95.1335C179.932 98.104 178.803 100.722 175.468 98.7639C171.847 96.5581 167.813 91.6361 167.361 87.333C167.052 83.4877 169.757 79.7359 173.117 78.0993C176.914 76.5559 178.686 84.9964 179.321 87.5421L179.329 87.542ZM178.388 73.0423C176.206 73.722 174.057 73.1326 172.149 71.9756C170.038 70.7253 168.121 69.1233 166.292 67.4977C163.751 65.1711 161.271 62.6988 159.287 59.8701C154.953 53.343 158.212 51.4483 164.877 53.2095C168.306 54.1312 171.591 55.6709 174.514 57.6836C177.613 59.8717 180.549 62.4777 182.622 65.6834C185.243 69.7595 182.192 72.0293 178.388 73.0423ZM177.82 38.9554C179.073 38.9061 180.313 39.3317 181.483 39.7474C184.283 40.7828 186.717 42.6141 188.8 44.7253C190.363 46.3625 192.04 48.0017 193.156 49.9946C194.142 52.1082 193.568 53.3858 191.088 52.7534C189.745 52.3813 188.488 51.6851 187.286 50.9918C185.762 50.0959 184.261 49.1142 182.812 48.1021C181.427 47.1223 180.034 46.113 178.826 44.9264C177.804 43.9632 177.011 42.7331 176.804 41.3268C176.655 40.3907 176.511 38.9945 177.82 38.9629L177.82 38.9554ZM152.187 48.6905C152.974 50.5402 153.212 52.9141 152.038 54.6388C151.861 54.8679 151.618 55.1054 151.31 55.1139C150.715 55.0491 150.155 54.7129 149.63 54.4393C147.948 53.4642 146.467 52.1521 145.023 50.8616C143.545 49.5087 142.051 48.1263 140.791 46.5697C139.667 45.1073 138.407 43.3467 138.619 41.4145C138.754 40.563 139.58 39.9787 140.419 40.0027C141.09 40.0107 141.724 40.3308 142.341 40.5623C143.489 41.0376 144.65 41.5609 145.72 42.1932C147.053 42.9772 148.254 43.997 149.37 45.0588C150.479 46.1134 151.567 47.2647 152.183 48.6794L152.187 48.6905ZM133.315 48.4527C136.823 48.7537 141.969 51.3176 142.375 55.1986C142.518 59.2469 137.465 63.5326 133.882 64.6719C131.241 65.5777 128.431 64.5684 126.211 63.0527C124.375 61.8056 122.653 60.3266 121.256 58.5941C118.986 55.7365 119.596 53.4828 122.523 51.5154C125.682 49.4591 129.498 48.1306 133.311 48.4491L133.315 48.4527ZM123.998 44.6078C122.157 44.3659 120.197 43.5584 119.198 41.9049C118.21 40.1956 118.615 38.0935 119.165 36.3118C119.89 34.2418 121.117 31.5296 123.227 30.5914C124.158 30.2169 125.191 30.4863 126.114 30.7723C128.174 31.4076 130.002 32.6252 131.641 34.009C133.364 35.3433 134.67 37.1997 134.242 39.4691C133.383 43.6629 127.702 45.017 123.998 44.6078ZM127.014 27.1268C124.08 26.9429 121.31 25.5509 118.963 23.8406C118.176 23.2558 117.394 22.5522 117.096 21.5887C116.749 20.4332 116.979 19.0126 117.897 18.1896C119.122 17.1243 123.202 18.748 124.739 19.1319C126.777 19.7675 128.842 20.4213 130.765 21.3741C132.021 22.0258 133.495 22.9745 132.286 24.4697C131.016 26.0068 129.043 27.1283 127.014 27.1268ZM116.866 28.6363C116.549 32.5249 113.886 36.3465 110.148 37.6255C106.838 38.6939 101.941 38.4777 98.9633 36.5585C96.9015 35.1517 97.4272 33.1219 98.9264 31.5219C100.713 29.654 103.185 28.6211 105.562 27.7158C107.973 26.7989 117.158 23.9024 116.87 28.6325L116.866 28.6363ZM53.9124 79.1847C54.2114 78.9351 54.5335 78.7224 54.8529 79.1031C55.5324 79.8528 55.9643 80.829 56.4131 81.727C58.3113 85.8183 59.8868 90.0852 61.2809 94.3735C62.0217 97.0214 63.8827 101.825 62.3866 104.293C61.9735 104.949 61.3115 105.408 60.6594 105.804C55.6275 108.969 52.2884 106.607 49.7387 101.866C47.378 97.4739 46.4558 92.1433 48.5262 87.4816C49.3529 85.473 50.4936 83.5782 51.7556 81.815C52.427 80.9142 53.0786 79.9507 53.9125 79.1921L53.9124 79.1847ZM45.3316 103.3C46.883 106.94 49.1058 112.202 46.2207 115.671C44.3118 117.727 41.2381 116.362 39.3179 114.99C37.0194 113.442 35.1946 110.933 35.2582 108.08C35.2842 105.561 36.3673 103.211 37.4119 100.976C38.2315 99.3461 38.9738 97.5614 40.3163 96.2828C42.2358 96.7238 44.4977 101.536 45.3353 103.304L45.3316 103.3ZM42.5029 121.397C43.2869 121.819 44.083 122.289 44.6827 122.947C46.3707 124.938 44.8211 128.409 44.0452 130.539C43.3263 132.201 40.6721 138.597 38.2953 136.304C35.793 133.688 35.3544 129.681 36.0596 126.276C36.4259 124.609 36.9461 122.85 38.1291 121.57C39.2825 120.298 41.1411 120.658 42.4955 121.398L42.5029 121.397ZM37.6473 141.589C38.7937 143.036 39.7912 144.638 40.3175 146.418C40.6677 147.388 40.7302 148.444 40.4428 149.439C39.7786 151.771 38.8143 154.119 37.2616 156.002C35.824 157.705 34.7167 156.717 33.535 155.36C32.1281 153.69 30.9656 151.821 29.8292 149.961C29.18 148.877 28.5328 147.715 28.4136 146.43C28.2945 144.607 28.9962 142.834 29.738 141.209C32.4239 135.811 34.6744 137.734 37.6472 141.582L37.6473 141.589ZM30.5068 157.644C31.4026 158.631 32.2592 159.697 33.0894 160.738C34.5398 162.536 35.8564 164.504 36.5808 166.714C36.7024 167.035 36.6202 167.37 36.4517 167.651C36.1513 168.197 35.724 168.701 35.1929 169.032C32.8026 170.412 30.62 166.563 29.5064 164.908C28.2087 162.777 27.012 160.329 27.3267 157.775C27.6601 155.051 29.28 156.257 30.4994 157.644L30.5068 157.644ZM39.6892 163.461C39.7041 161.12 41.7761 155.994 44.2924 155.513C46.9131 155.235 49.9255 160.11 50.97 162.193C52.5783 165.532 53.5236 169.286 53.396 172.993C52.9344 180.842 47.0681 173.571 44.6413 171.013C43.6654 169.919 42.6998 168.784 41.7714 167.656C40.8041 166.44 39.708 165.092 39.6894 163.468L39.6892 163.461ZM57.216 166.828C56.9576 163.824 57.9776 158.774 62.0567 160.687C65.4375 162.37 69.7724 167.335 69.8935 171.232C69.9958 172.777 69.2423 174.377 67.7251 174.92C65.3422 175.755 62.5235 175.064 60.4731 173.676C58.2899 172.138 57.4169 169.377 57.2122 166.824L57.216 166.828ZM57.7959 179.134C61.7667 178.667 67.6133 179.936 71.0859 181.941C73.1485 183.203 75.0056 184.935 73.3533 187.384C71.5353 190.072 68.2596 192.226 64.9483 192.297C62.0314 192.239 59.5479 190.353 57.3782 188.573C56.4264 187.75 55.5172 186.829 54.7654 185.813C54.0891 184.856 53.4096 183.743 53.4366 182.533C53.649 180.419 55.9053 179.375 57.7959 179.134ZM74.6619 177.975C73.4362 174.837 74.6805 171.313 76.4771 168.662C77.4532 167.248 80.3228 163.924 82.2139 165.144C82.868 165.564 83.3673 166.213 83.8106 166.844C84.4876 167.831 85.0811 168.913 85.6445 169.972C87.1966 172.923 88.6172 175.979 89.7944 179.098C90.5966 181.486 91.9677 184.836 90.9606 187.274C90.6193 187.992 89.8754 188.437 89.1024 188.55C87.008 188.805 85.1191 187.507 83.4133 186.458C82.7364 186.016 82.0437 185.522 81.3956 185.035C78.937 183.093 75.9609 180.885 74.6582 177.971L74.6619 177.975ZM73.0044 194.04C75.7997 191.974 79.5431 189.471 83.0645 191.319C86.1051 192.877 88.2994 195.669 90.39 198.296C92.0661 200.603 95.1109 204.528 94.7778 207.448C94.5745 208.924 93.1378 209.952 91.7282 210.133C90.1977 210.213 88.8283 209.285 87.5196 208.605C83.6532 206.395 79.7898 204.152 75.9019 201.98C74.5733 201.23 73.2036 200.469 71.882 199.703C71.0404 199.182 70.092 198.704 69.4602 197.927C68.847 197.336 72.4676 194.453 73.0081 194.036L73.0044 194.04ZM97.3104 200.732C95.7377 198.757 92.9748 195.191 93.2699 192.59C93.5392 191.076 95.3202 190.555 96.6663 190.53C98.4539 190.51 100.125 191.314 101.702 192.08C104.428 193.45 107.246 195.216 109.038 197.743C109.663 198.724 109.991 199.891 110.019 201.052C110.046 202.713 109.576 204.571 108.206 205.613C106.57 206.703 104.373 206.088 102.706 205.339C100.563 204.29 98.8352 202.536 97.3141 200.728L97.3104 200.732ZM114.121 195.994C113.171 195.609 112.19 195.172 111.43 194.468C110.259 193.447 110.913 191.853 111.647 190.781C113.585 187.968 116.262 185.745 118.851 183.553C120.838 182.046 123.166 179.813 125.871 180.409C128.883 181.256 134.539 185.184 134.852 188.503C134.991 191.631 131.132 193.951 128.726 195.272C125.438 197.03 121.596 197.765 117.901 197.066C116.617 196.845 115.34 196.472 114.133 195.998L114.121 195.994ZM130.816 173.024C130.863 170.605 132.221 167.56 133.896 165.832C135.202 164.576 137.166 164.697 138.817 165.038C142.28 165.704 152.842 169.477 154.246 172.649C155.397 175.401 151.911 178.342 149.98 179.852C148.058 181.277 145.849 182.462 143.464 182.844C138.052 183.753 130.72 178.797 130.816 173.024ZM142.459 194.362C144.728 194.479 147.246 195.367 148.548 197.334C149.365 198.624 148.447 199.795 147.409 200.576C146.153 201.545 144.722 202.324 143.231 202.863C140.798 203.766 138.116 203.767 135.583 203.287C134.578 203.095 133.567 202.811 132.609 202.448C131.966 202.183 131.27 201.905 130.774 201.404C130.174 200.739 131.123 199.822 131.558 199.326C134.269 196.765 138.647 194.278 142.466 194.362L142.459 194.362ZM151.312 193.196C147.937 190.333 148.969 187.302 151.836 184.593C154.297 182.351 157.463 180.258 160.937 180.504C162.732 180.665 164.563 181.508 165.593 183.038C167.168 185.328 165.584 187.645 163.915 189.315C162.407 190.848 160.707 192.203 158.997 193.498C157.889 194.291 156.663 195.26 155.222 195.171C153.756 194.986 152.436 194.12 151.312 193.203L151.312 193.196ZM168.24 173.264C169.878 169.914 172.958 167.462 176.033 165.478C179.311 163.397 183.838 161.854 187.346 164.321C189.626 165.873 191.002 168.9 190.089 171.581C188.714 175.271 185.308 178.47 181.823 180.191C179.446 181.33 176.727 182.029 174.083 181.558C170.059 180.869 166.259 177.583 168.248 173.263L168.24 173.264ZM192.644 181.634C191.993 182.279 190.127 184.259 189.433 182.812C188.623 180.221 191.021 177.583 192.322 175.538C194.126 172.916 195.866 170.211 198.082 167.914C199.204 166.779 200.243 165.491 201.571 164.591C202.087 164.282 203.042 164.149 203.282 164.853C204.276 167.353 198.717 174.072 197.133 176.259C195.709 178.099 194.275 179.965 192.651 181.634L192.644 181.634ZM212.699 149.438C211.823 152.286 210.465 154.974 209.188 157.654C208.736 158.569 208.296 159.518 207.836 160.434C207.539 160.992 207.259 161.586 206.827 162.056C205.912 161.399 205.46 160.186 205.46 159.088C205.548 157.573 206.264 156.164 206.777 154.761C207.257 153.567 207.744 152.35 208.381 151.227C209.251 149.726 210.279 148.304 211.312 146.915C211.572 146.592 211.857 146.198 212.301 146.154C212.423 146.141 212.576 146.15 212.656 146.264C213.239 147.211 212.96 148.432 212.695 149.442L212.699 149.438ZM219.561 133.551C219.428 135.363 219.083 137.168 218.641 138.929C218.29 140.285 217.888 141.656 217.145 142.851C216.962 143.139 216.76 143.439 216.513 143.681C216.447 143.748 216.327 143.676 216.252 143.655C215.165 143.079 214.618 141.722 214.453 140.56C214.152 135.698 216.146 130.01 218.876 126.036C219.512 128.474 219.706 131.045 219.565 133.555L219.561 133.551ZM223.167 120.426C223.023 121.53 222.813 122.658 222.568 123.737C222.149 121.043 222.141 118.302 222.437 115.594C222.574 114.149 222.7 112.678 223.131 111.284C223.379 114.314 223.561 117.397 223.167 120.419L223.167 120.426ZM216.994 120.594C216.236 122.297 215.38 123.995 214.284 125.503C213.712 126.224 212.913 127.227 212.032 126.247C210.16 124.143 209.341 121.311 208.803 118.604C207.892 114.186 208.059 109.643 208.471 105.186C208.664 103.031 208.875 100.843 209.277 98.7226C209.531 97.5502 209.761 96.2966 210.404 95.2664C211.578 96.0863 212.242 97.541 212.972 98.7388C214.167 100.916 215.249 103.202 216.223 105.487C218.55 110.914 219.591 115.015 216.994 120.594ZM216.26 96.3058C215.422 94.3122 214.383 92.307 214.104 90.1414C215.266 90.5497 215.987 91.6957 216.55 92.7255C217.505 94.5985 218.203 96.6166 218.871 98.6054C219.514 100.635 220.169 102.706 220.457 104.816C218.909 102.066 217.566 99.1711 216.264 96.302L216.26 96.3058ZM222.35 91.7405C223.006 94.5752 223.566 97.456 223.889 100.348L223.864 100.374C223.78 100.461 223.693 100.559 223.625 100.66C222.465 97.4695 221.396 94.2296 220.42 90.977C219.882 89.1419 219.45 87.257 219.288 85.3492C219.24 84.6119 219.141 83.8122 219.446 83.1175C220.793 85.8412 221.652 88.7914 222.35 91.7405ZM209.533 76.3998C209.308 75.4055 209.203 74.2647 209.7 73.3407C210.855 73.9532 212.078 76.5861 212.722 77.7815C214.001 80.447 215.342 83.2375 215.456 86.2329C213.116 85.0307 210.161 78.9753 209.537 76.4035L209.533 76.3998ZM211.363 65.6698C211.875 65.6766 212.451 65.7009 212.88 66.0132C213.818 66.8961 214.234 68.1841 214.696 69.3564C215.679 72.0562 216.726 74.7735 217.281 77.5987C215.784 74.97 214.569 72.1775 213.204 69.48C212.569 68.1917 211.791 66.9687 211.145 65.6843C211.2 65.6797 211.3 65.6745 211.36 65.6735L211.363 65.6698ZM203.598 51.574C204.984 53.6369 206.446 55.6725 207.759 57.7885C208.47 59.0199 209.364 60.2522 209.678 61.6531C208.025 61.2006 206.922 59.7008 205.942 58.3919C204.411 56.2535 203.442 53.7204 203.28 51.0931C203.365 51.2179 203.514 51.4492 203.598 51.574ZM197.68 54.4081C199.215 55.8158 200.186 57.7182 201.4 59.3832C202.942 61.6698 204.645 63.8576 206.264 66.0948C206.747 66.8439 207.316 67.6473 207.335 68.5669C207.243 69.8592 206.369 70.4775 205.152 69.8995C204.323 69.4933 203.667 68.7877 203.045 68.1224C202.043 67.0253 201.077 65.8461 200.137 64.6999C198.809 63.1072 197.532 61.4469 196.53 59.6303C196.194 58.9493 195.596 58.228 195.802 57.4235C195.967 56.7681 196.288 56.1548 196.647 55.5853C196.939 55.1542 197.253 54.7078 197.677 54.4044L197.68 54.4081ZM193.093 61.1494C193.296 61.9994 192.791 62.8641 192.251 63.4846C189.575 66.1454 185.104 61.2303 183.233 59.3457C181.631 57.5608 179.886 55.6964 179.1 53.383C178.996 52.9915 178.901 52.5516 178.993 52.1532C179.014 52.0861 179.038 51.993 179.112 51.9622C179.66 51.7496 180.298 51.9361 180.839 52.0946C182.521 52.6765 184.062 53.6538 185.561 54.5984C187.351 55.7572 189.12 56.9906 190.776 58.3408C191.694 59.1239 192.676 59.9912 193.09 61.1532L193.093 61.1494ZM188.047 34.6219C190.232 36.6203 192.342 38.72 194.451 40.7975C198.059 44.3203 199.771 45.3246 199.346 50.8173C197.55 49.1578 196.019 47.2233 194.383 45.4129C192.442 43.2215 190.413 41.076 188.571 38.7978C186.651 36.3723 184.947 33.7544 183.44 31.0517C185.162 31.9631 186.604 33.3389 188.047 34.6219ZM166.256 22.8903C168.746 23.6191 171.004 25.0265 173.144 26.4655C176.374 28.7294 179.503 31.529 181.184 35.1562C177.122 34.6043 173.499 32.3243 170.111 30.1334C167.923 28.6915 165.762 27.1823 163.581 25.7328C162.505 25.0079 161.357 24.3731 160.302 23.6181C162.069 22.5888 164.286 22.3426 166.26 22.894L166.256 22.8903ZM158.14 27.7619C159.477 29.488 158.828 31.6533 157.359 33.0562C155.325 35.0133 152.703 36.2934 150.058 37.2103C147.189 38.1864 144.627 38.2822 141.84 36.9536C139.673 36.0417 137.58 34.9025 135.728 33.4367C135.097 32.8865 134.227 32.4105 133.979 31.5539C133.422 29.1775 135.916 26.5085 137.35 24.8316C138.083 24.0189 138.86 23.2203 139.627 22.4405C140.31 21.7621 141.048 21.0198 142.027 20.8078C143.971 20.4583 146.503 21.8243 148.313 22.5378C150.645 23.5657 152.953 24.6719 155.246 25.7858C156.281 26.3185 157.386 26.8465 158.147 27.7544L158.14 27.7619ZM142.522 13.1366C143.574 12.7269 144.767 12.6414 145.863 12.9284C147.766 13.4401 149.543 14.3469 151.361 15.0899C153.831 16.1639 156.393 17.1437 158.635 18.659C158.858 18.8521 159.199 19.0433 159.25 19.3541C157.931 20.3207 155.556 20.2912 153.996 20.0152C150.781 19.3498 147.689 17.9889 144.904 16.2484C143.869 15.5339 142.799 14.7199 142.204 13.5867C142.062 13.333 142.323 13.2288 142.514 13.1368L142.522 13.1366ZM138.44 15.4448C138.927 16.0084 139.332 16.7699 139.136 17.526C139.042 17.8056 138.706 17.9036 138.46 18.0077C137.052 18.4452 135.527 18.1093 134.126 17.7753C131.798 17.1219 129.437 16.3281 127.392 15.01C126.86 14.6215 126.031 13.9816 126.113 13.2533C126.382 12.6556 127.12 12.4363 127.718 12.3305C129.409 12.1222 131.135 12.492 132.792 12.8183C134.801 13.2875 137.019 13.8202 138.437 15.4412L138.44 15.4448ZM136.884 8.16568C138.182 8.47914 139.5 8.8776 140.677 9.51194C137.885 9.91559 135.071 9.2513 132.323 8.77515C129.392 8.20172 126.369 7.67054 123.734 6.18369C128.148 6.53723 132.565 7.19119 136.888 8.16933L136.884 8.16568ZM113.384 7.97829C115.776 7.95186 118.311 7.84528 120.543 8.86368C121.102 9.14052 121.724 9.47942 121.952 10.0916C122.256 10.9585 122.039 11.956 121.572 12.7274C121.168 13.4423 120.481 13.6088 119.705 13.5654C118.402 13.5154 117.116 13.198 115.883 12.7871C114.594 12.3511 113.319 11.8333 112.068 11.2965C110.698 10.6578 109.068 10.075 108.206 8.75694C108.967 8.05135 112.243 8.05555 113.388 7.98194L113.384 7.97829ZM107.99 14.2983C109.812 14.6814 113.538 15.4538 112.907 17.986C111.866 20.7398 108.397 22.1408 105.859 23.2044C100.836 25.1565 95.5379 26.5824 90.1235 26.8418C87.5733 26.9412 81.1191 27.3244 80.3093 24.2102C79.8911 22.0988 81.1851 20.0828 82.7006 18.7385C86.5976 15.2277 95.5958 14.441 100.807 14.0216C103.185 13.8878 105.626 13.8792 107.987 14.2947L107.99 14.2983ZM64.6828 36.9225C61.5948 37.7462 57.5972 37.4529 54.9033 35.6183C55.3047 35.1112 55.8459 34.7318 56.342 34.3234C57.1703 33.6539 58.0287 33.0061 58.9372 32.4503C61.4538 30.9011 64.3258 30.0362 67.1509 29.2352C69.5535 28.6373 74.8466 26.9889 77.0184 28.1529C76.9402 28.8552 76.4067 29.4311 75.9722 29.9498C73.1279 32.8766 68.6212 35.785 64.6866 36.9261L64.6828 36.9225ZM52.2408 50.9758C51.371 51.6126 50.3795 52.6408 49.2056 52.1993C47.1807 51.3297 46.2239 48.4589 46.0891 46.4172C45.9803 44.9166 46.5209 43.6062 47.609 42.5839C48.4271 41.781 49.2698 40.9072 50.3438 40.46C52.0513 39.7952 53.9908 40.1246 55.669 40.7325C57.0008 41.2754 58.8865 42.2362 58.8428 43.8949C58.8064 44.2887 58.5388 44.6267 58.3151 44.9344C57.9034 45.475 57.4212 46.0204 56.9642 46.5246C55.5208 48.1275 53.9267 49.6214 52.2444 50.972L52.2408 50.9758ZM81.6281 9.89017C82.5378 9.39367 83.5162 8.98513 84.4767 8.61024C88.3837 7.02809 91.9089 6.7205 96.0783 7.25223C97.4355 7.40525 98.8122 7.6062 100.153 7.85222C101.099 8.04508 102.086 8.22618 102.955 8.65764C101.683 9.37867 100.174 9.62491 98.76 9.93274C96.2105 10.4253 93.5881 10.804 91.0179 11.1894C88.795 11.5099 86.5317 11.8496 84.2958 12.0776C83.0885 12.1781 81.8263 12.3129 80.6334 12.0275C80.6254 11.998 80.6093 11.9389 80.6051 11.913C80.4187 10.97 80.7684 10.2969 81.6281 9.89017ZM72.9554 18.376C74.8277 17.4267 76.7214 16.4325 78.7183 15.7632C77.6804 18.5058 75.7879 20.9985 73.271 22.5328C71.5965 23.5421 69.7188 24.2318 67.8451 24.7583C66.7676 25.0349 65.643 25.3678 64.5184 25.3372C64.5931 25.184 64.7042 24.9931 64.7941 24.8544C66.7475 21.8971 69.865 19.9824 72.9554 18.376ZM39.4069 50.862C40.2414 50.133 41.1813 49.1204 42.1229 50.3483C43.6178 52.3278 44.2476 55.3484 43.9825 57.7896C43.8057 59.2909 43.0921 60.6671 42.3546 61.9621C41.6742 63.145 40.953 64.3321 40.1334 65.4244C39.2343 66.6218 38.1888 67.7287 37.0929 68.7363C36.6295 69.1108 36.1736 69.667 35.5286 69.6919C33.5377 69.5674 32.4138 66.5137 32.0568 64.8465C31.1741 61.2549 33.3011 58.0797 35.4235 55.4017C36.6823 53.8388 37.9366 52.2427 39.3994 50.8621L39.4069 50.862ZM64.998 16.0231C66.3709 15.1373 67.9831 14.7077 69.4918 14.1127C71.6391 13.3631 73.7995 12.5317 76.0554 12.1921C74.4328 13.3823 72.5658 14.2277 70.7509 15.087C69.0551 15.7851 66.6702 17.0614 64.8774 16.1103L64.9944 16.0269L64.998 16.0231ZM46.0895 28.965C47.0839 27.8959 48.3475 27.1083 49.5283 26.2625C52.9528 23.9461 56.248 21.2942 60.076 19.6576C60.6396 19.467 61.7159 19.1311 62.1715 19.6358C62.6517 20.9785 61.115 23.0946 60.4562 24.2474C58.601 27.2922 56.001 30.3747 52.2531 30.8601C50.9289 31.0441 49.512 31.2333 48.2261 30.7564C47.3841 30.4024 46.4489 29.8422 46.0931 28.9612L46.0895 28.965ZM42.2439 43.2542C40.9325 44.6064 39.4473 45.7982 38.0257 47.0223C37.0249 47.7799 35.5808 49.3531 34.2241 49.0405C34.1163 48.1297 34.741 47.3002 35.2384 46.595C37.1013 44.2845 39.398 42.3271 41.6245 40.3818C44.3059 38.1846 47.0964 35.7075 50.5869 34.9739C49.5456 36.4702 48.0089 37.5033 46.6722 38.7076C45.0723 40.094 43.6811 41.7108 42.2476 43.2579L42.2439 43.2542ZM21.5123 59.1773C22.0488 57.8484 22.7719 56.5759 23.5183 55.3549C24.3801 53.9689 25.3718 52.5846 26.805 51.7498C27.7974 51.1222 29.1127 50.6824 30.1702 51.4188C31.5415 52.4358 30.5145 54.2658 29.8366 55.3929C29.0761 56.6512 28.2032 57.8593 27.3601 59.0669C26.3285 60.4927 25.3876 61.9986 24.4124 63.4642C23.817 64.2711 23.2992 65.2473 22.4541 65.8207C21.9012 65.273 21.6695 64.468 21.4432 63.7482C21.0342 62.2635 20.9337 60.6256 21.5085 59.1737L21.5123 59.1773ZM12.6304 83.0822C12.3512 80.3343 12.6785 77.4953 13.4624 74.8493C14.5254 71.5277 16.1492 68.4123 17.7175 65.309C17.7331 65.3459 17.78 65.4638 17.7994 65.5043C18.6293 67.613 19.2407 69.9254 18.898 72.1972C18.0999 76.3122 15.7899 80.3285 12.6304 83.0822ZM26.5841 68.4006C26.8743 68.0844 27.1761 67.6049 27.6391 67.5717C27.93 67.6487 28.1288 67.9349 28.3114 68.1546C29.799 70.316 30.6774 73.3438 30.5977 75.9564C30.5379 77.3743 30.0504 78.7433 29.5321 80.0534C29.0062 81.3562 28.4547 82.6779 27.7602 83.8981C27.1443 84.976 26.4087 86.0039 25.631 86.9694C25.4717 87.1574 25.2872 87.3865 25.1089 87.5563C25.0145 87.6542 24.8977 87.745 24.7529 87.7436C22.9228 87.6796 21.6619 84.2757 21.3077 82.7494C20.4805 79.5093 22.0402 76.3468 23.496 73.5419C24.4579 71.7946 25.3515 69.9741 26.5839 68.3931L26.5841 68.4006ZM11.512 116.32C11.1232 115.633 10.9582 114.827 10.7867 114.065C10.5028 112.708 10.3106 111.302 10.1487 109.925C9.36083 104.091 10.0621 98.1526 11.7905 92.5578C12.3754 90.694 13.172 88.8454 14.3941 87.3054C15.071 86.4898 16.197 85.1479 17.3101 86.054C18.7367 87.2409 19.4827 89.0578 20.1664 90.7348C21.7191 94.6163 21.4088 99.0056 19.9374 102.849C18.8034 105.79 17.1571 108.527 15.4907 111.195C14.2959 112.979 13.1825 114.936 11.5122 116.328L11.512 116.32ZM25.6772 101.821C24.7095 99.3247 25.5295 95.5506 26.3614 93.0746C26.6667 92.2278 27.0424 91.3761 27.5425 90.6227C27.8092 90.2402 28.1045 89.8127 28.5304 89.5983C29.7407 89.1008 31.1974 90.6655 31.9377 91.4885C33.5126 93.3851 34.6212 95.8789 34.2421 98.3701C33.8924 100.482 32.9058 102.649 31.1747 103.975C29.1329 105.524 26.5295 103.936 25.6772 101.821ZM9.73784 130.143C9.41389 127.563 8.55332 123.062 10.4171 120.978C11.0229 121.751 11.2845 122.745 11.5373 123.672C11.921 125.19 12.1834 126.766 12.4341 128.309C12.9578 131.765 13.5738 135.558 11.9044 138.796L11.8899 138.811C10.5658 136.124 10.2394 133.062 9.73769 130.135L9.73784 130.143ZM16.3662 120.202C17.0606 116.634 18.7109 113.188 21.1332 110.479C23.0595 108.368 25.3311 107.709 27.8821 109.275C31.0708 111.18 33.3968 114.426 33.3269 118.233C33.3286 120.299 32.8738 122.354 32.3658 124.342C31.7193 126.815 30.9054 129.265 29.9413 131.628C29.1358 133.585 28.2451 135.546 27.1096 137.33C26.2884 138.522 25.1698 140.227 23.5014 139.912C21.0233 139.187 18.9542 135.447 17.995 133.185C16.39 129.1 15.6394 124.538 16.3661 120.194L16.3662 120.202ZM21.5605 156.627C19.0092 155.41 17.7489 151.854 16.7261 149.385C16.015 147.456 15.2912 145.457 15.1893 143.388C15.1684 142.736 15.2211 142.053 15.4047 141.423C15.5094 141.102 15.6244 140.741 15.8906 140.518C16.3041 140.24 16.8297 140.544 17.2195 140.738C19.1325 141.943 20.6743 143.677 22.1996 145.33C23.8018 147.115 25.4484 149.429 24.7471 151.944C24.4892 153.113 23.2111 157.339 21.5643 156.631L21.5605 156.627ZM26.4694 178.654C26.2121 178.049 25.6509 177.639 25.3204 177.08C23.4253 174.402 21.951 171.447 20.9593 168.324C20.2093 165.951 19.2045 162.91 19.6728 160.433C22.8458 161.755 24.9106 165.288 26.7992 168.01C29.1905 171.545 31.3153 175.287 32.6564 179.343C33.47 181.741 34.3654 184.153 34.7658 186.662C31.5827 184.486 28.7297 181.771 26.4729 178.642L26.4694 178.654ZM36.928 179.973C36.444 178.627 36.0211 177.187 36.1064 175.743C36.2083 174.024 37.2427 172.375 39.178 172.86C41.3983 173.497 43.0936 175.481 44.6698 177.081C46.5919 179.269 48.6912 181.591 49.4956 184.446C49.6919 185.151 49.5145 185.903 49.0888 186.489C48.3003 187.647 46.8918 188.426 45.4686 188.311C43.6238 188.073 41.9521 186.701 40.5703 185.528C38.8888 184.037 37.6908 182.068 36.928 179.973ZM50.6344 201.376C49.4 200.52 48.157 199.604 46.9659 198.688C43.8204 196.178 39.921 193.45 38.8979 189.345C42.2874 191.451 45.5157 193.837 48.5442 196.431C50.3804 198.049 52.3126 199.643 53.8325 201.574C54.1 201.956 54.4057 202.388 54.4267 202.867C53.0111 203.123 51.7515 202.119 50.6382 201.379L50.6344 201.376ZM54.4653 196.275C53.2558 195.188 51.9686 194.107 51.0283 192.764C50.798 192.389 50.4015 191.687 50.7421 191.296C51.7951 190.727 53.1229 191.077 54.188 191.457C56.4255 192.386 58.3782 193.899 60.4117 195.191C62.5815 196.615 64.8194 198.104 66.3219 200.272C66.0116 201.238 65.1661 201.971 64.2927 202.43C63.5736 202.819 62.8893 202.734 62.1985 202.337C61.2869 201.843 60.4644 201.173 59.6538 200.537C57.9075 199.143 56.1464 197.75 54.4654 196.282L54.4653 196.275ZM68.1964 212.758C65.4651 211.265 62.7654 209.687 60.0663 208.138C59.0676 207.56 58.0503 206.979 57.1234 206.281C58.2915 205.54 59.0385 205.606 60.2029 206.307C61.4232 207.019 62.6011 207.835 63.8288 208.546C65.755 209.67 67.7393 210.733 69.6618 211.86C70.9325 212.678 73.2359 213.744 73.6015 215.288C71.6908 214.732 69.9515 213.68 68.1964 212.758ZM72.6313 208.705C71.1908 207.926 69.6976 207.111 68.5346 205.939C68.3483 205.723 68.1392 205.478 68.0998 205.185C70.442 204.173 73.9478 205.984 76.0913 207.033C77.8702 208.029 79.8077 208.982 81.1931 210.507C78.2498 211.15 75.2406 210.036 72.6351 208.708L72.6313 208.705ZM96.8186 221.701C92.8844 221.061 89.0535 219.86 85.263 218.633C83.7017 218.116 82.1064 217.566 80.5804 216.959C79.7457 216.598 78.8193 216.286 78.135 215.662C78.4646 215.457 78.8433 215.291 79.2076 215.148C80.4813 214.668 81.8292 214.377 83.1627 214.1C84.8731 213.75 86.6861 213.521 88.3958 214.043C89.9783 214.508 91.4807 215.23 93.0385 215.758C95.7327 216.706 98.512 217.468 101.136 218.61C102.278 219.145 104.009 220.123 103.724 221.607C103.568 222.7 97.7789 221.856 96.8222 221.697L96.8186 221.701ZM109.428 213.973C106.103 215.019 103.057 214.785 99.8014 213.608C99.3229 213.43 97.0658 212.628 97.199 212.073C98.1566 210.837 100.296 210.24 101.811 210.138C103.334 210.037 104.877 210.239 106.388 210.445C108.612 210.759 110.824 211.321 112.855 212.305C112.903 212.331 113.042 212.399 113.087 212.421C111.947 213.102 110.692 213.586 109.432 213.976L109.428 213.973ZM114.214 208.23C113.127 206.993 113.819 204.571 114.67 203.364C115.777 201.64 117.965 201.446 119.835 201.643C122.092 201.893 124.63 202.45 126.484 203.831C127.594 204.596 125.041 205.994 124.462 206.359C121.919 207.723 116.835 210.336 114.214 208.23ZM111.289 220.746C110.262 220.629 109.191 220.497 108.244 220.064C107.88 219.873 107.268 219.515 107.325 219.039C107.441 218.745 107.818 218.657 108.09 218.556C109.528 218.111 111.169 218.167 112.462 219.014C113.199 219.478 113.905 220.056 114.42 220.764C113.392 220.914 112.322 220.842 111.289 220.754L111.289 220.746ZM139.425 216.929C136.82 218.676 133.657 219.253 130.623 219.823C128.764 220.16 126.874 220.454 125.006 220.724C123.493 220.907 121.843 221.286 120.393 220.615C118.859 219.819 116.375 217.321 116.076 215.601C115.994 215.079 116.526 214.792 116.881 214.523C117.839 213.87 118.9 213.331 119.932 212.799C122.579 211.478 125.268 210.182 128.028 209.1C131.185 207.871 134.745 207.073 138.085 208.055C140.012 208.641 141.469 210.402 141.854 212.358C142.294 214.462 141.091 215.861 139.426 216.937L139.425 216.929ZM149.237 210.974C148.581 211.184 147.87 211.407 147.17 211.299C146.113 211.123 145.585 209.981 145.628 208.998C145.691 206.296 148.123 204.615 150.07 203.134C152.361 201.448 154.647 199.509 157.475 198.826C158.106 198.664 159.101 200.707 159.293 201.22C159.868 202.661 160.122 204.542 158.926 205.736C158.095 206.599 157.028 207.205 155.997 207.796C154.651 208.533 153.252 209.212 151.871 209.879C151.022 210.282 150.136 210.67 149.245 210.974L149.237 210.974ZM153.336 216.889C152.328 217.29 151.322 217.826 150.258 218.043C147.905 218.528 145.633 219.332 143.264 219.744C142.997 219.748 142.688 219.719 142.424 219.69C144.804 217.624 147.548 215.974 150.528 214.93C152.92 214.002 155.596 213.545 158.091 214.366C156.602 215.358 154.968 216.158 153.336 216.889ZM167.802 209.614C165.214 210.782 162.359 211.576 159.558 210.626C162.419 208.538 165.748 207.176 169.035 205.897C171.693 204.905 174.345 203.829 177.062 202.996C177.327 202.918 177.663 202.834 177.933 202.775C174.975 205.607 171.578 208.008 167.798 209.61L167.802 209.614ZM188.753 196.047C186.976 197.154 185.124 198.173 183.178 198.957C184.966 196.262 187.239 193.904 189.257 191.38C190.76 189.572 192.318 187.775 193.945 186.08C194.962 185.033 195.982 183.945 197.158 183.066C198.12 182.372 199.174 182.248 199.039 183.782C198.94 184.536 198.531 185.218 198.166 185.869C197.398 186.263 196.842 186.962 196.408 187.692C196.089 188.257 195.775 188.863 195.703 189.52C194.692 190.842 193.579 192.109 192.326 193.212C191.166 194.187 189.988 195.174 188.745 196.047L188.753 196.047Z" fill="url(#paint0_linear_2702_474)"/>
<defs>
<linearGradient id="paint0_linear_2702_474" x1="34.3254" y1="34.3065" x2="199.086" y2="193.194" gradientUnits="userSpaceOnUse">
<stop stop-color="#FFD6D3"/>
<stop offset="1" stop-color="#FBC624"/>
</linearGradient>
</defs>
</svg>
