<svg width="245" height="246" viewBox="0 0 245 246" fill="none" xmlns="http://www.w3.org/2000/svg">
<path d="M13.2734 131.886C31.4344 269.361 229.314 256.886 232 119.716C224.771 -30.2396 4.18283 -18.4851 13.2734 131.886ZM221.617 91.406C221.783 91.441 221.913 91.5462 221.979 91.7013C222.522 92.9028 222.688 94.2395 222.955 95.5211C223.624 99.2657 224.595 103.015 224.675 106.835C224.66 107.13 224.625 107.451 224.514 107.726C223.171 106.239 222.779 102.335 222.371 100.307C222.069 98.4847 221.823 96.6375 221.461 94.8252C221.259 93.6938 220.897 92.5724 220.822 91.426C221.073 91.3459 221.355 91.3409 221.612 91.406H221.617ZM220.711 130.094C220.882 134.349 220.017 138.624 218.231 142.494C217.28 144.422 216.229 146.94 214.03 147.671C212.828 148.046 211.565 147.43 210.816 146.489C207.953 143.195 209.83 134.444 211.505 130.76C212.556 128.447 213.779 126.089 215.655 124.332C217.335 122.845 219.172 122.52 220.032 124.993C220.565 126.625 220.641 128.392 220.716 130.094H220.711ZM45.2941 118.084C48.0358 119.115 50.4657 121.113 51.834 123.706C52.7899 125.543 53.1621 127.626 53.5244 129.648C53.7155 130.915 53.8715 132.252 53.5093 133.503C53.0515 135.771 46.9844 135.501 45.2035 135.145C43.5886 134.85 41.8329 134.284 40.8922 132.852C39.7804 131.06 39.6647 128.852 39.5288 126.8C39.4332 124.672 39.398 122.514 39.72 120.402C40.1174 117.083 42.7133 117.148 45.3041 118.089L45.2941 118.084ZM41.8882 96.267C42.7837 92.1519 43.7245 87.9217 45.8827 84.2571C47.0196 82.4299 49.8821 78.2547 52.3622 79.8867C53.7105 80.8679 54.3293 82.56 54.6764 84.132C55.602 89.2483 52.4427 95.8765 50.3449 100.517C49.7513 101.769 49.0973 103.085 48.4534 104.317C47.1756 106.655 44.0213 112.888 41.1839 113.058C38.3718 112.747 41.4707 98.5498 41.8832 96.267H41.8882ZM42.3611 140.467C45.0375 138.78 49.6658 139.976 51.8139 142.109C53.957 144.211 54.6764 147.27 55.3757 150.084C55.7127 151.696 56.085 153.388 55.8435 155.04C55.8083 155.435 55.4411 155.651 55.109 155.791C53.1018 156.497 50.8581 156.296 48.7955 155.941C46.4209 155.5 44.2125 154.439 43.2113 152.121C42.3008 150.179 41.9134 148.036 41.5663 145.938C41.3701 144.281 40.8368 141.618 42.3662 140.467H42.3611ZM51.2706 116.337C48.9363 113.859 50.5965 109.684 51.6881 106.955C52.6993 104.773 55.4914 98.5949 58.5903 100.602C60.0392 101.639 60.824 103.371 61.3572 105.023C62.2225 107.961 62.0263 111.406 60.1398 113.919C58.3488 116.392 53.9469 118.71 51.2706 116.342V116.337ZM102.131 39.1763C105.024 35.9373 109.678 35.4167 113.757 34.881C115.131 34.7358 116.514 34.5506 117.898 34.5306C118.642 34.5356 119.643 34.5005 119.814 35.4267C120.202 38.926 111.75 43.0611 108.968 44.4779C106.402 45.6493 103.661 46.9409 100.778 46.8258C99.6714 46.7507 99.445 45.8245 99.5104 44.8784C99.6965 42.7658 100.753 40.7683 102.131 39.1813V39.1763ZM99.8223 31.3416C99.8223 31.3416 99.9028 31.2966 99.9078 31.2966C101.321 30.6658 102.906 30.4455 104.425 30.2052C106.594 29.9549 109.018 29.6745 110.996 30.7959C109.793 31.4467 108.354 31.5769 107.026 31.8122C104.657 32.1026 102.051 32.4179 99.8273 31.3466L99.8223 31.3416ZM204.205 82.0394C201.992 82.1796 199.708 81.8742 197.585 81.3535C195.326 80.8229 194.471 79.8367 194.189 77.5889C193.993 75.3711 193.812 71.8217 194.762 69.8393C195.386 68.5176 197.077 68.813 198.193 69.2686C200.94 70.3549 202.666 72.9431 204.19 75.3361C205.166 76.9981 206.082 78.8004 206.303 80.7378C206.424 81.8491 205.02 81.9543 204.21 82.0444L204.205 82.0394ZM208.3 89.3234C209.216 90.6901 209.674 92.3121 210.056 93.8891C210.358 95.2407 210.65 96.6124 210.8 97.9841C211.042 100.342 210.881 101.804 208.215 102.274C205.392 102.745 202.444 102.51 199.677 101.834C197.736 101.348 197.439 100.487 197.026 98.675C196.488 96.0968 196.367 93.4235 196.337 90.7952C196.267 87.7665 198.425 86.2796 201.287 86.2746C203.868 86.2896 206.766 87.1057 208.295 89.3184L208.3 89.3234ZM194.118 106.975C193.877 109.353 193.585 111.761 193.243 114.129C192.549 118.234 191.729 125.899 189.058 128.977C186.17 132.126 183.267 127.18 182.337 124.702C181.124 121.638 180.43 118.329 180.515 115.03C180.581 110.139 183.126 105.478 186.829 102.345C188.57 100.873 191.578 99.5911 193.651 101.083C194.778 102.164 194.204 105.483 194.118 106.975ZM153.042 95.3408C148.278 93.063 143.469 90.4298 139.832 86.545C138.086 84.6176 136.823 82.1896 136.527 79.5914C136.441 78.7203 136.35 77.7991 136.597 76.9431C137.407 74.6202 140.833 74.6252 142.895 74.5051C148.429 74.485 154.184 75.306 159.105 77.9593C163.979 80.6827 168.316 85.4586 166.364 91.3709C166.017 92.5073 165.509 93.6137 164.925 94.65C164.487 95.421 163.994 96.2119 163.3 96.7826C160.674 98.8852 155.754 96.4773 153.042 95.3459V95.3408ZM164.88 124.607C165.73 127.275 165.821 130.134 165.926 132.912C165.936 135.34 166.072 137.838 165.524 140.221C165.046 142.369 162.983 143.075 161.021 143.355C158.496 143.746 155.407 143.07 154.642 140.307C153.802 136.897 154.748 133.308 155.628 129.994C155.975 128.807 156.388 127.581 156.851 126.434C157.6 124.722 158.37 122.695 160.131 121.784C160.855 121.463 161.705 121.488 162.45 121.729C163.723 122.159 164.472 123.401 164.89 124.607H164.88ZM144.133 95.8615C148.419 97.869 152.62 100.432 155.749 104.022C158.134 106.83 159.482 110.515 159.386 114.199C159.306 115.796 159.145 117.573 158.098 118.86C156.549 120.532 153.505 120.222 151.397 120.267C145.849 120.076 139.112 119.311 135.455 114.655C132.723 110.865 132.336 105.909 132.628 101.388C132.864 99.2207 133.005 96.8127 134.343 94.9904C136.476 92.3722 141.603 94.8102 144.133 95.8565V95.8615ZM81.4651 137.648C81.9229 134.469 83.3265 131.11 86.6216 130.014C88.9458 129.143 93.1163 128.988 95.2091 130.444C96.4265 131.486 95.9134 133.288 95.6568 134.65C94.701 138.589 92.9956 144.887 89.8866 147.576C87.9296 149.243 84.8105 149.248 82.763 147.736C81.3393 146.469 81.2639 144.352 81.1582 142.579C81.1079 140.937 81.2136 139.265 81.4651 137.643V137.648ZM73.1895 112.622C65.0749 113.358 64.919 107.941 68.7222 102.42C70.654 99.7914 73.919 96.282 77.516 97.7488C79.9408 98.8101 81.5657 101.388 81.7267 103.987C81.8977 108.843 77.8027 112.217 73.1895 112.622V112.622ZM101.789 140.807C104.496 140.757 106.951 142.359 108.903 144.086C113.471 148.176 115.634 154.704 114.532 160.707C113.43 166.769 108.636 168.637 102.972 168.486C100.984 168.381 98.2175 168.416 96.9145 166.684C95.4103 164.351 95.2946 159.876 95.2393 157.107C95.2795 152.632 95.8882 141.203 101.794 140.807H101.789ZM112.877 140.422C110.14 139.085 107.565 137.383 105.15 135.531C103.263 133.954 99.4953 131.3 100.612 128.492C101.477 126.264 103.6 124.787 105.819 124.066C109.265 123.005 113.144 122.795 116.565 124.031C118.753 124.797 120.358 126.69 120.961 128.892C121.932 132.026 121.792 137.838 119.804 140.537C118.039 142.704 114.955 141.398 112.872 140.422H112.877ZM117.767 120.061C114.396 119.631 109.205 118.96 107.474 115.666C105.195 110.71 111.192 104.187 114.819 101.273C119.563 97.4685 125.71 95.3959 127.396 103.176C128.181 106.725 128.231 110.435 127.874 114.039C127.587 116.036 127.381 118.595 125.409 119.681C123.416 120.637 119.98 120.222 117.767 120.061V120.061ZM120.393 83.7665C121.223 81.3986 123.552 80.082 125.962 79.8166C131.073 79.2209 135.022 81.699 133.614 87.2308C133.126 89.1632 131.848 90.8853 130.082 91.8415C127.949 92.9829 125.258 93.4785 122.954 92.5774C119.674 91.1907 119.301 86.7252 120.398 83.7665H120.393ZM127.506 123.025C128.628 121.729 130.52 121.663 132.115 121.578C137.1 121.523 144.143 121.819 147.956 125.353C151.005 128.437 150.18 133.583 147.866 136.862C146.241 139.255 143.459 140.677 140.586 140.822C136.587 141.047 132.381 139.726 129.423 136.997C127.144 134.835 126.118 131.636 126.133 128.552C126.193 126.675 126.334 124.577 127.506 123.03V123.025ZM131.591 75.296C127.607 76.4274 123.416 76.7328 119.296 76.9431C115.785 76.9731 111.071 77.3636 109.119 73.7892C107.343 70.42 107.444 64.4476 108.52 60.8431C109.044 59.101 110.392 58.6204 112.072 58.4652C113.742 58.305 115.458 58.29 117.138 58.28C126.546 58.3901 133.684 59.2962 134.67 70.2448C134.937 73.2385 134.67 74.3749 131.591 75.296ZM109.446 78.7803C112.127 79.2259 114.034 81.0982 114.648 83.7165C115.538 87.351 114.874 91.2758 113.295 94.63C112.359 96.5624 111.091 98.3596 109.602 99.9115C108.118 101.373 106.191 103.171 104.008 103.291C102.574 103.291 101.664 101.979 101.08 100.828C100.164 98.9703 99.5707 96.9478 99.0425 94.9554C98.4187 92.4923 97.9408 89.9492 97.7848 87.411C97.5735 84.2922 97.9861 80.5776 101.382 79.3661C103.937 78.4499 106.785 78.3448 109.446 78.7854V78.7803ZM98.4288 105.679C102.816 108.112 102.936 115.446 101.437 119.636C100.818 121.368 99.5255 122.845 97.8452 123.621C95.194 124.832 92.1554 125.038 89.2778 124.857C87.0643 124.642 84.4634 124.192 83.1403 122.219C81.455 119.456 82.5769 115.706 83.578 112.868C84.7351 109.919 86.4908 106.87 89.4589 105.438C92.251 104.132 95.7273 104.187 98.4338 105.679H98.4288ZM93.2068 98.4046C91.0336 101.659 86.4807 99.1055 84.232 97.1881C80.4589 93.9491 78.7032 89.6588 81.8826 85.3034C84.1716 82.1295 88.5081 80.3673 91.099 84.2371C93.2169 87.3309 95.1185 95.0104 93.2068 98.4046ZM79.4528 80.3423C77.7625 84.8278 75.1364 88.9529 72.0325 92.6025C70.8854 93.9191 69.6429 95.2007 68.2544 96.257C66.9413 97.2382 65.2963 98.2044 63.5959 97.8039C61.0956 97.118 59.6317 94.5449 58.9726 92.202C58.2935 89.7039 59.038 87.0256 60.4668 84.9229C63.3896 80.5826 71.9369 74.2648 77.038 73.0082C78.0593 72.7829 79.4679 72.5777 80.1219 73.5939C81.0979 75.4012 80.0816 78.495 79.4528 80.3423V80.3423ZM73.1543 117.423C77.7323 118.179 79.0856 121.173 79.4226 125.423C79.5987 127.506 79.6289 129.638 79.4327 131.721C79.2516 133.999 78.4567 136.742 76.0017 137.473C71.0464 138.945 59.189 132.637 57.071 128.016C55.8536 125.653 56.4321 123.025 58.3287 121.203C61.8502 117.779 68.4204 116.662 73.1543 117.423V117.423ZM79.4528 161.798C79.8301 159.19 80.6652 156.426 82.6473 154.579C84.0559 153.283 86.2846 152.967 87.9548 153.938C91.1644 155.791 91.5517 161.353 90.5104 164.547C89.635 167.36 86.7876 168.907 84.0559 169.508C81.5557 170.138 80.2326 169.658 79.644 167.03C79.2566 165.322 79.2365 163.535 79.4528 161.803V161.798ZM88.4075 173.753C89.2175 172.136 90.9933 171.315 92.6786 170.889C93.6797 170.644 94.7412 170.429 95.7725 170.614C98.1118 171.09 99.7468 173.052 101.281 174.729C103.283 177.042 105.12 179.53 106.724 182.133C111.126 189.307 109.718 192.091 101.145 191.77C97.5283 191.67 93.0257 191.48 91.3455 187.69C89.7004 184.426 86.6971 177.167 88.4025 173.753H88.4075ZM106.916 173.793C106.699 170.99 112.012 171.675 113.778 171.881C115.916 172.186 118.049 172.722 120.066 173.503C122.204 174.364 124.397 175.47 125.826 177.332C127.491 179.55 126.787 181.908 124.081 182.704C120.665 183.615 116.902 182.909 113.773 181.362C111.131 179.986 107.434 176.837 106.921 173.793H106.916ZM125.157 171.17C121.968 169.147 120.489 165.483 120.006 161.883C119.432 157.853 119.467 153.688 120.237 149.688C121.037 145.503 123.094 143.991 127.345 144.111C132.175 144.216 144.576 146.554 145.833 151.946C146.87 156.201 142.352 162.399 139.947 165.788C138.594 167.595 137.155 169.383 135.546 170.969C134.253 172.236 132.613 173.523 130.691 173.302C128.729 173.032 126.822 172.236 125.162 171.17H125.157ZM144.862 167.2C147.272 164.376 150.879 162.659 154.582 162.404C160.045 162.003 166.138 164.146 166.248 170.454C166.268 170.959 166.248 171.56 166.208 172.066C165.936 174.589 165.182 177.282 163.315 179.105C161.489 180.827 158.762 180.812 156.428 180.416C152.479 179.675 148.439 178.474 145.179 176.066C141.789 173.548 142.367 170.138 144.868 167.205L144.862 167.2ZM156.489 157.172C154.677 156.532 152.66 155.736 151.644 154.008C150.527 152.081 151.88 149.978 153.717 149.132C155.035 148.487 156.524 148.191 157.978 148.091C160.734 147.931 163.808 148.447 165.755 150.559C166.983 151.861 167.752 153.538 168.255 155.235C168.462 156.041 168.794 156.927 168.512 157.748C167.737 160.081 158.365 157.853 156.489 157.172V157.172ZM168.019 120.292C165.977 120.357 164.95 119.436 164.407 117.528C163.884 115.666 163.738 113.699 163.632 111.776C163.542 109.609 163.567 107.411 163.864 105.258C164.105 103.901 164.457 101.478 166.092 101.198C168.165 101.073 170.6 103.776 171.903 105.218C174.504 108.237 177.618 113.368 175.459 117.323C173.935 119.631 170.61 120.237 168.014 120.302L168.019 120.292ZM169.775 128.792C169.941 125.919 171.515 122.56 174.946 123.416C177.25 124.041 178.88 126.369 178.971 128.702C179.077 131.235 176.767 133.068 174.544 133.793C170.655 135.04 169.553 132.096 169.775 128.792V128.792ZM170.876 95.6412C169.755 90.3246 173.699 87.6964 178.659 88.4974C183.031 89.1432 185.239 92.0568 184.273 96.4072C183.604 98.9553 182.09 101.634 179.615 102.795C175.817 104.397 171.601 98.9053 170.881 95.6412H170.876ZM193.132 94.4347C192.438 96.6975 190.657 96.242 189.309 94.8152C188.353 93.7789 187.86 92.4172 187.463 91.0956C187.08 89.804 186.748 88.4723 186.512 87.1457C186.23 85.3535 186.019 83.5012 186.2 81.6839C186.341 80.5075 186.995 79.4862 188.308 79.5663C189.249 79.6214 190.205 79.9168 190.969 80.4724C191.477 80.8729 191.784 81.4737 192.066 82.0394C192.891 83.7064 193.143 85.5888 193.258 87.421C193.339 88.6926 193.384 90.0042 193.409 91.2808C193.424 92.3271 193.444 93.4185 193.127 94.4297L193.132 94.4347ZM188.298 75.3361C187.01 75.2259 185.853 74.485 184.902 73.654C182.679 71.5664 179.544 67.0258 182.472 64.3675C184.419 62.7004 186.909 64.4276 188.278 66.0095C189.621 67.5514 190.139 69.634 190.195 71.6315C190.195 72.9481 190.149 75.4462 188.293 75.3311L188.298 75.3361ZM182.382 82.7052C181.803 84.0369 180.058 84.0769 178.8 84.0469C176.305 83.8967 173.87 83.0657 171.681 81.8892C168.18 79.9218 165.146 77.1133 162.782 73.8843C161.866 72.5927 161.061 71.1709 160.639 69.639C158.969 63.5765 166.691 64.8181 170.212 65.9495C172.582 66.6804 174.881 67.8218 176.581 69.6591C178.951 72.007 183.458 79.4061 182.387 82.7002L182.382 82.7052ZM176.229 63.4714C172.688 64.3975 169.568 61.4739 167.863 58.6805C166.651 56.7881 162.616 49.2037 166.817 48.8383C169.362 48.6631 171.807 49.9096 173.719 51.4916C175.917 53.3939 178.901 56.683 179.238 59.6416C179.434 61.554 178.005 63.0108 176.234 63.4714H176.229ZM165.901 44.583C161.907 44.6331 157.937 43.7019 154.24 42.2451C151.04 40.9135 146.553 39.1513 145.718 35.4167C145.416 33.0237 149.531 33.9699 150.925 34.1C154.079 34.5806 157.188 35.3816 160.262 36.2126C162.128 36.7283 164.004 37.279 165.846 37.8647C167.108 38.2852 168.421 38.6557 169.579 39.3265C170.036 39.6068 170.474 39.9823 170.721 40.4679C170.871 40.8884 170.882 41.354 170.876 41.7946C170.836 44.3127 167.843 44.578 165.896 44.588L165.901 44.583ZM149.793 45.0286C154.667 46.3302 158.576 49.9947 160.89 54.3751C161.821 56.1924 163.059 58.5603 162.857 60.6379C162.641 62.0897 160.236 61.2086 159.326 60.9633C156.177 59.8819 153.254 58.1899 150.507 56.3326C148.032 54.5453 145.27 52.5328 144.309 49.5141C143.283 45.6994 146.397 44.0123 149.793 45.0286V45.0286ZM148.223 59.6967C150.235 61.0584 152.228 62.5452 153.817 64.3925C155.653 66.5702 156.614 69.1234 153.017 69.9895C149.058 70.8756 143.011 70.1647 139.842 67.5014C137.075 65.0584 136.446 60.6779 137.674 57.3188C139.263 53.7343 146.09 58.3701 148.218 59.7017L148.223 59.6967ZM137.945 50.3351C136.894 52.2525 135.022 53.2738 132.94 53.7443C130.656 54.285 128.271 54.4552 125.932 54.5503C122.637 54.6355 119.286 54.5804 116.041 53.9496C108.722 52.3326 109.708 48.8633 115.468 45.6493C118.441 44.0073 121.726 42.8859 125.077 42.3302C128.664 41.7795 132.416 41.6243 135.973 42.4554C140.486 43.5217 139.892 47.1111 137.945 50.3351ZM114.915 27.2365C115.745 26.3705 116.882 25.8398 117.963 25.3492C120.579 24.2028 123.472 23.8473 126.309 23.9174C128.472 24.0075 130.716 24.0225 132.809 24.6533C134.892 25.4543 135.344 26.7159 133.216 27.9274C132.044 28.5632 130.716 28.9186 129.428 29.239C127.783 29.6345 126.098 29.9549 124.428 30.2202C122.823 30.4655 121.193 30.6958 119.573 30.6808C118.23 30.6958 116.866 30.3754 115.79 29.5444C115.065 28.9987 114.039 28.1326 114.92 27.2415L114.915 27.2365ZM103.726 50.9659C105.497 51.7168 107.238 53.1937 107.575 55.1611C107.605 55.4364 107.595 55.7618 107.389 55.9721C106.936 56.3225 106.327 56.4627 105.784 56.6229C103.978 57.0685 102.086 57.1486 100.235 57.2187C98.3181 57.2687 96.3712 57.3088 94.4696 57.0735C92.7239 56.8131 90.6865 56.4377 89.5495 54.9659C89.0766 54.29 89.2577 53.3388 89.8513 52.7982C90.3192 52.3576 90.9682 52.1574 91.5467 51.9071C92.6535 51.4715 93.8005 51.061 94.9576 50.7857C96.3963 50.4403 97.9005 50.3451 99.3745 50.3351C100.838 50.3251 102.353 50.3952 103.716 50.9609L103.726 50.9659ZM90.5707 63.3362C93.1867 61.2136 98.4338 59.5615 101.291 61.9645C104.078 64.6579 103.444 70.9657 101.734 74.1296C100.517 76.5075 97.9106 77.679 95.3751 78.1095C93.2823 78.47 91.1141 78.5951 89.0012 78.3298C85.54 77.8692 84.4634 75.9118 85.1728 72.6127C85.9827 69.0984 87.7284 65.6491 90.5657 63.3362H90.5707ZM81.6009 66.8756C80.1722 67.9319 78.2857 68.6778 76.4998 68.2022C74.6837 67.6816 73.5668 65.9645 72.7619 64.3725C71.8866 62.4651 70.9307 59.7818 71.7608 57.7343C72.1532 56.8582 73.0436 56.3576 73.8687 55.9421C75.7099 55.0109 77.7776 54.6355 79.8251 54.5003C81.8977 54.275 84.0308 54.6855 85.2432 56.5328C87.4366 59.9921 84.4232 64.6979 81.6009 66.8756ZM72.0677 52.8332C69.9246 54.6555 67.0923 55.5366 64.3404 55.917C63.4098 56.0372 62.4036 56.0722 61.5584 55.6067C60.5523 55.041 59.7675 53.9096 59.853 52.7331C59.9889 51.1862 63.8776 49.5942 65.1906 48.8383C67.0168 47.9221 68.8731 47.001 70.8301 46.3802C72.128 45.9948 73.7731 45.6693 73.9341 47.5016C74.08 49.404 73.4662 51.4866 72.0677 52.8332V52.8332ZM66.0811 60.6129C68.4455 63.5014 69.1498 67.9019 67.4243 71.266C65.8547 74.1997 62.3382 77.3035 59.0129 77.9593C56.6585 78.3598 55.6725 76.6127 55.6423 74.5151C55.6322 72.042 56.6484 69.6891 57.6848 67.4864C58.7362 65.2536 63.1381 57.1586 66.0811 60.6078V60.6129ZM56.2963 137.238C56.3365 136.867 56.417 136.507 56.8899 136.557C57.8558 136.622 58.8016 137.007 59.7071 137.328C63.7317 138.885 67.6507 140.777 71.4589 142.805C73.7278 144.136 78.2001 146.209 78.8089 148.902C78.9598 149.628 78.8089 150.384 78.6227 151.09C77.2594 156.612 73.3908 157.202 68.4858 155.63C63.943 154.174 59.7675 151.115 58.0973 146.529C57.3326 144.597 56.8597 142.534 56.5579 140.482C56.4221 139.415 56.2309 138.319 56.3013 137.243L56.2963 137.238ZM66.4031 159.545C69.8894 161.022 74.9151 163.17 75.232 167.475C75.2823 170.158 72.2588 171.26 70.0252 171.59C67.4142 172.051 64.4914 171.535 62.6401 169.528C60.9849 167.776 60.17 165.438 59.4053 163.205C58.8871 161.538 58.213 159.816 58.2885 158.043C59.9033 157.072 64.6574 158.885 66.4081 159.545H66.4031ZM76.4746 173.888C77.2946 173.658 78.1549 173.453 79.0051 173.508C81.4903 173.758 82.7278 177.177 83.6082 179.16C84.2169 180.782 86.6367 186.949 83.4774 186.949C80.0162 186.809 77.0531 184.341 75.2773 181.528C74.4221 180.136 73.6121 178.579 73.5769 176.912C73.5266 175.27 75.0459 174.284 76.4696 173.893L76.4746 173.888ZM86.5411 191.019C88.2918 191.255 90.0425 191.695 91.587 192.571C92.4724 193.007 93.2169 193.693 93.6797 194.569C94.7714 196.616 95.6669 198.874 95.848 201.202C95.9888 203.33 94.5702 203.385 92.8547 203.234C90.777 203.019 88.7345 202.504 86.7172 201.978C85.5501 201.662 84.3326 201.292 83.3969 200.486C82.104 199.31 81.4098 197.622 80.8413 196.01C79.1057 190.509 81.933 190.338 86.5361 191.014L86.5411 191.019ZM92.2862 206.819C93.559 206.904 94.8569 207.069 96.1197 207.234C98.3131 207.51 100.527 207.99 102.494 209.032C102.79 209.172 102.956 209.457 103.027 209.763C103.183 210.338 103.223 210.969 103.077 211.55C102.348 214.088 98.2879 212.886 96.4215 212.486C94.1124 211.88 91.6624 210.989 90.1834 209.022C88.6037 206.924 90.5204 206.679 92.2812 206.824L92.2862 206.819ZM102.473 204.726C100.929 203.104 98.952 198.198 100.366 196.196C101.985 194.263 107.298 195.62 109.401 196.361C112.726 197.592 115.87 199.55 118.245 202.188C123.14 207.9 114.271 206.789 110.9 206.639C109.501 206.534 108.083 206.393 106.694 206.233C105.22 206.038 103.57 205.838 102.479 204.731L102.473 204.726ZM116.781 195.405C114.608 193.507 111.956 189.352 116.036 187.961C119.482 186.874 125.766 187.415 128.437 190.018C129.534 191.014 130.077 192.616 129.393 193.998C128.306 196.156 125.907 197.552 123.572 197.958C121.047 198.348 118.612 197.027 116.776 195.405H116.781ZM125.353 203.495C127.778 200.536 132.648 197.527 136.371 196.601C138.629 196.101 141.059 196.061 141.547 198.844C142.081 201.903 141.255 205.562 139.022 207.81C136.974 209.707 134.011 210.058 131.335 210.273C130.133 210.338 128.895 210.308 127.703 210.108C126.601 209.898 125.394 209.582 124.609 208.731C123.351 207.134 124.211 204.917 125.353 203.495V203.495ZM136.2 191.495C133.272 190.148 131.788 186.894 131.264 183.875C130.998 182.253 130.766 178.058 132.879 177.643C133.609 177.498 134.383 177.613 135.108 177.753C136.23 177.983 137.357 178.334 138.448 178.689C141.477 179.69 144.485 180.852 147.368 182.218C149.506 183.33 152.675 184.727 153.601 187.074C153.842 187.795 153.626 188.596 153.168 189.187C151.895 190.754 149.732 191.114 147.861 191.525C147.101 191.67 146.296 191.79 145.527 191.885C142.543 192.181 139.027 192.636 136.195 191.495H136.2ZM145.728 203.66C146.281 200.381 147.197 196.171 150.849 195.104C153.978 194.158 157.344 194.624 160.528 195.044C163.215 195.52 167.918 196.201 169.629 198.433C170.469 199.585 170.162 201.247 169.312 202.308C168.311 203.38 166.751 203.65 165.398 204.05C161.268 205.097 157.117 206.118 152.997 207.204C151.584 207.57 150.135 207.955 148.716 208.306C147.79 208.506 146.819 208.806 145.869 208.691C145.054 208.691 145.632 204.301 145.728 203.655V203.66ZM166.912 192.126C164.518 191.81 160.247 191.19 158.722 189.202C157.902 187.981 158.783 186.439 159.693 185.528C160.911 184.326 162.596 183.77 164.191 183.25C166.978 182.384 170.092 181.728 173.004 182.278C174.086 182.539 175.087 183.125 175.877 183.906C176.999 185.032 177.909 186.624 177.658 188.251C177.255 190.088 175.334 191.124 173.689 191.715C171.515 192.416 169.161 192.356 166.912 192.121V192.126ZM175.344 177.698C174.433 178.063 173.467 178.414 172.476 178.434C170.992 178.509 170.383 176.977 170.177 175.75C169.644 172.526 170.011 169.217 170.338 165.988C170.705 163.63 170.826 160.547 173.085 159.16C175.721 157.743 182.226 156.692 184.646 158.769C186.819 160.832 185.702 164.992 184.922 167.5C183.826 170.894 181.667 173.953 178.659 175.926C177.628 176.626 176.501 177.217 175.354 177.693L175.344 177.698ZM171.586 150.789C170.011 149.092 168.925 146.094 168.93 143.791C168.995 142.059 170.429 140.837 171.792 139.976C174.619 138.134 184.399 133.718 187.473 134.97C190.094 136.101 189.646 140.442 189.319 142.765C188.942 145.022 188.207 147.305 186.819 149.152C183.695 153.373 175.354 154.829 171.586 150.789V150.789ZM193.776 157.753C195.416 156.326 197.741 155.265 199.944 155.756C201.363 156.101 201.509 157.518 201.312 158.744C201.091 160.246 200.623 161.733 199.954 163.095C198.878 165.333 197.031 167.115 194.969 168.466C194.149 169.002 193.263 169.478 192.363 169.863C191.744 170.108 191.08 170.379 190.406 170.364C189.551 170.304 189.596 169.042 189.566 168.411C189.732 164.847 191.095 160.226 193.781 157.748L193.776 157.753ZM199.099 151.07C194.873 151.34 193.57 148.567 193.746 144.797C193.952 141.618 194.742 138.074 197.298 135.936C198.641 134.855 200.462 134.219 202.188 134.589C204.794 135.12 205.241 137.768 205.201 140.026C205.181 142.084 204.909 144.146 204.593 146.174C204.356 147.455 204.155 148.937 203.103 149.833C201.971 150.679 200.487 150.96 199.104 151.075L199.099 151.07ZM197.519 126.099C196.423 122.705 196.916 118.97 197.715 115.561C198.591 111.951 200.684 107.881 204.738 107.251C207.339 106.805 210.297 107.976 211.449 110.43C212.954 113.884 212.732 118.349 211.475 121.849C210.594 124.212 209.186 126.499 207.053 127.931C203.823 130.129 199.023 130.389 197.524 126.094L197.519 126.099ZM219.886 115.656C219.866 116.532 219.896 119.135 218.457 118.6C216.178 117.353 216.078 113.944 215.615 111.671C215.117 108.667 214.518 105.649 214.518 102.595C214.538 101.068 214.397 99.491 214.714 97.9891C214.865 97.4334 215.434 96.7075 216.068 97.0329C218.412 98.0943 219.046 106.415 219.408 108.973C219.65 111.185 219.901 113.423 219.891 115.651L219.886 115.656ZM212.315 80.1621C213.603 82.7052 214.453 85.4586 215.353 88.1519C215.65 89.0831 215.977 90.0293 216.269 90.9654C216.435 91.5462 216.636 92.1419 216.651 92.7526C215.585 92.9078 214.468 92.3722 213.738 91.6162C212.793 90.5149 212.35 89.0681 211.771 87.7615C211.309 86.6201 210.836 85.4586 210.529 84.2621C210.131 82.6501 209.895 80.9881 209.684 79.346C209.648 78.9506 209.583 78.49 209.86 78.1646C209.935 78.0745 210.046 77.9794 210.177 78.0044C211.208 78.2697 211.827 79.296 212.315 80.1671V80.1621ZM206.489 64.6629C207.601 65.9995 208.562 67.4713 209.427 68.9782C210.086 70.1447 210.72 71.3562 211.002 72.6728C211.067 72.9932 211.127 73.3336 211.117 73.664C211.117 73.7541 210.987 73.7842 210.921 73.8192C209.789 74.1446 208.511 73.5739 207.626 72.883C204.19 69.7341 201.785 64.4927 201.026 59.942C203.083 61.1986 204.925 62.8406 206.494 64.6629H206.489ZM200.256 53.2287C200.89 54.0848 201.494 55.0009 202.042 55.907C199.964 54.3301 198.138 52.4477 196.543 50.3852C195.678 49.2988 194.788 48.2025 194.159 46.9559C196.342 48.8783 198.515 50.8808 200.251 53.2237L200.256 53.2287ZM196.116 57.4439C196.724 59.121 197.263 60.8582 197.509 62.6253C197.595 63.5014 197.71 64.7229 196.453 64.6328C193.766 64.4276 191.321 63.0208 189.153 61.514C185.591 59.076 182.689 55.8369 180.012 52.4928C178.714 50.8808 177.406 49.2338 176.274 47.5066C175.671 46.5304 174.997 45.5142 174.755 44.3778C176.108 44.1625 177.532 44.7232 178.83 45.0636C181.099 45.7695 183.363 46.6255 185.551 47.5517C190.758 49.7444 194.199 51.877 196.116 57.4439ZM179.479 41.2038C177.577 40.3878 175.53 39.697 173.9 38.3903C174.971 37.8997 176.229 38.2101 177.301 38.5455C179.202 39.2013 181.023 40.1275 182.804 41.0536C184.595 42.0248 186.421 43.0161 188.021 44.2776C185.129 43.4116 182.281 42.3102 179.479 41.1988V41.2038ZM180.641 34.0149C182.975 35.5318 185.274 37.1438 187.418 38.921V38.956C187.418 39.0712 187.423 39.1963 187.443 39.3115C184.525 37.8847 181.637 36.3628 178.805 34.7709C177.215 33.8647 175.666 32.8535 174.287 31.647C173.764 31.1714 173.165 30.6858 172.914 30.005C175.651 30.9862 178.201 32.448 180.641 34.0149V34.0149ZM161.625 31.9624C160.81 31.4267 159.98 30.7108 159.708 29.7446C160.911 29.3992 163.501 30.4004 164.739 30.7959C167.39 31.7822 170.167 32.8134 172.235 34.8009C169.825 35.5268 163.768 33.3191 161.63 31.9624H161.625ZM155.759 23.3567C156.116 23.0213 156.529 22.6559 157.032 22.5858C158.264 22.5707 159.406 23.1815 160.503 23.6821C162.973 24.8886 165.499 26.0651 167.757 27.642C164.98 26.826 162.289 25.7096 159.557 24.7585C158.264 24.2929 156.916 23.9675 155.618 23.5119C155.653 23.4719 155.719 23.4018 155.759 23.3617V23.3567ZM141.049 18.8061C143.373 19.3067 145.733 19.7372 148.042 20.323C149.35 20.6984 150.784 20.9537 151.931 21.7097C150.492 22.4957 148.736 22.1953 147.192 21.945C144.717 21.4894 142.367 20.388 140.511 18.6859C140.652 18.716 140.908 18.7761 141.049 18.8061V18.8061ZM138.856 24.6884C140.848 24.6383 142.78 25.3041 144.722 25.6446C147.302 26.1952 149.928 26.5707 152.529 27.0363C153.359 27.2315 154.285 27.4067 154.909 28.0275C155.704 28.9787 155.513 29.9849 154.29 30.3954C153.45 30.6658 152.529 30.6157 151.659 30.5707C150.24 30.4805 148.792 30.3103 147.383 30.1451C145.411 29.9299 143.429 29.6345 141.532 29.0488C140.848 28.8035 139.958 28.7033 139.565 28.0125C139.243 27.4518 139.057 26.816 138.926 26.1852C138.841 25.6946 138.76 25.179 138.851 24.6884H138.856ZM140.174 32.3779C140.878 32.8285 141.105 33.7596 141.145 34.5456C141.069 38.155 134.726 37.7395 132.185 37.6845C129.896 37.5193 127.456 37.3941 125.378 36.3228C125.046 36.1225 124.689 35.8822 124.488 35.5468C124.458 35.4867 124.413 35.4066 124.443 35.3366C124.679 34.8259 125.243 34.5306 125.721 34.2802C127.265 33.5644 128.975 33.2139 130.636 32.8685C132.638 32.478 134.675 32.1526 136.713 31.9824C137.865 31.9123 139.117 31.8572 140.174 32.3829V32.3779ZM119.08 17.4594C121.912 17.3843 124.76 17.4294 127.592 17.4594C132.416 17.4895 134.263 17.0439 137.618 21.1089C135.279 21.159 132.94 20.8436 130.61 20.6834C127.818 20.4631 124.996 20.333 122.214 19.9876C119.281 19.5921 116.368 18.9212 113.536 18.0602C115.327 17.5445 117.234 17.5345 119.08 17.4594V17.4594ZM96.2806 23.8523C98.4791 22.7009 100.969 22.1703 103.399 21.7397C107.127 21.154 111.141 21.0038 114.708 22.3855C111.544 24.7034 107.534 25.5394 103.746 26.2803C101.281 26.7409 98.791 27.1364 96.3259 27.587C95.1034 27.8022 93.891 28.1276 92.6635 28.3079C93.1968 26.4255 94.5601 24.7835 96.2857 23.8523H96.2806ZM93.9262 32.5982C95.9939 32.8985 96.9849 34.8209 96.9044 36.7633C96.8038 39.4617 95.848 42.0849 94.6356 44.4729C93.3075 47.0511 91.6071 48.8182 88.8049 49.7544C86.7071 50.5654 84.5087 51.1712 82.26 51.3914C81.4601 51.4315 80.5445 51.6818 79.805 51.2563C77.843 49.9897 77.7876 46.4954 77.6619 44.3878C77.6266 43.3415 77.6317 42.2751 77.6417 41.2289C77.6619 40.3077 77.6769 39.3065 78.2102 38.5105C79.317 36.9786 81.9682 36.2377 83.6887 35.5268C85.9777 34.6858 88.3019 33.9148 90.621 33.1589C91.6876 32.8385 92.7994 32.468 93.9262 32.5882V32.5982ZM73.4562 32.8985C73.9089 31.9173 74.6736 31.0663 75.6194 30.5356C77.2695 29.6245 79.0956 29.0688 80.8413 28.3729C83.256 27.4718 85.6708 26.4455 88.2214 26C88.5031 25.985 88.8653 25.8899 89.1068 26.0701C88.8402 27.612 87.1851 29.1689 85.9274 30.015C83.2711 31.692 80.2376 32.8084 77.1638 33.4592C75.9766 33.6545 74.6987 33.8047 73.5366 33.4192C73.27 33.3391 73.3807 33.0938 73.4511 32.9035L73.4562 32.8985ZM72.1783 37.1989C72.8877 37.2639 73.6725 37.5193 74.0397 38.1701C74.1605 38.4254 73.9944 38.7157 73.8938 38.951C73.2147 40.1876 71.9419 40.9685 70.7546 41.6694C68.7172 42.7658 66.564 43.787 64.2801 44.2376C63.6563 44.3227 62.6602 44.4328 62.2326 43.8771C62.0213 43.2864 62.3835 42.6456 62.7256 42.175C63.7518 40.9085 65.1856 40.0174 66.5439 39.1413C68.2393 38.13 70.1208 37.0236 72.1733 37.1989H72.1783ZM66.2723 33.2189C67.374 32.5731 68.5461 31.9724 69.7787 31.627C68.1236 33.7596 65.744 35.1714 63.5355 36.6682C61.1359 38.2201 58.701 39.8622 55.8989 40.5881C59.1739 37.8997 62.6501 35.4167 66.2773 33.2189H66.2723ZM49.9626 48.6981C51.5925 47.0911 53.2678 45.3339 55.4813 44.553C56.0498 44.3727 56.7038 44.1925 57.2672 44.4629C58.052 44.8583 58.5652 45.6894 58.7563 46.5304C58.9525 47.2914 58.5903 47.8621 58.0269 48.3477C57.0962 49.1787 55.9995 49.8145 54.8776 50.3501C53.7004 50.9058 52.478 51.3964 51.2605 51.857C49.8922 52.3276 48.3829 53.0084 46.914 52.673C46.9693 51.6818 49.2281 49.5091 49.9676 48.6981H49.9626ZM50.4455 56.6329C51.9548 55.6868 55.0336 53.7443 56.2812 55.907C57.393 58.4952 55.9341 61.7643 54.8927 64.1823C52.7295 68.8631 50.028 73.3636 46.4713 77.1383C44.7809 78.9005 40.5903 83.4511 37.9643 81.8441C36.2739 80.6677 35.8262 78.4199 35.9771 76.4875C36.3293 71.4813 42.004 64.9632 45.3142 61.2136C46.8637 59.5415 48.5389 57.9145 50.4405 56.6329H50.4455ZM35.6451 100.978C34.0654 103.596 31.1174 106.049 28.0436 106.575C27.9833 105.959 28.104 105.338 28.1744 104.727C28.3002 103.716 28.4612 102.7 28.7178 101.714C29.4221 98.9754 30.8256 96.4722 32.2393 94.0442C33.497 92.0368 36.0476 87.386 38.3164 86.7452C38.7289 87.2809 38.744 88.0318 38.7893 88.6776C38.7742 92.5824 37.6021 97.5786 35.6501 100.978H35.6451ZM36.4098 118.92C36.2337 119.936 36.2337 121.303 35.132 121.779C33.1599 122.525 30.5942 121.183 29.1454 119.866C28.0738 118.905 27.5758 117.643 27.6462 116.217C27.6764 115.12 27.6764 113.959 28.1191 112.938C28.8536 111.346 30.4081 110.284 31.9676 109.588C33.2454 109.078 35.1823 108.487 36.2538 109.659C36.4903 109.954 36.5305 110.364 36.5808 110.725C36.6563 111.371 36.6865 112.067 36.7066 112.717C36.777 114.78 36.6714 116.868 36.4098 118.915V118.92ZM29.3617 71.1058C29.6585 70.1597 30.061 69.2285 30.4735 68.3324C32.1135 64.6478 34.3371 62.0947 37.5618 59.6917C38.5981 58.8957 39.6798 58.1198 40.7664 57.3989C41.5462 56.9033 42.346 56.3726 43.2315 56.0923C42.834 57.4339 41.9587 58.6054 41.189 59.7568C39.7602 61.7893 38.2057 63.7918 36.6915 65.7642C35.3734 67.4613 34.0403 69.1985 32.6518 70.8405C31.8871 71.7116 31.1074 72.6427 30.0962 73.2385C30.071 73.2235 30.0207 73.1934 30.0006 73.1784C29.246 72.6528 29.0397 71.9569 29.3617 71.1058V71.1058ZM29.0246 82.7102C29.6837 80.8129 30.3276 78.8705 31.2583 77.0832C32.3651 79.6614 32.7172 82.6351 32.0028 85.3635C31.5199 87.1707 30.6848 88.8929 29.744 90.4999C29.1856 91.406 28.6322 92.3822 27.8374 93.1081C27.7871 92.9529 27.7368 92.7476 27.7066 92.5924C27.0878 89.2583 27.9632 85.8691 29.0246 82.7102V82.7102ZM27.4953 127.365C27.5858 126.309 27.5607 124.988 29.0246 125.208C31.369 125.578 33.8089 127.24 35.2477 129.098C36.123 130.249 36.5456 131.671 36.8978 133.053C37.2147 134.319 37.5065 135.616 37.6675 136.912C37.8435 138.334 37.8586 139.791 37.7731 141.213C37.7027 141.778 37.758 142.464 37.3304 142.91C35.8765 144.146 33.0744 142.79 31.7211 141.878C28.7278 139.991 28.0839 136.392 27.767 133.138C27.5959 131.225 27.3997 129.293 27.4903 127.371L27.4953 127.365ZM21.9816 86.3748C22.3388 84.8529 23.1638 83.4862 23.8078 82.0744C24.7888 80.132 25.7245 78.1245 27.0526 76.3924C26.7256 78.2897 26.0012 80.112 25.322 81.9092C24.6177 83.5162 23.8229 85.9793 21.9564 86.5149L21.9816 86.3798V86.3748ZM17.5545 107.846C17.5294 106.45 17.8765 105.068 18.1281 103.701C18.9481 99.8314 19.4562 95.8164 21.0056 92.1469C21.2672 91.6413 21.7854 90.6951 22.4344 90.7401C23.6568 91.3459 24.004 93.824 24.3159 95.0555C25.0604 98.3846 25.317 102.234 23.0582 105.058C22.2684 106.064 21.4182 107.135 20.2158 107.661C19.4008 107.976 18.3846 108.212 17.5545 107.841V107.846ZM24.3964 120.242C24.3913 122.044 24.1599 123.851 23.9939 125.638C23.8078 126.825 23.8581 128.867 22.7161 129.553C22.0369 128.998 21.9162 128.011 21.7904 127.195C21.5389 124.367 21.8206 121.493 22.0621 118.675C22.4495 115.381 22.7261 111.821 24.6429 108.998C24.9196 110.72 24.5473 112.452 24.4265 114.169C24.2454 116.187 24.3611 118.224 24.4014 120.242H24.3964ZM20.6937 144.977C20.1806 143.706 19.8335 142.349 19.5367 141.012C19.2097 139.486 18.9732 137.874 19.4059 136.347C19.6725 135.255 20.2862 134.079 21.5037 133.884C23.1236 133.673 23.6317 135.616 23.9134 136.842C24.2253 138.214 24.4265 139.626 24.6479 141.017C24.8843 142.684 25.2365 144.347 25.5383 146.004C25.6641 146.955 25.9559 147.971 25.7547 148.927C25.0101 148.917 24.3159 148.517 23.682 148.171C22.4142 147.42 21.2572 146.359 20.6887 144.977H20.6937ZM30.4534 167.34C28.436 165.633 26.7759 163.46 25.5585 161.117C24.0845 158.124 23.1336 154.9 22.1526 151.721C22.1879 151.736 22.2985 151.786 22.3388 151.801C24.3108 152.702 26.2678 153.888 27.5406 155.681C29.7239 159.045 30.8005 163.345 30.4534 167.34V167.34ZM30.3125 147.961C30.3024 147.55 30.1918 147.02 30.4886 146.689C30.7401 146.549 31.0671 146.614 31.3388 146.644C33.7988 147.145 36.4148 148.647 38.0951 150.499C38.9956 151.515 39.5691 152.782 40.0822 154.029C40.5853 155.275 41.0833 156.552 41.4154 157.853C41.7071 159.005 41.8832 160.201 41.9889 161.383C42.004 161.618 42.0291 161.898 42.019 162.134C42.019 162.264 41.9989 162.404 41.8983 162.499C40.5953 163.67 37.4662 162.164 36.2085 161.348C33.4869 159.665 32.4606 156.452 31.6004 153.553C31.1023 151.711 30.5087 149.863 30.3075 147.956L30.3125 147.961ZM51.7586 190.974C51.0341 190.759 50.3852 190.313 49.7614 189.903C48.6647 189.157 47.5981 188.316 46.5719 187.475C42.1549 183.981 38.6937 179.425 36.1683 174.424C35.3332 172.752 34.654 170.949 34.4729 169.077C34.3975 168.066 34.2818 166.394 35.6501 166.279C37.4209 166.149 39.1415 166.904 40.7261 167.605C44.3734 169.247 47.0749 172.476 48.6143 176.101C49.7865 178.879 50.4707 181.858 51.0945 184.802C51.4567 186.824 51.99 188.912 51.7636 190.979L51.7586 190.974ZM51.8843 171.58C49.5601 170.504 47.6183 167.36 46.5467 165.102C46.1946 164.316 45.8877 163.48 45.7317 162.629C45.6613 162.189 45.5808 161.698 45.7317 161.267C46.2348 160.121 48.2773 160.231 49.3337 160.306C51.6781 160.567 54.0979 161.548 55.4914 163.515C56.6535 165.202 57.4131 167.35 57.1012 169.413C56.7239 171.836 53.8765 172.471 51.8843 171.58V171.58ZM59.7172 201.673C57.7804 200.111 54.1985 197.582 54.0979 194.909C55.0285 195.039 55.8687 195.55 56.6585 196.021C57.9313 196.811 59.1588 197.723 60.3561 198.619C63.0123 200.651 65.9553 202.854 66.9564 206.193V206.213C64.26 205.242 62.0012 203.35 59.7122 201.667L59.7172 201.673ZM57.6797 190.424C55.7882 187.505 54.6361 184.036 54.5053 180.561C54.4299 177.828 55.5568 175.866 58.3539 175.25C61.815 174.444 65.573 175.135 68.0531 177.803C69.4265 179.225 70.478 180.942 71.4489 182.649C72.6462 184.782 73.7127 187.009 74.6183 189.277C75.3628 191.159 76.052 193.102 76.4545 195.084C76.6809 196.451 77.0431 198.368 75.6848 199.26C73.4964 200.406 69.5875 199.204 67.4243 198.283C63.606 196.536 60.0593 193.893 57.6747 190.419L57.6797 190.424ZM85.4494 212.06C82.8838 212.916 79.654 211.304 77.3097 210.283C75.5389 209.427 73.7127 208.531 72.2689 207.174C71.8212 206.739 71.4036 206.233 71.1118 205.677C70.971 205.387 70.81 205.062 70.8452 204.731C70.9458 204.266 71.5093 204.126 71.9067 204C74.0246 203.56 76.2382 203.73 78.3863 203.855C80.6753 204.02 83.3466 204.521 84.5339 206.719C85.1325 207.695 87.0593 211.455 85.4545 212.06H85.4494ZM103.46 223.97C102.881 223.725 102.222 223.815 101.623 223.65C98.5394 223.064 95.5612 222.008 92.8044 220.516C90.7116 219.379 88 217.953 86.6769 215.935C89.7407 214.739 93.5087 215.8 96.6177 216.421C100.612 217.267 104.561 218.433 108.178 220.336C110.331 221.447 112.55 222.513 114.492 223.975C110.855 224.591 107.087 224.616 103.454 223.96L103.46 223.97ZM111.539 217.933C110.311 217.327 109.064 216.616 108.163 215.565C107.092 214.313 106.709 212.491 108.364 211.54C110.316 210.503 112.802 210.744 114.95 210.799C117.727 211.029 120.715 211.234 123.165 212.666C123.769 213.022 124.146 213.657 124.241 214.343C124.468 215.665 124.015 217.137 122.959 218.003C121.53 219.064 119.467 219.229 117.737 219.339C115.589 219.429 113.456 218.869 111.539 217.933ZM135.193 223.57C133.775 223.8 132.311 223.995 130.882 224.155C127.049 224.516 122.551 225.227 119.12 223.079C122.853 222.278 126.661 221.777 130.47 221.552C132.809 221.447 135.198 221.262 137.528 221.582C137.965 221.667 138.463 221.762 138.795 222.078C137.991 223.194 136.456 223.339 135.198 223.57H135.193ZM134.444 217.512C132.889 217.567 131.285 217.677 129.745 217.377C129.338 217.272 128.598 217.052 128.573 216.556C128.92 215.465 130.067 214.824 131.053 214.378C133.211 213.532 135.561 213.277 137.819 212.816C140.259 212.356 142.79 211.895 145.265 212.391C145.693 213.262 145.597 214.328 145.3 215.224C145.064 215.97 144.536 216.366 143.796 216.551C142.84 216.816 141.829 216.901 140.848 217.001C138.72 217.202 136.582 217.412 134.449 217.517L134.444 217.512ZM154.849 219.745C151.976 220.531 149.068 221.237 146.181 221.963C145.109 222.228 144.022 222.503 142.921 222.638C143.233 221.352 143.791 220.901 145.059 220.611C146.372 220.291 147.725 220.07 149.043 219.745C151.116 219.239 153.188 218.654 155.261 218.153C156.68 217.873 158.974 217.077 160.252 217.898C158.566 218.784 156.67 219.214 154.849 219.745ZM155.211 214.008C153.702 214.428 152.132 214.859 150.552 214.824C150.281 214.799 149.974 214.769 149.752 214.594C150.693 212.341 154.31 211.259 156.484 210.559C158.37 210.063 160.337 209.432 162.304 209.562C160.704 211.96 157.892 213.192 155.216 214.008H155.211ZM180.5 206.894C177.366 209.067 173.93 210.784 170.504 212.456C169.086 213.137 167.622 213.818 166.168 214.413C165.353 214.719 164.508 215.119 163.622 215.144C163.713 214.784 163.864 214.418 164.02 214.078C164.578 212.901 165.312 211.805 166.047 210.729C166.993 209.352 168.089 207.99 169.614 207.214C171.012 206.483 172.527 205.983 173.95 205.312C176.435 204.176 178.855 202.854 181.421 201.898C182.563 201.507 184.404 201.032 185.194 202.243C185.813 203.099 181.265 206.363 180.5 206.889V206.894ZM184.052 193.197C182.457 196.126 180.203 197.988 177.18 199.34C176.732 199.535 174.645 200.481 174.368 200.01C174.207 198.524 175.283 196.691 176.259 195.615C177.24 194.534 178.438 193.648 179.615 192.787C181.356 191.525 183.252 190.444 185.305 189.773C185.355 189.758 185.496 189.713 185.541 189.698C185.209 190.924 184.666 192.091 184.057 193.197H184.052ZM183.534 186.063C181.964 185.933 180.832 183.805 180.616 182.409C180.234 180.486 181.612 178.899 183.031 177.793C184.751 176.466 186.869 175.165 189.063 174.884C190.335 174.674 189.505 177.332 189.349 177.968C188.504 180.596 186.738 185.773 183.534 186.063ZM189.832 196.626C189.048 197.227 188.222 197.848 187.282 198.178C186.904 198.288 186.245 198.449 185.969 198.083C185.853 197.803 186.054 197.492 186.175 197.242C186.869 195.98 188.036 194.929 189.49 194.654C190.305 194.484 191.176 194.414 192.001 194.559C191.392 195.345 190.607 196.005 189.837 196.631L189.832 196.626ZM206.675 175.31C206.041 178.243 204.245 180.742 202.535 183.15C201.478 184.616 200.372 186.073 199.265 187.5C198.344 188.631 197.459 189.988 196.015 190.489C194.43 190.959 191.06 190.889 189.712 189.903C189.309 189.598 189.485 189.047 189.551 188.626C189.777 187.54 190.149 186.464 190.506 185.412C191.452 182.744 192.443 180.066 193.625 177.488C194.984 174.544 196.906 171.63 199.859 170.088C201.574 169.212 203.747 169.458 205.312 170.549C207.012 171.705 207.113 173.468 206.68 175.315L206.675 175.31ZM209.477 164.692C209.165 165.272 208.823 165.898 208.27 166.289C207.425 166.869 206.303 166.434 205.679 165.728C203.928 163.826 204.487 161.052 204.844 158.739C205.302 156.056 205.589 153.202 207.083 150.855C207.41 150.324 209.452 151.07 209.925 151.295C211.278 151.906 212.702 153.032 212.672 154.649C212.672 155.796 212.34 156.922 212.023 158.013C211.585 159.415 211.072 160.812 210.564 162.189C210.247 163.03 209.895 163.886 209.482 164.687L209.477 164.692ZM216.229 166.043C215.801 166.99 215.464 168.026 214.875 168.882C213.577 170.779 212.546 172.842 211.188 174.699C211.007 174.879 210.775 175.065 210.574 175.22C210.841 172.216 211.636 169.257 212.994 166.559C214.025 164.331 215.565 162.239 217.828 161.147C217.461 162.819 216.868 164.456 216.229 166.043ZM221.36 151.425C220.354 153.948 218.915 156.391 216.354 157.598C216.938 154.259 218.326 151.11 219.74 148.046C220.912 145.598 222.024 143.095 223.342 140.717C223.473 140.487 223.649 140.206 223.795 139.986C223.639 143.901 222.894 147.811 221.355 151.425H221.36ZM226.778 128.166C226.29 130.109 225.691 132.041 224.871 133.874C224.313 130.83 224.313 127.696 224.026 124.617C223.86 122.374 223.74 120.102 223.734 117.854C223.74 116.457 223.719 115.03 223.946 113.644C224.147 112.527 224.791 111.741 225.717 112.888C226.149 113.473 226.32 114.214 226.501 114.905C226.235 115.686 226.315 116.537 226.501 117.328C226.657 117.929 226.843 118.555 227.231 119.055C227.412 120.637 227.487 122.249 227.357 123.841C227.206 125.283 227.05 126.745 226.773 128.171L226.778 128.166Z" fill="#33A66F"/>
<path d="M32.4275 49.9448C-53.6492 166.548 104.273 300.726 205.812 199.478C309.168 81.4163 134.684 -69.7795 32.4275 49.9448ZM218.54 170.646C218.639 170.793 218.661 170.967 218.598 171.131C218.135 172.429 217.29 173.555 216.561 174.713C214.347 178.015 212.357 181.541 209.647 184.473C209.421 184.684 209.162 184.899 208.879 185.026C208.947 182.933 211.485 179.711 212.649 177.89C213.744 176.3 214.899 174.731 215.941 173.105C216.611 172.108 217.152 171.001 217.927 170.084C218.174 170.206 218.39 170.407 218.536 170.642L218.54 170.646ZM189.79 199.095C186.831 202.42 183.078 205.009 178.927 206.625C176.814 207.385 174.196 208.517 172.011 207.471C170.834 206.882 170.331 205.502 170.45 204.25C170.686 199.695 178.447 194.473 182.381 192.917C184.85 191.939 187.48 191.052 190.167 191.092C192.509 191.192 194.127 192.28 192.98 194.764C192.197 196.379 190.972 197.763 189.794 199.099L189.79 199.095ZM66.5313 62.7925C67.8458 65.5575 68.2246 68.8231 67.3727 71.7669C66.7588 73.8426 65.528 75.6794 64.3331 77.4638C63.5581 78.5554 62.7056 79.6742 61.5251 80.3529C59.5354 81.727 55.167 77.1218 54.0851 75.5624C53.0845 74.1686 52.174 72.4692 52.505 70.7095C52.9689 68.5545 54.4835 66.8096 55.8705 65.1669C57.3422 63.4968 58.8811 61.848 60.6561 60.4922C63.3631 58.2835 65.2689 60.2158 66.5352 62.8035L66.5313 62.7925ZM79.7975 43.9079C83.4567 41.4616 87.2336 38.9616 91.5159 37.7704C93.697 37.2206 98.8796 36.1563 99.5615 39.1835C99.8639 40.8998 99.1018 42.6218 98.2225 44.0562C95.2069 48.577 88.0213 51.2715 83.0761 53.2409C81.7215 53.7518 80.2742 54.2678 78.8963 54.7272C76.2388 55.559 69.3438 57.9596 67.0857 56.0291C65.1952 53.7553 77.8271 45.3224 79.7937 43.9042L79.7975 43.9079ZM48.0858 77.5038C51.3233 78.1763 53.9373 82.4343 54.0061 85.5972C54.093 88.7339 52.415 91.5571 50.8999 94.1811C49.984 95.6384 49.0364 97.1815 47.6561 98.2492C47.3427 98.5212 46.9102 98.4167 46.5588 98.2813C44.5365 97.356 42.9938 95.5775 41.6999 93.8137C40.2331 91.7595 39.3416 89.3588 40.27 86.8886C40.9942 84.7667 42.2573 82.8736 43.518 81.0437C44.5726 79.6547 46.1037 77.2642 48.0896 77.5075L48.0858 77.5038ZM72.2952 65.814C72.3369 62.2562 76.615 60.3195 79.4158 59.0589C81.7601 58.1504 88.3426 55.5284 89.2176 59.287C89.5558 61.1178 88.8895 62.9904 88.0921 64.6201C86.6111 67.4587 83.9646 69.9076 80.7221 70.4296C77.5804 70.9908 72.5871 69.541 72.2916 65.8178L72.2952 65.814ZM166.54 44.6638C171.066 44.3257 174.945 47.3101 178.403 49.8671C179.542 50.7543 180.717 51.6187 181.772 52.6073C182.329 53.1513 183.107 53.8512 182.564 54.6721C180.317 57.5858 170.958 54.565 167.837 53.6125C165.057 52.6324 162.058 51.6149 159.972 49.4369C159.194 48.5775 159.696 47.7165 160.431 47.0521C162.104 45.5977 164.348 44.8614 166.537 44.6676L166.54 44.6638ZM170.487 37.0942C170.487 37.0942 170.58 37.1187 170.584 37.1224C172.105 37.6734 173.457 38.6574 174.775 39.5789C176.588 40.9637 178.615 42.512 179.289 44.79C177.912 44.4074 176.736 43.4614 175.566 42.6749C173.572 41.1742 171.383 39.5209 170.487 37.1017L170.487 37.0942ZM212.236 150.967C210.469 149.466 208.972 147.58 207.753 145.648C206.438 143.61 206.51 142.247 207.929 140.352C209.391 138.541 211.83 135.739 213.983 134.937C215.411 134.396 216.469 135.844 216.978 136.997C218.257 139.807 217.677 143.007 217.088 145.913C216.616 147.871 215.998 149.891 214.759 151.51C214.043 152.433 212.911 151.494 212.236 150.974L212.236 150.967ZM210.032 159.418C209.729 161.11 208.897 162.663 208.041 164.126C207.287 165.362 206.511 166.606 205.63 167.747C204.101 169.697 202.919 170.68 200.572 169.099C198.107 167.406 196.06 165.09 194.468 162.574C193.36 160.8 193.761 159.937 194.766 158.274C196.231 155.944 198.08 153.845 199.964 151.846C202.108 149.516 204.811 149.963 206.968 152.036C208.899 153.92 210.487 156.636 210.032 159.41L210.032 159.418ZM186.556 162.409C184.649 164.023 182.683 165.623 180.707 167.156C177.207 169.741 171.029 174.912 166.786 175.29C162.329 175.564 163.733 169.737 164.831 167.197C166.142 164.013 168.02 161.02 170.478 158.6C174.076 154.967 179.372 153.308 184.432 153.636C186.809 153.792 190.002 155.01 190.479 157.636C190.542 159.268 187.703 161.349 186.556 162.409ZM164.094 123.855C162.163 118.685 160.455 113.214 160.537 107.653C160.622 104.936 161.434 102.194 163.095 100.023C163.663 99.3061 164.263 98.5474 165.07 98.0822C167.364 96.9222 169.938 99.4115 171.577 100.818C175.755 104.817 179.489 109.61 181.265 115.176C182.957 120.762 182.755 127.501 176.997 130.533C175.911 131.136 174.726 131.6 173.535 131.956C172.647 132.218 171.702 132.456 170.765 132.382C167.264 132.058 165.31 126.677 164.091 123.859L164.094 123.855ZM151.767 154.461C150.471 157.085 148.465 159.301 146.529 161.468C144.775 163.302 143.064 165.28 140.923 166.675C139.005 167.944 136.941 166.979 135.262 165.766C133.079 164.228 131.245 161.478 132.675 158.845C134.516 155.67 137.832 153.656 140.899 151.801C142.021 151.161 143.221 150.537 144.401 150.01C146.207 149.266 148.257 148.299 150.243 148.891C151.02 149.176 151.641 149.811 152.027 150.532C152.672 151.78 152.336 153.258 151.774 154.468L151.767 154.461ZM157.014 117.783C158.782 122.403 160.083 127.379 159.833 132.349C159.589 136.192 157.93 139.942 155.185 142.645C153.966 143.788 152.555 145.008 150.835 145.217C148.456 145.351 146.391 142.909 144.773 141.414C140.736 137.245 136.224 131.781 136.85 125.625C137.545 120.792 140.849 116.783 144.348 113.593C146.099 112.134 147.952 110.425 150.28 110.025C153.785 109.602 155.873 115.156 157.017 117.779L157.014 117.783ZM79.5498 103.754C82.2006 101.694 85.6937 100.185 88.9681 101.751C91.3487 102.782 94.5989 105.691 95.1164 108.305C95.2769 109.972 93.5833 110.956 92.4023 111.794C88.8248 114.065 82.9726 117.565 78.6832 117.332C76.0014 117.167 73.6512 114.907 73.2077 112.285C73.0555 110.299 74.5351 108.651 75.7414 107.241C76.8949 105.969 78.1874 104.788 79.5535 103.75L79.5498 103.754ZM91.4805 78.9219C84.8417 73.5883 88.6543 69.4 95.5217 68.005C98.8819 67.4293 103.884 67.1578 105.526 70.871C106.581 73.4287 105.933 76.5473 104.169 78.6188C100.774 82.3962 95.2453 81.9637 91.4805 78.9219V78.9219ZM92.5485 120.876C94.6211 122.802 95.3058 125.788 95.5212 128.504C95.9904 134.895 92.8817 141.375 87.698 145.092C82.4707 148.854 77.5091 146.78 73.3563 142.557C71.9376 141.037 69.8306 139.056 70.107 136.807C70.6679 133.961 73.8279 130.51 75.7948 128.387C79.0721 125.049 87.8221 116.892 92.5523 120.879L92.5485 120.876ZM101.17 128.63C100.081 125.639 99.3778 122.49 98.905 119.344C98.6298 116.789 97.72 112.059 100.598 110.757C102.865 109.708 105.534 110.137 107.726 111.205C111.088 112.906 114.159 115.562 115.835 118.974C116.926 121.138 116.761 123.726 115.617 125.822C114.073 128.884 109.751 133.154 106.298 133.743C103.397 134.092 102.025 130.872 101.166 128.626L101.17 128.63ZM119.62 116.86C117.397 114.091 113.978 109.819 115.066 106.086C116.947 100.704 126.191 100.147 131.033 100.586C137.363 101.166 143.492 104.067 139.115 111.142C137.131 114.382 134.477 117.209 131.593 119.662C129.928 120.956 127.917 122.731 125.645 122.118C123.453 121.392 121.169 118.587 119.62 116.86V116.86ZM147.928 91.4595C150.271 90.2802 152.978 90.9796 154.984 92.5282C159.261 95.7883 160.435 100.518 155.361 103.658C153.592 104.757 151.382 105.126 149.359 104.564C146.926 103.875 144.542 102.296 143.462 99.946C142.001 96.523 144.96 92.8933 147.932 91.4631L147.928 91.4595ZM124.797 126.156C126.582 125.994 128.052 127.318 129.314 128.411C133.105 131.986 138.189 137.318 138.494 142.744C138.55 147.276 134.195 150.549 130.075 151.337C127.117 151.958 123.992 151.01 121.726 149.035C118.554 146.303 116.348 142.257 116.102 138.058C115.957 134.778 117.506 131.627 119.754 129.317C121.162 127.949 122.79 126.473 124.794 126.16L124.797 126.156ZM162.499 93.2114C158.68 91.1719 155.306 88.3613 152.054 85.5303C149.39 83.0053 145.561 79.8791 146.685 75.7738C147.794 71.9507 152.202 67.5305 155.627 65.5998C157.285 64.6687 158.648 65.2853 160.025 66.3876C161.397 67.4788 162.699 68.7121 163.97 69.9236C170.968 76.8317 175.681 82.6926 168.48 91.6449C166.508 94.0906 165.483 94.7521 162.499 93.2114ZM143.31 79.7661C145.004 82.0467 145.08 84.8386 143.642 87.2536C141.675 90.634 138.328 93.105 134.706 94.4824C132.6 95.2573 130.343 95.6897 128.097 95.7769C125.92 95.7999 123.166 95.7542 121.436 94.2605C120.358 93.2203 120.624 91.5729 121.02 90.2833C121.679 88.2217 122.7 86.2694 123.748 84.3872C125.066 82.0816 126.551 79.8215 128.275 77.7989C130.379 75.2991 133.384 72.8038 136.818 74.356C139.406 75.5209 141.624 77.5077 143.307 79.7699L143.31 79.7661ZM115.506 92.0093C117.042 97.0225 111.811 102.628 107.644 104.692C105.921 105.547 103.877 105.72 102.05 105.084C99.1766 104.072 96.7417 102.022 94.7075 99.799C93.1984 98.0311 91.5685 95.8052 92.0042 93.3613C92.7412 90.0596 96.3056 88.0526 99.1181 86.6434C102.128 85.2645 105.661 84.2446 108.933 85.3209C111.981 86.3635 114.556 88.927 115.51 92.013L115.506 92.0093ZM116.855 82.7483C112.859 83.6197 111.286 78.3957 110.986 75.3218C110.497 70.1475 112.289 65.646 117.841 64.676C121.866 63.9489 126.407 65.7693 125.548 70.5603C124.897 74.4245 120.756 81.5817 116.855 82.7483ZM119.612 59.1807C115.086 61.329 110.118 62.5272 105.135 63.0209C103.316 63.1793 101.452 63.2419 99.6408 63.0293C97.9411 62.8148 96.0025 62.3482 95.0138 60.8133C93.6303 58.4833 94.3958 55.4853 95.5998 53.2445C96.9013 50.8724 99.4046 49.3976 102.005 48.8523C107.353 47.7075 118.367 49.1555 123.116 51.9111C124.048 52.4826 125.257 53.3501 125.011 54.5891C124.435 56.6569 121.425 58.2472 119.612 59.1807V59.1807ZM87.9709 82.5082C90.8666 86.3983 89.7127 89.6324 86.8827 93.0745C85.5042 94.7691 83.9797 96.3954 82.3211 97.8199C80.5323 99.4022 77.9439 100.889 75.5667 99.6582C70.7708 97.1704 66.4265 83.8221 68.1855 78.8092C68.9839 76.1482 71.326 74.5906 74.0749 74.5957C79.2086 74.5744 84.9615 78.5012 87.9709 82.5082V82.5082ZM60.5149 120.463C62.691 118.774 65.3242 117.301 68.1556 117.349C70.1561 117.396 72.0616 118.775 72.6135 120.718C73.6843 124.44 69.9406 128.905 66.8399 130.553C64.1401 132.034 60.8756 131.132 58.3846 129.602C56.0459 128.263 55.3992 126.941 56.8632 124.537C57.8103 122.972 59.0918 121.613 60.5113 120.466L60.5149 120.463ZM58.5785 135.953C60.361 135.324 62.2926 135.995 63.8693 136.898C64.8004 137.439 65.7552 138.048 66.3967 138.935C67.8116 140.99 67.6179 143.653 67.5555 146.028C67.3838 149.22 66.9601 152.424 66.2788 155.547C64.3858 164.138 61.3066 165.21 55.0898 158.75C52.4412 156.05 49.1918 152.64 50.6771 148.57C51.8076 144.921 54.8146 137.281 58.5747 135.95L58.5785 135.953ZM72.4736 149.411C74.3448 147.145 77.844 151.515 79.0235 152.951C80.4105 154.732 81.6266 156.682 82.5777 158.734C83.5616 160.933 84.409 163.356 84.1328 165.794C83.7766 168.67 81.536 169.933 78.9223 168.569C75.6914 166.776 73.3725 163.515 72.1406 160.081C71.1524 157.129 70.6552 152.077 72.4774 149.415L72.4736 149.411ZM88.1005 160.672C87.1683 156.836 88.7142 153.006 90.9623 149.948C93.4547 146.5 96.503 143.392 99.9841 140.941C103.622 138.373 106.267 138.728 109.378 141.903C112.935 145.486 120.569 156.242 117.603 161.21C115.295 165.164 107.4 166.549 103.132 167.354C100.803 167.732 98.4238 168.032 96.0613 168.058C94.1697 168.073 92.0025 167.851 90.7165 166.291C89.4366 164.665 88.5796 162.682 88.1043 160.676L88.1005 160.672ZM105.806 171.982C109.667 171.606 113.627 172.931 116.597 175.425C120.998 179.088 124.027 185.12 119.534 189.946C119.182 190.341 118.731 190.778 118.334 191.129C116.299 192.83 113.778 194.309 111.051 194.326C108.428 194.297 106.388 192.307 104.918 190.316C102.485 186.893 100.317 183.059 99.6118 178.882C98.8877 174.528 101.796 172.382 105.806 171.989L105.806 171.982ZM121.827 172.873C120.93 171.077 119.99 169.014 120.478 166.978C121.036 164.717 123.58 164.117 125.575 164.813C127.035 165.283 128.37 166.142 129.536 167.121C131.726 169.001 133.665 171.619 133.597 174.621C133.576 176.49 132.938 178.31 132.086 179.952C131.656 180.708 131.263 181.616 130.455 182.029C128.18 183.222 122.745 174.746 121.827 172.873V172.873ZM157.259 153.492C155.676 152.059 155.572 150.621 156.547 148.792C157.504 147.012 158.822 145.426 160.137 143.903C161.642 142.206 163.255 140.571 165.04 139.167C166.206 138.321 168.229 136.754 169.663 137.729C171.313 139.139 171.183 142.939 171.117 144.969C170.884 149.127 169.504 155.247 165.011 156.656C162.19 157.287 159.249 155.33 157.248 153.496L157.259 153.492ZM152.413 161.161C154.623 159.119 158.245 157.735 160.205 160.868C161.484 163.01 161.021 165.944 159.397 167.765C157.639 169.747 154.572 169.451 152.373 168.383C148.543 166.5 149.849 163.486 152.413 161.161V161.161ZM177.293 137.02C180.307 132.206 185.181 133.09 188.331 137.291C191.152 140.949 190.7 144.743 186.817 147.315C184.465 148.747 181.382 149.663 178.677 148.741C174.658 147.191 175.47 140.001 177.297 137.023L177.293 137.02ZM194.913 152.259C192.749 153.458 191.739 151.823 191.76 149.771C191.793 148.298 192.41 146.916 193.07 145.633C193.719 144.384 194.436 143.141 195.22 141.972C196.308 140.419 197.493 138.872 198.948 137.637C199.908 136.854 201.141 136.56 202.07 137.573C202.738 138.297 203.243 139.212 203.415 140.185C203.507 140.855 203.302 141.53 203.103 142.16C202.514 144.012 201.338 145.611 200.096 147.073C199.234 148.089 198.316 149.108 197.409 150.087C196.661 150.885 195.885 151.721 194.913 152.251L194.913 152.259ZM205.132 134.383C204.243 133.366 203.91 131.969 203.797 130.654C203.639 127.47 204.575 121.78 208.707 121.904C211.381 122.063 212.001 125.169 211.883 127.352C211.775 129.486 210.654 131.429 209.246 132.972C208.291 133.962 206.445 135.809 205.132 134.375L205.132 134.383ZM195.334 135.635C193.933 136.217 192.591 134.98 191.666 134.045C189.898 132.122 188.669 129.73 187.876 127.257C186.669 123.237 186.425 118.923 186.989 114.778C187.237 113.142 187.663 111.489 188.456 110.03C191.598 104.257 196.507 110.794 198.336 114.2C199.588 116.469 200.489 118.995 200.436 121.611C200.515 125.097 198.538 133.934 195.342 135.634L195.334 135.635ZM204.66 116.701C201.324 114.828 201.098 110.365 201.842 107.026C202.303 104.723 204.77 96.09 208.195 98.8627C210.237 100.578 211.172 103.289 211.463 105.867C211.737 108.893 211.595 113.532 209.702 116.002C208.462 117.583 206.33 117.642 204.664 116.704L204.66 116.701ZM210.594 94.9971C207.552 92.1368 205.242 88.5565 203.517 84.7778C202.076 81.4547 199.978 76.8733 202.059 73.4577C203.568 71.4384 205.978 75.1358 206.932 76.2448C208.956 78.8948 210.714 81.753 212.424 84.6083C213.454 86.3503 214.466 88.126 215.426 89.9025C216.071 91.135 216.79 92.3663 217.174 93.7105C217.315 94.2536 217.372 94.8536 217.205 95.3977C217.013 95.8236 216.683 96.1812 216.36 96.509C214.503 98.3742 212.058 96.4022 210.586 94.9972L210.594 94.9971ZM198.151 83.6454C200.875 88.1614 201.157 93.7543 199.72 98.7288C199.101 100.771 198.315 103.45 196.656 104.868C195.44 105.803 194.27 103.395 193.763 102.55C192.178 99.4518 191.207 96.0582 190.488 92.6681C189.922 89.5278 189.304 86.0099 190.772 83.0417C192.767 79.4272 196.334 80.4172 198.151 83.6454V83.6454ZM186.329 93.542C186.855 96.0264 187.275 98.5903 187.131 101.133C186.932 104.104 185.803 106.722 182.468 104.764C178.847 102.558 174.813 97.6361 174.361 93.333C174.052 89.4877 176.757 85.7359 180.117 84.0992C183.914 82.5559 185.686 90.9964 186.321 93.5421L186.329 93.542ZM185.388 79.0423C183.206 79.722 181.057 79.1326 179.149 77.9756C177.038 76.7253 175.121 75.1233 173.292 73.4977C170.751 71.1711 168.271 68.6988 166.287 65.8701C161.953 59.343 165.212 57.4483 171.877 59.2095C175.306 60.1312 178.591 61.6709 181.514 63.6836C184.613 65.8717 187.549 68.4777 189.622 71.6834C192.243 75.7595 189.192 78.0293 185.388 79.0423ZM184.82 44.9554C186.073 44.9061 187.313 45.3317 188.483 45.7474C191.283 46.7828 193.717 48.6141 195.8 50.7253C197.363 52.3625 199.04 54.0017 200.156 55.9946C201.142 58.1082 200.568 59.3858 198.088 58.7534C196.745 58.3813 195.488 57.6851 194.286 56.9918C192.762 56.0959 191.261 55.1142 189.812 54.1021C188.427 53.1223 187.034 52.113 185.826 50.9264C184.804 49.9632 184.011 48.7331 183.804 47.3268C183.655 46.3907 183.511 44.9945 184.82 44.9629L184.82 44.9554ZM159.187 54.6905C159.974 56.5402 160.212 58.9141 159.038 60.6388C158.861 60.8679 158.618 61.1054 158.31 61.1139C157.715 61.0491 157.155 60.7129 156.63 60.4393C154.948 59.4642 153.467 58.1521 152.023 56.8616C150.545 55.5087 149.051 54.1263 147.791 52.5697C146.667 51.1073 145.407 49.3467 145.619 47.4145C145.754 46.563 146.58 45.9787 147.419 46.0027C148.09 46.0107 148.724 46.3309 149.341 46.5623C150.489 47.0376 151.65 47.5609 152.72 48.1932C154.053 48.9772 155.254 49.997 156.37 51.0588C157.479 52.1134 158.567 53.2647 159.183 54.6795L159.187 54.6905ZM140.315 54.4527C143.823 54.7537 148.969 57.3176 149.375 61.1986C149.518 65.2469 144.465 69.5326 140.882 70.6719C138.241 71.5777 135.431 70.5684 133.211 69.0527C131.375 67.8056 129.653 66.3266 128.256 64.5941C125.986 61.7365 126.596 59.4828 129.523 57.5154C132.682 55.4591 136.498 54.1306 140.311 54.4491L140.315 54.4527ZM130.998 50.6078C129.157 50.3659 127.197 49.5584 126.198 47.9049C125.21 46.1956 125.615 44.0935 126.165 42.3118C126.89 40.2418 128.117 37.5296 130.227 36.5914C131.158 36.2169 132.191 36.4863 133.114 36.7723C135.174 37.4076 137.002 38.6252 138.641 40.009C140.364 41.3433 141.67 43.1997 141.242 45.4691C140.383 49.6629 134.702 51.017 130.998 50.6078ZM134.014 33.1268C131.08 32.9429 128.31 31.5509 125.963 29.8406C125.176 29.2558 124.394 28.5522 124.096 27.5887C123.749 26.4332 123.979 25.0126 124.897 24.1896C126.122 23.1243 130.202 24.748 131.739 25.1319C133.777 25.7675 135.842 26.4213 137.765 27.3741C139.021 28.0258 140.495 28.9745 139.286 30.4697C138.016 32.0068 136.043 33.1283 134.014 33.1268V33.1268ZM123.866 34.6363C123.549 38.5249 120.886 42.3465 117.148 43.6255C113.838 44.6939 108.941 44.4777 105.963 42.5585C103.901 41.1517 104.427 39.1219 105.926 37.5219C107.713 35.654 110.185 34.6211 112.562 33.7158C114.973 32.7989 124.158 29.9024 123.87 34.6325L123.866 34.6363ZM60.9124 85.1846C61.2114 84.9351 61.5335 84.7224 61.8529 85.1031C62.5324 85.8528 62.9643 86.829 63.4131 87.727C65.3113 91.8183 66.8868 96.0852 68.2809 100.373C69.0217 103.021 70.8827 107.825 69.3866 110.293C68.9735 110.949 68.3115 111.408 67.6594 111.804C62.6275 114.969 59.2884 112.607 56.7387 107.866C54.378 103.474 53.4558 98.1433 55.5262 93.4816C56.3529 91.473 57.4936 89.5782 58.7556 87.815C59.427 86.9142 60.0786 85.9507 60.9125 85.1921L60.9124 85.1846ZM52.3316 109.3C53.883 112.94 56.1058 118.202 53.2207 121.671C51.3118 123.727 48.238 122.362 46.3179 120.99C44.0194 119.442 42.1946 116.933 42.2582 114.08C42.2842 111.561 43.3673 109.211 44.4119 106.976C45.2315 105.346 45.9738 103.561 47.3163 102.283C49.2359 102.724 51.4977 107.536 52.3353 109.304L52.3316 109.3ZM49.5029 127.397C50.2869 127.819 51.083 128.289 51.6827 128.947C53.3707 130.938 51.8211 134.409 51.0452 136.539C50.3263 138.201 47.6721 144.597 45.2953 142.304C42.793 139.688 42.3544 135.681 43.0596 132.276C43.4259 130.609 43.9461 128.85 45.1291 127.57C46.2825 126.298 48.1411 126.658 49.4955 127.398L49.5029 127.397ZM44.6473 147.589C45.7937 149.036 46.7912 150.638 47.3175 152.418C47.6677 153.388 47.7302 154.444 47.4428 155.439C46.7786 157.771 45.8143 160.119 44.2616 162.002C42.8239 163.705 41.7167 162.717 40.535 161.36C39.1281 159.69 37.9656 157.821 36.8292 155.961C36.18 154.877 35.5328 153.715 35.4136 152.43C35.2945 150.607 35.9962 148.834 36.738 147.209C39.4239 141.811 41.6744 143.734 44.6472 147.582L44.6473 147.589ZM37.5068 163.644C38.4026 164.631 39.2592 165.697 40.0894 166.738C41.5398 168.536 42.8564 170.504 43.5808 172.714C43.7024 173.035 43.6202 173.37 43.4517 173.651C43.1513 174.197 42.724 174.701 42.1929 175.032C39.8026 176.412 37.62 172.563 36.5064 170.908C35.2087 168.777 34.012 166.329 34.3267 163.775C34.6601 161.051 36.28 162.257 37.4994 163.644L37.5068 163.644ZM46.6892 169.461C46.7041 167.12 48.776 161.994 51.2924 161.513C53.9131 161.235 56.9255 166.11 57.97 168.193C59.5783 171.532 60.5236 175.286 60.396 178.993C59.9344 186.842 54.0681 179.571 51.6413 177.013C50.6654 175.919 49.6998 174.784 48.7714 173.656C47.8041 172.44 46.708 171.092 46.6894 169.468L46.6892 169.461ZM64.216 172.828C63.9575 169.824 64.9776 164.774 69.0567 166.687C72.4375 168.37 76.7724 173.335 76.8935 177.232C76.9958 178.777 76.2423 180.377 74.7251 180.92C72.3422 181.755 69.5235 181.064 67.4731 179.676C65.2899 178.138 64.4169 175.377 64.2122 172.824L64.216 172.828ZM64.7959 185.134C68.7667 184.667 74.6133 185.936 78.0859 187.941C80.1485 189.203 82.0056 190.935 80.3533 193.384C78.5353 196.072 75.2596 198.226 71.9483 198.297C69.0314 198.239 66.5479 196.353 64.3782 194.573C63.4264 193.75 62.5172 192.829 61.7654 191.813C61.0891 190.856 60.4096 189.743 60.4366 188.533C60.649 186.419 62.9053 185.375 64.7959 185.134V185.134ZM81.6619 183.975C80.4362 180.837 81.6805 177.313 83.4771 174.662C84.4532 173.248 87.3228 169.924 89.2139 171.144C89.868 171.564 90.3673 172.213 90.8106 172.844C91.4876 173.831 92.0811 174.913 92.6445 175.972C94.1966 178.923 95.6172 181.979 96.7944 185.098C97.5966 187.486 98.9677 190.836 97.9606 193.274C97.6193 193.992 96.8754 194.437 96.1024 194.55C94.008 194.805 92.1191 193.507 90.4133 192.458C89.7365 192.016 89.0437 191.522 88.3956 191.035C85.937 189.093 82.9609 186.885 81.6582 183.971L81.6619 183.975ZM80.0044 200.04C82.7997 197.974 86.5431 195.471 90.0645 197.319C93.1051 198.877 95.2994 201.669 97.39 204.296C99.0661 206.603 102.111 210.528 101.778 213.448C101.575 214.924 100.138 215.952 98.7282 216.133C97.1977 216.213 95.8283 215.285 94.5196 214.605C90.6532 212.395 86.7898 210.152 82.902 207.98C81.5733 207.23 80.2036 206.469 78.882 205.703C78.0404 205.182 77.092 204.704 76.4602 203.927C75.847 203.336 79.4676 200.453 80.0081 200.036L80.0044 200.04ZM104.31 206.732C102.738 204.757 99.9748 201.191 100.27 198.59C100.539 197.076 102.32 196.555 103.666 196.53C105.454 196.51 107.125 197.314 108.702 198.079C111.428 199.45 114.246 201.216 116.038 203.743C116.663 204.724 116.991 205.891 117.019 207.052C117.046 208.713 116.576 210.571 115.206 211.613C113.57 212.703 111.373 212.088 109.706 211.339C107.563 210.29 105.835 208.537 104.314 206.728L104.31 206.732ZM121.121 201.994C120.171 201.609 119.19 201.172 118.43 200.468C117.259 199.447 117.913 197.853 118.647 196.781C120.585 193.968 123.262 191.745 125.851 189.553C127.838 188.046 130.166 185.813 132.871 186.409C135.883 187.256 141.539 191.184 141.852 194.503C141.991 197.631 138.132 199.951 135.726 201.272C132.438 203.03 128.596 203.765 124.901 203.066C123.617 202.845 122.34 202.472 121.133 201.998L121.121 201.994ZM137.816 179.024C137.863 176.605 139.221 173.56 140.896 171.832C142.202 170.576 144.166 170.697 145.817 171.038C149.28 171.704 159.842 175.477 161.246 178.649C162.397 181.401 158.911 184.342 156.98 185.852C155.058 187.277 152.849 188.462 150.464 188.844C145.052 189.753 137.72 184.797 137.816 179.024V179.024ZM149.459 200.362C151.728 200.479 154.246 201.367 155.548 203.334C156.365 204.624 155.447 205.795 154.409 206.576C153.153 207.545 151.722 208.324 150.231 208.863C147.798 209.766 145.116 209.767 142.583 209.287C141.578 209.095 140.567 208.811 139.609 208.448C138.966 208.183 138.27 207.905 137.774 207.404C137.174 206.739 138.123 205.822 138.558 205.326C141.269 202.765 145.647 200.278 149.466 200.362L149.459 200.362ZM158.312 199.196C154.937 196.333 155.969 193.302 158.836 190.593C161.297 188.351 164.463 186.258 167.937 186.504C169.732 186.665 171.563 187.508 172.593 189.038C174.168 191.328 172.584 193.645 170.915 195.315C169.407 196.848 167.707 198.203 165.997 199.498C164.889 200.291 163.663 201.26 162.222 201.171C160.756 200.986 159.436 200.12 158.312 199.203L158.312 199.196ZM175.24 179.264C176.878 175.914 179.958 173.462 183.033 171.478C186.311 169.397 190.838 167.854 194.346 170.321C196.626 171.873 198.002 174.9 197.089 177.581C195.714 181.271 192.308 184.47 188.823 186.191C186.446 187.33 183.727 188.029 181.083 187.558C177.059 186.869 173.259 183.583 175.248 179.263L175.24 179.264ZM199.644 187.634C198.993 188.279 197.127 190.259 196.433 188.812C195.623 186.221 198.021 183.583 199.322 181.538C201.126 178.916 202.866 176.211 205.082 173.914C206.204 172.779 207.243 171.491 208.571 170.591C209.087 170.282 210.042 170.149 210.282 170.853C211.276 173.353 205.717 180.072 204.133 182.259C202.709 184.099 201.275 185.965 199.651 187.634L199.644 187.634ZM219.699 155.438C218.823 158.286 217.465 160.974 216.188 163.654C215.736 164.569 215.296 165.518 214.836 166.434C214.539 166.992 214.259 167.586 213.827 168.056C212.912 167.399 212.46 166.186 212.46 165.088C212.548 163.573 213.264 162.164 213.777 160.761C214.257 159.567 214.744 158.35 215.381 157.227C216.251 155.726 217.279 154.304 218.312 152.915C218.572 152.592 218.857 152.198 219.301 152.154C219.423 152.141 219.576 152.15 219.656 152.264C220.239 153.211 219.96 154.432 219.695 155.442L219.699 155.438ZM226.561 139.551C226.428 141.363 226.083 143.168 225.641 144.929C225.29 146.285 224.888 147.656 224.145 148.851C223.962 149.139 223.76 149.439 223.513 149.681C223.447 149.748 223.327 149.676 223.252 149.655C222.165 149.079 221.618 147.722 221.453 146.56C221.152 141.698 223.146 136.01 225.876 132.036C226.512 134.474 226.706 137.045 226.565 139.555L226.561 139.551ZM230.167 126.426C230.023 127.53 229.813 128.658 229.568 129.737C229.149 127.043 229.141 124.302 229.437 121.594C229.574 120.149 229.7 118.678 230.131 117.284C230.379 120.314 230.561 123.397 230.167 126.419L230.167 126.426ZM223.994 126.594C223.236 128.297 222.38 129.995 221.284 131.503C220.712 132.224 219.913 133.227 219.032 132.247C217.16 130.143 216.341 127.311 215.803 124.604C214.892 120.186 215.059 115.643 215.471 111.186C215.664 109.031 215.875 106.843 216.277 104.723C216.531 103.55 216.761 102.297 217.404 101.266C218.578 102.086 219.242 103.541 219.972 104.739C221.167 106.916 222.249 109.202 223.223 111.487C225.55 116.914 226.591 121.015 223.994 126.594ZM223.26 102.306C222.422 100.312 221.383 98.307 221.104 96.1414C222.266 96.5498 222.987 97.6957 223.55 98.7255C224.505 100.599 225.203 102.617 225.871 104.605C226.514 106.635 227.169 108.706 227.457 110.816C225.909 108.066 224.566 105.171 223.264 102.302L223.26 102.306ZM229.35 97.7405C230.006 100.575 230.566 103.456 230.889 106.348L230.864 106.374C230.78 106.461 230.693 106.559 230.625 106.66C229.465 103.47 228.396 100.23 227.42 96.977C226.882 95.1419 226.45 93.257 226.288 91.3492C226.24 90.6119 226.141 89.8122 226.446 89.1175C227.793 91.8412 228.652 94.7914 229.35 97.7405V97.7405ZM216.533 82.3998C216.308 81.4055 216.203 80.2647 216.7 79.3407C217.855 79.9532 219.078 82.5861 219.722 83.7815C221.001 86.447 222.342 89.2375 222.456 92.2329C220.116 91.0307 217.161 84.9753 216.537 82.4035L216.533 82.3998ZM218.363 71.6698C218.875 71.6766 219.451 71.7009 219.88 72.0132C220.818 72.8961 221.234 74.1841 221.696 75.3564C222.679 78.0562 223.726 80.7735 224.281 83.5987C222.784 80.97 221.569 78.1775 220.204 75.48C219.569 74.1917 218.791 72.9687 218.145 71.6843C218.2 71.6797 218.3 71.6745 218.36 71.6735L218.363 71.6698ZM210.598 57.574C211.984 59.6369 213.446 61.6725 214.759 63.7885C215.47 65.0199 216.364 66.2522 216.678 67.6531C215.025 67.2006 213.922 65.7008 212.942 64.3919C211.411 62.2535 210.442 59.7204 210.28 57.0931C210.365 57.2179 210.514 57.4492 210.598 57.574V57.574ZM204.68 60.4081C206.215 61.8158 207.186 63.7182 208.4 65.3832C209.942 67.6698 211.645 69.8576 213.264 72.0948C213.747 72.8439 214.316 73.6473 214.335 74.5669C214.243 75.8592 213.369 76.4775 212.152 75.8995C211.323 75.4933 210.667 74.7877 210.045 74.1224C209.043 73.0253 208.077 71.8461 207.137 70.6999C205.809 69.1072 204.532 67.4469 203.53 65.6303C203.194 64.9493 202.596 64.228 202.802 63.4235C202.967 62.7681 203.288 62.1548 203.647 61.5853C203.939 61.1542 204.253 60.7078 204.677 60.4044L204.68 60.4081ZM200.093 67.1494C200.296 67.9994 199.791 68.8641 199.251 69.4847C196.575 72.1454 192.104 67.2303 190.233 65.3457C188.631 63.5608 186.886 61.6964 186.1 59.383C185.996 58.9915 185.901 58.5516 185.993 58.1532C186.014 58.0861 186.038 57.993 186.112 57.9622C186.66 57.7496 187.298 57.9361 187.839 58.0946C189.521 58.6765 191.062 59.6538 192.561 60.5984C194.351 61.7572 196.12 62.9906 197.776 64.3408C198.694 65.1239 199.676 65.9912 200.09 67.1532L200.093 67.1494ZM195.047 40.6219C197.232 42.6203 199.342 44.72 201.451 46.7975C205.059 50.3203 206.771 51.3246 206.346 56.8173C204.55 55.1578 203.019 53.2233 201.383 51.4129C199.442 49.2215 197.413 47.076 195.571 44.7978C193.651 42.3723 191.947 39.7544 190.44 37.0517C192.162 37.9631 193.604 39.3389 195.047 40.6219V40.6219ZM173.256 28.8903C175.746 29.619 178.004 31.0265 180.144 32.4655C183.374 34.7294 186.503 37.529 188.184 41.1562C184.122 40.6043 180.499 38.3243 177.111 36.1334C174.923 34.6914 172.762 33.1823 170.581 31.7328C169.505 31.0079 168.357 30.3731 167.302 29.6181C169.069 28.5888 171.286 28.3426 173.26 28.894L173.256 28.8903ZM165.14 33.7619C166.477 35.488 165.828 37.6533 164.359 39.0562C162.325 41.0133 159.703 42.2934 157.058 43.2103C154.189 44.1864 151.627 44.2822 148.84 42.9536C146.673 42.0417 144.58 40.9025 142.728 39.4367C142.097 38.8865 141.227 38.4105 140.979 37.5539C140.422 35.1775 142.916 32.5085 144.35 30.8316C145.083 30.0189 145.86 29.2203 146.627 28.4405C147.31 27.7621 148.048 27.0198 149.027 26.8078C150.971 26.4583 153.503 27.8243 155.313 28.5378C157.645 29.5657 159.953 30.6719 162.246 31.7858C163.281 32.3185 164.386 32.8465 165.147 33.7544L165.14 33.7619ZM149.522 19.1366C150.574 18.7269 151.767 18.6414 152.863 18.9284C154.766 19.4401 156.543 20.3469 158.361 21.0899C160.831 22.1639 163.393 23.1437 165.635 24.659C165.858 24.8521 166.199 25.0433 166.25 25.3541C164.931 26.3207 162.556 26.2912 160.996 26.0152C157.781 25.3498 154.689 23.9889 151.904 22.2484C150.869 21.5339 149.799 20.7199 149.204 19.5867C149.062 19.333 149.323 19.2288 149.514 19.1368L149.522 19.1366ZM145.44 21.4448C145.927 22.0084 146.332 22.7699 146.136 23.526C146.042 23.8056 145.706 23.9036 145.46 24.0077C144.052 24.4452 142.527 24.1093 141.126 23.7753C138.798 23.1219 136.437 22.3281 134.392 21.01C133.86 20.6215 133.031 19.9816 133.113 19.2533C133.382 18.6556 134.12 18.4363 134.718 18.3305C136.409 18.1222 138.135 18.492 139.792 18.8183C141.801 19.2875 144.019 19.8202 145.437 21.4412L145.44 21.4448ZM143.884 14.1657C145.182 14.4791 146.5 14.8776 147.677 15.5119C144.885 15.9156 142.071 15.2513 139.323 14.7751C136.392 14.2017 133.369 13.6705 130.734 12.1837C135.148 12.5372 139.565 13.1912 143.888 14.1693L143.884 14.1657ZM120.384 13.9783C122.776 13.9519 125.311 13.8453 127.543 14.8637C128.102 15.1405 128.724 15.4794 128.952 16.0916C129.256 16.9585 129.039 17.956 128.572 18.7274C128.168 19.4423 127.481 19.6088 126.705 19.5654C125.402 19.5154 124.116 19.198 122.883 18.7871C121.594 18.3511 120.319 17.8333 119.068 17.2965C117.698 16.6578 116.068 16.075 115.206 14.7569C115.967 14.0514 119.243 14.0556 120.388 13.9819L120.384 13.9783ZM114.99 20.2983C116.812 20.6814 120.538 21.4538 119.907 23.986C118.866 26.7398 115.397 28.1408 112.859 29.2044C107.836 31.1565 102.538 32.5824 97.1235 32.8418C94.5733 32.9412 88.1191 33.3244 87.3093 30.2102C86.8911 28.0988 88.1851 26.0828 89.7006 24.7385C93.5976 21.2277 102.596 20.441 107.807 20.0216C110.185 19.8878 112.626 19.8792 114.987 20.2947L114.99 20.2983ZM71.6828 42.9225C68.5948 43.7462 64.5972 43.4529 61.9033 41.6183C62.3047 41.1112 62.8459 40.7318 63.342 40.3234C64.1703 39.6539 65.0287 39.0061 65.9372 38.4503C68.4538 36.9011 71.3258 36.0362 74.1509 35.2352C76.5535 34.6373 81.8466 32.9889 84.0184 34.1529C83.9402 34.8552 83.4067 35.4311 82.9722 35.9498C80.1279 38.8766 75.6212 41.785 71.6866 42.9261L71.6828 42.9225ZM59.2408 56.9758C58.371 57.6126 57.3795 58.6408 56.2056 58.1993C54.1807 57.3297 53.2239 54.4589 53.0891 52.4172C52.9803 50.9166 53.5209 49.6062 54.609 48.5839C55.4271 47.781 56.2698 46.9072 57.3438 46.46C59.0513 45.7952 60.9908 46.1246 62.669 46.7325C64.0008 47.2754 65.8865 48.2362 65.8428 49.8949C65.8064 50.2887 65.5388 50.6267 65.3151 50.9344C64.9034 51.475 64.4212 52.0204 63.9642 52.5246C62.5208 54.1275 60.9267 55.6214 59.2444 56.972L59.2408 56.9758ZM88.6281 15.8902C89.5378 15.3937 90.5162 14.9851 91.4767 14.6102C95.3837 13.0281 98.9089 12.7205 103.078 13.2522C104.436 13.4053 105.812 13.6062 107.153 13.8522C108.099 14.0451 109.086 14.2262 109.955 14.6576C108.683 15.3787 107.174 15.6249 105.76 15.9327C103.21 16.4253 100.588 16.804 98.0179 17.1894C95.795 17.5099 93.5317 17.8496 91.2958 18.0776C90.0885 18.1781 88.8263 18.3129 87.6334 18.0275C87.6254 17.998 87.6093 17.9389 87.6051 17.913C87.4187 16.97 87.7684 16.2969 88.6281 15.8902V15.8902ZM79.9554 24.376C81.8277 23.4267 83.7214 22.4325 85.7183 21.7632C84.6804 24.5058 82.7879 26.9985 80.271 28.5328C78.5965 29.5421 76.7188 30.2318 74.8451 30.7583C73.7676 31.0349 72.643 31.3678 71.5184 31.3372C71.5931 31.184 71.7042 30.9931 71.7941 30.8544C73.7475 27.8971 76.865 25.9824 79.9554 24.376V24.376ZM46.4069 56.862C47.2414 56.133 48.1813 55.1204 49.1229 56.3483C50.6178 58.3278 51.2476 61.3484 50.9825 63.7896C50.8057 65.2909 50.0921 66.6671 49.3546 67.9621C48.6742 69.145 47.953 70.3321 47.1334 71.4244C46.2343 72.6218 45.1888 73.7287 44.0929 74.7363C43.6295 75.1108 43.1736 75.6669 42.5286 75.6919C40.5377 75.5674 39.4138 72.5137 39.0568 70.8465C38.1741 67.2549 40.3011 64.0797 42.4235 61.4017C43.6823 59.8388 44.9366 58.2427 46.3994 56.8621L46.4069 56.862ZM71.998 22.0231C73.3709 21.1373 74.9831 20.7077 76.4918 20.1127C78.6391 19.3631 80.7995 18.5317 83.0554 18.1921C81.4328 19.3823 79.5658 20.2277 77.7509 21.087C76.0551 21.7851 73.6702 23.0614 71.8774 22.1103L71.9944 22.0269L71.998 22.0231ZM53.0895 34.965C54.0839 33.8959 55.3475 33.1083 56.5283 32.2625C59.9528 29.9461 63.248 27.2942 67.076 25.6576C67.6396 25.467 68.7159 25.1311 69.1715 25.6358C69.6517 26.9785 68.115 29.0946 67.4562 30.2474C65.601 33.2922 63.001 36.3747 59.2531 36.8601C57.9289 37.0441 56.512 37.2333 55.2261 36.7564C54.3841 36.4024 53.4489 35.8421 53.0931 34.9612L53.0895 34.965ZM49.2439 49.2542C47.9325 50.6064 46.4473 51.7982 45.0257 53.0223C44.0249 53.7799 42.5808 55.353 41.2241 55.0405C41.1163 54.1297 41.741 53.3002 42.2384 52.595C44.1013 50.2845 46.398 48.3271 48.6245 46.3818C51.3059 44.1846 54.0964 41.7075 57.5869 40.9739C56.5456 42.4702 55.0089 43.5033 53.6722 44.7076C52.0723 46.094 50.6811 47.7108 49.2476 49.2579L49.2439 49.2542ZM28.5123 65.1773C29.0488 63.8484 29.7719 62.5759 30.5184 61.3549C31.3801 59.9689 32.3718 58.5846 33.805 57.7498C34.7974 57.1222 36.1127 56.6824 37.1703 57.4188C38.5415 58.4358 37.5145 60.2658 36.8366 61.3929C36.0761 62.6512 35.2032 63.8593 34.3601 65.0669C33.3285 66.4927 32.3876 67.9986 31.4124 69.4642C30.817 70.2711 30.2992 71.2473 29.4541 71.8207C28.9012 71.273 28.6694 70.468 28.4432 69.7482C28.0342 68.2635 27.9337 66.6256 28.5085 65.1737L28.5123 65.1773ZM19.6304 89.0822C19.3512 86.3343 19.6785 83.4953 20.4624 80.8493C21.5254 77.5277 23.1492 74.4123 24.7175 71.309C24.7331 71.3459 24.78 71.4638 24.7994 71.5043C25.6293 73.613 26.2407 75.9254 25.898 78.1972C25.0999 82.3122 22.7899 86.3285 19.6304 89.0822V89.0822ZM33.5841 74.4006C33.8743 74.0844 34.1761 73.6049 34.6391 73.5717C34.93 73.6487 35.1288 73.9349 35.3114 74.1546C36.799 76.316 37.6774 79.3438 37.5977 81.9564C37.5379 83.3743 37.0504 84.7433 36.5321 86.0534C36.0062 87.3562 35.4547 88.6779 34.7602 89.8981C34.1443 90.976 33.4087 92.0039 32.631 92.9694C32.4717 93.1574 32.2872 93.3865 32.1089 93.5563C32.0145 93.6542 31.8977 93.745 31.753 93.7436C29.9228 93.6796 28.6619 90.2757 28.3077 88.7494C27.4805 85.5093 29.0402 82.3468 30.496 79.5419C31.4579 77.7946 32.3515 75.9741 33.5839 74.3932L33.5841 74.4006ZM18.512 122.32C18.1232 121.633 17.9582 120.827 17.7867 120.065C17.5028 118.708 17.3106 117.302 17.1487 115.925C16.3608 110.091 17.0621 104.153 18.7905 98.5578C19.3754 96.694 20.172 94.8454 21.3941 93.3054C22.071 92.4898 23.197 91.1479 24.31 92.054C25.7367 93.2409 26.4827 95.0578 27.1664 96.7348C28.7191 100.616 28.4088 105.006 26.9374 108.849C25.8034 111.79 24.1571 114.527 22.4907 117.195C21.2959 118.979 20.1825 120.936 18.5122 122.328L18.512 122.32ZM32.6772 107.821C31.7095 105.325 32.5295 101.551 33.3614 99.0746C33.6667 98.2278 34.0424 97.3761 34.5425 96.6227C34.8092 96.2402 35.1045 95.8127 35.5304 95.5983C36.7407 95.1008 38.1974 96.6655 38.9377 97.4885C40.5126 99.3851 41.6212 101.879 41.2421 104.37C40.8924 106.482 39.9058 108.649 38.1747 109.975C36.1329 111.524 33.5295 109.936 32.6772 107.821V107.821ZM16.7378 136.143C16.4139 133.563 15.5533 129.062 17.4171 126.978C18.0229 127.751 18.2845 128.745 18.5373 129.672C18.921 131.19 19.1834 132.766 19.4341 134.309C19.9578 137.765 20.5738 141.558 18.9044 144.796L18.8899 144.811C17.5658 142.124 17.2394 139.062 16.7377 136.135L16.7378 136.143ZM23.3662 126.202C24.0606 122.634 25.7109 119.188 28.1332 116.479C30.0595 114.368 32.3311 113.709 34.8821 115.275C38.0708 117.18 40.3969 120.426 40.3269 124.233C40.3286 126.299 39.8738 128.354 39.3658 130.342C38.7193 132.815 37.9054 135.265 36.9414 137.628C36.1358 139.585 35.2451 141.546 34.1096 143.329C33.2884 144.522 32.1698 146.227 30.5014 145.912C28.0233 145.187 25.9542 141.447 24.995 139.185C23.39 135.1 22.6394 130.538 23.3661 126.194L23.3662 126.202ZM28.5605 162.627C26.0092 161.41 24.7489 157.854 23.7261 155.385C23.015 153.456 22.2912 151.457 22.1893 149.388C22.1684 148.736 22.2211 148.053 22.4047 147.423C22.5094 147.102 22.6244 146.741 22.8906 146.518C23.3041 146.24 23.8297 146.544 24.2195 146.738C26.1325 147.943 27.6743 149.677 29.1996 151.33C30.8018 153.115 32.4484 155.429 31.7471 157.944C31.4892 159.113 30.2111 163.339 28.5643 162.631L28.5605 162.627ZM33.4694 184.654C33.2121 184.049 32.6509 183.639 32.3204 183.08C30.4253 180.402 28.9511 177.447 27.9593 174.324C27.2093 171.951 26.2045 168.91 26.6728 166.433C29.8458 167.755 31.9106 171.288 33.7992 174.01C36.1905 177.545 38.3153 181.287 39.6564 185.343C40.47 187.741 41.3654 190.153 41.7658 192.662C38.5827 190.486 35.7297 187.771 33.4729 184.642L33.4694 184.654ZM43.928 185.973C43.444 184.627 43.0211 183.187 43.1064 181.743C43.2082 180.024 44.2427 178.375 46.178 178.86C48.3983 179.497 50.0936 181.481 51.6698 183.081C53.5919 185.269 55.6912 187.591 56.4956 190.446C56.6919 191.151 56.5145 191.903 56.0888 192.489C55.3002 193.647 53.8918 194.426 52.4686 194.311C50.6238 194.073 48.9521 192.701 47.5703 191.528C45.8888 190.037 44.6908 188.068 43.928 185.973ZM57.6344 207.376C56.4 206.52 55.157 205.604 53.9659 204.688C50.8204 202.178 46.921 199.45 45.8979 195.345C49.2874 197.451 52.5157 199.837 55.5442 202.431C57.3804 204.049 59.3126 205.643 60.8325 207.574C61.1 207.956 61.4057 208.388 61.4267 208.867C60.0111 209.123 58.7515 208.119 57.6382 207.379L57.6344 207.376ZM61.4653 202.275C60.2558 201.188 58.9686 200.107 58.0283 198.764C57.798 198.389 57.4015 197.687 57.7421 197.296C58.7951 196.727 60.1229 197.077 61.188 197.457C63.4255 198.386 65.3782 199.899 67.4117 201.191C69.5815 202.615 71.8194 204.104 73.3219 206.272C73.0117 207.238 72.1661 207.971 71.2927 208.43C70.5736 208.819 69.8893 208.734 69.1985 208.337C68.2869 207.843 67.4644 207.173 66.6538 206.537C64.9075 205.143 63.1464 203.75 61.4654 202.282L61.4653 202.275ZM75.1964 218.758C72.4651 217.265 69.7654 215.687 67.0663 214.138C66.0676 213.56 65.0503 212.979 64.1234 212.281C65.2915 211.54 66.0385 211.606 67.2029 212.307C68.4232 213.019 69.6011 213.835 70.8288 214.546C72.755 215.67 74.7393 216.733 76.6618 217.86C77.9325 218.678 80.2359 219.744 80.6015 221.288C78.6908 220.732 76.9515 219.68 75.1964 218.758ZM79.6313 214.705C78.1908 213.926 76.6976 213.111 75.5346 211.939C75.3483 211.723 75.1393 211.478 75.0998 211.185C77.442 210.173 80.9478 211.984 83.0913 213.033C84.8702 214.029 86.8077 214.982 88.1931 216.507C85.2498 217.15 82.2406 216.036 79.6351 214.708L79.6313 214.705ZM103.819 227.701C99.8843 227.061 96.0535 225.86 92.263 224.633C90.7017 224.116 89.1064 223.566 87.5804 222.959C86.7457 222.598 85.8193 222.286 85.135 221.662C85.4646 221.457 85.8433 221.291 86.2076 221.148C87.4813 220.668 88.8293 220.377 90.1627 220.1C91.8731 219.75 93.6861 219.521 95.3958 220.043C96.9783 220.508 98.4807 221.23 100.039 221.758C102.733 222.706 105.512 223.468 108.136 224.61C109.278 225.145 111.009 226.123 110.724 227.607C110.568 228.7 104.779 227.856 103.822 227.697L103.819 227.701ZM116.428 219.973C113.103 221.019 110.057 220.785 106.801 219.608C106.323 219.43 104.066 218.628 104.199 218.073C105.157 216.837 107.296 216.24 108.811 216.138C110.334 216.037 111.877 216.239 113.388 216.445C115.612 216.759 117.824 217.321 119.855 218.305C119.903 218.331 120.042 218.399 120.087 218.421C118.947 219.102 117.692 219.586 116.432 219.976L116.428 219.973ZM121.214 214.23C120.127 212.993 120.819 210.571 121.67 209.364C122.777 207.64 124.965 207.446 126.835 207.643C129.092 207.893 131.63 208.45 133.484 209.831C134.594 210.596 132.041 211.994 131.462 212.359C128.919 213.723 123.835 216.336 121.214 214.23ZM118.289 226.746C117.262 226.629 116.191 226.497 115.244 226.064C114.88 225.873 114.268 225.515 114.325 225.039C114.441 224.745 114.818 224.657 115.09 224.556C116.528 224.111 118.169 224.167 119.462 225.014C120.199 225.478 120.905 226.056 121.42 226.764C120.392 226.914 119.322 226.842 118.289 226.754L118.289 226.746ZM146.425 222.929C143.82 224.676 140.657 225.253 137.623 225.823C135.764 226.16 133.874 226.454 132.006 226.724C130.493 226.907 128.843 227.286 127.393 226.615C125.859 225.819 123.375 223.321 123.076 221.601C122.994 221.079 123.526 220.792 123.881 220.523C124.839 219.87 125.9 219.331 126.932 218.799C129.579 217.478 132.268 216.182 135.028 215.1C138.185 213.871 141.745 213.073 145.085 214.055C147.012 214.641 148.469 216.402 148.854 218.358C149.294 220.462 148.091 221.861 146.426 222.937L146.425 222.929ZM156.237 216.974C155.581 217.184 154.87 217.407 154.17 217.299C153.113 217.123 152.585 215.981 152.628 214.998C152.691 212.296 155.123 210.615 157.07 209.134C159.361 207.448 161.647 205.509 164.475 204.826C165.106 204.664 166.101 206.707 166.293 207.22C166.868 208.661 167.122 210.542 165.926 211.736C165.095 212.599 164.028 213.205 162.997 213.796C161.651 214.533 160.252 215.212 158.871 215.879C158.022 216.282 157.136 216.67 156.245 216.974L156.237 216.974ZM160.336 222.889C159.328 223.29 158.322 223.826 157.258 224.043C154.905 224.528 152.633 225.332 150.264 225.744C149.997 225.748 149.688 225.719 149.424 225.69C151.804 223.624 154.548 221.974 157.528 220.93C159.92 220.002 162.596 219.545 165.091 220.366C163.602 221.358 161.968 222.158 160.336 222.889ZM174.802 215.614C172.214 216.782 169.359 217.576 166.558 216.626C169.419 214.538 172.748 213.176 176.035 211.897C178.693 210.905 181.345 209.829 184.062 208.996C184.327 208.918 184.663 208.834 184.933 208.775C181.975 211.607 178.578 214.008 174.798 215.61L174.802 215.614ZM195.753 202.047C193.976 203.154 192.124 204.173 190.178 204.957C191.966 202.262 194.239 199.904 196.257 197.38C197.76 195.572 199.318 193.775 200.945 192.08C201.962 191.033 202.982 189.945 204.158 189.066C205.12 188.372 206.174 188.248 206.039 189.782C205.94 190.536 205.531 191.218 205.166 191.869C204.398 192.263 203.842 192.962 203.408 193.692C203.089 194.257 202.775 194.863 202.704 195.52C201.692 196.842 200.579 198.109 199.326 199.212C198.166 200.187 196.988 201.174 195.745 202.047L195.753 202.047Z" fill="url(#paint0_linear_2786_11)"/>
<defs>
<linearGradient id="paint0_linear_2786_11" x1="41.3254" y1="40.3065" x2="206.086" y2="199.194" gradientUnits="userSpaceOnUse">
<stop stop-color="#FFD6D3"/>
<stop offset="1" stop-color="#FBC624"/>
</linearGradient>
</defs>
</svg>
