<svg width="118" height="30" viewBox="0 0 118 30" fill="none" xmlns="http://www.w3.org/2000/svg">
<path d="M14.8672 28.9871C14.8672 29.5958 14.3259 30.0522 13.7266 29.9952C6.03196 29.2344 0 22.8245 0 15.0451C0 7.2658 6.01262 0.855922 13.7266 0.0951058C14.3452 0.0380446 14.8672 0.513555 14.8672 1.10319V6.25772C14.8672 6.75225 14.4999 7.18972 13.9972 7.2658C10.1886 7.85543 7.26928 11.1079 7.26928 15.0261C7.26928 18.9443 10.1886 22.1968 13.9972 22.7864C14.4999 22.8625 14.8672 23.3 14.8672 23.7945V28.9871Z" fill="black"/>
<path d="M30.469 16.4716C29.7923 23.5472 24.1084 29.2153 16.9357 29.9761C16.3171 30.0331 15.7758 29.5767 15.7758 28.968V23.7945C15.7758 23.2999 16.1431 22.8815 16.6264 22.7864C19.9904 22.2158 22.639 19.5529 23.1417 16.2243C23.219 15.7298 23.6637 15.3684 24.1664 15.3684H29.4057C30.0437 15.3494 30.527 15.882 30.469 16.4716Z" fill="black"/>
<path d="M14.8866 8.27391V14.3224C14.8866 14.893 15.3506 15.3495 15.9306 15.3495H22.1559C22.7745 15.3495 23.2579 14.8169 23.1805 14.2083C22.7359 10.5564 20.1452 7.72232 16.0466 7.26583C15.4279 7.18974 14.8866 7.66525 14.8866 8.27391Z" fill="black"/>
<path d="M22.1946 1.06514C22.1946 1.44555 22.4072 1.78792 22.7359 1.97812C25.1526 3.32857 27.1632 5.30669 28.5359 7.68424C28.7292 8.00759 29.0772 8.21682 29.4639 8.21682H29.4832C30.0632 8.21682 30.5465 7.74131 30.5465 7.17069V1.04612C30.5465 0.47551 30.0632 0 29.4832 0H23.2579C22.6779 0.0190204 22.1946 0.47551 22.1946 1.06514Z" fill="black"/>
<path d="M44.4663 21.4929H43.5383C39.9036 21.4929 36.8683 18.6208 36.8877 15.026C36.907 11.5072 39.807 8.65412 43.3836 8.6351C47.0183 8.61608 49.9569 11.6023 49.9569 15.1781V20.7321C49.9569 21.1505 49.6089 21.4929 49.1836 21.4929H47.4243C46.9989 21.4929 46.6509 21.1505 46.6509 20.7321V15.1401C46.6509 13.4282 45.2203 11.9256 43.4803 11.8876C41.6436 11.8495 40.1356 13.3331 40.1743 15.1401C40.213 16.8519 41.7403 18.2594 43.4803 18.2594H44.4469C44.8723 18.2594 45.2203 18.6018 45.2203 19.0202V20.7511C45.2396 21.1505 44.8916 21.4929 44.4663 21.4929Z" fill="black"/>
<path d="M111.92 21.4929H110.973C107.338 21.4929 104.303 18.6208 104.322 15.026C104.342 11.5072 107.242 8.65412 110.818 8.6351C114.453 8.61608 117.391 11.6023 117.391 15.1781V20.7321C117.391 21.1505 117.043 21.4929 116.618 21.4929H114.859C114.434 21.4929 114.086 21.1505 114.086 20.7321V15.1401C114.086 13.4282 112.655 11.9256 110.915 11.8876C109.078 11.8495 107.57 13.3331 107.609 15.1401C107.648 16.8519 109.175 18.2594 110.915 18.2594H111.882C112.307 18.2594 112.655 18.6018 112.655 19.0202V20.7511C112.674 21.1505 112.346 21.4929 111.92 21.4929Z" fill="black"/>
<path d="M63.8386 21.4929H62.0792C61.6539 21.4929 61.3059 21.1506 61.3059 20.7321V15.1401C61.3059 13.3522 59.8173 11.8496 58.0193 11.8876C56.26 11.9257 54.8293 13.3332 54.8293 15.064V20.7321C54.8293 21.1506 54.4813 21.4929 54.056 21.4929H52.2966C51.8713 21.4929 51.5233 21.1506 51.5233 20.7321V15.1782C51.5233 11.6594 54.346 8.71123 57.9226 8.65417C61.5766 8.57809 64.5732 11.4882 64.5732 15.0831V20.7511C64.6119 21.1696 64.2639 21.4929 63.8386 21.4929Z" fill="black"/>
<path d="M96.5306 8.52112C94.5973 8.52112 92.838 9.35802 91.6393 10.6894C90.4406 9.35802 88.7007 8.52112 86.748 8.52112C83.152 8.52112 80.2134 11.5073 80.2134 15.0451V20.6181C80.2134 21.0365 80.5614 21.3789 80.9867 21.3789H82.746C83.1714 21.3789 83.5194 21.0365 83.5194 20.6181V15.0261C83.5194 13.2382 85.008 11.7356 86.806 11.7736C88.5653 11.8116 89.996 13.2192 89.996 14.95V20.6181C89.996 21.0365 90.344 21.3789 90.7693 21.3789H92.5286C92.954 21.3789 93.302 21.0365 93.302 20.6181V15.0261C93.302 13.2382 94.7906 11.7356 96.5886 11.7736C98.3479 11.8116 99.7786 13.2192 99.7786 14.95V20.6181C99.7786 21.0365 100.127 21.3789 100.552 21.3789H102.311C102.737 21.3789 103.085 21.0365 103.085 20.6181V15.0451C103.065 11.5263 100.127 8.52112 96.5306 8.52112Z" fill="black"/>
<path d="M72.4219 21.493C68.826 21.493 65.8873 18.6019 65.8873 15.0642C65.8873 11.5264 68.826 8.63525 72.4219 8.63525C76.0179 8.63525 78.9566 11.5264 78.9566 15.0642C78.9566 18.6019 76.0179 21.493 72.4219 21.493ZM72.4219 11.8877C70.6433 11.8877 69.1933 13.3143 69.1933 15.0642C69.1933 16.814 70.6433 18.2406 72.4219 18.2406C74.2006 18.2406 75.6506 16.814 75.6506 15.0642C75.6506 13.3143 74.2006 11.8877 72.4219 11.8877Z" fill="black"/>
</svg>
