<svg width="128" height="45" viewBox="0 0 128 45" fill="none" xmlns="http://www.w3.org/2000/svg">
<g clip-path="url(#clip0_2534_13)">
<path fill-rule="evenodd" clip-rule="evenodd" d="M19.8647 7.39079L31.6092 19.1353C33.4636 20.9897 33.4636 23.987 31.6092 25.8414L19.8414 37.6092C17.987 39.4636 14.9897 39.4636 13.1353 37.6092L1.39079 25.8647C-0.463598 24.0103 -0.463598 21.013 1.39079 19.1586L13.1586 7.39079C15.013 5.5364 18.0103 5.5364 19.8647 7.39079ZM15.7128 10.3648L15.6661 10.4115L4.41147 21.6661C3.96828 22.1093 3.94496 22.8207 4.36482 23.2989L4.41147 23.3456L15.6544 34.5885C16.0976 35.0317 16.8207 35.055 17.2872 34.6352L17.3339 34.5885L28.5885 23.3339C29.055 22.8674 29.055 22.121 28.5885 21.6544L17.3456 10.4115C16.9024 9.96828 16.1909 9.94496 15.7128 10.3648ZM16.7041 15.3215L23.6668 22.2842C23.7834 22.4009 23.7834 22.5875 23.6668 22.7041L16.6924 29.6785C16.5758 29.7951 16.3892 29.7951 16.2726 29.6785L9.30986 22.7158C9.19323 22.5991 9.19323 22.4125 9.30986 22.2959L16.2842 15.3215C16.4009 15.2049 16.5875 15.2049 16.7041 15.3215Z" fill="#1F774D"/>
<path d="M48.1251 9.80774L38.7115 34.8053H43.1092L45.2205 29.0925H55.9521L58.0985 34.8053H62.5661L53.1409 9.80774H48.1251ZM50.5513 14.7462L54.494 25.1863H46.6669L50.5397 14.7462H50.5513ZM78.9318 31.2509H69.3433L78.8268 19.6965V16.5293H64.2575V20.0836H73.881L64.1175 31.6732V34.8053H78.9318V31.2509ZM83.0845 30.2069C83.0845 33.9372 84.9509 35.0164 88.4153 35.0164C89.4885 35.0164 90.5266 34.9108 91.2849 34.7701V31.2509C90.6666 31.3213 90.2817 31.3565 89.5935 31.3565C88.1004 31.3565 87.1672 31.1806 87.1672 29.55V20.0836H90.9699V16.5293H87.1672V11.1685H83.0845V16.5293H80.5532V20.0836H83.0845V30.2187V30.2069ZM101.737 35.1924C105.376 35.1924 108.245 33.2803 109.529 30.0779L105.959 28.7172C105.411 30.594 103.778 31.638 101.737 31.638C99.0653 31.638 97.1989 29.726 96.884 26.594H109.622V25.198C109.622 20.1892 106.822 16.1774 101.55 16.1774C96.2774 16.1774 92.8946 20.3182 92.8946 25.679C92.8946 31.3213 96.534 35.1806 101.725 35.1806L101.737 35.1924ZM101.527 19.6965C104.163 19.6965 105.399 21.4326 105.434 23.4502H97.0939C97.7122 20.9751 99.3802 19.6965 101.527 19.6965ZM115.758 25.679C115.758 21.9487 117.694 19.7551 120.54 19.7551C122.757 19.7551 124.11 21.2566 124.623 23.2391L128.122 21.327C127.154 18.4061 124.448 16.1774 120.54 16.1774C115.349 16.1774 111.605 20.0367 111.605 25.679C111.605 31.3213 115.349 35.1806 120.54 35.1806C124.483 35.1806 127.259 32.8463 128.192 29.8902L124.623 28.0837C124.11 30.1014 122.757 31.5677 120.54 31.5677C117.706 31.5677 115.758 29.4093 115.758 25.679Z" fill="#1F774D"/>
</g>
<defs>
<clipPath id="clip0_2534_13">
<rect width="128" height="45" fill="white"/>
</clipPath>
</defs>
</svg>
