<svg width="164" height="74" viewBox="0 0 164 74" fill="none" xmlns="http://www.w3.org/2000/svg">
<mask id="mask0_2688_43" style="mask-type:luminance" maskUnits="userSpaceOnUse" x="0" y="12" width="164" height="50">
<path d="M163.953 12H0V62H163.953V12Z" fill="white"/>
</mask>
<g mask="url(#mask0_2688_43)">
<mask id="mask1_2688_43" style="mask-type:luminance" maskUnits="userSpaceOnUse" x="-21" y="-22" width="207" height="117">
<path d="M185.788 -21.7211H-20.9302V94.558H185.788V-21.7211Z" fill="white"/>
</mask>
<g mask="url(#mask1_2688_43)">
<path d="M73.0345 29.1511C73.5604 29.6567 74.2616 29.9391 74.9911 29.9391C75.7206 29.9391 76.4218 29.6567 76.9477 29.1511C77.203 28.8934 77.4045 28.5875 77.5403 28.2512C77.6762 27.9149 77.7437 27.5548 77.739 27.1921C77.7479 26.8293 77.6823 26.4686 77.5462 26.1322C77.4101 25.7958 77.2064 25.4909 76.9477 25.2364C76.6931 24.9753 76.3888 24.7677 76.0528 24.6261C75.7168 24.4844 75.3558 24.4114 74.9911 24.4114C74.6264 24.4114 74.2654 24.4844 73.9294 24.6261C73.5934 24.7677 73.2891 24.9753 73.0345 25.2364C72.7761 25.491 72.5726 25.7959 72.4367 26.1323C72.3009 26.4687 72.2356 26.8294 72.2448 27.1921C72.2398 27.5547 72.307 27.9147 72.4426 28.2511C72.5782 28.5874 72.7794 28.8934 73.0345 29.1511Z" fill="#1F774D"/>
<path d="M72.5533 31.811C72.5061 31.8615 72.4696 31.921 72.446 31.9859C72.4224 32.0509 72.4122 32.1199 72.416 32.1889V47.9819C72.4099 48.0511 72.4189 48.1208 72.4426 48.1861C72.4663 48.2515 72.5041 48.3108 72.5532 48.3599C72.6023 48.409 72.6617 48.4468 72.727 48.4705C72.7923 48.4942 72.862 48.5033 72.9312 48.4971H77.0511C77.1203 48.5033 77.19 48.4942 77.2553 48.4705C77.3206 48.4468 77.3799 48.409 77.4291 48.3599C77.4782 48.3108 77.5159 48.2515 77.5396 48.1861C77.5633 48.1208 77.5724 48.0511 77.5662 47.9819V32.1889C77.5724 32.1197 77.5633 32.05 77.5396 31.9847C77.5159 31.9194 77.4782 31.8601 77.4291 31.8109C77.3799 31.7618 77.3206 31.7241 77.2553 31.7004C77.19 31.6767 77.1203 31.6676 77.0511 31.6738H72.9312C72.8622 31.6699 72.7931 31.68 72.7282 31.7036C72.6632 31.7272 72.6037 31.7638 72.5533 31.811Z" fill="#1F774D"/>
<path fill-rule="evenodd" clip-rule="evenodd" d="M116.237 36.4687C116.894 35.9593 117.707 35.6923 118.538 35.7129C119.348 35.6924 120.139 35.9602 120.77 36.4687C121.389 36.9478 121.779 37.6573 121.938 38.5972H115.002C115.186 37.6584 115.598 36.9489 116.237 36.4687ZM126.263 41.3782C126.424 41.0342 126.504 40.4852 126.504 39.731C126.517 38.274 126.175 36.8357 125.509 35.5401C124.855 34.2526 123.85 33.1763 122.611 32.4353C121.372 31.6944 119.948 31.3189 118.505 31.3524C116.993 31.3425 115.507 31.7347 114.198 32.4888C112.888 33.2428 111.803 34.3316 111.053 35.6434C110.316 36.9905 109.938 38.5042 109.955 40.0394C109.937 41.5784 110.327 43.0946 111.085 44.4338C111.832 45.7537 112.924 46.8456 114.244 47.5927C115.66 48.3821 117.26 48.7848 118.881 48.7603C120.043 48.7713 121.196 48.5517 122.272 48.1143C123.338 47.6642 124.306 47.0109 125.123 46.1909C125.183 46.1395 125.232 46.0766 125.268 46.0058C125.303 45.9351 125.324 45.858 125.329 45.7791C125.331 45.7157 125.32 45.6526 125.296 45.5938C125.272 45.5349 125.237 45.4814 125.192 45.4367L123.408 43.72C123.313 43.6046 123.178 43.5304 123.03 43.5132C122.891 43.5128 122.756 43.5621 122.65 43.6521C122.139 43.9879 121.585 44.253 121.003 44.4403C120.476 44.5808 119.933 44.6503 119.388 44.647C118.244 44.647 117.295 44.4182 116.539 43.9606C115.8 43.4715 115.273 42.7218 115.063 41.8611H125.26C125.764 41.8611 126.097 41.6996 126.255 41.3766" fill="#1F774D"/>
<path fill-rule="evenodd" clip-rule="evenodd" d="M136.381 35.7128C135.55 35.6925 134.738 35.9594 134.081 36.4686C133.435 36.9477 133.023 37.6572 132.846 38.5971H139.78C139.62 37.6583 139.231 36.9488 138.613 36.4686C137.982 35.9601 137.191 35.6923 136.381 35.7128ZM144.348 39.7309C144.348 40.4845 144.267 41.0336 144.107 41.3782C143.945 41.7012 143.622 41.8626 143.112 41.8626H132.915C133.125 42.7232 133.651 43.4729 134.39 43.9621C135.143 44.4186 136.093 44.6474 137.24 44.6485C137.785 44.652 138.328 44.5825 138.855 44.4418C139.438 44.2542 139.992 43.9885 140.504 43.6521C140.61 43.5629 140.744 43.5143 140.882 43.5148C141.03 43.5316 141.166 43.6058 141.26 43.7215L143.044 45.4382C143.09 45.4828 143.125 45.5361 143.149 45.5951C143.172 45.654 143.183 45.7172 143.182 45.7806C143.177 45.8596 143.156 45.9369 143.12 46.0076C143.085 46.0784 143.035 46.1412 142.975 46.1924C142.159 47.0124 141.191 47.6657 140.126 48.1159C139.049 48.5531 137.897 48.7726 136.735 48.7619C135.113 48.7859 133.514 48.3833 132.098 47.5942C130.779 46.8465 129.688 45.7547 128.941 44.4353C128.184 43.0956 127.794 41.5797 127.81 40.0409C127.794 38.5057 128.172 36.992 128.908 35.645C129.658 34.3331 130.743 33.2444 132.053 32.4903C133.362 31.7363 134.849 31.3441 136.36 31.3539C137.803 31.3199 139.227 31.6951 140.467 32.4361C141.706 33.1771 142.711 34.2538 143.364 35.5416C144.032 36.8368 144.374 38.2753 144.36 39.7325" fill="#1F774D"/>
<path fill-rule="evenodd" clip-rule="evenodd" d="M157.275 42.9577C156.565 43.6909 155.661 44.057 154.562 44.0559C153.442 44.0559 152.526 43.6898 151.817 42.9577C151.131 42.2245 150.788 41.2743 150.786 40.1072C150.786 38.9638 151.13 38.0029 151.817 37.2245C152.17 36.8582 152.593 36.5662 153.06 36.3657C153.528 36.1652 154.031 36.0602 154.539 36.0569C155.048 36.0536 155.552 36.1521 156.023 36.3465C156.493 36.5409 156.919 36.8273 157.277 37.189C158.008 37.9426 158.374 38.9154 158.375 40.1072C158.375 41.2754 158.009 42.2256 157.277 42.9577M159.336 32.52C158.093 31.7394 156.651 31.334 155.182 31.3524C153.213 31.3524 151.598 32.1534 150.338 33.7555L150.165 32.2116C150.119 31.8676 149.947 31.6964 149.65 31.6964H146.148C146.079 31.6902 146.009 31.6992 145.944 31.723C145.879 31.7467 145.82 31.7844 145.771 31.8336C145.722 31.8828 145.684 31.9421 145.661 32.0074C145.637 32.0728 145.628 32.1425 145.635 32.2116V54.5275C145.628 54.5967 145.637 54.6666 145.66 54.7321C145.683 54.7976 145.721 54.8572 145.77 54.9065C145.819 54.9559 145.878 54.9938 145.944 55.0176C146.009 55.0414 146.079 55.0505 146.148 55.0443H150.268C150.337 55.0505 150.407 55.0414 150.473 55.0176C150.538 54.9938 150.598 54.9559 150.647 54.9066C150.696 54.8573 150.734 54.7977 150.757 54.7322C150.781 54.6667 150.79 54.5968 150.783 54.5275V47.0097C151.905 48.1757 153.37 48.7593 155.179 48.7604C156.642 48.7797 158.082 48.388 159.333 47.6299C160.572 46.8722 161.582 45.7913 162.253 44.5032C162.965 43.1611 163.331 41.6622 163.317 40.1428C163.336 38.6012 162.97 37.0792 162.253 35.7145C161.597 34.3985 160.585 33.2925 159.333 32.5217" fill="#1F774D"/>
<path d="M90.0193 31.6737C90.0883 31.6698 90.1574 31.68 90.2224 31.7036C90.2873 31.7272 90.3468 31.7637 90.3972 31.811C90.4446 31.861 90.4813 31.9202 90.5049 31.9849C90.5285 32.0496 90.5386 32.1185 90.5345 32.1873V35.3123C90.539 35.3811 90.5288 35.4501 90.5045 35.5147C90.4802 35.5792 90.4424 35.6378 90.3936 35.6866C90.3449 35.7354 90.2862 35.7732 90.2217 35.7975C90.1571 35.8218 90.0882 35.832 90.0193 35.8275H87.2739V47.9819C87.2784 48.0508 87.2681 48.12 87.2437 48.1846C87.2194 48.2493 87.1814 48.308 87.1325 48.3568C87.0835 48.4056 87.0247 48.4434 86.9599 48.4676C86.8952 48.4917 86.826 48.5018 86.7571 48.497H82.6356C82.5664 48.5032 82.4967 48.4941 82.4314 48.4704C82.3661 48.4467 82.3067 48.409 82.2576 48.3599C82.2085 48.3107 82.1707 48.2514 82.147 48.1861C82.1233 48.1208 82.1142 48.0511 82.1204 47.9819V35.8275H79.375C79.3058 35.8314 79.2366 35.8212 79.1716 35.7973C79.1066 35.7734 79.0472 35.7364 78.997 35.6886C78.95 35.6384 78.9135 35.5791 78.8899 35.5145C78.8664 35.4498 78.8561 35.381 78.8598 35.3123V32.1873C78.8538 32.1182 78.8631 32.0487 78.8869 31.9836C78.9107 31.9184 78.9485 31.8593 78.9976 31.8104C79.0467 31.7614 79.106 31.7238 79.1711 31.7002C79.2363 31.6766 79.3059 31.6676 79.375 31.6737H82.1204V27.0371C82.1142 26.9679 82.1233 26.8983 82.147 26.833C82.1707 26.7678 82.2085 26.7086 82.2576 26.6596C82.3068 26.6105 82.3662 26.5729 82.4315 26.5494C82.4968 26.5259 82.5665 26.5171 82.6356 26.5235H86.7554C86.8246 26.5171 86.8944 26.526 86.9598 26.5495C87.0252 26.573 87.0846 26.6105 87.1339 26.6595C87.1832 26.7085 87.2211 26.7677 87.245 26.8329C87.2689 26.8982 87.2782 26.9679 87.2722 27.0371V31.6737H90.0193Z" fill="#1F774D"/>
<path fill-rule="evenodd" clip-rule="evenodd" d="M62.3482 43.7926C63.4011 43.7926 64.2366 43.5525 64.8546 43.0723C65.4726 42.5922 65.7816 41.8708 65.7816 40.9083C65.7816 39.9705 65.4726 39.2841 64.8546 38.8491C64.2366 38.3905 63.4011 38.1617 62.3482 38.1628H58.5029V43.7926H62.3482ZM64.3395 31.3572C64.3395 29.893 63.4351 29.1603 61.6263 29.1592H58.5029V33.7603H61.6263C62.4725 33.7603 63.1379 33.5665 63.6176 33.1773C64.0972 32.7881 64.3411 32.1647 64.3411 31.3637M66.4002 35.6563C67.6872 36.0039 68.8373 36.7364 69.6964 37.7558C70.6323 38.8016 71.1357 40.1641 71.1046 41.5672C71.1046 43.8798 70.3607 45.6197 68.8727 46.7868C67.4085 47.9302 65.1658 48.5025 62.1447 48.5035H53.6951C53.6261 48.5074 53.557 48.4973 53.492 48.4737C53.4271 48.4501 53.3676 48.4135 53.3172 48.3663C53.2699 48.3159 53.2334 48.2564 53.2101 48.1914C53.1867 48.1264 53.177 48.0573 53.1815 47.9884V24.978C53.1751 24.9089 53.1839 24.8392 53.2074 24.7739C53.2309 24.7086 53.2685 24.6492 53.3175 24.6001C53.3666 24.5509 53.4258 24.5131 53.491 24.4894C53.5563 24.4657 53.6259 24.4566 53.6951 24.4628H62.1075C63.6149 24.4628 64.9069 24.7374 65.9835 25.2865C67.0103 25.7696 67.8707 26.5463 68.4561 27.5184C69.0328 28.47 69.3306 29.5646 69.3152 30.6773C69.34 31.7805 69.0413 32.8668 68.4561 33.8023C67.907 34.6938 67.2201 35.3118 66.3953 35.6563" fill="#1F774D"/>
<path d="M111.839 48.3209C111.841 48.2094 111.804 48.1008 111.736 48.0124L102.177 35.1264L111.403 25.1943C111.497 25.1166 111.558 25.0065 111.575 24.8858C111.575 24.8415 111.562 24.7981 111.538 24.7612C111.513 24.7243 111.478 24.6957 111.437 24.6791C111.395 24.6422 111.346 24.6142 111.293 24.5967C111.239 24.5793 111.183 24.5727 111.127 24.5773H106.458C106.347 24.5764 106.237 24.6005 106.136 24.6477C106.035 24.6949 105.946 24.7642 105.875 24.8503L97.0284 34.4385V25.0909C97.0329 25.0221 97.0227 24.9531 96.9984 24.8885C96.9741 24.824 96.9363 24.7654 96.8875 24.7166C96.8388 24.6678 96.7802 24.63 96.7156 24.6057C96.651 24.5814 96.5821 24.5712 96.5132 24.5757H92.3934C92.3242 24.5696 92.2545 24.5786 92.1892 24.6023C92.1238 24.626 92.0645 24.6638 92.0154 24.7129C91.9663 24.762 91.9285 24.8214 91.9048 24.8867C91.8811 24.952 91.872 25.0217 91.8782 25.0909V48.1158C91.872 48.1849 91.8811 48.2546 91.9048 48.3198C91.9285 48.3851 91.9663 48.4443 92.0154 48.4933C92.0646 48.5423 92.1239 48.5799 92.1893 48.6034C92.2546 48.6269 92.3243 48.6358 92.3934 48.6294H96.5132C96.5823 48.6355 96.6519 48.6265 96.717 48.6028C96.7822 48.5792 96.8415 48.5416 96.8906 48.4927C96.9397 48.4437 96.9774 48.3846 97.0013 48.3195C97.0251 48.2544 97.0343 48.1849 97.0284 48.1158V40.6868L99.0536 38.4888L106.381 48.3193C106.448 48.4203 106.54 48.502 106.648 48.5562C106.756 48.6103 106.877 48.635 106.998 48.6277H111.428C111.702 48.6277 111.839 48.526 111.839 48.3193" fill="#1F774D"/>
<path fill-rule="evenodd" clip-rule="evenodd" d="M42.8795 26.1781V28.5263C42.8795 28.7531 42.8199 28.976 42.7065 29.1724C42.5931 29.3689 42.43 29.532 42.2335 29.6455L34.6608 34.0156L41.4228 37.9077C41.865 38.163 42.2321 38.5303 42.4873 38.9726C42.7424 39.4148 42.8766 39.9165 42.8763 40.4271V46.6884C42.8769 47.1993 42.7429 47.7013 42.4877 48.1439C42.2325 48.5865 41.8652 48.954 41.4228 49.2094L23.6434 59.4145C23.2015 59.6697 22.7002 59.804 22.1899 59.804C21.6796 59.804 21.1783 59.6697 20.7364 59.4145L14.9144 56.0537C14.8161 55.997 14.7345 55.9155 14.6778 55.8173C14.621 55.719 14.5911 55.6076 14.5911 55.4941C14.5911 55.3807 14.621 55.2692 14.6778 55.171C14.7345 55.0728 14.8161 54.9912 14.9144 54.9345L34.1327 43.8735C34.1821 43.8452 34.223 43.8044 34.2515 43.7552C34.28 43.706 34.2951 43.6502 34.2951 43.5933C34.2951 43.5364 34.28 43.4806 34.2515 43.4314C34.223 43.3822 34.1821 43.3414 34.1327 43.3131L26.9977 39.1916C26.8013 39.0783 26.5785 39.0186 26.3517 39.0186C26.1249 39.0186 25.9021 39.0783 25.7057 39.1916L6.18054 50.44C6.03323 50.5251 5.86613 50.5699 5.69604 50.5699C5.52595 50.5699 5.35885 50.5251 5.21154 50.44L3.00386 49.1771C2.55915 48.9226 2.18961 48.5551 1.93266 48.1119C1.6757 47.6686 1.54048 47.1653 1.54068 46.6529V44.0834C1.54057 43.9132 1.58529 43.746 1.67035 43.5986C1.7554 43.4512 1.87778 43.3287 2.02518 43.2436L30.0081 27.1616C30.0574 27.1333 30.0984 27.0925 30.1269 27.0433C30.1554 26.9941 30.1704 26.9383 30.1704 26.8814C30.1704 26.8245 30.1554 26.7687 30.1269 26.7195C30.0984 26.6703 30.0574 26.6295 30.0081 26.6012L22.8617 22.4668C22.6653 22.3534 22.4425 22.2937 22.2157 22.2937C21.989 22.2937 21.7662 22.3534 21.5697 22.4668L2.5129 33.4326C2.41463 33.4893 2.30314 33.5192 2.18967 33.5191C2.07619 33.5191 1.96473 33.4892 1.86649 33.4324C1.76826 33.3755 1.68673 33.2939 1.6301 33.1955C1.57347 33.0972 1.54374 32.9857 1.54391 32.8722V26.1474C1.5433 25.6365 1.67733 25.1345 1.9325 24.6919C2.18767 24.2494 2.55497 23.8818 2.9974 23.6264L20.7784 13.4229C21.2203 13.1678 21.7216 13.0334 22.2319 13.0334C22.7422 13.0334 23.2435 13.1678 23.6854 13.4229L41.4244 23.6603C41.8664 23.9155 42.2333 24.2825 42.4885 24.7244C42.7436 25.1664 42.8779 25.6678 42.8779 26.1781" fill="#1F774D"/>
</g>
</g>
</svg>
