<svg width="127" height="40" viewBox="0 0 127 40" fill="none" xmlns="http://www.w3.org/2000/svg">
<path d="M96.2119 34.5599L99.6016 33.4799V4.99988L96.2119 6.07988V34.5599ZM57.1122 17.2799C59.2406 17.2799 61.2114 18.2399 62.4727 19.8399L63.8522 16.5999C62.0391 14.8399 59.6348 13.9999 57.1122 13.9999C51.2788 13.9999 47.2585 18.6799 47.2979 23.8399C47.3373 29.4399 51.673 33.9999 57.1122 33.9999C59.8713 33.9999 61.9603 33.1599 63.5369 31.9999V28.0399C61.8814 29.7199 59.4771 30.7199 57.3881 30.7199C54.2349 30.7199 50.6876 28.1199 50.6876 23.8399C50.6876 19.8799 53.762 17.2799 57.1122 17.2799ZM79.6576 13.9999C73.8242 13.9999 70.4345 18.6799 70.4345 23.8399C70.4345 29.4399 74.8096 33.9999 80.2488 33.9999C83.0079 33.9999 85.0969 33.1599 86.6735 31.9999V28.0399C85.018 29.7199 82.6137 30.7199 80.5247 30.7199C77.7263 30.7199 74.6519 28.9599 74.0213 25.2399H88.8807V23.9199C88.8807 18.3999 85.2939 13.9999 79.6576 13.9999ZM116.274 13.9999C110.835 13.9999 106.42 18.4799 106.42 23.9999C106.42 29.5199 110.835 33.9999 116.274 33.9999C121.713 33.9999 126.128 29.5199 126.128 23.9999C126.128 18.4799 121.713 13.9999 116.274 13.9999ZM79.697 17.2799C82.3378 17.2799 85.1363 18.9599 85.3728 22.1999H74.0213C74.2577 18.9599 77.0562 17.2799 79.697 17.2799ZM116.274 30.7199C114.964 30.7199 113.684 30.3258 112.595 29.5874C111.506 28.849 110.658 27.7995 110.156 26.5716C109.655 25.3436 109.524 23.9925 109.78 22.6889C110.035 21.3854 110.666 20.188 111.592 19.2482C112.518 18.3083 113.698 17.6683 114.982 17.409C116.267 17.1497 117.598 17.2828 118.808 17.7914C120.018 18.3001 121.052 19.1614 121.78 20.2665C122.507 21.3716 122.896 22.6708 122.896 23.9999C122.897 24.8828 122.727 25.7573 122.395 26.5733C122.062 27.3893 121.575 28.1307 120.96 28.755C120.344 29.3793 119.614 29.8742 118.81 30.2114C118.006 30.5486 117.144 30.7214 116.274 30.7199V30.7199Z" fill="black"/>
<path d="M14.7806 34.9999C20.767 34.9999 25.6197 30.0751 25.6197 23.9999C25.6197 17.9247 20.767 12.9999 14.7806 12.9999C8.79427 12.9999 3.9415 17.9247 3.9415 23.9999C3.9415 30.0751 8.79427 34.9999 14.7806 34.9999ZM14.7806 38.9999C6.61777 38.9999 0 32.2839 0 23.9999C0 15.7159 6.61777 8.99988 14.7806 8.99988C22.9435 8.99988 29.5612 15.7159 29.5612 23.9999C29.5612 32.2839 22.9435 38.9999 14.7806 38.9999Z" fill="black"/>
<path d="M22.6636 27.0001C28.6499 27.0001 33.5027 22.0752 33.5027 16C33.5027 9.92482 28.6499 5.00001 22.6636 5.00001C16.6773 5.00001 11.8245 9.92482 11.8245 16C11.8245 22.0752 16.6773 27.0001 22.6636 27.0001ZM22.6636 31.0001C14.5008 31.0001 7.883 24.284 7.883 16C7.883 7.71601 14.5008 1 22.6636 1C30.8264 1 37.4442 7.71601 37.4442 16C37.4442 24.284 30.8264 31.0001 22.6636 31.0001Z" fill="black"/>
<path d="M23.1484 30.992C24.1728 29.7324 24.907 28.2564 25.2973 26.672C26.8586 26.2759 28.3129 25.531 29.5542 24.4916C29.4976 26.3261 29.1082 28.1343 28.4056 29.8256C26.7389 30.539 24.9568 30.9344 23.1488 30.992H23.1484ZM12.1473 13.3271C10.5861 13.7232 9.13177 14.4682 7.8905 15.5075C7.9471 13.673 8.33646 11.8648 9.03906 10.1735C10.7058 9.46041 12.4879 9.06527 14.2958 9.00793C13.2718 10.2674 12.5377 11.743 12.1473 13.3271V13.3271Z" fill="black"/>
</svg>
