<svg width="195" height="44" viewBox="0 0 195 44" fill="none" xmlns="http://www.w3.org/2000/svg">
<path d="M20.2318 43.8488C20.19 43.8488 20.1564 43.8829 20.1568 43.9248C20.1568 43.9667 20.1908 44.0004 20.2327 44C20.2741 44 20.3073 43.9663 20.3077 43.9248C20.3077 43.8829 20.2737 43.8488 20.2318 43.8488ZM18.1303 43.1192C18.0475 43.1184 17.9802 43.1849 17.9794 43.2679C17.9794 43.2687 17.9794 43.2691 17.9794 43.27C17.979 43.3538 18.0462 43.4219 18.1299 43.4224C18.2136 43.4228 18.2817 43.3554 18.2821 43.2716C18.2825 43.1878 18.2152 43.1196 18.1315 43.1192H18.1303ZM16.1092 42.1711C15.9837 42.1764 15.8865 42.2824 15.8918 42.4081C15.8967 42.526 15.9911 42.6209 16.1092 42.6258C16.2347 42.6311 16.3406 42.5338 16.3459 42.4081C16.3512 42.2824 16.254 42.1764 16.1285 42.1711C16.1219 42.1711 16.1158 42.1711 16.1092 42.1711ZM14.191 41.0142C14.0237 41.015 13.8883 41.1514 13.8891 41.319C13.89 41.4866 14.0261 41.6222 14.1935 41.6214C14.3605 41.6206 14.4954 41.485 14.4954 41.3178C14.4954 41.1502 14.3605 41.0146 14.1931 41.0142C14.1923 41.0142 14.1919 41.0142 14.191 41.0142ZM12.398 39.6631C12.1888 39.6631 12.019 39.8328 12.0186 40.0423C12.0186 40.2518 12.188 40.4218 12.3972 40.4223C12.6064 40.4223 12.7762 40.2526 12.7766 40.0431V40.0423C12.7766 39.8328 12.6072 39.6631 12.398 39.6631ZM10.7477 38.1271C10.4967 38.1279 10.2936 38.3321 10.2944 38.5835C10.2953 38.8349 10.4991 39.0383 10.7502 39.0374C11.0004 39.0366 11.2026 38.8341 11.2035 38.5835C11.2043 38.3325 11.0016 38.1279 10.751 38.1271C10.7498 38.1271 10.749 38.1271 10.7477 38.1271ZM9.2607 36.4276C8.96781 36.4292 8.73153 36.6683 8.73317 36.9616C8.73481 37.255 8.97355 37.4916 9.26644 37.4899C9.5581 37.4883 9.79398 37.2508 9.79398 36.9588C9.79398 36.6655 9.55646 36.4276 9.26357 36.4276C9.26275 36.4276 9.26152 36.4276 9.2607 36.4276ZM7.95458 34.5761C7.61944 34.5761 7.34747 34.8485 7.34747 35.1841C7.34747 35.5197 7.61944 35.7921 7.95458 35.7921C8.28973 35.7921 8.5617 35.5197 8.5617 35.1841C8.5617 34.8485 8.29055 34.5765 7.9554 34.5761H7.95458ZM7.56611 33.2582C7.56611 32.8807 7.2605 32.5747 6.88352 32.5747C6.50653 32.5747 6.20092 32.8807 6.20092 33.2582C6.20092 33.6358 6.50612 33.9414 6.88311 33.9418C7.25968 33.941 7.56529 33.6354 7.56611 33.2582ZM6.83429 31.2079C6.83429 30.7885 6.49505 30.4483 6.07622 30.4479C5.65739 30.4479 5.31774 30.7877 5.31733 31.2071C5.31733 31.6261 5.65616 31.9663 6.07458 31.9671C6.49382 31.9675 6.83388 31.6278 6.83429 31.2079ZM6.37773 29.0697C6.37773 28.6084 6.00402 28.2341 5.54335 28.2341C5.08268 28.2341 4.70898 28.6084 4.70898 29.0697C4.70898 29.531 5.08268 29.9053 5.54335 29.9053C6.00402 29.9053 6.37732 29.531 6.37773 29.0697ZM6.20585 26.8826C6.20667 26.3793 5.79974 25.971 5.29722 25.9702C4.79471 25.9693 4.38696 26.3769 4.38614 26.8801C4.38532 27.3833 4.79225 27.7917 5.29476 27.7925H5.2964C5.79809 27.7933 6.20503 27.3866 6.20585 26.8842C6.20585 26.8838 6.20585 26.883 6.20585 26.8826ZM5.3362 25.6641C5.87973 25.6641 6.32071 25.2225 6.32071 24.6782C6.32071 24.1339 5.87973 23.6923 5.3362 23.6923C4.79266 23.6923 4.35168 24.1339 4.35168 24.6782C4.35168 25.2225 4.79266 25.6641 5.3362 25.6641Z" fill="#1F774D"/>
<path d="M4.58385 22.6377C4.58426 23.2171 5.05522 23.6862 5.63589 23.6858C6.21657 23.6854 6.68672 23.2155 6.68632 22.636C6.68591 22.057 6.21495 21.5875 5.63468 21.5879C5.05481 21.5875 4.58426 22.0562 4.58385 22.6348C4.58385 22.6356 4.58385 22.6369 4.58385 22.6377ZM36.135 38.7029C36.0981 38.7029 36.0684 38.7321 36.068 38.769C36.068 38.8059 36.0973 38.8355 36.1342 38.8359C36.1712 38.8359 36.2009 38.8067 36.2013 38.7698C36.2013 38.7698 36.2013 38.7694 36.2013 38.769C36.2005 38.7329 36.1712 38.7037 36.135 38.7029ZM34.2045 39.648C34.1317 39.6468 34.0716 39.7048 34.0704 39.7778C34.0704 39.7782 34.0704 39.779 34.0704 39.7794C34.0663 39.8528 34.1228 39.9161 34.1963 39.9201C34.2699 39.9242 34.3333 39.8678 34.3373 39.7944C34.3373 39.7896 34.3373 39.7847 34.3373 39.7798C34.3369 39.7068 34.2776 39.648 34.2045 39.6484V39.648ZM32.1788 40.386C32.0687 40.386 31.9793 40.4752 31.9793 40.5851C31.9793 40.695 32.0687 40.7842 32.1788 40.7842C32.2889 40.7842 32.3783 40.695 32.3783 40.5851C32.3783 40.4752 32.2889 40.386 32.1788 40.386ZM30.0792 40.9067C29.9325 40.9123 29.8183 41.0356 29.824 41.182C29.8293 41.3203 29.9406 41.4314 30.0792 41.4366C30.2259 41.4423 30.3494 41.3284 30.3551 41.182C30.3608 41.0356 30.2466 40.9123 30.0999 40.9067C30.093 40.9067 30.0861 40.9067 30.0792 40.9067ZM27.9304 41.2023C27.7467 41.2006 27.5964 41.3474 27.5947 41.5307C27.5931 41.714 27.7402 41.864 27.9239 41.8656C28.1076 41.8672 28.2579 41.7205 28.2595 41.5372C28.2595 41.536 28.2595 41.5343 28.2595 41.5331C28.2587 41.3515 28.1124 41.2043 27.9304 41.2023ZM25.7548 41.2712C25.535 41.2712 25.3566 41.4492 25.3566 41.6686C25.3566 41.8879 25.535 42.0659 25.7548 42.0659C25.9746 42.0659 26.1526 41.8883 26.153 41.6694C26.1542 41.4504 25.9775 41.2724 25.758 41.2712C25.7568 41.2712 25.756 41.2712 25.7548 41.2712ZM23.5747 41.1122C23.3183 41.113 23.1107 41.3211 23.1115 41.5769C23.1123 41.8328 23.3207 42.04 23.5771 42.0392C23.8336 42.0384 24.0408 41.8308 24.0404 41.5749C24.0404 41.3194 23.8327 41.1122 23.5767 41.1122C23.5759 41.1122 23.5755 41.1122 23.5747 41.1122ZM21.421 40.7197C21.1277 40.7197 20.8899 40.9569 20.8899 41.2497C20.8899 41.5425 21.1277 41.7797 21.421 41.7797C21.7144 41.7797 21.9521 41.5425 21.9521 41.2497C21.9521 41.2489 21.9521 41.2477 21.9521 41.2469C21.9509 40.9549 21.7136 40.7193 21.421 40.7197ZM19.3235 40.058C18.9939 40.0584 18.7273 40.3252 18.7277 40.654C18.7281 40.9829 18.9955 41.2489 19.3251 41.2485C19.6546 41.2481 19.9212 40.9813 19.9208 40.6524C19.92 40.324 19.6526 40.058 19.3235 40.058ZM17.3242 39.1262C16.9577 39.1254 16.6602 39.4214 16.6594 39.7871C16.6586 40.1529 16.9552 40.4497 17.3218 40.4505C17.6883 40.4513 17.9857 40.1553 17.9866 39.7896C17.9866 39.7892 17.9866 39.7883 17.9866 39.7879C17.9866 39.4226 17.6903 39.1266 17.3242 39.1262ZM16.1852 38.6664C16.1852 38.2633 15.8577 37.9365 15.4538 37.9365C15.0499 37.9365 14.7223 38.2633 14.7223 38.6664C14.7223 39.0694 15.0499 39.3962 15.4538 39.3962C15.8565 39.3975 16.184 39.0731 16.1852 38.6712C16.1852 38.6696 16.1852 38.668 16.1852 38.6664ZM13.7516 36.5177C13.3123 36.5173 12.9555 36.8725 12.9551 37.3108C12.9547 37.7492 13.3107 38.1052 13.7499 38.1056C14.1892 38.106 14.546 37.7508 14.5464 37.3125V37.3112C14.5452 36.8737 14.19 36.5193 13.7516 36.5177ZM12.2375 34.884C11.7604 34.8832 11.3736 35.2684 11.3728 35.7445C11.372 36.2205 11.758 36.6065 12.2351 36.6073C12.7121 36.6081 13.099 36.2229 13.0998 35.7469C13.0998 35.7465 13.0998 35.7457 13.0998 35.7453C13.0998 35.2701 12.7137 34.8844 12.2375 34.884ZM10.9433 34.9238C11.4565 34.9242 11.873 34.5094 11.8734 33.9972C11.8738 33.4851 11.4581 33.0695 10.9449 33.0691C10.4317 33.0687 10.0152 33.4835 10.0147 33.9956C10.0135 34.5069 10.4276 34.9226 10.9396 34.9238C10.9408 34.9238 10.942 34.9238 10.9433 34.9238ZM10.8803 32.0943C10.8799 31.5465 10.4341 31.1025 9.88512 31.1029C9.33614 31.1033 8.89118 31.5481 8.89159 32.0959C8.89199 32.6433 9.33695 33.0869 9.88552 33.0873C10.4349 33.0873 10.8803 32.6425 10.8803 32.0943ZM43.9411 23.8237C43.9086 23.8237 43.8817 23.8492 43.8805 23.8817C43.8809 23.9149 43.9077 23.9417 43.9411 23.9425C43.974 23.9421 44.0004 23.9149 44 23.8821C44 23.8821 44 23.8821 44 23.8817C44 23.8496 43.974 23.8237 43.9419 23.8237C43.9419 23.8237 43.9415 23.8237 43.9411 23.8237ZM43.2929 25.8418C43.2275 25.8414 43.1743 25.8937 43.1739 25.959C43.1735 26.0243 43.2259 26.0774 43.2913 26.0778C43.3567 26.0782 43.41 26.0259 43.4104 25.9606V25.9594C43.4104 25.8945 43.3584 25.8422 43.2933 25.8418H43.2929ZM42.4294 27.7788C42.3307 27.7796 42.2511 27.8599 42.2519 27.9584C42.2527 28.0569 42.3331 28.1364 42.4319 28.1356C42.5302 28.1348 42.6099 28.0549 42.6095 27.9568C42.6095 27.8582 42.529 27.7784 42.4303 27.7788C42.4303 27.7788 42.4298 27.7788 42.4294 27.7788ZM41.3607 29.6176C41.2299 29.618 41.1242 29.7243 41.1246 29.8548C41.125 29.9854 41.2315 30.0908 41.3624 30.0904C41.4932 30.09 41.5989 29.9842 41.5984 29.8536C41.5984 29.7231 41.492 29.6172 41.3611 29.6176H41.3607ZM40.0982 31.3304C39.934 31.3316 39.8024 31.4654 39.8036 31.6292C39.8048 31.793 39.9389 31.9244 40.1031 31.9232C40.266 31.922 40.3973 31.7902 40.3977 31.6276C40.3977 31.4634 40.2636 31.33 40.099 31.3304C40.099 31.3304 40.0986 31.3304 40.0982 31.3304ZM38.6548 32.9012C38.4578 32.9012 38.2981 33.0602 38.2977 33.2568C38.2972 33.4535 38.4569 33.6128 38.654 33.6133C38.8511 33.6137 39.0108 33.4543 39.0112 33.2576C39.0112 33.061 38.8519 32.9016 38.6552 32.9012H38.6548ZM37.0481 34.3143C36.8185 34.3151 36.6332 34.5017 36.634 34.7308C36.6349 34.9599 36.8218 35.1448 37.0514 35.1439C37.281 35.1431 37.4663 34.957 37.4654 34.7279C37.4654 34.4996 37.2806 34.3147 37.0518 34.3143C37.0506 34.3143 37.0493 34.3143 37.0481 34.3143ZM35.2939 35.5438C35.031 35.5425 34.8168 35.7538 34.8156 36.0161C34.8144 36.2785 35.0261 36.4922 35.289 36.4934C35.5519 36.4946 35.7661 36.2834 35.7673 36.021C35.7673 36.0206 35.7673 36.0198 35.7673 36.0194C35.7669 35.7583 35.5556 35.5458 35.2939 35.5438ZM33.3901 36.5433C33.0947 36.5425 32.8546 36.7813 32.8538 37.0761C32.8529 37.3709 33.0923 37.6105 33.3877 37.6113C33.6831 37.6121 33.9233 37.3733 33.9241 37.0785V37.0765C33.9229 36.7825 33.6847 36.5445 33.3901 36.5433ZM31.3612 37.2829C31.0325 37.2817 30.7651 37.5468 30.7639 37.8749C30.7627 38.2029 31.0284 38.4697 31.3572 38.4709C31.6859 38.4721 31.9533 38.207 31.9545 37.8789C31.9545 37.8777 31.9545 37.8769 31.9545 37.8757C31.9545 37.5489 31.6887 37.2837 31.3612 37.2829ZM29.2462 37.7504C28.8849 37.7496 28.5915 38.0415 28.5907 38.402C28.5899 38.7625 28.8825 39.0552 29.2437 39.056C29.605 39.0569 29.8984 38.7649 29.8992 38.4044C29.8992 38.044 29.607 37.7516 29.2462 37.7504ZM27.0799 37.9345C26.6861 37.9345 26.3668 38.2528 26.3663 38.6457C26.3663 39.0386 26.6853 39.3573 27.0791 39.3577C27.4724 39.3577 27.7918 39.0402 27.7926 38.6477C27.793 38.2544 27.4741 37.9353 27.0799 37.9345ZM25.6727 38.6072C25.6727 38.1818 25.3269 37.8368 24.9006 37.8368C24.4744 37.8368 24.1286 38.1818 24.1286 38.6072C24.1286 39.0325 24.4744 39.3776 24.9006 39.3776C25.3265 39.3764 25.6715 39.0321 25.6727 38.6072ZM23.5776 38.2848C23.5776 37.8262 23.2057 37.4548 22.7462 37.4544C22.2866 37.4544 21.9144 37.8254 21.9139 38.284C21.9139 38.7422 22.2858 39.114 22.7449 39.1144C23.2041 39.1152 23.5767 38.7442 23.5776 38.286V38.2848ZM21.5429 37.6831C21.5429 37.1904 21.1427 36.791 20.649 36.791C20.1553 36.791 19.755 37.1904 19.755 37.6831C19.755 38.1757 20.1553 38.5751 20.649 38.5751C21.1415 38.5764 21.5417 38.1786 21.5429 37.6871C21.5429 37.6859 21.5429 37.6843 21.5429 37.6831ZM19.601 36.8145C19.601 36.2907 19.1751 35.8661 18.6501 35.8665C18.1251 35.8665 17.6997 36.2915 17.7001 36.8153C17.7001 37.3392 18.1259 37.7638 18.6509 37.7634C19.1751 37.7634 19.6002 37.3396 19.6006 36.8166C19.6006 36.8158 19.6006 36.8153 19.6006 36.8145H19.601ZM38.9104 7.90691C38.9429 7.90974 38.9718 7.88542 38.9746 7.85298C38.9775 7.82054 38.9531 7.79175 38.9206 7.78891C38.9173 7.78891 38.9141 7.78891 38.9108 7.78891C38.8783 7.79175 38.854 7.82013 38.8568 7.85298C38.8592 7.88177 38.882 7.90488 38.9108 7.90691H38.9104ZM39.9263 9.89377C39.9921 9.89377 40.0454 9.84065 40.0454 9.77496C40.0454 9.70927 39.9921 9.65616 39.9263 9.65616C39.8605 9.65616 39.8077 9.70927 39.8073 9.77456C39.8064 9.83943 39.8585 9.89296 39.9235 9.89377C39.9243 9.89377 39.9255 9.89377 39.9263 9.89377ZM40.7301 11.9743C40.8284 11.9743 40.9081 11.8952 40.9085 11.7971C40.9085 11.699 40.8292 11.6195 40.7309 11.6191C40.6326 11.6187 40.5529 11.6982 40.5525 11.7963C40.5525 11.8944 40.6317 11.9739 40.7297 11.9743H40.7301ZM41.3193 14.1282C41.4509 14.1286 41.5578 14.0228 41.5582 13.8914C41.5586 13.76 41.4526 13.6534 41.3209 13.653C41.1893 13.6526 41.0824 13.7584 41.082 13.8898C41.082 13.8902 41.082 13.891 41.082 13.8914C41.082 14.022 41.1876 14.1278 41.3185 14.1282H41.3193ZM41.3851 16.0368C41.3859 16.2006 41.5192 16.3328 41.6834 16.332C41.8475 16.3312 41.98 16.1982 41.9792 16.0344C41.9784 15.871 41.8451 15.7388 41.6813 15.7392C41.5172 15.74 41.3847 15.873 41.3851 16.0368ZM41.8171 17.8509C41.6204 17.8514 41.4611 18.0111 41.4615 18.2074C41.4619 18.4036 41.622 18.5626 41.8187 18.5622C42.015 18.5618 42.1738 18.4032 42.1743 18.2074C42.1743 18.0107 42.0141 17.8509 41.8171 17.8509ZM41.7224 19.9651C41.492 19.9651 41.3055 20.1517 41.3059 20.3816C41.3059 20.6115 41.4928 20.7976 41.7232 20.7972C41.9536 20.7972 42.1401 20.6107 42.1397 20.3808C42.1401 20.1517 41.9544 19.9655 41.7252 19.9651C41.7244 19.9651 41.7232 19.9651 41.7224 19.9651ZM41.3969 22.0582C41.1344 22.059 40.9219 22.2719 40.9227 22.5339C40.9235 22.7958 41.1368 23.0079 41.3993 23.0071C41.6614 23.0062 41.8736 22.7942 41.8736 22.5326C41.874 22.2711 41.6618 22.0586 41.3997 22.0582C41.3989 22.0582 41.3977 22.0582 41.3969 22.0582ZM41.3343 24.6241C41.3343 24.3293 41.0942 24.0901 40.7988 24.0905C40.5033 24.0905 40.2636 24.3301 40.264 24.6249C40.264 24.9197 40.5041 25.159 40.7996 25.1585H40.8004C41.095 25.159 41.3339 24.9213 41.3343 24.6274C41.3343 24.6261 41.3343 24.6253 41.3343 24.6241ZM39.9316 26.0275C39.6037 26.0275 39.3375 26.2931 39.3375 26.6203C39.3375 26.9475 39.6037 27.2131 39.9316 27.2131C40.2595 27.2131 40.5257 26.9475 40.5257 26.6203C40.5261 26.2935 40.2607 26.0279 39.9332 26.0275H39.9316ZM38.8092 27.8335C38.4484 27.8339 38.1567 28.1259 38.1571 28.4859C38.1575 28.846 38.45 29.1371 38.8109 29.1367C39.1713 29.1363 39.4631 28.8448 39.4631 28.4851C39.4631 28.1255 39.1709 27.8335 38.8101 27.8335H38.8092ZM37.4504 29.4749C37.0567 29.4749 36.7377 29.7928 36.7373 30.1857C36.7369 30.5786 37.0558 30.8969 37.4496 30.8973C37.8433 30.8977 38.1623 30.5794 38.1627 30.1865V30.1849C38.1627 29.7928 37.8442 29.4749 37.4512 29.4749H37.4504ZM35.8815 30.9237C35.4552 30.9237 35.1094 31.2688 35.1094 31.6941C35.1094 32.1195 35.4552 32.4645 35.8815 32.4645C36.3077 32.4645 36.6536 32.1195 36.6536 31.6941C36.6536 31.2688 36.3077 30.9237 35.8815 30.9237ZM34.1293 32.1572C33.6701 32.1572 33.2979 32.529 33.2983 32.9872C33.2983 33.4454 33.6709 33.8168 34.1301 33.8164C34.5885 33.8164 34.9603 33.4454 34.9611 32.988C34.9615 32.5294 34.5897 32.1576 34.1301 32.1572H34.1293ZM32.2227 33.1506C31.7302 33.1502 31.3303 33.5484 31.3299 34.0398C31.3295 34.5313 31.7286 34.9303 32.2211 34.9307C32.7132 34.9311 33.1126 34.5337 33.1138 34.0427C33.115 33.5512 32.7172 33.1518 32.2247 33.1506C32.2239 33.1506 32.2235 33.1506 32.2227 33.1506ZM30.1938 33.889C29.6688 33.8894 29.2433 34.3147 29.2437 34.8386C29.2441 35.3625 29.6704 35.787 30.1954 35.7866C30.7204 35.7862 31.1459 35.3613 31.1455 34.8374C31.145 34.3131 30.7192 33.8886 30.1938 33.889ZM23.9941 0.118405C24.027 0.118 24.053 0.0912382 24.0526 0.0583941C24.0522 0.0255501 24.0254 -0.000400795 23.9924 4.68754e-06C23.9603 0.00041017 23.9343 0.0267665 23.9339 0.0587996C23.9339 0.0916436 23.9607 0.118405 23.9937 0.118405C23.9937 0.118405 23.9937 0.118405 23.9941 0.118405ZM26.0754 0.824755C26.1412 0.82435 26.1941 0.770826 26.1936 0.705138C26.1932 0.63945 26.1396 0.586737 26.0738 0.587143C26.0079 0.587548 25.9559 0.640261 25.9555 0.705544C25.9555 0.771232 26.0084 0.82435 26.0742 0.824755C26.0746 0.824755 26.075 0.824755 26.0754 0.824755ZM28.0779 1.74358C28.1762 1.74358 28.2563 1.66329 28.2559 1.56517C28.2559 1.46704 28.1754 1.38716 28.0771 1.38756C27.9788 1.38797 27.8987 1.46785 27.8991 1.56598C27.8995 1.6641 27.9796 1.74358 28.0779 1.74317V1.74358ZM29.978 2.87041C30.1093 2.87001 30.2153 2.76337 30.2149 2.63239C30.2145 2.50142 30.1076 2.39559 29.9764 2.396C29.8455 2.3964 29.7395 2.50264 29.7395 2.63321C29.7395 2.76418 29.8451 2.87001 29.9764 2.87041C29.9768 2.87041 29.9776 2.87041 29.978 2.87041ZM31.7542 4.18823C31.9179 4.18823 32.0504 4.05604 32.0504 3.89263C32.0504 3.72922 31.9179 3.59704 31.7542 3.59704C31.5904 3.59704 31.4579 3.72922 31.4579 3.89263C31.4575 4.05564 31.5892 4.18782 31.7525 4.18823C31.7529 4.18823 31.7538 4.18823 31.7542 4.18823ZM33.3877 5.68892C33.5848 5.69014 33.7457 5.53119 33.7469 5.33453C33.7481 5.13787 33.5888 4.9773 33.3918 4.97608C33.1947 4.97486 33.0338 5.13381 33.0326 5.33047C33.0326 5.33088 33.0326 5.33169 33.0326 5.33209C33.0326 5.52835 33.191 5.6877 33.3877 5.68892ZM34.8632 7.3514C35.0932 7.35099 35.2793 7.16447 35.2789 6.93497C35.2785 6.70546 35.0915 6.51975 34.8615 6.52016C34.6315 6.52056 34.4454 6.70708 34.4458 6.93659C34.4458 6.93659 34.4458 6.9374 34.4458 6.9378C34.4467 7.1669 34.6336 7.35221 34.8632 7.3514ZM36.157 9.1639C36.4199 9.1639 36.6328 8.95102 36.6324 8.68867C36.632 8.42633 36.4191 8.21386 36.1562 8.21426C35.8937 8.21426 35.6812 8.42673 35.6807 8.68867C35.6803 8.95062 35.8929 9.1635 36.1554 9.1639C36.1558 9.1639 36.1566 9.1639 36.157 9.1639ZM37.2172 11.122C37.5122 11.1208 37.7507 10.8811 37.7495 10.5867C37.7483 10.2924 37.5081 10.0543 37.2131 10.0556C36.9189 10.0568 36.6808 10.2952 36.6808 10.5888C36.6812 10.8836 36.9213 11.1224 37.2168 11.122C37.2168 11.122 37.2168 11.122 37.2172 11.122ZM37.4232 12.6105C37.4224 12.9381 37.6877 13.2045 38.0161 13.2053C38.3444 13.2062 38.6114 12.9414 38.6122 12.6137C38.613 12.2861 38.3476 12.0197 38.0193 12.0189C38.0193 12.0189 38.0185 12.0189 38.0181 12.0189C37.6906 12.0177 37.4244 12.2817 37.4232 12.6085C37.4232 12.6093 37.4232 12.6097 37.4232 12.6105ZM37.8913 14.7239C37.8921 15.0843 38.1851 15.3759 38.5463 15.3751C38.9076 15.3743 39.1998 15.0819 39.1989 14.7214C39.1981 14.3618 38.906 14.0706 38.5455 14.0702C38.1855 14.069 37.8925 14.3597 37.8913 14.719C37.8913 14.7206 37.8913 14.7222 37.8913 14.7239ZM38.0754 16.8847C38.0754 17.278 38.3956 17.5971 38.7897 17.5967C39.1839 17.5967 39.5037 17.2772 39.5033 16.8839C39.5033 16.4906 39.1831 16.1714 38.7889 16.1718H38.7885C38.3948 16.1718 38.0754 16.4906 38.0754 16.8835V16.8847ZM39.5204 19.0577C39.5204 18.6323 39.1746 18.2872 38.7483 18.2872C38.322 18.2872 37.9762 18.6323 37.9762 19.0577C37.9762 19.483 38.322 19.8281 38.7483 19.8281C39.1746 19.8281 39.5204 19.483 39.5204 19.0577ZM39.2562 21.2096C39.2562 20.751 38.8836 20.3795 38.424 20.3799C37.9644 20.3799 37.5922 20.7518 37.5926 21.2104C37.5926 21.669 37.9653 22.0404 38.4248 22.04C38.4248 22.04 38.4257 22.04 38.4261 22.04C38.8852 22.0392 39.2566 21.6678 39.2562 21.2096ZM38.7158 23.3002C38.7158 22.8088 38.3168 22.4106 37.8243 22.4106C37.3318 22.4106 36.9327 22.8088 36.9327 23.3002C36.9327 23.7905 37.3305 24.1886 37.8218 24.1898C38.3143 24.1911 38.7146 23.7933 38.7158 23.3018C38.7158 23.3014 38.7158 23.3006 38.7158 23.3002ZM36.953 24.3451C36.4276 24.346 36.0026 24.7717 36.0034 25.296C36.0042 25.8203 36.4309 26.2444 36.9563 26.2436C37.4809 26.2428 37.9059 25.8179 37.9059 25.2944C37.9059 24.7701 37.4793 24.3447 36.9538 24.3451H36.953ZM7.92609 5.13584C7.9586 5.13584 7.98502 5.10948 7.98502 5.07705C7.98502 5.04461 7.9586 5.01825 7.92609 5.01744C7.89318 5.01744 7.86636 5.0442 7.86636 5.07705C7.86636 5.10948 7.89196 5.13544 7.92447 5.13584C7.92488 5.13584 7.92569 5.13584 7.92609 5.13584ZM9.85505 4.18377C9.92047 4.18336 9.97289 4.13025 9.97248 4.06496C9.97208 3.99968 9.91885 3.94737 9.85342 3.94778C9.788 3.94818 9.73558 4.0013 9.73599 4.06658C9.73639 4.13187 9.78963 4.18417 9.85505 4.18377ZM11.8807 3.44011C11.9799 3.44093 12.0607 3.36186 12.0615 3.26292C12.0624 3.16398 11.9831 3.08329 11.884 3.08248C11.7848 3.08167 11.7039 3.16074 11.7031 3.25968C11.7031 3.26049 11.7031 3.2617 11.7031 3.26251C11.7031 3.36064 11.7824 3.43971 11.8807 3.44011ZM13.9799 2.91218C14.1112 2.91137 14.2172 2.80472 14.2164 2.67375C14.2156 2.54278 14.1087 2.43695 13.9775 2.43776C13.8462 2.43857 13.7402 2.54522 13.741 2.67619C13.741 2.80635 13.8462 2.91177 13.9767 2.91218C13.9779 2.91218 13.9787 2.91218 13.9799 2.91218ZM16.1295 2.60847C16.2937 2.60807 16.4262 2.47507 16.4258 2.31125C16.4254 2.14744 16.2921 2.01525 16.1279 2.01566C15.9645 2.01606 15.8321 2.14825 15.8317 2.31125C15.8309 2.47466 15.9625 2.60766 16.1263 2.60847C16.1275 2.60847 16.1283 2.60847 16.1295 2.60847ZM18.3055 2.53346C18.5026 2.53305 18.6619 2.37329 18.6615 2.17663C18.6611 1.97997 18.501 1.82102 18.3039 1.82143C18.1068 1.82184 17.9475 1.9816 17.948 2.17825C17.9471 2.3737 18.1056 2.53265 18.3015 2.53346C18.3027 2.53346 18.3043 2.53346 18.3055 2.53346ZM20.4836 2.68551C20.7132 2.68592 20.8997 2.50061 20.9001 2.27152C20.9005 2.04242 20.7148 1.8563 20.4852 1.8559C20.2556 1.85549 20.0691 2.0408 20.0687 2.26989C20.0687 2.26989 20.0687 2.2703 20.0687 2.2707C20.0675 2.49859 20.252 2.6843 20.4803 2.68551C20.4816 2.68551 20.4824 2.68551 20.4836 2.68551ZM22.6401 3.07072C22.9026 3.07072 23.1155 2.85825 23.1155 2.59631C23.1155 2.33436 22.9026 2.12189 22.6401 2.12189C22.378 2.12189 22.1655 2.33355 22.1647 2.59509C22.1634 2.85663 22.3743 3.0695 22.6364 3.07072C22.6377 3.07072 22.6389 3.07072 22.6401 3.07072ZM24.7365 3.72639C25.0319 3.72639 25.2712 3.48796 25.2716 3.19318C25.272 2.89839 25.0327 2.65956 24.7373 2.65916C24.4419 2.65875 24.2025 2.89758 24.2021 3.19237C24.2033 3.48634 24.4419 3.72476 24.7365 3.72639ZM26.7361 4.65129C27.0645 4.65251 27.3314 4.38773 27.3327 4.0601C27.3339 3.73247 27.0685 3.46607 26.7402 3.46485C26.4119 3.46363 26.1449 3.72841 26.1437 4.05604C26.1437 4.05685 26.1437 4.05726 26.1437 4.05807C26.1429 4.38489 26.4082 4.65048 26.7357 4.65129C26.7357 4.65129 26.7357 4.65129 26.7361 4.65129ZM27.9511 5.17842C27.9507 5.53848 28.2429 5.83084 28.6037 5.83124C28.9646 5.83165 29.2575 5.54011 29.2579 5.18004C29.2584 4.81997 28.9662 4.52762 28.6053 4.52721C28.6053 4.52721 28.6049 4.52721 28.6045 4.52721C28.2437 4.52721 27.9515 4.81835 27.9511 5.17842ZM30.31 7.24638C30.7037 7.24516 31.0219 6.92604 31.0207 6.53313C31.0195 6.14022 30.6997 5.82273 30.3059 5.82394C29.9134 5.82516 29.596 6.14225 29.5952 6.53394C29.5952 6.92726 29.9142 7.24597 30.3084 7.24638C30.3088 7.24638 30.3096 7.24638 30.31 7.24638ZM31.8237 8.87195C32.2499 8.87195 32.5957 8.52689 32.5957 8.10154C32.5957 7.67619 32.2499 7.33112 31.8237 7.33112C31.3974 7.33112 31.0516 7.67619 31.0516 8.10154C31.0516 8.52689 31.3974 8.87195 31.8237 8.87195ZM33.1167 9.01914C32.6571 9.01914 32.2849 9.39056 32.2849 9.84916C32.2849 10.3078 32.6571 10.6792 33.1167 10.6792C33.5762 10.6792 33.9485 10.3078 33.9485 9.84916C33.9485 9.39097 33.5767 9.01955 33.1175 9.01914H33.1167ZM33.2829 11.7529C33.2837 12.2435 33.6827 12.6409 34.1744 12.6401C34.6661 12.6393 35.0643 12.2411 35.0635 11.7505C35.0627 11.2598 34.6641 10.8629 34.1724 10.8633C33.6815 10.8633 33.2833 11.2602 33.2829 11.7501C33.2829 11.7509 33.2829 11.7521 33.2829 11.7529ZM34.0208 13.775C34.0204 14.2989 34.4454 14.7239 34.9704 14.7243C35.4954 14.7247 35.9213 14.3005 35.9217 13.7767C35.9221 13.2532 35.4975 12.8282 34.9729 12.8274C34.4479 12.8274 34.022 13.2512 34.0208 13.775ZM35.4959 14.8771C34.9375 14.8771 34.4853 15.328 34.4849 15.8852C34.4849 16.4423 34.9367 16.8936 35.495 16.894C36.0534 16.894 36.5056 16.4431 36.506 15.886C36.506 15.3288 36.0538 14.8775 35.4959 14.8771ZM0.118854 19.852C0.0570885 19.8484 0.00385638 19.8954 0.000199208 19.957C-0.00345796 20.0187 0.0436789 20.0718 0.105444 20.0754C0.109914 20.0754 0.114384 20.0754 0.118854 20.0754C0.180619 20.0791 0.233852 20.032 0.237509 19.9704C0.241166 19.9088 0.194029 19.8557 0.132264 19.852C0.127794 19.852 0.123324 19.852 0.118854 19.852ZM0.768204 17.6632C0.644267 17.6624 0.543492 17.7621 0.542679 17.8858C0.541866 18.0095 0.641829 18.1101 0.765766 18.1109C0.889704 18.1117 0.990479 18.0119 0.991292 17.8883C0.991292 17.8883 0.991292 17.8878 0.991292 17.8874C0.990885 17.7646 0.891329 17.6644 0.768204 17.6632ZM1.96735 15.8896C1.96816 15.7039 1.81741 15.5527 1.6313 15.5519C1.44519 15.5511 1.29362 15.7015 1.2928 15.8872C1.29199 16.0729 1.44275 16.2242 1.62886 16.225C1.81497 16.225 1.96613 16.0753 1.96694 15.8896H1.96735ZM2.69797 14.4404C2.94503 14.4404 3.14496 14.2409 3.14496 13.9944C3.14496 13.7479 2.94503 13.5484 2.69797 13.5484C2.45091 13.5484 2.25098 13.7479 2.25098 13.9944C2.2522 14.2401 2.45172 14.4392 2.69797 14.4404ZM3.96132 12.7792C4.27096 12.7792 4.52168 12.5294 4.52208 12.2204C4.52208 11.9114 4.27177 11.6613 3.96213 11.6609C3.65249 11.6605 3.40177 11.9106 3.40137 12.2196C3.40137 12.2196 3.40137 12.22 3.40137 12.2204C3.40096 12.5286 3.65087 12.7788 3.95969 12.7792C3.9601 12.7792 3.96091 12.7792 3.96132 12.7792ZM5.40427 11.2594C5.77527 11.2594 6.07638 10.959 6.07638 10.5888C6.07638 10.2186 5.77527 9.9181 5.40427 9.9181C5.03328 9.9181 4.73217 10.2186 4.73217 10.5888C4.73217 10.959 5.03328 11.2594 5.40427 11.2594ZM7.01099 9.90269C7.44497 9.9035 7.79769 9.55316 7.7985 9.12011C7.79931 8.68705 7.44822 8.33509 7.01424 8.33428C6.58026 8.33347 6.22754 8.68381 6.22673 9.11686C6.22673 9.11727 6.22673 9.11808 6.22673 9.11849C6.22632 9.55114 6.57741 9.90228 7.01099 9.90269ZM8.76237 8.72152C9.25771 8.72314 9.66041 8.32374 9.66203 7.82946C9.66366 7.33518 9.2634 6.93334 8.76806 6.93172C8.27271 6.9301 7.87002 7.3295 7.86839 7.82378C7.86839 7.825 7.86839 7.82621 7.86839 7.82743C7.86921 8.32009 8.26865 8.7199 8.76237 8.72152ZM10.66 7.76053C11.2171 7.76053 11.6686 7.31044 11.669 6.75453C11.669 6.19861 11.218 5.74812 10.6608 5.74771C10.1041 5.74771 9.65228 6.1978 9.65187 6.75331C9.65147 7.30923 10.1025 7.76012 10.6596 7.76053H10.66Z" fill="#1F774D"/>
<path d="M12.7881 7.14851C13.3363 7.14608 13.8004 6.74157 13.8801 6.19669C14.2637 6.75168 15.0221 6.88881 15.5744 6.50331C15.7386 6.38884 15.8723 6.23512 15.9632 6.05633C16.4036 6.6457 17.2365 6.76503 17.8229 6.32209C17.8894 6.27193 17.951 6.21571 18.0073 6.15382C18.4642 6.80265 19.3562 6.9596 20.0055 6.50574C20.0582 6.59311 20.1202 6.67482 20.1907 6.74845C19.8356 6.78606 19.5027 6.94018 19.2439 7.18693C18.6151 6.6097 17.6398 6.65339 17.0654 7.28523C17.0263 7.32811 16.9901 7.37301 16.9559 7.41993C16.7003 7.21687 16.3835 7.10684 16.0578 7.10805C15.4903 7.10886 14.9746 7.44016 14.7359 7.95752C14.1088 7.52874 13.2542 7.69217 12.8271 8.32239C12.7313 8.46397 12.6625 8.62254 12.6242 8.7896C12.0168 8.41745 11.2242 8.6104 10.8539 9.22081C10.7307 9.42347 10.6659 9.65646 10.6655 9.89391V9.89876C10.0907 9.56504 9.35606 9.76285 9.02397 10.3405C8.9181 10.5245 8.86255 10.7333 8.86296 10.9456C8.86336 11.0593 8.87946 11.1718 8.91086 11.281C8.73656 11.1718 8.53529 11.1135 8.3296 11.1127C7.71251 11.1123 7.21216 11.6143 7.21176 12.2344C7.21136 12.8545 7.7109 13.3573 8.32799 13.3577C8.94507 13.3581 9.44542 12.8561 9.44582 12.236C9.44462 12.1418 9.43174 12.0483 9.40799 11.9573C9.96308 12.3222 10.7078 12.1652 11.0704 11.6074C11.1908 11.4221 11.2584 11.2078 11.2657 10.9865C11.4714 11.1184 11.7101 11.1883 11.954 11.1887C11.9766 11.1887 12.0011 11.1855 12.0249 11.1855C11.7467 11.4399 11.5756 11.7919 11.5475 12.1689C10.7806 12.0232 10.0412 12.5301 9.89626 13.3007C9.87976 13.3877 9.8717 13.4758 9.8717 13.5644C9.8717 13.6202 9.87533 13.6757 9.88298 13.7307C9.83145 13.7238 9.77993 13.7206 9.728 13.721C8.98895 13.721 8.38998 14.3225 8.38958 15.0652C8.38877 15.2112 8.41252 15.356 8.46002 15.4939C8.43265 15.4939 8.40688 15.4903 8.37951 15.4903C7.68273 15.4895 7.11717 16.057 7.11636 16.7572C7.11636 16.9922 7.18077 17.2228 7.30354 17.423C7.29146 17.4222 7.27899 17.4222 7.26691 17.423C6.61038 17.4222 6.07742 17.9566 6.07702 18.6163C6.07702 18.9484 6.21388 19.2656 6.4554 19.4917C6.43769 19.4917 6.42159 19.4864 6.40549 19.4864C5.7872 19.4852 5.28443 19.9876 5.28322 20.6094C5.28202 21.2307 5.78196 21.7359 6.40066 21.7371C7.01895 21.7383 7.52171 21.2359 7.52292 20.6142C7.52373 20.312 7.40337 20.022 7.18882 19.8101C7.21377 19.8101 7.24034 19.8133 7.26691 19.8133C7.59819 19.8133 7.91459 19.6741 8.1392 19.429V19.4695C8.1388 19.7652 8.23219 20.0536 8.40568 20.2926C7.72298 20.5361 7.36633 21.2897 7.60906 21.9758C7.68635 22.1942 7.81959 22.3884 7.99509 22.5385C7.36835 22.8265 7.09261 23.5704 7.37922 24.2002C7.49434 24.453 7.68957 24.6605 7.93471 24.7896C7.35265 25.0857 7.11958 25.7996 7.41383 26.3845C7.57243 26.7001 7.86306 26.9278 8.20602 27.0059C7.65616 27.2838 7.43477 27.9569 7.7109 28.509C7.9005 28.8881 8.28693 29.1267 8.70919 29.1259C8.77802 29.1255 8.84645 29.1182 8.91408 29.1049C8.36985 29.2869 8.0756 29.8779 8.25674 30.4248C8.43788 30.9717 9.02598 31.2674 9.57021 31.0853C10.1144 30.9033 10.4087 30.3123 10.2275 29.7654C10.085 29.335 9.68171 29.0462 9.23007 29.0515C9.16606 29.0515 9.10206 29.0579 9.03886 29.0701C9.50661 28.9273 9.82662 28.4945 9.82783 28.0034C9.82783 27.9751 9.82139 27.9512 9.81897 27.9225C9.99407 28.1162 10.2243 28.2514 10.4783 28.3092C10.0359 28.8298 10.0975 29.6121 10.616 30.0567C10.8402 30.2492 11.126 30.3544 11.4207 30.3532H11.4476C11.066 30.8807 11.1824 31.6193 11.7073 32.0024C11.9089 32.1496 12.1521 32.2285 12.4012 32.2281C12.5172 32.2281 12.6323 32.2107 12.743 32.1771C12.4016 32.6945 12.5425 33.3923 13.0578 33.7353C13.2405 33.857 13.4551 33.9222 13.674 33.9222C13.9276 33.9218 14.1732 33.8332 14.3692 33.6718C13.9876 34.1167 14.0371 34.7882 14.4799 35.1717C14.9227 35.5552 15.5909 35.5054 15.9725 35.0605C16.3283 34.6458 16.3122 34.0273 15.9359 33.6313C16.0743 33.6289 16.2116 33.605 16.3432 33.5609V33.5755C16.3432 34.0642 16.6158 34.5115 17.0489 34.734C16.9853 34.7203 16.9201 34.7134 16.8549 34.7134C16.2961 34.7097 15.8401 35.162 15.8364 35.7239C15.8328 36.2853 16.2829 36.7436 16.842 36.7473C17.4007 36.7509 17.8568 36.2987 17.8604 35.7368C17.8628 35.3602 17.6579 35.0131 17.3278 34.8347C17.4293 34.861 17.5335 34.8748 17.6382 34.8752C17.8801 34.8752 18.1172 34.8068 18.3225 34.6782C18.378 35.361 18.9738 35.8691 19.6533 35.8132C19.9544 35.7886 20.2361 35.6535 20.4447 35.4342C20.5465 36.079 21.1495 36.5183 21.7911 36.416C22.155 36.3577 22.471 36.1316 22.6441 35.8048C22.7661 36.4119 23.3546 36.8047 23.9588 36.6821C24.4366 36.5851 24.7968 36.1874 24.8476 35.7C24.8878 36.2849 25.3922 36.7266 25.9743 36.6862C26.5563 36.6457 26.9959 36.1389 26.9556 35.554C26.9182 35.0058 26.4706 34.5771 25.9239 34.5653C26.0201 34.4642 26.1006 34.3489 26.163 34.2235C26.5052 34.5759 27.0164 34.7037 27.483 34.5536C27.0249 34.8651 26.9049 35.4905 27.2145 35.9504C27.524 36.4103 28.1467 36.5313 28.6044 36.2202C29.0625 35.9087 29.1824 35.2833 28.8729 34.8234C28.6873 34.5475 28.3778 34.3821 28.0465 34.3809C27.9491 34.3817 27.8525 34.3979 27.7599 34.4282C28.059 34.2462 28.2723 33.9505 28.3516 33.6083C28.5738 33.7988 28.8564 33.9032 29.1486 33.9023C29.8301 33.9011 30.3824 33.3461 30.3836 32.6613C30.3836 32.652 30.3808 32.6423 30.3808 32.6346C30.5808 32.781 30.822 32.8599 31.0695 32.8595C31.7196 32.8603 32.2469 32.3312 32.2477 31.678V31.6771C32.2485 31.5606 32.2312 31.445 32.1966 31.3337C32.7066 31.6804 33.3994 31.5457 33.7444 31.0332C34.0193 30.6242 33.9959 30.0826 33.686 29.6995C33.876 29.8674 34.1203 29.96 34.3735 29.96C34.9588 29.96 35.433 29.4835 35.433 28.8953C35.433 28.3072 34.9588 27.8307 34.3735 27.8307C34.101 27.8307 33.8394 27.9375 33.6441 28.128C33.6409 27.988 33.6176 27.8493 33.5749 27.7162H33.587C34.0732 27.7162 34.5188 27.4423 34.7406 27.0075C34.7277 27.0714 34.7209 27.1365 34.7205 27.2017C34.7141 27.7643 35.1625 28.2255 35.722 28.2319C36.2815 28.2384 36.7408 27.7878 36.7473 27.2255C36.7537 26.6628 36.3053 26.2017 35.7458 26.1952C35.3702 26.1908 35.0232 26.3955 34.8437 26.7268C34.8698 26.6248 34.8831 26.5205 34.8839 26.4153C34.8827 26.1722 34.8147 25.9339 34.6867 25.7276C35.3658 25.6718 35.8713 25.0735 35.8162 24.3911C35.7916 24.0885 35.6572 23.8054 35.4386 23.5955C36.0803 23.4919 36.517 22.8851 36.414 22.2407C36.3556 21.8767 36.1318 21.5604 35.8081 21.386C36.4119 21.2651 36.804 20.6749 36.6837 20.0681C36.5879 19.586 36.1906 19.2227 35.7039 19.1725C36.292 19.1353 36.7388 18.6265 36.7018 18.0355C36.6647 17.4445 36.1584 16.9955 35.5703 17.0327C34.9822 17.0699 34.5353 17.5788 34.5724 18.1698C34.6046 18.6867 35.0003 19.1066 35.5123 19.1673C34.8996 19.2041 34.4323 19.7328 34.4689 20.3485C34.4919 20.7344 34.7116 21.081 35.0498 21.2647C34.4106 21.3755 33.9819 21.9863 34.0922 22.6287C34.1332 22.8685 34.2475 23.0898 34.4186 23.2621C33.7436 23.3531 33.2698 23.9769 33.3603 24.6553C33.3821 24.8187 33.4364 24.976 33.5193 25.1184C32.8322 25.1548 32.2936 25.7252 32.2928 26.4165C32.2928 26.5443 32.3125 26.6717 32.3512 26.7935C32.3315 26.7907 32.3117 26.7895 32.292 26.789C31.5441 26.789 30.9379 27.3986 30.9375 28.1502C30.9375 28.183 30.9395 28.2153 30.9431 28.2477C30.8727 28.236 30.8014 28.2299 30.7302 28.2299C30.0282 28.2291 29.4328 28.7477 29.3338 29.4459C29.2082 29.4119 29.0786 29.3941 28.9482 29.3929C28.377 29.3937 27.8573 29.7262 27.6154 30.246C27.0639 29.7942 26.2528 29.8771 25.8032 30.4308C25.7307 30.5198 25.6707 30.6185 25.624 30.7237C25.1402 30.195 24.321 30.1606 23.7949 30.6469C23.6887 30.7452 23.5993 30.8608 23.5309 30.9887C23.0833 30.426 22.2665 30.335 21.707 30.7848C21.6611 30.822 21.6172 30.8621 21.5766 30.9049C21.2795 30.2488 20.5095 29.9584 19.8566 30.2569C19.7821 30.2909 19.7112 30.3317 19.6444 30.3791C19.4866 29.6764 18.7914 29.2351 18.0922 29.3937C18.0069 29.4131 17.9236 29.441 17.8439 29.4774C17.8234 28.7594 17.2276 28.1943 16.5131 28.2149C16.4551 28.2166 16.3976 28.2222 16.3404 28.2315C16.503 27.5309 16.0695 26.8303 15.3719 26.6669C15.2801 26.6455 15.1864 26.6341 15.0926 26.6329C15.378 25.9748 15.0781 25.2086 14.4232 24.9218C14.3676 24.8976 14.31 24.8769 14.2517 24.8608C14.6888 24.2908 14.5834 23.4721 14.0162 23.0328C13.9707 22.9976 13.9228 22.9652 13.8729 22.9365C14.4421 22.4976 14.5491 21.6781 14.1124 21.1061C14.0605 21.0381 14.0021 20.9754 13.9381 20.9192C14.2766 20.7477 14.5246 20.437 14.6172 20.0677C14.709 19.7008 14.6365 19.3117 14.4187 19.0031C15.1167 18.8453 15.5551 18.1487 15.3985 17.4473C15.3868 17.3951 15.3719 17.3438 15.3538 17.2936C16.0699 17.3304 16.6802 16.777 16.7168 16.0574C16.7212 15.9704 16.7168 15.8831 16.7039 15.7969C17.4007 15.9688 18.1047 15.5405 18.2758 14.8403C18.2911 14.7776 18.302 14.714 18.3076 14.6497C18.942 14.9843 19.7257 14.7387 20.0586 14.1012C20.0852 14.0506 20.1081 13.9981 20.1279 13.9443C20.3988 14.1914 20.7614 14.3107 21.1253 14.2719C21.523 14.2339 21.8805 14.0114 22.0914 13.6708C22.5004 14.259 23.3063 14.403 23.8919 13.992C23.9515 13.9503 24.0075 13.9034 24.059 13.852C24.3231 14.5191 25.0754 14.8443 25.7388 14.5789C25.8205 14.5462 25.8986 14.5053 25.9722 14.4568C26.0451 14.8411 26.2854 15.1728 26.6272 15.36H26.6248C26.9077 15.517 27.2394 15.5611 27.5534 15.4846C27.5884 15.5332 27.6258 15.5801 27.6645 15.6238C27.681 15.9122 27.7945 16.1865 27.9865 16.4017C27.995 16.411 28.0042 16.4199 28.0139 16.4279C28.6753 17.1233 30.2101 18.8113 29.9231 21.0713C29.8503 21.6344 30.1646 21.9188 30.5672 21.4835C33.0045 18.8433 32.6229 15.6003 32.5682 15.2233C32.5553 14.9818 32.5017 14.7444 32.4104 14.5207C32.4389 14.3807 32.4534 14.2387 32.4538 14.096C32.4538 13.4415 32.1495 12.8246 31.6315 12.4278C31.6552 12.3028 31.6677 12.1757 31.6681 12.0487C31.6681 11.2292 31.1734 10.4918 30.417 10.1852C30.3993 9.25317 29.7186 8.46882 28.8025 8.32441C28.6426 7.45755 27.8907 6.82854 27.0136 6.82773C26.9806 6.82773 26.9504 6.83097 26.9154 6.83218C26.6851 6.11822 26.0234 5.63483 25.2767 5.63483C25.1301 5.63483 24.9844 5.65425 24.8427 5.69227C24.468 4.86748 23.4991 4.50423 22.6783 4.88042C22.6654 4.88649 22.6525 4.89256 22.6397 4.89903C22.2069 4.16039 21.2606 3.91445 20.5256 4.3489C20.4648 4.3849 20.4064 4.42535 20.3509 4.46944C19.8867 3.82142 18.9879 3.67417 18.3426 4.14057C18.2359 4.21743 18.1405 4.30885 18.0588 4.412C17.5979 3.83841 16.7615 3.74901 16.1907 4.21258C16.0285 4.34445 15.8992 4.51272 15.8139 4.70365C15.3796 4.18547 14.6095 4.11954 14.0943 4.556C13.8552 4.75866 13.7022 5.04587 13.6676 5.35815C13.2957 4.8699 12.6001 4.77687 12.1142 5.15063C11.6284 5.5244 11.5358 6.22339 11.9077 6.71163C12.1174 6.98711 12.4427 7.14851 12.7881 7.14851ZM5.3271 35.935C5.28 35.9358 5.24217 35.9746 5.24297 36.022C5.24297 36.0689 5.28041 36.1077 5.3271 36.1089C5.375 36.1085 5.41365 36.0701 5.41485 36.022C5.41445 35.9738 5.375 35.9346 5.3271 35.935ZM4.32479 33.927C4.2302 33.9266 4.15331 34.0031 4.15291 34.0981C4.15291 34.0981 4.15291 34.0981 4.15291 34.0985C4.15291 34.1936 4.22979 34.2709 4.32439 34.2709C4.41898 34.2709 4.49587 34.1936 4.49587 34.0985C4.49587 34.0039 4.42019 33.9274 4.326 33.927C4.3256 33.927 4.32519 33.927 4.32479 33.927ZM3.52657 31.8236C3.38407 31.8236 3.26854 31.9393 3.26814 32.0825C3.26814 32.2257 3.38327 32.3418 3.52576 32.3422C3.66786 32.3422 3.78338 32.2269 3.78419 32.0841C3.78419 31.9409 3.66906 31.8244 3.52657 31.8236ZM2.9433 29.6481C2.7537 29.6485 2.60034 29.8035 2.60074 29.994C2.60114 30.1845 2.75531 30.3386 2.94491 30.3382C3.1341 30.3378 3.28746 30.1833 3.28746 29.9932C3.28746 29.8026 3.1345 29.6485 2.94491 29.6481C2.9445 29.6481 2.9437 29.6481 2.9433 29.6481ZM3.01173 27.8549C3.01253 27.6163 2.82052 27.4225 2.58303 27.4217C2.34553 27.4209 2.15272 27.6138 2.15192 27.8525C2.15111 28.0912 2.34312 28.2849 2.58061 28.2857C2.58142 28.2857 2.58222 28.2857 2.58303 28.2857C2.81972 28.2853 3.01133 28.0928 3.01173 27.8549ZM2.96544 25.6876C2.96463 25.4016 2.73317 25.1698 2.44858 25.1706C2.16399 25.1714 1.93334 25.404 1.93415 25.69C1.93495 25.9752 2.16439 26.2062 2.44818 26.207C2.73277 26.2082 2.96423 25.9772 2.96544 25.6912C2.96544 25.69 2.96544 25.6888 2.96544 25.6876ZM1.94179 23.5206C1.94179 23.8543 2.21109 24.1245 2.54318 24.1241C2.87527 24.1237 3.14416 23.8535 3.14376 23.5198C3.14376 23.1869 2.87487 22.9167 2.54358 22.9163C2.2123 22.9151 1.943 23.1841 1.94179 23.517C1.94179 23.5182 1.94179 23.5194 1.94179 23.5206ZM2.86641 22.0648C3.246 22.064 3.55354 21.7541 3.55273 21.3727C3.55193 20.9912 3.24359 20.6822 2.864 20.683C2.48481 20.6838 2.17768 20.9928 2.17768 21.3739C2.17768 21.7553 2.48481 22.0644 2.8644 22.0648C2.86521 22.0648 2.86561 22.0648 2.86641 22.0648ZM3.45814 18.51C3.03105 18.5092 2.68447 18.8566 2.68366 19.2858C2.68286 19.715 3.02863 20.0633 3.45572 20.0641C3.88281 20.0649 4.22939 19.7174 4.2302 19.2882C4.2302 19.2878 4.2302 19.2874 4.2302 19.287C4.2302 18.8582 3.88482 18.5108 3.45814 18.51ZM4.31594 18.1593C4.79093 18.1605 5.17655 17.7746 5.17776 17.2972C5.17897 16.8199 4.79495 16.4324 4.31996 16.4312C3.84497 16.43 3.45934 16.8159 3.45814 17.2932C3.45814 17.294 3.45814 17.2948 3.45814 17.2956C3.45814 17.7717 3.84215 18.158 4.31594 18.1593Z" fill="#1F774D"/>
<path d="M5.3023 16.3234C5.82628 16.3222 6.25008 15.8882 6.24887 15.3537C6.24766 14.8191 5.82224 14.3868 5.29826 14.3881C4.77467 14.3893 4.35128 14.8224 4.35168 15.3566C4.35128 15.8903 4.77467 16.323 5.29785 16.3234C5.29947 16.3234 5.30068 16.3234 5.3023 16.3234ZM7.68711 13.6273C7.68711 13.0445 7.22412 12.5718 6.65287 12.5714C6.08161 12.571 5.61822 13.0437 5.61782 13.6265C5.61782 14.2092 6.0808 14.6819 6.65206 14.6823C7.22331 14.6823 7.6863 14.21 7.68711 13.6273ZM60.9048 30.4614C59.8059 30.4664 58.7175 30.2422 57.7067 29.802C56.7335 29.3775 55.8495 28.7659 55.1033 28.0002C54.3592 27.2283 53.7653 26.3191 53.3536 25.3214C52.4923 23.2253 52.4923 20.8646 53.3536 18.7686C54.1794 16.7545 55.738 15.1451 57.7027 14.2789C59.7598 13.3763 62.0913 13.3808 64.1453 14.2908C65.1326 14.7363 66.0279 15.3693 66.7834 16.1557C66.9486 16.3312 67.073 16.5422 67.147 16.7739C67.2399 17.0533 67.2011 17.3603 67.0419 17.6068C66.8557 17.8916 66.5842 18.0482 66.2339 18.0717H66.2226C65.8384 18.0717 65.5698 17.9571 65.3532 17.7312C64.7319 17.2 64.0544 16.7417 63.3332 16.3642C62.5822 15.9649 61.7471 15.7576 60.8999 15.7604C60.0822 15.7576 59.273 15.9269 58.5224 16.2571C57.7972 16.5789 57.1395 17.0405 56.5864 17.6171C56.0374 18.1978 55.5986 18.8774 55.2936 19.6217C54.6549 21.1729 54.6549 22.9216 55.2936 24.4728C55.9033 25.9721 57.0631 27.1693 58.5256 27.8085C59.2754 28.1387 60.0843 28.3072 60.9011 28.3031C61.756 28.3085 62.6024 28.1312 63.3857 27.7826C64.1372 27.4451 64.8131 26.9542 65.3714 26.3401C65.5443 26.144 65.773 26.008 66.0251 25.9507C66.1059 25.9305 66.1883 25.9198 66.2715 25.9189C66.4646 25.9198 66.6529 25.9812 66.8108 26.0949C67.0706 26.301 67.2181 26.6212 67.2084 26.9567C67.2084 27.2934 67.1078 27.5749 66.9098 27.7987C66.1592 28.6365 65.2449 29.3046 64.2257 29.76C63.1793 30.2286 62.0477 30.4676 60.9048 30.4614Z" fill="#1F774D"/>
<path d="M78.3172 30.4614C77.2162 30.466 76.1258 30.2395 75.1127 29.7952C74.1408 29.3693 73.2571 28.756 72.5092 27.9878C71.7646 27.2175 71.1689 26.309 70.7527 25.3105C69.8957 23.2012 69.8957 20.8262 70.7527 18.7169C71.1709 17.7146 71.7667 16.8015 72.5092 16.0238C73.2555 15.2506 74.1392 14.6327 75.1127 14.2042C77.1604 13.3165 79.4699 13.3165 81.5176 14.2042C83.4917 15.0665 85.0638 16.6845 85.9019 18.7169C86.7654 20.8249 86.7654 23.2024 85.9019 25.3105C85.4877 26.3135 84.8883 27.2241 84.1376 27.9923C83.3813 28.756 82.4935 29.368 81.5196 29.7969C80.5073 30.2407 79.4177 30.4672 78.3172 30.4614ZM78.3172 15.7148C77.5002 15.7115 76.6913 15.8776 75.9382 16.2036C75.2114 16.5159 74.5517 16.9727 73.9968 17.5481C73.4443 18.1289 73.0035 18.8122 72.6973 19.5617C72.0684 21.1306 72.0684 22.8918 72.6973 24.4607C74.0207 27.6443 77.5908 29.1324 80.6929 27.7946C81.4209 27.4798 82.0846 27.0259 82.6484 26.4572C84.3945 24.6414 84.9109 21.9242 83.9589 19.5646C83.6491 18.8143 83.2046 18.1314 82.648 17.5514C82.0867 16.9777 81.4234 16.5205 80.6941 16.2049C79.9418 15.8793 79.1334 15.7123 78.3172 15.7148Z" fill="#1F774D"/>
<path d="M101.065 30.4611C100.48 30.4628 100.005 29.9819 100.003 29.3875V19.7788C100.007 19.2413 99.9012 18.7093 99.6919 18.216C99.2782 17.2406 98.512 16.4635 97.5515 16.0457C96.5715 15.618 95.4618 15.618 94.4818 16.0457C94.0117 16.2532 93.5846 16.5501 93.2244 16.9209C92.8647 17.2962 92.5759 17.7363 92.3727 18.2181C92.1634 18.7109 92.0559 19.2422 92.0571 19.7788V29.3813C92.062 29.6692 91.9492 29.9468 91.7456 30.1468C91.5485 30.3502 91.2783 30.4632 90.9976 30.4595C90.4136 30.4628 89.9374 29.9843 89.9341 29.3904C89.9341 29.3875 89.9341 29.3842 89.9341 29.3813V19.7788C89.9305 18.951 90.0915 18.131 90.4067 17.3676C90.7084 16.6293 91.151 15.9591 91.7083 15.3953C92.2644 14.8294 92.9223 14.3778 93.6463 14.0651C95.1608 13.4015 96.8778 13.4023 98.3919 14.0672C99.8529 14.6983 101.017 15.8799 101.64 17.3647C101.965 18.1265 102.13 18.9485 102.127 19.7788V29.3813C102.132 29.6676 102.022 29.9435 101.821 30.1448C101.622 30.3498 101.349 30.464 101.065 30.4611ZM111.492 30.4611C110.711 30.4661 109.934 30.3312 109.198 30.0631C108.509 29.8107 107.869 29.4362 107.309 28.9561C106.775 28.4991 106.34 27.9361 106.028 27.3014C105.716 26.6695 105.556 25.9712 105.56 25.2643C105.56 24.6968 106.012 24.2365 106.571 24.2365C107.129 24.2365 107.581 24.6968 107.581 25.2643C107.58 25.6821 107.68 26.0937 107.873 26.4629C108.074 26.846 108.351 27.1826 108.686 27.4527C109.059 27.7464 109.478 27.9749 109.925 28.1283C110.422 28.2954 110.942 28.3787 111.466 28.3758C111.995 28.3779 112.521 28.2933 113.024 28.125C113.483 27.9699 113.915 27.7402 114.302 27.4449C114.648 27.1838 114.933 26.8477 115.136 26.4604C115.325 26.0995 115.409 25.6916 115.38 25.2841C115.35 24.8939 115.227 24.5174 115.021 24.1866C114.798 23.8257 114.516 23.5065 114.186 23.2433C113.824 22.9542 113.422 22.7207 112.994 22.55C112.536 22.3632 112.061 22.2275 111.574 22.145C110.873 22.0955 110.181 21.9552 109.515 21.728C108.889 21.5197 108.296 21.2194 107.756 20.8371C107.263 20.4919 106.842 20.0502 106.519 19.5379C106.2 19.0331 106.032 18.4445 106.036 17.8444C106.034 17.2447 106.189 16.6553 106.486 16.1373C106.794 15.6044 107.207 15.1416 107.699 14.7787C108.201 14.3984 108.795 14.0957 109.469 13.8713C110.869 13.4275 112.369 13.4275 113.769 13.8713C114.436 14.0953 115.031 14.398 115.537 14.7787C116.054 15.173 116.46 15.6275 116.749 16.1373C117.048 16.6545 117.204 17.2443 117.202 17.8444C117.204 18.4383 116.731 18.9205 116.147 18.9217C116.145 18.9217 116.143 18.9217 116.141 18.9217C115.855 18.9271 115.58 18.8042 115.391 18.5851C115.207 18.3789 115.105 18.1018 115.082 17.7603C115.064 17.4963 114.969 17.2435 114.81 17.0343C114.61 16.7654 114.362 16.5373 114.08 16.3612C113.734 16.1447 113.36 15.9814 112.967 15.8758C112.529 15.7549 112.076 15.6939 111.622 15.6947C111.154 15.6927 110.687 15.7533 110.235 15.8758C109.843 15.9785 109.468 16.1414 109.125 16.3592C108.842 16.5439 108.599 16.7848 108.41 17.0673C108.248 17.302 108.16 17.5821 108.159 17.8691C108.159 18.1348 108.256 18.3731 108.461 18.6008C108.705 18.8697 108.993 19.0933 109.313 19.2607C109.684 19.4616 110.074 19.6257 110.476 19.7511C110.862 19.8745 111.257 19.964 111.658 20.0192C112.423 20.1025 113.173 20.2927 113.887 20.5839C114.592 20.8788 115.21 21.2491 115.723 21.6851C116.241 22.119 116.665 22.6572 116.97 23.2652C117.272 23.8768 117.428 24.5532 117.423 25.2379C117.426 25.9481 117.265 26.6497 116.953 27.2853C116.646 27.9233 116.21 28.4884 115.673 28.9429C114.498 29.9332 113.018 30.471 111.492 30.4611ZM122.195 30.4611C121.611 30.464 121.136 29.9852 121.133 29.3912C121.133 29.3883 121.133 29.3859 121.133 29.383V14.6479C121.13 14.36 121.242 14.0829 121.444 13.8812C121.641 13.6754 121.913 13.5611 122.195 13.5665H131.038C131.62 13.564 132.094 14.0425 132.096 14.6347C132.096 14.6393 132.096 14.6434 132.096 14.6479C132.102 14.9338 131.99 15.2089 131.789 15.4081C131.591 15.6131 131.32 15.7269 131.038 15.7232H123.257V20.8821H128.766C129.352 20.8821 129.827 21.3654 129.827 21.9614C129.827 22.5574 129.352 23.0408 128.766 23.0408H123.257V28.3011H131.039C131.62 28.2974 132.094 28.773 132.098 29.3636C132.098 29.3694 132.098 29.3756 132.098 29.3813C132.103 29.668 131.992 29.9443 131.79 30.1448C131.593 30.3493 131.321 30.4632 131.039 30.4595L122.195 30.4611ZM146.079 30.4611C145.493 30.4636 145.017 29.9827 145.015 29.3871C145.015 29.3859 145.015 29.3842 145.015 29.383V19.7788C145.019 19.2413 144.912 18.7093 144.703 18.216C144.289 17.241 143.524 16.4643 142.564 16.0457C141.585 15.618 140.476 15.618 139.497 16.0457C139.025 16.2515 138.598 16.5489 138.239 16.9209C137.879 17.2962 137.589 17.7351 137.383 18.216C137.175 18.7101 137.07 19.2418 137.072 19.7788V29.3813C137.072 29.9769 136.597 30.4599 136.011 30.4599C135.425 30.4599 134.95 29.9769 134.95 29.3813V19.7788C134.945 17.2892 136.406 15.0389 138.659 14.0643C140.175 13.4019 141.893 13.4028 143.409 14.0672C144.132 14.3794 144.788 14.8302 145.343 15.3953C145.898 15.9612 146.343 16.6293 146.652 17.3647C146.977 18.1265 147.142 18.9485 147.138 19.7788V29.3813C147.142 29.9736 146.674 30.457 146.091 30.4611C146.087 30.4611 146.083 30.4611 146.079 30.4611ZM156.507 30.4611C155.726 30.4657 154.949 30.3312 154.213 30.0631C153.523 29.8115 152.883 29.4358 152.322 28.9545C151.79 28.4962 151.353 27.9341 151.039 27.3005C150.729 26.6683 150.569 25.9708 150.572 25.2643C150.57 24.9921 150.677 24.7306 150.867 24.5396C151.263 24.1371 151.905 24.1367 152.301 24.5396C152.49 24.7318 152.597 24.9925 152.598 25.2647C152.596 25.6813 152.695 26.0925 152.887 26.4608C153.086 26.8444 153.363 27.1818 153.698 27.4507C154.07 27.7464 154.49 27.9757 154.937 28.1291C155.436 28.2966 155.957 28.3803 156.482 28.3766C157.011 28.3787 157.537 28.2941 158.04 28.1258C158.499 27.9712 158.929 27.7414 159.316 27.4457C159.661 27.1826 159.946 26.8464 160.151 26.4608C160.34 26.1003 160.424 25.6928 160.394 25.2853C160.363 24.8956 160.24 24.519 160.036 24.1878C159.812 23.8265 159.53 23.5069 159.2 23.2437C158.839 22.9538 158.437 22.7207 158.008 22.5516C157.55 22.3636 157.073 22.2279 156.585 22.1466C155.885 22.0975 155.194 21.9573 154.529 21.7296C153.902 21.5222 153.309 21.2219 152.769 20.8392C152.276 20.4935 151.856 20.0518 151.533 19.54C151.214 19.0351 151.046 18.4466 151.049 17.8465C151.049 17.2472 151.204 16.6586 151.499 16.1393C151.808 15.606 152.222 15.1437 152.716 14.7807C153.22 14.4005 153.813 14.0977 154.482 13.8734C155.882 13.43 157.381 13.43 158.781 13.8734C159.451 14.0973 160.044 14.4001 160.551 14.7807C161.043 15.1433 161.455 15.606 161.762 16.1393C162.06 16.6574 162.217 17.2463 162.216 17.8465C162.218 18.1343 162.105 18.4107 161.901 18.6111C161.707 18.8174 161.436 18.9308 161.155 18.9238C160.867 18.9295 160.591 18.8058 160.402 18.5851C160.22 18.3835 160.115 18.1059 160.095 17.7664C160.077 17.5025 159.982 17.2496 159.823 17.0405C159.621 16.7716 159.373 16.5427 159.09 16.3654C158.745 16.1484 158.371 15.9847 157.979 15.8799C157.54 15.7566 157.086 15.696 156.63 15.6988C156.162 15.6972 155.696 15.7582 155.244 15.8799C154.852 15.9814 154.479 16.1447 154.138 16.3633C153.855 16.5481 153.612 16.7889 153.423 17.0715C153.26 17.3061 153.172 17.5862 153.171 17.8733C153.171 18.1397 153.271 18.3773 153.47 18.6049C153.717 18.873 154.007 19.0962 154.327 19.2649C154.699 19.4665 155.09 19.6307 155.493 19.7553C155.877 19.8777 156.271 19.9677 156.669 20.0233C157.435 20.1062 158.186 20.296 158.9 20.588C159.565 20.8573 160.185 21.2289 160.738 21.6892C161.254 22.1235 161.677 22.6597 161.981 23.2656C162.286 23.8781 162.443 24.5557 162.439 25.242C162.441 25.9514 162.281 26.6522 161.972 27.2878C161.662 27.925 161.224 28.4896 160.688 28.9454C159.514 29.9336 158.035 30.4698 156.51 30.4603L156.507 30.4615V30.4611ZM172.491 30.4611C171.907 30.464 171.432 29.9852 171.429 29.3912V23.8904L164.896 15.3074C164.721 15.0901 164.639 14.8104 164.668 14.5308C164.685 14.2474 164.821 13.9851 165.041 13.8103C165.233 13.6494 165.474 13.562 165.723 13.5628C166.091 13.5888 166.335 13.7232 166.518 13.953L172.497 21.7696L178.589 13.9538C178.761 13.7274 179.021 13.5867 179.302 13.5669H179.319C179.644 13.5669 179.871 13.6494 180.067 13.8065C180.29 13.9822 180.43 14.2462 180.451 14.5324C180.472 14.8125 180.387 15.0905 180.213 15.3087L173.553 23.8925V29.3813C173.559 29.6688 173.447 29.946 173.244 30.1468C173.045 30.351 172.774 30.4648 172.491 30.4611ZM188.442 30.4611C187.66 30.4657 186.882 30.3312 186.145 30.0631C185.456 29.8107 184.817 29.4358 184.258 28.9561C183.726 28.4975 183.29 27.9345 182.975 27.3014C182.664 26.6699 182.505 25.9725 182.509 25.2664C182.508 24.6992 182.96 24.239 183.517 24.2381C183.787 24.2381 184.045 24.347 184.235 24.5417C184.427 24.7322 184.534 24.9937 184.532 25.2664C184.53 25.6838 184.629 26.0954 184.819 26.4649C185.022 26.8481 185.3 27.1851 185.636 27.4548C186.008 27.7493 186.427 27.9778 186.874 28.1304C187.37 28.2978 187.891 28.3816 188.415 28.3779C188.944 28.3803 189.471 28.2954 189.974 28.1271C190.433 27.972 190.864 27.7423 191.25 27.447C191.596 27.1834 191.881 26.8469 192.086 26.4604C192.277 26.1003 192.361 25.692 192.329 25.2841C192.297 24.8947 192.175 24.5186 191.973 24.1866C191.748 23.8265 191.465 23.5077 191.136 23.2433C190.774 22.9546 190.372 22.7212 189.944 22.5512C189.486 22.3644 189.009 22.2287 188.522 22.1462C187.821 22.0975 187.129 21.9573 186.463 21.7292C185.837 21.5213 185.243 21.2211 184.702 20.8383C184.21 20.4927 183.79 20.051 183.467 19.5391C183.149 19.0339 182.982 18.4457 182.987 17.846C182.985 17.2472 183.139 16.6582 183.433 16.1389C183.743 15.606 184.157 15.1437 184.65 14.7803C185.152 14.4001 185.745 14.0973 186.416 13.8729C187.817 13.4292 189.317 13.4292 190.718 13.8729C191.351 14.0763 191.947 14.3827 192.483 14.7803C192.977 15.1412 193.391 15.6036 193.699 16.1369C193.996 16.6553 194.151 17.2443 194.151 17.844C194.15 18.44 193.674 18.9221 193.088 18.9213C192.801 18.9279 192.528 18.8046 192.34 18.5847C192.156 18.3826 192.049 18.1055 192.026 17.764C192.01 17.5 191.916 17.2472 191.757 17.0381C191.557 16.7671 191.308 16.5378 191.022 16.3629C190.679 16.1463 190.305 15.983 189.914 15.8774C189.475 15.7545 189.021 15.6935 188.565 15.6964C188.098 15.6943 187.632 15.7554 187.18 15.8774C186.788 15.9789 186.415 16.1418 186.074 16.3608C185.789 16.5439 185.546 16.7852 185.358 17.069C185.195 17.3037 185.107 17.5833 185.105 17.8708C185.105 18.1364 185.201 18.3748 185.406 18.6025C185.651 18.871 185.941 19.0941 186.261 19.2624C186.633 19.4641 187.022 19.6282 187.425 19.7528C187.81 19.8753 188.205 19.9652 188.604 20.0209C189.37 20.1038 190.12 20.2939 190.835 20.5855C191.538 20.8804 192.155 21.2487 192.672 21.6867C193.19 22.1206 193.614 22.6585 193.918 23.2668C194.221 23.8789 194.376 24.5549 194.374 25.2396C194.376 25.9494 194.215 26.6497 193.904 27.2853C193.595 27.9229 193.158 28.4876 192.621 28.9429C191.447 29.9324 189.967 30.4698 188.442 30.4611Z" fill="#1F774D"/>
</svg>
