<svg width="102" height="45" viewBox="0 0 102 45" fill="none" xmlns="http://www.w3.org/2000/svg">
<path d="M5.26162 10.6171C5.6821 9.83292 6.28885 9.16565 7.02845 8.67173L19.4359 0L6.72302 21.0403C6.72302 21.0403 5.61225 19.1609 5.17944 18.2102C4.63981 17.0146 4.36725 15.7159 4.38232 14.4047C4.39601 13.0936 4.69733 11.8003 5.26299 10.6171H5.26162ZM0.140568 25.1319C0.28027 27.1434 0.848668 29.1025 1.80604 30.8773C2.76341 32.6521 4.08922 34.2013 5.69443 35.4216L19.4181 45C19.4181 45 10.8333 32.6136 3.59067 20.2904C2.85792 18.9889 2.36485 17.565 2.13612 16.0873C2.03477 15.4187 2.03477 14.7377 2.13612 14.069C1.94711 14.4199 1.58005 15.1367 1.58005 15.1367C0.845928 16.6363 0.346013 18.2391 0.0967396 19.8901C-0.0457021 21.6346 -0.0306361 23.3901 0.140568 25.1319ZM35.1319 26.7994C34.6882 25.8487 33.5883 23.9694 33.5883 23.9694L20.8973 44.9986L33.3048 36.3324C34.0444 35.8385 34.6512 35.1712 35.0717 34.387C35.6373 33.2038 35.9386 31.9105 35.9523 30.5994C35.9674 29.2882 35.6948 27.9881 35.1552 26.7939L35.1333 26.7994H35.1319ZM40.1694 19.8736C40.0297 17.8621 39.4613 15.903 38.504 14.1282C37.5466 12.3534 36.2208 10.8042 34.6156 9.58389L20.9138 0C20.9138 0 29.4945 12.385 36.7426 24.7096C37.474 26.0124 37.9643 27.435 38.1917 28.9127C38.293 29.5813 38.293 30.2623 38.1917 30.931C38.3807 30.5801 38.7478 29.8633 38.7478 29.8633C39.4819 28.3637 39.9818 26.7609 40.2311 25.1099C40.3762 23.3654 40.3625 21.6112 40.1927 19.8681L40.1708 19.8736H40.1694Z" fill="#1F774D"/>
<path d="M62.9272 31.9188V28.306H54.4615V23.7479H62.1246V20.329H54.4615V15.8274H62.9272V12.2145H50.643V31.9188H62.9272Z" fill="#1F774D"/>
<path d="M83.4033 31.9188V12.2145H79.5847V25.2489L71.4231 12.2145H66.665V31.9188H70.4835V17.9392L79.3916 31.9188H83.4033Z" fill="#1F774D"/>
<path d="M101.234 16.9115C100.792 14.6882 98.9664 11.7976 94.2069 11.7976C90.4993 11.7976 87.3738 14.4653 87.3738 17.9667C87.3738 20.9399 89.394 22.9692 92.5195 23.6089L95.2588 24.1648C96.7804 24.4702 97.6378 25.3603 97.6378 26.4995C97.6378 27.8891 96.5038 28.9168 94.4562 28.9168C91.6895 28.9168 90.3336 27.1654 90.1679 25.22L86.626 26.1652C86.93 28.9718 89.2269 32.3343 94.4274 32.3343C98.9924 32.3343 101.51 29.2773 101.51 26.2477C101.51 23.4686 99.6005 21.1339 96.0312 20.4391L93.292 19.9108C91.8539 19.6328 91.1622 18.7716 91.1622 17.6875C91.1622 16.3818 92.3798 15.1862 94.2329 15.1862C96.7229 15.1862 97.6077 16.8812 97.8022 17.9654L101.233 16.9087L101.234 16.9115Z" fill="#1F774D"/>
</svg>
