<svg width="95" height="45" viewBox="0 0 95 45" fill="none" xmlns="http://www.w3.org/2000/svg">
<g clip-path="url(#clip0_2613_9)">
<path d="M4.2423 18.9789C4.6075 19.7614 5.51255 21.3103 5.51255 21.3103L15.9127 4.01599L5.75072 11.1381C5.14735 11.5374 4.65513 12.0963 4.30581 12.735C3.369 14.6992 3.35313 16.9828 4.2423 18.9789Z" fill="#1F774D"/>
<path d="M0.113909 24.6637C0.35208 28.0172 2.0034 31.0992 4.65505 33.1272L15.8809 40.9999C15.8809 40.9999 8.86274 30.8117 2.92433 20.6874C2.32097 19.6175 1.92401 18.4518 1.73348 17.2382C1.65408 16.6952 1.65408 16.1363 1.73348 15.5774C1.57469 15.8648 1.27301 16.4557 1.27301 16.4557C0.669642 17.6853 0.256812 19.0107 0.0662743 20.3681C-0.0289943 21.7893 -0.0289943 23.2425 0.113909 24.6637Z" fill="#1F774D"/>
<path d="M28.758 26.0369C28.3929 25.2544 27.4878 23.7054 27.4878 23.7054L17.0876 40.9998L27.2338 33.8776C27.8371 33.4784 28.3293 32.9195 28.6787 32.2808C29.6313 30.3006 29.6472 28.0171 28.758 26.0369Z" fill="#1F774D"/>
<path d="M32.8864 20.3362C32.6482 16.9827 30.9969 13.9007 28.3453 11.8727L17.1194 4C17.1194 4 24.1376 14.1882 30.076 24.3125C30.6793 25.3824 31.0763 26.5481 31.2668 27.7618C31.3462 28.3047 31.3462 28.8636 31.2668 29.4225C31.4256 29.1351 31.7273 28.5442 31.7273 28.5442C32.3307 27.3146 32.7435 25.9892 32.934 24.6319C33.0293 23.2106 33.0293 21.7734 32.8864 20.3362Z" fill="#1F774D"/>
<path d="M4.30573 12.735C4.65505 12.0963 5.14727 11.5374 5.75063 11.1381L15.8967 4.01599L5.49658 21.3103C5.49658 21.3103 4.59153 19.7614 4.22634 18.9789C3.33716 16.9828 3.36892 14.6992 4.30573 12.735ZM0.113909 24.6638C0.35208 28.0173 2.0034 31.0993 4.65505 33.1273L15.8809 41C15.8809 41 8.86274 30.8118 2.92433 20.6875C2.32096 19.6176 1.92401 18.4519 1.73348 17.2383C1.65408 16.6953 1.65408 16.1364 1.73348 15.5775C1.57469 15.8649 1.27301 16.4558 1.27301 16.4558C0.669642 17.6854 0.256812 19.0108 0.0662743 20.3682C-0.0289943 21.7894 -0.0289943 23.2426 0.113909 24.6638ZM28.7421 26.0371C28.3769 25.2547 27.4719 23.7057 27.4719 23.7057L17.0876 41L27.2337 33.8779C27.8371 33.4787 28.3293 32.9197 28.6786 32.281C29.6154 30.3168 29.6472 28.0333 28.7421 26.0371ZM32.8704 20.3522C32.6323 16.9987 30.9809 13.9167 28.3293 11.8887L17.1194 4.01599C17.1194 4.01599 24.1375 14.2042 30.0759 24.3285C30.6793 25.3984 31.0762 26.5641 31.2667 27.7777C31.3461 28.3207 31.3461 28.8796 31.2667 29.4385C31.4255 29.1511 31.7272 28.5602 31.7272 28.5602C32.3306 27.3306 32.7434 26.0052 32.9339 24.6478C33.0451 23.2106 33.0451 21.7734 32.9022 20.3362L32.8704 20.3522Z" fill="#1F774D"/>
<path d="M43.6359 32.2489V13.1182C43.6359 13.0703 43.6835 13.0224 43.7311 13.0224H55.8144C55.862 13.0224 55.9096 13.0703 55.9096 13.1182V15.5614C55.9096 15.6093 55.862 15.6572 55.8144 15.6572H46.5574V21.2943H54.4489C54.4965 21.2943 54.5441 21.3422 54.5441 21.3901V23.8014C54.5441 23.8493 54.4965 23.8972 54.4489 23.8972H46.5574V29.7099H55.8302C55.8779 29.7099 55.9255 29.7578 55.9255 29.8057V32.2489C55.9255 32.2969 55.8779 32.3448 55.8302 32.3448H43.747C43.6835 32.3448 43.6359 32.3128 43.6359 32.2489ZM73.709 32.2969L64.8649 18.7552V32.2489C64.8649 32.2969 64.8173 32.3448 64.7696 32.3448H62.0386C61.9909 32.3448 61.9433 32.2969 61.9433 32.2489V13.1341C61.9433 13.0862 61.9909 13.0383 62.0386 13.0383H64.5632C64.595 13.0383 64.6267 13.0543 64.6426 13.0862L73.5026 26.6119V13.1501C73.5026 13.1022 73.5502 13.0543 73.5978 13.0543H76.3289C76.3765 13.0543 76.4241 13.1022 76.4241 13.1501V32.2649C76.4241 32.3128 76.3765 32.3607 76.3289 32.3607H73.8043C73.7566 32.3448 73.7249 32.3288 73.709 32.2969ZM85.3476 28.64V29.5502C86.5226 29.8057 87.7135 29.9494 88.9043 29.9654C90.0793 29.9335 91.2543 29.8057 92.4134 29.5502V25.2226L82.5213 21.7414C82.4896 21.7254 82.4578 21.6935 82.4578 21.6456V13.6931C82.4578 13.6451 82.4737 13.6132 82.5213 13.5972C84.5855 13.0224 86.7131 12.703 88.8567 12.687C91.0002 12.7189 93.1438 13.0224 95.2238 13.5972C95.2714 13.6132 95.2873 13.6451 95.2873 13.6931V16.6952C95.2873 16.7431 95.2397 16.791 95.1921 16.791H92.5087C92.461 16.791 92.4134 16.7431 92.4134 16.6952V15.785C91.2384 15.5295 90.0476 15.3858 88.8567 15.3698C87.6817 15.3858 86.5067 15.5295 85.3476 15.785L85.3635 19.873L95.2238 23.3383C95.2556 23.3543 95.2873 23.3862 95.2873 23.4341V31.6421C95.2873 31.69 95.2714 31.722 95.2238 31.7379C93.1597 32.3128 91.032 32.6322 88.8885 32.6482C86.7449 32.6162 84.6014 32.3128 82.5213 31.7379C82.4737 31.722 82.4578 31.69 82.4578 31.6421V28.64C82.4578 28.5921 82.5055 28.5442 82.5531 28.5442H85.2206C85.2682 28.5282 85.3318 28.5601 85.3476 28.608C85.3476 28.6187 85.3476 28.6293 85.3476 28.64Z" fill="#1F774D"/>
</g>
<defs>
<clipPath id="clip0_2613_9">
<rect width="95" height="45" fill="white"/>
</clipPath>
</defs>
</svg>
