<svg width="129" height="51" viewBox="0 0 129 51" fill="none" xmlns="http://www.w3.org/2000/svg">
<path d="M5.85038 21.1076C6.34389 22.165 7.56693 24.2582 7.56693 24.2582L21.6212 0.887451L7.88879 10.512C7.07342 11.0515 6.40826 11.8067 5.93621 12.6699C4.67025 15.3242 4.6488 18.4101 5.85038 21.1076Z" fill="#1F774D"/>
<path d="M0.271527 28.7898C0.593381 33.3215 2.8249 37.4864 6.4082 40.227L21.5782 50.8658C21.5782 50.8658 12.0943 37.098 4.0694 23.4165C3.25404 21.9706 2.71761 20.3953 2.46013 18.7553C2.35285 18.0216 2.35285 17.2663 2.46013 16.511C2.24556 16.8994 1.83788 17.6979 1.83788 17.6979C1.02252 19.3595 0.464639 21.1506 0.207156 22.9849C0.0784151 24.9055 0.0784151 26.8692 0.271527 28.7898Z" fill="#1F774D"/>
<path d="M38.9798 30.6455C38.4863 29.5881 37.2632 27.4949 37.2632 27.4949L23.209 50.8656L36.9199 41.2411C37.7353 40.7016 38.4005 39.9463 38.8725 39.0831C40.1599 36.4073 40.1814 33.3214 38.9798 30.6455Z" fill="#1F774D"/>
<path d="M44.5586 22.9417C44.2367 18.41 42.0052 14.2451 38.4219 11.5045L23.2519 0.865723C23.2519 0.865723 32.7358 14.6335 40.7607 28.315C41.5761 29.7608 42.1125 31.3362 42.37 32.9762C42.4773 33.7099 42.4773 34.4652 42.37 35.2205C42.5846 34.8321 42.9922 34.0336 42.9922 34.0336C43.8076 32.372 44.3655 30.5809 44.623 28.7466C44.7517 26.826 44.7517 24.8838 44.5586 22.9417Z" fill="#1F774D"/>
<path d="M5.93615 12.6699C6.4082 11.8067 7.07336 11.0515 7.88872 10.512L21.5997 0.887451L7.54541 24.2582C7.54541 24.2582 6.32237 22.165 5.82886 21.1076C4.62728 18.4101 4.67019 15.3242 5.93615 12.6699ZM0.271527 28.7899C0.593381 33.3216 2.8249 37.4865 6.4082 40.2271L21.5782 50.8659C21.5782 50.8659 12.0943 37.0981 4.0694 23.4166C3.25404 21.9707 2.71761 20.3954 2.46013 18.7554C2.35285 18.0217 2.35285 17.2664 2.46013 16.5111C2.24556 16.8995 1.83788 17.698 1.83788 17.698C1.02252 19.3596 0.464639 21.1507 0.207156 22.985C0.0784151 24.9056 0.0784151 26.8693 0.271527 28.7899ZM38.9583 30.6458C38.4648 29.5884 37.2418 27.4951 37.2418 27.4951L23.2089 50.8659L36.9199 41.2414C37.7353 40.7019 38.4004 39.9466 38.8725 39.0834C40.1384 36.4291 40.1814 33.3432 38.9583 30.6458ZM44.5371 22.9634C44.2152 18.4317 41.9837 14.2668 38.4004 11.5262L23.2519 0.887451C23.2519 0.887451 32.7358 14.6553 40.7607 28.3367C41.576 29.7826 42.1125 31.3579 42.37 32.9979C42.4772 33.7316 42.4772 34.4869 42.37 35.2422C42.5845 34.8538 42.9922 34.0553 42.9922 34.0553C43.8076 32.3937 44.3654 30.6026 44.6229 28.7683C44.7731 26.8262 44.7731 24.884 44.58 22.9418L44.5371 22.9634Z" fill="#1F774D"/>
<path d="M59.0849 39.04V13.1876C59.0849 13.1229 59.1493 13.0582 59.2136 13.0582H75.5423C75.6067 13.0582 75.6711 13.1229 75.6711 13.1876V16.4893C75.6711 16.5541 75.6067 16.6188 75.5423 16.6188H63.033V24.2364H73.697C73.7614 24.2364 73.8258 24.3011 73.8258 24.3659V27.6244C73.8258 27.6891 73.7614 27.7539 73.697 27.7539H63.033V35.6089H75.5638C75.6282 35.6089 75.6925 35.6736 75.6925 35.7383V39.04C75.6925 39.1048 75.6282 39.1695 75.5638 39.1695H59.2351C59.1493 39.1695 59.0849 39.1263 59.0849 39.04ZM99.7243 39.1048L87.7728 20.8052V39.04C87.7728 39.1048 87.7084 39.1695 87.644 39.1695H83.9534C83.8891 39.1695 83.8247 39.1048 83.8247 39.04V13.2092C83.8247 13.1445 83.8891 13.0797 83.9534 13.0797H87.3651C87.408 13.0797 87.4509 13.1013 87.4724 13.1445L99.4453 31.4224V13.2308C99.4453 13.1661 99.5097 13.1013 99.5741 13.1013H103.265C103.329 13.1013 103.393 13.1661 103.393 13.2308V39.0616C103.393 39.1263 103.329 39.1911 103.265 39.1911H99.853C99.7886 39.1695 99.7457 39.1479 99.7243 39.1048ZM115.452 34.163V35.3931C117.04 35.7383 118.649 35.9326 120.258 35.9541C121.846 35.911 123.434 35.7383 125 35.3931V29.545L111.633 24.8406C111.59 24.819 111.547 24.7759 111.547 24.7112V13.9645C111.547 13.8998 111.568 13.8566 111.633 13.835C114.422 13.0582 117.297 12.6266 120.194 12.605C123.091 12.6481 125.987 13.0582 128.798 13.835C128.863 13.8566 128.884 13.8998 128.884 13.9645V18.0215C128.884 18.0862 128.82 18.1509 128.755 18.1509H125.129C125.065 18.1509 125 18.0862 125 18.0215V16.7914C123.413 16.4462 121.803 16.2519 120.194 16.2304C118.606 16.2519 117.019 16.4462 115.452 16.7914L115.474 22.3158L128.798 26.9986C128.841 27.0202 128.884 27.0633 128.884 27.1281V38.22C128.884 38.2847 128.863 38.3279 128.798 38.3495C126.009 39.1263 123.134 39.5579 120.237 39.5795C117.34 39.5364 114.444 39.1263 111.633 38.3495C111.568 38.3279 111.547 38.2847 111.547 38.22V34.163C111.547 34.0983 111.611 34.0335 111.676 34.0335H115.28C115.345 34.012 115.431 34.0551 115.452 34.1199C115.452 34.1343 115.452 34.1486 115.452 34.163Z" fill="#1F774D"/>
</svg>
