<svg xmlns="http://www.w3.org/2000/svg" width="82" height="10" fill="none" xmlnsV="https://vecta.io/nano"><g clip-path="url(#A)" fill="#000"><path d="M1.329 1.318H0v7.363h1.329V5.666h4V4.348h-4v-3.03zM6.657 10H1.329V8.682h5.328V10zm0-8.682H1.329V0h5.328v1.318zM11.991 10h-1.328V1.318H7.991V0h6.671v1.318h-2.671V10zM22.653 0h1.329v10h-1.329V5.666h-5.328V10h-1.328V0h1.328v4.348h5.328V0zm9.09 0l-1.118 1.667L29.506 0h2.237z"/><g fill-rule="evenodd"><path d="M31.743 3.333l1.118-1.667h-2.237-2.237l1.119 1.667h-2.237L28.387 5l-1.118 1.667h2.237l-1.119 1.667h2.237L29.506 10h2.237l-1.118-1.667h2.237l-1.118-1.667h2.237L32.861 5l1.118-1.667h-2.237zm0 0l-1.118-1.667-1.118 1.667L28.387 5l1.119 1.667 1.118 1.667 1.118-1.667L32.861 5l-1.118-1.667zM29.332 5l1.281-1.937L31.894 5l-1.281 1.938L29.332 5z"/></g><path d="M43.653 8.684V10h-5.28V8.684h5.28zM37.056.014h1.317v8.669h-1.317V.014zm10.553 1.317V.014h2.633v1.317h-2.633zm0 1.317h-1.317V1.331h1.317v1.317zm5.266 0V10h-1.316V6.989h-5.266V10h-1.316V2.647h1.316v3.025h5.266V2.647h1.316zm-2.633 0V1.331h1.316v1.317h-1.316zM56.897 10h1.331V1.12h3.333V0h-7.997v1.12h3.333V10zm7.972-8.669V.014h2.633v1.317h-2.633zm0 1.317h-1.316V1.331h1.316v1.317zm5.266 0V10h-1.316V6.989h-5.266V10h-1.316V2.647h1.316v3.025h5.266V2.647h1.316zm-2.633 0V1.331h1.317v1.317h-1.317zM71.917 10h1.26V1.681h.028L76.329 10h1.135l3.123-8.319h.028V10h1.26V0h-1.821l-3.165 8.403L73.738 0h-1.821v10z"/></g><defs><clipPath id="A"><path fill="#fff" d="M0 0h81.875v10H0z"/></clipPath></defs></svg>