<svg xmlns="http://www.w3.org/2000/svg" width="92" height="25" fill="none" xmlnsV="https://vecta.io/nano"><style>.B{fillRule:evenodd}</style><g fill="#000"><path d="M24.477 13.474V4.816h6.194v1.403H26.11V8.54h4.109v1.403H26.11v3.538h-1.632v-.006z"/><path d="M32.304 5.809V4.345h1.533v1.465h-1.533zm0 7.665V6.833h1.533v6.641h-1.533z" class="B"/><path d="M35.786 13.474v-9.13h1.533v9.13h-1.533z"/><path d="M42.098 13.623c-.701 0-1.291-.124-1.756-.372a2.34 2.34 0 0 1-1.055-1.142c-.236-.515-.354-1.167-.354-1.955s.118-1.452.354-1.961.584-.888 1.055-1.136 1.055-.372 1.756-.372c.639 0 1.173.118 1.601.36s.757.608.974 1.105.329 1.142.329 1.93v.453h-4.5c.019.41.081.757.186 1.043.112.279.279.49.509.633.23.136.534.211.912.211a1.89 1.89 0 0 0 .54-.075c.168-.05.316-.13.441-.236s.223-.236.298-.397c.068-.161.105-.348.105-.559h1.508c0 .422-.075.788-.217 1.098-.149.31-.354.571-.614.77-.267.205-.571.354-.925.453a4.2 4.2 0 0 1-1.142.149h-.006zm-1.57-4.177h2.88c0-.279-.031-.515-.093-.708s-.149-.354-.261-.478-.248-.217-.41-.273-.341-.081-.54-.081c-.329 0-.602.056-.826.161a1.14 1.14 0 0 0-.509.503c-.118.23-.199.515-.236.869l-.006.006z" class="B"/><path d="M49.378 13.623c-.689 0-1.26-.124-1.713-.372-.459-.248-.801-.627-1.024-1.142s-.341-1.167-.341-1.955.118-1.452.348-1.961.571-.888 1.03-1.136 1.024-.372 1.701-.372c.447 0 .838.056 1.179.161.341.112.639.273.888.497s.434.497.559.825.186.714.186 1.148h-1.558c0-.31-.043-.571-.137-.77a.95.95 0 0 0-.422-.459c-.186-.106-.428-.155-.72-.155-.341 0-.627.081-.844.242s-.379.397-.484.714-.155.714-.155 1.192v.161c0 .472.05.869.155 1.185.105.323.273.559.497.714s.521.236.894.236c.285 0 .521-.05.708-.155s.335-.261.434-.472a1.77 1.77 0 0 0 .149-.757h1.483c0 .41-.062.782-.186 1.111a2.15 2.15 0 0 1-.552.832c-.242.23-.54.397-.888.515s-.745.174-1.185.174h0z"/><path d="M56.745 13.623c-.72 0-1.322-.124-1.806-.372s-.85-.627-1.092-1.142-.366-1.167-.366-1.955.124-1.452.366-1.961.608-.888 1.092-1.136 1.086-.372 1.806-.372 1.334.124 1.812.372c.484.248.844.627 1.086 1.136s.366 1.167.366 1.961-.124 1.446-.366 1.955a2.37 2.37 0 0 1-1.086 1.142c-.484.248-1.086.372-1.812.372zm0-1.26c.403 0 .726-.081.974-.236s.428-.391.54-.708.168-.707.168-1.179v-.174c0-.472-.056-.863-.168-1.179s-.292-.552-.54-.708-.571-.236-.974-.236-.726.081-.974.236-.428.391-.54.708-.168.708-.168 1.179v.174c0 .472.056.863.168 1.179s.292.552.54.708.571.236.974.236zm4.891-6.554V4.345h1.533V5.81h-1.533zm0 7.665V6.833h1.533v6.641h-1.533z" class="B"/><path d="M65.111 13.474V6.833h1.279l.124.881h.087a2.56 2.56 0 0 1 .534-.534 2.43 2.43 0 0 1 .701-.366c.261-.087.552-.13.875-.13.416 0 .788.074 1.111.23a1.63 1.63 0 0 1 .757.732c.186.335.273.788.273 1.353v4.481h-1.545V9.279a1.78 1.78 0 0 0-.081-.59 1.01 1.01 0 0 0-.236-.379.93.93 0 0 0-.385-.211 1.82 1.82 0 0 0-.503-.062 1.37 1.37 0 0 0-.745.205c-.223.137-.397.323-.528.559s-.192.509-.192.819v3.867h-1.533l.006-.012zM24.477 24.839v-8.664h6.194v1.403H26.11v2.321h4.109v1.403H26.11v3.538h-1.632z"/><path d="M34.867 24.994c-.72 0-1.322-.124-1.806-.372s-.85-.627-1.092-1.142-.366-1.167-.366-1.955.124-1.452.366-1.961.608-.887 1.092-1.136 1.086-.372 1.806-.372 1.334.124 1.812.372c.484.248.844.627 1.086 1.136s.366 1.167.366 1.961-.124 1.446-.366 1.955a2.4 2.4 0 0 1-1.086 1.142c-.484.248-1.086.372-1.812.372h0zm0-1.26c.404 0 .726-.081.974-.236s.428-.391.54-.708.168-.708.168-1.179v-.174c0-.472-.056-.863-.168-1.179s-.292-.552-.54-.708-.571-.236-.974-.236-.726.081-.974.236-.428.391-.54.708-.167.708-.167 1.179v.174c0 .472.056.863.167 1.179s.292.552.54.708.571.236.974.236z" class="B"/><path d="M41.849 24.988c-.639 0-1.154-.174-1.552-.521s-.596-.943-.596-1.788v-4.481h1.533V22.4c0 .236.025.428.081.59a1.01 1.01 0 0 0 .236.379.89.89 0 0 0 .385.211 1.8 1.8 0 0 0 .503.062 1.37 1.37 0 0 0 .745-.205 1.46 1.46 0 0 0 .528-.565c.131-.242.192-.509.192-.813v-3.867h1.533v6.641h-1.266l-.124-.881h-.087a2.56 2.56 0 0 1-.534.534 2.43 2.43 0 0 1-.701.366 2.78 2.78 0 0 1-.875.13v.006zm5.543-.149v-6.641h1.279l.124.881h.087a2.55 2.55 0 0 1 .534-.534c.205-.155.441-.279.701-.366a2.76 2.76 0 0 1 .875-.13c.416 0 .788.075 1.111.23a1.63 1.63 0 0 1 .757.732c.186.335.279.788.279 1.353v4.481h-1.545v-4.202c0-.236-.025-.428-.081-.59a1.01 1.01 0 0 0-.236-.379.89.89 0 0 0-.385-.211 1.8 1.8 0 0 0-.503-.062 1.38 1.38 0 0 0-.745.205c-.223.137-.397.323-.527.559s-.192.509-.192.819v3.867h-1.533v-.012z"/><path d="M57.335 24.994c-.534 0-.999-.124-1.396-.366-.391-.242-.695-.621-.912-1.136-.211-.515-.323-1.173-.323-1.98s.112-1.452.329-1.961.521-.887.906-1.13.819-.366 1.31-.366a3.2 3.2 0 0 1 .832.099 1.99 1.99 0 0 1 .664.31c.192.136.354.31.49.509h.075v-3.258h1.533v9.13h-1.266l-.124-.881h-.087a1.97 1.97 0 0 1-.85.776c-.354.174-.745.261-1.173.261l-.006-.006zm.478-1.328c.354 0 .639-.081.856-.242a1.41 1.41 0 0 0 .484-.695c.105-.304.155-.677.155-1.111v-.161a4.2 4.2 0 0 0-.087-.881c-.056-.261-.149-.478-.267-.658a1.21 1.21 0 0 0-.465-.403c-.186-.093-.41-.137-.67-.137-.379 0-.677.075-.9.224s-.379.372-.478.683-.143.695-.143 1.167v.174c0 .465.05.844.143 1.148a1.2 1.2 0 0 0 .478.677c.223.149.521.224.9.224l-.006-.006zm6.672 1.328c-.186 0-.397-.025-.633-.068a2.05 2.05 0 0 1-.689-.261c-.223-.124-.403-.317-.546-.565s-.211-.577-.211-.981c0-.453.099-.832.304-1.13.199-.298.484-.534.85-.708s.801-.292 1.31-.366 1.061-.105 1.663-.105v-.54a1.47 1.47 0 0 0-.087-.515c-.062-.149-.168-.273-.323-.36s-.385-.13-.695-.13-.552.037-.726.112-.298.168-.366.279-.099.223-.099.341v.174h-1.483l-.012-.124v-.149c0-.379.112-.708.341-.987.224-.279.54-.49.943-.639s.869-.223 1.396-.223c.602 0 1.099.087 1.49.255s.683.41.875.72.292.689.292 1.136v3.134c0 .161.043.273.136.341s.192.099.304.099h.403v1.061c-.081.031-.205.075-.366.118a2.26 2.26 0 0 1-.59.068c-.217 0-.41-.037-.583-.105s-.317-.174-.434-.31a1.28 1.28 0 0 1-.255-.478h-.074c-.143.174-.31.335-.509.472a2.35 2.35 0 0 1-.689.323c-.261.075-.565.112-.912.112h-.025zm.465-1.266c.248 0 .472-.037.67-.112a1.29 1.29 0 0 0 .49-.317 1.46 1.46 0 0 0 .304-.49 1.88 1.88 0 0 0 .106-.633v-.304a8.92 8.92 0 0 0-1.272.087c-.391.056-.701.168-.931.329a.78.78 0 0 0-.347.683.76.76 0 0 0 .106.397c.075.112.18.205.329.267s.329.093.546.093z" class="B"/><path d="M71.833 24.988c-.41 0-.732-.081-.968-.248a1.31 1.31 0 0 1-.496-.633c-.093-.255-.143-.521-.143-.788v-3.867h-.788v-1.26h.826l.273-1.856h1.216v1.856h1.142v1.26h-1.142v3.712c0 .174.044.316.137.41.093.099.23.143.416.143h.59v1.061c-.087.031-.186.062-.31.093s-.248.056-.385.074-.261.031-.379.031l.012.012z"/><path d="M74.347 17.174v-1.465h1.533v1.465h-1.533zm0 7.665v-6.641h1.533v6.641h-1.533zm6.417.155c-.72 0-1.322-.124-1.806-.372s-.85-.627-1.092-1.142-.366-1.167-.366-1.955.124-1.452.366-1.961a2.4 2.4 0 0 1 1.092-1.136c.484-.249 1.086-.372 1.806-.372s1.334.124 1.812.372c.484.248.844.627 1.086 1.136s.366 1.167.366 1.961-.118 1.446-.366 1.955a2.37 2.37 0 0 1-1.086 1.142c-.484.248-1.086.372-1.812.372h0zm0-1.26c.403 0 .726-.081.974-.236s.428-.391.54-.708.168-.708.168-1.179v-.174c0-.472-.056-.863-.168-1.179s-.292-.552-.54-.708-.571-.236-.974-.236-.726.081-.974.236-.428.391-.54.708-.168.708-.168 1.179v.174c0 .472.056.863.168 1.179s.292.552.54.708.571.236.974.236z" class="B"/><path d="M85.649 24.839v-6.641h1.279l.124.881h.087a2.55 2.55 0 0 1 .534-.534c.205-.155.441-.279.701-.366a2.76 2.76 0 0 1 .875-.13c.416 0 .788.075 1.111.23a1.63 1.63 0 0 1 .757.732c.186.335.273.788.273 1.353v4.481h-1.546v-4.202c0-.236-.025-.428-.081-.59a1.01 1.01 0 0 0-.236-.379.93.93 0 0 0-.385-.211 1.8 1.8 0 0 0-.503-.062 1.37 1.37 0 0 0-.745.205c-.223.137-.397.323-.528.559s-.192.509-.192.819v3.867h-1.533l.006-.012zM14.739 0c-.41 0-1.67 0-3.19 1.446-1.415 1.347-2.203 3.743-2.408 4.444l-.012.043-.155.521c-1.347.012-2.421.422-2.799.639-1.235.614-3.507 2.601-3.246 5.698.261 3.078 2.408 4.68 3.532 5.108l-.664 2.582-.068.242a11.86 11.86 0 0 1-.776 1.967c-.403.801-1.13 1.117-1.459 1.173-.372.074-.67.037-.875-.106a.76.76 0 0 1-.186-.211c-.05-.081-.074-.174-.087-.267-.093-.788-.583-1.204-.869-1.285-.379-.099-.695-.056-.931.13-.112.093-.205.211-.267.348a1.03 1.03 0 0 0-.099.428c0 1.502 1.837 1.918 2.805 1.924.41 0 1.67 0 3.19-1.446 1.409-1.341 2.284-3.829 2.551-4.978 3.289-.031 5.046-2.172 5.511-3.302.36-.646.888-2.408.335-4.481-.552-2.054-2.414-3.277-3.345-3.649l.273-1.03v-.025l.434-1.57.068-.242a11.89 11.89 0 0 1 .776-1.967c.403-.801 1.13-1.117 1.458-1.173.372-.074.67-.037.875.112a.67.67 0 0 1 .186.211.59.59 0 0 1 .087.267c.099.788.583 1.204.869 1.285.379.099.695.056.931-.13.112-.093.205-.211.267-.348a1.01 1.01 0 0 0 .099-.428C17.55.422 15.707.006 14.739 0h0zM8.613 7.951l-1.831 8.453c-1.167-.577-3.054-2.439-2.141-5.487.254-.919 1.409-2.712 3.972-2.967h0zm4.68 5.356c-.602 2.855-2.923 3.587-4.158 3.587h-.062l1.85-8.515c2.464 1.44 2.632 3.848 2.371 4.928z"/></g></svg>