<svg width="853" height="533" viewBox="0 0 853 533" fill="none" xmlns="http://www.w3.org/2000/svg">
<g id="Flower">
<path id="Vector" d="M546.428 246.358C546.428 382.139 426.365 492.187 426.365 492.187C426.365 492.187 306.301 382.139 306.301 246.358C306.301 110.578 426.305 0.529663 426.305 0.529663C426.305 0.529663 546.368 110.578 546.368 246.358H546.428Z" stroke="#0E0333" stroke-linecap="round" stroke-linejoin="round"/>
<path id="Vector_2" d="M445.029 219.25C377.19 336.839 426.125 492.187 426.125 492.187C426.125 492.187 585.132 456.941 652.971 339.352C720.809 221.764 671.875 66.4152 671.875 66.4152C671.875 66.4152 512.867 101.662 445.029 219.25Z" stroke="#0E0333" stroke-linecap="round" stroke-linejoin="round"/>
<path id="Vector_3" d="M407.574 218.601C475.412 336.19 426.478 491.538 426.478 491.538C426.478 491.538 267.47 456.292 199.632 338.703C131.793 221.115 180.728 65.7661 180.728 65.7661C180.728 65.7661 339.735 101.013 407.574 218.601Z" stroke="#0E0333" stroke-linecap="round" stroke-linejoin="round"/>
<path id="Vector_4" d="M273.518 265.268C391.069 333.129 426.304 492.187 426.304 492.187C426.304 492.187 270.946 541.197 153.455 473.277C35.9043 405.417 0.668945 246.358 0.668945 246.358C0.668945 246.358 156.027 197.348 273.518 265.268V265.268Z" stroke="#0E0333" stroke-linecap="round" stroke-linejoin="round"/>
<path id="Vector_5" d="M579.151 265.268C461.6 333.129 426.365 492.187 426.365 492.187C426.365 492.187 581.723 541.197 699.214 473.277C816.765 405.417 852 246.358 852 246.358C852 246.358 696.642 197.348 579.151 265.268Z" stroke="#0E0333" stroke-linecap="round" stroke-linejoin="round"/>
<path id="Vector_6" d="M426.304 531.623C448.076 531.623 465.727 513.967 465.727 492.187C465.727 470.408 448.076 452.752 426.304 452.752C404.531 452.752 386.881 470.408 386.881 492.187C386.881 513.967 404.531 531.623 426.304 531.623Z" fill="#FFE921" stroke="#0E0333" stroke-miterlimit="10"/>
</g>
</svg>
