<svg xmlns="http://www.w3.org/2000/svg" width="170" height="88" fill="none" xmlnsV="https://vecta.io/nano"><mask id="A" maskUnits="userSpaceOnUse" x="60" y="15" width="45" height="56" mask-type="alpha"><path d="M103.367 34.705c.583-.006 1.114.331 1.358.854.264.567.182 1.189-.154 1.611L78.708 69.644c-.178.189-.333.314-.552.416-.438.204-.913.213-1.338-.013-.618-.296-1.008-1.017-.814-1.743l4.655-17.874-19.153.059a1.48 1.48 0 0 1-1.358-.853c-.244-.523-.182-1.189.154-1.61l25.884-32.431c.427-.57 1.188-.765 1.826-.426.662.276 1.007 1.017.858 1.723l-4.655 17.874 19.153-.059z" fill="#fff"/></mask><g mask="url(#A)"><path d="M103.381 34.543a1.47 1.47 0 0 1 1.346.846c.262.562.18 1.179-.153 1.597L78.925 69.192c-.177.188-.33.311-.547.413-.434.202-.905.211-1.327-.013-.613-.294-.999-1.008-.807-1.729l4.616-17.726-18.995.059a1.47 1.47 0 0 1-1.346-.847c-.242-.518-.181-1.179.153-1.597l25.67-32.163c.423-.565 1.178-.759 1.811-.422.656.273.999 1.008.85 1.709l-4.616 17.727 18.995-.059z" fill="#fff"/></g><mask id="B" maskUnits="userSpaceOnUse" x="60" y="15" width="49" height="58" mask-type="alpha"><path d="M103.438 35.334c.583-.006 5.161 2.457 5.405 2.98.264.567.182 1.189-.154 1.61L82.826 72.398c-.178.189-.333.314-.552.416-.438.204-.913.213-1.338-.014-.618-.296-4.439-3.427-4.246-4.153l8.331-13.559H66.879c-.583.006-6.374-5.583-6.038-6.005l25.964-33.086c.848-1.062 4.686 1.584 5.324 1.924.661.276 1.007 1.016.858 1.723l-4.655 17.874 15.106-2.185z" fill="#fff"/></mask><g mask="url(#B)"><path d="M103.438 35.334c.583-.006 5.161 2.457 5.405 2.98.264.567.182 1.189-.154 1.61L82.826 72.398c-.178.189-.333.314-.552.416-.438.204-.913.213-1.338-.014-.618-.296-4.439-3.427-4.246-4.153l8.331-13.559H66.879c-.583.006-6.374-5.583-6.038-6.005l25.964-33.086c.848-1.062 4.686 1.584 5.324 1.924.661.276 1.007 1.016.858 1.723l-4.655 17.874 15.106-2.185z" stroke="#fff" stroke-width=".931"/></g></svg>