<svg width="121" height="40" viewBox="0 0 121 40" fill="none" xmlns="http://www.w3.org/2000/svg">
<path d="M31.2492 32.0841C29.5122 30.6525 23.503 25.8647 22.7046 25.2281C23.1576 24.3739 23.3907 23.4208 23.3832 22.4545C23.3756 21.4882 23.1275 20.5389 22.6612 19.6919L29.3418 14.644L31.2959 13.0625C31.7769 12.7442 31.8554 12.3959 31.5064 11.931C31.0511 11.334 30.5585 10.7662 30.0316 10.2311C27.1447 7.29537 23.3109 5.47207 19.2073 5.08327V1.72692C19.2133 1.29655 19.056 0.879848 18.767 0.560298C18.478 0.240748 18.0787 0.0419537 17.6491 0.0037451C17.4205 -0.0115697 17.1913 0.020193 16.9755 0.0970583C16.7598 0.173924 16.5622 0.294248 16.3951 0.450552C16.2279 0.606855 16.0948 0.795794 16.004 1.00562C15.9131 1.21545 15.8665 1.44169 15.867 1.67026V5.08327C14.4426 5.21745 13.0402 5.52642 11.6916 6.00318V1.72692C11.6976 1.29655 11.5403 0.879848 11.2513 0.560298C10.9623 0.240748 10.563 0.0419537 10.1334 0.0037451C9.90482 -0.0115697 9.67555 0.020193 9.45982 0.0970583C9.24409 0.173924 9.04652 0.294248 8.87938 0.450552C8.71224 0.606855 8.57911 0.795794 8.48826 1.00562C8.39742 1.21545 8.35081 1.44169 8.35132 1.67026V7.5947C5.81948 9.14805 3.72483 11.318 2.26409 13.9008C0.803354 16.4836 0.0244552 19.3944 0.000541828 22.36C-0.0762854 32.0624 8.02731 40 17.751 40H30.7314C30.9681 39.9998 31.197 39.916 31.3776 39.7635C31.5583 39.6109 31.679 39.3996 31.7185 39.1667L31.7318 33.114C31.7324 32.9174 31.6895 32.7232 31.606 32.5451C31.5226 32.3671 31.4007 32.2096 31.2492 32.0841ZM28.3932 36.667H17.7125C9.86281 36.667 3.30244 30.2609 3.3492 22.43C3.35666 20.3879 3.80771 18.3718 4.67125 16.5204C5.5348 14.6691 6.79033 13.0265 8.35132 11.706V14.9457C8.34541 15.376 8.50269 15.7927 8.79166 16.1123C9.08062 16.4318 9.47993 16.6306 9.90958 16.6689C10.1381 16.6842 10.3674 16.6524 10.5831 16.5755C10.7989 16.4987 10.9964 16.3783 11.1636 16.222C11.3307 16.0657 11.4639 15.8768 11.5547 15.667C11.6455 15.4571 11.6922 15.2309 11.6916 15.0023V9.59451C13.5278 8.76352 15.521 8.3345 17.5372 8.3363C21.2717 8.3363 24.4182 9.57285 26.9535 11.9243L20.1343 17.2771C19.2414 16.8351 18.2501 16.6282 17.2546 16.676C16.259 16.7239 15.2922 17.025 14.4461 17.5507C13.6001 18.0765 12.9027 18.8093 12.4204 19.6797C11.9381 20.55 11.6869 21.529 11.6905 22.5235C11.6942 23.518 11.9527 24.4951 12.4414 25.3619C12.9301 26.2287 13.6328 26.9564 14.4827 27.4759C15.3326 27.9954 16.3016 28.2894 17.2975 28.33C18.2934 28.3706 19.2831 28.1564 20.1727 27.7078L20.0875 27.7845L28.3932 34.1672V36.667ZM20.0424 22.5016C20.0424 22.996 19.8955 23.4793 19.6202 23.8904C19.3449 24.3015 18.9537 24.6219 18.4959 24.8111C18.0381 25.0003 17.5344 25.0498 17.0484 24.9534C16.5625 24.8569 16.1161 24.6188 15.7657 24.2692C15.4153 23.9196 15.1768 23.4742 15.0801 22.9893C14.9834 22.5044 15.033 22.0018 15.2226 21.545C15.4123 21.0882 15.7334 20.6978 16.1453 20.4232C16.5573 20.1485 17.0417 20.0019 17.5372 20.0019C18.2016 20.0019 18.8388 20.2652 19.3087 20.734C19.7785 21.2028 20.0424 21.8387 20.0424 22.5016Z" fill="white"/>
<path d="M28.3745 22.6214C28.3769 24.7225 27.7578 26.7792 26.5922 28.5419C27.4893 29.2483 28.4103 29.9731 29.2206 30.6145C30.8427 28.2784 31.7171 25.5204 31.7316 22.6937C31.7462 19.8671 30.9003 17.1006 29.3023 14.7485L26.6262 16.741C27.7723 18.4958 28.3792 20.5372 28.3745 22.6214Z" fill="white"/>
<path d="M47.1232 21.7513H53.1537C53.1537 22.3835 53.1279 22.9577 53.0762 23.474C53.0244 23.9902 52.9211 24.4696 52.7661 24.9121C52.5491 25.5338 52.2545 26.0869 51.8825 26.5716C51.5104 27.0458 51.0711 27.4461 50.5647 27.7728C50.0687 28.0888 49.5209 28.3312 48.9214 28.4997C48.3221 28.6683 47.6916 28.7526 47.0301 28.7526C46.1206 28.7526 45.2887 28.5999 44.5342 28.2943C43.7901 27.9888 43.1493 27.562 42.6119 27.0141C42.0745 26.4558 41.6559 25.7919 41.3562 25.0228C41.0564 24.2431 40.9066 23.3844 40.9066 22.4467C40.9066 21.5195 41.0513 20.6713 41.3407 19.9022C41.6404 19.1225 42.059 18.4587 42.5964 17.9108C43.1441 17.363 43.8005 16.9362 44.5653 16.6307C45.3301 16.3251 46.1827 16.1724 47.1232 16.1724C48.3427 16.1724 49.4123 16.4411 50.3322 16.9784C51.252 17.5157 51.9806 18.3481 52.5181 19.4755L49.6346 20.6925C49.3659 20.0391 49.0145 19.5703 48.5804 19.2858C48.1566 19.0014 47.6709 18.8591 47.1232 18.8591C46.6684 18.8591 46.255 18.9487 45.883 19.1277C45.5109 19.2964 45.1905 19.544 44.9218 19.8706C44.6634 20.1867 44.4567 20.5712 44.3017 21.0243C44.157 21.4773 44.0847 21.9831 44.0847 22.5416C44.0847 23.0472 44.1467 23.5161 44.2707 23.9481C44.405 24.3801 44.6014 24.7541 44.8598 25.0702C45.1182 25.3863 45.4385 25.6339 45.821 25.813C46.2033 25.9816 46.6478 26.0659 47.1542 26.0659C47.4539 26.0659 47.7432 26.0343 48.0223 25.9711C48.3013 25.8973 48.5494 25.7866 48.7664 25.6392C48.9938 25.4811 49.1798 25.281 49.3245 25.0386C49.4692 24.7963 49.5674 24.5012 49.619 24.1536H47.1232V21.7513Z" fill="white"/>
<path d="M59.6631 16.4236V28.34H56.6245V16.4236H59.6631Z" fill="white"/>
<path d="M68.0889 19.0471V28.34H65.0504V19.0471H62.5544V16.4236H70.5849V19.0471H68.0889Z" fill="white"/>
<path d="M81.7986 20.487C81.0957 19.6124 80.2276 19.1752 79.1941 19.1752C78.7394 19.1752 78.3156 19.2595 77.9229 19.428C77.5404 19.5967 77.2098 19.8285 76.9307 20.1235C76.6517 20.408 76.4294 20.7504 76.2641 21.1507C76.1091 21.5511 76.0316 21.9831 76.0316 22.4467C76.0316 22.9208 76.1091 23.358 76.2641 23.7585C76.4294 24.1588 76.6517 24.5065 76.9307 24.8015C77.2201 25.0965 77.556 25.3284 77.9384 25.4969C78.3208 25.6655 78.7342 25.7498 79.1786 25.7498C80.1501 25.7498 81.0233 25.3284 81.7986 24.4854V28.152L81.4884 28.2627C81.0233 28.4313 80.5893 28.5525 80.1862 28.6262C79.7832 28.7105 79.3853 28.7526 78.9925 28.7526C78.1864 28.7526 77.4113 28.5999 76.6672 28.2943C75.9333 27.9782 75.2823 27.5409 74.7138 26.9825C74.1558 26.4135 73.7061 25.7445 73.3651 24.9754C73.0241 24.1957 72.8535 23.3475 72.8535 22.4309C72.8535 21.5142 73.0189 20.6766 73.3496 19.918C73.6906 19.1488 74.1403 18.4903 74.6984 17.9424C75.2668 17.3841 75.923 16.952 76.6672 16.6465C77.4113 16.3304 78.1916 16.1724 79.008 16.1724C79.4731 16.1724 79.9279 16.2251 80.3723 16.3304C80.8271 16.4252 81.3024 16.578 81.7986 16.7888V20.487Z" fill="white"/>
<path d="M88.0886 22.4625C88.0886 22.9366 88.1764 23.3738 88.3522 23.7743C88.5278 24.1746 88.7656 24.5223 89.0653 24.8173C89.365 25.1123 89.7112 25.3442 90.1039 25.5127C90.507 25.6708 90.9308 25.7498 91.3751 25.7498C91.8195 25.7498 92.2381 25.6708 92.6308 25.5127C93.0339 25.3442 93.3853 25.1123 93.685 24.8173C93.9951 24.5223 94.2379 24.1746 94.4137 23.7743C94.5893 23.3738 94.6772 22.9366 94.6772 22.4625C94.6772 21.9884 94.5893 21.5511 94.4137 21.1507C94.2379 20.7504 93.9951 20.4027 93.685 20.1077C93.3853 19.8127 93.0339 19.5861 92.6308 19.428C92.2381 19.2595 91.8195 19.1752 91.3751 19.1752C90.9308 19.1752 90.507 19.2595 90.1039 19.428C89.7112 19.5861 89.365 19.8127 89.0653 20.1077C88.7656 20.4027 88.5278 20.7504 88.3522 21.1507C88.1764 21.5511 88.0886 21.9884 88.0886 22.4625ZM84.9105 22.4625C84.9105 21.5774 85.0707 20.7557 85.3911 19.997C85.7116 19.2279 86.1559 18.5588 86.7243 17.9899C87.2928 17.4209 87.9697 16.9784 88.7552 16.6623C89.551 16.3357 90.4243 16.1724 91.3751 16.1724C92.3157 16.1724 93.1838 16.3357 93.9796 16.6623C94.7754 16.9784 95.4575 17.4209 96.0259 17.9899C96.6047 18.5588 97.0543 19.2279 97.3746 19.997C97.695 20.7557 97.8552 21.5774 97.8552 22.4625C97.8552 23.3475 97.695 24.1746 97.3746 24.9438C97.0543 25.7024 96.6047 26.3661 96.0259 26.9351C95.4575 27.5041 94.7754 27.9519 93.9796 28.2785C93.1838 28.5946 92.3157 28.7526 91.3751 28.7526C90.4243 28.7526 89.551 28.5946 88.7552 28.2785C87.9697 27.9519 87.2928 27.5041 86.7243 26.9351C86.1559 26.3661 85.7116 25.7024 85.3911 24.9438C85.0707 24.1746 84.9105 23.3475 84.9105 22.4625Z" fill="white"/>
<path d="M104.363 16.4236V28.34H101.325V16.4236H104.363Z" fill="white"/>
<path d="M108.356 28.34V16.4236H111.394L117.006 23.7094V16.4236H120.029V28.34H117.006L111.394 21.0542V28.34H108.356Z" fill="white"/>
</svg>
