<svg width="759" height="697" viewBox="0 0 759 697" fill="none" xmlns="http://www.w3.org/2000/svg">
<path d="M0.767245 371.458C0.0742535 363.712 2.57926 336.208 13.4312 328.952C13.797 328.711 14.1945 328.516 14.6038 328.376C20.062 326.538 23.7338 329.933 25.7008 331.744L26.183 332.185C28.6755 334.614 31.0222 337.422 32.9978 339.868C37.3975 344.521 41.1766 347.955 44.8749 350.643L45.4433 350.965L48.2126 351.154C49.6306 350.847 51.2926 350.408 52.377 350.006C52.4438 349.979 52.5112 349.959 52.5779 349.933C54.7419 349.075 58.0256 347.59 59.7455 346.716C59.8385 346.673 59.9246 346.631 60.0176 346.588C60.731 346.213 61.4499 345.823 62.1751 345.426C62.2344 345.393 62.2869 345.361 62.3462 345.328L62.4385 345.278C69.3438 341.448 76.7418 336.633 83.6632 331.439C83.7412 331.383 83.8186 331.321 83.9041 331.272C91.2553 325.623 99.365 318.405 105.76 311.81C105.867 311.697 105.982 311.59 106.098 311.49C106.857 310.695 107.609 309.901 108.353 309.094C108.499 308.873 108.66 308.665 108.85 308.468L110.81 306.34C110.892 306.25 110.981 306.159 111.07 306.075C129.263 285.328 141.457 260.841 145.687 236.304C145.697 236.262 145.7 236.22 145.71 236.178C149.298 215.748 149.607 192.456 146.609 168.766C146.603 168.698 146.583 168.63 146.577 168.562C145.105 157.597 142.545 145.45 139.7 135.903C139.672 135.829 139.652 135.755 139.624 135.681C137.813 129.814 135.018 122.768 132.603 117.959C132.563 117.893 132.529 117.827 132.495 117.754C131.506 115.828 129.068 112.073 127.724 110.269L125.706 107.971L123.498 106.009L122.909 105.619C122.424 105.295 121.858 104.917 121.468 104.654C120.793 104.306 119.699 103.899 118.519 103.547L116.737 103.34L114.717 103.41C113.604 103.565 112.005 103.943 110.65 104.334C110.623 104.344 110.597 104.353 110.57 104.369C109.177 104.874 106.631 106.023 104.906 106.918C104.854 106.95 104.794 106.983 104.742 107.016C101.015 109.107 96.4475 112.478 92.1679 116.281L89.4959 118.804C80.678 127.616 72.5796 138.903 66.0605 151.455C66.0605 151.455 66.0605 151.455 66.0611 151.462C66.0492 151.483 66.0379 151.512 66.0192 151.535C58.6222 165.251 51.7362 179.808 45.0771 193.888L39.345 205.961C37.1098 210.66 34.5774 215.981 31.8719 220.218C30.2362 223.347 27.458 227.389 23.3972 229.386C22.3444 229.909 20.827 229.955 19.6936 229.655C17.7341 229.166 17.2946 229.046 16.7156 228.759C15.9553 228.377 15.3025 227.805 14.8307 227.093C7.70873 216.44 8.18788 192.807 8.50403 177.169C8.54624 175.013 8.5907 173.036 8.60617 171.276C9.11487 141.48 15.3813 124.867 34.3943 102.926L34.7122 102.538C51.2912 80.9874 64.4423 55.909 74.0635 36.4417C74.081 36.4056 74.0985 36.3694 74.1161 36.3332C75.4848 33.698 76.8256 30.9823 78.1708 28.2385C85.1761 14.0099 93.112 -2.10858 108.244 -11.2289C114.906 -14.8429 121.42 -15.3149 126.604 -12.5668C131.78 -9.82497 135.052 -4.1717 135.822 3.35291C136.887 13.7861 134.366 24.2564 131.757 33.1353C131.757 33.1353 131.759 33.1491 131.752 33.1497L130.47 37.5284C130.113 39.1108 129.671 41.1993 129.505 42.6678L129.546 45.8275L129.716 46.4145L134.091 46.923C134.091 46.923 134.118 46.9205 134.125 46.9199C137.296 46.657 141.058 46.1059 144.16 45.4545C172.458 38.8597 200.001 26.6147 223.667 15.4781C235.833 9.61343 246.319 3.91979 254.884 -1.46342C254.898 -1.46465 254.903 -1.47902 254.916 -1.48712C262.504 -6.42301 271.915 -13.1626 277.701 -21.6959L279.069 -24.0333C279.573 -25.0475 280.201 -26.6127 280.616 -27.8405L280.994 -29.8055C281.043 -30.3428 281.047 -31.1462 280.994 -32.0483L280.696 -33.5236L280.118 -35.2648C279.907 -35.7651 279.185 -37.1195 278.338 -38.5389C277.322 -40.0816 275.55 -42.2627 273.521 -44.4554C273.483 -44.4936 273.446 -44.5249 273.407 -44.5699C271.312 -46.729 268.071 -49.4848 265.729 -51.3103C265.714 -51.3228 265.699 -51.3354 265.684 -51.3479C262.243 -53.9473 257.523 -56.9237 252.999 -59.3293C252.999 -59.3293 252.999 -59.3293 252.992 -59.3287L249.953 -60.8358C248.215 -61.6286 244.835 -63.0706 243.358 -63.5822C243.358 -63.5822 243.351 -63.5816 243.344 -63.581C243.337 -63.5804 243.331 -63.5798 243.323 -63.586C243.294 -63.5973 243.266 -63.6086 243.237 -63.6199C229.996 -68.5405 221.919 -77.1904 221.079 -87.3461C220.275 -97.0274 226.457 -106.392 238.299 -113.176C252.36 -120.117 270.724 -116.534 282.994 -104.466C284.459 -103.24 286.244 -101.842 287.396 -101.101C287.433 -101.077 287.462 -101.058 287.492 -101.033C289.338 -99.8833 292.566 -98.0401 294.156 -97.2824C294.242 -97.2417 294.322 -97.2004 294.402 -97.1523C299.81 -94.6111 306.626 -92.2513 312.773 -90.787C312.886 -90.7625 312.993 -90.7305 313.099 -90.6985C323.25 -88.4016 335.048 -87.4774 347.308 -88.0412C347.342 -88.0443 347.377 -88.0474 347.411 -88.0505C359.323 -88.7078 372.261 -90.6613 384.038 -93.6047C384.106 -93.6245 384.173 -93.6444 384.247 -93.6648C389.112 -94.9514 395.045 -96.8944 399.353 -98.6019C399.426 -98.6361 399.499 -98.6703 399.579 -98.7051C403.098 -100.183 407.122 -102.28 410.239 -104.234C410.317 -104.297 410.388 -104.351 410.473 -104.408C411.886 -105.385 414.099 -107.168 415.577 -108.505C415.62 -108.557 415.671 -108.604 415.722 -108.657C416.593 -109.517 417.847 -111.034 418.779 -112.287L419.714 -113.894L420.353 -115.335L420.614 -116.286C420.637 -116.489 420.669 -116.748 420.697 -116.979C420.097 -126.547 424.152 -136.49 431.353 -143.046C437.972 -149.071 446.255 -151.564 454.779 -150.063C470.174 -147.038 480.661 -130.934 477.69 -114.9C477.681 -114.85 477.671 -114.801 477.662 -114.752C477.454 -113.446 477.266 -111.83 477.252 -110.984L477.361 -108.91C477.564 -107.655 477.829 -106.315 478.094 -105.432C478.096 -105.411 478.105 -105.391 478.114 -105.371C478.616 -103.935 479.314 -102.163 479.782 -101.256C479.799 -101.223 479.816 -101.183 479.833 -101.15C480.64 -99.7066 481.956 -97.5954 482.724 -96.5911C482.763 -96.5393 482.795 -96.4937 482.834 -96.4418C484.083 -94.92 486.001 -92.8073 487.114 -91.737C487.167 -91.6795 487.227 -91.6295 487.274 -91.5713C489.867 -89.256 493.246 -86.658 495.983 -84.8955C496.028 -84.8648 496.071 -84.841 496.116 -84.8104C504.472 -79.605 514.17 -75.3364 523.815 -72.5791C530.86 -70.669 538.809 -69.5665 545.901 -69.5226C545.997 -69.5312 546.093 -69.5399 546.198 -69.5354C555.217 -69.6778 564.768 -71.4528 573.231 -74.5635C573.331 -74.607 573.431 -74.6506 573.538 -74.6947C576.519 -75.8475 580.084 -77.5855 583.029 -79.3094C583.048 -79.325 583.068 -79.3337 583.087 -79.3492L583.588 -79.6987C584.213 -80.1353 585.235 -80.8566 585.938 -81.3486C585.951 -81.3567 585.964 -81.3648 585.976 -81.3798C586.915 -82.0937 588.749 -83.8568 589.923 -85.1109C589.948 -85.1408 589.967 -85.1632 589.992 -85.1932C596.594 -92.7959 606.976 -97.0334 617.762 -96.5309C627.526 -96.0754 636.11 -91.6517 641.388 -84.302C646.102 -77.4486 647.239 -68.9878 644.59 -60.4928C641.327 -50.0393 632.718 -40.8242 622.659 -36.9963L621.918 -36.7015C621.864 -36.6828 621.81 -36.6642 621.764 -36.6393C617.45 -34.6959 612.466 -31.9588 609.096 -29.6637C609.03 -29.6232 608.966 -29.576 608.9 -29.5355C606.542 -27.8294 602.961 -24.9547 601.082 -23.2292C601.005 -23.16 600.922 -23.0902 600.838 -23.0204C597.343 -19.572 593.526 -15.0774 591.063 -11.4583C591.027 -11.3996 590.983 -11.3473 590.947 -11.2887C589.142 -8.49687 586.315 -3.53006 584.995 -0.823049C584.942 -0.714519 584.883 -0.605367 584.823 -0.496223C581.395 7.02328 578.276 16.6056 576.194 26.0397C576.185 26.089 576.168 26.1389 576.158 26.1813C572.327 44.1961 570.435 65.1731 570.677 86.9005C571.826 115.358 573.216 147.511 590.415 171.079C594.414 176.051 600.063 180.364 605.567 182.668C605.602 182.678 605.645 182.695 605.682 182.713C609.721 184.345 615.307 185.479 620.692 185.765C620.727 185.762 620.768 185.765 620.81 185.769C627.471 186.01 635.648 185.106 643.915 183.203C643.982 183.183 644.05 183.164 644.118 183.151C652.185 181.183 661.425 177.933 670.239 173.954C670.312 173.913 670.391 173.878 670.471 173.836C679.277 169.76 688.853 164.328 697.515 158.493C697.58 158.446 697.645 158.399 697.71 158.351C706.391 152.411 715.623 144.912 723.125 137.699C723.176 137.646 723.226 137.593 723.277 137.54C730.839 130.156 738.01 121.568 743.574 113.263C743.61 113.197 743.646 113.138 743.683 113.08L744.981 110.97C750.879 100.904 761.933 93.8235 773.128 92.9535C782.103 92.2405 790.153 95.639 795.789 102.514C795.874 102.617 795.953 102.721 796.024 102.825C805.25 116.114 799.438 134.029 788.91 144.904C788.898 144.919 788.885 144.927 788.872 144.942L786.828 147.215C786.457 147.629 786.123 147.991 785.883 148.255C784.075 150.535 781.554 154.055 780.296 156.071C780.23 156.181 780.163 156.284 780.082 156.381C776.455 162.458 773.102 170.04 771.026 176.905C770.998 176.984 770.977 177.062 770.95 177.141C763.292 205.105 767.432 238.155 783.593 278.11C785.852 283.189 789.199 289.597 791.805 293.836L794.26 297.548C796.603 300.855 799.769 304.621 802.441 307.282C802.523 307.351 802.606 307.42 802.689 307.495C803.813 308.544 805.788 310.139 807.445 311.341L808.744 312.104L810.371 312.969C819.573 316.652 830.809 326.133 833.831 338.337C835.671 345.766 834.008 352.767 829.042 358.562C820.36 368.808 805.727 370.297 795.072 367.229C794.916 367.181 794.759 367.132 794.608 367.07C794.038 366.878 792.881 366.622 792.04 366.427L789 365.993C787.306 365.916 785.264 365.898 783.827 365.992C783.779 365.996 783.724 366.001 783.676 366.006C781.753 366.233 779.216 366.633 777.618 367.018C777.551 367.038 777.483 367.051 777.408 367.065C775.162 367.702 772.033 368.743 770.23 369.472C770.144 369.507 770.056 369.536 769.97 369.571C766.26 371.246 761.727 373.68 758.199 375.913C734.519 392.222 706.55 419.346 698.238 447.182L697.502 450.633C697.098 453.071 696.98 456.086 697.176 458.505L697.601 460.55L698.005 461.663L698.581 462.768L699.324 463.733C699.727 464.14 700.432 464.672 701.105 465.165L702.979 466.167C703.98 466.611 705.803 467.195 707.349 467.625C707.385 467.635 707.42 467.639 707.455 467.65C710.018 468.237 713.671 468.714 717.434 468.951C717.516 468.944 717.606 468.95 717.69 468.956C722.839 469.146 729.385 468.886 735.815 468.241C735.849 468.238 735.877 468.236 735.903 468.227C744.968 466.661 754.833 469.468 762.289 475.737C768.988 481.361 772.684 488.886 772.697 497.233C771.732 513.496 754.202 520.865 739.477 522.238C739.36 522.249 739.237 522.26 739.119 522.256C733.029 522.912 725.795 524.376 719.46 526.23C719.42 526.248 719.372 526.259 719.332 526.276L714.291 527.904C714.089 527.964 713.886 528.016 713.683 528.062C689.286 536.752 666.292 555.242 648.091 580.924C647.996 581.092 647.893 581.26 647.776 581.423C645.697 584.309 642.72 589.22 640.724 592.735C640.719 592.756 640.707 592.771 640.695 592.793C639.029 595.897 637.273 599.841 635.92 603.43C635.883 603.558 635.846 603.686 635.796 603.822C635.031 605.932 634.265 609.122 633.769 611.7L633.457 614.774C632.071 630.362 624.461 643.163 613.104 649.025C612.991 649.083 612.871 649.135 612.758 649.187C601.934 653.741 588.725 654.051 572.386 650.141C572.252 650.111 572.124 650.074 571.996 650.03C567.672 648.936 561.73 647.993 556.948 647.653C556.858 647.647 556.774 647.64 556.683 647.628C551.256 647.338 543.996 647.351 538.236 647.679C538.181 647.684 538.12 647.69 538.064 647.688C522.911 648.766 507.71 651.165 493.63 654.577C486.139 656.493 475.954 659.606 466.723 664.114C466.651 664.155 466.578 664.196 466.499 664.238C460.884 667.101 455.254 670.961 451.347 674.606L449.747 676.279L446.967 679.684C439.391 689.928 432.25 694.208 426.374 695.633C419.612 697.277 414.524 695.136 412.391 693.942C399.739 686.879 395.436 666.138 402.797 647.696C402.814 647.653 402.831 647.61 402.848 647.567C402.894 647.466 402.934 647.366 402.981 647.271C404.248 644.666 406.041 640.048 407.261 636.602C407.289 636.531 407.318 636.459 407.346 636.387C409.92 628.598 412.175 619.252 413.734 609.92C413.747 609.836 413.767 609.751 413.781 609.674C415.33 599.858 416.221 589.561 416.287 580.557C416.287 580.488 416.289 580.425 416.289 580.356C416.273 572.438 415.625 564.197 414.505 557.631C414.498 557.556 414.477 557.474 414.471 557.399C413.132 550.167 410.972 543.03 408.499 537.728C408.474 537.674 408.448 537.621 408.429 537.568C406.455 533.515 403.261 528.658 400.571 525.645C400.494 525.555 400.418 525.472 400.354 525.38C396.395 521.249 390.84 517.288 385.635 514.923C385.549 514.889 385.469 514.848 385.389 514.8C374.982 510.331 361.803 509.046 349.018 511.242C348.931 511.271 348.842 511.286 348.754 511.3C341.191 512.731 332.203 515.854 324.58 519.693C324.527 519.725 324.474 519.751 324.421 519.776C314.727 524.818 304.059 532.431 294.335 541.247C294.285 541.3 294.234 541.347 294.176 541.4C287.039 547.978 279.152 556.671 273.024 564.709C273 564.746 272.975 564.776 272.943 564.813C267.442 572.124 261.947 581.123 258.059 589.147C258.02 589.254 257.974 589.362 257.922 589.471C256.537 592.467 254.263 598.361 253.135 601.833C253.125 601.875 253.109 601.925 253.099 601.967C252.419 604.333 251.239 609.319 250.985 611.494C250.978 611.571 250.971 611.648 250.957 611.725C250.947 611.775 250.945 611.823 250.935 611.866C248.161 627.633 235.145 639.991 220.186 641.232C206.934 642.916 194.849 635.621 186.844 630.793C177.922 625.375 169.402 619.112 161.169 613.051C156.512 609.625 151.7 606.083 146.916 602.773C130.647 591.464 116.166 576.853 105.041 560.501C92.6656 544.774 83.2576 525.576 77.086 503.438C77.0848 503.424 77.0842 503.417 77.0761 503.404C71.9943 484.712 64.2138 464.767 53.9354 444.11C53.9111 444.071 53.8943 444.038 53.8769 443.998C45.2409 427.632 36.3843 412.122 23.0691 402.204C12.2602 394.248 2.07726 385.018 0.7654 371.437L0.767245 371.458ZM512.486 0.382357L512.577 0.630296C509.65 -6.42444 504.967 -14.2359 499.988 -20.0341L500.035 -19.976C495.428 -25.24 488.953 -30.5167 482.96 -34.1199L482.967 -34.1205C446.524 -55.1774 388.384 -50.6683 350.307 -35.425L350.784 -35.6615C345.37 -33.1698 339.535 -29.7474 335.478 -25.3143L335.602 -25.4708C334.56 -24.2907 332.83 -21.907 332.054 -20.5293L332.404 -21.2529C331.292 -19.1529 330.178 -16.2914 329.809 -13.9256L329.804 -13.9806C329.656 -12.6937 329.488 -10.0967 329.582 -8.81067L329.565 -8.99609C329.675 -7.37926 330.156 -4.32806 330.532 -2.7489L330.288 -3.62005C331.71 2.14344 334.369 8.20465 337.232 13.3892L337.021 13.0343C341.636 21.2601 347.841 29.3853 354.196 36.3342C354.103 36.2317 354.005 36.1366 353.906 36.0347L354.196 36.3342C371.356 54.7552 392.656 69.7464 414.56 81.9701C414.56 81.9701 414.553 81.9707 414.545 81.9645L414.559 81.9632L414.56 81.9701C430.596 90.6901 448.445 98.6388 466.384 102.343L466.159 102.294C476.053 104.199 487.609 104.736 497.155 101.051L496.664 101.205C499.245 100.144 503.799 97.2377 505.859 95.3713L505.833 95.3944C509.537 91.8857 513.144 86.0462 515.197 81.4047L515.097 81.6005C517.359 76.2621 519.248 68.6242 520.126 62.8972L520.089 63.1082C521.358 54.176 521.404 43.4773 520.607 34.4945L520.639 35.0039C519.535 23.5981 516.772 11.0326 512.46 0.398517L512.486 0.382357ZM630.049 341.831L629.953 341.694C635.061 348.927 641.773 356.232 648.842 361.573L648.454 361.262C652.07 363.956 657.253 366.85 661.462 368.446L660.916 368.211C663.196 369.038 667.508 370.002 669.918 370.271L669.532 370.209C671.847 370.417 676.187 370.154 678.478 369.782L678.217 369.806C680.471 369.41 684.88 367.991 687.001 367.109L686.98 367.111C691.134 365.3 696.196 361.974 699.733 359.152L699.318 359.459C709.932 350.695 718.425 338.486 723.616 325.776L723.586 325.834C723.669 325.598 725.694 320.018 725.777 319.782L725.716 319.954C732.75 297.312 730.468 271.808 721.453 250.042L721.716 250.586C719.706 246.052 716.521 240.287 713.498 236.342L713.707 236.586C712.094 234.557 708.745 231.063 706.75 229.407L707.341 229.825C704.188 227.352 699.607 224.779 695.726 223.686L695.811 223.706C693.665 223.144 689.383 222.433 687.177 222.354L687.605 222.35C683.509 222.246 678.049 222.755 674.052 223.687L674.087 223.684C669.794 224.718 664.083 226.669 660.07 228.496L660.335 228.368C654.337 231.127 647.59 235.108 642.269 239.018L642.735 238.658C635.167 244.277 627.706 251.334 622.352 259.129L622.382 259.078C613.779 271.449 610.341 287.359 612.886 302.201L612.879 302.125C615.308 316.285 621.901 330.079 630.034 341.825L630.049 341.831ZM467.348 582.433L467.181 582.026C468.263 584.303 470.81 588.118 472.428 590.043L472.184 589.719C473.823 591.572 477.297 594.377 479.373 595.707L479.04 595.467C481.247 596.785 485.665 598.626 488.113 599.396L487.806 599.286C490.398 600.043 495.742 600.957 498.436 601.221L498.386 601.212C506.285 601.841 515.721 601.017 523.519 599.669L523.395 599.68C523.6 599.648 529.176 598.506 530.221 598.287L530.344 598.263C530.364 598.261 530.385 598.259 530.392 598.258L530.344 598.263C530.344 598.263 530.276 598.282 530.222 598.294C563.295 590.815 592.962 570.842 614.395 544.794C628.104 528.201 640.137 508.864 645.034 487.688L644.972 488.005C646.969 479.021 647.472 469.022 646.241 459.898L646.32 460.396C645.266 452.71 642.888 444.381 640.024 437.176L640.226 437.656C636.173 427.684 630.767 417.348 624.668 408.466L624.983 408.895C620.987 403.195 615.679 396.887 610.389 392.341L610.56 392.472C606.979 389.469 601.699 386.031 597.368 384.238L597.604 384.32C593.199 382.548 586.974 381.388 582.222 381.53L582.641 381.492C572.013 381.903 561.344 387.488 552.856 393.578C552.94 393.508 553.024 393.438 553.115 393.374L552.811 393.609C552.811 393.609 552.843 393.586 552.856 393.578C520.069 419.104 496.327 455.742 478.804 493.02C478.809 493.006 478.815 492.992 478.827 492.97L478.705 493.23C478.74 493.158 478.775 493.085 478.81 493.013C473.126 505.78 467.97 520.584 465.072 534.265C465.072 534.265 465.072 534.258 465.071 534.252L465.072 534.265C464.975 534.8 464.208 538.987 463.852 540.951L463.764 541.436C463.718 541.703 463.68 541.893 463.671 541.95L463.764 541.436C463.786 541.296 463.82 541.133 463.852 540.951C462.9 547.245 462.286 555.606 462.528 561.953L462.523 560.887C462.678 564.092 463.392 569.905 464.051 573.023L463.95 572.43C464.558 575.131 466.19 579.92 467.334 582.427L467.348 582.433ZM321.724 402.896L321.697 402.823C336.718 439.384 370.439 467.129 411.383 455.014C446.721 444.169 473.156 415.127 496.828 387.979C496.14 388.795 495.445 389.604 494.756 390.414L490.854 394.951L491.243 394.514L493.704 391.643C494.055 391.231 494.405 390.819 494.756 390.407L498.339 386.238C497.837 386.815 497.335 387.386 496.833 387.964C516.72 364.429 535.12 338.646 551.04 312.364L548.844 315.953C590.319 249.48 584.064 217.52 516.317 176.947C441.035 131.773 381.019 126.593 337.673 213.508L338.941 211.138C309.889 269.217 296.551 341.14 321.731 402.889L321.724 402.896ZM251.064 261.813C283.642 233.252 313.051 158.998 322.084 116.492L322.03 116.732C324.585 103.476 325.999 88.5848 322.807 75.3239L322.894 75.7522C321.786 71.4074 319.501 65.9703 317.01 62.2476L317.32 62.7667C315.986 60.8509 313.133 57.6382 311.391 56.0982L311.626 56.3264C308.586 53.7395 303.975 51.2033 300.248 49.82L300.679 50.0029C294.721 47.8779 287.3 46.9497 281.002 46.9663L281.376 46.9744C271.876 47.0768 261.422 49.2026 252.518 52.4911L252.78 52.4053C242.81 56.1423 232.539 62.3218 224.646 69.4863L224.691 69.4477C185.597 105.41 195.584 176.769 207.786 223.252C207.746 223.117 207.7 222.983 207.66 222.848L207.786 223.252C211.864 236.448 216.612 250.947 225.989 261.37L225.667 261.088C227.094 262.51 229.881 264.746 231.673 265.686L231.265 265.529C232.844 266.253 235.68 267.114 237.422 267.179L237.34 267.187C237.34 267.187 237.285 267.192 237.271 267.193L237.34 267.187C237.813 267.144 240.586 266.91 240.724 266.905L240.165 267.072C243.954 266.29 251.071 261.805 251.071 261.805L251.064 261.813ZM124.514 484.949L124.469 484.829C135.177 508.825 154.225 551.747 177.908 563.915L177.815 563.882C180.672 565.129 184.727 566.005 187.85 565.816L187.433 565.874C189.403 565.697 192.858 565.049 194.723 564.405L194.583 564.466C196.766 563.668 200.829 561.775 202.84 560.598L202.487 560.824C207.103 558.078 212.905 553.745 216.983 550.237L216.382 550.783C233.872 535.478 248.587 515.977 259.166 495.309L259.016 495.634C263.839 486.01 268.457 474.079 271.012 463.606L270.93 464.001C274.068 450.755 275.19 435.551 274.37 421.974L274.407 422.386C271.815 389.558 261.608 355.321 240.083 329.856C240.091 329.862 240.106 329.882 240.113 329.881L239.989 329.733C240.02 329.772 240.052 329.81 240.09 329.848C239.823 329.575 237.237 326.947 236.568 326.273L236.415 326.114C236.415 326.114 236.476 326.178 236.568 326.273L236.72 326.426C232.516 322.496 226.812 318.722 221.405 316.728L221.549 316.791C217.939 315.48 212.899 314.651 209.071 314.529L209.426 314.553C205.144 314.472 199.49 315.282 195.341 316.284L195.728 316.207C186.303 318.622 176.443 323.207 168.031 328.044L168.755 327.64C158.522 333.622 148.01 341.658 139.555 349.966L140.078 349.47C131.227 358.222 122.798 369.373 117.277 380.554L117.461 380.213C113.119 389.039 109.937 400.323 109.051 410.128L109.062 410.023C108.209 420.427 109.347 432.764 111.313 442.992L111.24 442.562C114.077 456.568 119.108 471.755 124.529 484.962L124.514 484.949Z" stroke="#FFD6D3" stroke-miterlimit="10"/>
</svg>
