<svg width="135" height="45" viewBox="0 0 135 45" fill="none" xmlns="http://www.w3.org/2000/svg">
<g clip-path="url(#clip0_2534_12)">
<path d="M17.5679 3.38938C14.6538 3.38938 11.9548 4.75176 10.4617 6.97675L0.435181 21.9167H12.446C15.3597 21.9167 18.0587 20.5541 19.5518 18.3294L29.5785 3.38938H17.5679Z" fill="#1F774D"/>
<path d="M0.435181 22.8724L10.4617 37.8127C11.9548 40.0374 14.6538 41.4 17.5679 41.4H29.5785L19.5518 26.46C18.0587 24.2353 15.3597 22.8724 12.446 22.8724H0.435181Z" fill="#1F774D"/>
<path d="M39.1069 16.1444L33.8342 21.8242L39.5479 27.8087V27.9445H36.7841L31.8166 22.6887V27.9445H29.5784V16.0761H31.8166V21.095L36.3264 16.0761H39.1069V16.1444Z" fill="#1F774D"/>
<path d="M46.6951 18.5685L44.4911 23.6211H48.8991L46.6951 18.5685ZM49.798 25.7068H43.5922L42.5752 27.9446H40.1506L45.4743 16.0762H47.9159L53.2396 27.9446H50.7982L49.798 25.7068Z" fill="#1F774D"/>
<path d="M56.6539 18.1618V21.9599H60.062C61.4859 21.9599 62.0963 21.0102 62.0963 20.0607C62.0963 19.1111 61.469 18.1618 60.062 18.1618H56.6539ZM64.9277 27.9445H62.2658L58.8072 23.9771H56.6539V27.9445H54.4157V16.0596C56.2978 16.0596 58.1799 16.0761 60.062 16.0761C62.8594 16.0933 64.3345 17.9582 64.3345 20.0098C64.3345 21.6377 63.5884 23.2819 61.3334 23.7398L64.9277 27.7922V27.9445Z" fill="#1F774D"/>
<path d="M68.5047 22.4003H71.8617C74.727 22.4003 74.71 18.1957 71.8617 18.1957H68.5047V22.4003ZM71.8617 24.4519H68.5047V27.9446H66.2667V16.0762C68.1318 16.0762 69.9967 16.0595 71.8617 16.0595C77.6602 16.0595 77.6772 24.4519 71.8617 24.4519" fill="#1F774D"/>
<path d="M83.4751 18.5685L81.2711 23.6211H85.6792L83.4751 18.5685ZM86.578 25.7068H80.3722L79.3553 27.9446H76.9307L82.2543 16.0762H84.6959L90.0196 27.9446H87.5782L86.578 25.7068Z" fill="#1F774D"/>
<path d="M92.5794 18.1107H88.8155V16.0761H98.5814V18.1107H94.8174V27.9445H92.5794V18.1107Z" fill="#1F774D"/>
<path d="M109.89 16.1444L104.617 21.8242L110.33 27.8087V27.9445H107.567L102.599 22.6887V27.9445H100.361V16.0761H102.599V21.095L107.109 16.0761H109.89V16.1444Z" fill="#1F774D"/>
<path d="M120.74 27.9445H111.856V16.0761H120.74V18.2462H114.077V20.9758H120.503V23.0615H114.077V25.7406H120.74V27.9445Z" fill="#1F774D"/>
<path d="M128.251 20.9759L131.404 16.076H134.1V16.1783L129.37 23.0447V27.9446H127.132V23.0447L122.571 16.1783V16.076H125.233L128.251 20.9759Z" fill="#1F774D"/>
</g>
<defs>
<clipPath id="clip0_2534_12">
<rect width="134.1" height="45" fill="white"/>
</clipPath>
</defs>
</svg>
