<svg xmlns="http://www.w3.org/2000/svg" width="138" height="39" fill="#000" xmlnsV="https://vecta.io/nano"><path d="M17.695.072c-2.989 0-5.758 1.398-7.29 3.68L.12 19.078h12.321c2.989 0 5.758-1.398 7.289-3.68L30.016.072h-12.32zM.12 20.058l10.285 15.326c1.532 2.282 4.3 3.68 7.29 3.68h12.321L19.73 23.738c-1.532-2.282-4.3-3.68-7.289-3.68H.12zm39.67-6.901l-5.409 5.826 5.861 6.139v.139h-2.835l-5.096-5.391v5.391h-2.296V13.086h2.296v5.149l4.626-5.148h2.852v.07zm7.784 2.486l-2.261 5.183h4.522l-2.261-5.183zm3.183 7.322h-6.366l-1.043 2.296h-2.487l5.461-12.175h2.505l5.461 12.175h-2.504l-1.026-2.296zm7.033-7.739v3.896h3.496c1.461 0 2.087-.974 2.087-1.948s-.644-1.948-2.087-1.948H57.79zm8.487 10.035h-2.731l-3.548-4.07H57.79v4.07h-2.296V13.07l5.792.017c2.87.018 4.383 1.931 4.383 4.035 0 1.67-.765 3.357-3.078 3.826l3.687 4.157v.156zm3.67-5.687h3.444c2.939 0 2.922-4.313 0-4.313h-3.444v4.313zm3.444 2.105h-3.444v3.583h-2.296V13.087l5.739-.017c5.948 0 5.966 8.609 0 8.609m11.914-6.036l-2.261 5.183h4.522l-2.261-5.183zm3.183 7.322h-6.366l-1.043 2.296H78.59l5.461-12.175h2.505l5.461 12.175h-2.504l-1.026-2.296zm6.156-7.791h-3.861v-2.087H100.8v2.087h-3.861v10.088h-2.296V15.174zm17.757-2.017l-5.409 5.826 5.861 6.139v.139h-2.835l-5.096-5.391v5.391h-2.296V13.086h2.296v5.149l4.626-5.148h2.853v.07zm11.131 12.104h-9.114V13.086h9.114v2.226h-6.836v2.8h6.592v2.139h-6.592V23h6.836v2.261zm7.704-7.148l3.235-5.026h2.765v.105l-4.853 7.044v5.026h-2.295v-5.026l-4.679-7.044v-.105h2.731l3.096 5.026z"/></svg>