<svg width="149" height="50" viewBox="0 0 149 50" fill="none" xmlns="http://www.w3.org/2000/svg">
<path d="M19.5199 3.76597C16.2819 3.76597 13.283 5.27973 11.624 7.75193L0.483521 24.3519H13.8288C17.0663 24.3519 20.0652 22.8379 21.7242 20.366L32.865 3.76597H19.5199Z" fill="#1F774D"/>
<path d="M0.483521 25.4138L11.624 42.014C13.283 44.486 16.2819 46 19.5199 46H32.865L21.7242 29.4C20.0652 26.928 17.0663 25.4138 13.8288 25.4138H0.483521Z" fill="#1F774D"/>
<path d="M43.4522 17.9383L37.5935 24.2491L43.9421 30.8986V31.0494H40.8713L35.3517 25.2097V31.0494H32.8649V17.8624H35.3517V23.4389L40.3627 17.8624H43.4522V17.9383Z" fill="#1F774D"/>
<path d="M51.8834 20.6317L49.4345 26.2457H54.3324L51.8834 20.6317ZM55.3311 28.5632H48.4358L47.3058 31.0496H44.6118L50.527 17.8625H53.2399L59.1551 31.0496H56.4424L55.3311 28.5632Z" fill="#1F774D"/>
<path d="M62.9488 20.1797V24.3998H66.7355C68.3177 24.3998 68.9959 23.3446 68.9959 22.2895C68.9959 21.2345 68.2989 20.1797 66.7355 20.1797H62.9488ZM72.1419 31.0493H69.1842L65.3414 26.6411H62.9488V31.0493H60.4619V17.8439C62.5531 17.8439 64.6443 17.8623 66.7355 17.8623C69.8438 17.8814 71.4828 19.9535 71.4828 22.233C71.4828 24.0419 70.6538 25.8687 68.1483 26.3774L72.1419 30.8801V31.0493Z" fill="#1F774D"/>
<path d="M76.1163 24.8893H79.8463C83.03 24.8893 83.0111 20.2174 79.8463 20.2174H76.1163V24.8893ZM79.8463 27.1688H76.1163V31.0496H73.6297V17.8625C75.7021 17.8625 77.7742 17.8439 79.8463 17.8439C86.2891 17.8439 86.308 27.1688 79.8463 27.1688" fill="#1F774D"/>
<path d="M92.7501 20.6317L90.3012 26.2457H95.1991L92.7501 20.6317ZM96.1978 28.5632H89.3025L88.1725 31.0496H85.4785L91.3937 17.8625H94.1066L100.022 31.0496H97.3091L96.1978 28.5632Z" fill="#1F774D"/>
<path d="M102.866 20.1229H98.6838V17.8623H109.535V20.1229H105.353V31.0493H102.866V20.1229Z" fill="#1F774D"/>
<path d="M122.099 17.9382L116.241 24.249L122.589 30.8985V31.0493H119.519L113.999 25.2095V31.0493H111.512V17.8623H113.999V23.4388L119.01 17.8623H122.099V17.9382Z" fill="#1F774D"/>
<path d="M134.156 31.0493H124.284V17.8623H134.156V20.2735H126.752V23.3064H133.892V25.6238H126.752V28.6006H134.156V31.0493Z" fill="#1F774D"/>
<path d="M142.501 23.3066L146.005 17.8623H149V17.9759L143.744 25.6052V31.0496H141.257V25.6052L136.19 17.9759V17.8623H139.147L142.501 23.3066Z" fill="#1F774D"/>
</svg>
