<svg width="178" height="45" viewBox="0 0 178 45" fill="none" xmlns="http://www.w3.org/2000/svg">
<g clip-path="url(#clip0_2534_12)">
<path d="M0.252319 9.22754H4.54042V23.7669H4.74144L7.25399 21.0198L11.5086 16.7317H16.5002L9.63255 23.5324L17.2373 34.0182H12.1116L6.584 25.978L4.54042 27.921V34.0182H0.252319V9.22754ZM34.1757 34.0182C33.1258 34.0182 32.3107 33.7613 31.7301 33.2477C31.1718 32.7117 30.8367 31.9746 30.725 31.0366H30.5574C30.245 32.1086 29.6306 32.9462 28.715 33.5492C27.7993 34.1299 26.6714 34.4202 25.3314 34.4202C23.5893 34.4202 22.2046 33.9624 21.1773 33.0467C20.1499 32.131 19.6362 30.8579 19.6362 29.2276C19.6362 25.7435 22.1935 24.0014 27.3079 24.0014H30.3564V22.8624C30.3564 21.768 30.0885 20.9417 29.5526 20.3833C29.0165 19.825 28.1454 19.5458 26.9394 19.5458C25.8451 19.5458 24.9629 19.758 24.2929 20.1823C23.6228 20.6067 23.0533 21.1539 22.5843 21.8239L20.1388 19.7468C20.6748 18.7864 21.5346 17.9824 22.7183 17.3347C23.9244 16.6647 25.4766 16.3297 27.3749 16.3297C29.653 16.3297 31.4287 16.8657 32.7017 17.9378C33.9968 18.9875 34.6447 20.562 34.6447 22.6614V30.8021H36.6883V34.0182H34.1757ZM26.7719 31.4721C27.7993 31.4721 28.648 31.2376 29.3178 30.7686C30.0102 30.2773 30.3564 29.6184 30.3564 28.7921V26.4805H27.4084C25.0634 26.4805 23.8908 27.2175 23.8908 28.6915V29.3616C23.8908 30.0539 24.1477 30.5788 24.6614 30.9361C25.175 31.2934 25.8786 31.4721 26.7719 31.4721ZM40.3602 30.6346H44.6482V20.1153H40.3602V16.7317H48.9365V21.4554H49.2044C49.3606 20.8523 49.573 20.2717 49.8409 19.7133C50.1312 19.1326 50.4888 18.6301 50.9129 18.2058C51.3597 17.7591 51.8956 17.4017 52.521 17.1337C53.1462 16.8657 53.8944 16.7317 54.7657 16.7317H56.6415V20.7518H53.0906C51.7952 20.7518 50.7791 21.1315 50.0419 21.8909C49.305 22.6502 48.9365 23.6218 48.9365 24.8054V30.6346H54.933V34.0182H40.3602V30.6346ZM60.2467 16.7317H64.5347V19.7803H64.7692C65.2381 18.7306 65.8746 17.8931 66.6787 17.2678C67.5052 16.6424 68.5882 16.3297 69.9285 16.3297C70.9111 16.3297 71.8045 16.5196 72.6083 16.8992C73.4348 17.2566 74.1382 17.8149 74.7189 18.5743C75.2998 19.3113 75.7464 20.2493 76.0591 21.3884C76.3718 22.5274 76.528 23.8563 76.528 25.375C76.528 26.8937 76.3718 28.2225 76.0591 29.3616C75.7464 30.5006 75.2998 31.4498 74.7189 32.2091C74.1382 32.9462 73.4348 33.5045 72.6083 33.8842C71.8045 34.2415 70.9111 34.4202 69.9285 34.4202C68.5882 34.4202 67.5052 34.1075 66.6787 33.4822C65.8746 32.8568 65.2381 32.0193 64.7692 30.9696H64.5347V40.7184H60.2467V16.7317ZM68.1193 31.0031C69.3699 31.0031 70.3305 30.6234 71.0005 29.8641C71.6928 29.1047 72.039 28.0662 72.039 26.7485V24.0014C72.039 22.6837 71.6928 21.6452 71.0005 20.8858C70.3305 20.1265 69.3699 19.7468 68.1193 19.7468C67.1366 19.7468 66.288 19.9925 65.5733 20.4838C64.8809 20.9528 64.5347 21.6787 64.5347 22.6614V28.0885C64.5347 29.0712 64.8809 29.8082 65.5733 30.2996C66.288 30.7686 67.1366 31.0031 68.1193 31.0031ZM94.4378 34.0182C93.3882 34.0182 92.5731 33.7613 91.9925 33.2477C91.4339 32.7117 91.0991 31.9746 90.9874 31.0366H90.8198C90.5071 32.1086 89.893 32.9462 88.9772 33.5492C88.0617 34.1299 86.9338 34.4202 85.5936 34.4202C83.8517 34.4202 82.4669 33.9624 81.4394 33.0467C80.4122 32.131 79.8985 30.8579 79.8985 29.2276C79.8985 25.7435 82.4559 24.0014 87.5704 24.0014H90.6188V22.8624C90.6188 21.768 90.3509 20.9417 89.8147 20.3833C89.2789 19.825 88.4079 19.5458 87.2018 19.5458C86.1074 19.5458 85.225 19.758 84.5551 20.1823C83.8851 20.6067 83.3155 21.1539 82.8466 21.8239L80.4012 19.7468C80.937 18.7864 81.797 17.9824 82.9807 17.3347C84.1868 16.6647 85.7388 16.3297 87.6373 16.3297C89.9154 16.3297 91.6908 16.8657 92.9638 17.9378C94.2592 18.9875 94.9068 20.562 94.9068 22.6614V30.8021H96.9504V34.0182H94.4378ZM87.0342 31.4721C88.0617 31.4721 88.9103 31.2376 89.5802 30.7686C90.2726 30.2773 90.6188 29.6184 90.6188 28.7921V26.4805H87.6707C85.3257 26.4805 84.153 27.2175 84.153 28.6915V29.3616C84.153 30.0539 84.4099 30.5788 84.9237 30.9361C85.4374 31.2934 86.1408 31.4721 87.0342 31.4721ZM109.333 34.0182C107.68 34.0182 106.463 33.5827 105.681 32.7117C104.9 31.8406 104.509 30.7128 104.509 29.3281V20.1153H99.4834V16.7317H102.901C103.593 16.7317 104.084 16.5977 104.375 16.3297C104.665 16.0394 104.81 15.5369 104.81 14.8222V10.6346H108.797V16.7317H115.832V20.1153H108.797V30.6346H115.832V34.0182H109.333ZM120.777 9.22754H125.065V23.7669H125.266L127.779 21.0198L132.033 16.7317H137.025L130.157 23.5324L137.762 34.0182H132.636L127.109 25.978L125.065 27.921V34.0182H120.777V9.22754ZM148.737 34.4202C147.352 34.4202 146.124 34.208 145.052 33.7837C143.98 33.3593 143.076 32.7563 142.338 31.9746C141.624 31.1929 141.076 30.2549 140.697 29.1606C140.317 28.0439 140.127 26.7932 140.127 25.4085C140.127 24.0014 140.317 22.7396 140.697 21.6229C141.099 20.5062 141.657 19.557 142.372 18.7753C143.087 17.9936 143.946 17.3906 144.952 16.9662C145.979 16.5419 147.129 16.3297 148.402 16.3297C149.653 16.3297 150.781 16.5419 151.786 16.9662C152.791 17.3683 153.639 17.9489 154.332 18.7083C155.046 19.4676 155.594 20.3833 155.973 21.4554C156.353 22.5274 156.543 23.7111 156.543 25.0065V26.4135H144.415V26.849C144.415 28.0997 144.806 29.1159 145.588 29.8976C146.37 30.6569 147.464 31.0366 148.871 31.0366C149.943 31.0366 150.859 30.8244 151.618 30.4001C152.4 29.9534 153.048 29.3727 153.561 28.658L156.007 31.1036C155.381 32.0193 154.466 32.801 153.26 33.4487C152.076 34.0964 150.568 34.4202 148.737 34.4202ZM148.436 19.4788C147.229 19.4788 146.258 19.8585 145.521 20.6178C144.784 21.3772 144.415 22.3822 144.415 23.6329V23.8674H152.255V23.5659C152.255 22.3152 151.908 21.3213 151.216 20.5843C150.546 19.8473 149.619 19.4788 148.436 19.4788ZM173.146 16.7317H177.501L169.226 37.1003C168.758 38.2841 168.132 39.1775 167.35 39.7802C166.569 40.4057 165.463 40.7184 164.034 40.7184H160.885V37.3348H165.005L166.312 33.8507L159.344 16.7317H163.9L166.546 23.9679L168.389 29.4621H168.623L170.466 23.9679L173.146 16.7317Z" fill="#1F774D"/>
</g>
<defs>
<clipPath id="clip0_2534_12">
<rect width="177.745" height="32" fill="white" transform="translate(0 9)"/>
</clipPath>
</defs>
</svg>
