<svg width="196" height="45" viewBox="0 0 196 45" fill="none" xmlns="http://www.w3.org/2000/svg">
<path d="M80.2337 17.3369V21.1373H68.2593V8.09924H72.9146V17.3369H80.2337Z" fill="#1F774D"/>
<path d="M93.8719 17.8187V21.1373H81.7339V8.09924H93.8173V11.4179H86.389V13.0181H93.4446V16.073H86.389V17.8187H93.8719Z" fill="#1F774D"/>
<path d="M110.683 8.09924V21.1373H104.746L100.164 12.909V21.1373H96.0268V8.09924H102.155L106.565 16.1821V8.09924H110.683Z" fill="#1F774D"/>
<path d="M119.075 21.5283C117.845 21.5283 116.69 21.3828 115.611 21.0918C114.538 20.7948 113.602 20.4009 112.802 19.9099V16.5367C113.626 17.0519 114.535 17.4611 115.529 17.7641C116.523 18.0612 117.533 18.2097 118.557 18.2097C119.297 18.2097 119.845 18.143 120.203 18.0096C120.56 17.8763 120.739 17.6641 120.739 17.3732C120.739 17.1186 120.615 16.9156 120.366 16.764C120.118 16.6125 119.675 16.4822 119.039 16.373L117.184 16.0366C115.638 15.7578 114.505 15.282 113.784 14.6092C113.068 13.9364 112.711 13.0453 112.711 11.9361C112.711 11.0936 112.956 10.3571 113.447 9.7267C113.944 9.09025 114.69 8.59625 115.684 8.24468C116.684 7.88707 117.915 7.70825 119.375 7.70825C120.624 7.70825 121.7 7.83554 122.603 8.09012C123.512 8.3447 124.261 8.65384 124.849 9.01751V12.2543C124.297 11.9452 123.594 11.6785 122.739 11.4542C121.891 11.2299 120.969 11.1178 119.975 11.1178C118.375 11.1178 117.575 11.3784 117.575 11.8997C117.575 12.0452 117.618 12.1664 117.702 12.2634C117.793 12.3543 117.948 12.4331 118.166 12.4998C118.384 12.5665 118.697 12.6271 119.103 12.6817L121.185 13.0181C122.209 13.1878 123.045 13.4393 123.694 13.7727C124.343 14.1 124.828 14.5334 125.149 15.0729C125.47 15.6063 125.631 16.267 125.631 17.055C125.631 17.9521 125.358 18.74 124.812 19.4189C124.273 20.0918 123.506 20.613 122.512 20.9828C121.524 21.3465 120.378 21.5283 119.075 21.5283Z" fill="#1F774D"/>
<path d="M77.2697 25.4604C78.3971 25.4604 79.3457 25.6605 80.1155 26.0606C80.8914 26.4546 81.4733 27.0122 81.8612 27.7335C82.2552 28.4549 82.4522 29.3004 82.4522 30.2702C82.4522 31.2279 82.2279 32.0735 81.7794 32.807C81.3369 33.5343 80.6732 34.104 79.7882 34.5162C78.9032 34.9224 77.8242 35.1254 76.5513 35.1254H72.9146V38.5167H68.2593V25.4604H77.2697ZM75.333 32.1706C76.0907 32.1706 76.6695 32.0159 77.0696 31.7067C77.4758 31.3916 77.6789 30.9552 77.6789 30.3975C77.6789 29.8581 77.4969 29.4398 77.1333 29.1428C76.7757 28.8398 76.2635 28.6881 75.5967 28.6881H72.9146V32.1706H75.333Z" fill="#1F774D"/>
<path d="M92.89 38.5166L88.6804 33.1705V38.5166H84.0251V25.4786H93.2083C94.2265 25.4786 95.1145 25.6604 95.8723 26.0242C96.6299 26.3878 97.2118 26.903 97.618 27.5698C98.03 28.2305 98.2361 29.0003 98.2361 29.8792C98.2361 30.643 98.0817 31.3279 97.7725 31.934C97.4634 32.534 97.027 33.016 96.4633 33.3796C95.8994 33.7373 95.2448 33.9464 94.4993 34.007L98.3635 38.5166H92.89ZM91.3079 31.7977C91.993 31.7977 92.5142 31.6643 92.8718 31.3976C93.2294 31.1309 93.4082 30.7429 93.4082 30.2338C93.4082 29.7488 93.2416 29.3821 92.9081 29.1337C92.5808 28.8851 92.0899 28.7608 91.4353 28.7608H88.6804V31.7977H91.3079Z" fill="#1F774D"/>
<path d="M107.974 38.9442C106.283 38.9442 104.795 38.6321 103.51 38.0078C102.225 37.3835 101.234 36.5379 100.536 35.4711C99.8394 34.4043 99.4908 33.2223 99.4908 31.9251C99.4908 30.6038 99.8363 29.4248 100.527 28.3883C101.224 27.3458 102.215 26.5305 103.5 25.9425C104.786 25.3485 106.283 25.0515 107.992 25.0515C109.689 25.0515 111.177 25.3485 112.456 25.9425C113.741 26.5305 114.729 27.3458 115.42 28.3883C116.117 29.4248 116.466 30.6038 116.466 31.9251C116.466 33.2283 116.114 34.4133 115.411 35.4801C114.714 36.5469 113.723 37.3926 112.438 38.0169C111.153 38.6351 109.665 38.9442 107.974 38.9442ZM107.974 35.162C108.671 35.162 109.283 35.0286 109.81 34.7619C110.338 34.4891 110.744 34.1103 111.029 33.6254C111.314 33.1404 111.456 32.5859 111.456 31.9616C111.456 31.3433 111.314 30.7977 111.029 30.3249C110.744 29.8521 110.338 29.4854 109.81 29.2248C109.283 28.9641 108.671 28.8338 107.974 28.8338C107.271 28.8338 106.655 28.9641 106.128 29.2248C105.601 29.4854 105.192 29.8521 104.901 30.3249C104.616 30.7977 104.473 31.3433 104.473 31.9616C104.473 32.5859 104.616 33.1404 104.901 33.6254C105.192 34.1103 105.601 34.4891 106.128 34.7619C106.655 35.0286 107.271 35.162 107.974 35.162Z" fill="#1F774D"/>
<path d="M130.64 29.1518H126.204V38.5166H121.548V29.1518H117.03V25.4786H130.64V29.1518Z" fill="#1F774D"/>
<path d="M139.669 38.9442C137.978 38.9442 136.49 38.6321 135.205 38.0078C133.92 37.3835 132.929 36.5379 132.232 35.4711C131.535 34.4043 131.186 33.2223 131.186 31.9251C131.186 30.6038 131.532 29.4248 132.222 28.3883C132.919 27.3458 133.911 26.5305 135.196 25.9425C136.481 25.3485 137.978 25.0515 139.687 25.0515C141.384 25.0515 142.872 25.3485 144.151 25.9425C145.436 26.5305 146.424 27.3458 147.115 28.3883C147.812 29.4248 148.161 30.6038 148.161 31.9251C148.161 33.2283 147.809 34.4133 147.106 35.4801C146.409 36.5469 145.418 37.3926 144.133 38.0169C142.848 38.6351 141.36 38.9442 139.669 38.9442ZM139.669 35.162C140.366 35.162 140.978 35.0286 141.505 34.7619C142.033 34.4891 142.439 34.1103 142.724 33.6254C143.009 33.1404 143.151 32.5859 143.151 31.9616C143.151 31.3433 143.009 30.7977 142.724 30.3249C142.439 29.8521 142.033 29.4854 141.505 29.2248C140.978 28.9641 140.366 28.8338 139.669 28.8338C138.966 28.8338 138.351 28.9641 137.823 29.2248C137.296 29.4854 136.887 29.8521 136.596 30.3249C136.311 30.7977 136.168 31.3433 136.168 31.9616C136.168 32.5859 136.311 33.1404 136.596 33.6254C136.887 34.1103 137.296 34.4891 137.823 34.7619C138.351 35.0286 138.966 35.162 139.669 35.162Z" fill="#1F774D"/>
<path d="M157.872 38.9442C156.102 38.9442 154.573 38.6472 153.289 38.0532C152.01 37.4532 151.036 36.6348 150.37 35.5983C149.704 34.5558 149.37 33.3798 149.37 32.0706C149.37 30.7431 149.71 29.5491 150.388 28.4883C151.068 27.4215 152.058 26.582 153.361 25.9698C154.665 25.3575 156.213 25.0515 158.008 25.0515C159.105 25.0515 160.108 25.1606 161.017 25.3788C161.932 25.5971 162.802 25.9122 163.626 26.3244V30.1704C163.099 29.8007 162.438 29.5005 161.644 29.2703C160.857 29.0399 160.017 28.9247 159.126 28.9247C158.149 28.9247 157.311 29.052 156.607 29.3066C155.904 29.5611 155.368 29.9189 154.998 30.3795C154.635 30.834 154.453 31.3614 154.453 31.9616C154.453 32.5677 154.638 33.1041 155.007 33.5708C155.383 34.0314 155.922 34.3922 156.625 34.6527C157.329 34.9074 158.163 35.0346 159.126 35.0346C160.047 35.0346 160.905 34.9134 161.698 34.671C162.493 34.4225 163.147 34.0922 163.663 33.68V37.4349C162.772 37.9563 161.872 38.3381 160.962 38.5806C160.059 38.823 159.028 38.9442 157.872 38.9442Z" fill="#1F774D"/>
<path d="M173.619 38.9442C171.929 38.9442 170.441 38.6321 169.155 38.0078C167.87 37.3835 166.878 36.5379 166.182 35.4711C165.485 34.4043 165.137 33.2223 165.137 31.9251C165.137 30.6038 165.482 29.4248 166.173 28.3883C166.869 27.3458 167.861 26.5305 169.146 25.9425C170.43 25.3485 171.929 25.0515 173.637 25.0515C175.335 25.0515 176.823 25.3485 178.101 25.9425C179.387 26.5305 180.375 27.3458 181.065 28.3883C181.763 29.4248 182.111 30.6038 182.111 31.9251C182.111 33.2283 181.76 34.4133 181.056 35.4801C180.36 36.5469 179.369 37.3926 178.083 38.0169C176.798 38.6351 175.31 38.9442 173.619 38.9442ZM173.619 35.162C174.317 35.162 174.929 35.0286 175.455 34.7619C175.983 34.4891 176.39 34.1103 176.675 33.6254C176.96 33.1404 177.102 32.5859 177.102 31.9616C177.102 31.3433 176.96 30.7977 176.675 30.3249C176.39 29.8521 175.983 29.4854 175.455 29.2248C174.929 28.9641 174.317 28.8338 173.619 28.8338C172.916 28.8338 172.301 28.9641 171.774 29.2248C171.246 29.4854 170.837 29.8521 170.546 30.3249C170.261 30.7977 170.118 31.3433 170.118 31.9616C170.118 32.5859 170.261 33.1404 170.546 33.6254C170.837 34.1103 171.246 34.4891 171.774 34.7619C172.301 35.0286 172.916 35.162 173.619 35.162Z" fill="#1F774D"/>
<path d="M195.923 34.7162V38.5166H183.948V25.4786H188.603V34.7162H195.923Z" fill="#1F774D"/>
<path fill-rule="evenodd" clip-rule="evenodd" d="M39.3111 14.4778C41.6514 12.534 44.2629 11.7944 46.7673 11.9813C49.4388 12.1808 51.9109 13.4273 53.7571 15.2378C55.6035 17.0485 56.8719 19.4703 57.0748 22.084C57.2797 24.7216 56.3926 27.4839 54.0535 29.9085C53.8396 30.1316 53.6209 30.3521 53.3977 30.5697C42.7887 40.9725 28.696 41 28.5519 41C28.4799 41 14.3418 40.9994 3.70512 30.5682L3.70279 30.566C3.48322 30.3493 3.26695 30.1313 3.05398 29.9119L3.05226 29.9101C0.712122 27.4877 -0.175879 24.7259 0.0283542 22.0883C0.230711 19.4751 1.49826 17.053 3.34401 15.2417C5.18964 13.4305 7.66156 12.183 10.3335 11.9827C12.8377 11.795 15.4497 12.5337 17.7915 14.4766C18.0432 11.4799 19.3552 9.14757 21.2595 7.54413C23.2906 5.83399 25.9375 5 28.5511 5C31.1649 5 33.8118 5.83399 35.8428 7.54413C37.7475 9.14779 39.0595 11.4805 39.3111 14.4778ZM36.5215 25.5001C36.2314 25.5001 36.1309 25.9112 36.316 26.1289C36.6439 26.5147 36.841 27.0108 36.841 27.5522C36.841 28.7807 35.8257 29.7766 34.573 29.7766C33.3204 29.7766 32.3049 28.7807 32.3049 27.5522C32.3049 27.4865 32.2174 27.4538 32.178 27.507C31.8202 27.9888 31.5787 28.5298 31.4794 29.0978C31.4236 29.4176 31.1586 29.6825 30.8254 29.6825H30.6415C30.2067 29.6825 29.848 29.3369 29.9122 28.9181C30.352 26.0482 33.2364 23.9667 36.5215 23.9667C39.8068 23.9667 42.691 26.0482 43.131 28.9181C43.195 29.3369 42.8364 29.6825 42.4017 29.6825C41.967 29.6825 41.6227 29.3352 41.5282 28.9218C41.0982 27.0407 39.1048 25.5001 36.5215 25.5001ZM16.3807 27.5522C16.3807 27.4655 16.2661 27.419 16.2123 27.488C15.8298 27.9773 15.5692 28.5316 15.459 29.1157C15.3939 29.4607 15.1077 29.7473 14.7476 29.7473H14.6125C14.1778 29.7473 13.8192 29.4017 13.8833 28.9829C14.3229 26.1114 17.2075 24.0314 20.4927 24.0314C23.7778 24.0314 26.6625 26.1114 27.102 28.9829C27.1662 29.4017 26.8075 29.7473 26.3728 29.7473C25.9381 29.7473 25.5939 29.3999 25.4994 28.9867C25.0696 27.1043 23.0763 25.5648 20.4927 25.5648C20.2578 25.5648 20.1718 25.8883 20.329 26.0581C20.6944 26.453 20.9169 26.9771 20.9169 27.5522C20.9169 28.7807 19.9015 29.7766 18.6489 29.7766C17.3962 29.7766 16.3807 28.7807 16.3807 27.5522ZM31.0743 32.9162C31.3816 32.6166 31.8564 32.471 32.2378 32.6741C32.6194 32.877 32.7642 33.3485 32.4892 33.6764C31.5937 34.7447 30.144 35.4215 28.5451 35.4215C26.947 35.4215 25.4941 34.7518 24.5974 33.6755C24.3235 33.3467 24.4701 32.8757 24.8523 32.6741C25.2345 32.4723 25.7086 32.6198 26.0154 32.9198C26.6064 33.4976 27.5032 33.8882 28.5451 33.8882C29.5842 33.8882 30.4821 33.4937 31.0743 32.9162Z" fill="#1F774D"/>
</svg>
