<svg width="130" height="40" viewBox="0 0 130 40" fill="none" xmlns="http://www.w3.org/2000/svg">
<path d="M53.5611 24.7582L62.2639 36.3557H68.8822L58.342 22.5437C57.7702 21.7791 57.5245 21.2142 57.5245 20.6507C57.5245 20.0872 57.8924 19.5634 58.5862 18.7986L68.6781 7.56355H62.0182L53.4389 17.1477C52.1317 18.6373 51.5183 19.685 51.5183 20.6917C51.5183 21.9801 52.2539 23.0266 53.5611 24.7582ZM99.5229 22.0199C99.5229 13.6448 105.447 7 114.272 7C123.096 7 129.225 13.2823 129.225 22.0199C129.225 30.7574 122.934 36.9193 114.314 36.9193C105.081 36.9193 99.5241 30.5577 99.5241 22.0199H99.5229ZM123.505 21.9801C123.505 16.1013 119.869 11.7517 114.312 11.7517C108.756 11.7517 105.242 16.0206 105.242 21.9801C105.242 27.9397 109 32.2483 114.312 32.2483C119.91 32.2483 123.505 27.8192 123.505 21.9801ZM83.4663 36.3557H73.1302V31.604H84.4877C87.756 31.604 89.4309 30.7588 89.4309 28.5032C89.4309 26.4898 88.1237 25.8455 84.5695 24.8786L81.1792 23.9526C74.8468 22.2209 72.7221 20.2075 72.7221 15.4558C72.7221 10.704 75.5823 7.56355 82.4865 7.56355H92.8226V12.396H82.4047C79.5041 12.396 78.0734 13.0402 78.0734 15.0933C78.0734 17.026 79.3807 17.9521 82.7308 18.7973L86.2446 19.6837C92.1274 21.1732 94.9057 23.2674 94.9057 27.9384C94.9057 33.3344 91.8818 36.3544 83.4663 36.3544V36.3557ZM32.5198 37C25.0437 37 20.5489 33.0539 20.5489 25.323V7.60453H26.0236V24.999C26.0236 29.1872 27.3725 32.2469 32.5198 32.2469C37.6671 32.2469 39.0159 29.3883 39.0159 24.958V7.56355H44.4907V25.282C44.4907 32.9334 39.9971 37 32.5198 37ZM5.51504 7.60453H0V30.8791C0 34.7446 1.63476 36.3557 4.94326 36.3557H15.6068V31.645H7.59943C6.00625 31.645 5.51634 31.1621 5.51634 29.6316V7.60453H5.51504Z" fill="black"/>
</svg>
