<svg width="129" height="74" viewBox="0 0 129 74" fill="none" xmlns="http://www.w3.org/2000/svg">
<g clip-path="url(#clip0_2591_9)">
<path d="M53.5611 39.7582L62.2639 51.3557H68.8822L58.342 37.5437C57.7702 36.7791 57.5245 36.2142 57.5245 35.6507C57.5245 35.0872 57.8924 34.5634 58.5863 33.7986L68.678 22.5635H62.0182L53.4389 32.1477C52.1317 33.6373 51.5183 34.685 51.5183 35.6917C51.5183 36.9801 52.2539 38.0266 53.5611 39.7582ZM99.5229 37.0199C99.5229 28.6448 105.447 22 114.272 22C123.096 22 129.225 28.2823 129.225 37.0199C129.225 45.7574 122.934 51.9194 114.314 51.9194C105.081 51.9194 99.5241 45.5577 99.5241 37.0199H99.5229ZM123.505 36.9801C123.505 31.1013 119.869 26.7517 114.312 26.7517C108.756 26.7517 105.242 31.0206 105.242 36.9801C105.242 42.9397 109 47.2483 114.312 47.2483C119.91 47.2483 123.505 42.8192 123.505 36.9801ZM83.4663 51.3557H73.1302V46.604H84.4877C87.756 46.604 89.4309 45.7588 89.4309 43.5032C89.4309 41.4898 88.1237 40.8456 84.5695 39.8786L81.1792 38.9526C74.8468 37.2209 72.7221 35.2075 72.7221 30.4558C72.7221 25.704 75.5823 22.5635 82.4865 22.5635H92.8226V27.396H82.4047C79.5041 27.396 78.0734 28.0402 78.0734 30.0933C78.0734 32.026 79.3807 32.9521 82.7308 33.7973L86.2446 34.6837C92.1274 36.1732 94.9057 38.2674 94.9057 42.9384C94.9057 48.3344 91.8818 51.3545 83.4663 51.3545V51.3557ZM32.5198 52C25.0437 52 20.5489 48.0539 20.5489 40.323V22.6045H26.0236V39.999C26.0236 44.1872 27.3725 47.2469 32.5198 47.2469C37.6671 47.2469 39.0159 44.3883 39.0159 39.958V22.5635H44.4907V40.282C44.4907 47.9334 39.9971 52 32.5198 52ZM5.51504 22.6045H0V45.8791C0 49.7446 1.63476 51.3557 4.94326 51.3557H15.6068V46.645H7.59943C6.00625 46.645 5.51634 46.1621 5.51634 44.6316V22.6045H5.51504Z" fill="#1F774D"/>
</g>
<defs>
<clipPath id="clip0_2591_9">
<rect width="129" height="74" fill="white"/>
</clipPath>
</defs>
</svg>
