<svg xmlns="http://www.w3.org/2000/svg" width="232" height="88" fill="none" xmlnsV="https://vecta.io/nano"><path d="M106.422 46.391l7.542 10.052h5.736l-9.135-11.971c-.495-.663-.708-1.152-.708-1.641s.319-.942.92-1.605l8.746-9.738h-5.772l-7.435 8.307c-1.133 1.291-1.665 2.199-1.665 3.072 0 1.117.638 2.024 1.771 3.525zm39.835-2.373c0-7.259 5.134-13.018 12.783-13.018S172 36.445 172 44.018s-5.453 12.913-12.924 12.913c-8.002 0-12.818-5.514-12.818-12.913h-.001zm20.785-.035c0-5.095-3.151-8.865-7.967-8.865s-7.861 3.7-7.861 8.865 3.257 8.9 7.861 8.9c4.851 0 7.967-3.839 7.967-8.9zM132.34 56.443h-8.958v-4.118h9.844c2.832 0 4.284-.733 4.284-2.687 0-1.745-1.133-2.303-4.213-3.142l-2.939-.802c-5.488-1.501-7.33-3.246-7.33-7.364s2.479-6.84 8.463-6.84h8.959v4.188h-9.03c-2.513 0-3.754.558-3.754 2.338 0 1.675 1.133 2.478 4.037 3.21l3.045.768c5.099 1.291 7.507 3.106 7.507 7.154 0 4.677-2.621 7.294-9.915 7.294v.001zm-44.155.558c-6.48 0-10.375-3.42-10.375-10.12V31.524h4.745V46.6c0 3.63 1.169 6.282 5.63 6.282s5.63-2.478 5.63-6.317V31.488h4.745v15.357c0 6.631-3.895 10.156-10.375 10.156zM64.78 31.524H60v20.172c0 3.35 1.417 4.747 4.284 4.747h9.242V52.36h-6.94c-1.381 0-1.805-.419-1.805-1.745V31.524h-.001z" fill="#fff"/></svg>