<svg xmlns="http://www.w3.org/2000/svg" width="117" height="70" fill="#fff" xmlnsV="https://vecta.io/nano"><path d="M59.472 22.229c-.391 0-.696.108-.902.336-.206.218-.315.566-.315 1.01 0 .456.13.826.381 1.12.261.293.587.434.967.434.761 0 1.142-.434 1.142-1.305 0-.489-.108-.88-.336-1.163-.229-.292-.534-.433-.936-.433zm-16.331-.008c-.381 0-.696.13-.935.403s-.381.609-.434 1.01h2.456c0-.935-.358-1.413-1.087-1.413zm14.872 6.052a.95.95 0 0 0-.13.499c0 .391.163.717.478.989.326.25.729.391 1.207.391s.88-.13 1.185-.391.456-.587.456-.978a.92.92 0 0 0-.521-.869c-.348-.185-.902-.271-1.641-.271-.196 0-.359.043-.5.13l-.304.206c-.065.055-.143.154-.229.294zm23.901-6.052c-.381 0-.696.13-.935.403s-.381.609-.434 1.01H83c0-.935-.359-1.413-1.087-1.413zm-45.141.176c-.468 0-.924.185-1.358.544v2.804h-.011c0 .381.13.674.403.88.261.218.641.315 1.142.315a1.23 1.23 0 0 0 1.12-.609c.251-.403.37-.945.37-1.631s-.163-1.228-.478-1.663c-.316-.424-.719-.641-1.186-.641zm78.921 26.951l-1.462-2.515s1.936 1.756.344-1.264-15.289-21.67-18.488-25.199c-3.23-3.566-9.403-9.179-12.242-10.638s-4.993-1.793-6.28-.414-2.13 4.228-5.016 5.53c0 0-1.068.549-2.599.556-1.1-.004-1.413.003-2.78-.471-2.922-1.028-4.207-4.961-4.435-5.723-.303-.99-1.086-7.167-3.844-7.078-.325-.882-.808-1.85-.94-2.11-.008-.009-.032-.02-.032-.02-.017-.001-.026.005-.028.022a23.25 23.25 0 0 0-.93 2.112c-2.757-.08-3.508 6.104-3.812 7.093-.227.744-1.491 4.705-4.406 5.741-1.365.482-1.678.489-2.778.484-1.532.006-2.604-.536-2.604-.536-2.894-1.279-3.751-4.124-5.044-5.495s-3.447-1.019-6.275.448c-2.837 1.475-8.975 7.125-12.191 10.699C16.663 24.12 3.07 42.832 1.487 45.862s.348 1.274.348 1.274-.153.381-1.441 2.52c-1.286 2.123.506 2.29 6.381-3.592 1.171-.038 7.715-5.312 7.715-5.312l1.82-2.046c.008.009.008.009.024.011-.948 1.975.53.855 2.355-.861-.377 1.184 1.138-.042 2.844-1.678-1.214 2.385.578.953 2.607-1.003-1.595 2.765.648 1.003 2.959-1.116-.498 1.433.643.52 2.107-.999l.274.724s.066.236.343.41a5.47 5.47 0 0 1 .346.224s.15.093.183.097.173-.107.173-.107l.245-.227.009.069s.066.236.336.401l.347.224s.15.093.183.097.173-.107.173-.107.102-.082.224-.195c.025.07.117.241.322.366l.347.224s.15.093.183.097.173-.107.173-.107.102-.082.224-.195c.015.019.039.029.046.039l.347.224a1.17 1.17 0 0 0 .184.097c.033.004.173-.107.173-.107l.056-.045c.045.056.106.113.186.155l.347.224s.15.093.183.097.173-.107.173-.107.111-.089.234-.203c.05.081.131.183.265.275l.346.224s.15.093.184.097.173-.107.173-.107.104-.098.234-.203l.013.036s.066.236.336.401l.347.224a1.17 1.17 0 0 0 .184.097c.033.004.173-.107.173-.107l.357-.316c.05.081.131.183.268.259l.347.224s.15.093.183.097.173-.107.173-.107l.065-.052.117.317s.066.236.336.401l.347.224a1.17 1.17 0 0 0 .184.097c.033.004.173-.107.173-.107s.102-.082.224-.195l.098.256s.066.236.336.401l.347.224s.15.093.183.097.173-.107.173-.107.041-.064.118-.155c.039.029.069.066.125.098l.347.224a1.17 1.17 0 0 0 .183.097c.033.004.173-.107.173-.107l.056-.045.07.279s.066.236.336.401l.346.224s.15.093.184.097.173-.107.173-.107l.056-.045.032.097s.066.236.336.401l.347.224s.15.093.184.097.173-.107.173-.107.234-.203.423-.383l.083.238s.066.236.336.401l.347.224s.15.093.184.097.173-.107.173-.107.102-.082.234-.203l.065.176s.066.236.336.401l.347.224s.15.093.184.097.173-.107.173-.107.093-.074.215-.187c2.186 1.326 3.834 4.666 4.857 11.411.584 3.854 2.51 13.331 3.072 14.815.359.945 1.07 1.854 1.616 2.422a1.77 1.77 0 0 0 .465.45c.085.069.139.117.187.139.097.045.206.125.366.134.009-.008.009-.008.025-.006.162-.008.271-.08.362-.138.036-.013.101-.065.176-.141a1.88 1.88 0 0 0 .457-.456c.53-.575 1.249-1.484 1.59-2.427.563-1.484 2.445-10.975 2.995-14.838.982-6.749 2.609-10.104 4.797-11.44a6.35 6.35 0 0 0 .208.183s.139.117.166.112c.033.004.18-.098.18-.098s.082-.05.338-.224c.264-.166.333-.403.333-.403l.061-.171c.122.115.223.203.223.203s.139.117.166.112c.033.004.18-.098.18-.098s.082-.05.338-.224c.264-.166.332-.403.332-.403l.085-.236a12.09 12.09 0 0 0 .431.386s.139.117.166.112c.033.004.18-.098.18-.098s.082-.05.338-.224c.264-.166.333-.403.333-.403l.036-.089a.27.27 0 0 1 .053.048s.139.117.166.112c.033.004.18-.098.18-.098s.082-.05.338-.224c.264-.166.332-.403.332-.403l.065-.28a.27.27 0 0 1 .053.048s.139.117.166.112c.033.004.18-.098.18-.098s.082-.05.338-.224l.121-.097.118.149s.139.117.166.112c.033.004.18-.098.18-.098s.081-.05.338-.224c.264-.166.333-.403.333-.403l.088-.252a9.82 9.82 0 0 0 .223.203s.139.117.166.112c.033.004.18-.098.18-.098s.082-.05.338-.224c.264-.166.333-.403.333-.403l.112-.317c.04.029.061.057.061.057s.139.117.166.112c.033.004.18-.098.18-.098s.082-.05.338-.224a.81.81 0 0 0 .259-.268 12.06 12.06 0 0 0 .362.32s.139.117.166.112c.033.004.18-.098.18-.098s.081-.05.338-.224c.264-.166.333-.403.333-.403l.013-.041c.122.115.24.204.24.204s.139.117.166.112c.033.004.18-.098.18-.098s.082-.05.338-.224a.83.83 0 0 0 .267-.275l.231.212s.139.117.166.112c.033.004.18-.098.18-.098s.082-.05.338-.224a.81.81 0 0 0 .187-.166c.032.02.053.048.053.048s.139.117.166.112c.033.004.18-.098.18-.098s.082-.05.338-.224l.056-.045a9.41 9.41 0 0 0 .223.203s.139.117.166.112c.033.004.18-.098.18-.098s.082-.05.338-.224a.86.86 0 0 0 .32-.362 9.41 9.41 0 0 0 .223.203s.139.117.166.112c.033.004.18-.098.18-.098s.082-.05.338-.224c.264-.166.332-.403.332-.403l.008-.066a9.35 9.35 0 0 1 .255.223s.149.11.182.113.18-.098.18-.098.082-.05.348-.232c.273-.172.341-.41.341-.41l.268-.731c1.473 1.501 2.614 2.416 2.114.989 2.326 2.112 4.575 3.861 2.963 1.101 2.041 1.946 3.844 3.365 2.613.986 1.721 1.622 3.234 2.848 2.85 1.664 1.831 1.702 3.322 2.823 2.349.846.009-.008.009-.008.019-.015l1.827 2.04s6.578 5.243 7.741 5.272c5.847 5.697 7.642 5.524 6.348 3.41zM32.748 33.836c.009-.008.011-.024.029-.04l.004.043c-.008-.01-.017-.003-.033-.004zm6.135-7.169c-.468.566-1.142.847-2.022.847-.544 0-1.032-.12-1.456-.359v2.565a.36.36 0 0 0 .196.336c.13.065.391.098.794.098l.12.511-1.489-.043-1.456.043-.098-.511c.413-.033.652-.065.739-.108.077-.043.12-.152.12-.326v-6.271c0-.305-.065-.511-.185-.631s-.305-.185-.544-.185l-.196.011-.098-.381c.25-.055.576-.163.989-.315s.684-.271.804-.348c.141 0 .228.033.239.098v.816c.152-.218.391-.403.717-.566s.684-.25 1.087-.25c.739 0 1.326.25 1.771.75s.662 1.142.662 1.912c.003.968-.225 1.729-.693 2.305zm4.392.837c-.837 0-1.5-.261-1.989-.794-.478-.533-.729-1.238-.729-2.119s.271-1.586.815-2.119c.544-.521 1.173-.794 1.869-.794s1.25.206 1.653.631.597 1.01.597 1.771c.022.12 0 .163-.043.163h-3.717v.163c0 .619.173 1.163.521 1.619a1.67 1.67 0 0 0 1.401.684c.576 0 1.065-.185 1.435-.566.022-.022.043-.043.065-.043s.043.011.065.043l.283.315c-.641.697-1.38 1.045-2.227 1.045zm7.097-4.663c-.098.13-.152.196-.163.196l-1.022-.369h-.076c-.185 0-.348.098-.478.283s-.196.456-.196.794v2.706a.36.36 0 0 0 .196.336c.13.065.391.098.794.098l.12.511-1.489-.043-1.456.043-.098-.511c.413-.033.652-.065.739-.108.076-.043.12-.152.12-.326V23.45c0-.304-.055-.521-.163-.641-.13-.12-.305-.185-.544-.185l-.196.011-.12-.369c.598-.141 1.043-.293 1.315-.434.283-.141.434-.228.478-.239.108 0 .185.011.206.022.011.022.033.336.076.979.499-.598 1-.902 1.5-.902s.794.098.902.293c.002.182-.15.477-.443.856zm3.641 4.663c-.837 0-1.5-.261-1.989-.794-.478-.533-.729-1.238-.729-2.119s.271-1.586.815-2.119c.544-.521 1.174-.794 1.869-.794s1.25.206 1.653.631.598 1.01.598 1.771c.022.12 0 .163-.043.163H52.47v.163c0 .619.173 1.163.521 1.619a1.67 1.67 0 0 0 1.401.684c.576 0 1.065-.185 1.435-.566.022-.022.043-.043.065-.043s.043.011.065.043l.283.315c-.641.697-1.38 1.045-2.227 1.045zm8.5-5.184c-.033.196-.076.326-.141.403l-.978-.185c.218.326.326.684.326 1.077 0 .631-.218 1.142-.641 1.521s-.945.566-1.554.566c-.141 0-.271-.011-.413-.022a.74.74 0 0 0-.434.108c-.142.087-.218.185-.218.305 0 .206.173.359.521.456.206.055.619.108 1.238.163.619.065 1.054.141 1.293.239.521.218.782.663.782 1.337 0 .663-.293 1.25-.892 1.739-.598.5-1.315.739-2.174.739-.631 0-1.185-.141-1.663-.434-.478-.283-.717-.729-.717-1.315 0-.271.065-.468.185-.598.12-.12.261-.239.403-.348s.304-.24.489-.369c.185-.141.305-.218.336-.24a1.57 1.57 0 0 1-.576-.403c-.173-.185-.261-.348-.261-.489s.033-.25.098-.315c.173-.173.489-.413.945-.729-.336-.152-.631-.381-.859-.684a1.71 1.71 0 0 1-.348-1.054c0-.609.218-1.108.641-1.511s.945-.598 1.554-.598c.336 0 .641.043.924.13a5.69 5.69 0 0 0 1.13.12 30.46 30.46 0 0 0 1.054-.022c.003.085-.019.227-.051.412zm4.727.521c-.098.13-.152.196-.163.196l-1.022-.369h-.076c-.185 0-.348.098-.478.283s-.196.456-.196.794v2.706a.36.36 0 0 0 .196.336c.13.065.391.098.794.098l.12.511-1.49-.043-1.456.043-.098-.511c.413-.033.652-.065.739-.108.076-.043.12-.152.12-.326V23.45c0-.304-.055-.521-.163-.641-.13-.12-.305-.185-.544-.185l-.196.011-.12-.369c.598-.141 1.044-.293 1.315-.434.283-.141.434-.228.478-.239.108 0 .185.011.206.022.011.022.033.336.077.979.499-.598 1-.902 1.5-.902s.794.098.902.293c.002.182-.149.477-.443.856zm1.87-4.043c.141-.152.326-.228.544-.228s.403.065.544.196a.67.67 0 0 1 .206.521c0 .217-.077.403-.228.554a.75.75 0 0 1-.544.228c-.218 0-.391-.065-.533-.196s-.206-.304-.206-.521a.79.79 0 0 1 .217-.554zm.597 8.565l-1.38.043-.098-.511c.413-.033.652-.065.739-.108.076-.043.12-.152.12-.326V23.2c0-.424-.218-.641-.641-.641-.098 0-.185 0-.24.011l-.12-.37c.554-.141.914-.239 1.065-.293l.782-.305c.108 0 .185.011.206.033s.043.076.043.173v4.652c0 .152.043.261.12.315s.261.098.566.12l.12.511-1.283-.045zm7.619-.011l-1.38.043-.098-.511c.413-.033.652-.065.739-.108.076-.043.12-.152.12-.326v-2.413c0-.544-.108-.924-.315-1.142-.218-.218-.554-.315-1.01-.315s-.945.12-1.435.359v3.51c0 .152.043.261.12.315s.261.098.566.12l.12.511-1.261-.043-1.38.043-.098-.511c.413-.033.652-.065.739-.108.076-.043.12-.152.12-.326v-2.999c0-.305-.055-.521-.163-.641a.91.91 0 0 0-.576-.185l-.196.011-.12-.369c.597-.141 1.043-.293 1.326-.434s.434-.228.478-.239c.108 0 .173.011.196.022.033.033.055.305.077.815a6.92 6.92 0 0 1 1.087-.554 2.84 2.84 0 0 1 1.022-.185c1.185 0 1.782.641 1.782 1.913v2.848c0 .152.043.261.12.315s.261.098.566.12l.12.511-1.264-.045zm5.888 6.349l.013-.041c.008.009.022.028.02.045-.017-.003-.033-.004-.033-.004zm-1.171-6.196c-.837 0-1.5-.261-1.989-.794-.478-.533-.729-1.238-.729-2.119s.271-1.586.816-2.119c.544-.521 1.173-.794 1.869-.794s1.25.206 1.653.631.598 1.01.598 1.771c.022.12 0 .163-.043.163H80.5v.163c0 .619.173 1.163.521 1.619a1.67 1.67 0 0 0 1.401.684c.576 0 1.065-.185 1.435-.566.022-.022.043-.043.065-.043s.043.011.065.043l.283.315c-.64.697-1.379 1.045-2.227 1.045zm-28.159-5.284c-.381 0-.696.13-.935.403s-.381.609-.434 1.01h2.456c0-.935-.358-1.413-1.087-1.413z"/></svg>