<svg width="415" height="64" viewBox="0 0 415 64" fill="none" xmlns="http://www.w3.org/2000/svg">
<path d="M15.6206 0.109672L2.40313 7.35605C1.95254 7.50098 1.95254 8.08069 2.40313 8.22561L33.3441 25.3271C33.6445 25.472 34.0951 25.472 34.3955 25.3271L47.613 18.0807C48.0636 17.9358 48.0636 17.356 47.613 17.2111L16.8222 0.109672C16.3716 -0.0352553 16.0712 -0.0352553 15.6206 0.109672Z" fill="black"/>
<path d="M50.9175 0.109689L37.7 7.35607C37.2494 7.50099 37.2494 8.0807 37.7 8.22563L51.0677 15.7619C51.3681 15.9068 51.8187 15.9068 52.1191 15.7619L65.3366 8.51549C65.7872 8.37056 65.7872 7.79085 65.3366 7.64592L51.9689 0.240124C51.6685 -0.0497313 51.2179 -0.0497313 50.9175 0.0951963V0.109689Z" fill="black"/>
<path d="M35.447 29.2256V43.8633C35.447 44.2981 35.8976 44.5879 36.3482 44.2981L49.7159 36.9068C49.8661 36.7618 50.0163 36.6169 50.0163 36.472V21.414C50.0163 20.9792 49.5657 20.6894 49.1151 20.9792L36.0478 28.2256C35.5972 28.5155 35.447 28.8053 35.447 29.2401V29.2256Z" fill="black"/>
<path d="M53.471 18.5009L66.6885 11.2545C66.9889 11.1096 67.5897 11.2545 67.5897 11.6893V45.8922C67.5897 46.327 67.4395 46.6169 66.9889 46.7618L36.1981 63.8632C35.8977 64.0082 35.2969 63.8632 35.2969 63.4285V48.7908C35.2969 48.356 35.4471 48.0661 35.8977 47.9212L52.4196 38.7908C52.72 38.6458 53.0204 38.2111 53.0204 37.7763V19.5154C53.0204 19.0806 53.1706 18.7908 53.471 18.5009Z" fill="black"/>
<path d="M32.443 29.0951V44.1676C32.443 44.4574 32.1426 44.6023 31.8422 44.4574L15.6207 35.4719C15.3203 35.327 14.7195 35.4719 14.7195 35.9067V53.5879C14.7195 54.0226 14.2689 54.3125 13.8183 54.0226L0.600796 46.7618C0.300398 46.6168 0 46.1821 0 45.8922V11.5444C0 11.1096 0.450597 10.8197 0.901194 11.1096L31.8422 28.211C32.1426 28.356 32.443 28.7908 32.443 29.0806V29.0951Z" fill="black"/>
<path d="M18.4744 40.3849L31.692 47.7762C31.9924 47.9211 32.2928 48.3559 32.2928 48.6457V63.4283C32.2928 63.8631 31.8422 64.153 31.3916 63.8631L18.174 56.4718C17.8736 56.3269 17.5732 55.8921 17.5732 55.6023V40.9646C17.7234 40.5298 18.174 40.2399 18.4744 40.3849Z" fill="black"/>
<path d="M118.808 22.269C118.808 28.5009 114.452 32.1241 109.195 32.7038C107.392 32.8487 106.191 32.9936 104.088 32.9936H98.8311V45.8922H91.7717V11.5588H104.088C106.191 11.5588 107.543 11.5588 109.195 11.8487C114.602 12.4284 118.808 15.9067 118.808 22.2835V22.269ZM111.298 22.269C111.298 19.0806 109.495 17.4864 107.092 17.1965C106.341 17.0516 105.29 17.0516 103.938 17.0516H98.8311V27.4864H103.938C105.29 27.4864 106.341 27.4864 107.092 27.3414C109.645 26.9067 111.298 25.4574 111.298 22.269Z" fill="black"/>
<path d="M138.183 18.9502V24.4574C132.325 24.0227 129.321 26.6314 129.321 33.7328V45.7618H122.262V19.3705H129.321V24.1531L131.424 20.5299C132.776 19.3705 134.578 18.7908 136.08 18.7908C136.981 18.7908 137.582 18.7908 138.183 18.9357V18.9502Z" fill="black"/>
<path d="M167.772 32.5588C167.772 40.5298 162.666 46.4718 153.654 46.4718C144.642 46.4718 139.535 40.5298 139.535 32.5588C139.535 24.5878 144.642 18.6458 153.654 18.6458C162.666 18.6458 167.772 24.5878 167.772 32.5588ZM160.413 32.5588C160.413 26.9066 157.859 23.4284 153.654 23.4284C149.448 23.4284 146.895 26.7617 146.895 32.5588C146.895 38.3559 149.448 41.6892 153.654 41.6892C157.859 41.5443 160.413 38.211 160.413 32.5588Z" fill="black"/>
<path d="M180.539 36.3416V38.6604C180.69 41.2691 181.741 41.8488 185.646 41.559V46.0517C183.994 46.3416 182.492 46.3416 180.99 46.3416C175.733 46.3416 173.78 44.6024 173.48 40.9792C173.33 39.8198 173.33 38.6604 173.33 37.2111V24.1677H169.274V19.6749H173.33V10.9792H180.389V19.6749H186.097V24.1677H180.389V36.3416H180.539Z" fill="black"/>
<path d="M216.287 32.5588C216.287 40.5298 211.18 46.4718 202.168 46.4718C193.156 46.4718 188.049 40.5298 188.049 32.5588C188.049 24.5878 193.156 18.6458 202.168 18.6458C211.18 18.6458 216.287 24.5878 216.287 32.5588ZM209.077 32.5588C209.077 26.9066 206.524 23.4284 202.318 23.4284C198.113 23.4284 195.559 26.7617 195.559 32.5588C195.559 38.3559 198.113 41.6892 202.318 41.6892C206.374 41.5443 209.077 38.211 209.077 32.5588Z" fill="black"/>
<path d="M244.975 28.9358H238.066C237.465 25.1677 235.362 23.5735 232.358 23.5735C228.753 23.5735 226.2 26.3271 226.2 32.4141C226.2 38.9358 228.753 41.6894 232.358 41.6894C235.062 41.6894 237.164 39.9503 237.915 36.617H244.975C243.773 43.1387 238.817 46.472 231.907 46.472C224.397 46.472 218.84 41.9793 218.84 32.8488C218.84 23.7184 224.998 18.7909 232.508 18.7909C239.868 18.6459 244.524 22.9938 244.975 28.9358Z" fill="black"/>
<path d="M275.766 32.5588C275.766 40.5298 270.659 46.4718 261.647 46.4718C252.635 46.4718 247.528 40.5298 247.528 32.5588C247.528 24.5878 252.635 18.6458 261.647 18.6458C270.659 18.6458 275.766 24.5878 275.766 32.5588ZM268.406 32.5588C268.406 26.9066 265.852 23.4284 261.647 23.4284C257.441 23.4284 254.888 26.7617 254.888 32.5588C254.888 38.3559 257.441 41.6892 261.647 41.6892C265.852 41.5443 268.406 38.211 268.406 32.5588Z" fill="black"/>
<path d="M278.92 45.7619V10.8198H285.979V45.7619H278.92Z" fill="black"/>
<path d="M329.837 45.7619H304.303V10.8198H311.363V40.1097H329.837V45.7619Z" fill="black"/>
<path d="M348.912 41.8343L347.561 44.5879C345.608 45.8923 343.355 46.3271 340.802 46.3271C336.145 46.3271 332.09 43.7184 332.09 38.6459C332.09 32.8488 337.197 29.5155 347.11 29.5155H348.912V28.9358C348.912 28.2111 348.912 27.3416 348.762 26.472C348.612 24.5879 347.26 23.2836 344.557 23.2836C341.703 23.2836 340.201 24.8778 340.051 27.7763H333.141C333.292 21.8343 338.398 18.501 344.857 18.501C352.517 18.501 355.371 21.6894 355.822 26.3271C355.972 27.6314 355.972 28.9358 355.972 30.385V38.9358C355.972 40.9647 356.122 42.7039 356.422 45.6024H349.513L348.912 41.8343ZM348.912 36.0372V33.8633C343.205 33.4285 339.45 34.7329 339.45 38.2111C339.45 40.53 341.102 41.6894 343.655 41.6894C346.509 41.5445 348.912 39.6604 348.912 36.0372Z" fill="black"/>
<path d="M389.616 32.1242C389.616 41.6894 383.608 46.472 376.549 46.472C374.296 46.472 371.592 45.8923 370.091 45.0227L368.288 42.2691V45.7474H361.229V10.8198H368.288V23.4285L370.391 20.53C371.893 19.3705 374.747 18.6459 377.45 18.6459C385.11 18.6459 389.616 24.2981 389.616 32.1242ZM382.257 32.559C382.257 27.1966 379.553 23.5734 375.347 23.5734C371.442 23.5734 368.288 25.8923 368.288 32.2691V33.5734C368.288 39.5155 371.893 41.6894 375.047 41.6894C379.253 41.5445 382.257 38.6459 382.257 32.559Z" fill="black"/>
<path d="M414.55 27.0517H407.49C407.04 24.5879 405.688 23.2836 403.285 23.2836C401.182 23.2836 399.98 24.443 399.98 26.0372C399.98 28.0662 401.632 29.0807 406.138 30.0952C411.696 31.5445 415 33.7184 415 38.501C415 43.8633 410.044 46.3271 403.735 46.3271C397.427 46.3271 392.47 43.5734 391.719 37.6314H398.779C399.379 40.53 401.332 41.8343 403.885 41.8343C406.138 41.8343 407.941 40.9647 407.941 38.9358C407.941 36.9068 406.138 35.7474 401.482 34.5879C396.375 33.2836 392.921 31.2546 392.921 26.6169C392.921 21.5445 397.277 18.501 403.735 18.501C410.194 18.6459 413.949 22.2691 414.55 27.0517Z" fill="black"/>
</svg>
