<svg width="161" height="40" viewBox="0 0 161 40" fill="none" xmlns="http://www.w3.org/2000/svg">
<path d="M62.2277 17.8195C62.2277 12.9525 62.2277 8.17142 62.2277 3.35168C64.3243 3.35168 66.3438 3.35168 68.4146 3.35168C68.4146 14.3817 68.4146 25.3831 68.4146 36.4318C66.3738 36.4318 64.3531 36.4318 62.2277 36.4318C62.2277 35.838 62.2277 35.2372 62.2277 34.5633C62.0541 34.6478 61.9837 34.6635 61.938 34.7064C59.6175 36.8595 56.8524 37.4003 53.8736 36.6778C49.9454 35.7264 47.5818 33.0683 46.611 29.25C45.6257 25.376 46.2882 21.7652 48.9458 18.6535C51.741 15.3803 56.6716 14.4532 60.3561 16.5061C60.9713 16.8481 61.5192 17.3159 62.2277 17.8195ZM62.4327 26.4732C62.4371 25.4161 62.305 24.6134 61.9838 23.8638C61.2295 22.1028 59.9043 21.027 57.9796 20.8194C56.164 20.6235 54.618 21.2257 53.5222 22.7122C52.2315 24.4632 52.0808 26.4075 52.8166 28.4118C53.832 31.1771 57.043 32.4175 59.6662 31.0626C61.6167 30.0569 62.3339 28.3144 62.4327 26.4732Z" fill="black"/>
<path d="M35.8145 17.7973C35.8145 17.1677 35.8145 16.5884 35.8145 15.9574C37.917 15.9574 39.9349 15.9574 41.9542 15.9574C42.1133 16.4553 42.1879 34.7457 42.0273 36.4452C40.0008 36.5254 37.9629 36.4567 35.8476 36.4839C35.8476 35.8273 35.8476 35.2408 35.8476 34.5139C35.5922 34.7128 35.4473 34.813 35.3168 34.9288C33.9243 36.1649 32.2763 36.7886 30.4364 36.9245C25.4111 37.2923 21.7395 34.0233 20.4976 30.1764C19.1466 25.989 19.6758 22.0633 22.5872 18.6327C25.355 15.3738 30.2714 14.4625 33.9358 16.4868C34.5724 16.8373 35.1347 17.318 35.8145 17.7973ZM25.9202 26.2179C25.9202 26.8061 26.1784 27.7228 26.448 28.4224C27.1622 30.2665 28.5376 31.3652 30.5224 31.5626C32.4599 31.7558 34.0318 31.039 35.1332 29.4053C36.4842 27.401 36.3265 24.3809 34.7891 22.5139C32.9131 20.2335 29.2732 20.1978 27.3472 22.4381C26.4177 23.5197 25.9202 24.7879 25.9202 26.2179Z" fill="black"/>
<path d="M131.818 31.4937C134.339 31.4937 136.722 31.4937 139.151 31.4937C139.151 33.1574 139.151 34.7669 139.151 36.4278C132.199 36.4278 125.258 36.4278 118.317 36.4278C118.153 35.9213 118.122 32.3247 118.291 31.4822C120.674 31.4822 123.075 31.4822 125.521 31.4822C125.521 23.7397 125.521 16.0774 125.521 8.33342C123.101 8.33342 120.701 8.33342 118.324 8.33342C118.162 7.744 118.12 4.40209 118.242 3.43356C118.746 3.28335 130.962 3.25188 131.818 3.41497C131.818 12.7282 131.818 22.0601 131.818 31.4937Z" fill="black"/>
<path d="M145.83 27.7826C145.961 29.2847 146.618 30.3935 147.753 31.1616C149.543 32.3735 151.479 32.3763 153.431 31.5837C154.185 31.2775 154.697 30.6695 155.06 29.9357C156.889 29.9357 158.697 29.9357 160.629 29.9357C160.416 30.5379 160.28 31.0944 160.033 31.5966C158.923 33.8699 157.136 35.4407 154.769 36.2861C151.965 37.289 149.119 37.2261 146.351 36.1545C143.268 34.9614 141.333 32.6782 140.461 29.5064C139.806 27.1216 139.837 24.7483 140.682 22.4064C142.163 18.2976 146.056 15.5165 150.431 15.4335C153.063 15.3835 155.439 16.0773 157.437 17.847C159.183 19.3934 160.167 21.3735 160.669 23.6152C160.967 24.947 161.074 26.2947 160.948 27.7554C159.947 27.8084 158.954 27.774 157.961 27.7812C156.959 27.7869 155.954 27.7826 154.95 27.7826C153.948 27.7826 152.942 27.7826 151.939 27.7826C150.935 27.7826 149.931 27.7826 148.927 27.7826C147.928 27.7826 146.927 27.7826 145.83 27.7826ZM154.936 23.8899C154.936 23.7698 154.956 23.6739 154.933 23.5894C154.641 22.4779 154.041 21.5766 152.998 21.0543C151.335 20.2218 149.665 20.2876 148.078 21.2447C147.092 21.8384 146.429 22.7239 146.063 23.8913C149.053 23.8899 151.979 23.8899 154.936 23.8899Z" fill="black"/>
<path d="M116.911 23.6683C114.81 23.6683 112.76 23.6683 110.696 23.6683C110.641 23.5839 110.573 23.5109 110.542 23.4265C109.742 21.2877 107.183 20.1504 104.67 21.2563C103.272 21.8714 102.401 22.9774 102.011 24.4394C101.478 26.4452 101.715 28.3293 103.088 29.9559C104.802 31.9845 108.026 32.1004 109.756 30.2005C110.133 29.7856 110.388 29.2606 110.743 28.7241C112.736 28.7241 114.804 28.7241 116.951 28.7241C116.924 28.9544 116.921 29.1606 116.874 29.3579C116.165 32.2792 114.374 34.3564 111.755 35.7342C107.325 38.066 101.655 37.0203 98.3143 33.2978C93.7607 28.2248 95.0901 20.2278 101.043 16.8858C105.548 14.3565 111.131 15.1448 114.607 18.8043C115.752 20.0089 116.495 21.428 116.879 23.0389C116.906 23.1548 116.93 23.2721 116.941 23.3908C116.948 23.4566 116.928 23.5268 116.911 23.6683Z" fill="black"/>
<path d="M80.7155 20.8868C78.2989 20.8868 75.9167 20.8868 73.4832 20.8868C73.4832 19.2244 73.4832 17.6165 73.4832 15.9554C77.9776 15.9554 82.4594 15.9554 87.0357 15.9554C87.0458 16.2187 87.0678 16.4947 87.0678 16.7695C87.0692 21.3703 87.0692 25.9711 87.0692 30.572C87.0692 30.8495 87.0692 31.127 87.0692 31.4575C89.5483 31.4575 91.9306 31.4575 94.2943 31.4575C94.4767 31.9926 94.5195 35.4862 94.3662 36.4319C87.4333 36.4319 80.4918 36.4319 73.5552 36.4319C73.407 35.9039 73.3614 32.6521 73.4932 31.5061C74.2776 31.4461 75.0826 31.4861 75.8839 31.4791C76.6725 31.4718 77.4611 31.4776 78.2505 31.4776C79.0606 31.4776 79.8726 31.4776 80.6699 31.4776C80.8465 30.9569 80.8906 21.8524 80.7155 20.8868Z" fill="black"/>
<path d="M16.6809 15.953C16.6809 17.6111 16.6809 19.202 16.6809 20.8945C15.522 20.9144 14.3847 20.9015 13.2489 20.9029C12.0786 20.9058 10.9083 20.9029 9.73804 20.9029C8.59644 20.9029 7.45483 20.9029 6.23292 20.9029C6.23292 26.099 6.23292 31.232 6.23292 36.3422C5.64491 36.5081 0.834688 36.5381 0 36.3966C0 29.604 0 22.8028 0 15.953C5.55313 15.953 11.079 15.953 16.6809 15.953Z" fill="black"/>
<path d="M83.3339 11.0788C81.0237 11.0831 79.2206 9.30629 79.2249 7.03161C79.2291 4.79842 81.0207 3.01874 83.2834 3.00015C85.5915 2.98155 87.4123 4.74979 87.4223 7.0173C87.4338 9.30343 85.6499 11.0745 83.3339 11.0788Z" fill="black"/>
</svg>
