<svg xmlns="http://www.w3.org/2000/svg" width="152" height="30" fill="none" xmlnsV="https://vecta.io/nano"><g fillRule="evenodd" fill="#000"><path d="M24.358 12.857A5.64 5.64 0 0 0 30 18.499v5.859a11.5 11.5 0 0 1-11.501-11.501h5.859z"/><path d="M18.499 30A11.5 11.5 0 0 1 30 18.499v5.859A5.64 5.64 0 0 0 24.358 30h-5.859zM5.642 17.143A5.64 5.64 0 0 0 0 11.501V5.642a11.5 11.5 0 0 1 11.501 11.501H5.642z"/><path d="M11.501 0A11.5 11.5 0 0 1 0 11.501V5.642A5.64 5.64 0 0 0 5.642 0h5.859zm1.356 5.642A5.64 5.64 0 0 0 18.499 0h5.859a11.5 11.5 0 0 1-11.501 11.501V5.642z"/><path d="M30 11.501A11.5 11.5 0 0 1 18.499 0h5.859A5.64 5.64 0 0 0 30 5.642v5.859zM17.143 24.358A5.64 5.64 0 0 0 11.501 30H5.642a11.5 11.5 0 0 1 11.501-11.501v5.859z"/><path d="M0 18.499A11.5 11.5 0 0 1 11.501 30H5.642c0-3.12-2.522-5.642-5.642-5.642v-5.859z"/></g><path d="M44.971 16.302c-.004.625-.191 1.168-.56 1.628s-.866.811-1.503 1.063-1.354.371-2.167.371c-1.342 0-2.392-.274-3.15-.824s-1.176-1.272-1.264-2.172h3.132a.9.9 0 0 0 .411.646c.236.148.533.223.892.223.289 0 .528-.049.714-.148.191-.099.288-.24.292-.423-.004-.167-.088-.3-.252-.4s-.411-.179-.755-.24l-1.554-.274c-.895-.156-1.565-.454-2.012-.891s-.666-1.002-.663-1.691c-.004-.61.156-1.125.48-1.549s.795-.751 1.401-.972 1.332-.337 2.166-.337c1.269 0 2.27.263 3 .788a2.68 2.68 0 0 1 1.161 2.183H41.84a.8.8 0 0 0-.189-.463c-.111-.13-.254-.229-.429-.297-.171-.073-.362-.108-.572-.108a1.52 1.52 0 0 0-.698.148c-.195.099-.289.24-.285.422-.004.13.052.249.166.36s.345.196.68.258l1.783.321c.899.163 1.568.44 2.006.829s.665.902.669 1.549h0zm7.028-.937c.004.289-.048.539-.155.748a1.13 1.13 0 0 1-.446.48 1.33 1.33 0 0 1-.68.166c-.396 0-.705-.123-.925-.371s-.328-.588-.332-1.024v-4.939h-3.155v5.602c.004.64.132 1.208.384 1.704s.611.884 1.069 1.166.998.422 1.612.422c.655 0 1.221-.156 1.698-.469s.81-.755 1-1.314h.092v1.669h2.995v-8.779h-3.155v4.939zm13.362-3.132c.332.663.497 1.524.497 2.584s-.159 1.854-.474 2.521-.732 1.164-1.257 1.491-1.095.492-1.72.492c-.411 0-.78-.067-1.103-.2a2.54 2.54 0 0 1-.824-.555c-.225-.236-.399-.503-.521-.8h-.045V22.5h-3.155V10.426h3.132v1.531h.069a2.65 2.65 0 0 1 .503-.817 2.4 2.4 0 0 1 .822-.6c.328-.152.709-.229 1.143-.229a3.2 3.2 0 0 1 1.652.463c.526.308.953.795 1.28 1.457v.001zm-2.749 2.584c0-.434-.055-.806-.166-1.114s-.263-.551-.469-.714-.448-.252-.737-.252-.539.084-.748.252-.366.402-.48.714-.166.68-.166 1.114.055.796.166 1.109.274.548.48.72.459.252.748.252.536-.082.737-.245.362-.406.469-.714.166-.685.166-1.12v-.001zm13.016-1.88c.206.556.308 1.183.308 1.88v.732H70.22v.137c0 .282.059.533.177.755s.288.395.509.521.488.189.8.189c.218 0 .415-.03.595-.092s.34-.148.469-.263.225-.259.285-.423h2.881c-.099.61-.333 1.139-.703 1.589s-.859.792-1.469 1.04-1.315.366-2.126.366c-.938 0-1.745-.178-2.423-.537a3.77 3.77 0 0 1-1.56-1.554c-.362-.678-.543-1.49-.543-2.434s.182-1.7.548-2.378a3.92 3.92 0 0 1 1.549-1.583c.666-.377 1.454-.566 2.36-.566.663 0 1.264.103 1.801.308a3.78 3.78 0 0 1 1.377.898 3.96 3.96 0 0 1 .88 1.417v-.001zm-2.595.874c-.004-.252-.069-.473-.195-.663a1.24 1.24 0 0 0-.497-.451 1.46 1.46 0 0 0-.703-.166c-.263 0-.489.055-.703.166s-.385.255-.514.446-.192.414-.2.669h2.812v-.001zm9.587-3.498c-.469 0-.878.143-1.229.429s-.6.737-.761 1.354h-.092v-1.669h-3.063v8.778h3.155v-4.572c0-.336.07-.626.211-.874a1.49 1.49 0 0 1 .577-.583c.248-.141.526-.211.835-.211.163 0 .36.014.588.04s.421.067.577.119v-2.692c-.126-.038-.258-.067-.395-.085a2.43 2.43 0 0 0-.406-.034h.001zm13.209 0c-.651 0-1.22.163-1.704.492s-.8.754-.948 1.291h-.092a1.94 1.94 0 0 0-.806-1.291c-.446-.328-.977-.492-1.594-.492s-1.135.16-1.578.48-.755.755-.937 1.303h-.092v-1.669h-2.995v8.778h3.155v-5.122c0-.255.041-.474.126-.658a1 1 0 0 1 .366-.429c.156-.099.343-.148.561-.148.328 0 .588.111.783.332s.292.518.292.903v5.122h3.018v-5.122c0-.385.093-.685.281-.903s.448-.332.772-.332.589.111.783.332.292.518.292.903v5.122h3.155v-5.921c0-.899-.263-1.62-.788-2.16s-1.205-.811-2.046-.811h-.003zm12.753 2.16c.362.678.543 1.467.543 2.367s-.181 1.69-.543 2.372-.883 1.208-1.561 1.589-1.494.566-2.446.566-1.768-.189-2.447-.566-1.198-.91-1.56-1.589-.543-1.473-.543-2.372.181-1.687.543-2.367.883-1.212 1.56-1.589 1.494-.572 2.447-.572 1.768.191 2.446.572a3.85 3.85 0 0 1 1.561 1.589h0zm-2.681 2.344c0-.461-.053-.855-.16-1.183s-.258-.587-.451-.766a.99.99 0 0 0-.692-.269 1.05 1.05 0 0 0-.725.269c-.203.179-.356.434-.463.766s-.16.722-.16 1.183.053.851.16 1.183.261.587.463.766.443.269.725.269c.267 0 .497-.089.692-.269s.344-.434.451-.766.16-.725.16-1.183zM116.324 7.5h3.155v11.706h-3.132v-1.44h-.07a2.51 2.51 0 0 1-.525.8 2.46 2.46 0 0 1-.824.555c-.32.133-.685.2-1.098.2-.625 0-1.2-.163-1.726-.492s-.941-.825-1.257-1.491-.469-1.506-.469-2.521.163-1.92.491-2.584.758-1.149 1.28-1.457 1.079-.463 1.658-.463c.433 0 .814.077 1.143.229a2.39 2.39 0 0 1 .823.6 2.65 2.65 0 0 1 .503.817h.045V7.5h.003zm.069 7.316c0-.434-.058-.806-.171-1.114s-.27-.551-.48-.714-.454-.252-.743-.252-.537.084-.744.252c-.202.163-.358.402-.469.714-.106.308-.159.68-.159 1.114s.053.807.159 1.12c.111.308.267.547.469.714.207.163.454.245.744.245s.537-.084.743-.252.369-.411.48-.721.171-.681.171-1.109v.001zm10.329.548c.003.289-.048.539-.155.748s-.251.366-.446.48-.418.166-.681.166c-.396 0-.705-.123-.925-.371s-.328-.588-.332-1.024v-4.938h-3.155v5.602c.004.64.132 1.208.384 1.704s.611.884 1.068 1.166.999.422 1.612.422c.656 0 1.221-.156 1.698-.469a2.49 2.49 0 0 0 1-1.314h.091v1.669h2.996v-8.779h-3.155v4.939-.001zm4.759 3.842h3.155V7.5h-3.155v11.706zm12.61-7.145a2.36 2.36 0 0 1 .28 1.132v6.013h-2.95v-1.235h-.068c-.175.328-.388.592-.64.795-.247.203-.532.348-.851.44s-.665.137-1.046.137c-.56 0-1.055-.092-1.487-.274-.426-.186-.762-.469-1.005-.846s-.366-.858-.366-1.44c0-.48.081-.89.245-1.228a2.2 2.2 0 0 1 .686-.84c.293-.218.634-.384 1.024-.497s.816-.189 1.269-.223l1.183-.137c.3-.057.518-.136.651-.234s.2-.238.2-.406v-.023a.6.6 0 0 0-.263-.526c-.174-.122-.399-.182-.674-.182-.3 0-.547.067-.736.2s-.3.33-.337.6h-2.904c.038-.533.208-1.025.509-1.475s.749-.815 1.332-1.086 1.31-.411 2.183-.411c.629 0 1.193.074 1.691.223s.924.348 1.275.611.618.563.8.914l-.001-.001zm-2.852 3.303l-.269.097-.297.085-.332.074-.36.063c-.244.038-.443.101-.599.189s-.267.189-.344.314-.108.259-.108.411c0 .244.086.43.258.559s.391.195.658.195a1.55 1.55 0 0 0 .674-.148c.213-.099.387-.242.52-.429s.2-.414.2-.68v-.732l-.001.001zm10.315-5.018c-.134-.023-.269-.034-.407-.034-.469 0-.878.143-1.228.429s-.6.737-.76 1.354h-.091v-1.669h-3.063v8.779h3.154v-4.572c0-.336.071-.626.212-.874a1.49 1.49 0 0 1 .577-.583c.248-.141.525-.211.835-.211a5.27 5.27 0 0 1 .588.04 2.82 2.82 0 0 1 .577.119v-2.692c-.125-.038-.257-.067-.394-.085v-.001z" fill="#000"/></svg>