<svg xmlns="http://www.w3.org/2000/svg" width="232" height="88" fill="#fff" xmlnsV="https://vecta.io/nano"><path d="M147.91 32.512h-9.269v6.293h9.269c1.706 0 3.09-1.408 3.09-3.147s-1.383-3.147-3.09-3.147zm0 25.172h-9.269v6.293h9.269c1.706 0 3.09-1.408 3.09-3.147s-1.383-3.146-3.09-3.146zm-3.088-9.44c0-1.738-1.383-3.146-3.09-3.146h-3.09v6.293h3.09c1.706 0 3.09-1.407 3.09-3.145v-.001zm-12.361 5.722c0 2.054 1.634 3.718 3.651 3.718h2.528V38.805h-2.528c-2.017 0-3.651 1.664-3.651 3.718v11.443zm-15.737-11.202v.438c0 1.044.832 1.891 1.857 1.891h6.429v-4.219h-6.429c-1.025 0-1.857.846-1.857 1.891v-.001zm10.571-6.107h-2.285v4.219h2.285c1.026 0 1.857-.846 1.857-1.891v-.437c0-1.044-.831-1.891-1.857-1.891zm0-8.438h-2.285v4.219h2.285c1.026 0 1.857-.846 1.857-1.891v-.437c0-1.044-.831-1.891-1.857-1.891zm-4.573 8.437h2.286v-4.219h-2.286c-1.025 0-1.856.846-1.856 1.891v.437c0 1.044.831 1.891 1.856 1.891zm-4.142-8.437h6.428V24h-6.428c-1.026 0-1.857.846-1.857 1.891v.437c0 1.044.831 1.89 1.857 1.89v.001zm-31.4 7.462v22.026H81V35.682c0-1.738 1.384-3.147 3.09-3.147s3.09 1.408 3.09 3.145zm0 25.173c0 1.737 1.383 3.147 3.09 3.147s3.09-1.408 3.09-3.147v-3.147h-6.18v3.147zm21.629-28.319c1.706 0 3.09 1.409 3.09 3.148v22.026h-6.179V35.681c0-1.737 1.382-3.146 3.089-3.146zm-3.09 25.172h-6.18v3.147c0 1.738 1.383 3.147 3.09 3.147s3.09-1.409 3.09-3.147v-3.147zm-6.18-9.44c0-1.737-1.383-3.147-3.09-3.147s-3.09 1.408-3.09 3.147v9.44h6.18v-9.44z"/></svg>