<svg width="53" height="30" viewBox="0 0 53 30" fill="none" xmlns="http://www.w3.org/2000/svg">
<path d="M50.5739 6.38374H43.6218V11.1036H50.5739C51.8532 11.1036 52.8912 10.0474 52.8912 8.74366C52.8912 7.4408 51.8541 6.38374 50.5739 6.38374ZM50.5739 25.2631H43.6218V29.9829H50.5739C51.8532 29.9829 52.8912 28.9267 52.8912 27.623C52.8912 26.3201 51.8541 25.2631 50.5739 25.2631ZM48.2574 18.1833C48.2574 16.8796 47.2203 15.8234 45.94 15.8234H43.6227V20.5432H45.94C47.2194 20.5432 48.2574 19.488 48.2574 18.1842V18.1833ZM38.9871 22.4746C38.9871 24.0151 40.2125 25.2631 41.7253 25.2631H43.6209V11.1036H41.7253C40.2125 11.1036 38.9871 12.3515 38.9871 13.8921V22.4746Z" fill="black"/>
<path d="M27.1845 14.0731V14.4017C27.1845 15.185 27.8079 15.8198 28.5771 15.8198H33.3984V12.6558H28.5771C27.8079 12.6558 27.1845 13.2906 27.1845 14.074V14.0731ZM35.1127 9.49278H33.3984V12.6567H35.1127C35.8819 12.6567 36.5053 12.022 36.5053 11.2386V10.9109C36.5053 10.1276 35.8819 9.49278 35.1127 9.49278ZM35.1127 3.16396H33.3984V6.32792H35.1127C35.8819 6.32792 36.5053 5.69315 36.5053 4.90981V4.58207C36.5053 3.79873 35.8819 3.16396 35.1127 3.16396ZM31.6831 9.49188H33.3975V6.32792H31.6831C30.9139 6.32792 30.2906 6.96269 30.2906 7.74603V8.07377C30.2906 8.85711 30.9139 9.49188 31.6831 9.49188ZM28.5762 3.16396H33.3975V0H28.5762C27.807 0 27.1837 0.634773 27.1837 1.41811V1.74585C27.1837 2.52919 27.807 3.16306 28.5762 3.16306V3.16396Z" fill="black"/>
<path d="M5.02595 8.76077V25.2802H0.391235V8.76167C0.391235 7.45791 1.42923 6.40175 2.70859 6.40175C3.98885 6.40175 5.02595 7.45791 5.02595 8.76077ZM5.02595 27.6401C5.02595 28.9429 6.06306 30 7.34331 30C8.62356 30 9.66067 28.9438 9.66067 27.6401V25.2802H5.02595V27.6401ZM21.2484 6.40085C22.5277 6.40085 23.5657 7.45791 23.5657 8.76167V25.2811H18.931V8.76077C18.931 7.45791 19.9681 6.40085 21.2484 6.40085ZM18.9301 25.2802H14.2954V27.6401C14.2954 28.9438 15.3325 30 16.6128 30C17.893 30 18.9301 28.9429 18.9301 27.6401V25.2802ZM14.2954 18.2004C14.2954 16.8976 13.2583 15.8405 11.978 15.8405C10.6978 15.8405 9.66067 16.8967 9.66067 18.2004V25.2802H14.2954V18.2004Z" fill="black"/>
</svg>
