<svg width="159" height="74" viewBox="0 0 159 74" fill="none" xmlns="http://www.w3.org/2000/svg">
<g clip-path="url(#clip0_2534_11)">
<path d="M116.3 56H107.1C96.0666 56 87.1 47.0333 87.1 36C87.1 24.9667 96.0666 16 107.1 16C118.133 16 127.1 24.9667 127.1 36V55.6H119.1V36C119.1 29.3667 113.733 24 107.1 24C100.467 24 95.1 29.3667 95.1 36C95.1 42.6333 100.467 48 107.1 48H116.3V56Z" fill="#1F774D"/>
<path d="M71.1 55.6H63.1V36C63.1 24.9667 72.0666 16 83.1 16V24C76.4666 24 71.1 29.3667 71.1 36V55.6Z" fill="#1F774D"/>
<path d="M35.1 56C24.0666 56 15.1 47.0333 15.1 36C15.1 24.9667 24.0666 16 35.1 16C46.1333 16 55.1 24.9667 55.1 36V40H32.1V32H46.4C44.7333 27.3333 40.3 24 35.1 24C28.4666 24 23.1 29.3667 23.1 36C23.1 42.6333 28.4666 48 35.1 48C39.1 48 42.8333 46 45.0666 42.6667L51.7 47.1333C48 52.6667 41.8 56 35.1 56Z" fill="#1F774D"/>
<path d="M5.89996 53.9V51.7H7.09996V55.6H6.23329L3.33329 53.5V55.5H2.16663V51.8H2.99996L5.89996 53.9Z" fill="#1F774D"/>
<path d="M7.09996 46.2V47.7L4.83329 49.5H7.09996V50.7666H0.166626V49.5H4.33329L2.13329 47.8V46.2666L4.56663 48.2666L7.09996 46.2Z" fill="#1F774D"/>
<path d="M7.23333 43.0666C7.23333 43.7666 7.06667 44.3333 6.76667 44.8C6.46667 45.2666 6.03333 45.6 5.5 45.8L4.8 44.6333C5.5 44.3666 5.86667 43.8333 5.86667 43.0333C5.86667 42.6666 5.8 42.3666 5.66667 42.2C5.53333 42.0333 5.36667 41.9333 5.13333 41.9333C4.9 41.9333 4.7 42.0333 4.56667 42.2666C4.43333 42.5 4.3 42.8666 4.13333 43.4333C4.03333 43.7333 3.93333 44 3.86667 44.2333C3.76667 44.4333 3.66667 44.6666 3.5 44.8666C3.33333 45.0666 3.13333 45.2333 2.9 45.3666C2.66667 45.4666 2.4 45.5333 2.06667 45.5333C1.43333 45.5333 0.933333 45.3 0.566667 44.8666C0.2 44.4333 0 43.9 0 43.2666C0 42.7 0.133333 42.2 0.4 41.8C0.666667 41.3666 1.06667 41.0333 1.53333 40.8L2.2 41.9333C1.6 42.2 1.3 42.6666 1.3 43.2666C1.3 43.5666 1.36667 43.7666 1.5 43.9333C1.63333 44.1 1.8 44.1666 2 44.1666C2.23333 44.1666 2.4 44.0666 2.53333 43.9C2.66667 43.7333 2.8 43.3666 2.96667 42.8666C3.03333 42.6666 3.1 42.5 3.13333 42.4C3.16667 42.3 3.23333 42.1333 3.3 41.9666C3.36667 41.7666 3.43333 41.6333 3.5 41.5333C3.56667 41.4333 3.66667 41.3 3.76667 41.1666C3.86667 41.0333 4 40.9333 4.1 40.8666C4.23333 40.8 4.36667 40.7333 4.53333 40.7C4.7 40.6666 4.9 40.6333 5.1 40.6333C5.73333 40.6333 6.23333 40.8666 6.63333 41.3333C7.06667 41.7333 7.23333 42.3333 7.23333 43.0666Z" fill="#1F774D"/>
<path d="M2.16663 36.4333V35.0667L7.13329 36.8666C7.83329 37.1333 8.36663 37.4666 8.66663 37.9C8.99996 38.3333 9.13329 38.8667 9.09996 39.5H7.89996C7.89996 39.1667 7.83329 38.9 7.66663 38.6667C7.49996 38.4667 7.26663 38.3 6.93329 38.2L2.16663 40.2V38.8L5.49996 37.5L2.16663 36.4333Z" fill="#1F774D"/>
<path d="M2 31.6334C2 31.1001 2.16667 30.6334 2.53333 30.3001C2.9 29.9334 3.4 29.7667 4.03333 29.7667H7.06667V31.0334H4.16667C3.83333 31.0334 3.6 31.1334 3.4 31.3001C3.23333 31.4667 3.13333 31.7001 3.13333 32.0001C3.13333 32.3334 3.23333 32.6001 3.43333 32.8001C3.63333 33.0001 3.93333 33.1001 4.36667 33.1001H7.03333V34.3667H2.16667V33.1001H2.73333C2.23333 32.8001 2 32.3001 2 31.6334Z" fill="#1F774D"/>
<path d="M7.23333 26.2333C7.23333 26.9667 6.96667 27.6 6.46667 28.1C5.96667 28.6 5.33333 28.8333 4.6 28.8333C3.86667 28.8333 3.23333 28.6 2.73333 28.1C2.26667 27.6 2 27 2 26.2333C2 25.7667 2.1 25.3 2.33333 24.9C2.56667 24.5 2.86667 24.2 3.26667 24L3.9 25.1C3.7 25.2 3.53333 25.3333 3.4 25.5667C3.26667 25.7667 3.23333 26 3.23333 26.2333C3.23333 26.6 3.36667 26.9333 3.6 27.2C3.86667 27.4667 4.16667 27.5667 4.56667 27.5667C4.96667 27.5667 5.26667 27.4333 5.53333 27.2C5.8 26.9333 5.9 26.6333 5.9 26.2333C5.9 25.9667 5.83333 25.7333 5.73333 25.5333C5.63333 25.3333 5.46667 25.1667 5.26667 25.0667L5.9 23.9667C6.3 24.2 6.6 24.5 6.83333 24.9C7.13333 25.3333 7.23333 25.7667 7.23333 26.2333Z" fill="#1F774D"/>
<path d="M158.633 24H139.1V55.6H158.633V24Z" fill="#1F774D"/>
</g>
<defs>
<clipPath id="clip0_2534_11">
<rect width="158.667" height="40" fill="white" transform="translate(0 16)"/>
</clipPath>
</defs>
</svg>
